<svg width="25" height="25" viewBox="0 0 25 25" fill="none" xmlns="http://www.w3.org/2000/svg">
<path fill-rule="evenodd" clip-rule="evenodd" d="M12.149 2.16718C12.2567 2.12917 12.3742 2.12917 12.4818 2.16718L20.9818 5.16718C21.1817 5.23773 21.3154 5.42668 21.3154 5.63867V8.51953C21.3154 8.79567 21.0916 9.01953 20.8154 9.01953H19.3111V18.0195H20.8263C21.1024 18.0195 21.3263 18.2434 21.3263 18.5195V22.0195C21.3263 22.2957 21.1024 22.5195 20.8263 22.5195H3.82629C3.55015 22.5195 3.32629 22.2957 3.32629 22.0195V18.5195C3.32629 18.2434 3.55015 18.0195 3.82629 18.0195H5.31372V9.01953H3.81543C3.53929 9.01953 3.31543 8.79567 3.31543 8.51953V5.63867C3.31543 5.42668 3.44911 5.23773 3.64902 5.16718L12.149 2.16718ZM6.31372 9.01953V18.0195H11.8365V9.01953H6.31372ZM12.8365 9.01953V18.0195H18.3111V9.01953H12.8365ZM4.31543 5.99243V8.01953H20.3154V5.99243L12.3154 3.1689L4.31543 5.99243ZM4.32629 19.0195V21.5195H20.3263V19.0195H4.32629Z" fill="#101010"/>
</svg>
