<svg width="24" height="24" viewBox="0 0 24 24" fill="none" xmlns="http://www.w3.org/2000/svg">
<path fill-rule="evenodd" clip-rule="evenodd" d="M3.50342 3.00391C3.22728 3.00391 3.00342 3.22776 3.00342 3.50391V20.5039C3.00342 20.78 3.22728 21.0039 3.50342 21.0039H16.002V20.0039H4.00342V4.00391H20.0034V10.0027H21.0034V3.50391C21.0034 3.22776 20.7796 3.00391 20.5034 3.00391H3.50342ZM14.2365 9.00098H12.5898C12.8299 9.33289 12.948 9.71541 13.0103 10.0439H14.6593L14.2365 11.0439H12.9678C12.663 12.2801 11.4613 12.8483 10.7467 12.9218L13.4692 16.0073H12.2623L9.5343 12.9218V11.914C11.0208 12.0447 11.5884 11.5751 11.805 11.0439H9.34753L9.78279 10.0439H11.9267C11.8252 9.3352 11.2596 9.07433 10.7434 9.00098H9.34753L9.78279 8.00098H14.6593L14.2365 9.00098ZM19.6385 13.531C18.8149 13.531 18.1385 14.2126 18.1385 15.0458H17.1385C17.1385 13.6699 18.2531 12.531 19.6385 12.531H19.8288C21.1107 12.531 22.1499 13.5702 22.1499 14.8521C22.1499 15.5832 21.8055 16.2716 21.2203 16.7099L20.5858 17.1851C20.2076 17.4684 19.985 17.9132 19.985 18.3857V18.9887H18.985V18.3857C18.985 17.5983 19.356 16.8568 19.9863 16.3847L20.6208 15.9095C20.9539 15.66 21.1499 15.2682 21.1499 14.8521C21.1499 14.1225 20.5585 13.531 19.8288 13.531H19.6385ZM19.4552 21.8413C19.8694 21.8413 20.2052 21.5055 20.2052 21.0913C20.2052 20.6771 19.8694 20.3413 19.4552 20.3413C19.041 20.3413 18.7052 20.6771 18.7052 21.0913C18.7052 21.5055 19.041 21.8413 19.4552 21.8413Z" fill="#101010"/>
</svg>
