<svg width="25" height="25" viewBox="0 0 25 25" fill="none" xmlns="http://www.w3.org/2000/svg">
<path fill-rule="evenodd" clip-rule="evenodd" d="M3.81885 3.52344C3.54271 3.52344 3.31885 3.7473 3.31885 4.02344V21.0234C3.31885 21.2996 3.54271 21.5234 3.81885 21.5234H16.3175V20.5234H4.31885V4.52344H20.3188V10.5222H21.3188V4.02344C21.3188 3.7473 21.095 3.52344 20.8188 3.52344H3.81885ZM14.5519 9.52051H12.9052C13.1453 9.85242 13.2634 10.2349 13.3257 10.5635H14.9748L14.5519 11.5635H13.2832C12.9785 12.7996 11.7767 13.3679 11.0621 13.4413L13.7846 16.5268H12.5778L9.84973 13.4413V12.4335C11.3362 12.5642 11.9039 12.0946 12.1204 11.5635H9.66296L10.0982 10.5635H12.2421C12.1406 9.85474 11.575 9.59386 11.0588 9.52051H9.66296L10.0982 8.52051H14.9748L14.5519 9.52051ZM19.954 14.0505C19.1303 14.0505 18.454 14.7321 18.454 15.5653H17.454C17.454 14.1894 18.5685 13.0505 19.954 13.0505H20.1443C21.4262 13.0505 22.4654 14.0897 22.4654 15.3716C22.4654 16.1028 22.1209 16.7911 21.5357 17.2294L20.9012 17.7047C20.523 17.9879 20.3004 18.4328 20.3004 18.9053V19.5082H19.3004V18.9053C19.3004 18.1178 19.6714 17.3763 20.3017 16.9043L20.9362 16.429C21.2693 16.1796 21.4654 15.7878 21.4654 15.3716C21.4654 14.642 20.8739 14.0505 20.1443 14.0505H19.954ZM19.7706 22.3608C20.1848 22.3608 20.5206 22.0251 20.5206 21.6108C20.5206 21.1966 20.1848 20.8608 19.7706 20.8608C19.3564 20.8608 19.0206 21.1966 19.0206 21.6108C19.0206 22.0251 19.3564 22.3608 19.7706 22.3608Z" fill="#101010"/>
</svg>
