<svg width="24" height="24" viewBox="0 0 24 24" fill="none" xmlns="http://www.w3.org/2000/svg">
<path fill-rule="evenodd" clip-rule="evenodd" d="M15.6141 4.3267C13.9197 3.53256 12.0106 3.31975 10.1829 3.72129C8.35517 4.12283 6.71107 5.11627 5.50557 6.54751C4.30007 7.97876 3.60057 9.76781 3.51556 11.6372L2.5166 11.5917C2.6116 9.50246 3.3934 7.50293 4.74072 5.90331C6.08804 4.30368 7.92557 3.19336 9.96828 2.74458C12.011 2.2958 14.1447 2.53365 16.0385 3.42122C17.9311 4.30826 19.4783 5.79469 20.4404 7.65016L20.6265 7.99644L19.7458 8.46995L19.5542 8.11354C18.6934 6.45197 17.3085 5.12085 15.6141 4.3267Z" fill="#F19E0C"/>
<path fill-rule="evenodd" clip-rule="evenodd" d="M2.55371 11.1554C2.58168 10.842 2.62524 10.5297 2.68442 10.2196L3.6667 10.407C3.61375 10.6845 3.57477 10.9639 3.54975 11.2443L2.55371 11.1554ZM2.72376 13.9755C2.6581 13.6667 2.608 13.3553 2.57348 13.0427L3.56744 12.9329C3.59833 13.2127 3.64315 13.4912 3.7019 13.7676C3.76064 14.0439 3.83302 14.3166 3.9186 14.5847L2.96596 14.8888C2.8703 14.5891 2.78942 14.2843 2.72376 13.9755ZM20.5926 16.0858C20.4573 16.3698 20.3077 16.6474 20.1443 16.9176C19.9808 17.1877 19.8043 17.449 19.6156 17.7007L18.8156 17.1006C18.9845 16.8755 19.1424 16.6416 19.2887 16.3999C19.4349 16.1582 19.5687 15.9098 19.6898 15.6557L20.5926 16.0858ZM4.21575 17.4226C4.03552 17.1634 3.86867 16.8958 3.71566 16.6209L4.58939 16.1345C4.72629 16.3804 4.87558 16.6198 5.03683 16.8518C5.19809 17.0838 5.3705 17.3071 5.55332 17.5211L4.79299 18.1707C4.58867 17.9315 4.39597 17.6819 4.21575 17.4226ZM18.3386 19.0905C18.1038 19.2999 17.8584 19.4978 17.603 19.6835C17.3476 19.8692 17.0837 20.0417 16.8121 20.2005L16.3073 19.3373C16.5502 19.1952 16.7864 19.0409 17.0149 18.8747C17.2434 18.7086 17.463 18.5315 17.6731 18.3442L18.3386 19.0905ZM6.92714 20.022C6.66052 19.8529 6.40301 19.6709 6.15543 19.4768L6.77234 18.6898C6.99386 18.8634 7.22427 19.0263 7.46282 19.1776C7.70138 19.3289 7.94687 19.468 8.19834 19.5944L7.7492 20.4879C7.46814 20.3466 7.19376 20.1912 6.92714 20.022ZM15.0963 20.9868C14.7987 21.0888 14.4957 21.1761 14.1883 21.2483C13.881 21.3205 13.5708 21.3772 13.2589 21.4184L13.1281 20.427C13.4071 20.3901 13.6847 20.3394 13.9597 20.2748C14.2347 20.2102 14.5058 20.1321 14.7721 20.0408L15.0963 20.9868ZM10.4341 21.3674C10.1228 21.3148 9.81482 21.2468 9.51138 21.1639L9.77504 20.1993C10.0465 20.2735 10.322 20.3343 10.6006 20.3813C10.8792 20.4284 11.1594 20.4614 11.4402 20.4805L11.3724 21.4782C11.0586 21.4569 10.7454 21.4199 10.4341 21.3674Z" fill="#F19E0C"/>
<path fill-rule="evenodd" clip-rule="evenodd" d="M20.1957 8.0546L20.8035 4.60777L21.7883 4.78142L21.0069 9.21305L16.5753 8.43164L16.7489 7.44683L20.1957 8.0546Z" fill="#F19E0C"/>
<path fill-rule="evenodd" clip-rule="evenodd" d="M11.9425 12V8H10.9446V13H15.9446V12H11.9425Z" fill="#F19E0C"/>
</svg>
