<svg width="24" height="24" viewBox="0 0 24 24" fill="none" xmlns="http://www.w3.org/2000/svg">
<path fill-rule="evenodd" clip-rule="evenodd" d="M3.50039 3.00327C3.22425 3.00327 3.0004 3.22711 3.00039 3.50325L3.00024 8.0134L4.00024 8.01343L4.00037 4.00327H7.99499V3.00327H3.50039ZM20.5004 3.00327H16.001V4.00327H20.0004V8.00232H21.0004V3.50327C21.0004 3.22712 20.7765 3.00327 20.5004 3.00327ZM21.0004 20.5033V16.0028H20.0004V20.0033H15.9995V21.0033H20.5004C20.7765 21.0033 21.0004 20.7794 21.0004 20.5033ZM4.00039 20.0033V16.0083H3.00039V20.5033C3.00039 20.7794 3.22424 21.0033 3.50039 21.0033H8.0036V20.0033H4.00039ZM7.00684 7.50546C7.00684 7.22932 7.23069 7.00546 7.50684 7.00546H10.5068C10.783 7.00546 11.0068 7.22932 11.0068 7.50546V10.5055C11.0068 10.7816 10.783 11.0055 10.5068 11.0055H7.50684C7.23069 11.0055 7.00684 10.7816 7.00684 10.5055V7.50546ZM8.00684 8.00546V10.0055H10.0068V8.00546H8.00684ZM13.01 7.50546C13.01 7.22932 13.2339 7.00546 13.51 7.00546H16.51C16.7862 7.00546 17.01 7.22932 17.01 7.50546V10.5055C17.01 10.7816 16.7862 11.0055 16.51 11.0055H13.51C13.2339 11.0055 13.01 10.7816 13.01 10.5055V7.50546ZM14.01 8.00546V10.0055H16.01V8.00546H14.01ZM7.50989 12.9998C7.23375 12.9998 7.00989 13.2237 7.00989 13.4998V16.4998C7.00989 16.776 7.23375 16.9998 7.50989 16.9998H10.5099C10.786 16.9998 11.0099 16.776 11.0099 16.4998V13.4998C11.0099 13.2237 10.786 12.9998 10.5099 12.9998H7.50989ZM8.00989 15.9998V13.9998H10.0099V15.9998H8.00989ZM13 13.4998C13 13.2237 13.2239 12.9998 13.5 12.9998H16C16.2761 12.9998 16.5 13.2237 16.5 13.4998V15.9998C16.5 16.276 16.2761 16.4998 16 16.4998H13.5C13.2239 16.4998 13 16.276 13 15.9998V13.4998ZM14 13.9998V15.4998H15.5V13.9998H14Z" fill="#101010"/>
</svg>
