<svg width="24" height="24" viewBox="0 0 24 24" fill="none" xmlns="http://www.w3.org/2000/svg">
<path fill-rule="evenodd" clip-rule="evenodd" d="M18.9999 2.94366L15.9645 5.97911L15.2574 5.272L19.1465 1.38291C19.3417 1.18765 19.6583 1.18765 19.8536 1.38291L23.7427 5.272L23.0356 5.97911L19.9999 2.94349V10.0085H18.9999V2.94366ZM4.50006 4.99807C4.22392 4.99807 4.00006 5.22193 4.00006 5.49807V20.4981C4.00006 20.7742 4.22392 20.9981 4.50006 20.9981H19.5001C19.7762 20.9981 20.0001 20.7742 20.0001 20.4981V12.9981H19.0001V19.9981H5.00006V5.99807H13.0488V4.99807H4.50006ZM14.6559 9.00003H9.77931L9.34406 10H10.7399C11.2561 10.0734 11.8217 10.3343 11.9232 11.043H9.77931L9.34406 12.043H11.8015C11.585 12.5741 11.0173 13.0437 9.53082 12.9131V13.9209L12.2589 17.0063H13.4657L10.7432 13.9209C11.4578 13.8474 12.6595 13.2791 12.9643 12.043H14.233L14.6559 11.043H13.0068C12.9445 10.7145 12.8264 10.3319 12.5863 10H14.233L14.6559 9.00003Z" fill="#101010"/>
</svg>
