<svg width="25" height="24" viewBox="0 0 25 24" fill="none" xmlns="http://www.w3.org/2000/svg">
<path fill-rule="evenodd" clip-rule="evenodd" d="M19.4071 3.16434L19.4002 3.17127H19.414L19.4071 3.16434ZM15.518 7.05342L18.9072 3.66422V11.0453H19.9072V3.66446L23.2962 7.05342L24.0033 6.34632L19.7607 2.10368C19.5654 1.90841 19.2488 1.90841 19.0536 2.10368L14.8109 6.34632L15.518 7.05342ZM4.40332 1.99598C4.12718 1.99598 3.90332 2.21983 3.90332 2.49598V6.52527H1.90002V7.52527H3.90332V11.5253H1.90002V12.5253H3.90332V16.5253H1.90002V17.5253H3.90332V21.5038C3.90332 21.78 4.12718 22.0038 4.40332 22.0038H19.3967C19.6728 22.0038 19.8967 21.78 19.8967 21.5038V14.0061H18.8967V21.0038H4.90332V2.99598H13.8984V1.99598H4.40332ZM11.9 11.0131C12.4523 11.0131 12.9 10.5653 12.9 10.0131C12.9 9.46078 12.4523 9.01306 11.9 9.01306C11.3477 9.01306 10.9 9.46078 10.9 10.0131C10.9 10.5653 11.3477 11.0131 11.9 11.0131ZM11.9 12.0131C13.0046 12.0131 13.9 11.1176 13.9 10.0131C13.9 8.9085 13.0046 8.01306 11.9 8.01306C10.7955 8.01306 9.90002 8.9085 9.90002 10.0131C9.90002 11.1176 10.7955 12.0131 11.9 12.0131ZM8.90899 16.0414C9.01004 14.9201 9.95242 14.0414 11.1 14.0414H12.7C13.8476 14.0414 14.79 14.9201 14.8911 16.0414H8.90899ZM7.90002 16.2414C7.90002 14.4741 9.33271 13.0414 11.1 13.0414H12.7C14.4673 13.0414 15.9 14.4741 15.9 16.2414C15.9 16.6832 15.5419 17.0414 15.1 17.0414H8.70002C8.2582 17.0414 7.90002 16.6832 7.90002 16.2414Z" fill="#101010"/>
</svg>
