<svg width="24" height="24" viewBox="0 0 24 24" fill="none" xmlns="http://www.w3.org/2000/svg">
<path fill-rule="evenodd" clip-rule="evenodd" d="M3.00342 3.504C3.00342 3.22786 3.22728 3.004 3.50342 3.004H20.5034C20.7796 3.004 21.0034 3.22786 21.0034 3.504V9.51171C21.0034 9.78785 20.7796 10.0117 20.5034 10.0117C20.2273 10.0117 20.0034 9.78785 20.0034 9.51171V4.004H4.00342V20.004H15.5014C15.7776 20.004 16.0014 20.2279 16.0014 20.504C16.0014 20.7801 15.7776 21.004 15.5014 21.004H3.50342C3.22728 21.004 3.00342 20.7801 3.00342 20.504V3.504ZM12.1531 9.97519C11.8943 9.28903 11.1933 9.02922 10.6725 8.97519H9.61041C9.25024 8.97519 9.00822 8.60589 9.15196 8.27564C9.23137 8.09319 9.41142 7.97519 9.61041 7.97519H14.405C14.7629 7.97519 15.0049 8.34026 14.8655 8.66992C14.7873 8.85495 14.6059 8.97519 14.405 8.97519H12.7707C13.0218 9.27946 13.1522 9.65065 13.2303 9.97519H14.405C14.7629 9.97519 15.0049 10.3403 14.8655 10.6699C14.7873 10.855 14.6059 10.9752 14.405 10.9752H13.3157C13.1831 12.3588 12.0025 12.8898 11.2253 12.9937L13.2376 15.103C13.2962 15.1642 13.3378 15.2355 13.3626 15.311L13.3768 15.3258L13.3688 15.3312C13.4232 15.5213 13.373 15.7345 13.2202 15.8806C13.0006 16.0905 12.6524 16.0827 12.4425 15.8631L10.2118 13.5249L9.70569 13.0023L9.70763 12.9965L9.49975 12.7786C9.28984 12.559 9.29766 12.2108 9.51721 12.0009C9.67493 11.8501 9.89901 11.8117 10.0905 11.8834C11.5038 12.0479 12.011 11.5255 12.1768 10.9752H9.61041C9.25024 10.9752 9.00822 10.6059 9.15196 10.2756C9.23137 10.0932 9.41142 9.97519 9.61041 9.97519H12.1531ZM19.6385 13.5311C18.8101 13.5311 18.1385 14.2027 18.1385 15.0311V15.1148C18.1385 15.3909 17.9147 15.6148 17.6385 15.6148C17.3624 15.6148 17.1385 15.3909 17.1385 15.1148V15.0311C17.1385 13.6504 18.2578 12.5311 19.6385 12.5311H19.8288C21.1107 12.5311 22.1499 13.5703 22.1499 14.8522C22.1499 15.5833 21.8055 16.2717 21.2203 16.71L20.5858 17.1852C20.2076 17.4685 19.985 17.9133 19.985 18.3858V18.4888C19.985 18.7649 19.7611 18.9888 19.485 18.9888C19.2088 18.9888 18.985 18.7649 18.985 18.4888V18.3858C18.985 17.5983 19.356 16.8569 19.9863 16.3848L20.6208 15.9096C20.9539 15.6601 21.1499 15.2683 21.1499 14.8522C21.1499 14.1226 20.5585 13.5311 19.8288 13.5311H19.6385ZM19.4552 21.8414C19.8694 21.8414 20.2052 21.5056 20.2052 21.0914C20.2052 20.6772 19.8694 20.3414 19.4552 20.3414C19.041 20.3414 18.7052 20.6772 18.7052 21.0914C18.7052 21.5056 19.041 21.8414 19.4552 21.8414Z" fill="#101010"/>
</svg>
