<svg width="25" height="25" viewBox="0 0 25 25" fill="none" xmlns="http://www.w3.org/2000/svg">
<circle cx="12.3684" cy="12.5195" r="10" fill="#FD5154"/>
<path fill-rule="evenodd" clip-rule="evenodd" d="M8.81314 9.69134C8.61726 9.4967 8.61625 9.18012 8.8109 8.98424C9.00554 8.78836 9.32212 8.78735 9.518 8.982L12.3687 11.8147L15.219 8.98248C15.4148 8.78784 15.7314 8.78885 15.9261 8.98473C16.1207 9.18061 16.1197 9.49719 15.9238 9.69183L13.0781 12.5195L15.9239 15.3473C16.1197 15.5419 16.1207 15.8585 15.9261 16.0544C15.7315 16.2503 15.4149 16.2513 15.219 16.0566L12.3687 13.2244L9.51796 16.0571C9.32207 16.2517 9.00549 16.2507 8.81085 16.0549C8.61621 15.859 8.61722 15.5424 8.8131 15.3478L11.6594 12.5195L8.81314 9.69134Z" fill="white"/>
</svg>
