<svg width="25" height="25" viewBox="0 0 25 25" fill="none" xmlns="http://www.w3.org/2000/svg">
<path fill-rule="evenodd" clip-rule="evenodd" d="M10.3929 4.4021C12.2206 4.00057 14.1297 4.21338 15.8241 5.00752C17.4533 5.77113 18.7965 7.03118 19.6626 8.60413L16.959 8.12742C16.6871 8.07947 16.4278 8.26105 16.3798 8.533C16.3319 8.80494 16.5134 9.06427 16.7854 9.11223L20.7246 9.80682C20.9966 9.85477 21.2559 9.67319 21.3039 9.40124L21.9984 5.46201C22.0464 5.19006 21.8648 4.93073 21.5929 4.88278C21.3209 4.83483 21.0616 5.01641 21.0136 5.28836L20.52 8.08813C19.5514 6.34582 18.0578 4.95003 16.2485 4.10204C14.3547 3.21447 12.221 2.97662 10.1783 3.4254C8.13557 3.87418 6.29804 4.98449 4.95072 6.58412C3.60341 8.18375 2.82161 10.1833 2.7266 12.2726C2.71406 12.5484 2.92751 12.7822 3.20337 12.7947C3.47923 12.8073 3.71302 12.5938 3.72557 12.318C3.72771 12.2709 3.73024 12.2238 3.73316 12.1768C3.73992 12.1505 3.74438 12.1232 3.74631 12.0953C3.74818 12.0681 3.74761 12.0413 3.74476 12.0151C3.88781 10.2559 4.57535 8.58208 5.71557 7.22833C6.92107 5.79709 8.56518 4.80364 10.3929 4.4021ZM2.98157 14.8688C3.01572 15.0131 3.05328 15.1567 3.09424 15.2995C3.1352 15.4423 3.17946 15.584 3.22697 15.7245C3.31545 15.9861 3.60755 16.1109 3.86412 16.0088C4.12068 15.9067 4.2444 15.6163 4.15754 15.3542C4.12132 15.2449 4.08729 15.1347 4.05549 15.0238C4.02369 14.9129 3.99418 14.8015 3.96696 14.6896C3.90169 14.4213 3.64289 14.2406 3.37119 14.29C3.0995 14.3394 2.91796 14.6001 2.98157 14.8688ZM20.8715 16.6185C20.986 16.3672 20.8584 16.0763 20.6014 15.9752C20.3445 15.8741 20.0556 16.0012 19.9395 16.2518C19.8912 16.3563 19.8406 16.4599 19.7879 16.5625C19.7352 16.6651 19.6805 16.7666 19.6238 16.8668C19.4878 17.1071 19.5529 17.416 19.7848 17.5659C20.0168 17.7158 20.3275 17.6499 20.465 17.4104C20.5388 17.2818 20.6097 17.1514 20.6776 17.0192C20.7454 16.887 20.8101 16.7534 20.8715 16.6185ZM4.55224 18.2807C4.63965 18.4005 4.72994 18.5183 4.82305 18.6341C4.91617 18.7499 5.01188 18.8634 5.11012 18.9744C5.29306 19.1813 5.61072 19.1832 5.80766 18.9896C6.00459 18.796 6.00609 18.4804 5.82443 18.2724C5.74867 18.1857 5.67462 18.0973 5.60232 18.0074C5.53003 17.9175 5.45963 17.8263 5.39118 17.7337C5.22702 17.5116 4.91841 17.4454 4.6871 17.5962C4.45578 17.747 4.38946 18.0577 4.55224 18.2807ZM18.6696 19.6615C18.8725 19.4742 18.8676 19.1565 18.6699 18.9638C18.4722 18.771 18.1566 18.7762 17.9525 18.9622C17.8674 19.0398 17.7807 19.1157 17.6923 19.1899C17.604 19.2641 17.5142 19.3364 17.4231 19.4068C17.2046 19.5756 17.1449 19.8856 17.3006 20.1136C17.4563 20.3417 17.7683 20.4014 17.9878 20.2339C18.1057 20.144 18.2216 20.0512 18.3354 19.9557C18.4492 19.8601 18.5606 19.762 18.6696 19.6615ZM7.32256 20.8173C7.44956 20.8938 7.57846 20.9674 7.70917 21.0381C7.83988 21.1087 7.9721 21.1762 8.1057 21.2405C8.35451 21.3603 8.64806 21.2389 8.75458 20.9841C8.86109 20.7294 8.74014 20.4378 8.49207 20.3165C8.38863 20.2659 8.28613 20.2132 8.18464 20.1583C8.08315 20.1035 7.98288 20.0466 7.88389 19.9878C7.6465 19.8467 7.33634 19.9053 7.18156 20.134C7.02678 20.3626 7.08605 20.6747 7.32256 20.8173ZM15.4603 21.6132C15.7199 21.5191 15.8385 21.2245 15.731 20.9701C15.6235 20.7158 15.3305 20.5983 15.0703 20.6907C14.9618 20.7292 14.8524 20.7655 14.7422 20.7997C14.632 20.8338 14.5212 20.8657 14.41 20.8953C14.1431 20.9662 13.9679 21.2288 14.0231 21.4994C14.0782 21.77 14.3427 21.946 14.61 21.8767C14.7535 21.8395 14.8963 21.7989 15.0382 21.7549C15.1801 21.7109 15.3209 21.6636 15.4603 21.6132ZM10.8594 22.0818C11.0062 22.1031 11.1535 22.121 11.3014 22.1355C11.4493 22.15 11.5973 22.1609 11.7454 22.1684C12.0212 22.1824 12.2448 21.9567 12.2442 21.6806C12.2436 21.4045 12.0192 21.1826 11.7435 21.1669C11.6285 21.1604 11.5136 21.1515 11.3988 21.1402C11.2839 21.129 11.1695 21.1155 11.0554 21.0996C10.7819 21.0616 10.5187 21.2357 10.4646 21.5065C10.4106 21.7773 10.5862 22.0421 10.8594 22.0818ZM12.1546 9.18071V12.6807H15.6556C15.9318 12.6807 16.1556 12.9046 16.1556 13.1807C16.1556 13.4569 15.9318 13.6807 15.6556 13.6807H11.1546V9.18071C11.1546 8.90457 11.3785 8.68071 11.6546 8.68071C11.9308 8.68071 12.1546 8.90457 12.1546 9.18071Z" fill="#F19E0C"/>
</svg>
