<svg width="25" height="25" viewBox="0 0 25 25" fill="none" xmlns="http://www.w3.org/2000/svg">
<path fill-rule="evenodd" clip-rule="evenodd" d="M3.8158 3.52271C3.53966 3.52271 3.31581 3.74655 3.3158 4.02269L3.31567 8.03284C3.31567 8.30898 3.53952 8.53284 3.81566 8.53285C4.0918 8.53286 4.31567 8.30901 4.31567 8.03287L4.31578 4.52271H7.8104C8.08655 4.52271 8.3104 4.29885 8.3104 4.02271C8.3104 3.74656 8.08655 3.52271 7.8104 3.52271H3.8158ZM16.8164 3.52271C16.5403 3.52271 16.3164 3.74656 16.3164 4.02271C16.3164 4.29885 16.5403 4.52271 16.8164 4.52271H20.3158V8.02176C20.3158 8.2979 20.5397 8.52176 20.8158 8.52176C21.0919 8.52176 21.3158 8.2979 21.3158 8.02176V4.02271C21.3158 3.74656 21.0919 3.52271 20.8158 3.52271H16.8164ZM21.3158 17.0222C21.3158 16.7461 21.0919 16.5222 20.8158 16.5222C20.5397 16.5222 20.3158 16.7461 20.3158 17.0222V20.5227H16.8149C16.5388 20.5227 16.3149 20.7466 16.3149 21.0227C16.3149 21.2988 16.5388 21.5227 16.8149 21.5227H20.8158C21.0919 21.5227 21.3158 21.2988 21.3158 21.0227V17.0222ZM4.3158 17.0278C4.3158 16.7516 4.09194 16.5278 3.8158 16.5278C3.53966 16.5278 3.3158 16.7516 3.3158 17.0278V21.0227C3.3158 21.2988 3.53966 21.5227 3.8158 21.5227H7.81902C8.09516 21.5227 8.31902 21.2988 8.31902 21.0227C8.31902 20.7466 8.09516 20.5227 7.81902 20.5227H4.3158V17.0278ZM7.32227 8.0249C7.32227 7.74876 7.54612 7.5249 7.82227 7.5249H10.8223C11.0984 7.5249 11.3223 7.74876 11.3223 8.0249V11.0249C11.3223 11.301 11.0984 11.5249 10.8223 11.5249H7.82227C7.54612 11.5249 7.32227 11.301 7.32227 11.0249V8.0249ZM8.32227 8.5249V10.5249H10.3223V8.5249H8.32227ZM13.3254 8.0249C13.3254 7.74876 13.5493 7.5249 13.8254 7.5249H16.8254C17.1016 7.5249 17.3254 7.74876 17.3254 8.0249V11.0249C17.3254 11.301 17.1016 11.5249 16.8254 11.5249H13.8254C13.5493 11.5249 13.3254 11.301 13.3254 11.0249V8.0249ZM14.3254 8.5249V10.5249H16.3254V8.5249H14.3254ZM7.82532 13.5193C7.54917 13.5193 7.32532 13.7431 7.32532 14.0193V17.0193C7.32532 17.2954 7.54917 17.5193 7.82532 17.5193H10.8253C11.1015 17.5193 11.3253 17.2954 11.3253 17.0193V14.0193C11.3253 13.7431 11.1015 13.5193 10.8253 13.5193H7.82532ZM8.32532 16.5193V14.5193H10.3253V16.5193H8.32532ZM13.3154 14.0193C13.3154 13.7431 13.5393 13.5193 13.8154 13.5193H16.3154C16.5916 13.5193 16.8154 13.7431 16.8154 14.0193V16.5193C16.8154 16.7954 16.5916 17.0193 16.3154 17.0193H13.8154C13.5393 17.0193 13.3154 16.7954 13.3154 16.5193V14.0193ZM14.3154 14.5193V16.0193H15.8154V14.5193H14.3154Z" fill="#101010"/>
</svg>
