<svg width="24" height="24" viewBox="0 0 24 24" fill="none" xmlns="http://www.w3.org/2000/svg">
<path fill-rule="evenodd" clip-rule="evenodd" d="M3.50037 3.00327C3.22423 3.00327 3.00038 3.22711 3.00037 3.50325L3.00024 7.5134C3.00024 7.78954 3.22409 8.0134 3.50023 8.01341C3.77637 8.01342 4.00024 7.78957 4.00024 7.51343L4.00035 4.00327H7.49497C7.77112 4.00327 7.99497 3.77941 7.99497 3.50327C7.99497 3.22712 7.77112 3.00327 7.49497 3.00327H3.50037ZM16.501 3.00327C16.2248 3.00327 16.001 3.22712 16.001 3.50327C16.001 3.77941 16.2248 4.00327 16.501 4.00327H20.0004V7.50232C20.0004 7.77846 20.2242 8.00232 20.5004 8.00232C20.7765 8.00232 21.0004 7.77846 21.0004 7.50232V3.50327C21.0004 3.22712 20.7765 3.00327 20.5004 3.00327H16.501ZM21.0004 16.5028C21.0004 16.2267 20.7765 16.0028 20.5004 16.0028C20.2242 16.0028 20.0004 16.2267 20.0004 16.5028V20.0033H16.4995C16.2233 20.0033 15.9995 20.2271 15.9995 20.5033C15.9995 20.7794 16.2233 21.0033 16.4995 21.0033H20.5004C20.7765 21.0033 21.0004 20.7794 21.0004 20.5033V16.5028ZM4.00037 16.5083C4.00037 16.2322 3.77651 16.0083 3.50037 16.0083C3.22423 16.0083 3.00037 16.2322 3.00037 16.5083V20.5033C3.00037 20.7794 3.22423 21.0033 3.50037 21.0033H7.50359C7.77973 21.0033 8.00359 20.7794 8.00359 20.5033C8.00359 20.2271 7.77973 20.0033 7.50359 20.0033H4.00037V16.5083ZM7.00684 7.50546C7.00684 7.22932 7.23069 7.00546 7.50684 7.00546H10.5068C10.783 7.00546 11.0068 7.22932 11.0068 7.50546V10.5055C11.0068 10.7816 10.783 11.0055 10.5068 11.0055H7.50684C7.23069 11.0055 7.00684 10.7816 7.00684 10.5055V7.50546ZM8.00684 8.00546V10.0055H10.0068V8.00546H8.00684ZM13.01 7.50546C13.01 7.22932 13.2339 7.00546 13.51 7.00546H16.51C16.7862 7.00546 17.01 7.22932 17.01 7.50546V10.5055C17.01 10.7816 16.7862 11.0055 16.51 11.0055H13.51C13.2339 11.0055 13.01 10.7816 13.01 10.5055V7.50546ZM14.01 8.00546V10.0055H16.01V8.00546H14.01ZM7.50989 12.9998C7.23375 12.9998 7.00989 13.2237 7.00989 13.4998V16.4998C7.00989 16.776 7.23375 16.9998 7.50989 16.9998H10.5099C10.786 16.9998 11.0099 16.776 11.0099 16.4998V13.4998C11.0099 13.2237 10.786 12.9998 10.5099 12.9998H7.50989ZM8.00989 15.9998V13.9998H10.0099V15.9998H8.00989ZM13 13.4998C13 13.2237 13.2239 12.9998 13.5 12.9998H16C16.2761 12.9998 16.5 13.2237 16.5 13.4998V15.9998C16.5 16.276 16.2761 16.4998 16 16.4998H13.5C13.2239 16.4998 13 16.276 13 15.9998V13.4998ZM14 13.9998V15.4998H15.5V13.9998H14Z" fill="#101010"/>
</svg>
