<svg width="25" height="25" viewBox="0 0 25 25" fill="none" xmlns="http://www.w3.org/2000/svg">
<path fill-rule="evenodd" clip-rule="evenodd" d="M12.3153 4.48755C10.9346 4.48755 9.81531 5.60684 9.81531 6.98755C9.81531 8.36826 10.9346 9.48755 12.3153 9.48755C13.696 9.48755 14.8153 8.36826 14.8153 6.98755C14.8153 5.60684 13.696 4.48755 12.3153 4.48755ZM8.81531 6.98755C8.81531 5.05455 10.3823 3.48755 12.3153 3.48755C14.2483 3.48755 15.8153 5.05455 15.8153 6.98755C15.8153 8.92055 14.2483 10.4875 12.3153 10.4875C10.3823 10.4875 8.81531 8.92055 8.81531 6.98755Z" fill="#101010"/>
<path fill-rule="evenodd" clip-rule="evenodd" d="M2.25772 15.7871C2.14909 15.5332 2.26685 15.2393 2.52073 15.1307L6.65795 13.3606C6.91183 13.2519 7.20569 13.3697 7.31432 13.6236L9.08447 17.7608C9.19309 18.0147 9.07534 18.3085 8.82146 18.4172C8.56758 18.5258 8.27371 18.408 8.16508 18.1542L6.59162 14.4766L2.91409 16.0501C2.66021 16.1587 2.36634 16.041 2.25772 15.7871Z" fill="#101010"/>
<path fill-rule="evenodd" clip-rule="evenodd" d="M9.32645 12.5422C9.32645 12.2661 9.55031 12.0422 9.82645 12.0422H13.4629C16.5416 12.0422 19.198 14.2021 19.8262 17.2161L20.0521 18.3003C20.5051 20.4738 18.8459 22.5144 16.6257 22.5144H8.04523C5.87634 22.5144 4.23024 20.5609 4.59794 18.4234C4.74612 17.5621 5.01254 16.7253 5.38965 15.9368L6.19877 14.245C6.31791 13.9959 6.61645 13.8905 6.86557 14.0097C7.11468 14.1288 7.22004 14.4273 7.1009 14.6765L6.29178 16.3682C5.95439 17.0737 5.71603 17.8223 5.58346 18.593C5.32088 20.1194 6.49639 21.5144 8.04523 21.5144H16.6257C18.2116 21.5144 19.3967 20.0568 19.0732 18.5043L18.8472 17.4201C18.3157 14.8698 16.068 13.0422 13.4629 13.0422H9.82645C9.55031 13.0422 9.32645 12.8184 9.32645 12.5422Z" fill="#101010"/>
</svg>
