<svg width="24" height="24" viewBox="0 0 24 24" fill="none" xmlns="http://www.w3.org/2000/svg">
<path fill-rule="evenodd" clip-rule="evenodd" d="M11.9999 3.96793C10.6192 3.96793 9.49988 5.08721 9.49988 6.46793C9.49988 7.84864 10.6192 8.96793 11.9999 8.96793C13.3806 8.96793 14.4999 7.84864 14.4999 6.46793C14.4999 5.08721 13.3806 3.96793 11.9999 3.96793ZM8.49988 6.46793C8.49988 4.53493 10.0669 2.96793 11.9999 2.96793C13.9329 2.96793 15.4999 4.53493 15.4999 6.46793C15.4999 8.40092 13.9329 9.96793 11.9999 9.96793C10.0669 9.96793 8.49988 8.40092 8.49988 6.46793Z" fill="#101010"/>
<path fill-rule="evenodd" clip-rule="evenodd" d="M1.94229 15.2673C1.83366 15.0135 1.95142 14.7196 2.2053 14.611L6.34252 12.8408C6.5964 12.7322 6.89026 12.8499 6.99889 13.1038L8.76904 17.241C8.87766 17.4949 8.75991 17.7888 8.50603 17.8974C8.25215 18.006 7.95828 17.8883 7.84965 17.6344L6.27619 13.9569L2.59866 15.5303C2.34478 15.639 2.05091 15.5212 1.94229 15.2673Z" fill="#101010"/>
<path fill-rule="evenodd" clip-rule="evenodd" d="M9.01102 12.0226C9.01102 11.7465 9.23488 11.5226 9.51102 11.5226H13.1475C16.2262 11.5226 18.8826 13.6825 19.5107 16.6965L19.7367 17.7807C20.1897 19.9542 18.5305 21.9948 16.3103 21.9948H7.7298C5.56091 21.9948 3.91481 20.0413 4.28251 17.9039C4.43069 17.0425 4.69711 16.2057 5.07422 15.4172L5.88334 13.7254C6.00248 13.4763 6.30102 13.3709 6.55014 13.4901C6.79925 13.6092 6.90462 13.9078 6.78547 14.1569L5.97635 15.8486C5.63896 16.5541 5.4006 17.3027 5.26803 18.0734C5.00545 19.5998 6.18096 20.9948 7.7298 20.9948H16.3103C17.8962 20.9948 19.0813 19.5372 18.7577 17.9847L18.5318 16.9005C18.0003 14.3502 15.7525 12.5226 13.1475 12.5226H9.51102C9.23488 12.5226 9.01102 12.2988 9.01102 12.0226Z" fill="#101010"/>
</svg>
