<svg width="25" height="25" viewBox="0 0 25 25" fill="none" xmlns="http://www.w3.org/2000/svg">
<path fill-rule="evenodd" clip-rule="evenodd" d="M4.81873 2.51562C4.54258 2.51562 4.31873 2.73948 4.31873 3.01562V7.01953H2.81873C2.54258 7.01953 2.31873 7.24339 2.31873 7.51953C2.31873 7.79567 2.54258 8.01953 2.81873 8.01953H4.31873V12.0195H2.81873C2.54258 12.0195 2.31873 12.2434 2.31873 12.5195C2.31873 12.7957 2.54258 13.0195 2.81873 13.0195H4.31873V17.0195H2.81873C2.54258 17.0195 2.31873 17.2434 2.31873 17.5195C2.31873 17.7957 2.54258 18.0195 2.81873 18.0195H4.31873V22.0235C4.31873 22.2996 4.54258 22.5235 4.81873 22.5235H19.8121C20.0882 22.5235 20.3121 22.2996 20.3121 22.0235V15.0482C20.3121 14.7721 20.0882 14.5482 19.8121 14.5482C19.5359 14.5482 19.3121 14.7721 19.3121 15.0482V21.5235H5.31873V17.5195V12.5195V7.51953V3.51562H13.8138C14.0899 3.51562 14.3138 3.29177 14.3138 3.01562C14.3138 2.73948 14.0899 2.51562 13.8138 2.51562H4.81873ZM16.2767 7.25834L19.3225 4.21255V11.065C19.3225 11.3411 19.5464 11.565 19.8225 11.565C20.0987 11.565 20.3225 11.3411 20.3225 11.065V4.23306L23.3478 7.25834C23.5431 7.4536 23.8596 7.4536 24.0549 7.25834C24.2502 7.06308 24.2502 6.74649 24.0549 6.55123L20.1658 2.66214C19.9706 2.46688 19.654 2.46688 19.4587 2.66214L15.5696 6.55123C15.3744 6.74649 15.3744 7.06308 15.5696 7.25834C15.7649 7.4536 16.0815 7.4536 16.2767 7.25834ZM12.3154 11.5327C12.8677 11.5327 13.3154 11.085 13.3154 10.5327C13.3154 9.98043 12.8677 9.53271 12.3154 9.53271C11.7631 9.53271 11.3154 9.98043 11.3154 10.5327C11.3154 11.085 11.7631 11.5327 12.3154 11.5327ZM12.3154 12.5327C13.42 12.5327 14.3154 11.6373 14.3154 10.5327C14.3154 9.42815 13.42 8.53271 12.3154 8.53271C11.2109 8.53271 10.3154 9.42815 10.3154 10.5327C10.3154 11.6373 11.2109 12.5327 12.3154 12.5327ZM9.3244 16.561C9.42544 15.4397 10.3678 14.561 11.5154 14.561H13.1154C14.263 14.561 15.2054 15.4397 15.3065 16.561H9.3244ZM8.31543 16.761C8.31543 14.9937 9.74812 13.561 11.5154 13.561H13.1154C14.8827 13.561 16.3154 14.9937 16.3154 16.761C16.3154 17.2029 15.9573 17.561 15.5154 17.561H9.11543C8.6736 17.561 8.31543 17.2029 8.31543 16.761Z" fill="#101010"/>
</svg>
