<svg width="25" height="25" viewBox="0 0 25 25" fill="none" xmlns="http://www.w3.org/2000/svg">
<path fill-rule="evenodd" clip-rule="evenodd" d="M4.3197 3.02441C4.3197 2.74827 4.54356 2.52441 4.8197 2.52441H19.8197C20.0958 2.52441 20.3197 2.74827 20.3197 3.02441V22.0244C20.3197 22.3006 20.0958 22.5244 19.8197 22.5244H4.8197C4.54356 22.5244 4.3197 22.3006 4.3197 22.0244V18.019H2.80444C2.5283 18.019 2.30444 17.7952 2.30444 17.519C2.30444 17.2429 2.5283 17.019 2.80444 17.019H4.3197V13.019H2.80444C2.5283 13.019 2.30444 12.7952 2.30444 12.519C2.30444 12.2429 2.5283 12.019 2.80444 12.019H4.3197V8.01904H2.80444C2.5283 8.01904 2.30444 7.79519 2.30444 7.51904C2.30444 7.2429 2.5283 7.01904 2.80444 7.01904H4.3197V3.02441ZM5.3197 21.5244V17.5236L5.31972 17.519L5.3197 17.5145V12.5236L5.31972 12.519L5.3197 12.5145V7.52359L5.31972 7.51904L5.3197 7.51449V3.52441H19.3197V21.5244H5.3197ZM10.9847 7.51953C11.5054 7.57357 12.2065 7.83337 12.4652 8.51953H9.92255C9.72356 8.51953 9.54351 8.63753 9.46409 8.81998C9.32035 9.15023 9.56238 9.51953 9.92254 9.51953H12.489C12.3231 10.0698 11.8159 10.5922 10.4027 10.4278C10.2111 10.3561 9.98707 10.3945 9.82935 10.5453C9.60979 10.7552 9.60197 11.1033 9.81188 11.3229L10.0198 11.5408L10.0178 11.5467L10.5239 12.0692L12.7547 14.4075C12.9646 14.627 13.3127 14.6349 13.5323 14.4249C13.6851 14.2788 13.7354 14.0657 13.681 13.8756L13.689 13.8702L13.6747 13.8553C13.6499 13.7798 13.6083 13.7086 13.5498 13.6473L11.5374 11.538C12.3146 11.4341 13.4953 10.9032 13.6279 9.51953H14.7171C14.918 9.51953 15.0994 9.39929 15.1776 9.21426C15.317 8.8846 15.075 8.51953 14.7171 8.51953H13.5424C13.4644 8.19499 13.3339 7.8238 13.0829 7.51953H14.7171C14.918 7.51953 15.0994 7.39929 15.1776 7.21426C15.317 6.8846 15.075 6.51953 14.7171 6.51953H9.92255C9.72356 6.51953 9.54351 6.63753 9.46409 6.81998C9.32035 7.15023 9.56238 7.51953 9.92254 7.51953H10.9847ZM9.81958 17.5386C9.54344 17.5386 9.31958 17.7624 9.31958 18.0386C9.31958 18.3147 9.54344 18.5386 9.81958 18.5386H14.8196C15.0957 18.5386 15.3196 18.3147 15.3196 18.0386C15.3196 17.7624 15.0957 17.5386 14.8196 17.5386H9.81958Z" fill="#101010"/>
</svg>
