<svg width="24" height="24" viewBox="0 0 24 24" fill="none" xmlns="http://www.w3.org/2000/svg">
<path fill-rule="evenodd" clip-rule="evenodd" d="M4.00427 2.50485C4.00427 2.22871 4.22813 2.00485 4.50427 2.00485H19.5043C19.7804 2.00485 20.0043 2.22871 20.0043 2.50485V21.5049C20.0043 21.781 19.7804 22.0049 19.5043 22.0049H4.50427C4.22813 22.0049 4.00427 21.781 4.00427 21.5049V17.4995H2.48901C2.21287 17.4995 1.98901 17.2756 1.98901 16.9995C1.98901 16.7233 2.21287 16.4995 2.48901 16.4995H4.00427V12.4995H2.48901C2.21287 12.4995 1.98901 12.2756 1.98901 11.9995C1.98901 11.7233 2.21287 11.4995 2.48901 11.4995H4.00427V7.49948H2.48901C2.21287 7.49948 1.98901 7.27562 1.98901 6.99948C1.98901 6.72334 2.21287 6.49948 2.48901 6.49948H4.00427V2.50485ZM5.00427 21.0049V17.004L5.00429 16.9995L5.00427 16.9949V12.004L5.00429 11.9995L5.00427 11.9949V7.00403L5.00429 6.99948L5.00427 6.99493V3.00485H19.0043V21.0049H5.00427ZM10.6693 6.99997C11.19 7.054 11.8911 7.31381 12.1498 7.99997H9.60712C9.40813 7.99997 9.22808 8.11797 9.14866 8.30042C9.00492 8.63067 9.24695 8.99997 9.60712 8.99997H12.1735C12.0077 9.55025 11.5005 10.0726 10.0872 9.9082C9.89572 9.8365 9.67164 9.87493 9.51392 10.0257C9.29436 10.2356 9.28654 10.5838 9.49645 10.8033L9.70434 11.0212L9.70239 11.0271L10.2085 11.5497L12.4392 13.8879C12.6491 14.1075 12.9973 14.1153 13.2169 13.9054C13.3697 13.7592 13.4199 13.5461 13.3655 13.356L13.3735 13.3506L13.3593 13.3357C13.3345 13.2603 13.2929 13.189 13.2343 13.1278L11.222 11.0185C11.9992 10.9146 13.1798 10.3836 13.3125 8.99997H14.4017C14.6026 8.99997 14.784 8.87973 14.8622 8.6947C15.0016 8.36504 14.7596 7.99997 14.4017 7.99997H13.227C13.1489 7.67543 13.0185 7.30424 12.7674 6.99997H14.4017C14.6026 6.99997 14.784 6.87973 14.8622 6.6947C15.0016 6.36504 14.7596 5.99997 14.4017 5.99997H9.60712C9.40813 5.99997 9.22808 6.11797 9.14866 6.30042C9.00492 6.63067 9.24695 6.99997 9.60712 6.99997H10.6693ZM9.50415 17.019C9.22801 17.019 9.00415 17.2429 9.00415 17.519C9.00415 17.7952 9.22801 18.019 9.50415 18.019H14.5042C14.7803 18.019 15.0042 17.7952 15.0042 17.519C15.0042 17.2429 14.7803 17.019 14.5042 17.019H9.50415Z" fill="#101010"/>
</svg>
