<svg width="24" height="24" viewBox="0 0 24 24" fill="none" xmlns="http://www.w3.org/2000/svg">
<path fill-rule="evenodd" clip-rule="evenodd" d="M11.8336 1.64765C11.9413 1.60964 12.0587 1.60964 12.1664 1.64765L20.6664 4.64765C20.8663 4.7182 21 4.90715 21 5.11914V8C21 8.27614 20.7761 8.5 20.5 8.5H18.9957V17.5H20.5109C20.787 17.5 21.0109 17.7239 21.0109 18V21.5C21.0109 21.7761 20.787 22 20.5109 22H3.51086C3.23472 22 3.01086 21.7761 3.01086 21.5V18C3.01086 17.7239 3.23472 17.5 3.51086 17.5H4.99829V8.5H3.5C3.22386 8.5 3 8.27614 3 8V5.11914C3 4.90715 3.13368 4.7182 3.33359 4.64765L11.8336 1.64765ZM5.99829 8.5V17.5H11.521V8.5H5.99829ZM12.521 8.5V17.5H17.9957V8.5H12.521ZM4 5.4729V7.5H20V5.4729L12 2.64937L4 5.4729ZM4.01086 18.5V21H20.0109V18.5H4.01086Z" fill="#101010"/>
</svg>
