<svg width="25" height="25" viewBox="0 0 25 25" fill="none" xmlns="http://www.w3.org/2000/svg">
<path fill-rule="evenodd" clip-rule="evenodd" d="M12.0436 2.60712C12.1512 2.56911 12.2687 2.56911 12.3764 2.60712L20.8764 5.60712C21.0763 5.67767 21.21 5.86662 21.21 6.07861V8.95947C21.21 9.23562 20.9861 9.45947 20.71 9.45947H19.2057V18.4595H20.7208C20.997 18.4595 21.2208 18.6833 21.2208 18.9595V22.4595C21.2208 22.7356 20.997 22.9595 20.7208 22.9595H3.72083C3.44468 22.9595 3.22083 22.7356 3.22083 22.4595V18.9595C3.22083 18.6833 3.44468 18.4595 3.72083 18.4595H5.20825V9.45947H3.70996C3.43382 9.45947 3.20996 9.23562 3.20996 8.95947V6.07861C3.20996 5.86662 3.34365 5.67767 3.54355 5.60712L12.0436 2.60712ZM6.20825 9.45947V18.4595H11.731V9.45947H6.20825ZM12.731 9.45947V18.4595H18.2057V9.45947H12.731ZM4.20996 6.43237V8.45947H20.21V6.43237L12.21 3.60884L4.20996 6.43237ZM4.22083 19.4595V21.9595H20.2208V19.4595H4.22083Z" fill="#101010"/>
</svg>
