<svg width="25" height="25" viewBox="0 0 25 25" fill="none" xmlns="http://www.w3.org/2000/svg">
<path fill-rule="evenodd" clip-rule="evenodd" d="M20.2102 9.25217L23.2457 6.21672L23.9528 6.92383L20.0637 10.8129C19.8684 11.0082 19.5518 11.0082 19.3566 10.8129L15.4675 6.92383L16.1746 6.21672L19.2102 9.25234V1.97217H20.2102V9.25217ZM5.21008 9.45752C5.21008 8.07681 6.32937 6.95752 7.71008 6.95752H13.2588V5.95752H7.71008C5.77709 5.95752 4.21008 7.52452 4.21008 9.45752V18.4575C4.21008 20.3905 5.77709 21.9575 7.71008 21.9575H16.7101C18.6431 21.9575 20.2101 20.3905 20.2101 18.4575V13.9575H19.2101V18.4575C19.2101 19.8382 18.0908 20.9575 16.7101 20.9575H7.71008C6.32937 20.9575 5.21008 19.8382 5.21008 18.4575V9.45752ZM14.8659 9.95947H9.98934L9.55408 10.9595H10.9499C11.4661 11.0328 12.0317 11.2937 12.1332 12.0024H9.98934L9.55408 13.0024H12.0115C11.795 13.5336 11.2273 14.0032 9.74084 13.8725V14.8803L12.4689 17.9658H13.6757L10.9532 14.8803C11.6678 14.8068 12.8696 14.2386 13.1743 13.0024H14.443L14.8659 12.0024H13.2168C13.1545 11.6739 13.0364 11.2914 12.7963 10.9595H14.443L14.8659 9.95947Z" fill="#101010"/>
</svg>
