<svg width="25" height="25" viewBox="0 0 25 25" fill="none" xmlns="http://www.w3.org/2000/svg">
<path fill-rule="evenodd" clip-rule="evenodd" d="M12.2098 4.92749C10.8291 4.92749 9.70984 6.04678 9.70984 7.42749C9.70984 8.8082 10.8291 9.92749 12.2098 9.92749C13.5906 9.92749 14.7098 8.8082 14.7098 7.42749C14.7098 6.04678 13.5906 4.92749 12.2098 4.92749ZM8.70984 7.42749C8.70984 5.49449 10.2768 3.92749 12.2098 3.92749C14.1428 3.92749 15.7098 5.49449 15.7098 7.42749C15.7098 9.36049 14.1428 10.9275 12.2098 10.9275C10.2768 10.9275 8.70984 9.36049 8.70984 7.42749ZM1.95557 15.7673L6.55248 13.8005C6.80636 13.6919 7.10023 13.8096 7.20885 14.0635L9.17568 18.6604L8.2563 19.0538L6.77175 15.5841L6.18631 16.8082C5.84892 17.5136 5.61056 18.2623 5.47799 19.0329C5.21541 20.5593 6.39092 21.9543 7.93976 21.9543H16.5203C18.1061 21.9543 19.2912 20.4968 18.9677 18.9443L18.7417 17.86C18.2102 15.3098 15.9625 13.4822 13.3574 13.4822H9.22805V12.4822H13.3574C16.4361 12.4822 19.0926 14.6421 19.7207 17.656L19.9467 18.7403C20.3996 20.9138 18.7405 22.9543 16.5203 22.9543H7.93976C5.77087 22.9543 4.12477 21.0009 4.49247 18.8634C4.64065 18.002 4.90707 17.1652 5.28418 16.3767L5.85294 15.1875L2.34893 16.6867L1.95557 15.7673Z" fill="#101010"/>
</svg>
