<svg width="24" height="24" viewBox="0 0 24 24" fill="none" xmlns="http://www.w3.org/2000/svg">
<path fill-rule="evenodd" clip-rule="evenodd" d="M11.9999 3.96796C10.6192 3.96796 9.49988 5.08724 9.49988 6.46796C9.49988 7.84867 10.6192 8.96796 11.9999 8.96796C13.3806 8.96796 14.4999 7.84867 14.4999 6.46796C14.4999 5.08724 13.3806 3.96796 11.9999 3.96796ZM8.49988 6.46796C8.49988 4.53496 10.0669 2.96796 11.9999 2.96796C13.9329 2.96796 15.4999 4.53496 15.4999 6.46796C15.4999 8.40095 13.9329 9.96796 11.9999 9.96796C10.0669 9.96796 8.49988 8.40095 8.49988 6.46796ZM1.74561 14.8078L6.34252 12.841C6.5964 12.7323 6.89026 12.8501 6.99889 13.104L8.96572 17.7009L8.04634 18.0943L6.56179 14.6245L5.97635 15.8486C5.63896 16.5541 5.4006 17.3027 5.26803 18.0734C5.00545 19.5998 6.18096 20.9948 7.7298 20.9948H16.3103C17.8962 20.9948 19.0813 19.5372 18.7577 17.9847L18.5318 16.9005C18.0003 14.3502 15.7525 12.5226 13.1475 12.5226H9.01809V11.5226H13.1475C16.2262 11.5226 18.8826 13.6825 19.5107 16.6965L19.7367 17.7807C20.1897 19.9542 18.5305 21.9948 16.3103 21.9948H7.7298C5.56091 21.9948 3.91481 20.0413 4.28251 17.9039C4.43069 17.0425 4.69711 16.2057 5.07422 15.4172L5.64298 14.228L2.13897 15.7272L1.74561 14.8078Z" fill="#101010"/>
</svg>
