<svg width="25" height="25" viewBox="0 0 25 25" fill="none" xmlns="http://www.w3.org/2000/svg">
<path fill-rule="evenodd" clip-rule="evenodd" d="M19.717 4.12385L19.7101 4.13079H19.724L19.717 4.12385ZM15.828 8.01294L19.2172 4.62373V12.0048H20.2172V4.62397L23.6061 8.01294L24.3132 7.30584L20.0706 3.06319C19.8753 2.86793 19.5588 2.86793 19.3635 3.06319L15.1208 7.30584L15.828 8.01294ZM5.21326 6.45549C5.21326 5.07478 6.33254 3.95549 7.71326 3.95549H14.2084V2.95549H7.71326C5.78026 2.95549 4.21326 4.52249 4.21326 6.45549V7.48479H2.20996V8.48479H4.21326V12.4848H2.20996V13.4848H4.21326V17.4848H2.20996V18.4848H4.21326V19.4633C4.21326 21.3963 5.78026 22.9633 7.71326 22.9633H16.7066C18.6396 22.9633 20.2066 21.3963 20.2066 19.4634V14.9656H19.2066V19.4634C19.2066 20.8441 18.0873 21.9633 16.7066 21.9633H7.71326C6.33255 21.9633 5.21326 20.8441 5.21326 19.4633V6.45549ZM12.21 11.9726C12.7622 11.9726 13.21 11.5249 13.21 10.9726C13.21 10.4203 12.7622 9.97258 12.21 9.97258C11.6577 9.97258 11.21 10.4203 11.21 10.9726C11.21 11.5249 11.6577 11.9726 12.21 11.9726ZM12.21 12.9726C13.3145 12.9726 14.21 12.0772 14.21 10.9726C14.21 9.86801 13.3145 8.97258 12.21 8.97258C11.1054 8.97258 10.21 9.86801 10.21 10.9726C10.21 12.0772 11.1054 12.9726 12.21 12.9726ZM9.21893 17.0009C9.31998 15.8796 10.2624 15.0009 11.41 15.0009H13.01C14.1576 15.0009 15.0999 15.8796 15.201 17.0009H9.21893ZM8.20996 17.2009C8.20996 15.4336 9.64265 14.0009 11.41 14.0009H13.01C14.7773 14.0009 16.21 15.4336 16.21 17.2009C16.21 17.6427 15.8518 18.0009 15.41 18.0009H9.00996C8.56813 18.0009 8.20996 17.6427 8.20996 17.2009Z" fill="#101010"/>
</svg>
