<svg width="25" height="24" viewBox="0 0 25 24" fill="none" xmlns="http://www.w3.org/2000/svg">
<path fill-rule="evenodd" clip-rule="evenodd" d="M19.4071 3.16432L19.4002 3.17125H19.414L19.4071 3.16432ZM15.518 7.05341L18.9072 3.6642V11.0453H19.9072V3.66444L23.2962 7.05341L24.0033 6.3463L19.7607 2.10366C19.5654 1.9084 19.2488 1.9084 19.0536 2.10366L14.8109 6.3463L15.518 7.05341ZM4.90332 5.49596C4.90332 4.11525 6.02261 2.99596 7.40332 2.99596H13.8984V1.99596H7.40332C5.47032 1.99596 3.90332 3.56296 3.90332 5.49596V6.52526H1.90002V7.52526H3.90332V11.5253H1.90002V12.5253H3.90332V16.5253H1.90002V17.5253H3.90332V18.5038C3.90332 20.4368 5.47033 22.0038 7.40332 22.0038H16.3967C18.3297 22.0038 19.8967 20.4368 19.8967 18.5038V14.0061H18.8967V18.5038C18.8967 19.8845 17.7774 21.0038 16.3967 21.0038H7.40332C6.02261 21.0038 4.90332 19.8845 4.90332 18.5038V5.49596ZM11.9 11.0131C12.4523 11.0131 12.9 10.5653 12.9 10.0131C12.9 9.46076 12.4523 9.01305 11.9 9.01305C11.3477 9.01305 10.9 9.46076 10.9 10.0131C10.9 10.5653 11.3477 11.0131 11.9 11.0131ZM11.9 12.0131C13.0046 12.0131 13.9 11.1176 13.9 10.0131C13.9 8.90848 13.0046 8.01305 11.9 8.01305C10.7955 8.01305 9.90002 8.90848 9.90002 10.0131C9.90002 11.1176 10.7955 12.0131 11.9 12.0131ZM8.90899 16.0414C9.01004 14.9201 9.95242 14.0414 11.1 14.0414H12.7C13.8476 14.0414 14.79 14.9201 14.8911 16.0414H8.90899ZM7.90002 16.2414C7.90002 14.4741 9.33271 13.0414 11.1 13.0414H12.7C14.4673 13.0414 15.9 14.4741 15.9 16.2414C15.9 16.6832 15.5419 17.0414 15.1 17.0414H8.70002C8.2582 17.0414 7.90002 16.6832 7.90002 16.2414Z" fill="#101010"/>
</svg>
