<svg width="25" height="25" viewBox="0 0 25 25" fill="none" xmlns="http://www.w3.org/2000/svg">
<path fill-rule="evenodd" clip-rule="evenodd" d="M18.2455 4.95947H6.24548C5.14091 4.95947 4.24548 5.8549 4.24548 6.95947V18.9595C4.24548 20.064 5.14091 20.9595 6.24548 20.9595H18.2455C19.3501 20.9595 20.2455 20.064 20.2455 18.9595V6.95947C20.2455 5.8549 19.3501 4.95947 18.2455 4.95947ZM6.24548 3.95947C4.58863 3.95947 3.24548 5.30262 3.24548 6.95947V18.9595C3.24548 20.6163 4.58863 21.9595 6.24548 21.9595H18.2455C19.9023 21.9595 21.2455 20.6163 21.2455 18.9595V6.95947C21.2455 5.30262 19.9023 3.95947 18.2455 3.95947H6.24548Z" fill="#101010"/>
<path d="M10.4055 17.9595L13.2405 7.95947L15.8705 12.9445L10.4055 17.9595Z" fill="#028C3C"/>
<path d="M8.62048 17.9595L11.4555 7.95947L14.0855 12.9445L8.62048 17.9595Z" fill="#FE7A09"/>
</svg>
