<svg width="25" height="25" viewBox="0 0 25 25" fill="none" xmlns="http://www.w3.org/2000/svg">
<path fill-rule="evenodd" clip-rule="evenodd" d="M7.71411 2.96436C5.78111 2.96436 4.21411 4.53136 4.21411 6.46436V7.45898H2.20996V8.45898H4.21411V12.459H2.20996V13.459H4.21411V17.459H2.20996V18.459H4.21411V19.4644C4.21411 21.3974 5.78111 22.9644 7.71411 22.9644H16.7141C18.6471 22.9644 20.2141 21.3974 20.2141 19.4644V6.46436C20.2141 4.53136 18.6471 2.96436 16.7141 2.96436H7.71411ZM5.21411 6.46436C5.21411 5.08364 6.3334 3.96436 7.71411 3.96436H16.7141C18.0948 3.96436 19.2141 5.08364 19.2141 6.46436V19.4644C19.2141 20.8451 18.0948 21.9644 16.7141 21.9644H7.71411C6.3334 21.9644 5.21411 20.8451 5.21411 19.4644V6.46436ZM14.4429 7.95947H12.7962C13.0363 8.29139 13.1544 8.6739 13.2167 9.00244H14.8658L14.4429 10.0024H13.1742C12.8694 11.2386 11.6677 11.8068 10.9531 11.8803L13.6756 14.9658H12.4688L9.74072 11.8803V10.8725C11.2272 11.0032 11.7949 10.5336 12.0114 10.0024H9.55396L9.98921 9.00244H12.1331C12.0316 8.2937 11.466 8.03283 10.9498 7.95947H9.55396L9.98921 6.95947H14.8658L14.4429 7.95947ZM9.20996 18.9785H15.21V17.9785H9.20996V18.9785Z" fill="#101010"/>
</svg>
