<svg width="319" height="107" viewBox="0 0 319 107" fill="#012A72" xmlns="http://www.w3.org/2000/svg">
<path d="M32.6011 89.9491C29.9658 89.9491 27.7746 89.505 26.0276 88.6166C24.2806 87.7283 22.9037 86.4847 21.8969 84.8857C20.8902 83.2572 20.1795 81.3621 19.765 79.2005H15.9896L19.5429 69.6512C19.5725 71.1613 19.839 72.4641 20.3424 73.5597C20.8754 74.6553 21.6304 75.4992 22.6076 76.0914C23.6143 76.6836 24.8284 76.9797 26.2497 76.9797C28.352 76.9797 29.9362 76.3579 31.0021 75.1143C32.0681 73.841 32.6011 71.946 32.6011 69.4291V64.0992C32.6011 61.5527 32.0829 59.6724 31.0466 58.4584C30.0102 57.2148 28.4408 56.5929 26.3385 56.5929C25.2133 56.5929 24.1769 56.8002 23.2294 57.2148C22.2819 57.6293 21.4676 58.1919 20.7865 58.9026C20.1055 59.5836 19.6021 60.3535 19.2764 61.2122L15.6787 54.8163H19.765C20.1795 52.8028 20.8902 50.9818 21.8969 49.3532C22.9037 47.7246 24.3102 46.4366 26.1164 45.489C27.9227 44.5415 30.2471 44.0677 33.0897 44.0677C38.1235 44.0677 41.9284 45.7555 44.5045 49.1311C47.1102 52.5067 48.4131 57.5997 48.4131 64.4101V69.0737C48.4131 75.973 47.1102 81.1844 44.5045 84.7081C41.9284 88.2021 37.9606 89.9491 32.6011 89.9491ZM4.08624 104.162V45.1337H19.7206L19.1876 57.6145L19.5429 58.6805V74.8478L19.2764 77.4683L19.7206 88.8831V104.162H4.08624ZM70.7694 65.1208L66.239 56.2376H69.9255C70.5177 52.5363 71.8206 49.6493 73.8341 47.5766C75.8476 45.4742 78.7346 44.4231 82.4952 44.4231C83.0578 44.4231 83.5759 44.4527 84.0497 44.5119C84.5531 44.5711 85.0417 44.6451 85.5154 44.734L86.2705 60.7236C85.6783 60.6052 84.9676 60.5163 84.1385 60.4571C83.3391 60.3979 82.5544 60.3683 81.7845 60.3683C79.0011 60.3683 76.6915 60.7976 74.8557 61.6563C73.0198 62.4854 71.6577 63.6402 70.7694 65.1208ZM55.2684 88.8831V45.1337H69.9255L69.3037 59.6132H70.9915V88.8831H55.2684ZM115.099 88.8831L115.543 77.6904L115.232 77.2906V63.6995L115.099 62.1005C115.099 60.0574 114.433 58.562 113.1 57.6145C111.797 56.6374 109.562 56.1488 106.394 56.1488C103.521 56.1488 100.753 56.4893 98.0878 57.1703C95.4525 57.8514 92.9208 58.6361 90.4928 59.5244L91.7808 47.5766C93.2613 46.9251 94.9047 46.3329 96.7109 45.7999C98.5172 45.2373 100.486 44.7932 102.618 44.4675C104.75 44.1418 107.015 43.9789 109.414 43.9789C113.47 43.9789 116.846 44.4527 119.541 45.4002C122.265 46.3181 124.426 47.6358 126.025 49.3532C127.624 51.041 128.764 53.0545 129.445 55.3937C130.156 57.7329 130.511 60.3091 130.511 63.122V88.8831H115.099ZM101.552 89.9491C97.1699 89.9491 93.8535 88.8387 91.6031 86.6179C89.3824 84.3675 88.272 81.1844 88.272 77.0686V75.9582C88.272 71.5758 89.6044 68.3483 92.2694 66.2756C94.9639 64.2028 99.2574 62.7963 105.15 62.0561L116.298 60.6348L117.231 69.6067L107.77 70.9836C106.053 71.2205 104.854 71.6351 104.173 72.2273C103.521 72.7899 103.196 73.6338 103.196 74.759V74.9366C103.196 75.973 103.536 76.8169 104.217 77.4683C104.928 78.1197 106.097 78.4455 107.726 78.4455C109.088 78.4455 110.258 78.2678 111.235 77.9125C112.242 77.5275 113.071 77.0242 113.722 76.4023C114.403 75.7805 114.936 75.0995 115.321 74.3592L117.542 79.6891H115.01C114.566 81.673 113.855 83.4348 112.878 84.9746C111.931 86.5143 110.554 87.7283 108.748 88.6166C106.941 89.505 104.543 89.9491 101.552 89.9491ZM155.626 89.9047C151.57 89.9047 148.342 89.2977 145.944 88.0837C143.575 86.84 141.872 85.0042 140.836 82.5761C139.829 80.1481 139.326 77.1574 139.326 73.6041V50.1527H154.916V70.9392C154.916 72.8343 155.345 74.226 156.204 75.1143C157.062 75.973 158.75 76.4023 161.267 76.4023C162.629 76.4023 163.976 76.2543 165.309 75.9582C166.671 75.6325 167.9 75.2623 168.995 74.8478L167.663 87.7283C166.123 88.3798 164.347 88.8979 162.333 89.2829C160.32 89.6974 158.084 89.9047 155.626 89.9047ZM133.863 57.4368V45.1337H168.551L167.219 57.4368H133.863ZM139.548 46.1997L139.503 35.229L155.004 33.8521L154.471 46.1997H139.548ZM173.941 88.8831V45.1337H189.665V88.8831H173.941ZM181.803 41.9802C178.931 41.9802 176.843 41.3436 175.54 40.0703C174.238 38.7675 173.586 37.0204 173.586 34.8293V34.4739C173.586 32.2828 174.238 30.5506 175.54 29.2773C176.843 27.9744 178.931 27.323 181.803 27.323C184.646 27.323 186.718 27.9744 188.021 29.2773C189.354 30.5506 190.02 32.2828 190.02 34.4739V34.8293C190.02 37.05 189.354 38.7971 188.021 40.0703C186.718 41.3436 184.646 41.9802 181.803 41.9802ZM251.096 88.8831V63.2997C251.096 61.9969 250.933 60.8865 250.608 59.9685C250.312 59.021 249.793 58.2955 249.053 57.7922C248.313 57.2888 247.291 57.0371 245.989 57.0371C244.952 57.0371 244.034 57.2296 243.235 57.6145C242.465 57.9994 241.799 58.5176 241.236 59.1691C240.703 59.7909 240.289 60.5015 239.992 61.301L238.616 54.8163H239.948C240.392 52.7732 241.118 50.9522 242.124 49.3532C243.131 47.7246 244.538 46.4366 246.344 45.489C248.18 44.5415 250.534 44.0677 253.406 44.0677C256.485 44.0677 259.002 44.6747 260.957 45.8888C262.941 47.1028 264.406 48.9386 265.354 51.3963C266.331 53.8244 266.819 56.889 266.819 60.5904V88.8831H251.096ZM197.798 88.8831V45.1337H213.432L212.943 57.5701L213.521 57.9698V88.8831H197.798ZM224.447 88.8831V63.2997C224.447 61.9969 224.284 60.8865 223.958 59.9685C223.662 59.021 223.144 58.2955 222.404 57.7922C221.664 57.2888 220.642 57.0371 219.339 57.0371C218.303 57.0371 217.385 57.2296 216.585 57.6145C215.816 57.9994 215.149 58.5176 214.587 59.1691C214.054 59.7909 213.639 60.5015 213.343 61.301L210.945 54.8163H213.476C213.92 52.7732 214.631 50.9522 215.608 49.3532C216.615 47.7246 218.021 46.4366 219.828 45.489C221.634 44.5415 223.944 44.0677 226.757 44.0677C230.813 44.0677 233.863 45.1189 235.906 47.2212C237.979 49.3236 239.267 52.3587 239.77 56.3264C239.83 56.9187 239.904 57.6737 239.992 58.5916C240.111 59.5096 240.17 60.3091 240.17 60.9901V88.8831H224.447ZM299.441 88.8831L299.886 77.6904L299.575 77.2906V63.6995L299.441 62.1005C299.441 60.0574 298.775 58.562 297.443 57.6145C296.14 56.6374 293.904 56.1488 290.736 56.1488C287.864 56.1488 285.095 56.4893 282.43 57.1703C279.795 57.8514 277.263 58.6361 274.835 59.5244L276.123 47.5766C277.604 46.9251 279.247 46.3329 281.053 45.7999C282.86 45.2373 284.829 44.7932 286.961 44.4675C289.093 44.1418 291.358 43.9789 293.756 43.9789C297.813 43.9789 301.188 44.4527 303.883 45.4002C306.607 46.3181 308.769 47.6358 310.368 49.3532C311.967 51.041 313.107 53.0545 313.788 55.3937C314.498 57.7329 314.854 60.3091 314.854 63.122V88.8831H299.441ZM285.895 89.9491C281.512 89.9491 278.196 88.8387 275.946 86.6179C273.725 84.3675 272.614 81.1844 272.614 77.0686V75.9582C272.614 71.5758 273.947 68.3483 276.612 66.2756C279.306 64.2028 283.6 62.7963 289.492 62.0561L300.641 60.6348L301.573 69.6067L292.113 70.9836C290.395 71.2205 289.196 71.6351 288.515 72.2273C287.864 72.7899 287.538 73.6338 287.538 74.759V74.9366C287.538 75.973 287.879 76.8169 288.56 77.4683C289.27 78.1197 290.44 78.4455 292.068 78.4455C293.43 78.4455 294.6 78.2678 295.577 77.9125C296.584 77.5275 297.413 77.0242 298.065 76.4023C298.746 75.7805 299.279 75.0995 299.663 74.3592L301.884 79.6891H299.353C298.908 81.673 298.198 83.4348 297.221 84.9746C296.273 86.5143 294.896 87.7283 293.09 88.6166C291.284 89.505 288.885 89.9491 285.895 89.9491Z" fill="#012A72"/>
<path d="M9.00517 23.1711V20.4062H14.8847C16.2172 20.4062 17.1832 20.0787 17.7828 19.4235C18.3935 18.7573 18.6989 17.8357 18.6989 16.6586V15.2096C18.6989 13.9993 18.3991 13.0721 17.7995 12.4281C17.1999 11.784 16.2394 11.462 14.918 11.462H8.98851V8.71379H14.9846C17.4275 8.71379 19.2097 9.28009 20.3312 10.4127C21.4638 11.5342 22.0301 13.1054 22.0301 15.1263V16.7419C22.0301 18.7628 21.4638 20.3396 20.3312 21.4722C19.1986 22.6048 17.4108 23.1711 14.968 23.1711H9.00517ZM6.80659 30V8.71379H10.0878V21.2224L10.1045 22.7214V30H6.80659ZM37.9825 30L37.4162 25.6861C37.3162 24.8978 37.1386 24.226 36.8832 23.6708C36.6389 23.1045 36.2558 22.6659 35.7339 22.355C35.2121 22.044 34.4847 21.8886 33.552 21.8886L28.0056 21.8719V19.2403L33.9018 19.2237C35.2676 19.2237 36.2447 18.8961 36.8332 18.241C37.4217 17.5858 37.716 16.6753 37.716 15.5094V15.043C37.716 13.8993 37.4162 13.0166 36.8166 12.3947C36.217 11.7729 35.2232 11.462 33.8352 11.462H27.939V8.71379H34.3015C36.6667 8.71379 38.3878 9.21902 39.4649 10.2295C40.553 11.2399 41.0971 12.6501 41.0971 14.4601V14.9931C41.0971 16.3366 40.7862 17.4359 40.1644 18.2909C39.5537 19.1459 38.5266 19.6845 37.0831 19.9065V20.3396L35.684 19.8566C36.9165 19.9454 37.8659 20.2119 38.5321 20.6561C39.2095 21.1002 39.7036 21.7109 40.0145 22.4882C40.3254 23.2655 40.5641 24.2093 40.7307 25.3197L41.4469 30H37.9825ZM25.7071 30V8.71379H28.9883V20.1564L29.005 21.4056V30H25.7071ZM52.808 30.4331C50.0321 30.4331 47.9223 29.678 46.4788 28.1679C45.0464 26.6577 44.3302 24.498 44.3302 21.6887V17.0084C44.3302 14.2102 45.0464 12.0561 46.4788 10.5459C47.9223 9.03581 50.0321 8.28074 52.808 8.28074C55.584 8.28074 57.6882 9.03581 59.1206 10.5459C60.5641 12.0561 61.2859 14.2102 61.2859 17.0084V21.6887C61.2859 24.498 60.5641 26.6577 59.1206 28.1679C57.6882 29.678 55.584 30.4331 52.808 30.4331ZM52.808 27.6515C54.4958 27.6515 55.7617 27.1463 56.6056 26.1358C57.4606 25.1143 57.8881 23.6763 57.8881 21.822V16.8752C57.8881 15.0097 57.4606 13.5773 56.6056 12.578C55.7617 11.5675 54.4958 11.0623 52.808 11.0623C51.1202 11.0623 49.8488 11.5675 48.9938 12.578C48.1499 13.5773 47.728 15.0097 47.728 16.8752V21.822C47.728 23.6763 48.1499 25.1143 48.9938 26.1358C49.8488 27.1463 51.1202 27.6515 52.808 27.6515ZM67.6226 30.2831C66.912 30.2831 66.2124 30.2276 65.524 30.1166C64.8467 30.0056 64.2304 29.839 63.6752 29.6169L63.4254 26.6522C63.9806 26.8965 64.5469 27.0797 65.1243 27.2018C65.7128 27.324 66.3124 27.385 66.9231 27.385C68.3333 27.385 69.3049 27.063 69.8379 26.419C70.3709 25.7639 70.6374 24.7701 70.6374 23.4376V8.71379H73.9852V23.6375C73.9852 25.8138 73.4966 27.4683 72.5195 28.6009C71.5534 29.7224 69.9212 30.2831 67.6226 30.2831ZM78.57 30V8.71379H81.8678V30H78.57ZM79.5527 30V27.2018H92.2278V30H79.5527ZM80.4687 20.5395V17.7746H91.8614V20.5395H80.4687ZM79.536 11.4953V8.71379H92.1112V11.4953H79.536ZM103.369 30.4164C100.649 30.4164 98.6112 29.6613 97.2566 28.1512C95.913 26.6411 95.2412 24.4925 95.2412 21.7054V16.9751C95.2412 14.1991 95.913 12.0616 97.2566 10.5626C98.6112 9.05246 100.649 8.2974 103.369 8.2974C104.202 8.2974 104.963 8.36957 105.651 8.51392C106.34 8.65827 106.956 8.84704 107.5 9.08022C108.044 9.31341 108.51 9.55769 108.899 9.81308L109.166 12.8778C108.51 12.4336 107.75 12.045 106.884 11.7119C106.018 11.3787 104.996 11.2122 103.819 11.2122C102.109 11.2122 100.815 11.7174 99.9382 12.7279C99.0721 13.7383 98.639 15.1707 98.639 17.0251V21.5888C98.639 23.432 99.0776 24.8644 99.9548 25.886C100.843 26.9076 102.164 27.4183 103.919 27.4183C105.074 27.4183 106.095 27.2573 106.984 26.9353C107.883 26.6022 108.666 26.1969 109.332 25.7194L109.066 28.8674C108.677 29.1228 108.199 29.3726 107.633 29.6169C107.078 29.8501 106.44 30.0389 105.718 30.1832C105.007 30.3387 104.224 30.4164 103.369 30.4164ZM117.755 30V9.29675H121.103V30H117.755ZM111.493 11.512V8.71379H127.349V11.512H111.493Z" fill="#012A72"/>
</svg>
