<svg width="36" height="36" viewBox="0 0 36 36" fill="none" xmlns="http://www.w3.org/2000/svg">
<mask id="path-1-inside-1_402_2696" fill="white">
<path d="M25.2436 5.43542L11.0726 5.43542L11.1109 6.50777C11.1876 8.65271 11.4939 10.8357 12.2982 12.8273C12.9875 14.5509 13.9835 16.1596 15.4388 17.3852C16.3581 18.1512 17.3921 18.6875 18.3497 19.3384C19.269 19.9511 20.2647 20.6024 20.916 21.5217C21.4523 22.2877 21.95 23.0537 22.2949 23.9347C22.8696 25.39 23.0992 26.9222 23.1759 28.4925L13.2179 28.4925C13.5242 24.5476 14.7115 21.9047 17.0098 20.0283C16.3587 19.6453 15.7841 19.2623 15.2478 18.841C14.2138 19.7986 13.3712 20.8709 12.7583 22.0965C11.7623 24.0498 11.2263 26.3862 11.1113 29.4887L11.0727 30.561L25.2443 30.561V29.527C25.2443 27.3821 25.0146 25.1608 24.2103 23.1691C23.4443 21.2159 22.0654 19.5689 20.3801 18.3433C19.8438 17.9603 19.2695 17.6156 18.7332 17.2709C16.9329 16.1603 15.3626 14.858 14.4053 12.943C13.6009 11.2961 13.2563 9.41947 13.103 7.61916L23.061 7.61916C22.9077 11.5258 21.7204 14.1303 19.2308 16.0834C19.8819 16.4664 20.4564 16.8494 21.0311 17.2707C22.1034 16.3514 22.9461 15.2791 23.559 14.0917C24.6313 12.1001 25.1293 9.64883 25.1293 6.58457V5.47389L25.244 5.47338L25.2436 5.43542Z"/>
</mask>
<path d="M25.2436 5.43542L11.0726 5.43542L11.1109 6.50777C11.1876 8.65271 11.4939 10.8357 12.2982 12.8273C12.9875 14.5509 13.9835 16.1596 15.4388 17.3852C16.3581 18.1512 17.3921 18.6875 18.3497 19.3384C19.269 19.9511 20.2647 20.6024 20.916 21.5217C21.4523 22.2877 21.95 23.0537 22.2949 23.9347C22.8696 25.39 23.0992 26.9222 23.1759 28.4925L13.2179 28.4925C13.5242 24.5476 14.7115 21.9047 17.0098 20.0283C16.3587 19.6453 15.7841 19.2623 15.2478 18.841C14.2138 19.7986 13.3712 20.8709 12.7583 22.0965C11.7623 24.0498 11.2263 26.3862 11.1113 29.4887L11.0727 30.561L25.2443 30.561V29.527C25.2443 27.3821 25.0146 25.1608 24.2103 23.1691C23.4443 21.2159 22.0654 19.5689 20.3801 18.3433C19.8438 17.9603 19.2695 17.6156 18.7332 17.2709C16.9329 16.1603 15.3626 14.858 14.4053 12.943C13.6009 11.2961 13.2563 9.41947 13.103 7.61916L23.061 7.61916C22.9077 11.5258 21.7204 14.1303 19.2308 16.0834C19.8819 16.4664 20.4564 16.8494 21.0311 17.2707C22.1034 16.3514 22.9461 15.2791 23.559 14.0917C24.6313 12.1001 25.1293 9.64883 25.1293 6.58457V5.47389L25.244 5.47338L25.2436 5.43542Z" fill="black" stroke="white" stroke-width="0.8" mask="url(#path-1-inside-1_402_2696)"/>
<mask id="path-2-inside-2_402_2696" fill="white">
<path d="M24.0948 32.2464L22.8308 32.8591L23.9799 33.2421C19.805 34.9657 15.5539 34.8508 11.3787 32.8208L10.7276 34.1997C13.1789 35.387 15.6685 36 18.1581 36C20.3414 36 22.5244 35.5404 24.7076 34.621L24.2862 35.8083L25.5502 35.1956L26.3162 33.0124L24.0948 32.2464Z"/>
</mask>
<path d="M24.0948 32.2464L22.8308 32.8591L23.9799 33.2421C19.805 34.9657 15.5539 34.8508 11.3787 32.8208L10.7276 34.1997C13.1789 35.387 15.6685 36 18.1581 36C20.3414 36 22.5244 35.5404 24.7076 34.621L24.2862 35.8083L25.5502 35.1956L26.3162 33.0124L24.0948 32.2464Z" fill="black" stroke="white" stroke-width="0.8" mask="url(#path-2-inside-2_402_2696)"/>
<mask id="path-3-inside-3_402_2696" fill="white">
<path d="M11.6086 1.37556L12.0299 0.188277L10.766 0.800968L10 2.98425L12.1833 3.75023L13.4472 3.13754L12.2982 2.75455C16.4731 1.03097 20.7241 1.14591 24.8994 3.17587L25.5504 1.79691C20.9543 -0.46271 16.2435 -0.577715 11.6088 1.37559L11.6086 1.37556Z"/>
</mask>
<path d="M11.6086 1.37556L12.0299 0.188277L10.766 0.800968L10 2.98425L12.1833 3.75023L13.4472 3.13754L12.2982 2.75455C16.4731 1.03097 20.7241 1.14591 24.8994 3.17587L25.5504 1.79691C20.9543 -0.46271 16.2435 -0.577715 11.6088 1.37559L11.6086 1.37556Z" fill="black" stroke="white" stroke-width="0.8" mask="url(#path-3-inside-3_402_2696)"/>
</svg>
