<svg width="36" height="17" viewBox="0 0 36 17" fill="none" xmlns="http://www.w3.org/2000/svg">
<path d="M30.3645 1.27986L30.3645 14.9293L29.4153 14.9293C26.3716 14.9293 23.9561 14.4345 22.003 13.3829L22.003 13.3828L21.9999 13.3812C20.88 12.8031 19.8639 12.0164 18.9846 11.02C19.3195 10.557 19.6317 10.0899 19.9409 9.58C21.9178 11.9717 24.5407 13.1105 28.3729 13.2608L28.5807 13.269L28.5807 13.061L28.5807 3.10298L28.5807 2.88523L28.3638 2.90371C26.5524 3.05792 24.6478 3.40571 22.9691 4.22556L22.9691 4.22555L22.9674 4.22638C21.005 5.20747 19.6787 6.81321 18.5597 8.62656C18.462 8.77853 18.3652 8.93213 18.2681 9.0862C18.0185 9.48229 17.767 9.88138 17.4943 10.2632C16.2879 11.9219 14.6703 13.2741 12.7577 14.0241L12.7558 14.0249C10.7981 14.8155 8.60597 15.0443 6.47284 15.0443L5.63883 15.0443L5.63883 1.28005L6.50377 1.31116C6.50381 1.31116 6.50385 1.31117 6.50389 1.31117C9.58716 1.42547 11.8927 1.95759 13.8125 2.93646L13.8139 2.93716C14.9661 3.51337 15.9825 4.29784 16.8963 5.26018C16.5621 5.69707 16.2511 6.15946 15.944 6.66591C14.035 4.4558 11.3791 3.31796 7.52285 3.01851L7.30736 3.00177L7.30736 3.21791L7.30736 13.1759L7.30736 13.3859L7.51712 13.3757C9.09969 13.2984 10.6556 13.0665 12.1384 12.4811C13.0426 12.127 13.8246 11.6177 14.5929 11.0798L14.5938 11.0792C15.5216 10.4219 16.1816 9.43103 16.7753 8.5396C16.7927 8.51343 16.8101 8.48734 16.8274 8.46135C17.0575 8.12279 17.2747 7.77273 17.4901 7.42567C17.5815 7.27841 17.6725 7.13169 17.7641 6.98661C18.0738 6.4959 18.3937 6.01656 18.768 5.56727C19.9667 4.14411 21.5444 3.16474 23.2468 2.48389L23.2474 2.48364C25.2095 1.69133 27.3669 1.38699 29.4993 1.31078L29.4921 1.11091L29.4993 1.31078L30.3645 1.27986Z" fill="black" stroke="white" stroke-width="0.4"/>
<path d="M2.86396 16.0609L0.948221 15.3888L0.5842 14.6378L1.31192 14.8961L1.739 15.0476L1.56313 14.63C0.653274 12.4692 0.199846 10.3126 0.199846 8.15813C0.199847 5.7624 0.77509 3.36289 1.89464 0.993436L2.91173 1.47363C0.941434 5.6415 0.852449 9.88895 2.57287 14.0562L2.77772 14.5524L2.94747 14.0431L3.17509 13.3602L3.53741 14.1077L2.86396 16.0609Z" fill="black" stroke="white" stroke-width="0.4"/>
<path d="M34.6913 1.42013L34.462 1.33876L34.4266 1.57948L34.4265 1.5797L34.4184 1.635L34.4401 1.68651C36.3459 6.20834 36.2602 10.7973 34.1096 15.2851L33.0915 14.8044C35.0618 10.6366 35.1507 6.38912 33.4303 2.2219L33.2255 1.7257L33.0557 2.23497L32.8281 2.91784L32.466 2.17094L33.1383 0.254934L35.055 0.927414L35.419 1.67837L34.6913 1.42013Z" fill="black" stroke="white" stroke-width="0.4"/>
</svg>
