<svg width="36" height="36" viewBox="0 0 36 36" fill="none" xmlns="http://www.w3.org/2000/svg">
<path d="M13.0345 26.069C9.93938 26.069 6.94541 24.9676 4.58822 22.962C2.23103 20.9564 0.664343 18.1774 0.16829 15.1222C-0.327429 12.0673 0.280234 8.93524 1.88238 6.28714C3.48425 3.63926 5.97643 1.64753 8.91273 0.668827C11.8488 -0.309871 15.0376 -0.211767 17.9081 0.945363C20.7788 2.10246 23.1438 4.24358 24.5802 6.98489C26.0167 9.72641 26.4306 12.8897 25.7482 15.9086C25.0657 18.9273 23.3314 21.6048 20.8552 23.4618C18.603 25.1615 15.8562 26.0773 13.0346 26.0687L13.0345 26.069ZM13.0345 1.24156C9.90668 1.24156 6.90717 2.48407 4.69604 4.69577C2.48427 6.90726 1.24183 9.90677 1.24183 13.0342C1.24183 16.1617 2.48434 19.1616 4.69604 21.3727C6.90753 23.5845 9.90704 24.8269 13.0345 24.8269C16.162 24.8269 19.1619 23.5844 21.373 21.3727C23.5848 19.1612 24.8272 16.1617 24.8272 13.0342C24.8239 9.90755 23.5803 6.90995 21.3694 4.69932C19.1585 2.4884 16.1609 1.24482 13.0344 1.24149L13.0345 1.24156Z" fill="black"/>
<path d="M13.0345 22.9656C10.4007 22.9656 7.87479 21.9193 6.01216 20.0569C4.14982 18.1943 3.10352 15.6684 3.10352 13.0346C3.10352 10.4008 4.14982 7.87489 6.01216 6.01227C7.87479 4.14992 10.4007 3.10362 13.0345 3.10362C15.6683 3.10362 18.1942 4.14992 20.0568 6.01227C21.9192 7.87489 22.9655 10.4008 22.9655 13.0346C22.9624 15.6675 21.915 18.1916 20.0532 20.0533C18.1914 21.9151 15.6674 22.9625 13.0345 22.9656ZM13.0345 4.345C10.7299 4.345 8.51959 5.26049 6.88999 6.89009C5.26038 8.5197 4.34489 10.7301 4.34489 13.0346C4.34489 15.3392 5.26038 17.5495 6.88999 19.1791C8.51959 20.8087 10.7299 21.7242 13.0345 21.7242C15.3391 21.7242 17.5494 20.8087 19.179 19.1791C20.8086 17.5495 21.7241 15.3392 21.7241 13.0346C21.7216 10.7308 20.8053 8.5219 19.1762 6.89286C17.5472 5.26382 15.3383 4.34748 13.0345 4.345Z" fill="black"/>
<path d="M13.0347 16.7587C12.0468 16.7587 11.0998 16.3664 10.4012 15.6681C9.70291 14.9695 9.31055 14.0225 9.31055 13.0346C9.31055 12.0468 9.70291 11.0997 10.4012 10.4011C11.0997 9.70284 12.0468 9.31049 13.0347 9.31049C14.0225 9.31049 14.9696 9.70284 15.6681 10.4011C16.3664 11.0997 16.7588 12.0468 16.7588 13.0346C16.7577 14.0219 16.365 14.9687 15.667 15.667C14.9687 16.3649 14.0219 16.7576 13.0347 16.7587ZM13.0347 10.5519C12.3763 10.5519 11.7448 10.8134 11.279 11.2789C10.8135 11.7447 10.5519 12.3763 10.5519 13.0346C10.5519 13.693 10.8135 14.3245 11.279 14.7903C11.7448 15.2558 12.3763 15.5174 13.0347 15.5174C13.693 15.5174 14.3246 15.2558 14.7903 14.7903C15.2558 14.3245 15.5174 13.693 15.5174 13.0346C15.5174 12.3763 15.2558 11.7447 14.7903 11.2789C14.3245 10.8134 13.693 10.5519 13.0347 10.5519Z" fill="black"/>
<path d="M13.0347 8.06911C12.692 8.06911 12.4141 7.79119 12.4141 7.44842V6.20705C12.4141 5.86429 12.692 5.58636 13.0347 5.58636C13.3775 5.58636 13.6554 5.86429 13.6554 6.20705V7.44842C13.6554 7.61302 13.59 7.77096 13.4737 7.88734C13.3573 8.00372 13.1993 8.06911 13.0347 8.06911Z" fill="black"/>
<path d="M13.0347 20.4828C12.692 20.4828 12.4141 20.2049 12.4141 19.8622V18.6208C12.4141 18.278 12.692 18.0001 13.0347 18.0001C13.3775 18.0001 13.6554 18.278 13.6554 18.6208V19.8622C13.6554 20.0268 13.59 20.1847 13.4737 20.3011C13.3573 20.4174 13.1993 20.4828 13.0347 20.4828Z" fill="black"/>
<path d="M7.44849 13.6553H6.20711C5.86435 13.6553 5.58643 13.3774 5.58643 13.0346C5.58643 12.6918 5.86435 12.4139 6.20711 12.4139H7.44849C7.79125 12.4139 8.06917 12.6918 8.06917 13.0346C8.06917 13.3774 7.79125 13.6553 7.44849 13.6553Z" fill="black"/>
<path d="M19.8621 13.6553H18.6207C18.2779 13.6553 18 13.3774 18 13.0346C18 12.6918 18.2779 12.4139 18.6207 12.4139H19.8621C20.2048 12.4139 20.4827 12.6918 20.4827 13.0346C20.4827 13.3774 20.2048 13.6553 19.8621 13.6553Z" fill="black"/>
<path d="M9.08498 9.70559C8.92038 9.70559 8.76244 9.63992 8.64606 9.52354L7.76852 8.646C7.53327 8.40244 7.53659 8.01534 7.776 7.7759C8.0154 7.53647 8.4025 7.53317 8.64609 7.76842L9.52364 8.64597C9.70125 8.82358 9.75418 9.09042 9.6583 9.32235C9.56215 9.55428 9.33577 9.70529 9.085 9.70557L9.08498 9.70559Z" fill="black"/>
<path d="M17.8623 18.4832C17.6977 18.4832 17.5398 18.4178 17.4234 18.3011L16.5459 17.4236C16.3106 17.18 16.3139 16.7929 16.5533 16.5535C16.7927 16.314 17.1798 16.3107 17.4234 16.546L18.301 17.4235C18.4786 17.6012 18.5315 17.868 18.4356 18.0999C18.3395 18.3318 18.1134 18.4831 17.8623 18.4831L17.8623 18.4832Z" fill="black"/>
<path d="M8.20641 18.4832C7.95536 18.4832 7.72925 18.3319 7.63311 18.1C7.53723 17.868 7.59016 17.6012 7.76777 17.4236L8.64532 16.546C8.88888 16.3108 9.27598 16.3141 9.51541 16.5535C9.75485 16.7929 9.75815 17.18 9.52289 17.4236L8.64535 18.3011C8.52897 18.4178 8.37103 18.4832 8.20644 18.4832L8.20641 18.4832Z" fill="black"/>
<path d="M16.9842 9.7056C16.7335 9.70532 16.5071 9.55431 16.4109 9.32238C16.3151 9.09046 16.368 8.82362 16.5456 8.646L17.4231 7.76846C17.6667 7.5332 18.0538 7.53653 18.2932 7.77594C18.5327 8.01534 18.536 8.40244 18.3007 8.64603L17.4232 9.52358C17.3068 9.63995 17.1489 9.70563 16.9843 9.70563L16.9842 9.7056Z" fill="black"/>
<path d="M32.8966 36C32.732 36 32.5741 35.9346 32.4577 35.8182L20.044 23.4045C19.9168 23.2773 19.8511 23.1011 19.8639 22.9215C19.8766 22.742 19.9667 22.5771 20.1105 22.469C21.0044 21.7985 21.7985 21.0044 22.4691 20.1104C22.5766 19.9658 22.7418 19.8752 22.9216 19.8622C23.1014 19.8464 23.2788 19.9126 23.4046 20.0423L35.8183 32.456C36.0605 32.6982 36.0605 33.0911 35.8183 33.3335L33.3355 35.8163C33.2194 35.9335 33.0615 35.9994 32.8966 36V36ZM21.4136 23.0188L32.8966 34.5018L34.5018 32.8966L23.0188 21.4136C22.5316 21.9944 21.9944 22.5317 21.4136 23.0188Z" fill="black"/>
<path d="M28.5515 31.6552C28.3869 31.6552 28.229 31.5898 28.1126 31.4734L25.6299 28.9907C25.3877 28.7482 25.3877 28.3553 25.6299 28.1129L28.1126 25.6301C28.3551 25.3879 28.748 25.3879 28.9905 25.6301L31.4732 28.1129C31.7154 28.3553 31.7154 28.7482 31.4732 28.9907L28.9905 31.4734C28.8741 31.5898 28.7161 31.6552 28.5515 31.6552ZM26.9463 28.5518L28.5515 30.157L30.1567 28.5518L28.5515 26.9466L26.9463 28.5518Z" fill="black"/>
</svg>
