<svg width="34" height="34" viewBox="0 0 34 34" fill="none" xmlns="http://www.w3.org/2000/svg">
<path d="M1.00052 11.6673H2.94005V4.31256L11.9529 13.321L13.3202 11.9537L4.31171 2.94089H11.6665V1.00137H1L1.00052 11.6673Z" fill="black" stroke="white" stroke-width="0.622223"/>
<path d="M22.3334 2.94004H29.6882L20.6797 11.9529L22.047 13.3202L31.0598 4.3117V11.6664H32.9994V0.999992H22.3329L22.3334 2.94004Z" fill="black" stroke="white" stroke-width="0.622223"/>
<path d="M1.00049 33.0001H11.6669V31.0605H4.3122L13.3207 22.0477L11.9533 20.6804L2.94054 29.6889V22.3341H1.00101L1.00049 33.0001Z" fill="black" stroke="white" stroke-width="0.622223"/>
<path d="M31.0608 29.6884L22.048 20.68L20.6807 22.0473L29.6891 31.0601H22.3344V32.9996H33.0009V22.3332H31.0613L31.0608 29.6884Z" fill="black" stroke="white" stroke-width="0.622223"/>
</svg>
