<svg width="32" height="32" viewBox="0 0 32 32" fill="none" xmlns="http://www.w3.org/2000/svg">
<rect width="32" height="32" rx="16" fill="#FAE2EB"/>
<rect x="9" y="7" width="14" height="18" fill="white"/>
<path fill-rule="evenodd" clip-rule="evenodd" d="M8.00423 8.50485C8.00423 7.12414 9.12352 6.00485 10.5042 6.00485H21.5042C22.8849 6.00485 24.0042 7.12414 24.0042 8.50485V23.5048C24.0042 24.8856 22.8849 26.0048 21.5042 26.0048H10.5042C9.12352 26.0048 8.00423 24.8856 8.00423 23.5048V8.50485ZM10.5042 7.00485C9.67581 7.00485 9.00423 7.67642 9.00423 8.50485V23.5048C9.00423 24.3333 9.67581 25.0048 10.5042 25.0048H21.5042C22.3327 25.0048 23.0042 24.3333 23.0042 23.5048V8.50485C23.0042 7.67642 22.3327 7.00485 21.5042 7.00485H10.5042Z" fill="#A53C5D"/>
<path fill-rule="evenodd" clip-rule="evenodd" d="M5.98898 10.9995C5.98898 10.7233 6.21283 10.4995 6.48898 10.4995H8.50425C8.7804 10.4995 9.00425 10.7233 9.00425 10.9995C9.00425 11.2756 8.7804 11.4995 8.50425 11.4995H6.48898C6.21283 11.4995 5.98898 11.2756 5.98898 10.9995Z" fill="#A53C5D"/>
<path fill-rule="evenodd" clip-rule="evenodd" d="M5.98898 15.9995C5.98898 15.7233 6.21283 15.4995 6.48898 15.4995H8.50425C8.7804 15.4995 9.00425 15.7233 9.00425 15.9995C9.00425 16.2756 8.7804 16.4995 8.50425 16.4995H6.48898C6.21283 16.4995 5.98898 16.2756 5.98898 15.9995Z" fill="#A53C5D"/>
<path fill-rule="evenodd" clip-rule="evenodd" d="M5.98898 20.9995C5.98898 20.7233 6.21283 20.4995 6.48898 20.4995H8.50425C8.7804 20.4995 9.00425 20.7233 9.00425 20.9995C9.00425 21.2756 8.7804 21.4995 8.50425 21.4995H6.48898C6.21283 21.4995 5.98898 21.2756 5.98898 20.9995Z" fill="#A53C5D"/>
<path d="M16.2465 12.4594C16.1637 11.249 14.9699 10.9619 14.379 10.9907V10.5232C14.9951 10.3574 15.6555 10.2652 16.2931 10.6087C17.0454 11.0139 17.2175 11.8828 17.305 12.39C17.5126 14.2837 16.0244 14.9371 15.1489 15.0271L17.3735 17.3506L16.5131 17.9293L13.7024 15.0271L14.073 13.9065C15.9753 14.1331 16.2465 13.1219 16.2465 12.4594Z" fill="#A53C5D"/>
<path fill-rule="evenodd" clip-rule="evenodd" d="M13.5139 14.0257C13.7334 13.8158 14.0816 13.8236 14.2915 14.0432L17.2343 17.1278C17.4442 17.3473 17.4364 17.6955 17.2168 17.9054C16.9973 18.1153 16.6491 18.1075 16.4392 17.8879L13.4964 14.8033C13.2865 14.5838 13.2943 14.2356 13.5139 14.0257Z" fill="#A53C5D"/>
<path d="M13.1486 10.3004C13.228 10.118 13.4081 9.99997 13.6071 9.99997H18.4017C18.7596 9.99997 19.0016 10.365 18.8622 10.6947C18.7839 10.8797 18.6026 11 18.4017 11H13.6071C13.2469 11 13.0049 10.6307 13.1486 10.3004Z" fill="#A53C5D"/>
<path d="M13.1486 12.3004C13.228 12.118 13.4081 12 13.6071 12H18.4017C18.7596 12 19.0016 12.365 18.8622 12.6947C18.7839 12.8797 18.6026 13 18.4017 13H13.6071C13.2469 13 13.0049 12.6307 13.1486 12.3004Z" fill="#A53C5D"/>
<path fill-rule="evenodd" clip-rule="evenodd" d="M13.0041 21.519C13.0041 21.2429 13.228 21.019 13.5041 21.019H18.5041C18.7803 21.019 19.0041 21.2429 19.0041 21.519C19.0041 21.7952 18.7803 22.019 18.5041 22.019H13.5041C13.228 22.019 13.0041 21.7952 13.0041 21.519Z" fill="#A53C5D"/>
</svg>
