<svg width="24" height="24" viewBox="0 0 24 24" fill="none" xmlns="http://www.w3.org/2000/svg">
<circle cx="14.8945" cy="17.1919" r="3" fill="#FFE3E3"/>
<circle cx="7.89453" cy="8.19189" r="3" fill="#FFE3E3"/>
<path fill-rule="evenodd" clip-rule="evenodd" d="M4.00423 2.50485C4.00423 2.22871 4.22809 2.00485 4.50423 2.00485H19.5042C19.7804 2.00485 20.0042 2.22871 20.0042 2.50485V21.5049C20.0042 21.781 19.7804 22.0049 19.5042 22.0049H4.50423C4.22809 22.0049 4.00423 21.781 4.00423 21.5049V17.4995H2.48898C2.21283 17.4995 1.98898 17.2756 1.98898 16.9995C1.98898 16.7233 2.21283 16.4995 2.48898 16.4995H4.00423V12.4995H2.48898C2.21283 12.4995 1.98898 12.2756 1.98898 11.9995C1.98898 11.7233 2.21283 11.4995 2.48898 11.4995H4.00423V7.49948H2.48898C2.21283 7.49948 1.98898 7.27562 1.98898 6.99948C1.98898 6.72334 2.21283 6.49948 2.48898 6.49948H4.00423V2.50485ZM5.00423 21.0049V17.004L5.00425 16.9995L5.00423 16.9949V12.004L5.00425 11.9995L5.00423 11.9949V7.00403L5.00425 6.99948L5.00423 6.99493V3.00485H19.0042V21.0049H5.00423ZM10.6692 6.99997C11.19 7.054 11.891 7.31381 12.1497 7.99997H9.60708C9.40809 7.99997 9.22804 8.11797 9.14862 8.30042C9.00488 8.63067 9.24691 8.99997 9.60708 8.99997H12.1735C12.0076 9.55025 11.5005 10.0726 10.0872 9.9082C9.89568 9.8365 9.6716 9.87493 9.51388 10.0257C9.29432 10.2356 9.2865 10.5838 9.49641 10.8033L9.7043 11.0212L9.70235 11.0271L10.2084 11.5497L12.4392 13.8879C12.6491 14.1075 12.9973 14.1153 13.2168 13.9054C13.3697 13.7592 13.4199 13.5461 13.3655 13.356L13.3735 13.3506L13.3593 13.3357C13.3345 13.2603 13.2928 13.189 13.2343 13.1278L11.222 11.0185C11.9992 10.9146 13.1798 10.3836 13.3124 8.99997H14.4017C14.6026 8.99997 14.7839 8.87973 14.8622 8.6947C15.0016 8.36504 14.7596 7.99997 14.4017 7.99997H13.2269C13.1489 7.67543 13.0185 7.30424 12.7674 6.99997H14.4017C14.6026 6.99997 14.7839 6.87973 14.8622 6.6947C15.0016 6.36504 14.7596 5.99997 14.4017 5.99997H9.60708C9.40809 5.99997 9.22804 6.11797 9.14862 6.30042C9.00488 6.63067 9.24691 6.99997 9.60708 6.99997H10.6692ZM9.50411 17.019C9.22797 17.019 9.00411 17.2429 9.00411 17.519C9.00411 17.7952 9.22797 18.019 9.50411 18.019H14.5041C14.7803 18.019 15.0041 17.7952 15.0041 17.519C15.0041 17.2429 14.7803 17.019 14.5041 17.019H9.50411Z" fill="#101010"/>
</svg>
