<svg width="24" height="24" viewBox="0 0 24 24" fill="none" xmlns="http://www.w3.org/2000/svg">
<path fill-rule="evenodd" clip-rule="evenodd" d="M18.0005 4.16695L15.4604 6.70709L14.0461 5.29287L18.2888 1.05023C18.6793 0.659708 19.3125 0.659708 19.703 1.05023L23.9456 5.29287L22.5314 6.70709L20.0005 4.17615V9.99593H18.0005V4.16695ZM4.99585 5.00015C4.44356 5.00015 3.99585 5.44786 3.99585 6.00015V20.0001C3.99585 20.5524 4.44356 21.0001 4.99585 21.0001H18.9958C19.5481 21.0001 19.9958 20.5524 19.9958 20.0001V13.0001H17.9958V19.0001H5.99585V7.00015H12.0094V5.00015H4.99585ZM15.4795 8.9999H10.1621L9.58398 10.2724H11.2994C11.701 10.3479 12.1007 10.5444 12.2632 10.9999H10.1621L9.58398 12.2724H12.1333C11.873 12.6707 11.2769 12.9658 9.91357 12.8459V14.1105L12.5893 16.9999H14.5131L11.6429 13.9916C12.3584 13.918 13.624 13.4681 13.9493 12.2724H14.9139L15.4795 10.9999H13.9424C13.8899 10.7614 13.8139 10.506 13.6834 10.2724H14.9139L15.4795 8.9999Z" fill="#101010"/>
</svg>
