<svg width="25" height="25" viewBox="0 0 25 25" fill="none" xmlns="http://www.w3.org/2000/svg">
<path fill-rule="evenodd" clip-rule="evenodd" d="M18.106 4.41523L15.5658 6.95536L14.1516 5.54115L18.3943 1.29851C18.7848 0.907984 19.4179 0.907984 19.8085 1.29851L24.0511 5.54115L22.6369 6.95536L20.106 4.42443V10.2442H18.106V4.41523ZM5.10132 5.24842C4.54903 5.24842 4.10132 5.69614 4.10132 6.24842V20.2484C4.10132 20.8007 4.54903 21.2484 5.10132 21.2484H19.1013C19.6536 21.2484 20.1013 20.8007 20.1013 20.2484V13.2484H18.1013V19.2484H6.10132V7.24842H12.1149V5.24842H5.10132ZM15.585 9.24818H10.2675L9.68945 10.5206H11.4049C11.8065 10.5962 12.2062 10.7926 12.3686 11.2482H10.2675L9.68945 12.5206H12.2388C11.9784 12.919 11.3823 13.2141 10.019 13.0942V14.3588L12.6948 17.2482H14.6186L11.7483 14.2399C12.4638 14.1663 13.7295 13.7164 14.0548 12.5206H15.0194L15.585 11.2482H14.0479C13.9954 11.0096 13.9193 10.7543 13.7889 10.5206H15.0194L15.585 9.24818Z" fill="#101010"/>
</svg>
