<svg width="24" height="24" viewBox="0 0 24 24" fill="none" xmlns="http://www.w3.org/2000/svg">
<path fill-rule="evenodd" clip-rule="evenodd" d="M5 1.99951C4.44772 1.99951 4 2.44723 4 2.99951V5.99951H2V7.99951H4V10.9995H2V12.9995H4V15.9995H2V17.9995H4V20.9995C4 21.5518 4.44772 21.9995 5 21.9995H19C19.5523 21.9995 20 21.5518 20 20.9995V2.99951C20 2.44723 19.5523 1.99951 19 1.99951H5ZM6 19.9995V3.99951H18V19.9995H6ZM13.1043 7.27246H14.3349L14.9006 6H9.58308L9.005 7.27246H10.7203C11.086 7.34121 11.45 7.51025 11.6349 7.88379H9.5832L9.00513 9.15625H11.6198C11.4003 9.6109 10.8274 9.97729 9.33447 9.84604V11.1106L12.0102 14H13.934L11.0638 10.9917C11.802 10.9158 13.1259 10.4393 13.3983 9.15625H14.335L14.9007 7.88379H13.336C13.285 7.6799 13.2138 7.46856 13.1043 7.27246ZM9 17.9995H15V15.9995H9V17.9995Z" fill="#101010"/>
</svg>
