<svg width="24" height="25" viewBox="0 0 24 25" fill="none" xmlns="http://www.w3.org/2000/svg">
<path fill-rule="evenodd" clip-rule="evenodd" d="M3 7.43848C3 5.36741 4.67893 3.68848 6.75 3.68848H17.25C19.3211 3.68848 21 5.36741 21 7.43848V9.94787C21 10.3621 20.6642 10.6979 20.25 10.6979C19.8358 10.6979 19.5 10.3621 19.5 9.94787V7.43848C19.5 6.19584 18.4926 5.18848 17.25 5.18848H6.75C5.50736 5.18848 4.5 6.19584 4.5 7.43848V17.9385C4.5 19.1811 5.50736 20.1885 6.75 20.1885H15.2585C15.6728 20.1885 16.0085 20.5243 16.0085 20.9385C16.0085 21.3527 15.6728 21.6885 15.2585 21.6885H6.75C4.67893 21.6885 3 20.0095 3 17.9385V7.43848ZM12.8917 9.75967H14.2567C14.4548 9.75967 14.6375 9.6532 14.7352 9.48093C14.9431 9.11428 14.6782 8.65967 14.2567 8.65967H9.65513C9.45894 8.65967 9.2776 8.76418 9.17924 8.93394C8.96679 9.3006 9.23137 9.75967 9.65513 9.75967H10.8483C11.2504 9.87914 11.6447 10.1397 11.8049 10.6597H9.7478C9.55029 10.6597 9.36795 10.7656 9.27008 10.9371C9.0609 11.3038 9.32567 11.7597 9.7478 11.7597H11.7701C11.5868 12.2693 11.0957 12.7168 9.81407 12.5677C9.62267 12.4963 9.39889 12.5348 9.24133 12.6854C9.02178 12.8953 9.01396 13.2435 9.22387 13.463L9.43179 13.681L9.4299 13.6867L9.92066 14.1934L12.1667 16.5476C12.3766 16.7672 12.7247 16.775 12.9443 16.5651C13.0971 16.4189 13.1474 16.2058 13.0929 16.0156L13.101 16.0102L13.0866 15.9951C13.0618 15.9197 13.0202 15.8486 12.9617 15.7875L10.9494 13.6781C11.7161 13.5769 12.9963 13.0692 13.2134 11.7597H14.2639C14.4632 11.7597 14.647 11.6518 14.7441 11.4778C14.9488 11.1111 14.6838 10.6597 14.2639 10.6597H13.168C13.1217 10.3694 13.0525 10.0417 12.8917 9.75967ZM19.6385 14.4695C18.9482 14.4695 18.3885 15.0291 18.3885 15.7195V15.7548C18.3885 16.1691 18.0527 16.5048 17.6385 16.5048C17.2243 16.5048 16.8885 16.1691 16.8885 15.7548V15.7195C16.8885 14.2007 18.1197 12.9695 19.6385 12.9695H19.8288C21.2488 12.9695 22.3999 14.1206 22.3999 15.5406C22.3999 16.3505 22.0183 17.113 21.3701 17.5985L20.7356 18.0737C20.4205 18.3097 20.2349 18.6805 20.2349 19.0742V19.1772C20.2349 19.5914 19.8992 19.9272 19.4849 19.9272C19.0707 19.9272 18.7349 19.5914 18.7349 19.1772V19.0742C18.7349 18.208 19.1431 17.3924 19.8364 16.8731L20.4709 16.3979C20.7409 16.1956 20.8999 15.878 20.8999 15.5406C20.8999 14.949 20.4204 14.4695 19.8288 14.4695H19.6385ZM19.5243 22.8781C20.0214 22.8781 20.4243 22.4752 20.4243 21.9781C20.4243 21.4811 20.0214 21.0781 19.5243 21.0781C19.0273 21.0781 18.6243 21.4811 18.6243 21.9781C18.6243 22.4752 19.0273 22.8781 19.5243 22.8781Z" fill="#101010"/>
</svg>
