<svg width="24" height="24" viewBox="0 0 24 24" fill="none" xmlns="http://www.w3.org/2000/svg">
<path fill-rule="evenodd" clip-rule="evenodd" d="M3 6.75C3 4.67893 4.67893 3 6.75 3H17.25C19.3211 3 21 4.67893 21 6.75V9.25939C21 9.6736 20.6642 10.0094 20.25 10.0094C19.8358 10.0094 19.5 9.6736 19.5 9.25939V6.75C19.5 5.50736 18.4926 4.5 17.25 4.5H6.75C5.50736 4.5 4.5 5.50736 4.5 6.75V17.25C4.5 18.4926 5.50736 19.5 6.75 19.5H15.2585C15.6728 19.5 16.0085 19.8358 16.0085 20.25C16.0085 20.6642 15.6728 21 15.2585 21H6.75C4.67893 21 3 19.3211 3 17.25V6.75ZM12.8917 9.07119H14.2567C14.4548 9.07119 14.6375 8.96473 14.7352 8.79245C14.9431 8.4258 14.6782 7.97119 14.2567 7.97119H9.65513C9.45894 7.97119 9.2776 8.0757 9.17924 8.24546C8.96679 8.61212 9.23137 9.07119 9.65513 9.07119H10.8483C11.2504 9.19067 11.6447 9.45122 11.8049 9.97119H9.7478C9.55029 9.97119 9.36795 10.0771 9.27008 10.2487C9.0609 10.6153 9.32567 11.0712 9.7478 11.0712H11.7701C11.5868 11.5808 11.0957 12.0283 9.81407 11.8792C9.62267 11.8078 9.39889 11.8463 9.24133 11.9969C9.02178 12.2069 9.01396 12.555 9.22387 12.7746L9.43179 12.9925L9.4299 12.9982L9.92066 13.5049L12.1667 15.8591C12.3766 16.0787 12.7247 16.0865 12.9443 15.8766C13.0971 15.7305 13.1474 15.5173 13.0929 15.3272L13.101 15.3217L13.0866 15.3066C13.0618 15.2313 13.0202 15.1601 12.9617 15.099L10.9494 12.9896C11.7161 12.8885 12.9963 12.3808 13.2134 11.0712H14.2639C14.4632 11.0712 14.647 10.9633 14.7441 10.7893C14.9488 10.4227 14.6838 9.97119 14.2639 9.97119H13.168C13.1217 9.68095 13.0525 9.35324 12.8917 9.07119ZM19.6385 13.781C18.9482 13.781 18.3885 14.3407 18.3885 15.031V15.0664C18.3885 15.4806 18.0527 15.8164 17.6385 15.8164C17.2243 15.8164 16.8885 15.4806 16.8885 15.0664V15.031C16.8885 13.5122 18.1197 12.281 19.6385 12.281H19.8288C21.2488 12.281 22.3999 13.4321 22.3999 14.8521C22.3999 15.662 22.0183 16.4245 21.3701 16.91L20.7356 17.3852C20.4205 17.6213 20.2349 17.992 20.2349 18.3857V18.4887C20.2349 18.9029 19.8992 19.2387 19.4849 19.2387C19.0707 19.2387 18.7349 18.9029 18.7349 18.4887V18.3857C18.7349 17.5195 19.1431 16.7039 19.8364 16.1846L20.4709 15.7094C20.7409 15.5072 20.8999 15.1895 20.8999 14.8521C20.8999 14.2606 20.4204 13.781 19.8288 13.781H19.6385ZM19.5243 22.1896C20.0214 22.1896 20.4243 21.7867 20.4243 21.2896C20.4243 20.7926 20.0214 20.3896 19.5243 20.3896C19.0273 20.3896 18.6243 20.7926 18.6243 21.2896C18.6243 21.7867 19.0273 22.1896 19.5243 22.1896Z" fill="#101010"/>
</svg>
