<svg width="25" height="25" viewBox="0 0 25 25" fill="none" xmlns="http://www.w3.org/2000/svg">
<circle cx="12.0529" cy="12.6885" r="10" fill="#FD5154"/>
<path fill-rule="evenodd" clip-rule="evenodd" d="M8.32146 10.0376C8.02764 9.74567 8.02613 9.2708 8.31809 8.97697C8.61006 8.68315 9.08493 8.68164 9.37875 8.9736L12.0531 11.631L14.7272 8.97385C15.0211 8.68189 15.4959 8.68339 15.7879 8.97722C16.0799 9.27104 16.0784 9.74591 15.7845 10.0379L13.1172 12.6883L15.7846 15.3389C16.0784 15.6308 16.0799 16.1057 15.788 16.3995C15.496 16.6934 15.0211 16.6949 14.7273 16.4029L12.0531 13.7456L9.37868 16.4031C9.08486 16.6951 8.60999 16.6936 8.31802 16.3998C8.02606 16.106 8.02757 15.6311 8.32139 15.3391L10.9891 12.6883L8.32146 10.0376Z" fill="white"/>
</svg>
