<svg width="25" height="25" viewBox="0 0 25 25" fill="none" xmlns="http://www.w3.org/2000/svg">
<path fill-rule="evenodd" clip-rule="evenodd" d="M10.292 4.65409C12.0659 4.26437 13.9189 4.47092 15.5634 5.2417C16.9822 5.90663 18.1774 6.95939 19.0152 8.27134L16.8478 7.88916C16.4399 7.81723 16.0509 8.08961 15.9789 8.49753C15.907 8.90545 16.1794 9.29445 16.5873 9.36637L20.5266 10.061C20.9345 10.1329 21.3235 9.86052 21.3954 9.4526L22.09 5.51337C22.1619 5.10545 21.8895 4.71645 21.4816 4.64452C21.0737 4.5726 20.6847 4.84497 20.6128 5.25289L20.235 7.39514C19.2472 5.87666 17.8518 4.65765 16.2 3.88348C14.2564 2.97255 12.0666 2.72845 9.9701 3.18903C7.87364 3.64962 5.98775 4.78916 4.60497 6.43088C3.2222 8.07261 2.41983 10.1248 2.32232 12.269C2.32049 12.3092 2.32187 12.3488 2.32622 12.3876C2.32505 12.4255 2.3241 12.4634 2.32337 12.5012L2.34812 12.5017C2.43184 12.8069 2.70432 13.0372 3.03748 13.0523C3.3844 13.0681 3.68698 12.8456 3.78679 12.5294L3.82309 12.5301C3.82834 12.2569 3.84716 11.9837 3.87964 11.7115L3.87323 11.7107C4.06702 10.1255 4.71763 8.62556 5.75225 7.3972C6.92229 6.00805 8.51804 5.04382 10.292 4.65409ZM21.6713 14.3935C21.7278 14.0757 21.7685 13.7546 21.7932 13.4315L20.2976 13.3172C20.2767 13.5906 20.2422 13.8623 20.1945 14.1312L21.6713 14.3935ZM2.47872 14.4321C2.53646 14.7497 2.61004 15.0649 2.69937 15.3764C2.7887 15.6879 2.89333 15.9941 3.01272 16.2941L4.40639 15.7394C4.30537 15.4856 4.21683 15.2264 4.14125 14.9629C4.06566 14.6993 4.0034 14.4326 3.95455 14.1638L2.47872 14.4321ZM20.7454 17.1413C20.8934 16.8531 21.0266 16.5581 21.1448 16.2577L19.7489 15.7086C19.6489 15.9628 19.5362 16.2124 19.411 16.4563C19.2857 16.7002 19.1487 16.9373 19.0004 17.1667L20.2602 17.9809C20.4354 17.7098 20.5974 17.4296 20.7454 17.1413ZM3.90429 18.0138C4.08062 18.2842 4.2706 18.5462 4.47367 18.7988C4.67675 19.0513 4.89191 19.293 5.11822 19.5233L6.18797 18.4718C5.99647 18.277 5.81442 18.0724 5.64258 17.8587C5.47075 17.6451 5.30999 17.4234 5.16079 17.1945L3.90429 18.0138ZM18.3416 20.1551C18.5898 19.9467 18.8269 19.7265 19.0523 19.4953L17.9784 18.4481C17.7876 18.6437 17.587 18.8301 17.377 19.0064C17.167 19.1827 16.9488 19.3481 16.7232 19.5022L17.5689 20.741C17.8355 20.559 18.0935 20.3635 18.3416 20.1551ZM6.60662 20.763C6.87398 20.944 7.15067 21.1119 7.43574 21.266C7.72082 21.42 8.01286 21.5595 8.31072 21.684L8.88932 20.3001C8.63728 20.1947 8.39017 20.0767 8.14895 19.9464C7.90773 19.816 7.67361 19.6739 7.44738 19.5208L6.60662 20.763ZM14.9577 22.0016C15.2672 21.9057 15.5712 21.7946 15.8685 21.6689L15.2844 20.2873C15.0328 20.3937 14.7756 20.4877 14.5136 20.5688C14.2517 20.65 13.9864 20.7179 13.7188 20.7725L14.0182 22.2423C14.3346 22.1778 14.6481 22.0975 14.9577 22.0016ZM10.1633 22.25C10.4799 22.3132 10.8 22.3607 11.1225 22.3923C11.445 22.4238 11.7683 22.4392 12.0912 22.4385L12.0881 20.9385C11.815 20.9391 11.5414 20.9261 11.2685 20.8994C10.9956 20.8727 10.7248 20.8325 10.4569 20.779L10.1633 22.25ZM12.5778 9.44978V12.1891H15.2497C15.6637 12.1891 15.9994 12.5248 15.9994 12.9388C15.9994 13.3529 15.6637 13.6886 15.2497 13.6886H12.0554C11.5031 13.6886 11.0554 13.2409 11.0554 12.6886V9.44978C11.0554 9.02939 11.3962 8.68859 11.8166 8.68859C12.237 8.68859 12.5778 9.02939 12.5778 9.44978Z" fill="#F19E0C"/>
</svg>
