<svg width="24" height="24" viewBox="0 0 24 24" fill="none" xmlns="http://www.w3.org/2000/svg">
<path fill-rule="evenodd" clip-rule="evenodd" d="M10.2365 3.96513C12.0105 3.5754 13.8634 3.78195 15.508 4.55274C16.9267 5.21767 18.1219 6.27043 18.9598 7.58237L16.7924 7.2002C16.3844 7.12827 15.9954 7.40065 15.9235 7.80857C15.8516 8.21649 16.124 8.60548 16.5319 8.67741L20.4711 9.372C20.879 9.44393 21.268 9.17155 21.34 8.76363L22.0345 4.8244C22.1065 4.41648 21.8341 4.02749 21.4262 3.95556C21.0183 3.88363 20.6293 4.15601 20.5573 4.56393L20.1796 6.70617C19.1918 5.18769 17.7964 3.96868 16.1446 3.19452C14.201 2.28359 12.0111 2.03948 9.91467 2.50007C7.8182 2.96066 5.93231 4.10019 4.54954 5.74192C3.16677 7.38364 2.36439 9.43579 2.26689 11.58C2.24807 11.9938 2.56826 12.3445 2.98204 12.3633C3.39583 12.3822 3.74652 12.062 3.76534 11.6482C3.76739 11.603 3.76982 11.5578 3.77261 11.5127C3.77937 11.4867 3.78381 11.4598 3.78572 11.4322C3.78757 11.4054 3.78696 11.3789 3.78407 11.353C3.92313 9.64601 4.59039 8.02185 5.69681 6.70823C6.86685 5.31908 8.4626 4.35486 10.2365 3.96513ZM2.58564 14.4759C2.60426 14.5468 2.62369 14.6176 2.64393 14.6881C2.66417 14.7587 2.6852 14.829 2.707 14.899C2.83015 15.2945 3.26927 15.4817 3.65412 15.3285C4.03897 15.1753 4.22325 14.7399 4.10564 14.3427C4.09894 14.32 4.09232 14.2973 4.08581 14.2746C4.0793 14.2519 4.07288 14.2292 4.06656 14.2064C3.9558 13.8073 3.56874 13.5357 3.1612 13.6097C2.75366 13.6838 2.48047 14.0752 2.58564 14.4759ZM20.7883 16.2561C20.9691 15.8835 20.7769 15.4465 20.3914 15.2949C20.006 15.1433 19.5736 15.3348 19.3876 15.7049C19.377 15.726 19.3663 15.747 19.3555 15.7681C19.3447 15.7891 19.3339 15.8101 19.3229 15.831C19.1306 16.1978 19.227 16.6608 19.5748 16.8856C19.9227 17.1104 20.3898 17.0119 20.5872 16.6478C20.6222 16.5833 20.6564 16.5184 20.69 16.4531C20.7235 16.3878 20.7563 16.3221 20.7883 16.2561ZM4.28223 17.9374C4.32689 17.9956 4.37223 18.0533 4.41824 18.1105C4.46425 18.1677 4.51088 18.2244 4.55812 18.2805C4.82492 18.5973 5.30226 18.5997 5.59766 18.3093C5.89306 18.0189 5.89415 17.5461 5.63181 17.2255C5.61684 17.2073 5.60196 17.1889 5.58715 17.1705C5.57234 17.1521 5.55761 17.1336 5.54296 17.1151C5.28616 16.7901 4.82408 16.6897 4.4771 16.9159C4.13013 17.1422 4.03 17.6089 4.28223 17.9374ZM18.4532 19.3234C18.7643 19.0499 18.7565 18.5727 18.4599 18.2835C18.1633 17.9943 17.6906 18.0033 17.3756 18.2723C17.3577 18.2877 17.3397 18.303 17.3216 18.3182C17.3035 18.3334 17.2853 18.3485 17.2671 18.3635C16.9476 18.6271 16.8571 19.0913 17.0906 19.4334C17.3241 19.7755 17.7929 19.8657 18.116 19.6065C18.1732 19.5606 18.23 19.5141 18.2862 19.4669C18.3424 19.4196 18.3981 19.3718 18.4532 19.3234ZM7.18784 20.4709C7.25156 20.5072 7.31572 20.5428 7.38031 20.5777C7.4449 20.6126 7.50984 20.6468 7.57513 20.6802C7.94388 20.8689 8.38481 20.686 8.54458 20.3038C8.70436 19.9217 8.52209 19.4854 8.15601 19.2916C8.13514 19.2805 8.1143 19.2694 8.09351 19.2581C8.07272 19.2469 8.05198 19.2356 8.0313 19.2242C7.66861 19.0241 7.20373 19.1106 6.97156 19.4537C6.73939 19.7967 6.82798 20.2658 7.18784 20.4709ZM15.1117 21.2459C15.5045 21.1143 15.6823 20.6714 15.521 20.2898C15.3597 19.9083 14.9204 19.7333 14.5258 19.8593C14.5033 19.8665 14.4808 19.8736 14.4582 19.8806C14.4356 19.8876 14.413 19.8945 14.3904 19.9013C13.9937 20.0205 13.7304 20.4132 13.8131 20.8191C13.8958 21.225 14.2929 21.4898 14.6912 21.3762C14.7618 21.356 14.8321 21.3351 14.9022 21.3134C14.9724 21.2917 15.0422 21.2691 15.1117 21.2459ZM10.8482 21.6801C10.9211 21.6889 10.994 21.6969 11.0671 21.704C11.1402 21.7112 11.2133 21.7175 11.2864 21.723C11.6994 21.754 12.035 21.4145 12.0342 21.0003C12.0334 20.5861 11.6962 20.2545 11.2837 20.2178C11.2601 20.2157 11.2366 20.2135 11.2131 20.2112L11.1776 20.2076L11.1426 20.204C10.7307 20.1601 10.3357 20.4201 10.2546 20.8263C10.1736 21.2325 10.437 21.6305 10.8482 21.6801ZM12.5224 8.76118V11.5005H15.1942C15.6083 11.5005 15.944 11.8362 15.944 12.2502C15.944 12.6643 15.6083 13 15.1942 13H12C11.4477 13 11 12.5523 11 12V8.76118C11 8.34078 11.3408 7.99999 11.7612 7.99999C12.1816 7.99999 12.5224 8.34078 12.5224 8.76118Z" fill="#F19E0C"/>
</svg>
