<svg width="25" height="25" viewBox="0 0 25 25" fill="none" xmlns="http://www.w3.org/2000/svg">
<path fill-rule="evenodd" clip-rule="evenodd" d="M11.1316 4.81523C12.9055 4.4255 14.7585 4.63205 16.403 5.40284C17.8218 6.06776 19.017 7.12053 19.8548 8.43247L17.6874 8.0503C17.2795 7.97837 16.8905 8.25074 16.8185 8.65867C16.7466 9.06659 17.019 9.45558 17.4269 9.52751L21.3661 10.2221C21.7741 10.294 22.1631 10.0217 22.235 9.61373L22.9296 5.6745C23.0015 5.26658 22.7291 4.87758 22.3212 4.80566C21.9133 4.73373 21.5243 5.00611 21.4524 5.41403L21.0746 7.55627C20.0868 6.03779 18.6914 4.81878 17.0396 4.04462C15.096 3.13368 12.9062 2.88958 10.8097 3.35017C8.71324 3.81076 6.82735 4.95029 5.44457 6.59202C4.0618 8.23374 3.25943 10.2859 3.16192 12.4301C3.1431 12.8439 3.46329 13.1946 3.87708 13.2134C4.29086 13.2323 4.64156 12.9121 4.66037 12.4983C4.66243 12.4531 4.66485 12.4079 4.66765 12.3628C4.6744 12.3368 4.67885 12.3099 4.68076 12.2823C4.68261 12.2555 4.68199 12.229 4.6791 12.2031C4.81816 10.4961 5.48543 8.87195 6.59185 7.55833C7.76189 6.16918 9.35764 5.20496 11.1316 4.81523ZM3.48068 15.326C3.4993 15.3969 3.51873 15.4677 3.53897 15.5382C3.55921 15.6088 3.58023 15.6791 3.60204 15.7491C3.72518 16.1446 4.16431 16.3318 4.54916 16.1786C4.93401 16.0254 5.11828 15.5899 5.00068 15.1928C4.99397 15.1701 4.98736 15.1474 4.98084 15.1247C4.97433 15.102 4.96791 15.0793 4.9616 15.0565C4.85083 14.6574 4.46377 14.3857 4.05624 14.4598C3.6487 14.5339 3.37551 14.9253 3.48068 15.326ZM21.6833 17.1062C21.8641 16.7336 21.6719 16.2966 21.2865 16.145C20.901 15.9934 20.4687 16.1848 20.2827 16.555L20.269 16.582L20.2506 16.6182C20.2398 16.6392 20.2289 16.6602 20.2179 16.6811C20.0256 17.0479 20.122 17.5109 20.4699 17.7357C20.8178 17.9605 21.2848 17.862 21.4823 17.4979C21.5172 17.4334 21.5515 17.3685 21.585 17.3032C21.6185 17.2379 21.6513 17.1722 21.6833 17.1062ZM5.17726 18.7875C5.22192 18.8457 5.26726 18.9034 5.31327 18.9606C5.35928 19.0178 5.40592 19.0745 5.45316 19.1306C5.71996 19.4474 6.19729 19.4498 6.4927 19.1594C6.7881 18.869 6.78919 18.3962 6.52684 18.0756C6.51188 18.0574 6.49699 18.039 6.48218 18.0206C6.46737 18.0022 6.45264 17.9837 6.438 17.9652C6.1812 17.6402 5.71911 17.5398 5.37214 17.766C5.02516 17.9923 4.92504 18.459 5.17726 18.7875ZM19.3482 20.1735C19.6593 19.9 19.6515 19.4228 19.3549 19.1336C19.0584 18.8444 18.5856 18.8534 18.2707 19.1224C18.2527 19.1378 18.2347 19.1531 18.2166 19.1683C18.1985 19.1835 18.1803 19.1986 18.1621 19.2136C17.8426 19.4772 17.7521 19.9414 17.9856 20.2835C18.2192 20.6255 18.6879 20.7158 19.0111 20.4566C19.0683 20.4107 19.125 20.3642 19.1812 20.317C19.2374 20.2697 19.2931 20.2219 19.3482 20.1735ZM8.08288 21.321C8.14659 21.3573 8.21075 21.3929 8.27534 21.4278C8.33993 21.4627 8.40488 21.4969 8.47017 21.5303C8.83892 21.719 9.27985 21.5361 9.43962 21.1539C9.59939 20.7718 9.41712 20.3355 9.05105 20.1417C9.03017 20.1306 9.00934 20.1195 8.98855 20.1082C8.96776 20.097 8.94702 20.0857 8.92633 20.0743C8.56364 19.8742 8.09877 19.9607 7.8666 20.3038C7.63443 20.6468 7.72302 21.1159 8.08288 21.321ZM16.0068 22.096C16.3996 21.9644 16.5773 21.5214 16.416 21.1399C16.2547 20.7584 15.8154 20.5834 15.4209 20.7094C15.3984 20.7166 15.3758 20.7237 15.3532 20.7307C15.3307 20.7377 15.3081 20.7446 15.2854 20.7514C14.8888 20.8706 14.6254 21.2633 14.7081 21.6692C14.7908 22.0751 15.1879 22.3399 15.5863 22.2263C15.6568 22.2061 15.7271 22.1852 15.7973 22.1635C15.8674 22.1418 15.9372 22.1192 16.0068 22.096ZM11.7433 22.5302C11.8161 22.539 11.889 22.547 11.9621 22.5541C12.0352 22.5613 12.1083 22.5676 12.1814 22.5731C12.5945 22.6041 12.9301 22.2646 12.9292 21.8504C12.9284 21.4362 12.5913 21.1046 12.1787 21.0679C12.1552 21.0658 12.1316 21.0636 12.1081 21.0613C12.0846 21.059 12.0611 21.0566 12.0376 21.0541C11.6257 21.0102 11.2307 21.2702 11.1497 21.6764C11.0686 22.0826 11.3321 22.4806 11.7433 22.5302ZM13.4174 9.61127V12.3506H16.0893C16.5033 12.3506 16.839 12.6863 16.839 13.1003C16.839 13.5144 16.5033 13.8501 16.0893 13.8501H12.895C12.3427 13.8501 11.895 13.4024 11.895 12.8501V9.61127C11.895 9.19088 12.2358 8.85008 12.6562 8.85008C13.0766 8.85008 13.4174 9.19088 13.4174 9.61127Z" fill="#F19E0C"/>
</svg>
