<svg width="24" height="24" viewBox="0 0 24 24" fill="none" xmlns="http://www.w3.org/2000/svg">
<path fill-rule="evenodd" clip-rule="evenodd" d="M19.25 0.996094C18.8358 0.996094 18.5 1.33188 18.5 1.74609V8.44054L15.8912 5.83173C15.5983 5.53884 15.1234 5.53884 14.8305 5.83173C14.5376 6.12462 14.5376 6.5995 14.8305 6.89239L18.7196 10.7815C19.0125 11.0744 19.4874 11.0744 19.7803 10.7815L23.6694 6.89239C23.9623 6.5995 23.9623 6.12462 23.6694 5.83173C23.3765 5.53884 22.9016 5.53884 22.6087 5.83173L20 8.44044V1.74609C20 1.33188 19.6642 0.996094 19.25 0.996094ZM5.49994 8.75073C5.49994 7.50809 6.5073 6.50073 7.74994 6.50073H11.8598C12.274 6.50073 12.6098 6.16495 12.6098 5.75073C12.6098 5.33652 12.274 5.00073 11.8598 5.00073H7.74994C5.67887 5.00073 3.99994 6.67966 3.99994 8.75073V17.2507C3.99994 19.3218 5.67887 21.0007 7.74994 21.0007H16.2499C18.321 21.0007 19.9999 19.3218 19.9999 17.2507V13.7513C19.9999 13.3371 19.6642 13.0013 19.2499 13.0013C18.8357 13.0013 18.4999 13.3371 18.4999 13.7513V17.2507C18.4999 18.4934 17.4926 19.5007 16.2499 19.5007H7.74994C6.5073 19.5007 5.49994 18.4934 5.49994 17.2507V8.75073ZM9.17915 9.24619C9.27751 9.07643 9.45885 8.97192 9.65504 8.97192H14.2566C14.6781 8.97192 14.943 9.42654 14.7351 9.79319C14.6374 9.96546 14.4547 10.0719 14.2566 10.0719H12.8916C13.0524 10.354 13.1216 10.6817 13.1679 10.9719H14.2638C14.6837 10.9719 14.9487 11.4234 14.744 11.79C14.6469 11.9641 14.4631 12.0719 14.2638 12.0719H13.2134C12.9962 13.3815 11.716 13.8892 10.9493 13.9904L12.9617 16.0997C13.0201 16.1609 13.0617 16.232 13.0865 16.3073L13.1009 16.3224L13.0928 16.3279C13.1473 16.518 13.0971 16.7312 12.9442 16.8773C12.7246 17.0872 12.3765 17.0794 12.1666 16.8599L9.92057 14.5057L9.42981 13.9989L9.4317 13.9932L9.22378 13.7753C9.01387 13.5557 9.02169 13.2076 9.24124 12.9977C9.3988 12.847 9.62258 12.8085 9.81397 12.8799C11.0957 13.029 11.5867 12.5815 11.7701 12.0719H9.74771C9.32558 12.0719 9.06081 11.616 9.26998 11.2494C9.36786 11.0778 9.5502 10.9719 9.74771 10.9719H11.8048C11.6446 10.452 11.2503 10.1914 10.8483 10.0719H9.65504C9.23127 10.0719 8.9667 9.61286 9.17915 9.24619Z" fill="#101010"/>
</svg>
