<svg width="24" height="24" viewBox="0 0 24 24" fill="none" xmlns="http://www.w3.org/2000/svg">
<path fill-rule="evenodd" clip-rule="evenodd" d="M14.8305 5.09496C14.5376 5.38786 14.5376 5.86273 14.8305 6.15562C15.1234 6.44852 15.5983 6.44852 15.8912 6.15562L18.4999 3.54688V10.2515C18.4999 10.6657 18.8357 11.0015 19.2499 11.0015C19.6642 11.0015 19.9999 10.6657 19.9999 10.2515V3.54686L22.6087 6.15562C22.9016 6.44852 23.3765 6.44852 23.6694 6.15562C23.9623 5.86273 23.9623 5.38786 23.6694 5.09496L19.7803 1.20588C19.4874 0.912983 19.0125 0.912983 18.7196 1.20588L14.8305 5.09496ZM5.49994 8.75078C5.49994 7.50814 6.5073 6.50078 7.74994 6.50078H11.7157C12.13 6.50078 12.4657 6.165 12.4657 5.75078C12.4657 5.33657 12.13 5.00078 11.7157 5.00078H7.74994C5.67887 5.00078 3.99994 6.67971 3.99994 8.75078V17.2508C3.99994 19.3218 5.67887 21.0008 7.74994 21.0008H16.2499C18.321 21.0008 19.9999 19.3219 19.9999 17.2508V13.7236C19.9999 13.3094 19.6642 12.9736 19.2499 12.9736C18.8357 12.9736 18.4999 13.3094 18.4999 13.7236V17.2508C18.4999 18.4934 17.4926 19.5008 16.2499 19.5008H7.74994C6.5073 19.5008 5.49994 18.4934 5.49994 17.2508V8.75078ZM9.25059 9.246C9.34895 9.07624 9.53029 8.97173 9.72648 8.97173H14.3281C14.7496 8.97173 15.0144 9.42634 14.8065 9.79299C14.7089 9.96527 14.5261 10.0717 14.3281 10.0717H12.963C13.1238 10.3538 13.193 10.6815 13.2393 10.9717H14.3352C14.7551 10.9717 15.0201 11.4232 14.8154 11.7898C14.7183 11.9639 14.5345 12.0717 14.3352 12.0717H13.2848C13.0676 13.3813 11.7875 13.889 11.0207 13.9902L13.0331 16.0995C13.0916 16.1607 13.1332 16.2318 13.158 16.3072L13.1724 16.3222L13.1643 16.3277C13.2187 16.5178 13.1685 16.731 13.0156 16.8771C12.7961 17.0871 12.4479 17.0792 12.238 16.8597L9.99402 14.5076L9.50122 13.9987L9.50312 13.993L9.29522 13.7751C9.08531 13.5555 9.09313 13.2074 9.31268 12.9975C9.47025 12.8468 9.69403 12.8083 9.88543 12.8797C11.1671 13.0288 11.6581 12.5813 11.8415 12.0717H9.81912C9.39699 12.0717 9.13222 11.6159 9.3414 11.2492C9.43927 11.0776 9.62161 10.9717 9.81912 10.9717H11.8762C11.716 10.4518 11.3217 10.1912 10.9197 10.0717H9.72648C9.30272 10.0717 9.03814 9.61266 9.25059 9.246Z" fill="#101010"/>
</svg>
