<svg width="24" height="25" viewBox="0 0 24 25" fill="none" xmlns="http://www.w3.org/2000/svg">
<path fill-rule="evenodd" clip-rule="evenodd" d="M12 4.43848C10.7574 4.43848 9.75 5.44584 9.75 6.68848C9.75 7.93112 10.7574 8.93848 12 8.93848C13.2426 8.93848 14.25 7.93112 14.25 6.68848C14.25 5.44584 13.2426 4.43848 12 4.43848ZM8.25 6.68848C8.25 4.61741 9.92893 2.93848 12 2.93848C14.0711 2.93848 15.75 4.61741 15.75 6.68848C15.75 8.75954 14.0711 10.4385 12 10.4385C9.92893 10.4385 8.25 8.75954 8.25 6.68848Z" fill="#101010"/>
<path fill-rule="evenodd" clip-rule="evenodd" d="M1.7084 15.7999C1.54546 15.4191 1.72209 14.9783 2.10291 14.8153L6.24013 13.0452C6.62095 12.8822 7.06175 13.0589 7.22469 13.4397L8.99484 17.5769C9.15778 17.9577 8.98115 18.3985 8.60033 18.5615C8.21951 18.7244 7.7787 18.5478 7.61577 18.167L6.14064 14.7193L2.69296 16.1944C2.31214 16.3573 1.87134 16.1807 1.7084 15.7999Z" fill="#101010"/>
<path fill-rule="evenodd" clip-rule="evenodd" d="M9.00682 12.457C9.00682 12.0428 9.34261 11.707 9.75682 11.707H13.1434C16.3405 11.707 19.0991 13.95 19.7514 17.0799L19.9774 18.1641C20.4627 20.4929 18.685 22.6792 16.3062 22.6792H7.72572C5.40181 22.6792 3.63806 20.5861 4.03204 18.2959C4.18412 17.4118 4.45756 16.553 4.8446 15.7437L5.65372 14.0519C5.83244 13.6783 6.28024 13.5202 6.65392 13.6989C7.02759 13.8776 7.18564 14.3254 7.00692 14.6991L6.1978 16.3909C5.87034 17.0756 5.639 17.8022 5.51033 18.5502C5.27403 19.9238 6.33189 21.1792 7.72572 21.1792H16.3062C17.7335 21.1792 18.8001 19.8674 18.5089 18.4701L18.2829 17.3859C17.7756 14.9516 15.63 13.207 13.1434 13.207H9.75682C9.34261 13.207 9.00682 12.8712 9.00682 12.457Z" fill="#101010"/>
</svg>
