<svg width="24" height="25" viewBox="0 0 24 25" fill="none" xmlns="http://www.w3.org/2000/svg">
<path fill-rule="evenodd" clip-rule="evenodd" d="M5.5 6.44604C5.5 5.2034 6.50736 4.19604 7.75 4.19604H13.2704C13.6846 4.19604 14.0204 3.86026 14.0204 3.44604C14.0204 3.03183 13.6846 2.69604 13.2704 2.69604H7.75C5.67893 2.69604 4 4.37497 4 6.44604V6.93848H2.74945C2.33524 6.93848 1.99945 7.27426 1.99945 7.68848C1.99945 8.10269 2.33524 8.43848 2.74945 8.43848H4V11.9385H2.74945C2.33524 11.9385 1.99945 12.2743 1.99945 12.6885C1.99945 13.1027 2.33524 13.4385 2.74945 13.4385H4V16.9385H2.74945C2.33524 16.9385 1.99945 17.2743 1.99945 17.6885C1.99945 18.1027 2.33524 18.4385 2.74945 18.4385H4V19.0889C4 21.16 5.67893 22.8389 7.75 22.8389H16.25C18.3211 22.8389 20 21.16 20 19.0889V15.4348C20 15.0206 19.6642 14.6848 19.25 14.6848C18.8358 14.6848 18.5 15.0206 18.5 15.4348V19.0889C18.5 20.3315 17.4926 21.3389 16.25 21.3389H7.75C6.50736 21.3389 5.5 20.3315 5.5 19.0889V6.44604ZM18.4968 11.9202V5.25996L15.8912 7.86554C15.5984 8.15843 15.1235 8.15843 14.8306 7.86554C14.5377 7.57264 14.5377 7.09777 14.8306 6.80487L18.7197 2.91579C19.0126 2.62289 19.4874 2.62289 19.7803 2.91579L23.6694 6.80487C23.9623 7.09777 23.9623 7.57264 23.6694 7.86554C23.3765 8.15843 22.9017 8.15843 22.6088 7.86554L19.9968 5.2536V11.9202C19.9968 12.3344 19.661 12.6702 19.2468 12.6702C18.8326 12.6702 18.4968 12.3344 18.4968 11.9202ZM14 10.6758C14 11.7804 13.1046 12.6758 12 12.6758C10.8954 12.6758 10 11.7804 10 10.6758C10 9.57121 10.8954 8.67578 12 8.67578C13.1046 8.67578 14 9.57121 14 10.6758ZM11.2 13.7041C9.43269 13.7041 8 15.1368 8 16.9041C8 17.3459 8.35818 17.7041 8.8 17.7041H15.2C15.6418 17.7041 16 17.3459 16 16.9041C16 15.1368 14.5673 13.7041 12.8 13.7041H11.2Z" fill="#101010"/>
</svg>
