<svg width="24" height="25" viewBox="0 0 24 25" fill="none" xmlns="http://www.w3.org/2000/svg">
<path fill-rule="evenodd" clip-rule="evenodd" d="M4.00003 6.45629C4.00003 4.38523 5.67896 2.7063 7.75003 2.7063H16.25C18.3211 2.7063 20 4.38523 20 6.4563V19.0992C20 21.1702 18.3211 22.8492 16.25 22.8492H7.75003C5.67896 22.8492 4.00003 21.1702 4.00003 19.0992V18.4385H2.74997C2.33576 18.4385 1.99997 18.1027 1.99997 17.6885C1.99997 17.2743 2.33576 16.9385 2.74997 16.9385H4.00003V13.4385H2.74997C2.33576 13.4385 1.99997 13.1027 1.99997 12.6885C1.99997 12.2743 2.33576 11.9385 2.74997 11.9385H4.00003V8.43848H2.74997C2.33576 8.43848 1.99997 8.10269 1.99997 7.68848C1.99997 7.27426 2.33576 6.93848 2.74997 6.93848H4.00003V6.45629ZM7.75003 4.2063C6.50739 4.2063 5.50003 5.21366 5.50003 6.45629V19.0992C5.50003 20.3418 6.50739 21.3492 7.75003 21.3492H16.25C17.4927 21.3492 18.5 20.3418 18.5 19.0992V6.4563C18.5 5.21366 17.4927 4.2063 16.25 4.2063H7.75003ZM12.8918 7.7604H14.2568C14.4549 7.7604 14.6376 7.65394 14.7353 7.48166C14.9432 7.11501 14.6783 6.6604 14.2568 6.6604H9.65522C9.45903 6.6604 9.27769 6.76491 9.17933 6.93467C8.96689 7.30133 9.23146 7.7604 9.65522 7.7604H10.8484C11.2505 7.87988 11.6448 8.14043 11.805 8.6604H9.74789C9.55038 8.6604 9.36804 8.76631 9.27017 8.93786C9.06099 9.30452 9.32576 9.7604 9.74789 9.7604H11.7702C11.5869 10.27 11.0958 10.7175 9.81416 10.5684C9.62276 10.497 9.39898 10.5355 9.24143 10.6861C9.02187 10.8961 9.01405 11.2442 9.22396 11.4638L9.43188 11.6817L9.42999 11.6874L9.92075 12.1941L12.1667 14.5484C12.3767 14.7679 12.7248 14.7757 12.9444 14.5658C13.0972 14.4197 13.1475 14.2065 13.093 14.0164L13.1011 14.0109L13.0867 13.9958C13.0619 13.9205 13.0203 13.8493 12.9618 13.7882L10.9494 11.6788C11.7162 11.5777 12.9963 11.07 13.2135 9.7604H14.264C14.4633 9.7604 14.6471 9.65254 14.7442 9.47849C14.9489 9.11188 14.6838 8.6604 14.264 8.6604H13.1681C13.1218 8.37016 13.0525 8.04245 12.8918 7.7604ZM9.74998 17.1919C9.33577 17.1919 8.99998 17.5277 8.99998 17.9419C8.99998 18.3561 9.33577 18.6919 9.74998 18.6919H14.25C14.6642 18.6919 15 18.3561 15 17.9419C15 17.5277 14.6642 17.1919 14.25 17.1919H9.74998Z" fill="#101010"/>
</svg>
