<svg width="25" height="25" viewBox="0 0 25 25" fill="none" xmlns="http://www.w3.org/2000/svg">
<path fill-rule="evenodd" clip-rule="evenodd" d="M11.8492 2.66259C12.0147 2.60238 12.1962 2.60238 12.3618 2.66259L20.6118 5.66259C20.9082 5.77037 21.1055 6.05205 21.1055 6.36743V9.24829C21.1055 9.6625 20.7697 9.99829 20.3555 9.99829H19.128V17.2483H20.3555C20.7697 17.2483 21.1055 17.5841 21.1055 17.9983V21.4983C21.1055 21.9125 20.7697 22.2483 20.3555 22.2483H3.85547C3.44126 22.2483 3.10547 21.9125 3.10547 21.4983V17.9983C3.10547 17.5841 3.44126 17.2483 3.85547 17.2483H5.10477V9.99829H3.85547C3.44126 9.99829 3.10547 9.6625 3.10547 9.24829V6.36743C3.10547 6.05205 3.30277 5.77037 3.59916 5.66259L11.8492 2.66259ZM6.60477 9.99829V17.2483H11.3765V9.99829H6.60477ZM12.8765 9.99829V17.2483H17.628V9.99829H12.8765ZM4.60547 6.89275V8.49829H19.6055V6.89275L12.1055 4.16548L4.60547 6.89275ZM4.60547 18.7483V20.7483H19.6055V18.7483H4.60547Z" fill="#101010"/>
</svg>
