<svg width="24" height="24" viewBox="0 0 24 24" fill="none" xmlns="http://www.w3.org/2000/svg">
<path fill-rule="evenodd" clip-rule="evenodd" d="M3.75 3C3.33579 3 3 3.33579 3 3.75V20.25C3 20.6642 3.33579 21 3.75 21H16.0038V19.5H4.5V4.5H19.5V10.0066H21V3.75C21 3.33579 20.6642 3 20.25 3H3.75ZM18.3885 15.0458C18.3885 14.3482 18.9553 13.781 19.6385 13.781H19.8288C20.4204 13.781 20.8999 14.2606 20.8999 14.8521C20.8999 15.1895 20.7409 15.5072 20.4709 15.7094L19.8364 16.1846C19.1431 16.7039 18.7349 17.5195 18.7349 18.3857V19.2387H20.2349V18.3857C20.2349 17.992 20.4205 17.6213 20.7356 17.3852L21.3701 16.91C22.0183 16.4245 22.3999 15.662 22.3999 14.8521C22.3999 13.4321 21.2488 12.281 19.8288 12.281H19.6385C18.1126 12.281 16.8885 13.5343 16.8885 15.0458H18.3885ZM20.4243 21.2896C20.4243 21.7867 20.0214 22.1896 19.5243 22.1896C19.0273 22.1896 18.6243 21.7867 18.6243 21.2896C18.6243 20.7926 19.0273 20.3896 19.5243 20.3896C20.0214 20.3896 20.4243 20.7926 20.4243 21.2896ZM14.3821 9.1H12.6841C12.8637 9.34102 12.9759 9.61905 13.0506 9.88354H14.9478L14.3821 10.9835H13.1519C12.9679 12.3979 11.5639 12.9167 10.7933 12.9959L13.623 16.0001H12.0574L9.38162 13.1107V11.8462C11.0601 11.9937 11.5757 11.5123 11.7335 10.9835H9.05222L9.6303 9.88354H11.6893C11.494 9.44177 11.0852 9.20275 10.6894 9.1H9.05215L9.63024 8H14.9478L14.3821 9.1Z" fill="#101010"/>
</svg>
