<svg width="24" height="25" viewBox="0 0 24 25" fill="none" xmlns="http://www.w3.org/2000/svg">
<path fill-rule="evenodd" clip-rule="evenodd" d="M10.2366 4.3748C12.0105 3.98507 13.8635 4.19162 15.508 4.96241C16.9268 5.62735 18.122 6.68014 18.9599 7.99212L16.7923 7.60992L16.5318 9.08713L21.2097 9.91196L22.0345 5.23413L20.5573 4.97365L20.1796 7.11578C19.1918 5.59733 17.7964 4.37834 16.1446 3.60419C14.201 2.69325 12.0112 2.44915 9.91469 2.90974C7.81822 3.37033 5.93233 4.50986 4.54956 6.15159C3.16679 7.79331 2.36441 9.84546 2.26691 11.9897L3.76536 12.0579C3.77118 11.9298 3.77997 11.8022 3.79169 11.675L3.79879 11.6757C3.82308 11.4036 3.86092 11.1324 3.9123 10.863L3.90769 10.8621C4.17405 9.48849 4.78694 8.19819 5.69683 7.1179C6.86687 5.72875 8.46262 4.76453 10.2366 4.3748ZM2.32502 13.4793C2.36046 13.8002 2.41187 14.1197 2.47926 14.4367C2.54664 14.7536 2.62966 15.0665 2.72783 15.374L4.1568 14.9179C4.07373 14.6576 4.00349 14.393 3.94647 14.1248C3.88945 13.8566 3.84594 13.5862 3.81596 13.3147L2.32502 13.4793ZM20.3582 17.4562C20.526 17.1789 20.6795 16.894 20.8183 16.6025L19.4641 15.9574C19.3466 16.204 19.2168 16.4451 19.0748 16.6797C18.9329 16.9143 18.7796 17.1412 18.6157 17.3598L19.8156 18.2599C20.0093 18.0016 20.1905 17.7334 20.3582 17.4562ZM3.49726 17.1517C3.6543 17.4338 3.82554 17.7084 4.01051 17.9745C4.19548 18.2406 4.39324 18.4968 4.60295 18.7422L5.74343 17.7679C5.56599 17.5602 5.39865 17.3434 5.24214 17.1183C5.08563 16.8932 4.94073 16.6608 4.80786 16.4221L3.49726 17.1517ZM17.7501 20.2949C18.0121 20.1043 18.2641 19.9012 18.505 19.6863L17.5067 18.5667C17.3029 18.7486 17.0897 18.9205 16.8679 19.0817C16.6461 19.243 16.4169 19.3928 16.1811 19.5307L16.9384 20.8255C17.217 20.6625 17.488 20.4855 17.7501 20.2949ZM6.00124 20.0828C6.25533 20.2819 6.51962 20.4687 6.79326 20.6423C7.06689 20.8159 7.34849 20.9754 7.63694 21.1204L8.31066 19.7802C8.06659 19.6575 7.82831 19.5226 7.59678 19.3757C7.36524 19.2288 7.1416 19.0707 6.9266 18.9022L6.00124 20.0828ZM14.2455 21.9009C14.561 21.8268 14.872 21.7372 15.1774 21.6325L14.691 20.2135C14.4326 20.3021 14.1695 20.3779 13.9025 20.4406C13.6356 20.5033 13.3662 20.5526 13.0954 20.5883L13.2916 22.0754C13.6117 22.0332 13.9301 21.975 14.2455 21.9009ZM9.4455 21.8142C9.75693 21.8993 10.073 21.9691 10.3925 22.023C10.712 22.077 11.0334 22.1149 11.3555 22.1368L11.4572 20.6402C11.1846 20.6217 10.9126 20.5897 10.6423 20.544C10.3719 20.4983 10.1045 20.4393 9.84098 20.3673L9.4455 21.8142ZM12.4799 8.4093V11.8808H15.9446V13.4093H10.9446V8.4093H12.4799Z" fill="#F19E0C"/>
</svg>
