<svg width="25" height="25" viewBox="0 0 25 25" fill="none" xmlns="http://www.w3.org/2000/svg">
<path fill-rule="evenodd" clip-rule="evenodd" d="M3.8555 3.24829C3.44129 3.24829 3.1055 3.58408 3.1055 3.99829V8.25849H4.6055V4.74829H8.11343V3.24829H3.8555ZM20.3555 3.24829H16.1095V4.74829H19.6055V8.25103H21.1055V3.99829C21.1055 3.58408 20.7697 3.24829 20.3555 3.24829ZM4.6055 19.7483V16.2522H3.1055V20.4983C3.1055 20.9125 3.44129 21.2483 3.8555 21.2483H8.10941V19.7483H4.6055ZM21.1055 20.4983V16.2561H19.6055V19.7483H16.1055V21.2483H20.3555C20.7697 21.2483 21.1055 20.9125 21.1055 20.4983ZM7.00177 8.00171C7.00177 7.5875 7.33756 7.25171 7.75177 7.25171H10.7518C11.166 7.25171 11.5018 7.5875 11.5018 8.00171V11.0017C11.5018 11.4159 11.166 11.7517 10.7518 11.7517H7.75177C7.33756 11.7517 7.00177 11.4159 7.00177 11.0017V8.00171ZM8.50177 8.75171V10.2517H10.0018V8.75171H8.50177ZM13.0018 8.00171C13.0018 7.5875 13.3376 7.25171 13.7518 7.25171H16.7518C17.166 7.25171 17.5018 7.5875 17.5018 8.00171V11.0017C17.5018 11.4159 17.166 11.7517 16.7518 11.7517H13.7518C13.3376 11.7517 13.0018 11.4159 13.0018 11.0017V8.00171ZM14.5018 8.75171V10.2517H16.0018V8.75171H14.5018ZM7.75177 13.2517C7.33756 13.2517 7.00177 13.5875 7.00177 14.0017V17.0017C7.00177 17.4159 7.33756 17.7517 7.75177 17.7517H10.7518C11.166 17.7517 11.5018 17.4159 11.5018 17.0017V14.0017C11.5018 13.5875 11.166 13.2517 10.7518 13.2517H7.75177ZM8.50177 16.2517V14.7517H10.0018V16.2517H8.50177ZM13.0018 14.0017C13.0018 13.5875 13.3376 13.2517 13.7518 13.2517H16.2518C16.666 13.2517 17.0018 13.5875 17.0018 14.0017V16.5017C17.0018 16.9159 16.666 17.2517 16.2518 17.2517H13.7518C13.3376 17.2517 13.0018 16.9159 13.0018 16.5017V14.0017ZM14.5018 14.7517V15.7517H15.5018V14.7517H14.5018Z" fill="#101010"/>
</svg>
