<svg width="24" height="24" viewBox="0 0 24 24" fill="none" xmlns="http://www.w3.org/2000/svg">
<path fill-rule="evenodd" clip-rule="evenodd" d="M20 8.44064L22.6087 5.83193L23.6694 6.89259L19.7803 10.7817C19.4874 11.0746 19.0125 11.0746 18.7196 10.7817L14.8305 6.89259L15.8912 5.83193L18.5 8.44074V0.996109H20V8.44064ZM4.74994 5.00075C4.33573 5.00075 3.99994 5.33653 3.99994 5.75075V20.2507C3.99994 20.665 4.33573 21.0007 4.74994 21.0007H19.2499C19.6642 21.0007 19.9999 20.665 19.9999 20.2507V13.0007H18.4999V19.5007H5.49994V6.50075H13.0137V5.00075H4.74994ZM15.4795 9.15138H10.1621L9.58398 10.2514H11.164C11.6079 10.307 12.0823 10.4932 12.263 11H10.1621L9.58398 12.1H12.224C12.0247 12.5801 11.4675 12.9827 9.91345 12.8461V14.1106L12.5892 17H14.2585L11.3882 13.9917C12.1371 13.9147 13.4887 13.4254 13.7339 12.1H14.9139L15.4795 11H13.6877C13.6336 10.7543 13.5546 10.4907 13.4168 10.2514H14.9139L15.4795 9.15138Z" fill="#101010"/>
</svg>
