<svg width="24" height="24" viewBox="0 0 24 24" fill="none" xmlns="http://www.w3.org/2000/svg">
<path fill-rule="evenodd" clip-rule="evenodd" d="M18.4999 3.54688L15.8912 6.15562L14.8305 5.09496L18.7196 1.20588C19.0125 0.912983 19.4874 0.912983 19.7803 1.20588L23.6694 5.09496L22.6087 6.15562L19.9999 3.54685V11.0017H18.4999V3.54688ZM4.74994 5.00072C4.33573 5.00072 3.99994 5.33651 3.99994 5.75072V20.2507C3.99994 20.6649 4.33573 21.0007 4.74994 21.0007H19.2499C19.6642 21.0007 19.9999 20.6649 19.9999 20.2507V13.0007H18.4999V19.5007H5.49994V6.50072H13.0137V5.00072H4.74994ZM15.4796 9.15136H10.1621L9.584 10.2514H11.1649C11.6086 10.3072 12.0824 10.4934 12.2631 10.9999H10.1621L9.584 12.0999H12.224C12.0247 12.5799 11.4675 12.9825 9.91346 12.8459V14.1105L12.5892 16.9999H14.2585L11.3882 13.9916C12.1371 13.9146 13.4888 13.4252 13.7339 12.0999H14.9139L15.4796 10.9999H13.6877C13.6336 10.7542 13.5546 10.4907 13.4168 10.2514H14.9139L15.4796 9.15136Z" fill="#101010"/>
</svg>
