<svg width="25" height="25" viewBox="0 0 25 25" fill="none" xmlns="http://www.w3.org/2000/svg">
<path fill-rule="evenodd" clip-rule="evenodd" d="M18.6054 3.79529L15.9967 6.40404L14.936 5.34338L18.8251 1.45429C19.118 1.1614 19.5929 1.1614 19.8858 1.45429L23.7748 5.34338L22.7142 6.40404L20.1054 3.79526V11.2501H18.6054V3.79529ZM4.85541 5.24914C4.44119 5.24914 4.10541 5.58492 4.10541 5.99914V20.4991C4.10541 20.9134 4.44119 21.2491 4.85541 21.2491H19.3554C19.7696 21.2491 20.1054 20.9134 20.1054 20.4991V13.2491H18.6054V19.7491H5.60541V6.74914H13.1192V5.24914H4.85541ZM15.585 9.39977H10.2675L9.68947 10.4998H11.2704C11.7141 10.5556 12.1879 10.7418 12.3685 11.2483H10.2675L9.68947 12.3483H12.3295C12.1302 12.8284 11.573 13.231 10.0189 13.0943V14.3589L12.6947 17.2483H14.3639L11.4937 14.24C12.2426 14.163 13.5942 13.6737 13.8394 12.3483H15.0194L15.585 11.2483H13.7932C13.7391 11.0026 13.6601 10.7391 13.5223 10.4998H15.0194L15.585 9.39977Z" fill="#101010"/>
</svg>
