<svg width="25" height="25" viewBox="0 0 25 25" fill="none" xmlns="http://www.w3.org/2000/svg">
<path fill-rule="evenodd" clip-rule="evenodd" d="M15.6358 7.49196L18.6023 4.52547V12.2299H20.1023V4.53384L23.0604 7.49196L24.1211 6.4313L19.8784 2.18866C19.5855 1.89577 19.1107 1.89577 18.8178 2.18866L14.5751 6.4313L15.6358 7.49196ZM4.85547 2.25577C4.44126 2.25577 4.10547 2.59155 4.10547 3.00577V6.49771H2.10547V7.99771H4.10547V11.4977H2.10547V12.9977H4.10547V16.4977H2.10547V17.9977H4.10547V21.6486C4.10547 22.0628 4.44126 22.3986 4.85547 22.3986H19.3555C19.7697 22.3986 20.1055 22.0628 20.1055 21.6486V14.252H18.6055V20.8986H5.60547V3.75577H14.1171V2.25577H4.85547ZM14.1055 10.2355C14.1055 11.3401 13.21 12.2355 12.1055 12.2355C11.0009 12.2355 10.1055 11.3401 10.1055 10.2355C10.1055 9.13093 11.0009 8.2355 12.1055 8.2355C13.21 8.2355 14.1055 9.13093 14.1055 10.2355ZM11.3055 13.2638C9.53816 13.2638 8.10547 14.6965 8.10547 16.4638C8.10547 16.9057 8.46364 17.2638 8.90547 17.2638H15.3055C15.7473 17.2638 16.1055 16.9057 16.1055 16.4638C16.1055 14.6965 14.6728 13.2638 12.9055 13.2638H11.3055Z" fill="#101010"/>
</svg>
