<svg width="24" height="24" viewBox="0 0 24 24" fill="none" xmlns="http://www.w3.org/2000/svg">
<path fill-rule="evenodd" clip-rule="evenodd" d="M15.5103 7.52297L18.4768 4.55648V12.2609H19.9768V4.56484L22.935 7.52297L23.9956 6.46231L19.753 2.21967C19.4601 1.92678 18.9852 1.92678 18.6923 2.21967L14.4497 6.46231L15.5103 7.52297ZM4.73001 2.28677C4.3158 2.28677 3.98001 2.62256 3.98001 3.03677V6.52872H1.98001V8.02872H3.98001V11.5287H1.98001V13.0287H3.98001V16.5287H1.98001V18.0287H3.98001V21.6796C3.98001 22.0938 4.3158 22.4296 4.73001 22.4296H19.23C19.6442 22.4296 19.98 22.0938 19.98 21.6796V14.283H18.48V20.9296H5.48001V3.78677H13.9917V2.28677H4.73001ZM13.98 10.2665C13.98 11.3711 13.0846 12.2665 11.98 12.2665C10.8754 12.2665 9.98001 11.3711 9.98001 10.2665C9.98001 9.16194 10.8754 8.26651 11.98 8.26651C13.0846 8.26651 13.98 9.16194 13.98 10.2665ZM11.18 13.2948C9.4127 13.2948 7.98001 14.7275 7.98001 16.4948C7.98001 16.9367 8.33818 17.2948 8.78001 17.2948H15.18C15.6218 17.2948 15.98 16.9367 15.98 16.4948C15.98 14.7275 14.5473 13.2948 12.78 13.2948H11.18Z" fill="#101010"/>
</svg>
