<svg width="25" height="25" viewBox="0 0 25 25" fill="none" xmlns="http://www.w3.org/2000/svg">
<path fill-rule="evenodd" clip-rule="evenodd" d="M4.8555 2.26611C4.44129 2.26611 4.1055 2.6019 4.1055 3.01611V6.4978H2.10547V7.9978H4.1055V11.4978H2.10547V12.9978H4.1055V16.4978H2.10547V17.9978H4.1055V21.659C4.1055 22.0732 4.44129 22.409 4.8555 22.409H19.3555C19.7697 22.409 20.1055 22.0732 20.1055 21.659V3.01611C20.1055 2.6019 19.7697 2.26611 19.3555 2.26611H4.8555ZM5.6055 20.909V3.76611H18.6055V20.909H5.6055ZM14.5336 7.36953H13.0076C13.1481 7.61348 13.2286 7.8821 13.2837 8.13257H15.1101L14.5336 9.2538H13.3307C13.0808 10.6047 11.7031 11.1034 10.9398 11.1819L13.8655 14.2482H12.164L9.43658 11.3031V10.0141C11.0205 10.1534 11.5885 9.74308 11.7917 9.2538H9.10077L9.69001 8.13257H11.8316C11.6476 7.61642 11.1648 7.42649 10.7127 7.36953H9.10077L9.69001 6.24829H15.1101L14.5336 7.36953ZM9.10547 18.2517H15.1055V16.7517H9.10547V18.2517Z" fill="#101010"/>
</svg>
