<svg width="25" height="25" viewBox="0 0 25 25" fill="none" xmlns="http://www.w3.org/2000/svg">
<path fill-rule="evenodd" clip-rule="evenodd" d="M11.7871 1.4311C12.0134 1.34621 12.2629 1.34621 12.4893 1.4311L20.4893 4.4311C20.8796 4.57747 21.1382 4.95059 21.1382 5.36743V8.24829C21.1382 8.80058 20.6905 9.24829 20.1382 9.24829H19.1382V15.2483H20.1382C20.6905 15.2483 21.1382 15.696 21.1382 16.2483V20.2483C21.1382 20.8006 20.6905 21.2483 20.1382 21.2483H4.13818C3.5859 21.2483 3.13818 20.8006 3.13818 20.2483V16.2483C3.13818 15.696 3.5859 15.2483 4.13818 15.2483H5.13818V9.24829H4.13818C3.5859 9.24829 3.13818 8.80058 3.13818 8.24829V5.36743C3.13818 4.95059 3.39676 4.57747 3.78706 4.4311L11.7871 1.4311ZM7.13818 9.24829V15.2483H11.1382V9.24829H7.13818ZM13.1382 9.24829V15.2483H17.1382V9.24829H13.1382ZM5.13818 6.06043V7.24829H19.1382V6.06043L12.1382 3.43543L5.13818 6.06043ZM5.13818 17.2483V19.2483H19.1382V17.2483H5.13818Z" fill="#101010"/>
</svg>
