<svg width="25" height="25" viewBox="0 0 25 25" fill="none" xmlns="http://www.w3.org/2000/svg">
<path fill-rule="evenodd" clip-rule="evenodd" d="M4.10547 3.24829C3.55318 3.24829 3.10547 3.69601 3.10547 4.24829V20.2483C3.10547 20.8006 3.55318 21.2483 4.10547 21.2483H16.1055V19.2483H5.10547V5.24829H19.1055V10.2638H21.1055V4.24829C21.1055 3.69601 20.6578 3.24829 20.1055 3.24829H4.10547ZM18.744 15.2941C18.744 14.7322 19.2013 14.2793 19.744 14.2793H19.9343C20.3878 14.2793 20.7554 14.6469 20.7554 15.1004C20.7554 15.359 20.6335 15.6026 20.4265 15.7576L19.792 16.2328C19.0357 16.7993 18.5904 17.6891 18.5904 18.634V19.737H20.5904V18.634C20.5904 18.319 20.7389 18.0225 20.991 17.8336L21.6255 17.3584C22.3367 16.8257 22.7554 15.989 22.7554 15.1004C22.7554 13.5423 21.4924 12.2793 19.9343 12.2793H19.744C18.0776 12.2793 16.744 13.6469 16.744 15.2941H18.744ZM20.6768 21.7379C20.6768 22.3455 20.1843 22.8379 19.5768 22.8379C18.9693 22.8379 18.4768 22.3455 18.4768 21.7379C18.4768 21.1304 18.9693 20.6379 19.5768 20.6379C20.1843 20.6379 20.6768 21.1304 20.6768 21.7379ZM14.4875 9.52076H13.2569C13.3664 9.71678 13.4375 9.92803 13.4886 10.1318H15.0533L14.4876 11.4043H13.551C13.2787 12.6875 11.9547 13.1641 11.2164 13.24L14.0867 16.2483H12.1628L9.48706 13.3589V12.0944C10.9803 12.2256 11.5532 11.8591 11.7725 11.4043H9.15771L9.7358 10.1318H11.7874C11.6025 9.75847 11.2385 9.5895 10.8729 9.52076H9.15759L9.73567 8.24829H15.0532L14.4875 9.52076Z" fill="#101010"/>
</svg>
