<svg width="25" height="25" viewBox="0 0 25 25" fill="none" xmlns="http://www.w3.org/2000/svg">
<path fill-rule="evenodd" clip-rule="evenodd" d="M10.451 4.45784C12.1712 4.07992 13.968 4.28021 15.5627 5.02765C16.7591 5.58835 17.7915 6.43346 18.5747 7.48093L16.9966 7.20266L16.6493 9.17228L21.5733 10.0405L22.4416 5.11648L20.472 4.76918L20.1995 6.31423C19.2178 4.99059 17.9187 3.92308 16.4115 3.21668C14.4181 2.28239 12.1721 2.03203 10.0219 2.50443C7.87163 2.97683 5.93739 4.14558 4.51916 5.8294C3.10093 7.51322 2.27799 9.61799 2.17798 11.8172L4.17591 11.9081C4.18157 11.7837 4.19012 11.6597 4.20152 11.5362L4.20872 11.5368C4.23227 11.273 4.26896 11.01 4.31879 10.7488L4.31407 10.7479C4.57243 9.41613 5.1667 8.16518 6.04886 7.11782C7.18344 5.77076 8.73084 4.83576 10.451 4.45784ZM2.23745 13.3456C2.27379 13.6748 2.32653 14.0025 2.39564 14.3276C2.46475 14.6527 2.5499 14.9735 2.65059 15.289L4.55588 14.6808C4.47533 14.4284 4.40721 14.1718 4.35192 13.9117C4.29663 13.6516 4.25444 13.3894 4.22537 13.1261L2.23745 13.3456ZM21.877 14.6793C21.9575 14.3582 22.0221 14.0326 22.0705 13.7038L20.0918 13.4126C20.0531 13.6757 20.0014 13.9361 19.937 14.1931L21.877 14.6793ZM20.733 17.4245C20.9051 17.1401 21.0625 16.8479 21.2049 16.549L19.3993 15.6888C19.2854 15.9279 19.1595 16.1617 19.0218 16.3892C18.8842 16.6167 18.7356 16.8368 18.5766 17.0487L20.1765 18.2488C20.3752 17.9839 20.561 17.7089 20.733 17.4245ZM3.43975 17.1122C3.60081 17.4016 3.77644 17.6832 3.96615 17.9561C4.15586 18.229 4.3587 18.4918 4.57378 18.7435L6.09443 17.4444C5.92237 17.243 5.7601 17.0328 5.60833 16.8145C5.45656 16.5962 5.31606 16.3709 5.18721 16.1394L3.43975 17.1122ZM18.058 20.336C18.3268 20.1406 18.5852 19.9322 18.8323 19.7118L17.5013 18.2191C17.3036 18.3954 17.0969 18.5621 16.8818 18.7184C16.6668 18.8748 16.4445 19.0201 16.2158 19.1538L17.2255 20.8802C17.5113 20.713 17.7892 20.5315 18.058 20.336ZM6.00793 20.1184C6.26853 20.3227 6.5396 20.5143 6.82025 20.6923C7.1009 20.8704 7.38973 21.034 7.68557 21.1827L8.58387 19.3958C8.34719 19.2768 8.11613 19.1459 7.89161 19.0035C7.66709 18.8611 7.45023 18.7078 7.24175 18.5444L6.00793 20.1184ZM14.4636 21.9832C14.7872 21.9072 15.1061 21.8152 15.4194 21.7079L14.7709 19.8159C14.5203 19.9018 14.2651 19.9754 14.0063 20.0362C13.7475 20.097 13.4862 20.1447 13.2236 20.1794L13.4853 22.1622C13.8135 22.1189 14.1401 22.0592 14.4636 21.9832ZM9.54051 21.8943C9.85992 21.9816 10.1841 22.0531 10.5118 22.1085C10.8395 22.1638 11.1691 22.2027 11.4995 22.2251L11.635 20.2297C11.3707 20.2118 11.107 20.1807 10.8448 20.1364C10.5826 20.0921 10.3233 20.0349 10.0678 19.965L9.54051 21.8943ZM13.1609 8.24824V11.2482H16.1609V13.2482H11.1609V8.24824H13.1609Z" fill="#F19E0C"/>
</svg>
