<svg width="24" height="25" viewBox="0 0 24 25" fill="none" xmlns="http://www.w3.org/2000/svg">
<path fill-rule="evenodd" clip-rule="evenodd" d="M10.2901 4.61897C12.0103 4.24106 13.8071 4.44135 15.4019 5.18878C16.5982 5.74948 17.6306 6.59459 18.4138 7.64206L16.8357 7.36379L16.4884 9.33341L21.4125 10.2016L22.2807 5.27761L20.3111 4.93031L20.0386 6.47536C19.0569 5.15172 17.7578 4.08421 16.2506 3.37782C14.2572 2.44353 12.0112 2.19316 9.86097 2.66556C7.71075 3.13796 5.7765 4.30671 4.35827 5.99053C2.94004 7.67435 2.1171 9.77912 2.01709 11.9784L4.01503 12.0692C4.02068 11.9448 4.02923 11.8208 4.04063 11.6973L4.04783 11.698C4.07138 11.4341 4.10807 11.1711 4.1579 10.9099L4.15318 10.909C4.41154 9.57726 5.00581 8.32632 5.88797 7.27895C7.02256 5.9319 8.56995 4.99689 10.2901 4.61897ZM2.07656 13.5068C2.1129 13.8359 2.16564 14.1636 2.23475 14.4887C2.30386 14.8138 2.38901 15.1346 2.4897 15.4501L4.39499 14.8419C4.31444 14.5896 4.24632 14.3329 4.19103 14.0728C4.13574 13.8127 4.09355 13.5506 4.06448 13.2873L2.07656 13.5068ZM20.5721 17.5856C20.7442 17.3013 20.9016 17.009 21.044 16.7101L19.2385 15.8499C19.1245 16.0891 18.9986 16.3229 18.8609 16.5503C18.7233 16.7778 18.5747 16.9979 18.4157 17.2098L20.0156 18.41C20.2143 18.1451 20.4001 17.87 20.5721 17.5856ZM3.27886 17.2734C3.43992 17.5627 3.61555 17.8444 3.80526 18.1172C3.99497 18.3901 4.19781 18.6529 4.41289 18.9047L5.93354 17.6056C5.76148 17.4042 5.59921 17.194 5.44744 16.9756C5.29567 16.7573 5.15517 16.532 5.02632 16.3005L3.27886 17.2734ZM17.8971 20.4972C18.1659 20.3017 18.4243 20.0933 18.6715 19.8729L17.3404 18.3802C17.1427 18.5565 16.936 18.7232 16.7209 18.8796C16.5059 19.0359 16.2836 19.1812 16.0549 19.3149L17.0646 21.0413C17.3504 20.8742 17.6283 20.6926 17.8971 20.4972ZM5.84704 20.2796C6.10764 20.4838 6.37872 20.6754 6.65937 20.8535C6.94002 21.0315 7.22884 21.1951 7.52469 21.3438L8.42298 19.5569C8.1863 19.4379 7.95525 19.307 7.73072 19.1646C7.5062 19.0222 7.28934 18.8689 7.08086 18.7055L5.84704 20.2796ZM14.3027 22.1443C14.6263 22.0683 14.9452 21.9764 15.2585 21.869L14.61 19.9771C14.3594 20.063 14.1043 20.1365 13.8454 20.1973C13.5866 20.2581 13.3253 20.3058 13.0627 20.3405L13.3244 22.3233C13.6526 22.28 13.9792 22.2203 14.3027 22.1443ZM9.37962 22.0554C9.69903 22.1427 10.0232 22.2143 10.3509 22.2696C10.6786 22.325 11.0083 22.3638 11.3386 22.3863L11.4741 20.3909C11.2098 20.3729 10.9461 20.3418 10.6839 20.2975C10.4218 20.2533 10.1624 20.196 9.90692 20.1262L9.37962 22.0554ZM13 8.40937V11.4094H16V13.4094H11V8.40937H13Z" fill="#F19E0C"/>
</svg>
