<svg width="25" height="25" viewBox="0 0 25 25" fill="none" xmlns="http://www.w3.org/2000/svg">
<path fill-rule="evenodd" clip-rule="evenodd" d="M4.10547 3.24829C3.55318 3.24829 3.10547 3.69601 3.10547 4.24829V9.24829H5.10547V5.24829H9.10547V3.24829H4.10547ZM20.1055 3.24829H15.1055V5.24829H19.1055V9.24829H21.1055V4.24829C21.1055 3.69601 20.6578 3.24829 20.1055 3.24829ZM5.10547 19.2483V15.2483H3.10547V20.2483C3.10547 20.8006 3.55318 21.2483 4.10547 21.2483H9.10547V19.2483H5.10547ZM21.1055 20.2483V15.2483H19.1055V19.2483H15.1055V21.2483H20.1055C20.6578 21.2483 21.1055 20.8006 21.1055 20.2483ZM6.85547 7.74829C6.85547 7.33408 7.19126 6.99829 7.60547 6.99829H10.6055C11.0197 6.99829 11.3555 7.33408 11.3555 7.74829V10.7483C11.3555 11.1625 11.0197 11.4983 10.6055 11.4983H7.60547C7.19126 11.4983 6.85547 11.1625 6.85547 10.7483V7.74829ZM12.8555 7.74829C12.8555 7.33408 13.1913 6.99829 13.6055 6.99829H16.6055C17.0197 6.99829 17.3555 7.33408 17.3555 7.74829V10.7483C17.3555 11.1625 17.0197 11.4983 16.6055 11.4983H13.6055C13.1913 11.4983 12.8555 11.1625 12.8555 10.7483V7.74829ZM7.60547 12.9983C7.19126 12.9983 6.85547 13.3341 6.85547 13.7483V16.7483C6.85547 17.1625 7.19126 17.4983 7.60547 17.4983H10.6055C11.0197 17.4983 11.3555 17.1625 11.3555 16.7483V13.7483C11.3555 13.3341 11.0197 12.9983 10.6055 12.9983H7.60547ZM8.35547 8.49829V9.99829H9.85547V8.49829H8.35547ZM12.8555 13.7483C12.8555 13.3341 13.1913 12.9983 13.6055 12.9983H16.1055C16.5197 12.9983 16.8555 13.3341 16.8555 13.7483V16.2483C16.8555 16.6625 16.5197 16.9983 16.1055 16.9983H13.6055C13.1913 16.9983 12.8555 16.6625 12.8555 16.2483V13.7483ZM14.3555 8.49829V9.99829H15.8555V8.49829H14.3555ZM14.3555 14.4983V15.4983H15.3555V14.4983H14.3555ZM8.35547 15.9983V14.4983H9.85547V15.9983H8.35547Z" fill="#101010"/>
</svg>
