<svg width="24" height="24" viewBox="0 0 24 24" fill="none" xmlns="http://www.w3.org/2000/svg">
<path fill-rule="evenodd" clip-rule="evenodd" d="M4 3C3.44772 3 3 3.44772 3 4V9H5V5H9V3H4ZM20 3H15V5H19V9H21V4C21 3.44772 20.5523 3 20 3ZM5 19V15H3V20C3 20.5523 3.44772 21 4 21H9V19H5ZM21 20V15H19V19H15V21H20C20.5523 21 21 20.5523 21 20ZM6.75 7.5C6.75 7.08579 7.08579 6.75 7.5 6.75H10.5C10.9142 6.75 11.25 7.08579 11.25 7.5V10.5C11.25 10.9142 10.9142 11.25 10.5 11.25H7.5C7.08579 11.25 6.75 10.9142 6.75 10.5V7.5ZM12.75 7.5C12.75 7.08579 13.0858 6.75 13.5 6.75H16.5C16.9142 6.75 17.25 7.08579 17.25 7.5V10.5C17.25 10.9142 16.9142 11.25 16.5 11.25H13.5C13.0858 11.25 12.75 10.9142 12.75 10.5V7.5ZM7.5 12.75C7.08579 12.75 6.75 13.0858 6.75 13.5V16.5C6.75 16.9142 7.08579 17.25 7.5 17.25H10.5C10.9142 17.25 11.25 16.9142 11.25 16.5V13.5C11.25 13.0858 10.9142 12.75 10.5 12.75H7.5ZM8.25 8.25V9.75H9.75V8.25H8.25ZM12.75 13.5C12.75 13.0858 13.0858 12.75 13.5 12.75H16C16.4142 12.75 16.75 13.0858 16.75 13.5V16C16.75 16.4142 16.4142 16.75 16 16.75H13.5C13.0858 16.75 12.75 16.4142 12.75 16V13.5ZM14.25 8.25V9.75H15.75V8.25H14.25ZM14.25 14.25V15.25H15.25V14.25H14.25ZM8.25 15.75V14.25H9.75V15.75H8.25Z" fill="#101010"/>
</svg>
