<svg width="24" height="24" viewBox="0 0 24 24" fill="none" xmlns="http://www.w3.org/2000/svg">
<path fill-rule="evenodd" clip-rule="evenodd" d="M20.0005 6.58115L22.5314 4.05022L23.9456 5.46443L19.703 9.70707C19.3125 10.0976 18.6793 10.0976 18.2888 9.70707L14.0461 5.46443L15.4604 4.05022L18.0005 6.59035V1.01521H20.0005V6.58115ZM4.99585 5.00008C4.44356 5.00008 3.99585 5.44779 3.99585 6.00008V20.0001C3.99585 20.5524 4.44356 21.0001 4.99585 21.0001H18.9958C19.5481 21.0001 19.9958 20.5524 19.9958 20.0001V13.0001H17.9958V19.0001H5.99585V7.00008H12.0177V5.00008H4.99585ZM15.4795 9.00008H10.1621L9.58398 10.2725H11.2994C11.701 10.348 12.1007 10.5445 12.2632 11.0001H10.1621L9.58398 12.2725H12.1333C11.873 12.6709 11.2769 12.966 9.91357 12.8461V14.1107L12.5893 17.0001H14.5131L11.6429 13.9918C12.3584 13.9182 13.624 13.4683 13.9493 12.2725H14.9139L15.4795 11.0001H13.9424C13.8899 10.7615 13.8139 10.5062 13.6834 10.2725H14.9139L15.4795 9.00008Z" fill="#101010"/>
</svg>
