<svg width="25" height="25" viewBox="0 0 25 25" fill="none" xmlns="http://www.w3.org/2000/svg">
<path fill-rule="evenodd" clip-rule="evenodd" d="M20.106 6.82937L22.6369 4.29843L24.0511 5.71265L19.8085 9.95529C19.4179 10.3458 18.7848 10.3458 18.3943 9.95529L14.1516 5.71265L15.5658 4.29843L18.106 6.83857V1.26343H20.106V6.82937ZM5.10132 5.24829C4.54903 5.24829 4.10132 5.69601 4.10132 6.24829V20.2483C4.10132 20.8006 4.54903 21.2483 5.10132 21.2483H19.1013C19.6536 21.2483 20.1013 20.8006 20.1013 20.2483V13.2483H18.1013V19.2483H6.10132V7.24829H12.1231V5.24829H5.10132ZM15.585 9.24829H10.2675L9.68945 10.5208H11.4049C11.8065 10.5963 12.2062 10.7928 12.3686 11.2483H10.2675L9.68945 12.5208H12.2388C11.9784 12.9191 11.3823 13.2142 10.019 13.0943V14.3589L12.6948 17.2483H14.6186L11.7483 14.24C12.4638 14.1664 13.7295 13.7165 14.0548 12.5208H15.0194L15.585 11.2483H14.0479C13.9954 11.0097 13.9193 10.7544 13.7889 10.5208H15.0194L15.585 9.24829Z" fill="#101010"/>
</svg>
