<svg width="25" height="25" viewBox="0 0 25 25" fill="none" xmlns="http://www.w3.org/2000/svg">
<path fill-rule="evenodd" clip-rule="evenodd" d="M12.1438 4.24829C11.0392 4.24829 10.1438 5.14372 10.1438 6.24829C10.1438 7.35286 11.0392 8.24829 12.1438 8.24829C13.2484 8.24829 14.1438 7.35286 14.1438 6.24829C14.1438 5.14372 13.2484 4.24829 12.1438 4.24829ZM8.1438 6.24829C8.1438 4.03915 9.93466 2.24829 12.1438 2.24829C14.3529 2.24829 16.1438 4.03915 16.1438 6.24829C16.1438 8.45743 14.3529 10.2483 12.1438 10.2483C9.93466 10.2483 8.1438 8.45743 8.1438 6.24829ZM4.88441 15.1112L2.76627 16.1443L1.88953 14.3467L6.3835 12.1548C6.87989 11.9127 7.47856 12.1189 7.72066 12.6152L9.91252 17.1092L8.11493 17.986L6.92978 15.556C6.43224 16.3332 6.1438 17.2571 6.1438 18.2483C6.1438 19.3529 7.03923 20.2483 8.1438 20.2483H16.1438C17.2484 20.2483 18.1438 19.3529 18.1438 18.2483C18.1438 15.4869 15.9052 13.2483 13.1438 13.2483H11.1438C10.8524 13.2483 10.5669 13.2732 10.2892 13.321L9.38666 11.4707C9.94814 11.3255 10.537 11.2483 11.1438 11.2483H13.1438C17.0098 11.2483 20.1438 14.3823 20.1438 18.2483C20.1438 20.4574 18.3529 22.2483 16.1438 22.2483H8.1438C5.93466 22.2483 4.1438 20.4574 4.1438 18.2483C4.1438 17.1204 4.41055 16.0548 4.88441 15.1112Z" fill="#101010"/>
</svg>
