<svg width="25" height="25" viewBox="0 0 25 25" fill="none" xmlns="http://www.w3.org/2000/svg">
<path fill-rule="evenodd" clip-rule="evenodd" d="M5.10547 2.2478C4.55318 2.2478 4.10547 2.69552 4.10547 3.2478V6.2478H2.14673V8.2478H4.10547V11.2478H2.14673V13.2478H4.10547V16.2478H2.14673V18.2478H4.10547V21.2478C4.10547 21.8001 4.55318 22.2478 5.10547 22.2478H19.1055C19.6578 22.2478 20.1055 21.8001 20.1055 21.2478V14.2478H18.1055V20.2478H6.10547V4.2478H14.1075V2.2478H5.10547ZM18.1055 12.2482V5.66266L15.57 8.19815L14.1558 6.78394L18.3984 2.54129C18.7889 2.15077 19.4221 2.15077 19.8126 2.54129L24.0553 6.78394L22.641 8.19815L20.1055 5.66258V12.2482H18.1055ZM14.1467 11.2356C14.1467 12.3402 13.2513 13.2356 12.1467 13.2356C11.0422 13.2356 10.1467 12.3402 10.1467 11.2356C10.1467 10.131 11.0422 9.2356 12.1467 9.2356C13.2513 9.2356 14.1467 10.131 14.1467 11.2356ZM11.3467 14.2639C9.57942 14.2639 8.14673 15.6966 8.14673 17.4639C8.14673 17.9057 8.5049 18.2639 8.94673 18.2639H15.3467C15.7886 18.2639 16.1467 17.9057 16.1467 17.4639C16.1467 15.6966 14.714 14.2639 12.9467 14.2639H11.3467Z" fill="#101010"/>
</svg>
