<svg width="25" height="25" viewBox="0 0 25 25" fill="none" xmlns="http://www.w3.org/2000/svg">
<path fill-rule="evenodd" clip-rule="evenodd" d="M5.10547 2.2478C4.55318 2.2478 4.10547 2.69552 4.10547 3.2478V6.2478H2.10547V8.2478H4.10547V11.2478H2.10547V13.2478H4.10547V16.2478H2.10547V18.2478H4.10547V21.2478C4.10547 21.8001 4.55318 22.2478 5.10547 22.2478H19.1055C19.6578 22.2478 20.1055 21.8001 20.1055 21.2478V3.2478C20.1055 2.69552 19.6578 2.2478 19.1055 2.2478H5.10547ZM6.10547 20.2478V4.2478H18.1055V20.2478H6.10547ZM13.2098 7.52075H14.4404L15.006 6.24829H9.68855L9.11047 7.52075H10.8258C11.1914 7.5895 11.5555 7.75854 11.7404 8.13208H9.68867L9.1106 9.40454H11.7253C11.5058 9.85919 10.9329 10.2256 9.43994 10.0943V11.3589L12.1157 14.2483H14.0395L11.1692 11.24C11.9075 11.1641 13.2313 10.6875 13.5038 9.40454H14.4405L15.0062 8.13208H13.4415C13.3904 7.92819 13.3193 7.71685 13.2098 7.52075ZM9.10547 18.2478H15.1055V16.2478H9.10547V18.2478Z" fill="#101010"/>
</svg>
