<svg width="25" height="24" viewBox="0 0 25 24" fill="none" xmlns="http://www.w3.org/2000/svg">
<circle cx="12.053" cy="12" r="10" fill="#FD5154"/>
<path fill-rule="evenodd" clip-rule="evenodd" d="M8.32147 9.34915C8.02765 9.05719 8.02614 8.58232 8.3181 8.2885C8.61006 7.99467 9.08493 7.99317 9.37875 8.28513L12.0531 10.9426L14.7273 8.28537C15.0211 7.99341 15.4959 7.99492 15.7879 8.28874C16.0799 8.58256 16.0784 9.05743 15.7845 9.3494L13.1172 11.9999L15.7846 14.6504C16.0784 14.9424 16.0799 15.4172 15.788 15.7111C15.496 16.0049 15.0211 16.0064 14.7273 15.7144L12.0531 13.0572L9.37868 15.7147C9.08486 16.0066 8.60999 16.0051 8.31803 15.7113C8.02607 15.4175 8.02758 14.9426 8.3214 14.6506L10.9891 11.9999L8.32147 9.34915Z" fill="white"/>
</svg>
