<svg width="25" height="25" viewBox="0 0 25 25" fill="none" xmlns="http://www.w3.org/2000/svg">
<path fill-rule="evenodd" clip-rule="evenodd" d="M12.1055 4.55811C10.8628 4.55811 9.85547 5.56546 9.85547 6.80811C9.85547 8.05075 10.8628 9.05811 12.1055 9.05811C13.3481 9.05811 14.3555 8.05075 14.3555 6.80811C14.3555 5.56546 13.3481 4.55811 12.1055 4.55811ZM8.35547 6.80811C8.35547 4.73704 10.0344 3.05811 12.1055 3.05811C14.1765 3.05811 15.8555 4.73704 15.8555 6.80811C15.8555 8.87917 14.1765 10.5581 12.1055 10.5581C10.0344 10.5581 8.35547 8.87917 8.35547 6.80811ZM1.81388 15.9195C1.65094 15.5387 1.82757 15.0979 2.20839 14.935L6.34561 13.1648C6.72643 13.0019 7.16723 13.1785 7.33017 13.5593L9.10031 17.6965C9.26325 18.0774 9.08662 18.5182 8.7058 18.6811C8.32498 18.844 7.88418 18.6674 7.72124 18.2866L6.65061 15.7843L6.30328 16.5105C5.97582 17.1952 5.74448 17.9218 5.61581 18.6698C5.37951 20.0434 6.43737 21.2988 7.8312 21.2988H16.4117C17.839 21.2988 18.9056 19.987 18.6144 18.5898L18.3884 17.5055C17.8811 15.0712 15.7355 13.3267 13.2489 13.3267H9.86231C9.44809 13.3267 9.11231 12.9909 9.11231 12.5767C9.11231 12.1624 9.44809 11.8267 9.86231 11.8267H13.2489C16.446 11.8267 19.2046 14.0696 19.8569 17.1995L20.0828 18.2837C20.5682 20.6125 18.7905 22.7988 16.4117 22.7988H7.8312C5.5073 22.7988 3.74354 20.7057 4.13752 18.4155C4.28961 17.5314 4.56304 16.6726 4.95009 15.8633L5.23264 15.2725L2.79844 16.314C2.41762 16.477 1.97681 16.3003 1.81388 15.9195Z" fill="#101010"/>
</svg>
