<svg width="24" height="24" viewBox="0 0 24 24" fill="none" xmlns="http://www.w3.org/2000/svg">
<path fill-rule="evenodd" clip-rule="evenodd" d="M5.5 4.75757C5.5 4.06721 6.05964 3.50757 6.75 3.50757H13.2704C13.6846 3.50757 14.0204 3.17178 14.0204 2.75757C14.0204 2.34335 13.6846 2.00757 13.2704 2.00757H6.75C5.23121 2.00757 4 3.23878 4 4.75757V6.25H2.74945C2.33524 6.25 1.99945 6.58579 1.99945 7C1.99945 7.41421 2.33524 7.75 2.74945 7.75H4V11.25H2.74945C2.33524 11.25 1.99945 11.5858 1.99945 12C1.99945 12.4142 2.33524 12.75 2.74945 12.75H4V16.25H2.74945C2.33524 16.25 1.99945 16.5858 1.99945 17C1.99945 17.4142 2.33524 17.75 2.74945 17.75H4V19.4004C4 20.9192 5.23121 22.1504 6.75 22.1504H17.25C18.7688 22.1504 20 20.9192 20 19.4004V14.7463C20 14.3321 19.6642 13.9963 19.25 13.9963C18.8358 13.9963 18.5 14.3321 18.5 14.7463V19.4004C18.5 20.0908 17.9404 20.6504 17.25 20.6504H6.75C6.05964 20.6504 5.5 20.0908 5.5 19.4004V4.75757ZM18.4968 11.2317V4.57148L15.8912 7.17706C15.5983 7.46995 15.1235 7.46995 14.8306 7.17706C14.5377 6.88417 14.5377 6.40929 14.8306 6.1164L18.7197 2.22731C19.0126 1.93442 19.4874 1.93442 19.7803 2.22731L23.6694 6.1164C23.9623 6.40929 23.9623 6.88417 23.6694 7.17706C23.3765 7.46995 22.9016 7.46995 22.6088 7.17706L19.9968 4.56512V11.2317C19.9968 11.6459 19.661 11.9817 19.2468 11.9817C18.8326 11.9817 18.4968 11.6459 18.4968 11.2317ZM14 9.9873C14 11.0919 13.1046 11.9873 12 11.9873C10.8954 11.9873 10 11.0919 10 9.9873C10 8.88274 10.8954 7.9873 12 7.9873C13.1046 7.9873 14 8.88274 14 9.9873ZM11.2 13.0156C9.43269 13.0156 8 14.4483 8 16.2156C8 16.6575 8.35817 17.0156 8.8 17.0156H15.2C15.6418 17.0156 16 16.6575 16 16.2156C16 14.4483 14.5673 13.0156 12.8 13.0156H11.2Z" fill="#101010"/>
</svg>
