<svg width="25" height="25" viewBox="0 0 25 25" fill="none" xmlns="http://www.w3.org/2000/svg">
<path fill-rule="evenodd" clip-rule="evenodd" d="M4.1055 5.57592C4.1055 4.05714 5.33672 2.82593 6.8555 2.82593H17.3555C18.8743 2.82593 20.1055 4.05714 20.1055 5.57593V20.2188C20.1055 21.7376 18.8743 22.9688 17.3555 22.9688H6.8555C5.33672 22.9688 4.1055 21.7376 4.1055 20.2188V18.5581H2.85544C2.44122 18.5581 2.10544 18.2223 2.10544 17.8081C2.10544 17.3939 2.44122 17.0581 2.85544 17.0581H4.1055V13.5581H2.85544C2.44122 13.5581 2.10544 13.2223 2.10544 12.8081C2.10544 12.3939 2.44122 12.0581 2.85544 12.0581H4.1055V8.55811H2.85544C2.44122 8.55811 2.10544 8.22232 2.10544 7.80811C2.10544 7.39389 2.44122 7.05811 2.85544 7.05811H4.1055V5.57592ZM6.8555 4.32593C6.16514 4.32593 5.6055 4.88557 5.6055 5.57592V20.2188C5.6055 20.9091 6.16514 21.4688 6.8555 21.4688H17.3555C18.0459 21.4688 18.6055 20.9091 18.6055 20.2188V5.57593C18.6055 4.88557 18.0459 4.32593 17.3555 4.32593H6.8555ZM12.9973 7.88003H14.3623C14.5603 7.88003 14.7431 7.77357 14.8407 7.60129C15.0486 7.23464 14.7838 6.78003 14.3623 6.78003H9.76069C9.5645 6.78003 9.38316 6.88454 9.2848 7.0543C9.07235 7.42096 9.33693 7.88003 9.76069 7.88003H10.9539C11.3559 7.99951 11.7502 8.26006 11.9105 8.78003H9.85336C9.65585 8.78003 9.47351 8.88593 9.37564 9.05749C9.16646 9.42415 9.43123 9.88003 9.85336 9.88003H11.8757C11.6924 10.3896 11.2013 10.8371 9.91963 10.688C9.72823 10.6166 9.50445 10.6551 9.34689 10.8058C9.12734 11.0157 9.11952 11.3638 9.32943 11.5834L9.53735 11.8013L9.53546 11.807L10.0262 12.3138L12.2722 14.668C12.4821 14.8875 12.8303 14.8954 13.0498 14.6854C13.2027 14.5393 13.2529 14.3261 13.1985 14.136L13.2066 14.1305L13.1922 14.1154C13.1673 14.0401 13.1258 13.969 13.0673 13.9078L11.0549 11.7985C11.8217 11.6973 13.1018 11.1896 13.319 9.88003H14.3694C14.5688 9.88003 14.7525 9.77217 14.8497 9.59812C15.0543 9.23151 14.7893 8.78003 14.3694 8.78003H13.2736C13.2273 8.48979 13.158 8.16208 12.9973 7.88003ZM9.85545 17.3115C9.44124 17.3115 9.10545 17.6473 9.10545 18.0615C9.10545 18.4757 9.44124 18.8115 9.85545 18.8115H14.3555C14.7697 18.8115 15.1055 18.4757 15.1055 18.0615C15.1055 17.6473 14.7697 17.3115 14.3555 17.3115H9.85545Z" fill="#101010"/>
</svg>
