<svg width="24" height="24" viewBox="0 0 24 24" fill="none" xmlns="http://www.w3.org/2000/svg">
<path fill-rule="evenodd" clip-rule="evenodd" d="M4.00003 4.76779C4.00003 3.249 5.23125 2.01779 6.75003 2.01779H17.25C18.7688 2.01779 20 3.24901 20 4.76779V19.4106C20 20.9294 18.7688 22.1606 17.25 22.1606H6.75003C5.23125 22.1606 4.00003 20.9294 4.00003 19.4106V17.75H2.74997C2.33576 17.75 1.99997 17.4142 1.99997 17C1.99997 16.5858 2.33576 16.25 2.74997 16.25H4.00003V12.75H2.74997C2.33576 12.75 1.99997 12.4142 1.99997 12C1.99997 11.5858 2.33576 11.25 2.74997 11.25H4.00003V7.74997H2.74997C2.33576 7.74997 1.99997 7.41418 1.99997 6.99997C1.99997 6.58576 2.33576 6.24997 2.74997 6.24997H4.00003V4.76779ZM6.75003 3.51779C6.05967 3.51779 5.50003 4.07743 5.50003 4.76779V19.4106C5.50003 20.101 6.05967 20.6606 6.75003 20.6606H17.25C17.9404 20.6606 18.5 20.101 18.5 19.4106V4.76779C18.5 4.07744 17.9404 3.51779 17.25 3.51779H6.75003ZM12.8918 7.07189H14.2568C14.4549 7.07189 14.6376 6.96543 14.7353 6.79316C14.9432 6.42651 14.6783 5.97189 14.2568 5.97189H9.65522C9.45903 5.97189 9.27769 6.0764 9.17933 6.24616C8.96689 6.61283 9.23146 7.07189 9.65522 7.07189H10.8484C11.2505 7.19137 11.6448 7.45192 11.805 7.97189H9.74789C9.55038 7.97189 9.36804 8.0778 9.27017 8.24936C9.06099 8.61601 9.32576 9.07189 9.74789 9.07189H11.7702C11.5869 9.5815 11.0958 10.029 9.81416 9.8799C9.62276 9.8085 9.39898 9.84701 9.24143 9.99764C9.02187 10.2076 9.01405 10.5557 9.22396 10.7753L9.43188 10.9932L9.42999 10.9989L9.92075 11.5056L12.1667 13.8598C12.3767 14.0794 12.7248 14.0872 12.9444 13.8773C13.0972 13.7312 13.1475 13.518 13.093 13.3279L13.1011 13.3224L13.0867 13.3073C13.0619 13.232 13.0203 13.1608 12.9618 13.0997L10.9494 10.9903C11.7162 10.8892 12.9963 10.3815 13.2135 9.07189H14.264C14.4633 9.07189 14.6471 8.96404 14.7442 8.78998C14.9489 8.42337 14.6838 7.97189 14.264 7.97189H13.1681C13.1218 7.68165 13.0525 7.35394 12.8918 7.07189ZM9.74998 16.5034C9.33577 16.5034 8.99998 16.8392 8.99998 17.2534C8.99998 17.6676 9.33577 18.0034 9.74998 18.0034H14.25C14.6642 18.0034 15 17.6676 15 17.2534C15 16.8392 14.6642 16.5034 14.25 16.5034H9.74998Z" fill="#101010"/>
</svg>
