<svg width="25" height="25" viewBox="0 0 25 25" fill="none" xmlns="http://www.w3.org/2000/svg">
<circle cx="12.1584" cy="12.2483" r="10" fill="#FD5154"/>
<path fill-rule="evenodd" clip-rule="evenodd" d="M8.25075 9.77478C7.85898 9.3855 7.85697 8.75234 8.24625 8.36057C8.63553 7.96881 9.2687 7.9668 9.66046 8.35608L12.1588 10.8386L14.6566 8.35657C15.0483 7.96729 15.6815 7.9693 16.0708 8.36106C16.4601 8.75282 16.458 9.38599 16.0663 9.77527L13.5775 12.2483L16.0663 14.7214C16.4581 15.1106 16.4601 15.7438 16.0708 16.1356C15.6815 16.5273 15.0484 16.5293 14.6566 16.1401L12.1588 13.658L9.66042 16.1405C9.26866 16.5298 8.6355 16.5278 8.24622 16.1361C7.85693 15.7443 7.85895 15.1111 8.25071 14.7218L10.74 12.2483L8.25075 9.77478Z" fill="white"/>
</svg>
