<svg width="24" height="25" viewBox="0 0 24 25" fill="none" xmlns="http://www.w3.org/2000/svg">
<path fill-rule="evenodd" clip-rule="evenodd" d="M10.2902 4.61897C12.0104 4.24106 13.8072 4.44135 15.4019 5.18878C16.5983 5.74948 17.6307 6.59459 18.4139 7.64206L16.8358 7.3638C16.2919 7.26789 15.7732 7.63106 15.6773 8.17496C15.5814 8.71885 15.9446 9.23751 16.4885 9.33341L20.4277 10.028C20.9716 10.1239 21.4903 9.76074 21.5862 9.21685L22.2808 5.27762C22.3767 4.73372 22.0135 4.21506 21.4696 4.11916C20.9257 4.02326 20.4071 4.38642 20.3111 4.93032L20.0387 6.47536C19.057 5.15172 17.7579 4.08421 16.2507 3.37782C14.2573 2.44353 12.0113 2.19316 9.86105 2.66556C7.71082 3.13796 5.77658 4.30671 4.35835 5.99053C2.94012 7.67435 2.11717 9.77912 2.01716 11.9784C1.99208 12.5301 2.41899 12.9977 2.97071 13.0227C3.52242 13.0478 3.99001 12.6209 4.0151 12.0692C4.0171 12.0252 4.01946 11.9813 4.02218 11.9375C4.02886 11.912 4.03325 11.8856 4.03512 11.8585C4.03694 11.8322 4.03631 11.8063 4.03343 11.7809C4.16865 10.1264 4.8156 8.55223 5.88805 7.27895C7.02263 5.9319 8.57002 4.99689 10.2902 4.61897ZM3.15629 14.0197C2.61562 14.118 2.25213 14.6379 2.40362 15.1661C2.55511 15.6944 3.13891 15.9426 3.64948 15.7394L3.84365 15.6621C4.25211 15.4996 4.44731 15.0374 4.32612 14.6148C4.20493 14.1922 3.79444 13.9037 3.3619 13.9823L3.15629 14.0197ZM20.9124 16.9763C21.1633 16.4875 20.9075 15.907 20.3961 15.7058L20.2016 15.6293C19.7925 15.4684 19.3339 15.6719 19.1331 16.063C18.9324 16.4541 19.0343 16.9453 19.4035 17.1839L19.579 17.2974C20.0406 17.5957 20.6614 17.4652 20.9124 16.9763ZM4.47292 17.3277C4.0126 17.6279 3.87904 18.248 4.22342 18.6763C4.5678 19.1045 5.2022 19.1071 5.5941 18.7219L5.74314 18.5754C6.05666 18.2672 6.05747 17.7655 5.78196 17.4229C5.50646 17.0803 5.01624 16.9735 4.64798 17.2136L4.47292 17.3277ZM18.447 20.0674C18.8678 19.714 18.8569 19.0797 18.4635 18.696L18.3138 18.5501C17.9991 18.2432 17.4975 18.2531 17.1608 18.5358C16.8241 18.8185 16.7277 19.3109 16.9756 19.674L17.0934 19.8465C17.4032 20.3004 18.0261 20.4208 18.447 20.0674ZM6.96877 19.8669C6.66075 20.322 6.778 20.9454 7.26144 21.2067C7.74488 21.468 8.33069 21.2245 8.54266 20.7175L8.62327 20.5247C8.79284 20.1191 8.59913 19.6563 8.21238 19.4473C7.82562 19.2382 7.33231 19.3297 7.0859 19.6938L6.96877 19.8669ZM14.9762 21.9613C15.5011 21.7986 15.7369 21.2097 15.5229 20.7035L15.4416 20.511C15.2704 20.1061 14.8041 19.9208 14.3842 20.0509C13.9643 20.181 13.6846 20.5975 13.7723 21.0283L13.8141 21.2331C13.9238 21.7715 14.4513 22.1239 14.9762 21.9613ZM10.2537 21.2402C10.1461 21.7791 10.4958 22.3084 11.0427 22.3619C11.5897 22.4154 12.0353 21.9639 12.0342 21.4144L12.0338 21.2054C12.0329 20.7658 11.675 20.4142 11.2374 20.3714C10.7999 20.3286 10.3806 20.6042 10.2946 21.0353L10.2537 21.2402ZM13 9.40937V11.4094H15C15.5523 11.4094 16 11.8571 16 12.4094C16 12.9617 15.5523 13.4094 15 13.4094H12C11.4478 13.4094 11 12.9617 11 12.4094V9.40937C11 8.85708 11.4478 8.40937 12 8.40937C12.5523 8.40937 13 8.85708 13 9.40937Z" fill="#F19E0C"/>
</svg>
