<svg width="24" height="24" viewBox="0 0 24 24" fill="none" xmlns="http://www.w3.org/2000/svg">
<path fill-rule="evenodd" clip-rule="evenodd" d="M10.2494 4.21977C11.9696 3.84185 13.7664 4.04215 15.3612 4.78958C16.5575 5.35028 17.5899 6.19539 18.3731 7.24286L16.795 6.9646C16.2511 6.86869 15.7325 7.23186 15.6366 7.77576C15.5407 8.31965 15.9038 8.83831 16.4477 8.93421L20.3869 9.62881C20.9308 9.72471 21.4495 9.36154 21.5454 8.81765L22.24 4.87842C22.3359 4.33452 21.9727 3.81586 21.4288 3.71996C20.8849 3.62406 20.3663 3.98722 20.2704 4.53112L19.9979 6.07616C19.0162 4.75252 17.7171 3.68501 16.2099 2.97862C14.2165 2.04433 11.9705 1.79396 9.82027 2.26636C7.67005 2.73876 5.73581 3.90751 4.31758 5.59133C2.89935 7.27515 2.0764 9.37992 1.97639 11.5792C1.9513 12.1309 2.37822 12.5985 2.92993 12.6235C3.48165 12.6486 3.94924 12.2217 3.97433 11.67C4.05434 9.91062 4.71269 8.22681 5.84728 6.87975C6.98186 5.5327 8.52925 4.59769 10.2494 4.21977ZM12.9593 11.0102V9.01017C12.9593 8.45788 12.5115 8.01017 11.9593 8.01017C11.407 8.01017 10.9593 8.45788 10.9593 9.01017V12.0102C10.9593 12.5625 11.407 13.0102 11.9593 13.0102H14.9593C15.5115 13.0102 15.9593 12.5625 15.9593 12.0102C15.9593 11.4579 15.5115 11.0102 14.9593 11.0102H12.9593ZM3.34637 15.5265C3.89866 15.5265 4.34637 15.0788 4.34637 14.5265C4.34637 13.9743 3.89866 13.5265 3.34637 13.5265C2.79409 13.5265 2.34637 13.9743 2.34637 14.5265C2.34637 15.0788 2.79409 15.5265 3.34637 15.5265ZM5.95926 17.6555C5.95926 18.2077 5.51154 18.6555 4.95926 18.6555C4.40697 18.6555 3.95926 18.2077 3.95926 17.6555C3.95926 17.1032 4.40697 16.6555 4.95926 16.6555C5.51154 16.6555 5.95926 17.1032 5.95926 17.6555ZM7.7074 20.9235C8.25968 20.9235 8.7074 20.4758 8.7074 19.9235C8.7074 19.3712 8.25968 18.9235 7.7074 18.9235C7.15511 18.9235 6.7074 19.3712 6.7074 19.9235C6.7074 20.4758 7.15511 20.9235 7.7074 20.9235ZM12.1153 20.9666C12.1153 21.5189 11.6676 21.9666 11.1153 21.9666C10.563 21.9666 10.1153 21.5189 10.1153 20.9666C10.1153 20.4143 10.563 19.9666 11.1153 19.9666C11.6676 19.9666 12.1153 20.4143 12.1153 20.9666ZM14.6436 21.6035C15.1959 21.6035 15.6436 21.1558 15.6436 20.6035C15.6436 20.0512 15.1959 19.6035 14.6436 19.6035C14.0913 19.6035 13.6436 20.0512 13.6436 20.6035C13.6436 21.1558 14.0913 21.6035 14.6436 21.6035ZM18.7615 18.9029C18.7615 19.4551 18.3138 19.9029 17.7615 19.9029C17.2092 19.9029 16.7615 19.4551 16.7615 18.9029C16.7615 18.3506 17.2092 17.9029 17.7615 17.9029C18.3138 17.9029 18.7615 18.3506 18.7615 18.9029ZM19.9913 17.102C20.5436 17.102 20.9913 16.6543 20.9913 16.102C20.9913 15.5498 20.5436 15.102 19.9913 15.102C19.439 15.102 18.9913 15.5498 18.9913 16.102C18.9913 16.6543 19.439 17.102 19.9913 17.102Z" fill="#F19E0C"/>
</svg>
