<svg width="24" height="24" viewBox="0 0 24 24" fill="none" xmlns="http://www.w3.org/2000/svg">
<path fill-rule="evenodd" clip-rule="evenodd" d="M14.3997 4.91825C14.0092 5.30877 14.0092 5.94194 14.3997 6.33246C14.7903 6.72299 15.4234 6.72299 15.8139 6.33246L17.9958 4.15056V8.9959C17.9958 9.54818 18.4436 9.9959 18.9958 9.9959C19.5481 9.9959 19.9958 9.54818 19.9958 8.9959V4.1504L22.1779 6.33246C22.5684 6.72299 23.2016 6.72299 23.5921 6.33246C23.9826 5.94194 23.9826 5.30877 23.5921 4.91825L19.703 1.02916C19.3125 0.638636 18.6793 0.638636 18.2888 1.02916L14.3997 4.91825ZM3.99585 6.00011C3.99585 5.44783 4.44356 5.00011 4.99585 5.00011H11.0034C11.5557 5.00011 12.0034 5.44783 12.0034 6.00011C12.0034 6.55239 11.5557 7.00011 11.0034 7.00011H5.99585V19.0001H17.9958V14.0001C17.9958 13.4478 18.4436 13.0001 18.9958 13.0001C19.5481 13.0001 19.9958 13.4478 19.9958 14.0001V20.0001C19.9958 20.5524 19.5481 21.0001 18.9958 21.0001H4.99585C4.44356 21.0001 3.99585 20.5524 3.99585 20.0001V6.00011ZM12.9932 10.2723H14.2254C14.4682 10.2723 14.6898 10.1341 14.7967 9.9161C15.0038 9.49339 14.6961 8.99987 14.2254 8.99987H9.77597C9.53514 8.99987 9.31496 9.13584 9.20711 9.35117C8.99521 9.77422 9.30281 10.2723 9.77597 10.2723H10.6093C11.0108 10.3478 11.4105 10.5443 11.573 10.9999H9.86897C9.62673 10.9999 9.40551 11.1374 9.29836 11.3547C9.08984 11.7775 9.39753 12.2723 9.86897 12.2723H11.4781C11.2635 12.6889 10.774 13.0035 9.66147 12.871L9.65939 12.8768C9.47394 12.8779 9.28855 12.9473 9.14425 13.0859C8.84553 13.3729 8.83599 13.8477 9.12294 14.1464L12.0431 17.1863C12.3301 17.4851 12.8048 17.4946 13.1036 17.2076C13.4023 16.9207 13.4118 16.4459 13.1249 16.1472L11.0436 13.9806C11.7706 13.8798 12.9472 13.4189 13.2591 12.2723H14.2323C14.4765 12.2723 14.6992 12.1325 14.8053 11.9126C15.0092 11.4902 14.7014 10.9999 14.2323 10.9999H13.2522C13.1997 10.7613 13.1237 10.506 12.9932 10.2723Z" fill="#101010"/>
</svg>
