<svg width="25" height="25" viewBox="0 0 25 25" fill="none" xmlns="http://www.w3.org/2000/svg">
<path fill-rule="evenodd" clip-rule="evenodd" d="M4.10547 3.2478C4.10547 2.69552 4.55318 2.2478 5.10547 2.2478H19.1055C19.6578 2.2478 20.1055 2.69552 20.1055 3.2478V21.2478C20.1055 21.8001 19.6578 22.2478 19.1055 22.2478H5.10547C4.55318 22.2478 4.10547 21.8001 4.10547 21.2478V18.2478H3.10547C2.55318 18.2478 2.10547 17.8001 2.10547 17.2478C2.10547 16.6955 2.55318 16.2478 3.10547 16.2478H4.10547V13.2478H3.10547C2.55318 13.2478 2.10547 12.8001 2.10547 12.2478C2.10547 11.6955 2.55318 11.2478 3.10547 11.2478H4.10547V8.2478H3.10547C2.55318 8.2478 2.10547 7.80009 2.10547 7.2478C2.10547 6.69552 2.55318 6.2478 3.10547 6.2478H4.10547V3.2478ZM6.10547 20.2478V17.2478V12.2478V7.2478V4.2478H18.1055V20.2478H6.10547ZM13.103 7.56958H14.3351C14.5779 7.56958 14.7995 7.43138 14.9064 7.21335C15.1136 6.79064 14.8059 6.29712 14.3351 6.29712H9.88571C9.64488 6.29712 9.4247 6.43309 9.31685 6.64842C9.10495 7.07147 9.41255 7.56958 9.88571 7.56958H10.719C11.1206 7.64509 11.5203 7.84158 11.6827 8.29712H9.97871C9.73647 8.29712 9.51525 8.43468 9.4081 8.65194C9.19958 9.07476 9.50727 9.56958 9.97871 9.56958H11.5879C11.3732 9.98614 10.8838 10.3007 9.77121 10.1682L9.76913 10.1741C9.58368 10.1751 9.3983 10.2446 9.25399 10.3832C8.95527 10.6701 8.94573 11.1449 9.23268 11.4436L12.1529 14.4836C12.4398 14.7823 12.9146 14.7918 13.2133 14.5049C13.512 14.2179 13.5216 13.7432 13.2346 13.4444L11.1533 11.2778C11.8804 11.177 13.0569 10.7162 13.3689 9.56958H14.3421C14.5863 9.56958 14.8089 9.4298 14.9151 9.20986C15.1189 8.78741 14.8111 8.29712 14.3421 8.29712H13.362C13.3095 8.05857 13.2334 7.80325 13.103 7.56958ZM10.1055 16.24C9.55318 16.24 9.10547 16.6877 9.10547 17.24C9.10547 17.7923 9.55318 18.24 10.1055 18.24H14.1055C14.6578 18.24 15.1055 17.7923 15.1055 17.24C15.1055 16.6877 14.6578 16.24 14.1055 16.24H10.1055Z" fill="#101010"/>
</svg>
