<svg width="25" height="25" viewBox="0 0 25 25" fill="none" xmlns="http://www.w3.org/2000/svg">
<path fill-rule="evenodd" clip-rule="evenodd" d="M15.8242 5.00723C14.1298 4.21308 12.2206 4.00028 10.3929 4.40181C8.56525 4.80335 6.92115 5.79679 5.71565 7.22804C4.51016 8.65929 3.81065 10.4483 3.72565 12.3177L2.72668 12.2723C2.82169 10.183 3.60348 8.18346 4.9508 6.58383C6.29812 4.9842 8.13565 3.87389 10.1784 3.42511C12.2211 2.97633 14.3548 3.21417 16.2485 4.10175C18.1412 4.98879 19.6883 6.47522 20.6505 8.33069L20.8366 8.67696L19.9558 9.15048L19.7642 8.79407C18.9035 7.1325 17.5186 5.80138 15.8242 5.00723Z" fill="#F19E0C"/>
<path fill-rule="evenodd" clip-rule="evenodd" d="M2.76367 11.8362C2.79164 11.5229 2.83521 11.2105 2.89438 10.9004L3.87666 11.0878C3.82371 11.3653 3.78474 11.6447 3.75971 11.9251L2.76367 11.8362ZM2.93372 14.6563C2.86806 14.3475 2.81796 14.0361 2.78344 13.7235L3.7774 13.6137C3.80829 13.8935 3.85311 14.172 3.91186 14.4484C3.97061 14.7247 4.04298 14.9974 4.12857 15.2655L3.17592 15.5696C3.08026 15.27 2.99938 14.9652 2.93372 14.6563ZM20.8025 16.7666C20.6672 17.0506 20.5177 17.3282 20.3542 17.5984C20.1908 17.8685 20.0143 18.1299 19.8255 18.3815L19.0256 17.7814C19.1945 17.5563 19.3524 17.3225 19.4986 17.0807C19.6449 16.839 19.7787 16.5906 19.8997 16.3365L20.8025 16.7666ZM4.42571 18.1034C4.24548 17.8442 4.07863 17.5766 3.92562 17.3017L4.79935 16.8153C4.93625 17.0612 5.08554 17.3007 5.2468 17.5326C5.40805 17.7646 5.58046 17.9879 5.76328 18.2019L5.00295 18.8515C4.79863 18.6123 4.60593 18.3627 4.42571 18.1034ZM18.5486 19.7713C18.3138 19.9807 18.0683 20.1786 17.813 20.3643C17.5576 20.55 17.2936 20.7225 17.0221 20.8813L16.5172 20.0181C16.7602 19.876 16.9964 19.7217 17.2249 19.5555C17.4534 19.3894 17.673 19.2123 17.8831 19.025L18.5486 19.7713ZM7.1371 20.7028C6.87049 20.5337 6.61297 20.3517 6.36539 20.1576L6.9823 19.3706C7.20382 19.5442 7.43423 19.7071 7.67278 19.8584C7.91134 20.0097 8.15684 20.1488 8.4083 20.2752L7.95916 21.1687C7.6781 21.0274 7.40372 20.872 7.1371 20.7028ZM15.3063 21.6676C15.0087 21.7696 14.7057 21.8569 14.3983 21.9291C14.0909 22.0013 13.7807 22.058 13.4688 22.0992L13.338 21.1078C13.6171 21.071 13.8946 21.0202 14.1696 20.9556C14.4447 20.891 14.7158 20.8129 14.982 20.7216L15.3063 21.6676ZM10.644 22.0482C10.3327 21.9956 10.0248 21.9276 9.72134 21.8447L9.985 20.8801C10.2565 20.9543 10.532 21.0151 10.8106 21.0621C11.0891 21.1092 11.3693 21.1422 11.6501 21.1613L11.5824 22.159C11.2685 22.1377 10.9554 22.1008 10.644 22.0482Z" fill="#F19E0C"/>
<path fill-rule="evenodd" clip-rule="evenodd" d="M20.4057 8.73526L21.0135 5.28843L21.9983 5.46208L21.2169 9.89372L16.7852 9.1123L16.9589 8.12749L20.4057 8.73526Z" fill="#F19E0C"/>
<path fill-rule="evenodd" clip-rule="evenodd" d="M12.1524 12.6807V8.68066H11.1545V13.6807H16.1545V12.6807H12.1524Z" fill="#F19E0C"/>
</svg>
