<svg width="25" height="25" viewBox="0 0 25 25" fill="none" xmlns="http://www.w3.org/2000/svg">
<path d="M3.38692 12.134C3.47693 10.1547 4.21758 8.26039 5.49398 6.74495C6.77039 5.22951 8.51121 4.17763 10.4464 3.75247C12.3816 3.32731 14.403 3.55264 16.1971 4.3935C17.9912 5.23436 19.4576 6.64376 20.369 8.40307L20.557 8.75273" stroke="#F19E0C"/>
<path d="M21.2911 13.8296C21.1167 15.0148 20.7075 16.1533 20.0874 17.1783C19.4672 18.2033 18.6487 19.0941 17.6798 19.7986C16.7109 20.5032 15.6111 21.0072 14.4449 21.2811C13.2786 21.555 12.0695 21.5934 10.8882 21.3939C9.70698 21.1944 8.57745 20.7611 7.56586 20.1193C6.55426 19.4776 5.68097 18.6404 4.99717 17.6567C4.31336 16.6731 3.83282 15.5628 3.5837 14.3911C3.33459 13.2193 3.32192 12.0096 3.54643 10.8328" stroke="#F19E0C" stroke-dasharray="2 2"/>
<path d="M21.6668 5.21412L20.9722 9.15335L17.0329 8.45876" stroke="#F19E0C"/>
<path fill-rule="evenodd" clip-rule="evenodd" d="M12.3133 12.5195V8.51953H11.3154V13.5195H16.3154V12.5195H12.3133Z" fill="#F19E0C"/>
</svg>
