<svg width="25" height="25" viewBox="0 0 25 25" fill="none" xmlns="http://www.w3.org/2000/svg">
<path fill-rule="evenodd" clip-rule="evenodd" d="M3.81582 3.52271C3.53968 3.52271 3.31582 3.74655 3.31582 4.02269L3.31567 8.53284L4.31567 8.53287L4.3158 4.52271H8.31042V3.52271H3.81582ZM20.8158 3.52271H16.3164V4.52271H20.3158V8.52176H21.3158V4.02271C21.3158 3.74656 21.092 3.52271 20.8158 3.52271ZM21.3158 21.0227V16.5222H20.3158V20.5227H16.3149V21.5227H20.8158C21.092 21.5227 21.3158 21.2988 21.3158 21.0227ZM4.31582 20.5227V16.5278H3.31582V21.0227C3.31582 21.2988 3.53967 21.5227 3.81582 21.5227H8.31903V20.5227H4.31582ZM7.32227 8.0249C7.32227 7.74876 7.54612 7.5249 7.82227 7.5249H10.8223C11.0984 7.5249 11.3223 7.74876 11.3223 8.0249V11.0249C11.3223 11.301 11.0984 11.5249 10.8223 11.5249H7.82227C7.54612 11.5249 7.32227 11.301 7.32227 11.0249V8.0249ZM8.32227 8.5249V10.5249H10.3223V8.5249H8.32227ZM13.3254 8.0249C13.3254 7.74876 13.5493 7.5249 13.8254 7.5249H16.8254C17.1016 7.5249 17.3254 7.74876 17.3254 8.0249V11.0249C17.3254 11.301 17.1016 11.5249 16.8254 11.5249H13.8254C13.5493 11.5249 13.3254 11.301 13.3254 11.0249V8.0249ZM14.3254 8.5249V10.5249H16.3254V8.5249H14.3254ZM7.82532 13.5193C7.54917 13.5193 7.32532 13.7431 7.32532 14.0193V17.0193C7.32532 17.2954 7.54917 17.5193 7.82532 17.5193H10.8253C11.1015 17.5193 11.3253 17.2954 11.3253 17.0193V14.0193C11.3253 13.7431 11.1015 13.5193 10.8253 13.5193H7.82532ZM8.32532 16.5193V14.5193H10.3253V16.5193H8.32532ZM13.3154 14.0193C13.3154 13.7431 13.5393 13.5193 13.8154 13.5193H16.3154C16.5916 13.5193 16.8154 13.7431 16.8154 14.0193V16.5193C16.8154 16.7954 16.5916 17.0193 16.3154 17.0193H13.8154C13.5393 17.0193 13.3154 16.7954 13.3154 16.5193V14.0193ZM14.3154 14.5193V16.0193H15.8154V14.5193H14.3154Z" fill="#101010"/>
</svg>
