<svg width="25" height="25" viewBox="0 0 25 25" fill="none" xmlns="http://www.w3.org/2000/svg">
<path fill-rule="evenodd" clip-rule="evenodd" d="M20.3157 8.81223L23.3511 5.77678L24.0582 6.48389L20.1691 10.373C19.9739 10.5682 19.6573 10.5682 19.462 10.373L15.5729 6.48389L16.2801 5.77678L19.3157 8.8124V1.53223H20.3157V8.81223ZM4.81555 5.51758C4.53941 5.51758 4.31555 5.74144 4.31555 6.01758V21.0176C4.31555 21.2937 4.53941 21.5176 4.81555 21.5176H19.8156C20.0917 21.5176 20.3156 21.2937 20.3156 21.0176V13.5176H19.3156V20.5176H5.31555V6.51758H13.3643V5.51758H4.81555ZM14.9713 9.51953H10.0948L9.65955 10.5195H11.0554C11.5716 10.5929 12.1372 10.8538 12.2387 11.5625H10.0948L9.65955 12.5625H12.117C11.9004 13.0936 11.3328 13.5632 9.84631 13.4326V14.4404L12.5743 17.5258H13.7812L11.0587 14.4404C11.7733 14.3669 12.975 13.7986 13.2798 12.5625H14.5485L14.9713 11.5625H13.3223C13.26 11.234 13.1419 10.8514 12.9018 10.5195H14.5485L14.9713 9.51953Z" fill="#101010"/>
</svg>
