<svg width="24" height="24" viewBox="0 0 24 24" fill="none" xmlns="http://www.w3.org/2000/svg">
<path fill-rule="evenodd" clip-rule="evenodd" d="M20.0002 8.29274L23.0356 5.25729L23.7427 5.9644L19.8536 9.85349C19.6584 10.0488 19.3418 10.0488 19.1465 9.85349L15.2575 5.9644L15.9646 5.25729L19.0002 8.29292V1.01274H20.0002V8.29274ZM4.50006 4.99809C4.22392 4.99809 4.00006 5.22195 4.00006 5.49809V20.4981C4.00006 20.7742 4.22392 20.9981 4.50006 20.9981H19.5001C19.7762 20.9981 20.0001 20.7742 20.0001 20.4981V12.9981H19.0001V19.9981H5.00006V5.99809H13.0488V4.99809H4.50006ZM14.6559 9.00005H9.77931L9.34406 10H10.7399C11.2561 10.0734 11.8217 10.3343 11.9232 11.043H9.77931L9.34406 12.043H11.8015C11.585 12.5741 11.0173 13.0438 9.53082 12.9131V13.9209L12.2589 17.0063H13.4657L10.7432 13.9209C11.4578 13.8474 12.6595 13.2791 12.9643 12.043H14.233L14.6559 11.043H13.0068C12.9445 10.7145 12.8264 10.332 12.5863 10H14.233L14.6559 9.00005Z" fill="#101010"/>
</svg>
