<svg width="25" height="25" viewBox="0 0 25 25" fill="none" xmlns="http://www.w3.org/2000/svg">
<path fill-rule="evenodd" clip-rule="evenodd" d="M12.3153 4.48755C10.9346 4.48755 9.81531 5.60684 9.81531 6.98755C9.81531 8.36826 10.9346 9.48755 12.3153 9.48755C13.696 9.48755 14.8153 8.36826 14.8153 6.98755C14.8153 5.60684 13.696 4.48755 12.3153 4.48755ZM8.81531 6.98755C8.81531 5.05455 10.3823 3.48755 12.3153 3.48755C14.2483 3.48755 15.8153 5.05455 15.8153 6.98755C15.8153 8.92055 14.2483 10.4875 12.3153 10.4875C10.3823 10.4875 8.81531 8.92055 8.81531 6.98755ZM2.06104 15.3274L6.65795 13.3606C6.91183 13.2519 7.20569 13.3697 7.31432 13.6236L9.28115 18.2205L8.36177 18.6138L6.87722 15.1441L6.29178 16.3682C5.95439 17.0737 5.71603 17.8223 5.58346 18.593C5.32088 20.1194 6.49639 21.5144 8.04523 21.5144H16.6257C18.2116 21.5144 19.3967 20.0568 19.0732 18.5043L18.8472 17.4201C18.3157 14.8698 16.068 13.0422 13.4629 13.0422H9.33352V12.0422H13.4629C16.5416 12.0422 19.198 14.2021 19.8262 17.2161L20.0521 18.3003C20.5051 20.4738 18.8459 22.5144 16.6257 22.5144H8.04523C5.87634 22.5144 4.23024 20.5609 4.59794 18.4234C4.74612 17.5621 5.01254 16.7253 5.38965 15.9368L5.95841 14.7476L2.4544 16.2468L2.06104 15.3274Z" fill="#101010"/>
</svg>
