<svg width="25" height="25" viewBox="0 0 25 25" fill="none" xmlns="http://www.w3.org/2000/svg">
<path fill-rule="evenodd" clip-rule="evenodd" d="M19.3154 3.4633L16.28 6.49874L15.5729 5.79164L19.462 1.90255C19.6572 1.70729 19.9738 1.70729 20.1691 1.90255L24.0582 5.79164L23.3511 6.49874L20.3154 3.46312V10.5281H19.3154V3.4633ZM4.81555 5.51771C4.53941 5.51771 4.31555 5.74157 4.31555 6.01771V21.0177C4.31555 21.2939 4.53941 21.5177 4.81555 21.5177H19.8156C20.0917 21.5177 20.3156 21.2939 20.3156 21.0177V13.5177H19.3156V20.5177H5.31555V6.51771H13.3643V5.51771H4.81555ZM14.9713 9.51966H10.0948L9.65955 10.5197H11.0554C11.5716 10.593 12.1372 10.8539 12.2387 11.5626H10.0948L9.65955 12.5626H12.117C11.9004 13.0938 11.3328 13.5634 9.84631 13.4327V14.4405L12.5743 17.526H13.7812L11.0587 14.4405C11.7733 14.367 12.975 13.7988 13.2798 12.5626H14.5485L14.9713 11.5626H13.3223C13.26 11.2341 13.1419 10.8516 12.9018 10.5197H14.5485L14.9713 9.51966Z" fill="#101010"/>
</svg>
