<svg width="25" height="25" viewBox="0 0 25 25" fill="none" xmlns="http://www.w3.org/2000/svg">
<path fill-rule="evenodd" clip-rule="evenodd" d="M19.8225 3.68391L19.8156 3.69085H19.8294L19.8225 3.68391ZM15.9334 7.573L19.3226 4.18379V11.5649H20.3226V4.18403L23.7116 7.573L24.4187 6.86589L20.1761 2.62325C19.9808 2.42799 19.6642 2.42799 19.469 2.62325L15.2263 6.86589L15.9334 7.573ZM4.81873 2.51555C4.54258 2.51555 4.31873 2.73941 4.31873 3.01555V7.04485H2.31543V8.04485H4.31873V12.0448H2.31543V13.0448H4.31873V17.0448H2.31543V18.0448H4.31873V22.0234C4.31873 22.2995 4.54258 22.5234 4.81873 22.5234H19.8121C20.0882 22.5234 20.3121 22.2995 20.3121 22.0234V14.5257H19.3121V21.5234H5.31873V3.51555H14.3138V2.51555H4.81873ZM12.3154 11.5326C12.8677 11.5326 13.3154 11.0849 13.3154 10.5326C13.3154 9.98036 12.8677 9.53264 12.3154 9.53264C11.7631 9.53264 11.3154 9.98036 11.3154 10.5326C11.3154 11.0849 11.7631 11.5326 12.3154 11.5326ZM12.3154 12.5326C13.42 12.5326 14.3154 11.6372 14.3154 10.5326C14.3154 9.42807 13.42 8.53264 12.3154 8.53264C11.2109 8.53264 10.3154 9.42807 10.3154 10.5326C10.3154 11.6372 11.2109 12.5326 12.3154 12.5326ZM9.3244 16.561C9.42544 15.4397 10.3678 14.561 11.5154 14.561H13.1154C14.263 14.561 15.2054 15.4397 15.3065 16.561H9.3244ZM8.31543 16.761C8.31543 14.9937 9.74812 13.561 11.5154 13.561H13.1154C14.8827 13.561 16.3154 14.9937 16.3154 16.761C16.3154 17.2028 15.9573 17.561 15.5154 17.561H9.11543C8.6736 17.561 8.31543 17.2028 8.31543 16.761Z" fill="#101010"/>
</svg>
