<svg width="25" height="25" viewBox="0 0 25 25" fill="none" xmlns="http://www.w3.org/2000/svg">
<path fill-rule="evenodd" clip-rule="evenodd" d="M4.81958 2.52441C4.54344 2.52441 4.31958 2.74827 4.31958 3.02441V7.01904H2.31543V8.01904H4.31958V12.019H2.31543V13.019H4.31958V17.019H2.31543V18.019H4.31958V22.0244C4.31958 22.3006 4.54344 22.5244 4.81958 22.5244H19.8196C20.0957 22.5244 20.3196 22.3006 20.3196 22.0244V3.02441C20.3196 2.74827 20.0957 2.52441 19.8196 2.52441H4.81958ZM5.31958 21.5244V3.52441H19.3196V21.5244H5.31958ZM14.5484 7.51953H12.9017C13.1418 7.85145 13.2599 8.23396 13.3221 8.5625H14.9712L14.5484 9.5625H13.2797C12.9749 10.7986 11.7732 11.3669 11.0586 11.4404L13.7811 14.5258H12.5742L9.84619 11.4404V10.4326C11.3327 10.5632 11.9003 10.0936 12.1169 9.5625H9.65942L10.0947 8.5625H12.2385C12.137 7.85376 11.5714 7.59289 11.0553 7.51953H9.65942L10.0947 6.51953H14.9712L14.5484 7.51953ZM9.31543 18.5386H15.3154V17.5386H9.31543V18.5386Z" fill="#101010"/>
</svg>
