<svg width="1920" height="960" viewBox="0 0 1920 960" fill="none" xmlns="http://www.w3.org/2000/svg">
<rect width="1920" height="960" fill="#012A72"/>
<path d="M209.7 484.543C202.934 484.543 197.308 483.403 192.823 481.122C188.338 478.842 184.803 475.649 182.218 471.544C179.633 467.362 177.809 462.497 176.745 456.947H167.052L176.174 432.43C176.25 436.307 176.935 439.652 178.227 442.465C179.595 445.278 181.534 447.445 184.043 448.965C186.627 450.485 189.744 451.246 193.393 451.246C198.791 451.246 202.858 449.649 205.595 446.456C208.332 443.187 209.7 438.322 209.7 431.86V418.176C209.7 411.638 208.37 406.811 205.709 403.694C203.048 400.501 199.019 398.905 193.621 398.905C190.733 398.905 188.072 399.437 185.639 400.501C183.206 401.565 181.116 403.01 179.367 404.834C177.619 406.583 176.326 408.559 175.49 410.764L166.254 394.343H176.745C177.809 389.174 179.633 384.499 182.218 380.317C184.803 376.136 188.414 372.829 193.051 370.397C197.689 367.964 203.656 366.747 210.954 366.747C223.878 366.747 233.647 371.081 240.261 379.747C246.951 388.414 250.296 401.489 250.296 418.974V430.948C250.296 448.661 246.951 462.041 240.261 471.087C233.647 480.058 223.46 484.543 209.7 484.543ZM136.491 521.034V369.484H176.631L175.262 401.527L176.174 404.264V445.772L175.49 452.5L176.631 481.806V521.034H136.491ZM307.693 420.799L296.062 397.992H305.527C307.047 388.49 310.392 381.078 315.562 375.756C320.731 370.359 328.143 367.66 337.798 367.66C339.242 367.66 340.573 367.736 341.789 367.888C343.081 368.04 344.336 368.23 345.552 368.458L347.491 409.51C345.97 409.206 344.146 408.978 342.017 408.826C339.965 408.673 337.95 408.597 335.973 408.597C328.827 408.597 322.898 409.7 318.184 411.904C313.471 414.033 309.974 416.998 307.693 420.799ZM267.896 481.806V369.484H305.527L303.93 406.659H308.263V481.806H267.896ZM421.505 481.806L422.645 453.07L421.847 452.044V417.15L421.505 413.045C421.505 407.799 419.795 403.96 416.374 401.527C413.029 399.019 407.289 397.764 399.155 397.764C391.781 397.764 384.672 398.639 377.831 400.387C371.065 402.136 364.565 404.15 358.331 406.431L361.638 375.756C365.439 374.084 369.658 372.563 374.296 371.195C378.933 369.75 383.988 368.61 389.462 367.774C394.935 366.938 400.751 366.519 406.909 366.519C417.324 366.519 425.99 367.736 432.908 370.168C439.902 372.525 445.452 375.908 449.557 380.317C453.662 384.651 456.589 389.82 458.338 395.826C460.162 401.832 461.074 408.445 461.074 415.667V481.806H421.505ZM386.725 484.543C375.474 484.543 366.959 481.692 361.182 475.991C355.48 470.213 352.629 462.041 352.629 451.474V448.623C352.629 437.372 356.05 429.085 362.892 423.764C369.81 418.442 380.833 414.831 395.962 412.931L424.584 409.282L426.979 432.316L402.69 435.851C398.28 436.459 395.201 437.524 393.453 439.044C391.781 440.489 390.944 442.655 390.944 445.544V446C390.944 448.661 391.819 450.828 393.567 452.5C395.392 454.173 398.394 455.009 402.576 455.009C406.073 455.009 409.075 454.553 411.584 453.64C414.169 452.652 416.298 451.36 417.97 449.763C419.719 448.167 421.087 446.418 422.075 444.518L427.777 458.202H421.277C420.137 463.295 418.312 467.818 415.803 471.772C413.371 475.725 409.836 478.842 405.198 481.122C400.561 483.403 394.403 484.543 386.725 484.543ZM525.555 484.429C515.14 484.429 506.853 482.871 500.695 479.754C494.614 476.561 490.242 471.848 487.582 465.614C484.997 459.38 483.705 451.702 483.705 442.579V382.37H523.73V435.737C523.73 440.603 524.832 444.176 527.037 446.456C529.242 448.661 533.575 449.763 540.037 449.763C543.534 449.763 546.993 449.383 550.414 448.623C553.911 447.787 557.066 446.836 559.878 445.772L556.457 478.842C552.504 480.514 547.943 481.844 542.773 482.833C537.604 483.897 531.864 484.429 525.555 484.429ZM469.678 401.071V369.484H558.738L555.317 401.071H469.678ZM484.275 372.221L484.161 344.055L523.958 340.52L522.59 372.221H484.275ZM572.577 481.806V369.484H612.945V481.806H572.577ZM592.761 361.388C585.387 361.388 580.027 359.753 576.682 356.485C573.337 353.14 571.665 348.654 571.665 343.029V342.116C571.665 336.491 573.337 332.044 576.682 328.775C580.027 325.43 585.387 323.757 592.761 323.757C600.059 323.757 605.38 325.43 608.725 328.775C612.146 332.044 613.857 336.491 613.857 342.116V343.029C613.857 348.73 612.146 353.216 608.725 356.485C605.38 359.753 600.059 361.388 592.761 361.388ZM770.664 481.806V416.124C770.664 412.779 770.246 409.928 769.41 407.571C768.65 405.138 767.319 403.276 765.419 401.984C763.518 400.691 760.895 400.045 757.55 400.045C754.89 400.045 752.533 400.539 750.48 401.527C748.504 402.516 746.793 403.846 745.349 405.519C743.981 407.115 742.916 408.94 742.156 410.992L738.621 394.343H742.042C743.182 389.098 745.045 384.423 747.63 380.317C750.214 376.136 753.825 372.829 758.463 370.397C763.176 367.964 769.22 366.747 776.594 366.747C784.5 366.747 790.962 368.306 795.979 371.423C801.073 374.54 804.836 379.253 807.269 385.563C809.777 391.797 811.032 399.665 811.032 409.168V481.806H770.664ZM633.825 481.806V369.484H673.965L672.71 401.413L674.193 402.44V481.806H633.825ZM702.245 481.806V416.124C702.245 412.779 701.826 409.928 700.99 407.571C700.23 405.138 698.9 403.276 696.999 401.984C695.099 400.691 692.476 400.045 689.131 400.045C686.47 400.045 684.113 400.539 682.061 401.527C680.084 402.516 678.374 403.846 676.929 405.519C675.561 407.115 674.497 408.94 673.736 410.992L667.579 394.343H674.079C675.219 389.098 677.043 384.423 679.552 380.317C682.137 376.136 685.748 372.829 690.385 370.397C695.023 367.964 700.952 366.747 708.174 366.747C718.589 366.747 726.42 369.446 731.665 374.844C736.987 380.241 740.294 388.034 741.586 398.22C741.738 399.741 741.928 401.679 742.156 404.036C742.46 406.393 742.612 408.445 742.612 410.194V481.806H702.245ZM894.785 481.806L895.926 453.07L895.127 452.044V417.15L894.785 413.045C894.785 407.799 893.075 403.96 889.654 401.527C886.309 399.019 880.569 397.764 872.435 397.764C865.061 397.764 857.953 398.639 851.111 400.387C844.345 402.136 837.845 404.15 831.611 406.431L834.918 375.756C838.719 374.084 842.938 372.563 847.576 371.195C852.213 369.75 857.268 368.61 862.742 367.774C868.216 366.938 874.031 366.519 880.189 366.519C890.604 366.519 899.271 367.736 906.189 370.168C913.183 372.525 918.732 375.908 922.837 380.317C926.942 384.651 929.869 389.82 931.618 395.826C933.442 401.832 934.355 408.445 934.355 415.667V481.806H894.785ZM860.005 484.543C848.754 484.543 840.24 481.692 834.462 475.991C828.76 470.213 825.91 462.041 825.91 451.474V448.623C825.91 437.372 829.33 429.085 836.172 423.764C843.09 418.442 854.114 414.831 869.242 412.931L897.864 409.282L900.259 432.316L875.97 435.851C871.561 436.459 868.482 437.524 866.733 439.044C865.061 440.489 864.224 442.655 864.224 445.544V446C864.224 448.661 865.099 450.828 866.847 452.5C868.672 454.173 871.675 455.009 875.856 455.009C879.353 455.009 882.356 454.553 884.864 453.64C887.449 452.652 889.578 451.36 891.25 449.763C892.999 448.167 894.367 446.418 895.355 444.518L901.057 458.202H894.557C893.417 463.295 891.592 467.818 889.084 471.772C886.651 475.725 883.116 478.842 878.479 481.122C873.841 483.403 867.683 484.543 860.005 484.543Z" fill="white"/>
<path d="M149.12 313.467V306.369H164.215C167.636 306.369 170.116 305.528 171.656 303.846C173.224 302.135 174.008 299.769 174.008 296.747V293.027C174.008 289.92 173.238 287.539 171.698 285.886C170.159 284.232 167.693 283.406 164.3 283.406H149.077V276.35H164.472C170.743 276.35 175.319 277.804 178.198 280.712C181.106 283.591 182.56 287.625 182.56 292.813V296.961C182.56 302.15 181.106 306.198 178.198 309.106C175.29 312.014 170.701 313.467 164.429 313.467H149.12ZM143.475 331V276.35H151.899V308.464L151.942 312.313V331H143.475ZM223.516 331L222.062 319.925C221.806 317.9 221.35 316.176 220.694 314.75C220.067 313.296 219.083 312.17 217.743 311.372C216.403 310.574 214.536 310.175 212.141 310.175L197.902 310.132V303.376L213.039 303.333C216.546 303.333 219.055 302.492 220.566 300.81C222.077 299.128 222.832 296.79 222.832 293.797V292.599C222.832 289.663 222.062 287.397 220.523 285.8C218.983 284.204 216.432 283.406 212.868 283.406H197.731V276.35H214.066C220.138 276.35 224.557 277.647 227.322 280.241C230.116 282.835 231.513 286.456 231.513 291.103V292.471C231.513 295.921 230.714 298.743 229.118 300.938C227.55 303.133 224.913 304.516 221.207 305.086V306.198L217.615 304.958C220.779 305.186 223.217 305.87 224.927 307.01C226.666 308.151 227.935 309.719 228.733 311.714C229.531 313.71 230.144 316.133 230.572 318.984L232.411 331H223.516ZM192 331V276.35H200.425V305.728L200.467 308.935V331H192ZM261.579 332.112C254.452 332.112 249.036 330.173 245.33 326.296C241.652 322.419 239.813 316.874 239.813 309.662V297.645C239.813 290.461 241.652 284.931 245.33 281.054C249.036 277.177 254.452 275.238 261.579 275.238C268.706 275.238 274.109 277.177 277.786 281.054C281.492 284.931 283.345 290.461 283.345 297.645V309.662C283.345 316.874 281.492 322.419 277.786 326.296C274.109 330.173 268.706 332.112 261.579 332.112ZM261.579 324.971C265.913 324.971 269.162 323.673 271.329 321.079C273.524 318.456 274.622 314.765 274.622 310.004V297.303C274.622 292.514 273.524 288.836 271.329 286.271C269.162 283.676 265.913 282.379 261.579 282.379C257.246 282.379 253.982 283.676 251.787 286.271C249.62 288.836 248.537 292.514 248.537 297.303V310.004C248.537 314.765 249.62 318.456 251.787 321.079C253.982 323.673 257.246 324.971 261.579 324.971ZM299.614 331.727C297.79 331.727 295.994 331.584 294.226 331.299C292.487 331.014 290.905 330.587 289.48 330.016L288.838 322.405C290.264 323.032 291.718 323.502 293.2 323.816C294.711 324.13 296.25 324.286 297.818 324.286C301.439 324.286 303.933 323.46 305.302 321.806C306.67 320.124 307.354 317.573 307.354 314.152V276.35H315.949V314.665C315.949 320.252 314.695 324.5 312.186 327.408C309.706 330.287 305.515 331.727 299.614 331.727ZM327.72 331V276.35H336.187V331H327.72ZM330.243 331V323.816H362.786V331H330.243ZM332.595 306.711V299.613H361.845V306.711H332.595ZM330.201 283.491V276.35H362.486V283.491H330.201ZM391.39 332.069C384.406 332.069 379.174 330.131 375.696 326.253C372.247 322.376 370.522 316.86 370.522 309.704V297.56C370.522 290.433 372.247 284.945 375.696 281.096C379.174 277.219 384.406 275.281 391.39 275.281C393.528 275.281 395.481 275.466 397.249 275.837C399.016 276.207 400.598 276.692 401.995 277.291C403.392 277.889 404.589 278.516 405.587 279.172L406.271 287.04C404.589 285.9 402.637 284.902 400.413 284.047C398.189 283.192 395.567 282.764 392.545 282.764C388.154 282.764 384.833 284.061 382.581 286.656C380.357 289.25 379.246 292.927 379.246 297.688V309.405C379.246 314.137 380.372 317.815 382.624 320.438C384.904 323.06 388.297 324.372 392.801 324.372C395.766 324.372 398.389 323.958 400.67 323.132C402.979 322.276 404.989 321.236 406.699 320.01L406.015 328.092C405.017 328.748 403.791 329.389 402.337 330.016C400.912 330.615 399.273 331.1 397.42 331.47C395.595 331.869 393.585 332.069 391.39 332.069ZM428.325 331V277.847H436.92V331H428.325ZM412.246 283.534V276.35H452.956V283.534H412.246Z" fill="white"/>
<path d="M144.585 781.909V811H140.196V781.909H144.585ZM159.827 811.44C157.715 811.44 155.897 810.962 154.372 810.006C152.857 809.04 151.692 807.709 150.878 806.014C150.063 804.319 149.656 802.378 149.656 800.19C149.656 797.974 150.073 796.019 150.906 794.324C151.74 792.619 152.914 791.289 154.429 790.332C155.944 789.376 157.729 788.898 159.784 788.898C161.441 788.898 162.919 789.205 164.216 789.821C165.513 790.427 166.56 791.279 167.355 792.378C168.16 793.476 168.638 794.759 168.79 796.227H164.656C164.429 795.205 163.908 794.324 163.094 793.585C162.289 792.847 161.209 792.477 159.855 792.477C158.671 792.477 157.634 792.79 156.744 793.415C155.864 794.03 155.177 794.911 154.685 796.057C154.192 797.193 153.946 798.538 153.946 800.091C153.946 801.682 154.188 803.055 154.67 804.21C155.153 805.366 155.835 806.26 156.716 806.895C157.606 807.529 158.652 807.847 159.855 807.847C160.66 807.847 161.389 807.7 162.043 807.406C162.705 807.103 163.259 806.672 163.705 806.114C164.159 805.555 164.476 804.883 164.656 804.097H168.79C168.638 805.508 168.179 806.767 167.412 807.875C166.645 808.983 165.617 809.854 164.33 810.489C163.051 811.123 161.55 811.44 159.827 811.44ZM182.522 811.44C180.477 811.44 178.692 810.972 177.167 810.034C175.642 809.097 174.459 807.785 173.616 806.099C172.773 804.414 172.352 802.444 172.352 800.19C172.352 797.927 172.773 795.948 173.616 794.253C174.459 792.558 175.642 791.241 177.167 790.304C178.692 789.366 180.477 788.898 182.522 788.898C184.567 788.898 186.353 789.366 187.877 790.304C189.402 791.241 190.585 792.558 191.428 794.253C192.271 795.948 192.692 797.927 192.692 800.19C192.692 802.444 192.271 804.414 191.428 806.099C190.585 807.785 189.402 809.097 187.877 810.034C186.353 810.972 184.567 811.44 182.522 811.44ZM182.536 807.875C183.862 807.875 184.96 807.525 185.832 806.824C186.703 806.123 187.347 805.19 187.763 804.026C188.19 802.861 188.403 801.578 188.403 800.176C188.403 798.784 188.19 797.506 187.763 796.341C187.347 795.167 186.703 794.224 185.832 793.514C184.96 792.804 183.862 792.449 182.536 792.449C181.201 792.449 180.093 792.804 179.212 793.514C178.341 794.224 177.692 795.167 177.266 796.341C176.85 797.506 176.641 798.784 176.641 800.176C176.641 801.578 176.85 802.861 177.266 804.026C177.692 805.19 178.341 806.123 179.212 806.824C180.093 807.525 181.201 807.875 182.536 807.875ZM201.68 798.045V811H197.433V789.182H201.51V792.733H201.78C202.282 791.578 203.068 790.65 204.138 789.949C205.217 789.248 206.576 788.898 208.214 788.898C209.701 788.898 211.003 789.21 212.121 789.835C213.238 790.451 214.105 791.369 214.72 792.591C215.336 793.812 215.643 795.323 215.643 797.122V811H211.396V797.634C211.396 796.052 210.984 794.816 210.161 793.926C209.337 793.027 208.205 792.577 206.766 792.577C205.781 792.577 204.905 792.79 204.138 793.216C203.38 793.642 202.779 794.267 202.334 795.091C201.898 795.905 201.68 796.89 201.68 798.045ZM236.173 781.909V811H231.925V781.909H236.173ZM241.886 811V789.182H246.134V811H241.886ZM244.031 785.815C243.293 785.815 242.658 785.569 242.128 785.077C241.607 784.575 241.347 783.978 241.347 783.287C241.347 782.586 241.607 781.99 242.128 781.497C242.658 780.995 243.293 780.744 244.031 780.744C244.77 780.744 245.4 780.995 245.92 781.497C246.451 781.99 246.716 782.586 246.716 783.287C246.716 783.978 246.451 784.575 245.92 785.077C245.4 785.569 244.77 785.815 244.031 785.815ZM252.188 811V781.909H256.435V792.719H256.691C256.937 792.264 257.292 791.739 257.756 791.142C258.22 790.545 258.864 790.025 259.688 789.58C260.512 789.125 261.601 788.898 262.955 788.898C264.717 788.898 266.289 789.343 267.671 790.233C269.054 791.123 270.138 792.406 270.924 794.082C271.719 795.759 272.117 797.776 272.117 800.134C272.117 802.491 271.724 804.513 270.938 806.199C270.152 807.875 269.073 809.168 267.7 810.077C266.326 810.976 264.759 811.426 262.998 811.426C261.672 811.426 260.588 811.204 259.745 810.759C258.912 810.313 258.258 809.793 257.785 809.196C257.311 808.599 256.947 808.069 256.691 807.605H256.336V811H252.188ZM256.35 800.091C256.35 801.625 256.573 802.97 257.018 804.125C257.463 805.28 258.107 806.185 258.95 806.838C259.792 807.482 260.825 807.804 262.046 807.804C263.315 807.804 264.376 807.468 265.228 806.795C266.08 806.114 266.724 805.19 267.16 804.026C267.605 802.861 267.827 801.549 267.827 800.091C267.827 798.652 267.61 797.359 267.174 796.213C266.748 795.067 266.104 794.163 265.242 793.5C264.39 792.837 263.325 792.506 262.046 792.506C260.815 792.506 259.773 792.823 258.921 793.457C258.078 794.092 257.439 794.977 257.004 796.114C256.568 797.25 256.35 798.576 256.35 800.091ZM276.886 811V789.182H280.991V792.648H281.219C281.616 791.473 282.317 790.55 283.321 789.878C284.334 789.196 285.48 788.855 286.759 788.855C287.024 788.855 287.336 788.865 287.696 788.884C288.065 788.902 288.354 788.926 288.562 788.955V793.017C288.392 792.97 288.089 792.918 287.653 792.861C287.218 792.795 286.782 792.761 286.347 792.761C285.343 792.761 284.448 792.974 283.662 793.401C282.885 793.817 282.27 794.4 281.815 795.148C281.361 795.886 281.134 796.729 281.134 797.676V811H276.886ZM298.392 811.483C297.009 811.483 295.759 811.227 294.642 810.716C293.525 810.195 292.639 809.442 291.986 808.457C291.342 807.473 291.02 806.265 291.02 804.835C291.02 803.604 291.257 802.591 291.73 801.795C292.204 801 292.843 800.37 293.648 799.906C294.453 799.442 295.352 799.092 296.347 798.855C297.341 798.618 298.354 798.438 299.386 798.315C300.693 798.164 301.754 798.041 302.568 797.946C303.383 797.842 303.974 797.676 304.344 797.449C304.713 797.222 304.898 796.852 304.898 796.341V796.241C304.898 795.001 304.547 794.04 303.847 793.358C303.155 792.676 302.123 792.335 300.75 792.335C299.32 792.335 298.193 792.652 297.369 793.287C296.555 793.912 295.991 794.608 295.679 795.375L291.688 794.466C292.161 793.14 292.852 792.07 293.761 791.256C294.68 790.432 295.736 789.835 296.929 789.466C298.122 789.087 299.377 788.898 300.693 788.898C301.564 788.898 302.488 789.002 303.463 789.21C304.448 789.409 305.366 789.778 306.219 790.318C307.08 790.858 307.786 791.63 308.335 792.634C308.884 793.628 309.159 794.92 309.159 796.511V811H305.011V808.017H304.841C304.566 808.566 304.154 809.106 303.605 809.636C303.056 810.167 302.35 810.607 301.489 810.957C300.627 811.308 299.595 811.483 298.392 811.483ZM299.315 808.074C300.49 808.074 301.493 807.842 302.327 807.378C303.17 806.914 303.809 806.308 304.244 805.56C304.689 804.802 304.912 803.992 304.912 803.131V800.318C304.76 800.47 304.467 800.612 304.031 800.744C303.605 800.867 303.117 800.976 302.568 801.071C302.019 801.156 301.484 801.237 300.963 801.312C300.442 801.379 300.007 801.436 299.656 801.483C298.832 801.587 298.08 801.762 297.398 802.009C296.725 802.255 296.186 802.61 295.778 803.074C295.381 803.528 295.182 804.134 295.182 804.892C295.182 805.943 295.57 806.739 296.347 807.278C297.123 807.809 298.113 808.074 299.315 808.074ZM314.816 811V789.182H318.921V792.648H319.148C319.546 791.473 320.247 790.55 321.251 789.878C322.264 789.196 323.41 788.855 324.688 788.855C324.953 788.855 325.266 788.865 325.626 788.884C325.995 788.902 326.284 788.926 326.492 788.955V793.017C326.322 792.97 326.019 792.918 325.583 792.861C325.147 792.795 324.712 792.761 324.276 792.761C323.272 792.761 322.378 792.974 321.592 793.401C320.815 793.817 320.2 794.4 319.745 795.148C319.29 795.886 319.063 796.729 319.063 797.676V811H314.816ZM333.516 819.182C332.882 819.182 332.304 819.13 331.783 819.026C331.263 818.931 330.874 818.827 330.619 818.713L331.641 815.233C332.418 815.441 333.109 815.531 333.715 815.503C334.321 815.474 334.856 815.247 335.32 814.821C335.794 814.395 336.21 813.699 336.57 812.733L337.096 811.284L329.113 789.182H333.658L339.184 806.114H339.411L344.937 789.182H349.496L340.505 813.912C340.088 815.048 339.558 816.009 338.914 816.795C338.27 817.591 337.503 818.188 336.613 818.585C335.723 818.983 334.691 819.182 333.516 819.182ZM374.457 789.182V792.591H362.128V789.182H374.457ZM365.509 811V786.653C365.509 785.29 365.807 784.158 366.403 783.259C367 782.349 367.791 781.672 368.776 781.227C369.76 780.773 370.83 780.545 371.986 780.545C372.838 780.545 373.567 780.616 374.173 780.759C374.779 780.891 375.229 781.014 375.523 781.128L374.528 784.565C374.33 784.509 374.074 784.442 373.761 784.366C373.449 784.281 373.07 784.239 372.625 784.239C371.593 784.239 370.854 784.494 370.409 785.006C369.973 785.517 369.756 786.256 369.756 787.222V811H365.509ZM387.17 811.44C385.125 811.44 383.34 810.972 381.815 810.034C380.291 809.097 379.107 807.785 378.264 806.099C377.421 804.414 377 802.444 377 800.19C377 797.927 377.421 795.948 378.264 794.253C379.107 792.558 380.291 791.241 381.815 790.304C383.34 789.366 385.125 788.898 387.17 788.898C389.216 788.898 391.001 789.366 392.526 790.304C394.05 791.241 395.234 792.558 396.077 794.253C396.92 795.948 397.341 797.927 397.341 800.19C397.341 802.444 396.92 804.414 396.077 806.099C395.234 807.785 394.05 809.097 392.526 810.034C391.001 810.972 389.216 811.44 387.17 811.44ZM387.185 807.875C388.51 807.875 389.609 807.525 390.48 806.824C391.351 806.123 391.995 805.19 392.412 804.026C392.838 802.861 393.051 801.578 393.051 800.176C393.051 798.784 392.838 797.506 392.412 796.341C391.995 795.167 391.351 794.224 390.48 793.514C389.609 792.804 388.51 792.449 387.185 792.449C385.849 792.449 384.741 792.804 383.861 793.514C382.99 794.224 382.341 795.167 381.915 796.341C381.498 797.506 381.29 798.784 381.29 800.176C381.29 801.578 381.498 802.861 381.915 804.026C382.341 805.19 382.99 806.123 383.861 806.824C384.741 807.525 385.849 807.875 387.185 807.875ZM402.082 811V789.182H406.187V792.648H406.414C406.812 791.473 407.513 790.55 408.516 789.878C409.53 789.196 410.675 788.855 411.954 788.855C412.219 788.855 412.531 788.865 412.891 788.884C413.261 788.902 413.549 788.926 413.758 788.955V793.017C413.587 792.97 413.284 792.918 412.849 792.861C412.413 792.795 411.978 792.761 411.542 792.761C410.538 792.761 409.643 792.974 408.857 793.401C408.081 793.817 407.465 794.4 407.011 795.148C406.556 795.886 406.329 796.729 406.329 797.676V811H402.082ZM437.778 811H428.36V781.909H438.076C440.926 781.909 443.374 782.491 445.42 783.656C447.465 784.812 449.032 786.473 450.121 788.642C451.22 790.801 451.769 793.391 451.769 796.412C451.769 799.442 451.215 802.046 450.107 804.224C449.009 806.402 447.418 808.079 445.335 809.253C443.251 810.418 440.732 811 437.778 811ZM432.749 807.165H437.536C439.752 807.165 441.594 806.748 443.062 805.915C444.53 805.072 445.628 803.855 446.357 802.264C447.086 800.664 447.451 798.713 447.451 796.412C447.451 794.13 447.086 792.193 446.357 790.602C445.638 789.011 444.563 787.804 443.133 786.98C441.703 786.156 439.927 785.744 437.806 785.744H432.749V807.165ZM456.886 811V789.182H461.134V811H456.886ZM459.031 785.815C458.293 785.815 457.658 785.569 457.128 785.077C456.607 784.575 456.347 783.978 456.347 783.287C456.347 782.586 456.607 781.99 457.128 781.497C457.658 780.995 458.293 780.744 459.031 780.744C459.77 780.744 460.4 780.995 460.92 781.497C461.451 781.99 461.716 782.586 461.716 783.287C461.716 783.978 461.451 784.575 460.92 785.077C460.4 785.569 459.77 785.815 459.031 785.815ZM475.995 819.636C474.262 819.636 472.771 819.409 471.521 818.955C470.28 818.5 469.267 817.899 468.481 817.151C467.695 816.402 467.108 815.583 466.719 814.693L470.37 813.188C470.626 813.604 470.967 814.045 471.393 814.509C471.828 814.982 472.415 815.384 473.154 815.716C473.902 816.047 474.863 816.213 476.038 816.213C477.647 816.213 478.978 815.82 480.029 815.034C481.08 814.258 481.606 813.017 481.606 811.312V807.023H481.336C481.08 807.487 480.711 808.003 480.228 808.571C479.754 809.139 479.101 809.632 478.268 810.048C477.434 810.465 476.35 810.673 475.015 810.673C473.291 810.673 471.738 810.271 470.356 809.466C468.983 808.652 467.894 807.454 467.089 805.872C466.293 804.281 465.896 802.326 465.896 800.006C465.896 797.686 466.289 795.697 467.075 794.04C467.87 792.383 468.959 791.114 470.342 790.233C471.724 789.343 473.291 788.898 475.043 788.898C476.397 788.898 477.491 789.125 478.325 789.58C479.158 790.025 479.807 790.545 480.271 791.142C480.744 791.739 481.109 792.264 481.364 792.719H481.677V789.182H485.839V811.483C485.839 813.358 485.403 814.897 484.532 816.099C483.661 817.302 482.482 818.192 480.995 818.77C479.518 819.348 477.851 819.636 475.995 819.636ZM475.952 807.151C477.174 807.151 478.206 806.866 479.049 806.298C479.901 805.721 480.545 804.897 480.981 803.827C481.426 802.747 481.648 801.455 481.648 799.949C481.648 798.481 481.431 797.188 480.995 796.071C480.559 794.954 479.92 794.082 479.077 793.457C478.235 792.823 477.193 792.506 475.952 792.506C474.674 792.506 473.609 792.837 472.756 793.5C471.904 794.153 471.26 795.044 470.825 796.17C470.398 797.297 470.185 798.557 470.185 799.949C470.185 801.379 470.403 802.634 470.839 803.713C471.274 804.793 471.918 805.635 472.771 806.241C473.632 806.848 474.693 807.151 475.952 807.151ZM491.535 811V789.182H495.782V811H491.535ZM493.68 785.815C492.941 785.815 492.307 785.569 491.776 785.077C491.255 784.575 490.995 783.978 490.995 783.287C490.995 782.586 491.255 781.99 491.776 781.497C492.307 780.995 492.941 780.744 493.68 780.744C494.418 780.744 495.048 780.995 495.569 781.497C496.099 781.99 496.364 782.586 496.364 783.287C496.364 783.978 496.099 784.575 495.569 785.077C495.048 785.569 494.418 785.815 493.68 785.815ZM511.68 789.182V792.591H499.763V789.182H511.68ZM502.959 783.955H507.206V804.594C507.206 805.418 507.329 806.038 507.575 806.455C507.821 806.862 508.139 807.141 508.527 807.293C508.925 807.435 509.356 807.506 509.82 807.506C510.161 807.506 510.459 807.482 510.714 807.435C510.97 807.387 511.169 807.349 511.311 807.321L512.078 810.83C511.832 810.924 511.482 811.019 511.027 811.114C510.572 811.218 510.004 811.275 509.322 811.284C508.205 811.303 507.163 811.104 506.197 810.688C505.232 810.271 504.45 809.627 503.854 808.756C503.257 807.884 502.959 806.791 502.959 805.474V783.955ZM522.728 811.483C521.345 811.483 520.095 811.227 518.978 810.716C517.861 810.195 516.975 809.442 516.322 808.457C515.678 807.473 515.356 806.265 515.356 804.835C515.356 803.604 515.593 802.591 516.066 801.795C516.54 801 517.179 800.37 517.984 799.906C518.789 799.442 519.688 799.092 520.683 798.855C521.677 798.618 522.69 798.438 523.722 798.315C525.029 798.164 526.09 798.041 526.904 797.946C527.719 797.842 528.31 797.676 528.68 797.449C529.049 797.222 529.234 796.852 529.234 796.341V796.241C529.234 795.001 528.883 794.04 528.183 793.358C527.491 792.676 526.459 792.335 525.086 792.335C523.656 792.335 522.529 792.652 521.705 793.287C520.891 793.912 520.327 794.608 520.015 795.375L516.023 794.466C516.497 793.14 517.188 792.07 518.097 791.256C519.016 790.432 520.072 789.835 521.265 789.466C522.458 789.087 523.713 788.898 525.029 788.898C525.9 788.898 526.824 789.002 527.799 789.21C528.784 789.409 529.702 789.778 530.555 790.318C531.416 790.858 532.122 791.63 532.671 792.634C533.22 793.628 533.495 794.92 533.495 796.511V811H529.347V808.017H529.177C528.902 808.566 528.49 809.106 527.941 809.636C527.392 810.167 526.686 810.607 525.825 810.957C524.963 811.308 523.931 811.483 522.728 811.483ZM523.651 808.074C524.826 808.074 525.829 807.842 526.663 807.378C527.505 806.914 528.145 806.308 528.58 805.56C529.025 804.802 529.248 803.992 529.248 803.131V800.318C529.096 800.47 528.803 800.612 528.367 800.744C527.941 800.867 527.453 800.976 526.904 801.071C526.355 801.156 525.82 801.237 525.299 801.312C524.778 801.379 524.343 801.436 523.992 801.483C523.168 801.587 522.415 801.762 521.734 802.009C521.061 802.255 520.522 802.61 520.114 803.074C519.717 803.528 519.518 804.134 519.518 804.892C519.518 805.943 519.906 806.739 520.683 807.278C521.459 807.809 522.449 808.074 523.651 808.074ZM543.399 781.909V811H539.152V781.909H543.399ZM560.04 811V781.909H570.409C572.672 781.909 574.547 782.321 576.034 783.145C577.521 783.969 578.634 785.096 579.372 786.526C580.111 787.946 580.48 789.546 580.48 791.327C580.48 793.116 580.106 794.726 579.358 796.156C578.619 797.577 577.502 798.704 576.006 799.537C574.519 800.361 572.649 800.773 570.395 800.773H563.264V797.051H569.997C571.427 797.051 572.587 796.805 573.477 796.312C574.367 795.811 575.021 795.129 575.438 794.267C575.854 793.405 576.062 792.425 576.062 791.327C576.062 790.228 575.854 789.253 575.438 788.401C575.021 787.548 574.363 786.881 573.463 786.398C572.573 785.915 571.399 785.673 569.94 785.673H564.429V811H560.04ZM591.439 811.483C590.056 811.483 588.806 811.227 587.689 810.716C586.571 810.195 585.686 809.442 585.033 808.457C584.389 807.473 584.067 806.265 584.067 804.835C584.067 803.604 584.304 802.591 584.777 801.795C585.25 801 585.89 800.37 586.695 799.906C587.5 799.442 588.399 799.092 589.393 798.855C590.388 798.618 591.401 798.438 592.433 798.315C593.74 798.164 594.801 798.041 595.615 797.946C596.429 797.842 597.021 797.676 597.391 797.449C597.76 797.222 597.945 796.852 597.945 796.341V796.241C597.945 795.001 597.594 794.04 596.893 793.358C596.202 792.676 595.17 792.335 593.797 792.335C592.367 792.335 591.24 792.652 590.416 793.287C589.602 793.912 589.038 794.608 588.726 795.375L584.734 794.466C585.208 793.14 585.899 792.07 586.808 791.256C587.727 790.432 588.783 789.835 589.976 789.466C591.169 789.087 592.424 788.898 593.74 788.898C594.611 788.898 595.535 789.002 596.51 789.21C597.495 789.409 598.413 789.778 599.266 790.318C600.127 790.858 600.833 791.63 601.382 792.634C601.931 793.628 602.206 794.92 602.206 796.511V811H598.058V808.017H597.888C597.613 808.566 597.201 809.106 596.652 809.636C596.103 810.167 595.397 810.607 594.536 810.957C593.674 811.308 592.642 811.483 591.439 811.483ZM592.362 808.074C593.536 808.074 594.54 807.842 595.374 807.378C596.216 806.914 596.856 806.308 597.291 805.56C597.736 804.802 597.959 803.992 597.959 803.131V800.318C597.807 800.47 597.514 800.612 597.078 800.744C596.652 800.867 596.164 800.976 595.615 801.071C595.066 801.156 594.531 801.237 594.01 801.312C593.489 801.379 593.054 801.436 592.703 801.483C591.879 801.587 591.126 801.762 590.445 802.009C589.772 802.255 589.232 802.61 588.825 803.074C588.428 803.528 588.229 804.134 588.229 804.892C588.229 805.943 588.617 806.739 589.393 807.278C590.17 807.809 591.16 808.074 592.362 808.074ZM609.766 819.182C609.132 819.182 608.554 819.13 608.033 819.026C607.513 818.931 607.124 818.827 606.869 818.713L607.891 815.233C608.668 815.441 609.359 815.531 609.965 815.503C610.571 815.474 611.106 815.247 611.57 814.821C612.044 814.395 612.46 813.699 612.82 812.733L613.346 811.284L605.363 789.182H609.908L615.434 806.114H615.661L621.187 789.182H625.746L616.755 813.912C616.338 815.048 615.808 816.009 615.164 816.795C614.52 817.591 613.753 818.188 612.863 818.585C611.973 818.983 610.941 819.182 609.766 819.182ZM629.738 811V789.182H633.815V792.733H634.085C634.539 791.53 635.282 790.593 636.315 789.92C637.347 789.239 638.583 788.898 640.022 788.898C641.48 788.898 642.702 789.239 643.687 789.92C644.681 790.602 645.415 791.54 645.888 792.733H646.116C646.637 791.568 647.465 790.64 648.602 789.949C649.738 789.248 651.092 788.898 652.664 788.898C654.643 788.898 656.258 789.518 657.508 790.759C658.767 791.999 659.397 793.869 659.397 796.369V811H655.15V796.767C655.15 795.29 654.747 794.22 653.942 793.557C653.138 792.894 652.176 792.562 651.059 792.562C649.676 792.562 648.602 792.989 647.835 793.841C647.067 794.684 646.684 795.768 646.684 797.094V811H642.451V796.497C642.451 795.313 642.082 794.362 641.343 793.642C640.604 792.922 639.643 792.562 638.46 792.562C637.655 792.562 636.911 792.776 636.229 793.202C635.557 793.618 635.013 794.201 634.596 794.949C634.189 795.697 633.985 796.563 633.985 797.548V811H629.738ZM674.493 811.44C672.343 811.44 670.492 810.981 668.939 810.062C667.395 809.134 666.202 807.832 665.359 806.156C664.526 804.471 664.109 802.496 664.109 800.233C664.109 797.998 664.526 796.028 665.359 794.324C666.202 792.619 667.376 791.289 668.882 790.332C670.397 789.376 672.168 788.898 674.195 788.898C675.426 788.898 676.619 789.101 677.774 789.509C678.929 789.916 679.966 790.555 680.885 791.426C681.804 792.297 682.528 793.429 683.058 794.821C683.589 796.204 683.854 797.884 683.854 799.864V801.369H666.51V798.188H679.692C679.692 797.07 679.464 796.08 679.01 795.219C678.555 794.348 677.916 793.661 677.092 793.159C676.278 792.657 675.321 792.406 674.223 792.406C673.03 792.406 671.988 792.7 671.098 793.287C670.217 793.865 669.536 794.622 669.053 795.56C668.579 796.488 668.342 797.496 668.342 798.585V801.071C668.342 802.529 668.598 803.77 669.109 804.793C669.63 805.815 670.355 806.597 671.283 807.136C672.211 807.667 673.295 807.932 674.536 807.932C675.34 807.932 676.074 807.818 676.737 807.591C677.4 807.354 677.973 807.004 678.456 806.54C678.939 806.076 679.308 805.503 679.564 804.821L683.584 805.545C683.262 806.729 682.684 807.766 681.851 808.656C681.027 809.537 679.99 810.223 678.74 810.716C677.5 811.199 676.084 811.44 674.493 811.44ZM692.813 798.045V811H688.566V789.182H692.643V792.733H692.913C693.415 791.578 694.201 790.65 695.271 789.949C696.35 789.248 697.709 788.898 699.347 788.898C700.834 788.898 702.136 789.21 703.254 789.835C704.371 790.451 705.237 791.369 705.853 792.591C706.469 793.812 706.776 795.323 706.776 797.122V811H702.529V797.634C702.529 796.052 702.117 794.816 701.293 793.926C700.469 793.027 699.338 792.577 697.898 792.577C696.914 792.577 696.038 792.79 695.271 793.216C694.513 793.642 693.912 794.267 693.467 795.091C693.031 795.905 692.813 796.89 692.813 798.045ZM722.657 789.182V792.591H710.739V789.182H722.657ZM713.935 783.955H718.183V804.594C718.183 805.418 718.306 806.038 718.552 806.455C718.798 806.862 719.115 807.141 719.504 807.293C719.901 807.435 720.332 807.506 720.796 807.506C721.137 807.506 721.435 807.482 721.691 807.435C721.947 807.387 722.146 807.349 722.288 807.321L723.055 810.83C722.808 810.924 722.458 811.019 722.004 811.114C721.549 811.218 720.981 811.275 720.299 811.284C719.182 811.303 718.14 811.104 717.174 810.688C716.208 810.271 715.427 809.627 714.83 808.756C714.234 807.884 713.935 806.791 713.935 805.474V783.955ZM743.353 794.509L739.504 795.19C739.343 794.698 739.087 794.229 738.737 793.784C738.396 793.339 737.932 792.974 737.344 792.69C736.757 792.406 736.023 792.264 735.143 792.264C733.94 792.264 732.936 792.534 732.131 793.074C731.326 793.604 730.924 794.291 730.924 795.134C730.924 795.863 731.194 796.45 731.734 796.895C732.273 797.34 733.145 797.705 734.347 797.989L737.813 798.784C739.821 799.248 741.317 799.963 742.302 800.929C743.287 801.895 743.779 803.15 743.779 804.693C743.779 806 743.4 807.165 742.643 808.188C741.895 809.201 740.848 809.996 739.504 810.574C738.168 811.152 736.62 811.44 734.859 811.44C732.415 811.44 730.422 810.92 728.879 809.878C727.335 808.827 726.388 807.335 726.038 805.403L730.143 804.778C730.398 805.848 730.924 806.658 731.719 807.207C732.515 807.747 733.552 808.017 734.83 808.017C736.222 808.017 737.335 807.728 738.168 807.151C739.002 806.563 739.418 805.848 739.418 805.006C739.418 804.324 739.163 803.751 738.651 803.287C738.149 802.823 737.378 802.473 736.336 802.236L732.643 801.426C730.607 800.962 729.101 800.223 728.126 799.21C727.16 798.197 726.677 796.914 726.677 795.361C726.677 794.073 727.037 792.946 727.756 791.98C728.476 791.014 729.47 790.261 730.739 789.722C732.008 789.172 733.462 788.898 735.1 788.898C737.458 788.898 739.314 789.409 740.668 790.432C742.022 791.445 742.917 792.804 743.353 794.509ZM759.035 811V789.182H763.282V811H759.035ZM761.18 785.815C760.441 785.815 759.807 785.569 759.276 785.077C758.755 784.575 758.495 783.978 758.495 783.287C758.495 782.586 758.755 781.99 759.276 781.497C759.807 780.995 760.441 780.744 761.18 780.744C761.918 780.744 762.548 780.995 763.069 781.497C763.599 781.99 763.864 782.586 763.864 783.287C763.864 783.978 763.599 784.575 763.069 785.077C762.548 785.569 761.918 785.815 761.18 785.815ZM773.243 798.045V811H768.996V789.182H773.072V792.733H773.342C773.844 791.578 774.63 790.65 775.7 789.949C776.78 789.248 778.139 788.898 779.777 788.898C781.264 788.898 782.566 789.21 783.683 789.835C784.801 790.451 785.667 791.369 786.283 792.591C786.898 793.812 787.206 795.323 787.206 797.122V811H782.959V797.634C782.959 796.052 782.547 794.816 781.723 793.926C780.899 793.027 779.768 792.577 778.328 792.577C777.343 792.577 776.467 792.79 775.7 793.216C774.943 793.642 774.341 794.267 773.896 795.091C773.461 795.905 773.243 796.89 773.243 798.045ZM808.218 781.909V811H803.829V781.909H808.218ZM818.516 798.045V811H814.269V789.182H818.346V792.733H818.616C819.118 791.578 819.904 790.65 820.974 789.949C822.053 789.248 823.412 788.898 825.05 788.898C826.537 788.898 827.839 789.21 828.957 789.835C830.074 790.451 830.941 791.369 831.556 792.591C832.172 793.812 832.479 795.323 832.479 797.122V811H828.232V797.634C828.232 796.052 827.82 794.816 826.996 793.926C826.173 793.027 825.041 792.577 823.602 792.577C822.617 792.577 821.741 792.79 820.974 793.216C820.216 793.642 819.615 794.267 819.17 795.091C818.734 795.905 818.516 796.89 818.516 798.045ZM846.343 811.426C844.582 811.426 843.01 810.976 841.627 810.077C840.254 809.168 839.174 807.875 838.388 806.199C837.612 804.513 837.224 802.491 837.224 800.134C837.224 797.776 837.617 795.759 838.403 794.082C839.198 792.406 840.287 791.123 841.67 790.233C843.052 789.343 844.62 788.898 846.371 788.898C847.726 788.898 848.815 789.125 849.638 789.58C850.472 790.025 851.116 790.545 851.57 791.142C852.034 791.739 852.394 792.264 852.65 792.719H852.906V781.909H857.153V811H853.005V807.605H852.65C852.394 808.069 852.025 808.599 851.542 809.196C851.068 809.793 850.415 810.313 849.582 810.759C848.748 811.204 847.669 811.426 846.343 811.426ZM847.281 807.804C848.502 807.804 849.534 807.482 850.377 806.838C851.229 806.185 851.873 805.28 852.309 804.125C852.754 802.97 852.977 801.625 852.977 800.091C852.977 798.576 852.759 797.25 852.323 796.114C851.888 794.977 851.248 794.092 850.406 793.457C849.563 792.823 848.521 792.506 847.281 792.506C846.002 792.506 844.937 792.837 844.085 793.5C843.232 794.163 842.588 795.067 842.153 796.213C841.727 797.359 841.513 798.652 841.513 800.091C841.513 801.549 841.731 802.861 842.167 804.026C842.603 805.19 843.246 806.114 844.099 806.795C844.96 807.468 846.021 807.804 847.281 807.804ZM863.214 811V789.182H867.462V811H863.214ZM865.359 785.815C864.621 785.815 863.986 785.569 863.456 785.077C862.935 784.575 862.675 783.978 862.675 783.287C862.675 782.586 862.935 781.99 863.456 781.497C863.986 780.995 864.621 780.744 865.359 780.744C866.098 780.744 866.728 780.995 867.249 781.497C867.779 781.99 868.044 782.586 868.044 783.287C868.044 783.978 867.779 784.575 867.249 785.077C866.728 785.569 866.098 785.815 865.359 785.815ZM879.525 811.483C878.142 811.483 876.892 811.227 875.775 810.716C874.657 810.195 873.772 809.442 873.119 808.457C872.475 807.473 872.153 806.265 872.153 804.835C872.153 803.604 872.389 802.591 872.863 801.795C873.336 801 873.976 800.37 874.781 799.906C875.585 799.442 876.485 799.092 877.479 798.855C878.474 798.618 879.487 798.438 880.519 798.315C881.826 798.164 882.887 798.041 883.701 797.946C884.515 797.842 885.107 797.676 885.477 797.449C885.846 797.222 886.031 796.852 886.031 796.341V796.241C886.031 795.001 885.68 794.04 884.979 793.358C884.288 792.676 883.256 792.335 881.883 792.335C880.453 792.335 879.326 792.652 878.502 793.287C877.688 793.912 877.124 794.608 876.812 795.375L872.82 794.466C873.294 793.14 873.985 792.07 874.894 791.256C875.813 790.432 876.869 789.835 878.062 789.466C879.255 789.087 880.51 788.898 881.826 788.898C882.697 788.898 883.621 789.002 884.596 789.21C885.581 789.409 886.499 789.778 887.352 790.318C888.213 790.858 888.919 791.63 889.468 792.634C890.017 793.628 890.292 794.92 890.292 796.511V811H886.144V808.017H885.974C885.699 808.566 885.287 809.106 884.738 809.636C884.189 810.167 883.483 810.607 882.621 810.957C881.76 811.308 880.728 811.483 879.525 811.483ZM880.448 808.074C881.622 808.074 882.626 807.842 883.46 807.378C884.302 806.914 884.942 806.308 885.377 805.56C885.822 804.802 886.045 803.992 886.045 803.131V800.318C885.893 800.47 885.6 800.612 885.164 800.744C884.738 800.867 884.25 800.976 883.701 801.071C883.152 801.156 882.617 801.237 882.096 801.312C881.575 801.379 881.139 801.436 880.789 801.483C879.965 801.587 879.212 801.762 878.531 802.009C877.858 802.255 877.318 802.61 876.911 803.074C876.513 803.528 876.315 804.134 876.315 804.892C876.315 805.943 876.703 806.739 877.479 807.278C878.256 807.809 879.246 808.074 880.448 808.074Z" fill="white"/>
<path d="M148.307 831.455H150.068V841.085C150.068 842.08 149.834 842.967 149.365 843.749C148.901 844.525 148.245 845.138 147.398 845.588C146.55 846.033 145.556 846.256 144.415 846.256C143.274 846.256 142.279 846.033 141.432 845.588C140.584 845.138 139.926 844.525 139.457 843.749C138.993 842.967 138.761 842.08 138.761 841.085V831.455H140.523V840.943C140.523 841.653 140.679 842.286 140.991 842.839C141.304 843.389 141.749 843.822 142.327 844.139C142.909 844.452 143.605 844.608 144.415 844.608C145.224 844.608 145.92 844.452 146.503 844.139C147.085 843.822 147.53 843.389 147.838 842.839C148.151 842.286 148.307 841.653 148.307 840.943V831.455ZM153.358 850.091V835.091H154.978V836.824H155.176C155.3 836.634 155.47 836.393 155.688 836.099C155.91 835.801 156.228 835.536 156.64 835.304C157.056 835.067 157.62 834.949 158.33 834.949C159.248 834.949 160.058 835.179 160.759 835.638C161.46 836.097 162.007 836.748 162.4 837.591C162.792 838.434 162.989 839.428 162.989 840.574C162.989 841.729 162.792 842.731 162.4 843.578C162.007 844.421 161.462 845.074 160.766 845.538C160.07 845.998 159.267 846.227 158.358 846.227C157.658 846.227 157.096 846.111 156.675 845.879C156.254 845.643 155.929 845.375 155.702 845.077C155.475 844.774 155.3 844.523 155.176 844.324H155.034V850.091H153.358ZM155.006 840.545C155.006 841.369 155.127 842.096 155.368 842.726C155.61 843.351 155.962 843.841 156.426 844.196C156.891 844.546 157.459 844.722 158.131 844.722C158.832 844.722 159.417 844.537 159.885 844.168C160.359 843.794 160.714 843.292 160.951 842.662C161.192 842.027 161.313 841.322 161.313 840.545C161.313 839.778 161.194 839.087 160.958 838.472C160.726 837.851 160.373 837.361 159.9 837.001C159.431 836.637 158.841 836.455 158.131 836.455C157.449 836.455 156.876 836.627 156.412 836.973C155.948 837.314 155.598 837.792 155.361 838.408C155.124 839.018 155.006 839.731 155.006 840.545ZM169.665 846.227C168.756 846.227 167.953 845.998 167.257 845.538C166.561 845.074 166.017 844.421 165.624 843.578C165.231 842.731 165.034 841.729 165.034 840.574C165.034 839.428 165.231 838.434 165.624 837.591C166.017 836.748 166.564 836.097 167.265 835.638C167.965 835.179 168.775 834.949 169.694 834.949C170.404 834.949 170.965 835.067 171.377 835.304C171.793 835.536 172.111 835.801 172.328 836.099C172.551 836.393 172.724 836.634 172.847 836.824H172.989V831.455H174.665V846H173.046V844.324H172.847C172.724 844.523 172.549 844.774 172.321 845.077C172.094 845.375 171.77 845.643 171.348 845.879C170.927 846.111 170.366 846.227 169.665 846.227ZM169.892 844.722C170.565 844.722 171.133 844.546 171.597 844.196C172.061 843.841 172.414 843.351 172.655 842.726C172.897 842.096 173.017 841.369 173.017 840.545C173.017 839.731 172.899 839.018 172.662 838.408C172.426 837.792 172.075 837.314 171.611 836.973C171.147 836.627 170.574 836.455 169.892 836.455C169.182 836.455 168.59 836.637 168.117 837.001C167.648 837.361 167.295 837.851 167.059 838.472C166.827 839.087 166.711 839.778 166.711 840.545C166.711 841.322 166.829 842.027 167.066 842.662C167.307 843.292 167.662 843.794 168.131 844.168C168.605 844.537 169.192 844.722 169.892 844.722ZM181.178 846.256C180.487 846.256 179.859 846.125 179.296 845.865C178.732 845.6 178.285 845.219 177.953 844.722C177.622 844.22 177.456 843.614 177.456 842.903C177.456 842.278 177.579 841.772 177.826 841.384C178.072 840.991 178.401 840.683 178.813 840.46C179.225 840.238 179.679 840.072 180.176 839.963C180.678 839.849 181.183 839.759 181.689 839.693C182.352 839.608 182.89 839.544 183.301 839.501C183.718 839.454 184.021 839.376 184.211 839.267C184.405 839.158 184.502 838.969 184.502 838.699V838.642C184.502 837.941 184.31 837.397 183.926 837.009C183.548 836.62 182.972 836.426 182.201 836.426C181.4 836.426 180.773 836.601 180.319 836.952C179.864 837.302 179.544 837.676 179.36 838.074L177.769 837.506C178.053 836.843 178.432 836.327 178.905 835.957C179.383 835.583 179.904 835.323 180.468 835.176C181.036 835.025 181.595 834.949 182.144 834.949C182.494 834.949 182.897 834.991 183.351 835.077C183.81 835.157 184.253 835.325 184.679 835.581C185.11 835.837 185.468 836.223 185.752 836.739C186.036 837.255 186.178 837.946 186.178 838.812V846H184.502V844.523H184.417C184.303 844.759 184.114 845.013 183.848 845.283C183.583 845.553 183.23 845.782 182.79 845.972C182.35 846.161 181.812 846.256 181.178 846.256ZM181.434 844.75C182.096 844.75 182.655 844.62 183.11 844.359C183.569 844.099 183.915 843.763 184.147 843.351C184.383 842.939 184.502 842.506 184.502 842.051V840.517C184.431 840.602 184.275 840.68 184.033 840.751C183.796 840.818 183.522 840.877 183.209 840.929C182.901 840.976 182.601 841.019 182.307 841.057C182.018 841.09 181.784 841.118 181.604 841.142C181.168 841.199 180.761 841.291 180.382 841.419C180.008 841.542 179.705 841.729 179.473 841.98C179.246 842.226 179.132 842.562 179.132 842.989C179.132 843.571 179.348 844.011 179.779 844.31C180.214 844.603 180.766 844.75 181.434 844.75ZM193.982 835.091V836.511H188.328V835.091H193.982ZM189.976 832.477H191.652V842.875C191.652 843.348 191.721 843.704 191.858 843.94C192 844.172 192.18 844.329 192.398 844.409C192.62 844.485 192.855 844.523 193.101 844.523C193.286 844.523 193.437 844.513 193.555 844.494C193.674 844.471 193.768 844.452 193.839 844.438L194.18 845.943C194.067 845.986 193.908 846.028 193.705 846.071C193.501 846.118 193.243 846.142 192.93 846.142C192.457 846.142 191.993 846.04 191.538 845.837C191.089 845.633 190.714 845.323 190.416 844.906C190.123 844.49 189.976 843.964 189.976 843.33V832.477ZM200.96 846.227C199.908 846.227 199.002 845.995 198.239 845.531C197.482 845.062 196.897 844.409 196.485 843.571C196.078 842.728 195.874 841.748 195.874 840.631C195.874 839.513 196.078 838.528 196.485 837.676C196.897 836.819 197.47 836.152 198.204 835.673C198.942 835.19 199.804 834.949 200.789 834.949C201.357 834.949 201.918 835.044 202.472 835.233C203.026 835.422 203.531 835.73 203.985 836.156C204.44 836.578 204.802 837.136 205.072 837.832C205.342 838.528 205.477 839.385 205.477 840.403V841.114H197.067V839.665H203.772C203.772 839.049 203.649 838.5 203.403 838.017C203.161 837.534 202.816 837.153 202.366 836.874C201.921 836.594 201.395 836.455 200.789 836.455C200.121 836.455 199.544 836.62 199.056 836.952C198.573 837.278 198.201 837.705 197.941 838.23C197.681 838.756 197.55 839.319 197.55 839.92V840.886C197.55 841.71 197.692 842.409 197.977 842.982C198.265 843.55 198.665 843.983 199.177 844.281C199.688 844.575 200.282 844.722 200.96 844.722C201.4 844.722 201.798 844.66 202.153 844.537C202.513 844.409 202.823 844.22 203.083 843.969C203.344 843.713 203.545 843.396 203.687 843.017L205.306 843.472C205.136 844.021 204.849 844.504 204.447 844.92C204.044 845.332 203.547 845.654 202.955 845.886C202.363 846.114 201.698 846.227 200.96 846.227ZM212.146 846.227C211.237 846.227 210.434 845.998 209.738 845.538C209.042 845.074 208.497 844.421 208.104 843.578C207.711 842.731 207.515 841.729 207.515 840.574C207.515 839.428 207.711 838.434 208.104 837.591C208.497 836.748 209.044 836.097 209.745 835.638C210.446 835.179 211.255 834.949 212.174 834.949C212.884 834.949 213.445 835.067 213.857 835.304C214.274 835.536 214.591 835.801 214.809 836.099C215.031 836.393 215.204 836.634 215.327 836.824H215.469V831.455H217.146V846H215.526V844.324H215.327C215.204 844.523 215.029 844.774 214.802 845.077C214.575 845.375 214.25 845.643 213.829 845.879C213.407 846.111 212.846 846.227 212.146 846.227ZM212.373 844.722C213.045 844.722 213.613 844.546 214.077 844.196C214.541 843.841 214.894 843.351 215.136 842.726C215.377 842.096 215.498 841.369 215.498 840.545C215.498 839.731 215.379 839.018 215.143 838.408C214.906 837.792 214.556 837.314 214.092 836.973C213.628 836.627 213.055 836.455 212.373 836.455C211.663 836.455 211.071 836.637 210.597 837.001C210.129 837.361 209.776 837.851 209.539 838.472C209.307 839.087 209.191 839.778 209.191 840.545C209.191 841.322 209.309 842.027 209.546 842.662C209.788 843.292 210.143 843.794 210.612 844.168C211.085 844.537 211.672 844.722 212.373 844.722ZM230.505 846.227C229.52 846.227 228.656 845.993 227.913 845.524C227.174 845.055 226.596 844.4 226.18 843.557C225.768 842.714 225.562 841.729 225.562 840.602C225.562 839.466 225.768 838.474 226.18 837.626C226.596 836.779 227.174 836.121 227.913 835.652C228.656 835.183 229.52 834.949 230.505 834.949C231.49 834.949 232.352 835.183 233.09 835.652C233.834 836.121 234.411 836.779 234.823 837.626C235.24 838.474 235.448 839.466 235.448 840.602C235.448 841.729 235.24 842.714 234.823 843.557C234.411 844.4 233.834 845.055 233.09 845.524C232.352 845.993 231.49 846.227 230.505 846.227ZM230.505 844.722C231.253 844.722 231.869 844.53 232.352 844.146C232.835 843.763 233.192 843.259 233.424 842.634C233.656 842.009 233.772 841.331 233.772 840.602C233.772 839.873 233.656 839.194 233.424 838.564C233.192 837.934 232.835 837.425 232.352 837.037C231.869 836.649 231.253 836.455 230.505 836.455C229.757 836.455 229.141 836.649 228.658 837.037C228.175 837.425 227.818 837.934 227.586 838.564C227.354 839.194 227.238 839.873 227.238 840.602C227.238 841.331 227.354 842.009 227.586 842.634C227.818 843.259 228.175 843.763 228.658 844.146C229.141 844.53 229.757 844.722 230.505 844.722ZM239.683 839.438V846H238.007V835.091H239.626V836.795H239.768C240.024 836.241 240.412 835.796 240.933 835.46C241.454 835.119 242.126 834.949 242.95 834.949C243.689 834.949 244.335 835.1 244.889 835.403C245.443 835.702 245.874 836.156 246.181 836.767C246.489 837.373 246.643 838.14 246.643 839.068V846H244.967V839.182C244.967 838.325 244.744 837.657 244.299 837.179C243.854 836.696 243.243 836.455 242.467 836.455C241.932 836.455 241.454 836.571 241.032 836.803C240.616 837.035 240.287 837.373 240.045 837.818C239.804 838.263 239.683 838.803 239.683 839.438ZM254.962 843.017V841.568L261.354 831.455H262.405V833.699H261.695L256.865 841.341V841.455H265.473V843.017H254.962ZM261.808 846V842.577V841.902V831.455H263.484V846H261.808ZM279.583 831.455H281.345V841.852C281.345 842.78 281.174 843.569 280.833 844.217C280.493 844.866 280.012 845.358 279.392 845.695C278.771 846.031 278.04 846.199 277.197 846.199C276.402 846.199 275.694 846.054 275.074 845.766C274.453 845.472 273.966 845.055 273.61 844.516C273.255 843.976 273.078 843.334 273.078 842.591H274.811C274.811 843.003 274.913 843.363 275.116 843.67C275.324 843.973 275.609 844.21 275.968 844.381C276.328 844.551 276.738 844.636 277.197 844.636C277.704 844.636 278.135 844.53 278.49 844.317C278.845 844.104 279.115 843.791 279.299 843.379C279.489 842.963 279.583 842.454 279.583 841.852V831.455ZM291.522 841.54V835.091H293.199V846H291.522V844.153H291.409C291.153 844.707 290.755 845.179 290.216 845.567C289.676 845.95 288.994 846.142 288.17 846.142C287.488 846.142 286.882 845.993 286.352 845.695C285.822 845.392 285.405 844.937 285.102 844.331C284.799 843.72 284.647 842.951 284.647 842.023V835.091H286.324V841.909C286.324 842.705 286.546 843.339 286.991 843.812C287.441 844.286 288.014 844.523 288.71 844.523C289.127 844.523 289.55 844.416 289.981 844.203C290.417 843.99 290.781 843.663 291.075 843.223C291.373 842.783 291.522 842.222 291.522 841.54ZM297.945 831.455V846H296.268V831.455H297.945ZM302.094 850.091C301.81 850.091 301.557 850.067 301.334 850.02C301.112 849.977 300.958 849.935 300.873 849.892L301.299 848.415C301.706 848.519 302.066 848.557 302.378 848.528C302.691 848.5 302.968 848.36 303.209 848.109C303.455 847.863 303.68 847.463 303.884 846.909L304.196 846.057L300.162 835.091H301.98L304.992 843.784H305.105L308.117 835.091H309.935L305.304 847.591C305.096 848.154 304.838 848.621 304.53 848.99C304.222 849.364 303.865 849.641 303.458 849.821C303.055 850.001 302.601 850.091 302.094 850.091ZM317.744 846V844.722L322.545 839.466C323.109 838.85 323.573 838.315 323.937 837.861C324.302 837.402 324.572 836.971 324.747 836.568C324.927 836.161 325.017 835.735 325.017 835.29C325.017 834.778 324.894 834.336 324.647 833.962C324.406 833.588 324.074 833.299 323.653 833.095C323.232 832.892 322.758 832.79 322.233 832.79C321.674 832.79 321.186 832.906 320.77 833.138C320.358 833.365 320.038 833.685 319.811 834.097C319.588 834.509 319.477 834.991 319.477 835.545H317.801C317.801 834.693 317.997 833.945 318.39 833.301C318.783 832.657 319.318 832.155 319.995 831.795C320.677 831.436 321.442 831.256 322.289 831.256C323.142 831.256 323.897 831.436 324.555 831.795C325.213 832.155 325.729 832.641 326.103 833.251C326.477 833.862 326.664 834.542 326.664 835.29C326.664 835.825 326.567 836.348 326.373 836.859C326.184 837.366 325.852 837.932 325.379 838.557C324.91 839.177 324.259 839.935 323.426 840.83L320.159 844.324V844.438H326.92V846H317.744ZM334.598 846.199C333.528 846.199 332.616 845.908 331.863 845.325C331.11 844.738 330.535 843.888 330.137 842.776C329.74 841.658 329.541 840.309 329.541 838.727C329.541 837.155 329.74 835.813 330.137 834.7C330.54 833.583 331.118 832.731 331.87 832.143C332.628 831.552 333.537 831.256 334.598 831.256C335.658 831.256 336.565 831.552 337.318 832.143C338.075 832.731 338.653 833.583 339.051 834.7C339.453 835.813 339.654 837.155 339.654 838.727C339.654 840.309 339.456 841.658 339.058 842.776C338.66 843.888 338.085 844.738 337.332 845.325C336.579 845.908 335.668 846.199 334.598 846.199ZM334.598 844.636C335.658 844.636 336.482 844.125 337.069 843.102C337.656 842.08 337.95 840.621 337.95 838.727C337.95 837.468 337.815 836.395 337.545 835.51C337.28 834.625 336.896 833.95 336.395 833.486C335.897 833.022 335.298 832.79 334.598 832.79C333.547 832.79 332.725 833.308 332.133 834.345C331.541 835.377 331.245 836.838 331.245 838.727C331.245 839.987 331.378 841.057 331.643 841.938C331.908 842.818 332.289 843.488 332.787 843.947C333.288 844.407 333.892 844.636 334.598 844.636ZM342.353 846V844.722L347.154 839.466C347.718 838.85 348.182 838.315 348.547 837.861C348.911 837.402 349.181 836.971 349.356 836.568C349.536 836.161 349.626 835.735 349.626 835.29C349.626 834.778 349.503 834.336 349.257 833.962C349.015 833.588 348.684 833.299 348.262 833.095C347.841 832.892 347.368 832.79 346.842 832.79C346.283 832.79 345.796 832.906 345.379 833.138C344.967 833.365 344.647 833.685 344.42 834.097C344.198 834.509 344.086 834.991 344.086 835.545H342.41C342.41 834.693 342.607 833.945 343 833.301C343.393 832.657 343.928 832.155 344.605 831.795C345.287 831.436 346.051 831.256 346.899 831.256C347.751 831.256 348.506 831.436 349.164 831.795C349.823 832.155 350.339 832.641 350.713 833.251C351.087 833.862 351.274 834.542 351.274 835.29C351.274 835.825 351.177 836.348 350.983 836.859C350.793 837.366 350.462 837.932 349.988 838.557C349.52 839.177 348.868 839.935 348.035 840.83L344.768 844.324V844.438H351.529V846H342.353ZM354.463 846V844.722L359.264 839.466C359.827 838.85 360.291 838.315 360.656 837.861C361.02 837.402 361.29 836.971 361.466 836.568C361.645 836.161 361.735 835.735 361.735 835.29C361.735 834.778 361.612 834.336 361.366 833.962C361.125 833.588 360.793 833.299 360.372 833.095C359.95 832.892 359.477 832.79 358.951 832.79C358.393 832.79 357.905 832.906 357.488 833.138C357.076 833.365 356.757 833.685 356.529 834.097C356.307 834.509 356.196 834.991 356.196 835.545H354.52C354.52 834.693 354.716 833.945 355.109 833.301C355.502 832.657 356.037 832.155 356.714 831.795C357.396 831.436 358.161 831.256 359.008 831.256C359.86 831.256 360.616 831.436 361.274 831.795C361.932 832.155 362.448 832.641 362.822 833.251C363.196 833.862 363.383 834.542 363.383 835.29C363.383 835.825 363.286 836.348 363.092 836.859C362.903 837.366 362.571 837.932 362.098 838.557C361.629 839.177 360.978 839.935 360.145 840.83L356.877 844.324V844.438H363.639V846H354.463Z" fill="white"/>
<path d="M193.019 728.818V709.209H195.566V728.818H193.019ZM194.461 720.609V718.477H204.572V720.609H194.461ZM193.755 711.342V709.209H204.803V711.342H193.755ZM208.057 728.818V713.843H210.542V728.818H208.057ZM209.3 711.388C208.788 711.388 208.405 711.255 208.149 710.989C207.903 710.713 207.781 710.34 207.781 709.869V709.792C207.781 709.312 207.903 708.938 208.149 708.672C208.405 708.406 208.788 708.273 209.3 708.273C209.811 708.273 210.195 708.406 210.45 708.672C210.706 708.938 210.834 709.312 210.834 709.792V709.869C210.834 710.35 210.706 710.723 210.45 710.989C210.195 711.255 209.811 711.388 209.3 711.388ZM220.494 724.338C218.459 724.338 216.894 723.893 215.799 723.003C214.715 722.113 214.173 720.84 214.173 719.182V718.799C214.173 717.766 214.382 716.866 214.802 716.098C215.231 715.331 215.912 714.733 216.842 714.303C217.773 713.863 218.99 713.623 220.494 713.582L228.135 713.337V715.301L223.624 715.147L223.609 715.255C224.315 715.398 224.893 715.643 225.343 715.991C225.793 716.339 226.125 716.774 226.34 717.295C226.565 717.817 226.678 718.426 226.678 719.121V719.459C226.678 721.044 226.156 722.256 225.112 723.095C224.069 723.924 222.53 724.338 220.494 724.338ZM220.387 732.593H220.74C221.66 732.593 222.448 732.521 223.103 732.378C223.767 732.245 224.279 732.03 224.637 731.733C224.995 731.437 225.174 731.043 225.174 730.552V730.491C225.174 729.918 224.964 729.478 224.545 729.171C224.136 728.874 223.43 728.68 222.427 728.588L218.193 728.204L218.898 728.174C218.326 728.256 217.819 728.389 217.379 728.573C216.95 728.757 216.612 728.997 216.367 729.294C216.121 729.601 215.998 729.979 215.998 730.429V730.46C215.998 730.982 216.177 731.401 216.536 731.718C216.894 732.035 217.4 732.26 218.055 732.393C218.709 732.526 219.487 732.593 220.387 732.593ZM220.249 734.572C218.898 734.572 217.732 734.454 216.75 734.219C215.779 733.994 215.022 733.621 214.479 733.099C213.948 732.588 213.682 731.897 213.682 731.028V730.966C213.682 730.352 213.825 729.841 214.111 729.432C214.408 729.023 214.802 728.701 215.293 728.465C215.794 728.23 216.351 728.071 216.965 727.99L216.95 727.898C216.111 727.754 215.492 727.509 215.093 727.161C214.694 726.803 214.495 726.343 214.495 725.78V725.765C214.495 725.376 214.582 725.044 214.756 724.767C214.94 724.491 215.211 724.271 215.569 724.108C215.937 723.944 216.403 723.842 216.965 723.801V723.494L219.819 724.215L218.653 724.184C217.957 724.195 217.477 724.282 217.211 724.445C216.945 724.599 216.812 724.834 216.812 725.151V725.166C216.812 725.504 217.001 725.76 217.379 725.934C217.758 726.107 218.402 726.246 219.313 726.348L222.949 726.716C224.535 726.88 225.69 727.263 226.417 727.867C227.143 728.46 227.506 729.34 227.506 730.506V730.583C227.506 731.513 227.23 732.276 226.678 732.869C226.125 733.462 225.343 733.892 224.33 734.158C223.317 734.434 222.105 734.572 220.694 734.572H220.249ZM220.463 722.497C221.323 722.497 222.034 722.374 222.596 722.128C223.169 721.873 223.599 721.494 223.885 720.993C224.182 720.482 224.33 719.858 224.33 719.121V718.753C224.33 718.037 224.187 717.428 223.9 716.927C223.624 716.426 223.205 716.047 222.642 715.792C222.08 715.526 221.374 715.393 220.525 715.393H220.433C219.512 715.393 218.76 715.536 218.177 715.822C217.604 716.098 217.185 716.492 216.919 717.004C216.663 717.505 216.536 718.093 216.536 718.768V719.121C216.536 719.858 216.679 720.476 216.965 720.978C217.262 721.479 217.702 721.857 218.285 722.113C218.868 722.369 219.594 722.497 220.463 722.497ZM249.1 728.818V719.443C249.1 718.656 248.998 717.975 248.793 717.403C248.599 716.82 248.272 716.37 247.811 716.052C247.361 715.735 246.753 715.577 245.986 715.577C245.259 715.577 244.63 715.725 244.098 716.022C243.566 716.318 243.137 716.717 242.809 717.219C242.482 717.709 242.252 718.272 242.119 718.906L241.735 717.142H242.042C242.206 716.497 242.482 715.899 242.871 715.347C243.26 714.794 243.786 714.349 244.451 714.012C245.116 713.674 245.94 713.505 246.922 713.505C248.036 713.505 248.931 713.725 249.607 714.165C250.292 714.605 250.793 715.249 251.11 716.098C251.427 716.937 251.586 717.96 251.586 719.167V728.818H249.1ZM230.397 728.818V713.843H232.882L232.775 717.433L232.882 717.587V728.818H230.397ZM239.756 728.818V719.443C239.756 718.656 239.654 717.975 239.449 717.403C239.255 716.82 238.933 716.37 238.483 716.052C238.033 715.735 237.424 715.577 236.657 715.577C235.92 715.577 235.286 715.725 234.754 716.022C234.222 716.318 233.793 716.722 233.465 717.234C233.138 717.735 232.908 718.308 232.775 718.952L232.315 717.188H232.867C233.02 716.513 233.286 715.899 233.665 715.347C234.043 714.784 234.555 714.339 235.199 714.012C235.854 713.674 236.647 713.505 237.577 713.505C238.958 713.505 240.007 713.863 240.723 714.579C241.449 715.295 241.904 716.339 242.088 717.709C242.139 717.914 242.175 718.139 242.196 718.385C242.216 718.62 242.226 718.855 242.226 719.09V728.818H239.756ZM264.333 728.818L264.441 725.182L264.349 724.798V720.026L264.364 719.152C264.364 717.935 264.052 717.034 263.428 716.451C262.814 715.868 261.838 715.577 260.498 715.577C259.424 715.577 258.436 715.73 257.536 716.037C256.646 716.344 255.854 716.702 255.158 717.111L255.388 714.994C255.777 714.758 256.237 714.528 256.769 714.303C257.311 714.068 257.925 713.874 258.61 713.72C259.306 713.567 260.068 713.49 260.897 713.49C261.971 713.49 262.881 713.623 263.628 713.889C264.385 714.145 264.993 714.518 265.454 715.009C265.924 715.5 266.267 716.093 266.482 716.789C266.696 717.484 266.804 718.262 266.804 719.121V728.818H264.333ZM259.178 729.14C257.695 729.14 256.554 728.782 255.756 728.066C254.969 727.34 254.575 726.307 254.575 724.967V724.522C254.575 723.141 255 722.113 255.849 721.438C256.708 720.753 258.068 720.277 259.93 720.011L264.671 719.336L264.809 721.146L260.237 721.806C259.091 721.97 258.273 722.251 257.782 722.65C257.291 723.039 257.045 723.617 257.045 724.384V724.629C257.045 725.417 257.286 726.021 257.766 726.44C258.257 726.859 258.989 727.069 259.961 727.069C260.82 727.069 261.556 726.921 262.17 726.624C262.784 726.327 263.28 725.928 263.658 725.427C264.037 724.926 264.293 724.369 264.425 723.755L264.809 725.443H264.333C264.19 726.097 263.919 726.706 263.52 727.268C263.132 727.831 262.584 728.286 261.878 728.634C261.173 728.972 260.273 729.14 259.178 729.14ZM277.378 728.818V709.209H279.925V728.818H277.378ZM278.82 720.609V718.477H288.931V720.609H278.82ZM278.114 711.342V709.209H289.162V711.342H278.114ZM292.416 728.818V713.843H294.901V728.818H292.416ZM293.659 711.388C293.147 711.388 292.764 711.255 292.508 710.989C292.262 710.713 292.14 710.34 292.14 709.869V709.792C292.14 709.312 292.262 708.938 292.508 708.672C292.764 708.406 293.147 708.273 293.659 708.273C294.17 708.273 294.554 708.406 294.809 708.672C295.065 708.938 295.193 709.312 295.193 709.792V709.869C295.193 710.35 295.065 710.723 294.809 710.989C294.554 711.255 294.17 711.388 293.659 711.388ZM299.129 728.818V708.488H301.6V728.818H299.129ZM312.026 729.156C309.745 729.156 308.027 728.598 306.871 727.483C305.715 726.368 305.137 724.773 305.137 722.696V720.026C305.137 717.919 305.674 716.298 306.748 715.162C307.822 714.017 309.392 713.444 311.458 713.444C312.85 713.444 314.011 713.705 314.941 714.227C315.872 714.738 316.573 715.469 317.043 716.421C317.514 717.372 317.749 718.507 317.749 719.827V720.379C317.749 720.707 317.734 721.034 317.703 721.361C317.683 721.689 317.652 722.011 317.611 722.328H315.325C315.345 721.837 315.356 721.371 315.356 720.932C315.366 720.492 315.371 720.088 315.371 719.719C315.371 718.809 315.223 718.042 314.926 717.418C314.64 716.784 314.205 716.303 313.622 715.976C313.049 715.638 312.328 715.469 311.458 715.469C310.17 715.469 309.203 715.843 308.558 716.589C307.914 717.336 307.592 718.405 307.592 719.796V721.223L307.607 721.53V722.957C307.607 723.581 307.699 724.144 307.883 724.645C308.067 725.146 308.354 725.581 308.743 725.949C309.142 726.307 309.643 726.583 310.246 726.777C310.86 726.962 311.586 727.054 312.425 727.054C313.397 727.054 314.302 726.926 315.141 726.67C315.98 726.414 316.767 726.067 317.504 725.627L317.274 727.775C316.609 728.194 315.836 728.532 314.957 728.787C314.077 729.033 313.1 729.156 312.026 729.156ZM306.441 722.328V720.456H317.089V722.328H306.441Z" fill="white"/>
<g clip-path="url(#clip0_4_125)">
<path d="M155.788 725.556C155.788 723.119 156.778 720.783 158.539 719.061C160.301 717.338 162.69 716.37 165.182 716.37C167.673 716.37 170.063 717.338 171.824 719.061C173.586 720.783 174.576 723.119 174.576 725.556C174.576 727.992 173.586 730.328 171.824 732.05C170.063 733.773 167.673 734.741 165.182 734.741C162.69 734.741 160.301 733.773 158.539 732.05C156.778 730.328 155.788 727.992 155.788 725.556Z" fill="#1ABCFE"/>
<path d="M137 743.926C137 741.49 137.99 739.154 139.751 737.431C141.513 735.708 143.902 734.741 146.394 734.741H155.788V743.926C155.788 746.362 154.798 748.698 153.036 750.421C151.275 752.143 148.885 753.111 146.394 753.111C143.902 753.111 141.513 752.143 139.751 750.421C137.99 748.698 137 746.362 137 743.926V743.926Z" fill="#0ACF83"/>
<path d="M155.788 698V716.37H165.182C167.673 716.37 170.063 715.403 171.824 713.68C173.586 711.958 174.576 709.621 174.576 707.185C174.576 704.749 173.586 702.413 171.824 700.69C170.063 698.968 167.673 698 165.182 698H155.788Z" fill="#FF7262"/>
<path d="M137 707.185C137 709.621 137.99 711.958 139.751 713.68C141.513 715.403 143.903 716.37 146.394 716.37H155.788V698H146.394C143.903 698 141.513 698.968 139.751 700.69C137.99 702.413 137 704.749 137 707.185V707.185Z" fill="#F24E1E"/>
<path d="M137 725.556C137 727.992 137.99 730.328 139.751 732.05C141.513 733.773 143.902 734.741 146.394 734.741H155.788V716.37H146.394C143.902 716.37 141.513 717.338 139.751 719.061C137.99 720.783 137 723.119 137 725.556V725.556Z" fill="#A259FF"/>
</g>
<defs>
<clipPath id="clip0_4_125">
<rect width="37.5758" height="55.1111" fill="white" transform="translate(137 698)"/>
</clipPath>
</defs>
</svg>
