<svg width="431" height="258" viewBox="0 0 431 258" fill="none" xmlns="http://www.w3.org/2000/svg">
<g clip-path="url(#clip0_406_3391)">
<rect width="431" height="258" fill="#1C283D"/>
<path d="M181.379 193.207L197.499 165.287H229.737L245.857 193.207L229.737 221.126H197.499L181.379 193.207Z" fill="#0A2047"/>
<path d="M181.379 257.684L197.499 229.765H229.737L245.857 257.684L229.737 285.604H197.499L181.379 257.684Z" fill="#0A2047"/>
<path d="M127.648 225.445L143.768 197.526H176.006L192.126 225.445L176.006 253.365H143.768L127.648 225.445Z" fill="#0A2047"/>
<path d="M73.9175 257.684L90.0368 229.765H122.275L138.395 257.684L122.275 285.604H90.0368L73.9175 257.684Z" fill="#0A2047"/>
<g filter="url(#filter0_ddd_406_3391)">
<path d="M288.842 128.729L304.961 100.81H337.2L353.319 128.729L337.2 156.649H304.961L288.842 128.729Z" fill="#012A72"/>
</g>
<path d="M288.842 257.684L304.961 229.765H337.2L353.319 257.684L337.2 285.604H304.961L288.842 257.684Z" fill="#0A2047"/>
<path d="M235.111 225.445L251.23 197.526H283.469L299.588 225.445L283.469 253.365H251.23L235.111 225.445Z" fill="#0A2047"/>
<path d="M-33.5447 193.207L-17.4254 165.287H14.8133L30.9326 193.207L14.8133 221.126H-17.4254L-33.5447 193.207Z" fill="#0A2047"/>
<path d="M73.9175 193.207L90.0368 165.287H122.275L138.395 193.207L122.275 221.126H90.0368L73.9175 193.207Z" fill="#0A2047"/>
<path d="M-33.5447 257.684L-17.4254 229.765H14.8133L30.9326 257.684L14.8133 285.604H-17.4254L-33.5447 257.684Z" fill="#0A2047"/>
<path d="M-33.5447 257.684L-17.4254 229.765H14.8133L30.9326 257.684L14.8133 285.604H-17.4254L-33.5447 257.684Z" fill="#0A2047"/>
<path d="M235.111 32.0135L251.23 4.09402H283.469L299.588 32.0135L283.469 59.933H251.23L235.111 32.0135Z" fill="#0A2047"/>
<path d="M-33.5447 -0.225147L-17.4254 -28.1446H14.8133L30.9326 -0.225147L14.8133 27.6943L-17.4254 27.6943L-33.5447 -0.225147Z" fill="#0A2047"/>
<path fill-rule="evenodd" clip-rule="evenodd" d="M309.068 112.497C306.54 112.497 304.492 114.546 304.492 117.073L304.491 121.667L306.322 121.668L306.322 117.073C306.322 115.557 307.551 114.327 309.068 114.327H313.634V112.497H309.068ZM332.862 112.497H328.288V114.327H332.862C334.379 114.327 335.608 115.557 335.608 117.073V121.647H337.438V117.073C337.438 114.546 335.39 112.497 332.862 112.497ZM337.438 140.868V136.291H335.608V140.868C335.608 142.384 334.379 143.613 332.862 143.613H328.285V145.444H332.862C335.39 145.444 337.438 143.395 337.438 140.868ZM306.322 140.868V136.301H304.492V140.868C304.492 143.395 306.54 145.444 309.068 145.444H313.649V143.613H309.068C307.551 143.613 306.322 142.384 306.322 140.868ZM311.353 120.281C311.353 119.776 311.762 119.366 312.268 119.366H318.674C319.18 119.366 319.589 119.776 319.589 120.281V126.687C319.589 127.193 319.18 127.603 318.674 127.603H312.268C311.762 127.603 311.353 127.193 311.353 126.687V120.281ZM313.183 121.196V125.772H317.759V121.196H313.183ZM322.341 120.281C322.341 119.776 322.75 119.366 323.256 119.366H329.662C330.168 119.366 330.577 119.776 330.577 120.281V126.687C330.577 127.193 330.168 127.603 329.662 127.603H323.256C322.75 127.603 322.341 127.193 322.341 126.687V120.281ZM324.171 121.196V125.772H328.747V121.196H324.171ZM312.273 130.338C311.768 130.338 311.358 130.748 311.358 131.253V137.659C311.358 138.165 311.768 138.574 312.273 138.574H318.68C319.185 138.574 319.595 138.165 319.595 137.659V131.253C319.595 130.748 319.185 130.338 318.68 130.338H312.273ZM313.189 136.744V132.168H317.765V136.744H313.189ZM322.322 131.253C322.322 130.748 322.732 130.338 323.238 130.338H328.363C328.868 130.338 329.278 130.748 329.278 131.253V136.378C329.278 136.883 328.868 137.293 328.363 137.293H323.238C322.732 137.293 322.322 136.883 322.322 136.378V131.253ZM324.153 132.168V135.463H327.447V132.168H324.153Z" fill="#83A3DC"/>
<path d="M127.648 160.968L143.768 133.049H176.006L192.126 160.968L176.006 188.888H143.768L127.648 160.968Z" fill="#0A2047"/>
<path d="M181.379 128.729L197.499 100.81H229.737L245.857 128.729L229.737 156.649H197.499L181.379 128.729Z" fill="#0A2047"/>
<path d="M397.76 64.2521L413.879 36.3327H446.117L462.237 64.2521L446.117 92.1716H413.879L397.76 64.2521Z" fill="#0A2047"/>
<path d="M20.1863 225.445L36.3056 197.526H68.5442L84.6636 225.445L68.5442 253.365H36.3056L20.1863 225.445Z" fill="#0A2047"/>
<path d="M181.379 -0.225147L197.499 -28.1446H229.737L245.857 -0.225147L229.737 27.6943L197.499 27.6943L181.379 -0.225147Z" fill="#0A2047"/>
<path d="M288.842 -0.225147L304.961 -28.1446H337.2L353.319 -0.225147L337.2 27.6943L304.961 27.6943L288.842 -0.225147Z" fill="#0A2047"/>
<path d="M181.379 64.2521L197.499 36.3327H229.737L245.857 64.2521L229.737 92.1716H197.499L181.379 64.2521Z" fill="#0A2047"/>
<path d="M397.76 193.207L413.879 165.287H446.117L462.237 193.207L446.117 221.126H413.879L397.76 193.207Z" fill="#0A2047"/>
<path d="M344.029 225.445L360.148 197.526H392.387L408.506 225.445L392.387 253.365H360.148L344.029 225.445Z" fill="#0A2047"/>
<path d="M397.76 257.684L413.879 229.765H446.117L462.237 257.684L446.117 285.604H413.879L397.76 257.684Z" fill="#0A2047"/>
<path d="M397.76 257.684L413.879 229.765H446.117L462.237 257.684L446.117 285.604H413.879L397.76 257.684Z" fill="#0A2047"/>
<path d="M397.76 -0.225147L413.879 -28.1446H446.117L462.237 -0.225147L446.117 27.6943L413.879 27.6943L397.76 -0.225147Z" fill="#0A2047"/>
<path d="M343.491 32.0135L359.611 4.09402H391.849L407.968 32.0135L391.849 59.933H359.611L343.491 32.0135Z" fill="#0A2047"/>
<path d="M397.76 128.729L413.879 100.81H446.117L462.237 128.729L446.117 156.649H413.879L397.76 128.729Z" fill="#0A2047"/>
<path d="M127.648 32.0135L143.768 4.09402H176.006L192.126 32.0135L176.006 59.933H143.768L127.648 32.0135Z" fill="#0A2047"/>
<path d="M127.648 96.4908L143.768 68.5713H176.006L192.126 96.4908L176.006 124.41H143.768L127.648 96.4908Z" fill="#0A2047"/>
<path d="M73.9175 -0.225147L90.0368 -28.1446H122.275L138.395 -0.225147L122.275 27.6943L90.0368 27.6943L73.9175 -0.225147Z" fill="#0A2047"/>
<g filter="url(#filter1_ddd_406_3391)">
<path d="M20.1863 96.4908L36.3056 68.5713H68.5442L84.6636 96.4908L68.5442 124.41H36.3056L20.1863 96.4908Z" fill="#012A72"/>
</g>
<path d="M288.842 193.207L304.961 165.287H337.2L353.319 193.207L337.2 221.126H304.961L288.842 193.207Z" fill="#0A2047"/>
<path d="M235.111 160.968L251.23 133.049H283.469L299.588 160.968L283.469 188.888H251.23L235.111 160.968Z" fill="#0A2047"/>
<path d="M235.111 96.4908L251.23 68.5713H283.469L299.588 96.4908L283.469 124.41H251.23L235.111 96.4908Z" fill="#0A2047"/>
<path d="M288.842 64.2521L304.961 36.3327H337.2L353.319 64.2521L337.2 92.1716H304.961L288.842 64.2521Z" fill="#0A2047"/>
<path d="M344.029 96.4908L360.148 68.5713H392.387L408.506 96.4908L392.387 124.41H360.148L344.029 96.4908Z" fill="#0A2047"/>
<path d="M344.029 160.968L360.148 133.049H392.387L408.506 160.968L392.387 188.888H360.148L344.029 160.968Z" fill="#0A2047"/>
<path fill-rule="evenodd" clip-rule="evenodd" d="M65.7985 75.8377C65.2915 75.8377 64.8806 76.2486 64.8806 76.7556L64.8804 89.2509L59.3079 83.6784C58.9494 83.3199 58.3682 83.3199 58.0098 83.6784C57.6513 84.0369 57.6513 84.6181 58.0098 84.9765L65.1494 92.1162C65.5079 92.4746 66.0891 92.4746 66.4475 92.1162L73.5872 84.9765C73.9456 84.6181 73.9456 84.0369 73.5872 83.6784C73.2287 83.3199 72.6475 83.3199 72.289 83.6784L66.7162 89.2512L66.7164 76.7556C66.7164 76.2487 66.3054 75.8377 65.7985 75.8377ZM39.179 87.7651C39.179 86.2443 40.4118 85.0114 41.9327 85.0114H52.9575C53.4644 85.0114 53.8754 84.6004 53.8754 84.0935C53.8754 83.5865 53.4644 83.1756 52.9575 83.1756H41.9327C39.398 83.1756 37.3432 85.2304 37.3432 87.7651V107.959C37.3432 110.494 39.398 112.549 41.9327 112.549H62.1266C64.6613 112.549 66.7161 110.494 66.7161 107.959V98.7807C66.7161 98.2737 66.3052 97.8628 65.7982 97.8628C65.2913 97.8628 64.8803 98.2737 64.8803 98.7807V107.959C64.8803 109.48 63.6474 110.713 62.1266 110.713H41.9327C40.4118 110.713 39.179 109.48 39.179 107.959V87.7651ZM47.6368 90.5224C47.2715 90.5224 46.941 90.739 46.7952 91.074C46.5313 91.6803 46.9756 92.3582 47.6368 92.3582H49.5867C50.5427 92.4575 51.8296 92.9344 52.3045 94.1941H47.6368C47.2715 94.1941 46.941 94.4107 46.7952 94.7456C46.5313 95.3519 46.9756 96.0299 47.6368 96.0299H52.3481C52.0436 97.04 51.1126 97.999 48.5184 97.6972C48.1667 97.5655 47.7553 97.6361 47.4657 97.9129C47.0627 98.2983 47.0483 98.9374 47.4337 99.3405L47.8152 99.7404L47.8116 99.7513L48.7525 100.723L52.8361 105.003C53.2214 105.406 53.8606 105.421 54.2636 105.035C54.5443 104.767 54.6365 104.376 54.5365 104.027L54.5511 104.017L54.5252 103.99C54.4797 103.851 54.4033 103.72 54.2957 103.608L50.6015 99.7354C52.0282 99.5446 54.1955 98.5698 54.439 96.0299H56.4387C56.8075 96.0299 57.1405 95.8091 57.2842 95.4695C57.5401 94.8643 57.0958 94.1941 56.4387 94.1941H54.282C54.1388 93.5983 53.8993 92.9168 53.4384 92.3582H56.4387C56.8075 92.3582 57.1405 92.1375 57.2842 91.7978C57.5401 91.1926 57.0958 90.5224 56.4387 90.5224H47.6368Z" fill="#83A3DC"/>
<path d="M73.9175 64.2521L90.0368 36.3327H122.275L138.395 64.2521L122.275 92.1716H90.0368L73.9175 64.2521Z" fill="#0A2047"/>
<path d="M-33.5447 64.2521L-17.4254 36.3327H14.8133L30.9326 64.2521L14.8133 92.1716H-17.4254L-33.5447 64.2521Z" fill="#0A2047"/>
<path d="M-33.5447 128.729L-17.4254 100.81H14.8133L30.9326 128.729L14.8133 156.649H-17.4254L-33.5447 128.729Z" fill="#0A2047"/>
<path d="M20.1863 160.968L36.3056 133.049H68.5442L84.6636 160.968L68.5442 188.888H36.3056L20.1863 160.968Z" fill="#0A2047"/>
<path d="M73.9175 128.729L90.0368 100.81H122.275L138.395 128.729L122.275 156.649H90.0368L73.9175 128.729Z" fill="#0A2047"/>
<path d="M20.1863 32.0135L36.3056 4.09402H68.5442L84.6636 32.0135L68.5442 59.933H36.3056L20.1863 32.0135Z" fill="#0A2047"/>
</g>
<defs>
<filter id="filter0_ddd_406_3391" x="254.454" y="66.4219" width="133.253" height="133.212" filterUnits="userSpaceOnUse" color-interpolation-filters="sRGB">
<feFlood flood-opacity="0" result="BackgroundImageFix"/>
<feColorMatrix in="SourceAlpha" type="matrix" values="0 0 0 0 0 0 0 0 0 0 0 0 0 0 0 0 0 0 127 0" result="hardAlpha"/>
<feOffset/>
<feGaussianBlur stdDeviation="17.1939"/>
<feComposite in2="hardAlpha" operator="out"/>
<feColorMatrix type="matrix" values="0 0 0 0 0.317647 0 0 0 0 0.466667 0 0 0 0 0.72549 0 0 0 1 0"/>
<feBlend mode="normal" in2="BackgroundImageFix" result="effect1_dropShadow_406_3391"/>
<feColorMatrix in="SourceAlpha" type="matrix" values="0 0 0 0 0 0 0 0 0 0 0 0 0 0 0 0 0 0 127 0" result="hardAlpha"/>
<feOffset dy="8.59697"/>
<feGaussianBlur stdDeviation="17.1939"/>
<feComposite in2="hardAlpha" operator="out"/>
<feColorMatrix type="matrix" values="0 0 0 0 0.317647 0 0 0 0 0.466667 0 0 0 0 0.72549 0 0 0 1 0"/>
<feBlend mode="normal" in2="effect1_dropShadow_406_3391" result="effect2_dropShadow_406_3391"/>
<feColorMatrix in="SourceAlpha" type="matrix" values="0 0 0 0 0 0 0 0 0 0 0 0 0 0 0 0 0 0 127 0" result="hardAlpha"/>
<feOffset dy="8.59697"/>
<feGaussianBlur stdDeviation="17.1939"/>
<feComposite in2="hardAlpha" operator="out"/>
<feColorMatrix type="matrix" values="0 0 0 0 0.317647 0 0 0 0 0.466667 0 0 0 0 0.72549 0 0 0 1 0"/>
<feBlend mode="normal" in2="effect2_dropShadow_406_3391" result="effect3_dropShadow_406_3391"/>
<feBlend mode="normal" in="SourceGraphic" in2="effect3_dropShadow_406_3391" result="shape"/>
</filter>
<filter id="filter1_ddd_406_3391" x="-14.2016" y="34.1834" width="133.253" height="133.212" filterUnits="userSpaceOnUse" color-interpolation-filters="sRGB">
<feFlood flood-opacity="0" result="BackgroundImageFix"/>
<feColorMatrix in="SourceAlpha" type="matrix" values="0 0 0 0 0 0 0 0 0 0 0 0 0 0 0 0 0 0 127 0" result="hardAlpha"/>
<feOffset/>
<feGaussianBlur stdDeviation="17.1939"/>
<feComposite in2="hardAlpha" operator="out"/>
<feColorMatrix type="matrix" values="0 0 0 0 0.317647 0 0 0 0 0.466667 0 0 0 0 0.72549 0 0 0 1 0"/>
<feBlend mode="normal" in2="BackgroundImageFix" result="effect1_dropShadow_406_3391"/>
<feColorMatrix in="SourceAlpha" type="matrix" values="0 0 0 0 0 0 0 0 0 0 0 0 0 0 0 0 0 0 127 0" result="hardAlpha"/>
<feOffset dy="8.59697"/>
<feGaussianBlur stdDeviation="17.1939"/>
<feComposite in2="hardAlpha" operator="out"/>
<feColorMatrix type="matrix" values="0 0 0 0 0.317647 0 0 0 0 0.466667 0 0 0 0 0.72549 0 0 0 1 0"/>
<feBlend mode="normal" in2="effect1_dropShadow_406_3391" result="effect2_dropShadow_406_3391"/>
<feColorMatrix in="SourceAlpha" type="matrix" values="0 0 0 0 0 0 0 0 0 0 0 0 0 0 0 0 0 0 127 0" result="hardAlpha"/>
<feOffset dy="8.59697"/>
<feGaussianBlur stdDeviation="17.1939"/>
<feComposite in2="hardAlpha" operator="out"/>
<feColorMatrix type="matrix" values="0 0 0 0 0.317647 0 0 0 0 0.466667 0 0 0 0 0.72549 0 0 0 1 0"/>
<feBlend mode="normal" in2="effect2_dropShadow_406_3391" result="effect3_dropShadow_406_3391"/>
<feBlend mode="normal" in="SourceGraphic" in2="effect3_dropShadow_406_3391" result="shape"/>
</filter>
<clipPath id="clip0_406_3391">
<rect width="431" height="258" fill="white"/>
</clipPath>
</defs>
</svg>
