<svg width="25" height="25" viewBox="0 0 25 25" fill="none" xmlns="http://www.w3.org/2000/svg">
<path fill-rule="evenodd" clip-rule="evenodd" d="M6.71338 3.96338C4.78038 3.96338 3.21338 5.53038 3.21338 7.46338V18.4634C3.21338 20.3964 4.78038 21.9634 6.71338 21.9634H16.212V20.9634H6.71338C5.33266 20.9634 4.21338 19.8441 4.21338 18.4634V7.46338C4.21338 6.08267 5.33267 4.96338 6.71338 4.96338H17.7134C19.0941 4.96338 20.2134 6.08267 20.2134 7.46338V10.9622H21.2134V7.46338C21.2134 5.53038 19.6464 3.96338 17.7134 3.96338H6.71338ZM14.4465 9.96045H12.7997C13.0398 10.2924 13.158 10.6749 13.2202 11.0034H14.8693L14.4465 12.0034H13.1777C12.873 13.2395 11.6712 13.8078 10.9567 13.8813L13.6791 16.9667H12.4723L9.74426 13.8813V12.8735C11.2308 13.0042 11.7984 12.5345 12.015 12.0034H9.5575L9.99275 11.0034H12.1366C12.0351 10.2947 11.4695 10.0338 10.9534 9.96045H9.5575L9.99275 8.96045H14.8693L14.4465 9.96045ZM19.8485 14.4905C19.0249 14.4905 18.3485 15.1721 18.3485 16.0053H17.3485C17.3485 14.6294 18.463 13.4905 19.8485 13.4905H20.0388C21.3207 13.4905 22.3599 14.5297 22.3599 15.8116C22.3599 16.5427 22.0154 17.2311 21.4302 17.6694L20.7957 18.1446C20.4175 18.4279 20.1949 18.8727 20.1949 19.3452V19.9482H19.1949V19.3452C19.1949 18.5577 19.566 17.8163 20.1962 17.3442L20.8308 16.869C21.1638 16.6195 21.3599 16.2277 21.3599 15.8116C21.3599 15.082 20.7684 14.4905 20.0388 14.4905H19.8485ZM19.6652 22.8008C20.0794 22.8008 20.4152 22.465 20.4152 22.0508C20.4152 21.6366 20.0794 21.3008 19.6652 21.3008C19.2509 21.3008 18.9152 21.6366 18.9152 22.0508C18.9152 22.465 19.2509 22.8008 19.6652 22.8008Z" fill="#101010"/>
</svg>
