<svg width="25" height="25" viewBox="0 0 25 25" fill="none" xmlns="http://www.w3.org/2000/svg">
<path fill-rule="evenodd" clip-rule="evenodd" d="M10.2878 3.84253C12.1155 3.441 14.0247 3.6538 15.7191 4.44795C17.3484 5.21158 18.6915 6.47171 19.5576 8.04472L16.8538 7.56797L16.6801 8.55277L21.1118 9.33419L21.8932 4.90256L20.9084 4.72891L20.4148 7.52827C19.4462 5.78609 17.9526 4.39042 16.1434 3.54247C14.2497 2.65489 12.116 2.41705 10.0733 2.86583C8.03055 3.31461 6.19302 4.42492 4.84571 6.02455C3.49839 7.62418 2.71659 9.62371 2.62158 11.713L3.62055 11.7584C3.62654 11.6267 3.63557 11.4955 3.64762 11.3647L3.65461 11.3653C3.67964 11.085 3.71862 10.8055 3.77156 10.528L3.76706 10.5272C4.04142 9.11163 4.67293 7.78197 5.61056 6.66876C6.81605 5.23751 8.46016 4.24407 10.2878 3.84253ZM2.67834 13.1637C2.71287 13.4764 2.76296 13.7877 2.82862 14.0966C2.89428 14.4054 2.97517 14.7102 3.07082 15.0099L4.02347 14.7058C3.93788 14.4376 3.86551 14.1649 3.80676 13.8886C3.74802 13.6123 3.70319 13.3337 3.6723 13.054L2.67834 13.1637ZM20.2491 17.0386C20.4126 16.7685 20.5621 16.4909 20.6974 16.2069L19.7947 15.7768C19.6736 16.0309 19.5398 16.2793 19.3935 16.521C19.2473 16.7627 19.0894 16.9965 18.9205 17.2217L19.7204 17.8217C19.9092 17.5701 20.0857 17.3088 20.2491 17.0386ZM3.82053 16.742C3.97354 17.0168 4.14039 17.2844 4.32061 17.5437C4.50084 17.8029 4.69353 18.0525 4.89786 18.2917L5.65818 17.6422C5.47537 17.4282 5.30295 17.2048 5.1417 16.9729C4.98044 16.7409 4.83116 16.5015 4.69425 16.2556L3.82053 16.742ZM17.7079 19.8046C17.9632 19.6189 18.2087 19.4209 18.4435 19.2116L17.778 18.4652C17.5679 18.6525 17.3483 18.8296 17.1198 18.9958C16.8913 19.1619 16.6551 19.3163 16.4121 19.4583L16.917 20.3216C17.1885 20.1627 17.4525 19.9903 17.7079 19.8046ZM6.26029 19.5979C6.50787 19.7919 6.76539 19.9739 7.03201 20.1431C7.29862 20.3122 7.57301 20.4676 7.85406 20.6089L8.30321 19.7154C8.05174 19.589 7.80624 19.45 7.56769 19.2986C7.32913 19.1473 7.09872 18.9845 6.87721 18.8108L6.26029 19.5979ZM14.2932 21.3694C14.6006 21.2972 14.9036 21.2098 15.2012 21.1078L14.8769 20.1619C14.6107 20.2531 14.3396 20.3313 14.0645 20.3959C13.7895 20.4605 13.512 20.5112 13.2329 20.548L13.3638 21.5394C13.6756 21.4983 13.9858 21.4416 14.2932 21.3694ZM9.61625 21.2849C9.91968 21.3679 10.2276 21.4358 10.5389 21.4884C10.8503 21.541 11.1635 21.5779 11.4773 21.5992L11.545 20.6015C11.2642 20.5825 10.984 20.5494 10.7055 20.5024C10.4269 20.4553 10.1514 20.3945 9.8799 20.3203L9.61625 21.2849ZM12.0473 8.12114V12.1211H16.0494V13.1211H11.0494V8.12114H12.0473Z" fill="#F19E0C"/>
</svg>
