<svg width="25" height="25" viewBox="0 0 25 25" fill="none" xmlns="http://www.w3.org/2000/svg">
<path fill-rule="evenodd" clip-rule="evenodd" d="M10.4482 4.68091C12.2759 4.27937 14.1851 4.49218 15.8795 5.28633C17.5088 6.04996 18.8519 7.31009 19.718 8.8831L17.0142 8.40635L16.8405 9.39115L21.2722 10.1726L22.0536 5.74094L21.0688 5.56729L20.5752 8.36664C19.6066 6.62446 18.113 5.22879 16.3039 4.38085C14.4101 3.49327 12.2764 3.25543 10.2337 3.70421C8.19096 4.15298 6.35342 5.2633 5.00611 6.86293C3.65879 8.46256 2.87699 10.4621 2.78198 12.5514L3.78095 12.5968C3.78694 12.4651 3.79597 12.3338 3.80802 12.2031L3.81501 12.2037C3.84004 11.9234 3.87902 11.6439 3.93196 11.3664L3.92746 11.3656C4.20182 9.95001 4.83334 8.62035 5.77096 7.50714C6.97645 6.07589 8.62056 5.08245 10.4482 4.68091ZM2.83874 14.0021C2.87327 14.3148 2.92337 14.6261 2.98902 14.9349C3.05468 15.2438 3.13557 15.5486 3.23122 15.8482L4.18387 15.5442C4.09828 15.276 4.02591 15.0033 3.96716 14.727C3.90842 14.4507 3.86359 14.1721 3.8327 13.8923L2.83874 14.0021ZM21.4963 15.2691C21.5728 14.964 21.6342 14.6547 21.6802 14.3423L20.6908 14.1967C20.6497 14.4762 20.5947 14.753 20.5263 15.026L21.4963 15.2691ZM20.4095 17.877C20.573 17.6069 20.7225 17.3292 20.8578 17.0452L19.9551 16.6152C19.834 16.8693 19.7002 17.1176 19.5539 17.3594C19.4077 17.6011 19.2498 17.8349 19.0809 18.06L19.8808 18.6601C20.0696 18.4085 20.2461 18.1471 20.4095 17.877ZM3.98093 17.5804C4.13394 17.8552 4.30079 18.1228 4.48101 18.382C4.66124 18.6413 4.85393 18.8909 5.05826 19.1301L5.81858 18.4805C5.63577 18.2665 5.46335 18.0432 5.3021 17.8112C5.14084 17.5793 4.99156 17.3399 4.85466 17.0939L3.98093 17.5804ZM17.8683 20.6429C18.1236 20.4573 18.3691 20.2593 18.6039 20.05L17.9384 19.3036C17.7283 19.4909 17.5087 19.668 17.2802 19.8342C17.0517 20.0003 16.8155 20.1546 16.5725 20.2967L17.0774 21.1599C17.3489 21.0011 17.6129 20.8286 17.8683 20.6429ZM6.42069 20.4362C6.66827 20.6303 6.92579 20.8123 7.19241 20.9814C7.45903 21.1506 7.73341 21.306 8.01446 21.4473L8.46361 20.5538C8.21214 20.4274 7.96664 20.2884 7.72809 20.137C7.48953 19.9857 7.25912 19.8228 7.03761 19.6492L6.42069 20.4362ZM14.4536 22.2077C14.761 22.1356 15.064 22.0482 15.3616 21.9462L15.0373 21.0002C14.7711 21.0915 14.5 21.1696 14.2249 21.2342C13.9499 21.2988 13.6724 21.3496 13.3933 21.3864L13.5242 22.3778C13.836 22.3366 14.1462 22.2799 14.4536 22.2077ZM9.77665 22.1233C10.0801 22.2062 10.388 22.2742 10.6993 22.3268C11.0107 22.3794 11.3239 22.4163 11.6377 22.4376L11.7055 21.4399C11.4246 21.4208 11.1444 21.3878 10.8659 21.3407C10.5873 21.2937 10.3118 21.2329 10.0403 21.1587L9.77665 22.1233ZM12.2077 8.95952V12.9595H16.2098V13.9595H11.2098V8.95952H12.2077Z" fill="#F19E0C"/>
</svg>
