<svg width="24" height="24" viewBox="0 0 24 24" fill="none" xmlns="http://www.w3.org/2000/svg">
<path fill-rule="evenodd" clip-rule="evenodd" d="M10.183 3.72187C12.0107 3.32033 13.9198 3.53314 15.6142 4.32728C17.2435 5.09091 18.5866 6.35105 19.4527 7.92406L16.7489 7.4473L16.5753 8.43211L21.0069 9.21353L21.7883 4.78189L20.8035 4.60824L20.3099 7.4076C19.3413 5.66542 17.8478 4.26975 16.0386 3.4218C14.1448 2.53423 12.0111 2.29638 9.96841 2.74516C7.9257 3.19394 6.08817 4.30426 4.74085 5.90389C3.39353 7.50351 2.61173 9.50304 2.51672 11.5923L3.51569 11.6377C3.52168 11.5061 3.53071 11.3748 3.54276 11.244L3.54976 11.2447C3.57478 10.9643 3.61376 10.6849 3.66671 10.4074L3.6622 10.4065C3.93656 8.99097 4.56808 7.6613 5.5057 6.5481C6.71119 5.11685 8.3553 4.12341 10.183 3.72187ZM2.57348 13.043C2.60801 13.3557 2.65811 13.667 2.72376 13.9759C2.78942 14.2847 2.87031 14.5895 2.96597 14.8892L3.91861 14.5851C3.83302 14.317 3.76065 14.0443 3.7019 13.7679C3.64316 13.4916 3.59833 13.213 3.56744 12.9333L2.57348 13.043ZM20.1443 16.918C20.3077 16.6478 20.4573 16.3702 20.5926 16.0862L19.6898 15.6561C19.5687 15.9102 19.4349 16.1586 19.2887 16.4003C19.1425 16.642 18.9845 16.8758 18.8156 17.101L19.6156 17.7011C19.8044 17.4494 19.9808 17.1881 20.1443 16.918ZM3.71567 16.6213C3.86868 16.8962 4.03553 17.1637 4.21575 17.423C4.39598 17.6822 4.58867 17.9319 4.793 18.171L5.55332 17.5215C5.37051 17.3075 5.1981 17.0842 5.03684 16.8522C4.87559 16.6202 4.7263 16.3808 4.5894 16.1349L3.71567 16.6213ZM17.603 19.6839C17.8584 19.4982 18.1038 19.3003 18.3386 19.0909L17.6731 18.3445C17.463 18.5319 17.2434 18.709 17.0149 18.8751C16.7864 19.0413 16.5502 19.1956 16.3073 19.3377L16.8121 20.2009C17.0837 20.0421 17.3476 19.8696 17.603 19.6839ZM6.15544 19.4772C6.40301 19.6713 6.66053 19.8533 6.92715 20.0224C7.19377 20.1915 7.46815 20.347 7.7492 20.4882L8.19835 19.5948C7.94688 19.4684 7.70138 19.3293 7.46283 19.178C7.22427 19.0266 6.99386 18.8638 6.77235 18.6902L6.15544 19.4772ZM14.1883 21.2487C14.4957 21.1765 14.7987 21.0892 15.0963 20.9872L14.7721 20.0412C14.5058 20.1325 14.2347 20.2106 13.9597 20.2752C13.6847 20.3398 13.4071 20.3905 13.1281 20.4273L13.2589 21.4187C13.5708 21.3776 13.881 21.3209 14.1883 21.2487ZM9.51139 21.1643C9.81483 21.2472 10.1228 21.3152 10.4341 21.3677C10.7454 21.4203 11.0586 21.4572 11.3724 21.4786L11.4402 20.4809C11.1594 20.4618 10.8792 20.4287 10.6006 20.3817C10.3221 20.3347 10.0465 20.2738 9.77504 20.1996L9.51139 21.1643ZM11.9425 8.00047V12.0005H15.9446V13.0005H10.9446V8.00047H11.9425Z" fill="#F19E0C"/>
</svg>
