<svg width="24" height="24" viewBox="0 0 24 24" fill="none" xmlns="http://www.w3.org/2000/svg">
<path fill-rule="evenodd" clip-rule="evenodd" d="M6.50029 3.0033C4.56734 3.0033 3.00035 4.57023 3.00029 6.50319L3.00024 8.01343L4.00024 8.01346L4.00029 6.50322C4.00034 5.12254 5.11961 4.0033 6.50029 4.0033H7.99499V3.0033H6.50029ZM17.5004 3.0033H16.001V4.0033H17.5004C18.8811 4.0033 20.0004 5.12258 20.0004 6.5033V8.00235H21.0004V6.5033C21.0004 4.5703 19.4334 3.0033 17.5004 3.0033ZM21.0004 17.5033V16.0028H20.0004V17.5033C20.0004 18.884 18.8811 20.0033 17.5004 20.0033H15.9995V21.0033H17.5004C19.4334 21.0033 21.0004 19.4363 21.0004 17.5033ZM4.00039 17.5033V16.0084H3.00039V17.5033C3.00039 19.4363 4.56739 21.0033 6.50039 21.0033H8.0036V20.0033H6.50039C5.11967 20.0033 4.00039 18.884 4.00039 17.5033ZM7.00684 7.50549C7.00684 7.22935 7.23069 7.00549 7.50684 7.00549H10.5068C10.783 7.00549 11.0068 7.22935 11.0068 7.50549V10.5055C11.0068 10.7816 10.783 11.0055 10.5068 11.0055H7.50684C7.23069 11.0055 7.00684 10.7816 7.00684 10.5055V7.50549ZM8.00684 8.00549V10.0055H10.0068V8.00549H8.00684ZM13.01 7.50549C13.01 7.22935 13.2339 7.00549 13.51 7.00549H16.51C16.7862 7.00549 17.01 7.22935 17.01 7.50549V10.5055C17.01 10.7816 16.7862 11.0055 16.51 11.0055H13.51C13.2339 11.0055 13.01 10.7816 13.01 10.5055V7.50549ZM14.01 8.00549V10.0055H16.01V8.00549H14.01ZM7.50989 12.9999C7.23375 12.9999 7.00989 13.2237 7.00989 13.4999V16.4999C7.00989 16.776 7.23375 16.9999 7.50989 16.9999H10.5099C10.786 16.9999 11.0099 16.776 11.0099 16.4999V13.4999C11.0099 13.2237 10.786 12.9999 10.5099 12.9999H7.50989ZM8.00989 15.9999V13.9999H10.0099V15.9999H8.00989ZM13 13.4999C13 13.2237 13.2239 12.9999 13.5 12.9999H16C16.2761 12.9999 16.5 13.2237 16.5 13.4999V15.9999C16.5 16.276 16.2761 16.4999 16 16.4999H13.5C13.2239 16.4999 13 16.276 13 15.9999V13.4999ZM14 13.9999V15.4999H15.5V13.9999H14Z" fill="#101010"/>
</svg>
