<svg width="25" height="25" viewBox="0 0 25 25" fill="none" xmlns="http://www.w3.org/2000/svg">
<path fill-rule="evenodd" clip-rule="evenodd" d="M19.21 3.90324L16.1745 6.93869L15.4674 6.23158L19.3565 2.34249C19.5518 2.14723 19.8683 2.14723 20.0636 2.34249L23.9527 6.23158L23.2456 6.93869L20.21 3.90306V10.9681H19.21V3.90324ZM5.21008 9.45765C5.21008 8.07694 6.32937 6.95765 7.71008 6.95765H13.2588V5.95765H7.71008C5.77709 5.95765 4.21008 7.52466 4.21008 9.45765V18.4577C4.21008 20.3906 5.77709 21.9577 7.71008 21.9577H16.7101C18.6431 21.9577 20.2101 20.3906 20.2101 18.4577V13.9577H19.2101V18.4577C19.2101 19.8384 18.0908 20.9577 16.7101 20.9577H7.71008C6.32937 20.9577 5.21008 19.8384 5.21008 18.4577V9.45765ZM14.8659 9.95961H9.98934L9.55408 10.9596H10.9499C11.4661 11.033 12.0317 11.2938 12.1332 12.0026H9.98934L9.55408 13.0026H12.0115C11.795 13.5337 11.2273 14.0033 9.74084 13.8726V14.8804L12.4689 17.9659H13.6757L10.9532 14.8804C11.6678 14.807 12.8696 14.2387 13.1743 13.0026H14.443L14.8659 12.0026H13.2168C13.1545 11.674 13.0364 11.2915 12.7963 10.9596H14.443L14.8659 9.95961Z" fill="#101010"/>
</svg>
