<svg width="24" height="24" viewBox="0 0 24 24" fill="none" xmlns="http://www.w3.org/2000/svg">
<path fill-rule="evenodd" clip-rule="evenodd" d="M18.9999 2.94364L15.9645 5.97909L15.2574 5.27198L19.1465 1.3829C19.3417 1.18763 19.6583 1.18763 19.8536 1.3829L23.7427 5.27198L23.0356 5.97909L19.9999 2.94347V10.0085H18.9999V2.94364ZM5.00006 8.49806C5.00006 7.11735 6.11935 5.99806 7.50006 5.99806H13.0488V4.99806H7.50006C5.56707 4.99806 4.00006 6.56506 4.00006 8.49806V17.4981C4.00006 19.4311 5.56706 20.9981 7.50006 20.9981H16.5001C18.4331 20.9981 20.0001 19.4311 20.0001 17.4981V12.9981H19.0001V17.4981C19.0001 18.8788 17.8808 19.9981 16.5001 19.9981H7.50006C6.11935 19.9981 5.00006 18.8788 5.00006 17.4981V8.49806ZM14.6559 9.00001H9.77931L9.34406 10H10.7399C11.2561 10.0734 11.8217 10.3342 11.9232 11.043H9.77931L9.34406 12.043H11.8015C11.585 12.5741 11.0173 13.0437 9.53082 12.913V13.9208L12.2589 17.0063H13.4657L10.7432 13.9208C11.4578 13.8474 12.6595 13.2791 12.9643 12.043H14.233L14.6559 11.043H13.0068C12.9445 10.7144 12.8264 10.3319 12.5863 10H14.233L14.6559 9.00001Z" fill="#101010"/>
</svg>
