<svg width="30" height="25" viewBox="0 0 30 25" fill="none" xmlns="http://www.w3.org/2000/svg">
<rect x="0.894531" y="16.1919" width="24" height="3" fill="#FFE3E3"/>
<circle cx="18.8945" cy="3.19189" r="3" fill="#FFE3E3"/>
<path d="M23.8685 7.85389C23.9072 7.85389 23.9379 7.86523 23.9605 7.88789C23.9832 7.91056 23.9945 7.93989 23.9945 7.97589V8.19189H22.0825V8.06989C22.0825 8.04456 22.0879 8.01856 22.0985 7.99189C22.1092 7.96523 22.1259 7.94056 22.1485 7.91789L23.0665 6.99589C23.1425 6.91856 23.2119 6.84456 23.2745 6.77389C23.3372 6.70189 23.3905 6.62989 23.4345 6.55789C23.4785 6.48589 23.5125 6.41323 23.5365 6.33989C23.5605 6.26523 23.5725 6.18589 23.5725 6.10189C23.5725 6.01789 23.5592 5.94456 23.5325 5.88189C23.5059 5.81789 23.4692 5.76523 23.4225 5.72389C23.3772 5.68256 23.3232 5.65189 23.2605 5.63189C23.1979 5.61056 23.1305 5.59989 23.0585 5.59989C22.9852 5.59989 22.9179 5.61056 22.8565 5.63189C22.7952 5.65323 22.7405 5.68323 22.6925 5.72189C22.6459 5.75923 22.6065 5.80389 22.5745 5.85589C22.5425 5.90789 22.5199 5.96523 22.5065 6.02789C22.4905 6.07456 22.4685 6.10589 22.4405 6.12189C22.4139 6.13656 22.3759 6.14056 22.3265 6.13389L22.1405 6.10189C22.1592 5.97123 22.1952 5.85589 22.2485 5.75589C22.3032 5.65456 22.3712 5.56989 22.4525 5.50189C22.5352 5.43389 22.6292 5.38256 22.7345 5.34789C22.8399 5.31189 22.9539 5.29389 23.0765 5.29389C23.1979 5.29389 23.3112 5.31189 23.4165 5.34789C23.5219 5.38389 23.6132 5.43656 23.6905 5.50589C23.7679 5.57389 23.8285 5.65723 23.8725 5.75589C23.9165 5.85456 23.9385 5.96656 23.9385 6.09189C23.9385 6.19856 23.9225 6.29789 23.8905 6.38989C23.8585 6.48056 23.8152 6.56723 23.7605 6.64989C23.7059 6.73256 23.6425 6.81323 23.5705 6.89189C23.4999 6.97056 23.4245 7.04989 23.3445 7.12989L22.5885 7.90189C22.6419 7.88723 22.6959 7.87589 22.7505 7.86789C22.8052 7.85856 22.8579 7.85389 22.9085 7.85389H23.8685ZM25.8783 7.70389C25.9436 7.79189 26.0149 7.85389 26.0923 7.88989C26.1696 7.92589 26.2563 7.94389 26.3523 7.94389C26.5416 7.94389 26.6869 7.87656 26.7883 7.74189C26.8896 7.60723 26.9403 7.41523 26.9403 7.16589C26.9403 7.03389 26.9283 6.92056 26.9043 6.82589C26.8816 6.73123 26.8483 6.65389 26.8043 6.59389C26.7603 6.53256 26.7063 6.48789 26.6423 6.45989C26.5783 6.43189 26.5056 6.41789 26.4243 6.41789C26.3083 6.41789 26.2063 6.44456 26.1183 6.49789C26.0316 6.55123 25.9516 6.62656 25.8783 6.72389V7.70389ZM25.8603 6.47989C25.9456 6.37456 26.0443 6.28989 26.1563 6.22589C26.2683 6.16189 26.3963 6.12989 26.5403 6.12989C26.6576 6.12989 26.7636 6.15256 26.8583 6.19789C26.9529 6.24189 27.0336 6.30789 27.1003 6.39589C27.1669 6.48256 27.2183 6.59056 27.2543 6.71989C27.2903 6.84923 27.3083 6.99789 27.3083 7.16589C27.3083 7.31523 27.2883 7.45456 27.2483 7.58389C27.2083 7.71189 27.1503 7.82323 27.0743 7.91789C26.9996 8.01123 26.9076 8.08523 26.7983 8.13989C26.6903 8.19323 26.5683 8.21989 26.4323 8.21989C26.3083 8.21989 26.2016 8.19923 26.1123 8.15789C26.0243 8.11523 25.9463 8.05656 25.8783 7.98189V8.87789H25.5203V6.16589H25.7343C25.7849 6.16589 25.8163 6.19056 25.8283 6.23989L25.8603 6.47989ZM29.3483 8.19189H29.0063C28.977 8.19189 28.9537 8.18456 28.9363 8.16989C28.9203 8.15389 28.907 8.13656 28.8963 8.11789L28.3863 7.32389C28.381 7.34256 28.375 7.36123 28.3683 7.37989C28.363 7.39723 28.355 7.41323 28.3443 7.42789L27.8723 8.11789C27.859 8.13656 27.8443 8.15389 27.8283 8.16989C27.8137 8.18456 27.793 8.19189 27.7663 8.19189H27.4483L28.1583 7.15189L27.4763 6.16589H27.8183C27.8477 6.16589 27.869 6.17056 27.8823 6.17989C27.8957 6.18923 27.9077 6.20256 27.9183 6.21989L28.4163 6.97989C28.427 6.94123 28.4437 6.90389 28.4663 6.86789L28.9023 6.22789C28.9143 6.20923 28.927 6.19456 28.9403 6.18389C28.955 6.17189 28.9723 6.16589 28.9923 6.16589H29.3203L28.6383 7.13389L29.3483 8.19189Z" fill="black"/>
<path d="M23.9305 19.9199V20.1919H22.3945V19.9199H23.0085V17.9659C23.0085 17.9072 23.0105 17.8479 23.0145 17.7879L22.5045 18.2259C22.4872 18.2406 22.4699 18.2499 22.4525 18.2539C22.4352 18.2566 22.4192 18.2566 22.4045 18.2539C22.3899 18.2512 22.3759 18.2459 22.3625 18.2379C22.3505 18.2299 22.3412 18.2212 22.3345 18.2119L22.2225 18.0579L23.0765 17.3199H23.3665V19.9199H23.9305ZM25.8783 19.7039C25.9436 19.7919 26.0149 19.8539 26.0923 19.8899C26.1696 19.9259 26.2563 19.9439 26.3523 19.9439C26.5416 19.9439 26.6869 19.8766 26.7883 19.7419C26.8896 19.6072 26.9403 19.4152 26.9403 19.1659C26.9403 19.0339 26.9283 18.9206 26.9043 18.8259C26.8816 18.7312 26.8483 18.6539 26.8043 18.5939C26.7603 18.5326 26.7063 18.4879 26.6423 18.4599C26.5783 18.4319 26.5056 18.4179 26.4243 18.4179C26.3083 18.4179 26.2063 18.4446 26.1183 18.4979C26.0316 18.5512 25.9516 18.6266 25.8783 18.7239V19.7039ZM25.8603 18.4799C25.9456 18.3746 26.0443 18.2899 26.1563 18.2259C26.2683 18.1619 26.3963 18.1299 26.5403 18.1299C26.6576 18.1299 26.7636 18.1526 26.8583 18.1979C26.9529 18.2419 27.0336 18.3079 27.1003 18.3959C27.1669 18.4826 27.2183 18.5906 27.2543 18.7199C27.2903 18.8492 27.3083 18.9979 27.3083 19.1659C27.3083 19.3152 27.2883 19.4546 27.2483 19.5839C27.2083 19.7119 27.1503 19.8232 27.0743 19.9179C26.9996 20.0112 26.9076 20.0852 26.7983 20.1399C26.6903 20.1932 26.5683 20.2199 26.4323 20.2199C26.3083 20.2199 26.2016 20.1992 26.1123 20.1579C26.0243 20.1152 25.9463 20.0566 25.8783 19.9819V20.8779H25.5203V18.1659H25.7343C25.7849 18.1659 25.8163 18.1906 25.8283 18.2399L25.8603 18.4799ZM29.3483 20.1919H29.0063C28.977 20.1919 28.9537 20.1846 28.9363 20.1699C28.9203 20.1539 28.907 20.1366 28.8963 20.1179L28.3863 19.3239C28.381 19.3426 28.375 19.3612 28.3683 19.3799C28.363 19.3972 28.355 19.4132 28.3443 19.4279L27.8723 20.1179C27.859 20.1366 27.8443 20.1539 27.8283 20.1699C27.8137 20.1846 27.793 20.1919 27.7663 20.1919H27.4483L28.1583 19.1519L27.4763 18.1659H27.8183C27.8477 18.1659 27.869 18.1706 27.8823 18.1799C27.8957 18.1892 27.9077 18.2026 27.9183 18.2199L28.4163 18.9799C28.427 18.9412 28.4437 18.9039 28.4663 18.8679L28.9023 18.2279C28.9143 18.2092 28.927 18.1946 28.9403 18.1839C28.955 18.1719 28.9723 18.1659 28.9923 18.1659H29.3203L28.6383 19.1339L29.3483 20.1919Z" fill="black"/>
<path fill-rule="evenodd" clip-rule="evenodd" d="M4.89453 5.19141C4.89453 3.53455 6.23768 2.19141 7.89453 2.19141H17.8945C19.5514 2.19141 20.8945 3.53455 20.8945 5.19141V19.1914C20.8945 20.8483 19.5514 22.1914 17.8945 22.1914H7.89453C6.23768 22.1914 4.89453 20.8483 4.89453 19.1914V18.1914H3.89453C3.34225 18.1914 2.89453 17.7437 2.89453 17.1914C2.89453 16.6391 3.34225 16.1914 3.89453 16.1914H4.89453V13.1914H3.89453C3.34225 13.1914 2.89453 12.7437 2.89453 12.1914C2.89453 11.6391 3.34225 11.1914 3.89453 11.1914H4.89453V8.19141H3.89453C3.34225 8.19141 2.89453 7.74369 2.89453 7.19141C2.89453 6.63912 3.34225 6.19141 3.89453 6.19141H4.89453V5.19141ZM7.89453 20.1914C7.34225 20.1914 6.89453 19.7437 6.89453 19.1914V17.1914V12.1914V7.19141V5.19141C6.89453 4.63912 7.34225 4.19141 7.89453 4.19141H17.8945C18.4468 4.19141 18.8945 4.63912 18.8945 5.19141V19.1914C18.8945 19.7437 18.4468 20.1914 17.8945 20.1914H7.89453ZM13.892 7.51318H15.1242C15.367 7.51318 15.5886 7.37498 15.6955 7.15696C15.9026 6.73424 15.5949 6.24072 15.1242 6.24072H10.6748C10.4339 6.24072 10.2138 6.3767 10.1059 6.59202C9.89401 7.01508 10.2016 7.51318 10.6748 7.51318H11.5081C11.9096 7.58869 12.3093 7.78518 12.4718 8.24072H10.7678C10.5255 8.24072 10.3043 8.37829 10.1972 8.59554C9.98864 9.01836 10.2963 9.51318 10.7678 9.51318H12.3769C12.1623 9.92974 11.6728 10.2443 10.5603 10.1118L10.5582 10.1177C10.3727 10.1188 10.1874 10.1882 10.0431 10.3268C9.74434 10.6137 9.7348 11.0885 10.0217 11.3872L12.9419 14.4272C13.2289 14.7259 13.7036 14.7354 14.0024 14.4485C14.3011 14.1616 14.3106 13.6868 14.0237 13.3881L11.9424 11.2214C12.6695 11.1206 13.846 10.6598 14.1579 9.51318H15.1311C15.3753 9.51318 15.598 9.3734 15.7041 9.15347C15.908 8.73102 15.6002 8.24072 15.1311 8.24072H14.151C14.0985 8.00217 14.0225 7.74685 13.892 7.51318ZM10.8945 17.1836C10.3422 17.1836 9.89453 17.1396 9.89453 17.6919C9.89453 18.2442 10.3422 18.1836 10.8945 18.1836H14.8945C15.4468 18.1836 15.8945 18.2442 15.8945 17.6919C15.8945 17.1396 15.4468 17.1919 14.8945 17.1919H12.8945L10.8945 17.1836Z" fill="#101010"/>
</svg>
