<svg width="24" height="24" viewBox="0 0 24 24" fill="none" xmlns="http://www.w3.org/2000/svg">
<rect width="24" height="24" fill="white"/>
<rect x="2" y="2" width="20" height="20" fill="#FFE3E3"/>
<path d="M23.925 0.181068V23.8189L12.1061 12L23.925 0.181068ZM23.8189 0.075L12 11.8939L0.181066 0.075H23.8189ZM0.075 0.181066L11.8939 12L0.075 23.8189V0.181066ZM0.181068 23.925L12 12.1061L23.8189 23.925H0.181068Z" stroke="#F3B6B6" stroke-width="0.15"/>
<circle cx="12" cy="12" r="9.925" stroke="#F3B6B6" stroke-width="0.15"/>
<rect x="2.075" y="4.075" width="19.85" height="15.85" rx="0.925" stroke="#F3B6B6" stroke-width="0.15"/>
<rect x="4.075" y="2.075" width="15.85" height="19.85" rx="0.925" stroke="#F3B6B6" stroke-width="0.15"/>
<rect x="3.075" y="3.075" width="17.85" height="17.85" rx="0.925" stroke="#F3B6B6" stroke-width="0.15"/>
<circle cx="12" cy="12" r="3.925" stroke="#F3B6B6" stroke-width="0.15"/>
<rect width="24" height="24" fill="white"/>
<rect x="2" y="2" width="20" height="20" fill="#FFE3E3"/>
<path d="M23.925 0.181068V23.8189L12.1061 12L23.925 0.181068ZM23.8189 0.075L12 11.8939L0.181066 0.075H23.8189ZM0.075 0.181066L11.8939 12L0.075 23.8189V0.181066ZM0.181068 23.925L12 12.1061L23.8189 23.925H0.181068Z" stroke="#F3B6B6" stroke-width="0.15"/>
<circle cx="12" cy="12" r="9.925" stroke="#F3B6B6" stroke-width="0.15"/>
<rect x="2.075" y="4.075" width="19.85" height="15.85" rx="0.925" stroke="#F3B6B6" stroke-width="0.15"/>
<rect x="4.075" y="2.075" width="15.85" height="19.85" rx="0.925" stroke="#F3B6B6" stroke-width="0.15"/>
<rect x="3.075" y="3.075" width="17.85" height="17.85" rx="0.925" stroke="#F3B6B6" stroke-width="0.15"/>
<circle cx="12" cy="12" r="3.925" stroke="#F3B6B6" stroke-width="0.15"/>
<path fill-rule="evenodd" clip-rule="evenodd" d="M4.60768 5.805C4.60768 5.08583 5.19069 4.50283 5.90986 4.50283H11.9824C12.2221 4.50283 12.4164 4.30849 12.4164 4.06877C12.4164 3.82904 12.2221 3.63471 11.9824 3.63471H5.90986C4.71124 3.63471 3.73957 4.60638 3.73957 5.805V7.54463H2.43739C2.19767 7.54463 2.00333 7.73896 2.00333 7.97868C2.00333 8.21841 2.19767 8.41274 2.43739 8.41274H3.73957V11.8852H2.43739C2.19767 11.8852 2.00333 12.0795 2.00333 12.3193C2.00333 12.559 2.19767 12.7533 2.43739 12.7533H3.73957V16.2258H2.43739C2.19767 16.2258 2.00333 16.4201 2.00333 16.6598C2.00333 16.8996 2.19767 17.0939 2.43739 17.0939H3.73957V18.8336C3.73957 20.0322 4.71124 21.0039 5.90986 21.0039H15.4534C16.652 21.0039 17.6237 20.0322 17.6237 18.8336V14.5145C17.6237 14.2747 17.4293 14.0804 17.1896 14.0804C16.9499 14.0804 16.7556 14.2747 16.7556 14.5145V18.8336C16.7556 19.5527 16.1725 20.1357 15.4534 20.1357H5.90986C5.19069 20.1357 4.60768 19.5527 4.60768 18.8336L4.60768 16.6598V12.3193V7.97868L4.60768 5.805ZM14.1205 7.75194L16.7646 5.10784V11.0565C16.7646 11.2962 16.9589 11.4906 17.1987 11.4906C17.4384 11.4906 17.6327 11.2962 17.6327 11.0565V5.12564L20.259 7.75194C20.4285 7.92145 20.7034 7.92145 20.8729 7.75194C21.0424 7.58243 21.0424 7.3076 20.8729 7.13809L17.4967 3.7619C17.3272 3.59239 17.0523 3.59239 16.8828 3.7619L13.5067 7.13809C13.3371 7.3076 13.3371 7.58243 13.5067 7.75194C13.6762 7.92145 13.951 7.92145 14.1205 7.75194ZM10.6816 11.4626C11.1611 11.4626 11.5498 11.0739 11.5498 10.5945C11.5498 10.115 11.1611 9.72636 10.6816 9.72636C10.2022 9.72636 9.81352 10.115 9.81352 10.5945C9.81352 11.0739 10.2022 11.4626 10.6816 11.4626ZM10.6816 12.3307C11.6405 12.3307 12.4179 11.5534 12.4179 10.5945C12.4179 9.63558 11.6405 8.85824 10.6816 8.85824C9.72274 8.85824 8.94541 9.63558 8.94541 10.5945C8.94541 11.5534 9.72274 12.3307 10.6816 12.3307ZM9.98714 14.0915H11.3761C12.3724 14.0915 13.1905 14.8543 13.2782 15.8278H8.08507C8.17279 14.8543 8.99089 14.0915 9.98714 14.0915ZM7.20917 16.0014C7.20917 14.4672 8.45291 13.2234 9.98714 13.2234H11.3761C12.9104 13.2234 14.1541 14.4672 14.1541 16.0014C14.1541 16.3849 13.8432 16.6959 13.4596 16.6959H7.90367C7.52011 16.6959 7.20917 16.3849 7.20917 16.0014Z" fill="#101010"/>
</svg>
