<svg width="25" height="25" viewBox="0 0 25 25" fill="none" xmlns="http://www.w3.org/2000/svg">
<rect x="0.31543" y="0.0791016" width="24" height="24" fill="white"/>
<rect x="2.31543" y="2.0791" width="20" height="20" fill="#FFE3E3"/>
<path d="M24.2404 0.260169V23.898L12.4215 12.0791L24.2404 0.260169ZM24.1344 0.154102L12.3154 11.973L0.496496 0.154102H24.1344ZM0.39043 0.260168L12.2094 12.0791L0.39043 23.898V0.260168ZM0.496497 24.0041L12.3154 12.1852L24.1344 24.0041H0.496497Z" stroke="#F3B6B6" stroke-width="0.15"/>
<circle cx="12.3154" cy="12.0791" r="9.925" stroke="#F3B6B6" stroke-width="0.15"/>
<rect x="2.39043" y="4.1541" width="19.85" height="15.85" rx="0.925" stroke="#F3B6B6" stroke-width="0.15"/>
<rect x="4.39043" y="2.1541" width="15.85" height="19.85" rx="0.925" stroke="#F3B6B6" stroke-width="0.15"/>
<rect x="3.39043" y="3.1541" width="17.85" height="17.85" rx="0.925" stroke="#F3B6B6" stroke-width="0.15"/>
<circle cx="12.3154" cy="12.0791" r="3.925" stroke="#F3B6B6" stroke-width="0.15"/>
<rect x="0.31543" y="0.0791016" width="24" height="24" fill="white"/>
<rect x="2.31543" y="2.0791" width="20" height="20" fill="#FFE3E3"/>
<path d="M24.2404 0.260169V23.898L12.4215 12.0791L24.2404 0.260169ZM24.1344 0.154102L12.3154 11.973L0.496496 0.154102H24.1344ZM0.39043 0.260168L12.2094 12.0791L0.39043 23.898V0.260168ZM0.496497 24.0041L12.3154 12.1852L24.1344 24.0041H0.496497Z" stroke="#F3B6B6" stroke-width="0.15"/>
<circle cx="12.3154" cy="12.0791" r="9.925" stroke="#F3B6B6" stroke-width="0.15"/>
<rect x="2.39043" y="4.1541" width="19.85" height="15.85" rx="0.925" stroke="#F3B6B6" stroke-width="0.15"/>
<rect x="4.39043" y="2.1541" width="15.85" height="19.85" rx="0.925" stroke="#F3B6B6" stroke-width="0.15"/>
<rect x="3.39043" y="3.1541" width="17.85" height="17.85" rx="0.925" stroke="#F3B6B6" stroke-width="0.15"/>
<circle cx="12.3154" cy="12.0791" r="3.925" stroke="#F3B6B6" stroke-width="0.15"/>
<path fill-rule="evenodd" clip-rule="evenodd" d="M5.31876 4.5751C5.31876 3.74668 5.99034 3.0751 6.81876 3.0751H13.8138C14.0899 3.0751 14.3138 2.85125 14.3138 2.5751C14.3138 2.29896 14.0899 2.0751 13.8138 2.0751H6.81876C5.43805 2.0751 4.31876 3.19439 4.31876 4.5751V6.57901H2.81876C2.54262 6.57901 2.31876 6.80287 2.31876 7.07901C2.31876 7.35515 2.54262 7.57901 2.81876 7.57901H4.31876V11.579H2.81876C2.54262 11.579 2.31876 11.8029 2.31876 12.079C2.31876 12.3552 2.54262 12.579 2.81876 12.579H4.31876V16.579H2.81876C2.54262 16.579 2.31876 16.8029 2.31876 17.079C2.31876 17.3552 2.54262 17.579 2.81876 17.579H4.31876V19.583C4.31876 20.9637 5.43805 22.083 6.81877 22.083H17.8121C19.1928 22.083 20.3121 20.9637 20.3121 19.583V14.6077C20.3121 14.3316 20.0883 14.1077 19.8121 14.1077C19.536 14.1077 19.3121 14.3316 19.3121 14.6077V19.583C19.3121 20.4114 18.6406 21.083 17.8121 21.083H6.81877C5.99034 21.083 5.31876 20.4114 5.31876 19.583V17.079V12.079V7.07901V4.5751ZM16.2768 6.81782L19.3225 3.77203V10.6244C19.3225 10.9006 19.5464 11.1244 19.8225 11.1244C20.0987 11.1244 20.3225 10.9006 20.3225 10.6244V3.79254L23.3478 6.81782C23.5431 7.01308 23.8597 7.01308 24.0549 6.81782C24.2502 6.62255 24.2502 6.30597 24.0549 6.11071L20.1658 2.22162C19.9706 2.02636 19.654 2.02636 19.4587 2.22162L15.5697 6.11071C15.3744 6.30597 15.3744 6.62256 15.5697 6.81782C15.7649 7.01308 16.0815 7.01308 16.2768 6.81782ZM12.3155 11.0922C12.8678 11.0922 13.3155 10.6445 13.3155 10.0922C13.3155 9.53991 12.8678 9.09219 12.3155 9.09219C11.7632 9.09219 11.3155 9.53991 11.3155 10.0922C11.3155 10.6445 11.7632 11.0922 12.3155 11.0922ZM12.3155 12.0922C13.42 12.0922 14.3155 11.1968 14.3155 10.0922C14.3155 8.98762 13.42 8.09219 12.3155 8.09219C11.2109 8.09219 10.3155 8.98762 10.3155 10.0922C10.3155 11.1968 11.2109 12.0922 12.3155 12.0922ZM9.32444 16.1205C9.42548 14.9992 10.3679 14.1205 11.5155 14.1205H13.1155C14.2631 14.1205 15.2055 14.9992 15.3065 16.1205H9.32444ZM8.31547 16.3205C8.31547 14.5532 9.74816 13.1205 11.5155 13.1205H13.1155C14.8828 13.1205 16.3155 14.5532 16.3155 16.3205C16.3155 16.7623 15.9573 17.1205 15.5155 17.1205H9.11547C8.67364 17.1205 8.31547 16.7623 8.31547 16.3205Z" fill="#101010"/>
</svg>
