<svg width="25" height="25" viewBox="0 0 25 25" fill="none" xmlns="http://www.w3.org/2000/svg">
<circle cx="12.1584" cy="12.808" r="10" fill="#FD5154"/>
<path fill-rule="evenodd" clip-rule="evenodd" d="M8.25072 10.3344C7.85896 9.94513 7.85695 9.31197 8.24623 8.9202C8.63551 8.52844 9.26867 8.52643 9.66043 8.91571L12.1587 11.3982L14.6565 8.9162C15.0483 8.52692 15.6815 8.52893 16.0707 8.92069C16.46 9.31246 16.458 9.94562 16.0662 10.3349L13.5775 12.8079L16.0663 15.281C16.458 15.6703 16.4601 16.3034 16.0708 16.6952C15.6815 17.087 15.0483 17.089 14.6566 16.6997L12.1587 14.2177L9.6604 16.7002C9.26863 17.0895 8.63547 17.0874 8.24619 16.6957C7.85691 16.3039 7.85892 15.6708 8.25068 15.2815L10.74 12.8079L8.25072 10.3344Z" fill="white"/>
</svg>
