<svg width="28" height="31" viewBox="0 0 28 31" fill="none" xmlns="http://www.w3.org/2000/svg">
<g filter="url(#filter0_d_401_3090)">
<rect x="8" y="3" width="14" height="18" fill="white"/>
<path fill-rule="evenodd" clip-rule="evenodd" d="M7.00423 4.50485C7.00423 3.12414 8.12352 2.00485 9.50423 2.00485H20.5042C21.8849 2.00485 23.0042 3.12414 23.0042 4.50485V19.5049C23.0042 20.8856 21.8849 22.0049 20.5042 22.0049H9.50423C8.12352 22.0049 7.00423 20.8856 7.00423 19.5049V4.50485ZM9.50423 3.00485C8.67581 3.00485 8.00423 3.67643 8.00423 4.50485V19.5049C8.00423 20.3333 8.67581 21.0049 9.50423 21.0049H20.5042C21.3327 21.0049 22.0042 20.3333 22.0042 19.5049V4.50485C22.0042 3.67643 21.3327 3.00485 20.5042 3.00485H9.50423Z" fill="black"/>
<path fill-rule="evenodd" clip-rule="evenodd" d="M4.98898 6.99948C4.98898 6.72334 5.21283 6.49948 5.48898 6.49948H7.50425C7.7804 6.49948 8.00425 6.72334 8.00425 6.99948C8.00425 7.27562 7.7804 7.49948 7.50425 7.49948H5.48898C5.21283 7.49948 4.98898 7.27562 4.98898 6.99948Z" fill="black"/>
<path fill-rule="evenodd" clip-rule="evenodd" d="M4.98898 11.9995C4.98898 11.7233 5.21283 11.4995 5.48898 11.4995H7.50425C7.7804 11.4995 8.00425 11.7233 8.00425 11.9995C8.00425 12.2756 7.7804 12.4995 7.50425 12.4995H5.48898C5.21283 12.4995 4.98898 12.2756 4.98898 11.9995Z" fill="black"/>
<path fill-rule="evenodd" clip-rule="evenodd" d="M4.98898 16.9995C4.98898 16.7233 5.21283 16.4995 5.48898 16.4995H7.50425C7.7804 16.4995 8.00425 16.7233 8.00425 16.9995C8.00425 17.2756 7.7804 17.4995 7.50425 17.4995H5.48898C5.21283 17.4995 4.98898 17.2756 4.98898 16.9995Z" fill="black"/>
<path d="M15.2465 8.45939C15.1637 7.24905 13.9699 6.96186 13.379 6.99068V6.52316C13.9951 6.35744 14.6555 6.26521 15.2931 6.60869C16.0454 7.01393 16.2175 7.88285 16.305 8.39004C16.5126 10.2837 15.0244 10.9371 14.1489 11.0271L16.3735 13.3506L15.5131 13.9293L12.7024 11.0271L13.073 9.90652C14.9753 10.1331 15.2465 9.12187 15.2465 8.45939Z" fill="black"/>
<path fill-rule="evenodd" clip-rule="evenodd" d="M12.5139 10.0257C12.7334 9.81581 13.0816 9.82363 13.2915 10.0432L16.2343 13.1278C16.4442 13.3473 16.4364 13.6955 16.2168 13.9054C15.9973 14.1153 15.6491 14.1075 15.4392 13.8879L12.4964 10.8033C12.2865 10.5838 12.2943 10.2356 12.5139 10.0257Z" fill="black"/>
<path d="M12.1486 6.30042C12.228 6.11797 12.4081 5.99997 12.6071 5.99997H17.4017C17.7596 5.99997 18.0016 6.36504 17.8622 6.6947C17.7839 6.87973 17.6026 6.99997 17.4017 6.99997H12.6071C12.2469 6.99997 12.0049 6.63067 12.1486 6.30042Z" fill="black"/>
<path d="M12.1486 8.30042C12.228 8.11797 12.4081 7.99997 12.6071 7.99997H17.4017C17.7596 7.99997 18.0016 8.36504 17.8622 8.6947C17.7839 8.87973 17.6026 8.99997 17.4017 8.99997H12.6071C12.2469 8.99997 12.0049 8.63067 12.1486 8.30042Z" fill="black"/>
<path fill-rule="evenodd" clip-rule="evenodd" d="M12.0041 17.519C12.0041 17.2429 12.228 17.019 12.5041 17.019H17.5041C17.7803 17.019 18.0041 17.2429 18.0041 17.519C18.0041 17.7952 17.7803 18.019 17.5041 18.019H12.5041C12.228 18.019 12.0041 17.7952 12.0041 17.519Z" fill="black"/>
</g>
<defs>
<filter id="filter0_d_401_3090" x="0.988976" y="2.00485" width="26.0153" height="28" filterUnits="userSpaceOnUse" color-interpolation-filters="sRGB">
<feFlood flood-opacity="0" result="BackgroundImageFix"/>
<feColorMatrix in="SourceAlpha" type="matrix" values="0 0 0 0 0 0 0 0 0 0 0 0 0 0 0 0 0 0 127 0" result="hardAlpha"/>
<feOffset dy="4"/>
<feGaussianBlur stdDeviation="2"/>
<feColorMatrix type="matrix" values="0 0 0 0 0 0 0 0 0 0 0 0 0 0 0 0 0 0 0.25 0"/>
<feBlend mode="normal" in2="BackgroundImageFix" result="effect1_dropShadow_401_3090"/>
<feBlend mode="normal" in="SourceGraphic" in2="effect1_dropShadow_401_3090" result="shape"/>
</filter>
</defs>
</svg>
