<svg width="24" height="24" viewBox="0 0 24 24" fill="none" xmlns="http://www.w3.org/2000/svg">
<rect x="5" y="3" width="14" height="18" fill="black"/>
<path fill-rule="evenodd" clip-rule="evenodd" d="M4.00423 4.50485C4.00423 3.12414 5.12352 2.00485 6.50423 2.00485H17.5042C18.8849 2.00485 20.0042 3.12414 20.0042 4.50485V19.5049C20.0042 20.8856 18.8849 22.0049 17.5042 22.0049H6.50423C5.12352 22.0049 4.00423 20.8856 4.00423 19.5049V4.50485ZM6.50423 3.00485C5.67581 3.00485 5.00423 3.67643 5.00423 4.50485V19.5049C5.00423 20.3333 5.67581 21.0049 6.50423 21.0049H17.5042C18.3327 21.0049 19.0042 20.3333 19.0042 19.5049V4.50485C19.0042 3.67643 18.3327 3.00485 17.5042 3.00485H6.50423Z" fill="black"/>
<path fill-rule="evenodd" clip-rule="evenodd" d="M1.98898 6.99948C1.98898 6.72334 2.21283 6.49948 2.48898 6.49948H4.50425C4.7804 6.49948 5.00425 6.72334 5.00425 6.99948C5.00425 7.27562 4.7804 7.49948 4.50425 7.49948H2.48898C2.21283 7.49948 1.98898 7.27562 1.98898 6.99948Z" fill="black"/>
<path fill-rule="evenodd" clip-rule="evenodd" d="M1.98898 11.9995C1.98898 11.7233 2.21283 11.4995 2.48898 11.4995H4.50425C4.7804 11.4995 5.00425 11.7233 5.00425 11.9995C5.00425 12.2756 4.7804 12.4995 4.50425 12.4995H2.48898C2.21283 12.4995 1.98898 12.2756 1.98898 11.9995Z" fill="black"/>
<path fill-rule="evenodd" clip-rule="evenodd" d="M1.98898 16.9995C1.98898 16.7233 2.21283 16.4995 2.48898 16.4995H4.50425C4.7804 16.4995 5.00425 16.7233 5.00425 16.9995C5.00425 17.2756 4.7804 17.4995 4.50425 17.4995H2.48898C2.21283 17.4995 1.98898 17.2756 1.98898 16.9995Z" fill="black"/>
<path d="M12.2465 8.45939C12.1637 7.24905 10.9699 6.96186 10.379 6.99068V6.52316C10.9951 6.35744 11.6555 6.26521 12.2931 6.60869C13.0454 7.01393 13.2175 7.88285 13.305 8.39004C13.5126 10.2837 12.0244 10.9371 11.1489 11.0271L13.3735 13.3506L12.5131 13.9293L9.70235 11.0271L10.073 9.90652C11.9753 10.1331 12.2465 9.12187 12.2465 8.45939Z" fill="white"/>
<path fill-rule="evenodd" clip-rule="evenodd" d="M9.51388 10.0257C9.73344 9.81581 10.0816 9.82363 10.2915 10.0432L13.2343 13.1278C13.4442 13.3473 13.4364 13.6955 13.2168 13.9054C12.9973 14.1153 12.6491 14.1075 12.4392 13.8879L9.49641 10.8033C9.2865 10.5838 9.29432 10.2356 9.51388 10.0257Z" fill="white"/>
<path d="M9.14862 6.30042C9.22804 6.11797 9.40809 5.99997 9.60708 5.99997H14.4017C14.7596 5.99997 15.0016 6.36504 14.8622 6.6947C14.7839 6.87973 14.6026 6.99997 14.4017 6.99997H9.60708C9.24691 6.99997 9.00488 6.63067 9.14862 6.30042Z" fill="white"/>
<path d="M9.14862 8.30042C9.22804 8.11797 9.40809 7.99997 9.60708 7.99997H14.4017C14.7596 7.99997 15.0016 8.36504 14.8622 8.6947C14.7839 8.87973 14.6026 8.99997 14.4017 8.99997H9.60708C9.24691 8.99997 9.00488 8.63067 9.14862 8.30042Z" fill="white"/>
<path fill-rule="evenodd" clip-rule="evenodd" d="M9.00411 17.519C9.00411 17.2429 9.22797 17.019 9.50411 17.019H14.5041C14.7803 17.019 15.0041 17.2429 15.0041 17.519C15.0041 17.7952 14.7803 18.019 14.5041 18.019H9.50411C9.22797 18.019 9.00411 17.7952 9.00411 17.519Z" fill="white"/>
</svg>
