<svg width="25" height="25" viewBox="0 0 25 25" fill="none" xmlns="http://www.w3.org/2000/svg">
<path fill-rule="evenodd" clip-rule="evenodd" d="M3.10547 6.80811C3.10547 5.15125 4.44861 3.80811 6.10547 3.80811H18.1055C19.7623 3.80811 21.1055 5.15125 21.1055 6.80811V9.80665C21.1055 10.3589 20.6578 10.8067 20.1055 10.8067C19.5532 10.8067 19.1055 10.3589 19.1055 9.80665V6.80811C19.1055 6.25582 18.6578 5.80811 18.1055 5.80811H6.10547C5.55318 5.80811 5.10547 6.25582 5.10547 6.80811V18.8081C5.10547 19.3604 5.55318 19.8081 6.10547 19.8081H15.1046C15.6569 19.8081 16.1046 20.2558 16.1046 20.8081C16.1046 21.3604 15.6569 21.8081 15.1046 21.8081H6.10547C4.44862 21.8081 3.10547 20.465 3.10547 18.8081V6.80811ZM19.744 14.8391C19.1917 14.8391 18.744 15.2868 18.744 15.8391V15.8735C18.744 16.4258 18.2963 16.8735 17.744 16.8735C17.1917 16.8735 16.744 16.4258 16.744 15.8735V15.8391C16.744 14.1823 18.0872 12.8391 19.744 12.8391H19.9343C21.4924 12.8391 22.7554 14.1022 22.7554 15.6602C22.7554 16.5488 22.3367 17.3855 21.6255 17.9182L20.991 18.3934C20.7389 18.5823 20.5904 18.8788 20.5904 19.1938V19.2968C20.5904 19.8491 20.1427 20.2968 19.5904 20.2968C19.0382 20.2968 18.5904 19.8491 18.5904 19.2968V19.1938C18.5904 18.2489 19.0357 17.3591 19.792 16.7927L20.4265 16.3174C20.6335 16.1624 20.7554 15.9189 20.7554 15.6602C20.7554 15.2067 20.3878 14.8391 19.9343 14.8391H19.744ZM19.5767 23.3978C20.1843 23.3978 20.6767 22.9054 20.6767 22.2978C20.6767 21.6903 20.1843 21.1978 19.5767 21.1978C18.9692 21.1978 18.4767 21.6903 18.4767 22.2978C18.4767 22.9054 18.9692 23.3978 19.5767 23.3978ZM13.1029 9.87207H14.3352C14.578 9.87207 14.7996 9.73387 14.9065 9.51584C15.1136 9.09313 14.8059 8.59961 14.3352 8.59961H9.88577C9.64494 8.59961 9.42476 8.73558 9.31691 8.95091C9.10501 9.37396 9.41261 9.87207 9.88577 9.87207H10.719C11.1205 9.94758 11.5202 10.1441 11.6827 10.5996H9.9787C9.73646 10.5996 9.51523 10.7372 9.40809 10.9544C9.19957 11.3772 9.50726 11.8721 9.9787 11.8721H11.5878C11.3732 12.2886 10.8837 12.6032 9.77118 12.4707L9.7691 12.4766C9.58366 12.4776 9.39829 12.5471 9.25399 12.6857C8.95527 12.9726 8.94573 13.4474 9.23268 13.7461L12.1529 16.7861C12.4398 17.0848 12.9146 17.0943 13.2133 16.8074C13.512 16.5204 13.5216 16.0457 13.2346 15.7469L11.1533 13.5803C11.8804 13.4795 13.0569 13.0187 13.3688 11.8721H14.3421C14.5863 11.8721 14.8089 11.7323 14.9151 11.5124C15.1189 11.0899 14.8111 10.5996 14.3421 10.5996H13.3619C13.3094 10.3611 13.2334 10.1057 13.1029 9.87207Z" fill="#101010"/>
</svg>
