<svg width="24" height="24" viewBox="0 0 24 24" fill="none" xmlns="http://www.w3.org/2000/svg">
<path fill-rule="evenodd" clip-rule="evenodd" d="M3 6C3 4.34315 4.34315 3 6 3H18C19.6569 3 21 4.34315 21 6V8.99855C21 9.55083 20.5523 9.99855 20 9.99855C19.4477 9.99855 19 9.55083 19 8.99855V6C19 5.44772 18.5523 5 18 5H6C5.44772 5 5 5.44772 5 6V18C5 18.5523 5.44772 19 6 19H14.9991C15.5514 19 15.9991 19.4477 15.9991 20C15.9991 20.5523 15.5514 21 14.9991 21H6C4.34315 21 3 19.6569 3 18V6ZM19.6385 14.031C19.0863 14.031 18.6385 14.4787 18.6385 15.031V15.0654C18.6385 15.6177 18.1908 16.0654 17.6385 16.0654C17.0863 16.0654 16.6385 15.6177 16.6385 15.0654V15.031C16.6385 13.3742 17.9817 12.031 19.6385 12.031H19.8288C21.3869 12.031 22.6499 13.2941 22.6499 14.8521C22.6499 15.7407 22.2313 16.5774 21.52 17.1101L20.8855 17.5853C20.6334 17.7742 20.485 18.0707 20.485 18.3857V18.4887C20.485 19.041 20.0373 19.4887 19.485 19.4887C18.9327 19.4887 18.485 19.041 18.485 18.4887V18.3857C18.485 17.4408 18.9302 16.551 19.6866 15.9845L20.3211 15.5093C20.5281 15.3543 20.6499 15.1107 20.6499 14.8521C20.6499 14.3986 20.2823 14.031 19.8288 14.031H19.6385ZM19.4713 22.5897C20.0788 22.5897 20.5713 22.0972 20.5713 21.4897C20.5713 20.8822 20.0788 20.3897 19.4713 20.3897C18.8638 20.3897 18.3713 20.8822 18.3713 21.4897C18.3713 22.0972 18.8638 22.5897 19.4713 22.5897ZM12.9975 9.06396H14.2297C14.4725 9.06396 14.6941 8.92577 14.801 8.70774C15.0082 8.28502 14.7004 7.7915 14.2297 7.7915H9.7803C9.53947 7.7915 9.31929 7.92748 9.21144 8.1428C8.99954 8.56586 9.30714 9.06396 9.7803 9.06396H10.6135C11.0151 9.13947 11.4148 9.33596 11.5772 9.7915H9.87323C9.63099 9.7915 9.40977 9.92907 9.30262 10.1463C9.0941 10.5691 9.40179 11.064 9.87323 11.064H11.4824C11.2677 11.4805 10.7783 11.7951 9.66571 11.6626L9.66364 11.6685C9.47819 11.6695 9.29282 11.739 9.14852 11.8776C8.8498 12.1645 8.84026 12.6393 9.12721 12.938L12.0474 15.978C12.3343 16.2767 12.8091 16.2862 13.1078 15.9993C13.4066 15.7123 13.4161 15.2376 13.1291 14.9388L11.0479 12.7722C11.7749 12.6714 12.9514 12.2106 13.2634 11.064H14.2366C14.4808 11.064 14.7035 10.9242 14.8096 10.7042C15.0135 10.2818 14.7057 9.7915 14.2366 9.7915H13.2565C13.204 9.55295 13.1279 9.29763 12.9975 9.06396Z" fill="#101010"/>
</svg>
