<svg width="25" height="25" viewBox="0 0 25 25" fill="none" xmlns="http://www.w3.org/2000/svg">
<path fill-rule="evenodd" clip-rule="evenodd" d="M10.4511 5.01766C12.1713 4.63974 13.9681 4.84003 15.5628 5.58746C16.7592 6.14817 17.7916 6.99327 18.5748 8.04075L16.9967 7.76248C16.4528 7.66658 15.9341 8.02975 15.8382 8.57364C15.7423 9.11753 16.1055 9.63619 16.6494 9.7321L20.5886 10.4267C21.1325 10.5226 21.6512 10.1594 21.7471 9.61553L22.4417 5.6763C22.5376 5.1324 22.1744 4.61374 21.6305 4.51784C21.0866 4.42194 20.5679 4.78511 20.472 5.329L20.1996 6.87404C19.2179 5.5504 17.9188 4.48289 16.4116 3.7765C14.4182 2.84221 12.1722 2.59184 10.0219 3.06424C7.87171 3.53664 5.93747 4.7054 4.51924 6.38922C3.10101 8.07304 2.27806 10.1778 2.17805 12.377C2.17592 12.4241 2.17706 12.4705 2.18129 12.516C2.18031 12.5494 2.17951 12.5827 2.17887 12.616L2.19575 12.6163C2.28262 13.058 2.66188 13.4001 3.13159 13.4214C3.61949 13.4436 4.04159 13.1123 4.15007 12.6538L4.1785 12.6544C4.18359 12.3895 4.20184 12.1246 4.23333 11.8606L4.22693 11.8598C4.41494 10.3229 5.0458 8.86862 6.04894 7.67763C7.18352 6.33058 8.73091 5.39557 10.4511 5.01766ZM22.0229 14.5568C22.0808 14.2307 22.1226 13.9014 22.148 13.5701L20.1538 13.4177C20.1335 13.6828 20.1001 13.9462 20.0538 14.207L22.0229 14.5568ZM2.3382 14.5963C2.39742 14.9221 2.47288 15.2453 2.56451 15.5648C2.65613 15.8843 2.76345 16.1984 2.8859 16.5061L4.74412 15.7665C4.64616 15.5203 4.56031 15.2691 4.48701 15.0135C4.41371 14.7579 4.35334 14.4993 4.30597 14.2387L2.3382 14.5963ZM21.0733 17.375C21.225 17.0794 21.3617 16.7769 21.4829 16.4687L19.6217 15.7366C19.5248 15.9831 19.4154 16.2251 19.294 16.4616C19.1726 16.6982 19.0397 16.9281 18.8959 17.1506L20.5756 18.2362C20.7553 17.9581 20.9215 17.6707 21.0733 17.375ZM3.80032 18.2699C3.98117 18.5472 4.17602 18.816 4.38431 19.075C4.59259 19.334 4.81326 19.5819 5.04538 19.8181L6.47171 18.4161C6.28602 18.2272 6.10948 18.0288 5.94285 17.8216C5.77622 17.6144 5.62034 17.3994 5.47566 17.1775L3.80032 18.2699ZM18.6078 20.4661C18.8624 20.2523 19.1056 20.0264 19.3368 19.7894L17.9048 18.3931C17.7199 18.5828 17.5253 18.7635 17.3217 18.9345C17.1181 19.1055 16.9064 19.2659 16.6877 19.4152L17.8153 21.067C18.0888 20.8803 18.3533 20.6798 18.6078 20.4661ZM6.57194 21.0896C6.84616 21.2752 7.12994 21.4474 7.42233 21.6054C7.71471 21.7634 8.01424 21.9065 8.31974 22.0342L9.0912 20.189C8.8468 20.0868 8.60718 19.9724 8.37326 19.8459C8.13935 19.7195 7.91233 19.5818 7.69296 19.4333L6.57194 21.0896ZM15.1371 22.3599C15.4546 22.2616 15.7663 22.1476 16.0713 22.0187L15.2925 20.1765C15.0485 20.2797 14.7991 20.3709 14.5451 20.4496C14.2911 20.5283 14.0339 20.5941 13.7743 20.647L14.1736 22.6067C14.4981 22.5406 14.8196 22.4583 15.1371 22.3599ZM10.2198 22.6147C10.5445 22.6795 10.8729 22.7283 11.2036 22.7606C11.5344 22.793 11.866 22.8087 12.1971 22.8081L12.1931 20.8081C11.9282 20.8086 11.6629 20.796 11.3983 20.7701C11.1337 20.7442 10.871 20.7052 10.6112 20.6534L10.2198 22.6147ZM13.1609 9.80811V11.8081H15.1609C15.7132 11.8081 16.1609 12.2558 16.1609 12.8081C16.1609 13.3604 15.7132 13.8081 15.1609 13.8081H12.1609C11.6086 13.8081 11.1609 13.3604 11.1609 12.8081V9.80811C11.1609 9.25582 11.6086 8.80811 12.1609 8.80811C12.7132 8.80811 13.1609 9.25582 13.1609 9.80811Z" fill="#F19E0C"/>
</svg>
