<svg width="25" height="25" viewBox="0 0 25 25" fill="none" xmlns="http://www.w3.org/2000/svg">
<path fill-rule="evenodd" clip-rule="evenodd" d="M19.1013 1.35547C18.549 1.35547 18.1013 1.80318 18.1013 2.35547V7.3935L15.9194 5.21159C15.5289 4.82107 14.8957 4.82107 14.5052 5.21159C14.1147 5.60212 14.1147 6.23528 14.5052 6.62581L18.3943 10.5149C18.7848 10.9054 19.418 10.9054 19.8085 10.5149L23.6976 6.62581C24.0881 6.23528 24.0881 5.60212 23.6976 5.21159C23.3071 4.82107 22.6739 4.82107 22.2834 5.21159L20.1013 7.39365V2.35547C20.1013 1.80318 19.6536 1.35547 19.1013 1.35547ZM7.10132 7.80811C6.54903 7.80811 6.10132 8.25582 6.10132 8.80811V18.8081C6.10132 19.3604 6.54903 19.8081 7.10132 19.8081H17.1013C17.6536 19.8081 18.1013 19.3604 18.1013 18.8081V14.8081C18.1013 14.2558 18.549 13.8081 19.1013 13.8081C19.6536 13.8081 20.1013 14.2558 20.1013 14.8081V18.8081C20.1013 20.465 18.7582 21.8081 17.1013 21.8081H7.10132C5.44446 21.8081 4.10132 20.465 4.10132 18.8081V8.80811C4.10132 7.15125 5.44446 5.80811 7.10132 5.80811H11.1089C11.6612 5.80811 12.1089 6.25582 12.1089 6.80811C12.1089 7.36039 11.6612 7.80811 11.1089 7.80811H7.10132ZM13.0987 11.0803H14.3308C14.5736 11.0803 14.7953 10.9421 14.9021 10.7241C15.1093 10.3014 14.8016 9.80786 14.3308 9.80786H9.88144C9.64061 9.80786 9.42043 9.94384 9.31258 10.1592C9.10068 10.5822 9.40828 11.0803 9.88144 11.0803H10.7147C11.1163 11.1558 11.516 11.3523 11.6785 11.8079H9.97444C9.7322 11.8079 9.51097 11.9454 9.40383 12.1627C9.19531 12.5855 9.503 13.0803 9.97444 13.0803H11.5836C11.369 13.4969 10.8795 13.8115 9.76694 13.679L9.76486 13.6848C9.57941 13.6859 9.39402 13.7553 9.24972 13.8939C8.951 14.1809 8.94146 14.6557 9.22841 14.9544L12.1486 17.9943C12.4355 18.293 12.9103 18.3026 13.209 18.0156C13.5077 17.7287 13.5173 17.2539 13.2303 16.9552L11.1491 14.7886C11.8761 14.6877 13.0527 14.2269 13.3646 13.0803H14.3378C14.582 13.0803 14.8047 12.9405 14.9108 12.7206C15.1147 12.2982 14.8069 11.8079 14.3378 11.8079H13.3577C13.3052 11.5693 13.2292 11.314 13.0987 11.0803Z" fill="#101010"/>
</svg>
