<svg width="25" height="25" viewBox="0 0 25 25" fill="none" xmlns="http://www.w3.org/2000/svg">
<path fill-rule="evenodd" clip-rule="evenodd" d="M10.1438 6.80811C10.1438 5.70354 11.0392 4.80811 12.1438 4.80811C13.2483 4.80811 14.1438 5.70354 14.1438 6.80811C14.1438 7.91267 13.2483 8.80811 12.1438 8.80811C11.0392 8.80811 10.1438 7.91267 10.1438 6.80811ZM12.1438 2.80811C9.93464 2.80811 8.14377 4.59897 8.14377 6.80811C8.14377 9.01724 9.93464 10.8081 12.1438 10.8081C14.3529 10.8081 16.1438 9.01724 16.1438 6.80811C16.1438 4.59897 14.3529 2.80811 12.1438 2.80811ZM1.98117 14.8478C1.48478 15.0899 1.27864 15.6885 1.52074 16.1849C1.76285 16.6813 2.36152 16.8875 2.85791 16.6453L4.89376 15.6524C4.41405 16.6006 4.14377 17.6728 4.14377 18.8081C4.14377 21.0172 5.93464 22.8081 8.14377 22.8081H16.1438C18.3529 22.8081 20.1438 21.0172 20.1438 18.8081C20.1438 14.9421 17.0098 11.8081 13.1438 11.8081H11.1438C11.1062 11.8081 11.0687 11.8084 11.0313 11.809L10.5798 11.8084C10.0282 11.8355 9.60306 12.3047 9.63023 12.8564C9.65741 13.408 10.1266 13.8331 10.6782 13.8059L11.0924 13.8065L11.0929 13.8084L11.1438 13.8081H13.1438C15.9052 13.8081 18.1438 16.0467 18.1438 18.8081C18.1438 19.9127 17.2483 20.8081 16.1438 20.8081H8.14377C7.0392 20.8081 6.14377 19.9127 6.14377 18.8081C6.14377 17.7718 6.45902 16.8092 6.99885 16.0108L8.20657 18.487C8.44868 18.9834 9.04735 19.1896 9.54374 18.9475C10.0401 18.7054 10.2463 18.1067 10.0042 17.6103L7.8123 13.1163C7.5702 12.6199 6.97153 12.4138 6.47514 12.6559L1.98117 14.8478Z" fill="#101010"/>
</svg>
