<svg width="25" height="25" viewBox="0 0 25 25" fill="none" xmlns="http://www.w3.org/2000/svg">
<path fill-rule="evenodd" clip-rule="evenodd" d="M14.5052 5.72641C14.1147 6.11694 14.1147 6.7501 14.5052 7.14063C14.8957 7.53115 15.5289 7.53115 15.9194 7.14063L18.1013 4.95873V9.80406C18.1013 10.3563 18.549 10.8041 19.1013 10.8041C19.6536 10.8041 20.1013 10.3563 20.1013 9.80406V4.95857L22.2834 7.14063C22.6739 7.53115 23.3071 7.53115 23.6976 7.14063C24.0881 6.7501 24.0881 6.11694 23.6976 5.72641L19.8085 1.83733C19.418 1.4468 18.7848 1.4468 18.3943 1.83733L14.5052 5.72641ZM7.10132 7.80828C6.54903 7.80828 6.10132 8.25599 6.10132 8.80828V18.8083C6.10132 19.3606 6.54903 19.8083 7.10132 19.8083H17.1013C17.6536 19.8083 18.1013 19.3606 18.1013 18.8083V14.8083C18.1013 14.256 18.549 13.8083 19.1013 13.8083C19.6536 13.8083 20.1013 14.256 20.1013 14.8083V18.8083C20.1013 20.4651 18.7582 21.8083 17.1013 21.8083H7.10132C5.44446 21.8083 4.10132 20.4651 4.10132 18.8083V8.80828C4.10132 7.15142 5.44446 5.80828 7.10132 5.80828H11.1089C11.6612 5.80828 12.1089 6.25599 12.1089 6.80828C12.1089 7.36056 11.6612 7.80828 11.1089 7.80828H7.10132ZM13.0987 11.0805H14.3308C14.5736 11.0805 14.7953 10.9423 14.9021 10.7243C15.1093 10.3016 14.8016 9.80803 14.3308 9.80803H9.88144C9.64061 9.80803 9.42043 9.94401 9.31258 10.1593C9.10068 10.5824 9.40828 11.0805 9.88144 11.0805H10.7147C11.1163 11.156 11.516 11.3525 11.6785 11.808H9.97444C9.7322 11.808 9.51097 11.9456 9.40383 12.1629C9.19531 12.5857 9.503 13.0805 9.97444 13.0805H11.5836C11.369 13.4971 10.8795 13.8116 9.76694 13.6791L9.76486 13.685C9.57941 13.6861 9.39402 13.7555 9.24972 13.8941C8.951 14.1811 8.94146 14.6558 9.22841 14.9546L12.1486 17.9945C12.4355 18.2932 12.9103 18.3028 13.209 18.0158C13.5077 17.7289 13.5173 17.2541 13.2303 16.9554L11.1491 14.7887C11.8761 14.6879 13.0527 14.2271 13.3646 13.0805H14.3378C14.582 13.0805 14.8047 12.9407 14.9108 12.7208C15.1147 12.2983 14.8069 11.808 14.3378 11.808H13.3577C13.3052 11.5695 13.2292 11.3142 13.0987 11.0805Z" fill="#101010"/>
</svg>
