<svg width="25" height="25" viewBox="0 0 25 25" fill="none" xmlns="http://www.w3.org/2000/svg">
<path fill-rule="evenodd" clip-rule="evenodd" d="M14.5092 8.40357C14.1187 8.01304 14.1187 7.37988 14.5092 6.98935L18.3983 3.10027C18.7888 2.70974 19.422 2.70974 19.8125 3.10027L23.7016 6.98935C24.0921 7.37988 24.0921 8.01304 23.7016 8.40357C23.3111 8.79409 22.6779 8.79409 22.2874 8.40357L20.1061 6.22224V11.8038C20.1061 12.3561 19.6584 12.8038 19.1061 12.8038C18.5538 12.8038 18.1061 12.3561 18.1061 11.8038V6.22093L15.9234 8.40357C15.5329 8.79409 14.8998 8.79409 14.5092 8.40357ZM6.10547 5.80754C6.10547 5.25526 6.55318 4.80754 7.10547 4.80754H13.065C13.6173 4.80754 14.065 4.35983 14.065 3.80754C14.065 3.25526 13.6173 2.80754 13.065 2.80754H7.10547C5.44861 2.80754 4.10547 4.15069 4.10547 5.80754V6.80754H3.10547C2.55318 6.80754 2.10547 7.25526 2.10547 7.80754C2.10547 8.35983 2.55318 8.80754 3.10547 8.80754H4.10547V11.8075H3.10547C2.55318 11.8075 2.10547 12.2553 2.10547 12.8075C2.10547 13.3598 2.55318 13.8075 3.10547 13.8075H4.10547V16.8075H3.10547C2.55318 16.8075 2.10547 17.2553 2.10547 17.8075C2.10547 18.3598 2.55318 18.8075 3.10547 18.8075H4.10547V19.8075C4.10547 21.4644 5.44861 22.8075 7.10547 22.8075H17.1055C18.7623 22.8075 20.1055 21.4644 20.1055 19.8075V15.8109C20.1055 15.2586 19.6578 14.8109 19.1055 14.8109C18.5532 14.8109 18.1055 15.2586 18.1055 15.8109V19.8075C18.1055 20.3598 17.6578 20.8075 17.1055 20.8075H7.10547C6.55318 20.8075 6.10547 20.3598 6.10547 19.8075V17.8075V12.8075V7.80754V5.80754ZM14.1055 11.7953C14.1055 12.8999 13.21 13.7953 12.1055 13.7953C11.0009 13.7953 10.1055 12.8999 10.1055 11.7953C10.1055 10.6908 11.0009 9.79534 12.1055 9.79534C13.21 9.79534 14.1055 10.6908 14.1055 11.7953ZM11.3055 14.8237C9.53816 14.8237 8.10547 16.2563 8.10547 18.0237C8.10547 18.4655 8.46364 18.8237 8.90547 18.8237H15.3055C15.7473 18.8237 16.1055 18.4655 16.1055 18.0237C16.1055 16.2563 14.6728 14.8237 12.9055 14.8237H11.3055Z" fill="#101010"/>
</svg>
