<svg width="24" height="24" viewBox="0 0 24 24" fill="none" xmlns="http://www.w3.org/2000/svg">
<path fill-rule="evenodd" clip-rule="evenodd" d="M14.4038 7.59543C14.0132 7.20491 14.0132 6.57174 14.4038 6.18122L18.2928 2.29213C18.6834 1.90161 19.3165 1.90161 19.7071 2.29213L23.5961 6.18122C23.9867 6.57174 23.9867 7.20491 23.5961 7.59543C23.2056 7.98596 22.5725 7.98596 22.1819 7.59543L20.0006 5.4141V10.9957C20.0006 11.548 19.5529 11.9957 19.0006 11.9957C18.4483 11.9957 18.0006 11.548 18.0006 10.9957V5.4128L15.818 7.59543C15.4275 7.98596 14.7943 7.98596 14.4038 7.59543ZM6 4.99941C6 4.44712 6.44772 3.99941 7 3.99941H12.9595C13.5118 3.99941 13.9595 3.55169 13.9595 2.99941C13.9595 2.44712 13.5118 1.99941 12.9595 1.99941H7C5.34315 1.99941 4 3.34255 4 4.99941V5.99941H3C2.44772 5.99941 2 6.44712 2 6.99941C2 7.55169 2.44772 7.99941 3 7.99941H4V10.9994H3C2.44772 10.9994 2 11.4471 2 11.9994C2 12.5517 2.44772 12.9994 3 12.9994H4V15.9994H3C2.44772 15.9994 2 16.4471 2 16.9994C2 17.5517 2.44772 17.9994 3 17.9994H4V18.9994C4 20.6563 5.34315 21.9994 7 21.9994H17C18.6569 21.9994 20 20.6563 20 18.9994V15.0027C20 14.4504 19.5523 14.0027 19 14.0027C18.4477 14.0027 18 14.4504 18 15.0027V18.9994C18 19.5517 17.5523 19.9994 17 19.9994H7C6.44772 19.9994 6 19.5517 6 18.9994V16.9994V11.9994V6.99941V4.99941ZM14 10.9872C14 12.0918 13.1046 12.9872 12 12.9872C10.8954 12.9872 10 12.0918 10 10.9872C10 9.88263 10.8954 8.9872 12 8.9872C13.1046 8.9872 14 9.88263 14 10.9872ZM11.2 14.0155C9.43269 14.0155 8 15.4482 8 17.2155C8 17.6573 8.35817 18.0155 8.8 18.0155H15.2C15.6418 18.0155 16 17.6573 16 17.2155C16 15.4482 14.5673 14.0155 12.8 14.0155H11.2Z" fill="#101010"/>
</svg>
