<svg width="25" height="25" viewBox="0 0 25 25" fill="none" xmlns="http://www.w3.org/2000/svg">
<path fill-rule="evenodd" clip-rule="evenodd" d="M3.21338 7.46338C3.21338 5.53038 4.78038 3.96338 6.71338 3.96338H17.7134C19.6464 3.96338 21.2134 5.53038 21.2134 7.46338V10.4711C21.2134 10.7472 20.9895 10.9711 20.7134 10.9711C20.4372 10.9711 20.2134 10.7472 20.2134 10.4711V7.46338C20.2134 6.08267 19.0941 4.96338 17.7134 4.96338H6.71338C5.33267 4.96338 4.21338 6.08267 4.21338 7.46338V18.4634C4.21338 19.8441 5.33267 20.9634 6.71338 20.9634H15.7114C15.9875 20.9634 16.2114 21.1872 16.2114 21.4634C16.2114 21.7395 15.9875 21.9634 15.7114 21.9634H6.71338C4.78039 21.9634 3.21338 20.3964 3.21338 18.4634V7.46338ZM12.363 10.9346C12.1043 10.2484 11.4032 9.9886 10.8825 9.93457H9.82037C9.4602 9.93457 9.21818 9.56527 9.36192 9.23502C9.44133 9.05257 9.62138 8.93457 9.82037 8.93457H14.6149C14.9729 8.93457 15.2149 9.29964 15.0755 9.6293C14.9972 9.81433 14.8158 9.93457 14.6149 9.93457H12.9807C13.2317 10.2388 13.3622 10.61 13.4402 10.9346H14.6149C14.9729 10.9346 15.2149 11.2996 15.0755 11.6293C14.9972 11.8143 14.8158 11.9346 14.6149 11.9346H13.5257C13.3931 13.3182 12.2125 13.8492 11.4353 13.9531L13.4476 16.0624C13.5061 16.1236 13.5478 16.1949 13.5726 16.2703L13.5868 16.2852L13.5788 16.2906C13.6332 16.4807 13.583 16.6938 13.4301 16.84C13.2106 17.0499 12.8624 17.0421 12.6525 16.8225L10.4217 14.4843L9.91565 13.9617L9.9176 13.9558L9.70971 13.7379C9.4998 13.5184 9.50762 13.1702 9.72717 12.9603C9.88489 12.8095 10.109 12.7711 10.3005 12.8428C11.7138 13.0072 12.2209 12.4849 12.3868 11.9346H9.82037C9.4602 11.9346 9.21818 11.5653 9.36192 11.235C9.44133 11.0526 9.62138 10.9346 9.82037 10.9346H12.363ZM19.8485 14.4905C19.0201 14.4905 18.3485 15.1621 18.3485 15.9905V16.0741C18.3485 16.3503 18.1247 16.5741 17.8485 16.5741C17.5724 16.5741 17.3485 16.3503 17.3485 16.0741V15.9905C17.3485 14.6098 18.4678 13.4905 19.8485 13.4905H20.0388C21.3207 13.4905 22.3599 14.5297 22.3599 15.8116C22.3599 16.5427 22.0154 17.2311 21.4302 17.6694L20.7957 18.1446C20.4175 18.4279 20.1949 18.8727 20.1949 19.3452V19.4482C20.1949 19.7243 19.9711 19.9482 19.6949 19.9482C19.4188 19.9482 19.1949 19.7243 19.1949 19.4482V19.3452C19.1949 18.5577 19.566 17.8163 20.1962 17.3442L20.8308 16.869C21.1638 16.6195 21.3599 16.2277 21.3599 15.8116C21.3599 15.082 20.7684 14.4905 20.0388 14.4905H19.8485ZM19.6652 22.8008C20.0794 22.8008 20.4152 22.465 20.4152 22.0508C20.4152 21.6366 20.0794 21.3008 19.6652 21.3008C19.2509 21.3008 18.9152 21.6366 18.9152 22.0508C18.9152 22.465 19.2509 22.8008 19.6652 22.8008Z" fill="#101010"/>
</svg>
