<svg width="25" height="25" viewBox="0 0 25 25" fill="none" xmlns="http://www.w3.org/2000/svg">
<circle cx="12.2629" cy="12.9595" r="10" fill="#FD5154"/>
<path fill-rule="evenodd" clip-rule="evenodd" d="M8.70767 10.1313C8.51179 9.93665 8.51079 9.62006 8.70543 9.42418C8.90007 9.2283 9.21665 9.2273 9.41253 9.42194L12.2633 12.2546L15.1135 9.42242C15.3094 9.22778 15.6259 9.22879 15.8206 9.42467C16.0152 9.62055 16.0142 9.93713 15.8183 10.1318L12.9726 12.9595L15.8184 15.7872C16.0143 15.9819 16.0153 16.2984 15.8206 16.4943C15.626 16.6902 15.3094 16.6912 15.1135 16.4966L12.2633 13.6643L9.41249 16.4971C9.21661 16.6917 8.90002 16.6907 8.70538 16.4948C8.51074 16.2989 8.51175 15.9823 8.70763 15.7877L11.5539 12.9595L8.70767 10.1313Z" fill="white"/>
</svg>
