<svg width="25" height="25" viewBox="0 0 25 25" fill="none" xmlns="http://www.w3.org/2000/svg">
<path fill-rule="evenodd" clip-rule="evenodd" d="M10.4483 4.68091C12.276 4.27937 14.1851 4.49218 15.8795 5.28633C17.5087 6.04994 18.8519 7.30999 19.718 8.88294L17.0145 8.40623C16.7425 8.35827 16.4832 8.53986 16.4352 8.81181C16.3873 9.08375 16.5689 9.34308 16.8408 9.39103L20.78 10.0856C21.052 10.1336 21.3113 9.95199 21.3593 9.68005L22.0539 5.74082C22.1018 5.46887 21.9202 5.20954 21.6483 5.16159C21.3763 5.11364 21.117 5.29522 21.0691 5.56717L20.5754 8.36694C19.6068 6.62462 18.1132 5.22884 16.3039 4.38085C14.4101 3.49327 12.2764 3.25543 10.2337 3.70421C8.19099 4.15298 6.35346 5.2633 5.00614 6.86293C3.65883 8.46256 2.87703 10.4621 2.78202 12.5514C2.78055 12.5838 2.78219 12.6156 2.7867 12.6466C2.78527 12.69 2.78414 12.7335 2.7833 12.7769L2.82472 12.7777C2.89939 12.9448 3.06345 13.0647 3.25879 13.0736C3.46345 13.0829 3.64496 12.9678 3.73014 12.7951L3.78312 12.7961C3.78853 12.5147 3.80792 12.2332 3.84138 11.9527L3.83496 11.9519C4.03454 10.3185 4.7049 8.77288 5.77099 7.50714C6.97649 6.07589 8.62059 5.08245 10.4483 4.68091ZM21.6352 14.6207C21.6902 14.3109 21.7299 13.9981 21.7539 13.6833L20.7568 13.6071C20.7353 13.8888 20.6998 14.1687 20.6506 14.4458L21.6352 14.6207ZM2.93467 14.6582C2.99093 14.9677 3.06262 15.2748 3.14966 15.5783C3.2367 15.8818 3.33865 16.1802 3.45498 16.4725L4.38409 16.1027C4.28001 15.8412 4.18879 15.5742 4.11091 15.3026C4.03303 15.0311 3.96889 14.7563 3.91856 14.4794L2.93467 14.6582ZM20.733 17.298C20.8772 17.0171 21.007 16.7298 21.1222 16.437L20.1916 16.071C20.0885 16.3329 19.9724 16.59 19.8434 16.8413C19.7143 17.0926 19.5731 17.3369 19.4203 17.5733L20.2602 18.1161C20.4309 17.8519 20.5888 17.5789 20.733 17.298ZM4.32368 18.1481C4.49549 18.4116 4.6806 18.6669 4.87847 18.9129C5.07634 19.159 5.28598 19.3946 5.50649 19.6189L6.21966 18.9179C6.02236 18.7172 5.83479 18.5064 5.65774 18.2863C5.4807 18.0661 5.31508 17.8377 5.16135 17.6019L4.32368 18.1481ZM18.3908 20.2345C18.6326 20.0314 18.8637 19.8169 19.0833 19.5916L18.3673 18.8935C18.1708 19.095 17.9641 19.287 17.7477 19.4687C17.5314 19.6504 17.3066 19.8208 17.0741 19.9795L17.6379 20.8054C17.8977 20.628 18.149 20.4375 18.3908 20.2345ZM6.95672 20.8268C7.21723 21.0032 7.48682 21.1668 7.76459 21.3169C8.04236 21.467 8.32691 21.6029 8.61714 21.7242L9.00286 20.8016C8.74319 20.6931 8.48859 20.5715 8.24006 20.4371C7.99153 20.3028 7.75032 20.1564 7.51723 19.9987L6.95672 20.8268ZM15.0936 22.0337C15.3952 21.9402 15.6914 21.832 15.9811 21.7095L15.5917 20.7884C15.3325 20.898 15.0675 20.9949 14.7976 21.0785C14.5278 21.1621 14.2544 21.2321 13.9787 21.2883L14.1783 22.2681C14.4866 22.2053 14.792 22.1271 15.0936 22.0337ZM10.4222 22.2757C10.7307 22.3373 11.0426 22.3836 11.3568 22.4143C11.6711 22.445 11.9861 22.46 12.3006 22.4594L12.2986 21.4594C12.0172 21.46 11.7353 21.4466 11.4542 21.4191C11.173 21.3916 10.8939 21.3501 10.6179 21.295L10.4222 22.2757ZM12.2101 9.45952V12.9595H15.711C15.9872 12.9595 16.211 13.1834 16.211 13.4595C16.211 13.7357 15.9872 13.9595 15.711 13.9595H11.2101V9.45952C11.2101 9.18337 11.4339 8.95952 11.7101 8.95952C11.9862 8.95952 12.2101 9.18337 12.2101 9.45952Z" fill="#F19E0C"/>
</svg>
