<svg width="25" height="25" viewBox="0 0 25 25" fill="none" xmlns="http://www.w3.org/2000/svg">
<path fill-rule="evenodd" clip-rule="evenodd" d="M6.71024 3.96265C4.77728 3.96265 3.2103 5.52958 3.21024 7.46254L3.21021 8.47278C3.2102 8.74892 3.43405 8.97279 3.71019 8.97279C3.98633 8.9728 4.2102 8.74895 4.21021 8.47281L4.21024 7.46257C4.21028 6.08189 5.32956 4.96265 6.71024 4.96265H7.70493C7.98108 4.96265 8.20493 4.73879 8.20493 4.46265C8.20493 4.1865 7.98108 3.96265 7.70493 3.96265H6.71024ZM16.7109 3.96265C16.4348 3.96265 16.2109 4.1865 16.2109 4.46265C16.2109 4.73879 16.4348 4.96265 16.7109 4.96265H17.7103C19.091 4.96265 20.2103 6.08193 20.2103 7.46265V8.4617C20.2103 8.73784 20.4342 8.9617 20.7103 8.9617C20.9865 8.9617 21.2103 8.73784 21.2103 8.4617V7.46265C21.2103 5.52965 19.6433 3.96265 17.7103 3.96265H16.7109ZM21.2103 17.4622C21.2103 17.186 20.9865 16.9622 20.7103 16.9622C20.4342 16.9622 20.2103 17.186 20.2103 17.4622V18.4626C20.2103 19.8434 19.091 20.9626 17.7103 20.9626H16.7094C16.4333 20.9626 16.2094 21.1865 16.2094 21.4626C16.2094 21.7388 16.4333 21.9626 16.7094 21.9626H17.7103C19.6433 21.9626 21.2103 20.3956 21.2103 18.4626V17.4622ZM4.21033 17.4677C4.21033 17.1916 3.98647 16.9677 3.71033 16.9677C3.43419 16.9677 3.21033 17.1916 3.21033 17.4677V18.4626C3.21033 20.3956 4.77733 21.9626 6.71033 21.9626H7.71355C7.98969 21.9626 8.21355 21.7388 8.21355 21.4626C8.21355 21.1865 7.98969 20.9626 7.71355 20.9626H6.71033C5.32962 20.9626 4.21033 19.8434 4.21033 18.4626V17.4677ZM7.2168 8.46484C7.2168 8.1887 7.44065 7.96484 7.7168 7.96484H10.7168C10.9929 7.96484 11.2168 8.1887 11.2168 8.46484V11.4648C11.2168 11.741 10.9929 11.9648 10.7168 11.9648H7.7168C7.44065 11.9648 7.2168 11.741 7.2168 11.4648V8.46484ZM8.2168 8.96484V10.9648H10.2168V8.96484H8.2168ZM13.22 8.46484C13.22 8.1887 13.4438 7.96484 13.72 7.96484H16.72C16.9961 7.96484 17.22 8.1887 17.22 8.46484V11.4648C17.22 11.741 16.9961 11.9648 16.72 11.9648H13.72C13.4438 11.9648 13.22 11.741 13.22 11.4648V8.46484ZM14.22 8.96484V10.9648H16.22V8.96484H14.22ZM7.71985 13.9592C7.44371 13.9592 7.21985 14.1831 7.21985 14.4592V17.4592C7.21985 17.7354 7.44371 17.9592 7.71985 17.9592H10.7198C10.996 17.9592 11.2198 17.7354 11.2198 17.4592V14.4592C11.2198 14.1831 10.996 13.9592 10.7198 13.9592H7.71985ZM8.21985 16.9592V14.9592H10.2198V16.9592H8.21985ZM13.21 14.4592C13.21 14.1831 13.4338 13.9592 13.71 13.9592H16.21C16.4861 13.9592 16.71 14.1831 16.71 14.4592V16.9592C16.71 17.2354 16.4861 17.4592 16.21 17.4592H13.71C13.4338 17.4592 13.21 17.2354 13.21 16.9592V14.4592ZM14.21 14.9592V16.4592H15.71V14.9592H14.21Z" fill="#101010"/>
</svg>
