<svg width="24" height="24" viewBox="0 0 24 24" fill="none" xmlns="http://www.w3.org/2000/svg">
<path fill-rule="evenodd" clip-rule="evenodd" d="M19.5001 1.00098C19.2239 1.00097 19.0001 1.22483 19.0001 1.50097L19 8.30737L15.9645 5.27193C15.7693 5.07667 15.4527 5.07667 15.2574 5.27193C15.0622 5.4672 15.0622 5.78378 15.2574 5.97904L19.1465 9.86813C19.3418 10.0634 19.6584 10.0634 19.8536 9.86813L23.7427 5.97904C23.938 5.78378 23.938 5.4672 23.7427 5.27193C23.5474 5.07667 23.2309 5.07667 23.0356 5.27193L20 8.30756L20.0001 1.50098C20.0001 1.22484 19.7762 1.00098 19.5001 1.00098ZM5.00006 8.49805C5.00006 7.11733 6.11935 5.99805 7.50006 5.99805H12.5055C12.7816 5.99805 13.0055 5.77419 13.0055 5.49805C13.0055 5.2219 12.7816 4.99805 12.5055 4.99805H7.50006C5.56707 4.99805 4.00006 6.56505 4.00006 8.49805V17.498C4.00006 19.431 5.56706 20.998 7.50006 20.998H16.5001C18.4331 20.998 20.0001 19.431 20.0001 17.498V13.4984C20.0001 13.2223 19.7762 12.9984 19.5001 12.9984C19.2239 12.9984 19.0001 13.2223 19.0001 13.4984V17.498C19.0001 18.8788 17.8808 19.998 16.5001 19.998H7.50006C6.11935 19.998 5.00006 18.8788 5.00006 17.498V8.49805ZM9.60718 9C9.40819 9 9.22814 9.118 9.14872 9.30045C9.00498 9.6307 9.24701 10 9.60718 10H10.6693C11.1901 10.054 11.8911 10.3138 12.1498 11H9.60718C9.40819 11 9.22814 11.118 9.14872 11.3005C9.00498 11.6307 9.24701 12 9.60718 12H12.1736C12.0077 12.5503 11.5006 13.0727 10.0873 12.9082C9.89578 12.8365 9.6717 12.875 9.51398 13.0257C9.29442 13.2357 9.2866 13.5838 9.49651 13.8034L9.7044 14.0213L9.70245 14.0272L10.2085 14.5497L12.4393 16.8879C12.6492 17.1075 12.9974 17.1153 13.2169 16.9054C13.3698 16.7593 13.42 16.5461 13.3656 16.356L13.3736 16.3506L13.3594 16.3358C13.3346 16.2603 13.2929 16.189 13.2344 16.1278L11.2221 14.0185C11.9993 13.9146 13.1799 13.3836 13.3125 12H14.4018C14.6026 12 14.784 11.8798 14.8623 11.6947C15.0017 11.3651 14.7597 11 14.4018 11H13.227C13.149 10.6755 13.0186 10.3043 12.7675 10H14.4018C14.6026 10 14.784 9.87976 14.8623 9.69473C15.0017 9.36507 14.7597 9 14.4018 9H9.60718Z" fill="#101010"/>
</svg>
