<svg width="25" height="25" viewBox="0 0 25 25" fill="none" xmlns="http://www.w3.org/2000/svg">
<path fill-rule="evenodd" clip-rule="evenodd" d="M15.4674 6.23133C15.2722 6.4266 15.2722 6.74318 15.4674 6.93844C15.6627 7.1337 15.9793 7.1337 16.1746 6.93844L19.21 3.90303V10.4679C19.21 10.744 19.4338 10.9679 19.71 10.9679C19.9861 10.9679 20.21 10.744 20.21 10.4679V3.90278L23.2456 6.93844C23.4409 7.1337 23.7575 7.1337 23.9527 6.93844C24.148 6.74318 24.148 6.4266 23.9527 6.23133L20.0636 2.34225C19.8684 2.14699 19.5518 2.14699 19.3565 2.34225L15.4674 6.23133ZM5.21008 9.45745C5.21008 8.07673 6.32937 6.95745 7.71008 6.95745H12.7155C12.9916 6.95745 13.2155 6.73359 13.2155 6.45745C13.2155 6.1813 12.9916 5.95745 12.7155 5.95745H7.71008C5.77709 5.95745 4.21008 7.52445 4.21008 9.45745V18.4574C4.21008 20.3904 5.77709 21.9574 7.71008 21.9574H16.7101C18.6431 21.9574 20.2101 20.3904 20.2101 18.4574V14.4578C20.2101 14.1817 19.9862 13.9578 19.7101 13.9578C19.4339 13.9578 19.2101 14.1817 19.2101 14.4578V18.4574C19.2101 19.8382 18.0908 20.9574 16.7101 20.9574H7.71008C6.32937 20.9574 5.21008 19.8382 5.21008 18.4574V9.45745ZM9.8172 9.9594C9.61821 9.9594 9.43816 10.0774 9.35874 10.2599C9.215 10.5901 9.45703 10.9594 9.8172 10.9594H10.8793C11.4001 11.0134 12.1011 11.2732 12.3598 11.9594H9.8172C9.61821 11.9594 9.43816 12.0774 9.35874 12.2599C9.215 12.5901 9.45703 12.9594 9.8172 12.9594H12.3836C12.2178 13.5097 11.7106 14.0321 10.2973 13.8676C10.1058 13.7959 9.88172 13.8344 9.724 13.9851C9.50444 14.1951 9.49662 14.5432 9.70653 14.7628L9.91442 14.9807L9.91248 14.9866L10.4186 15.5091L12.6493 17.8474C12.8592 18.0669 13.2074 18.0747 13.4269 17.8648C13.5798 17.7187 13.63 17.5055 13.5756 17.3154L13.5836 17.31L13.5694 17.2952C13.5446 17.2197 13.503 17.1484 13.4444 17.0872L11.4321 14.9779C12.2093 14.874 13.3899 14.343 13.5225 12.9594H14.6118C14.8127 12.9594 14.9941 12.8392 15.0723 12.6541C15.2117 12.3245 14.9697 11.9594 14.6118 11.9594H13.437C13.359 11.6349 13.2286 11.2637 12.9775 10.9594H14.6118C14.8127 10.9594 14.9941 10.8392 15.0723 10.6541C15.2117 10.3245 14.9697 9.9594 14.6118 9.9594H9.8172Z" fill="#101010"/>
</svg>
