<svg width="24" height="24" viewBox="0 0 24 24" fill="none" xmlns="http://www.w3.org/2000/svg">
<path fill-rule="evenodd" clip-rule="evenodd" d="M5.0033 5.49597C5.0033 4.11526 6.12258 2.99597 7.5033 2.99597H13.4983C13.7745 2.99597 13.9983 2.77211 13.9983 2.49597C13.9983 2.21983 13.7745 1.99597 13.4983 1.99597H7.5033C5.5703 1.99597 4.0033 3.56297 4.0033 5.49597V6.49988H2.5033C2.22715 6.49988 2.0033 6.72374 2.0033 6.99988C2.0033 7.27602 2.22715 7.49988 2.5033 7.49988H4.0033V11.4999H2.5033C2.22715 11.4999 2.0033 11.7237 2.0033 11.9999C2.0033 12.276 2.22715 12.4999 2.5033 12.4999H4.0033V16.4999H2.5033C2.22715 16.4999 2.0033 16.7237 2.0033 16.9999C2.0033 17.276 2.22715 17.4999 2.5033 17.4999H4.0033V18.5038C4.0033 20.4368 5.5703 22.0038 7.5033 22.0038H16.4967C18.4297 22.0038 19.9967 20.4368 19.9967 18.5038V14.5286C19.9967 14.2524 19.7728 14.0286 19.4967 14.0286C19.2205 14.0286 18.9967 14.2524 18.9967 14.5286V18.5038C18.9967 19.8845 17.8774 21.0038 16.4967 21.0038H7.5033C6.12259 21.0038 5.0033 19.8845 5.0033 18.5038V16.9999V11.9999V6.99988V5.49597ZM15.9613 6.73869L19.0071 3.6929V10.5453C19.0071 10.8214 19.2309 11.0453 19.5071 11.0453C19.7832 11.0453 20.0071 10.8214 20.0071 10.5453V3.7134L23.0324 6.73869C23.2276 6.93395 23.5442 6.93395 23.7395 6.73869C23.9347 6.54342 23.9347 6.22684 23.7395 6.03158L19.8504 2.14249C19.6551 1.94723 19.3385 1.94723 19.1433 2.14249L15.2542 6.03158C15.0589 6.22684 15.0589 6.54342 15.2542 6.73869C15.4495 6.93395 15.766 6.93395 15.9613 6.73869ZM12 11.0131C12.5523 11.0131 13 10.5653 13 10.0131C13 9.46078 12.5523 9.01306 12 9.01306C11.4477 9.01306 11 9.46078 11 10.0131C11 10.5653 11.4477 11.0131 12 11.0131ZM12 12.0131C13.1046 12.0131 14 11.1176 14 10.0131C14 8.90849 13.1046 8.01306 12 8.01306C10.8954 8.01306 10 8.90849 10 10.0131C10 11.1176 10.8954 12.0131 12 12.0131ZM9.00897 16.0414C9.11001 14.9201 10.0524 14.0414 11.2 14.0414H12.8C13.9476 14.0414 14.89 14.9201 14.991 16.0414H9.00897ZM8 16.2414C8 14.4741 9.43269 13.0414 11.2 13.0414H12.8C14.5673 13.0414 16 14.4741 16 16.2414C16 16.6832 15.6418 17.0414 15.2 17.0414H8.8C8.35817 17.0414 8 16.6832 8 16.2414Z" fill="#101010"/>
</svg>
