<svg width="24" height="24" viewBox="0 0 24 24" fill="none" xmlns="http://www.w3.org/2000/svg">
<path fill-rule="evenodd" clip-rule="evenodd" d="M4.00427 5.50488C4.00427 3.57189 5.57128 2.00488 7.50427 2.00488H16.5043C18.4373 2.00488 20.0043 3.57189 20.0043 5.50488V18.5049C20.0043 20.4379 18.4373 22.0049 16.5043 22.0049H7.50427C5.57128 22.0049 4.00427 20.4379 4.00427 18.5049V17.4995H2.48901C2.21287 17.4995 1.98901 17.2757 1.98901 16.9995C1.98901 16.7234 2.21287 16.4995 2.48901 16.4995H4.00427V12.4995H2.48901C2.21287 12.4995 1.98901 12.2757 1.98901 11.9995C1.98901 11.7234 2.21287 11.4995 2.48901 11.4995H4.00427V7.49951H2.48901C2.21287 7.49951 1.98901 7.27565 1.98901 6.99951C1.98901 6.72337 2.21287 6.49951 2.48901 6.49951H4.00427V5.50488ZM5.00427 18.5049V17.0041L5.00429 16.9995L5.00427 16.995V12.0041L5.00429 11.9995L5.00427 11.995V7.00406L5.00429 6.99951L5.00427 6.99496V5.50488C5.00427 4.12417 6.12356 3.00488 7.50427 3.00488H16.5043C17.885 3.00488 19.0043 4.12417 19.0043 5.50488V18.5049C19.0043 19.8856 17.885 21.0049 16.5043 21.0049H7.50427C6.12356 21.0049 5.00427 19.8856 5.00427 18.5049ZM10.6693 7C11.19 7.05403 11.8911 7.31384 12.1498 8H9.60712C9.40813 8 9.22808 8.118 9.14866 8.30045C9.00492 8.6307 9.24695 9 9.60712 9H12.1735C12.0077 9.55028 11.5005 10.0727 10.0872 9.90823C9.89572 9.83653 9.67164 9.87496 9.51392 10.0257C9.29436 10.2357 9.28654 10.5838 9.49645 10.8034L9.70434 11.0213L9.70239 11.0272L10.2085 11.5497L12.4392 13.8879C12.6491 14.1075 12.9973 14.1153 13.2169 13.9054C13.3697 13.7593 13.4199 13.5461 13.3655 13.356L13.3735 13.3506L13.3593 13.3358C13.3345 13.2603 13.2929 13.189 13.2343 13.1278L11.222 11.0185C11.9992 10.9146 13.1798 10.3836 13.3125 9H14.4017C14.6026 9 14.784 8.87976 14.8622 8.69473C15.0016 8.36507 14.7596 8 14.4017 8H13.227C13.1489 7.67546 13.0185 7.30427 12.7674 7H14.4017C14.6026 7 14.784 6.87976 14.8622 6.69473C15.0016 6.36507 14.7596 6 14.4017 6H9.60712C9.40813 6 9.22808 6.118 9.14866 6.30045C9.00492 6.6307 9.24695 7 9.60712 7H10.6693ZM9.50415 17.019C9.22801 17.019 9.00415 17.2429 9.00415 17.519C9.00415 17.7952 9.22801 18.019 9.50415 18.019H14.5042C14.7803 18.019 15.0042 17.7952 15.0042 17.519C15.0042 17.2429 14.7803 17.019 14.5042 17.019H9.50415Z" fill="#101010"/>
</svg>
