<svg id="Layer_2" data-name="Layer 2" xmlns="http://www.w3.org/2000/svg" viewBox="0 0 574.51 110.04"><defs><style>.cls-1{fill:#232f3e;}.cls-1,.cls-2{fill-rule:evenodd;}.cls-2{fill:#f90;}</style></defs><title>amazonpay-logo-rgb_clr</title><path class="cls-1" d="M54.19,77.11a2.33,2.33,0,0,1-2.67.27c-3.75-3.12-4.43-4.56-6.47-7.53-6.21,6.32-10.6,8.21-18.63,8.21-9.51,0-16.91-5.87-16.91-17.61,0-9.17,5-15.4,12-18.46,6.13-2.69,14.69-3.18,21.24-3.92V36.61c0-2.69.21-5.87-1.37-8.2-1.38-2.08-4-2.93-6.34-2.93-4.31,0-8.15,2.21-9.09,6.78a2.37,2.37,0,0,1-2,2.08L13.09,33.15a2,2,0,0,1-1.68-2.36C13.92,17.51,25.92,13.5,36.67,13.5c5.5,0,12.68,1.46,17,5.62,5.49,5.14,5,12,5,19.45V56.16c0,5.3,2.2,7.62,4.27,10.47.72,1,.88,2.25,0,3-2.31,1.93-6.41,5.49-8.66,7.5l0,0ZM42.8,49.57c0,4.4.1,8.07-2.11,12-1.8,3.18-4.65,5.14-7.83,5.14-4.33,0-6.86-3.3-6.86-8.2,0-9.62,8.63-11.37,16.8-11.37v2.45Z" transform="translate(-9.51 -13.35)"/><path class="cls-1" d="M85.13,76.67H73.84a2.12,2.12,0,0,1-2-1.91v-58A2.14,2.14,0,0,1,74,14.69H84.53a2.12,2.12,0,0,1,2,2v7.57h.21c2.74-7.33,7.91-10.74,14.87-10.74s11.49,3.41,14.66,10.74A16.68,16.68,0,0,1,145,19.81c3.59,4.88,2.85,12,2.85,18.18V74.58a2.13,2.13,0,0,1-2.18,2.09H134.38a2.11,2.11,0,0,1-2-2.08V43.85c0-2.44.21-8.54-.32-10.86-.84-3.9-3.37-5-6.64-5a7.5,7.5,0,0,0-6.75,4.75c-1.16,2.94-1.06,7.81-1.06,11.11V74.58a2.13,2.13,0,0,1-2.17,2.09H104.12a2.12,2.12,0,0,1-2-2.08V43.85c0-6.47,1-16-7-16s-7.8,9.27-7.8,16V74.58a2.13,2.13,0,0,1-2.18,2.09" transform="translate(-9.51 -13.35)"/><path class="cls-1" d="M211,66.59c-2.07-2.85-4.27-5.17-4.27-10.46V38.53c0-7.46.53-14.31-5-19.45-4.33-4.16-11.51-5.62-17-5.62-10.75,0-22.75,4-25.27,17.29a2,2,0,0,0,1.69,2.37l10.95,1.18a2.38,2.38,0,0,0,2-2.08c.95-4.57,4.77-6.78,9.08-6.78,2.33,0,5,.86,6.34,2.94,1.59,2.32,1.38,5.5,1.38,8.19V38c-6.55.73-15.12,1.22-21.24,3.91-7.08,3.06-12.05,9.29-12.05,18.47,0,11.73,7.4,17.6,16.91,17.6,8,0,12.42-1.89,18.62-8.21,2.06,3,2.73,4.41,6.48,7.53a2.35,2.35,0,0,0,2.67-.26l0,0c2.25-2,6.35-5.57,8.66-7.5C211.92,68.85,211.76,67.63,211,66.59ZM188.8,61.52c-1.79,3.17-4.65,5.13-7.82,5.13-4.33,0-6.86-3.3-6.86-8.19,0-9.63,8.63-11.37,16.8-11.37v2.44C190.92,53.94,191,57.6,188.8,61.52Z" transform="translate(-9.51 -13.35)"/><path class="cls-1" d="M220.56,24.85V16.56a2,2,0,0,1,2.11-2.09H259.8a2.07,2.07,0,0,1,2.14,2.09v7.11c0,1.19-1,2.75-2.79,5.21L239.91,56.34c7.14-.17,14.69.9,21.18,4.55a3.78,3.78,0,0,1,2,3.23V73c0,1.22-1.33,2.63-2.74,1.9a42.76,42.76,0,0,0-39.23.07c-1.29.69-2.64-.7-2.64-1.92V64.6a10,10,0,0,1,1.38-5.69l22.29-32H222.71a2.07,2.07,0,0,1-2.15-2.09" transform="translate(-9.51 -13.35)"/><path class="cls-1" d="M294,25.27c-8.33,0-8.86,11.34-8.86,18.42s-.1,22.2,8.75,22.2,9.18-12.2,9.18-19.64c0-4.88-.21-10.74-1.69-15.37-1.27-4-3.8-5.61-7.38-5.61Zm-.11-11.84c16.77,0,25.84,14.4,25.84,32.7,0,17.69-10,31.72-25.84,31.72-16.45,0-25.41-14.4-25.41-32.33s9.07-32.09,25.41-32.09Z" transform="translate(-9.51 -13.35)"/><path class="cls-1" d="M341.59,76.55H330.33a2.11,2.11,0,0,1-2-2.08l0-58a2.13,2.13,0,0,1,2.17-1.9h10.48a2.13,2.13,0,0,1,2,1.62v8.87h.22c3.16-7.93,7.59-11.71,15.39-11.71,5.06,0,10,1.83,13.19,6.83,2.95,4.64,2.95,12.45,2.95,18.06V74.73a2.15,2.15,0,0,1-2.17,1.82H361.2a2.11,2.11,0,0,1-2-1.82V43.24c0-6.34.74-15.62-7.07-15.62a7.42,7.42,0,0,0-6.54,4.64c-1.58,3.54-1.79,7.08-1.79,11V74.47a2.16,2.16,0,0,1-2.2,2.08" transform="translate(-9.51 -13.35)"/><path class="cls-1" d="M433.51,23.38a26.44,26.44,0,0,0-15.87,5.45v33q7.58,5.7,15.63,5.69,16.34,0,16.34-22t-16.1-22.15Zm-16.7-1.54a33.38,33.38,0,0,1,9.59-5.92,28.14,28.14,0,0,1,10.42-2A24.35,24.35,0,0,1,447.13,16a21.1,21.1,0,0,1,7.81,6.16A28.68,28.68,0,0,1,459.86,32a45.41,45.41,0,0,1,1.72,13,44.78,44.78,0,0,1-1.84,13.26,30.18,30.18,0,0,1-5.15,10.07,23.29,23.29,0,0,1-8.06,6.46A23.83,23.83,0,0,1,436,77a26.41,26.41,0,0,1-18.35-7V97.76a2.09,2.09,0,0,1-2.37,2.37h-7a2.09,2.09,0,0,1-2.37-2.37V18.05a2.1,2.1,0,0,1,2.37-2.37h5.21a2.5,2.5,0,0,1,2.73,2.37l.59,3.79Z" transform="translate(-9.51 -13.35)"/><path class="cls-1" d="M491.12,68.42a24.22,24.22,0,0,0,8.17-1.53,31,31,0,0,0,8.17-4.5V50.3a59.88,59.88,0,0,0-6.22-1.12,49.46,49.46,0,0,0-6.33-.42q-13.4,0-13.39,10.31,0,4.5,2.49,6.93t7.11,2.42ZM477.26,26l-.89.3a3.13,3.13,0,0,1-1,.18c-1,0-1.54-.71-1.54-2.14V21.17a4,4,0,0,1,.48-2.31,4.44,4.44,0,0,1,1.89-1.25A42.75,42.75,0,0,1,485.55,15a62.5,62.5,0,0,1,11.13-1q11.25,0,16.58,4.61t5.34,14.33V73.4a2.1,2.1,0,0,1-2.37,2.37h-5.1a2.37,2.37,0,0,1-2.6-2.25l-.6-3.91a32.32,32.32,0,0,1-9.41,5.68,27.86,27.86,0,0,1-10.25,2q-8.52,0-13.5-4.8t-5-12.85q0-8.64,6.16-13.8t16.58-5.15a64,64,0,0,1,14.92,2V34.91q0-6.4-2.84-9t-9.95-2.61A61,61,0,0,0,477.26,26Z" transform="translate(-9.51 -13.35)"/><path class="cls-1" d="M557.14,86.26q-3.21,8.17-7.41,11.73t-11,3.55a25.14,25.14,0,0,1-6.75-.83,3.45,3.45,0,0,1-1.9-1.13,4,4,0,0,1-.59-2.42V94.08c0-1.5.59-2.25,1.78-2.25a10.83,10.83,0,0,1,1.78.23,16.69,16.69,0,0,0,3.19.24,10.43,10.43,0,0,0,7-2.13q2.49-2.13,4.5-7.82l2.25-6L527.17,19.94a9,9,0,0,1-.82-2.85c0-.94.55-1.42,1.65-1.42h7.11a4.28,4.28,0,0,1,2.61.59,6.37,6.37,0,0,1,1.41,2.61l16.59,45.95,16-45.95a6.37,6.37,0,0,1,1.41-2.61,4.28,4.28,0,0,1,2.61-.59h6.63c1.11,0,1.66.48,1.66,1.42a9.12,9.12,0,0,1-.83,2.85L557.14,86.26" transform="translate(-9.51 -13.35)"/><path class="cls-2" d="M235.88,99.41c-21.21,15.65-52,24-78.44,24a141.93,141.93,0,0,1-95.8-36.55c-2-1.79-.22-4.24,2.17-2.85,27.28,15.87,61,25.43,95.86,25.43a190.85,190.85,0,0,0,73.13-15c3.58-1.52,6.59,2.36,3.08,5m8.82-10.07c2.72,3.47-3,17.79-5.57,24.18-.78,1.93.89,2.71,2.64,1.25,11.37-9.52,14.31-29.46,12-32.34s-22.2-5.32-34.34,3.21c-1.87,1.31-1.55,3.12.53,2.87,6.83-.82,22.05-2.65,24.76.83" transform="translate(-9.51 -13.35)"/></svg>