<svg width="93" height="28" viewBox="0 0 93 28" fill="none" xmlns="http://www.w3.org/2000/svg">
<path d="M26.582 15.2115C26.582 15.2115 25.1976 18.6333 23.4723 18.4752C22.5331 18.3895 22.2361 17.6189 22.2373 17.1476L22.2587 5.51001H17.5938V17.4342C17.5898 19.3784 19.0031 21.1571 21.5049 21.2711C23.8596 21.3788 26.5779 17.9043 26.5779 17.9043L26.5733 20.8977L31.2162 20.8595L31.2445 5.51233H26.6034L26.582 15.2115Z" fill="#FC7A69"/>
<path d="M42.1617 5.5797C40.4531 5.57681 38.9489 6.4285 37.9154 7.72195L37.8987 5.51196H33.276L33.2407 26.8348L37.8842 26.8424L37.894 19.1239C38.7463 20.3629 40.3356 21.3084 42.1328 21.3119C45.3444 21.3177 48.149 18.0528 48.1577 13.4568C48.1664 8.86081 45.3734 5.58549 42.1617 5.5797ZM40.6934 19.2947C39.5441 19.2947 38.3387 17.9173 37.8987 16.797L37.9108 10.0807C38.3549 8.96214 39.565 7.5911 40.7137 7.5911C42.3638 7.59399 43.1269 9.52838 43.1194 13.447C43.1118 17.3655 42.3429 19.2976 40.6934 19.2947Z" fill="#FC7A69"/>
<path d="M49.8267 20.9558H54.4655L54.4944 5.51196H49.8267V20.9558Z" fill="#FC7A69"/>
<path d="M72.144 5.54517C67.4299 5.54517 64.5066 9.15456 64.5014 13.3974C64.4927 17.9933 67.7616 21.0892 71.8226 21.2773C73.6812 21.363 76.2669 20.2062 77.4967 18.9435L76.7434 17.8544C74.2908 19.9729 73.2 19.7164 73.2 19.7164C70.136 19.7112 69.5901 17.3229 69.5982 13.2277L78.613 13.2439C78.3756 8.36714 75.5397 5.54459 72.144 5.54517ZM74.105 11.8063L69.5993 11.7982C69.604 9.3821 70.2843 6.34069 72.1405 6.34069C73.5688 6.34069 74.2584 9.8285 74.105 11.8063Z" fill="#FC7A69"/>
<path d="M64.9655 5.43546L62.4082 5.42851L62.4163 0.296387L55.7151 6.88871L57.6888 6.89334L57.7027 20.936H62.3688L62.4047 6.86034L64.9621 6.86729L64.9655 5.43546Z" fill="#FC7A69"/>
<path d="M88.4869 5.3829C87.0481 5.79977 85.6707 6.94616 84.7281 8.10413L84.7327 5.45006H80.0649V20.8939H82.5279L84.7078 20.898L84.7229 10.9145V10.4513C85.3522 9.38832 86.4535 7.87485 87.5802 7.97791C88.3329 8.04739 88.9582 8.8736 88.961 9.63496L92.1999 6.46213C92.2618 6.39959 90.4091 4.82707 88.4869 5.3829Z" fill="#FC7A69"/>
<path d="M10.4279 20.5366C10.4279 22.7547 8.63031 24.5523 6.41224 24.5523C4.19417 24.5523 2.39654 22.7547 2.39654 20.5366C2.39654 20.4752 2.39869 20.4143 2.40139 20.3539C2.46661 21.2621 3.22339 21.9785 4.14835 21.9785C5.08409 21.9785 5.84843 21.2449 5.89748 20.321H5.90017V15.2542H0.833374V20.321H0.833913C0.848467 24.3869 4.14835 27.6787 8.21796 27.6787C12.2784 27.6787 15.5729 24.4014 15.602 20.348H15.6025V0.296387H10.4279V20.2941V20.5366Z" fill="#FC7A69"/>
</svg>
