<svg width="115" height="35" viewBox="0 0 115 35" fill="none" xmlns="http://www.w3.org/2000/svg">
<path d="M32.4086 18.773C32.4086 18.773 30.6662 23.0798 28.4946 22.8809C27.3126 22.773 26.9387 21.8031 26.9402 21.2099L26.9671 6.56226H21.0957V21.5706C21.0906 24.0177 22.8695 26.2564 26.0183 26.3999C28.9821 26.5355 32.4035 22.1623 32.4035 22.1623L32.3977 25.9299L38.2414 25.8818L38.2771 6.56517H32.4356L32.4086 18.773Z" fill="#FC7A69"/>
<path d="M52.0184 6.64996C49.8679 6.64632 47.9747 7.71829 46.6739 9.34629L46.6527 6.5647H40.8345L40.79 33.4026L46.6345 33.4121L46.6469 23.6973C47.7196 25.2568 49.72 26.4468 51.982 26.4512C56.0243 26.4585 59.5543 22.3491 59.5652 16.5644C59.5762 10.7797 56.0607 6.65725 52.0184 6.64996ZM50.1703 23.9123C48.7238 23.9123 47.2066 22.1786 46.6527 20.7685L46.668 12.3152C47.227 10.9072 48.75 9.18159 50.1958 9.18159C52.2727 9.18524 53.2332 11.6199 53.2238 16.552C53.2143 21.4841 52.2465 23.9159 50.1703 23.9123Z" fill="#FC7A69"/>
<path d="M61.666 26.003H67.5047L67.5411 6.5647H61.666V26.003Z" fill="#FC7A69"/>
<path d="M89.7541 6.60596C83.8207 6.60596 80.1413 11.1489 80.1348 16.4891C80.1239 22.2738 84.2383 26.1704 89.3497 26.4072C91.6889 26.5151 94.9435 25.059 96.4913 23.4697L95.5432 22.0989C92.4563 24.7654 91.0833 24.4425 91.0833 24.4425C87.2269 24.436 86.5397 21.4299 86.5499 16.2756L97.8963 16.296C97.5975 10.1578 94.0282 6.60523 89.7541 6.60596ZM92.2224 14.4865L86.5513 14.4763C86.5571 11.4353 87.4134 7.60724 89.7497 7.60724C91.5475 7.60724 92.4155 11.9972 92.2224 14.4865Z" fill="#FC7A69"/>
<path d="M80.7192 6.46827L77.5004 6.45953L77.5106 0L69.0762 8.2974L71.5604 8.30323L71.5779 25.978H77.4508L77.496 8.26169L80.7148 8.27044L80.7192 6.46827Z" fill="#FC7A69"/>
<path d="M110.325 6.40189C108.514 6.92658 106.78 8.36948 105.594 9.82696L105.6 6.48642H99.7246V25.9248H102.825L105.568 25.9299L105.587 13.3642V12.7813C106.379 11.4433 107.765 9.53838 109.184 9.66809C110.131 9.75554 110.918 10.7954 110.922 11.7537L114.998 7.76026C115.076 7.68155 112.744 5.7023 110.325 6.40189Z" fill="#FC7A69"/>
<path d="M12.0762 25.4753C12.0762 28.2671 9.81359 30.5296 7.02182 30.5296C4.23005 30.5296 1.96747 28.2671 1.96747 25.4753C1.96747 25.398 1.97018 25.3213 1.97357 25.2453C2.05566 26.3885 3.00819 27.2901 4.17239 27.2901C5.35015 27.2901 6.31217 26.3668 6.37391 25.2039H6.3773V18.8266H0V25.2039H0.000678437C0.0189962 30.3214 4.17239 34.4646 9.29458 34.4646C14.4052 34.4646 18.5518 30.3397 18.5885 25.2378H18.5892V0H12.0762V25.17V25.4753Z" fill="#FC7A69"/>
</svg>