<?xml version="1.0" encoding="UTF-8"?>
<svg id="svg834" class="moblogo" width="142.99231" height="31.616814" _ngcontent-qah-c1="" version="1.1" viewBox="0 15 29.906888 1.5055626" xmlns="http://www.w3.org/2000/svg">
 <path id="path832" d="m10.874889 16.950448v-0.012c0-0.553-0.405-1.01-0.9800001-1.01-0.587 0-0.962 0.452-0.962 0.998v0.012c0 0.547 0.405 1.004 0.974 1.004 0.5930001 0 0.9680001-0.452 0.9680001-0.992zm-2.6740001 0v-0.012c0-0.897 0.726-1.64 1.706-1.64 0.9800001 0 1.7000001 0.731 1.7000001 1.628v0.012c0 0.891-0.726 1.634-1.7120001 1.634-0.974 0-1.694-0.731-1.694-1.622zm6.3700001-0.011v-0.012c0-0.606-0.417-1.004-0.913-1.004s-0.932 0.404-0.932 1.004v0.012c0 0.6 0.436 1.004 0.932 1.004 0.502 0 0.913-0.386 0.913-1.004zm-2.559-2.449c0-0.202 0.157-0.357 0.363-0.357s0.369 0.154 0.369 0.357v1.397c0.236-0.327 0.569-0.588 1.089-0.588 0.75 0 1.482 0.582 1.482 1.628v0.012c0 1.04-0.726 1.628-1.482 1.628-0.532 0-0.865-0.261-1.089-0.553v0.161c0 0.196-0.163 0.357-0.369 0.357-0.2 0-0.363-0.16-0.363-0.357zm3.763 1.201c0-0.202 0.157-0.362 0.363-0.362s0.369 0.16 0.369 0.362v2.484c0 0.202-0.163 0.357-0.369 0.357-0.2 0-0.363-0.154-0.363-0.357zm-0.055-1.171c0-0.214 0.181-0.351 0.417-0.351s0.417 0.137 0.417 0.351v0.036c0 0.214-0.181 0.357-0.417 0.357s-0.417-0.143-0.417-0.357zm1.488 0.154c0-0.202 0.163-0.363 0.375-0.363 0.206 0 0.369 0.161 0.369 0.363v1.759l2.008-1.985c0.085-0.089 0.175-0.137 0.308-0.137 0.206 0 0.345 0.161 0.345 0.339 0 0.113-0.048 0.196-0.133 0.273l-1.319 1.248 1.428 1.741c0.061 0.077 0.103 0.149 0.103 0.262 0 0.202-0.163 0.357-0.375 0.357-0.145 0-0.236-0.071-0.315-0.172l-1.361-1.706-0.69 0.654v0.862c0 0.202-0.163 0.362-0.369 0.362-0.212 0-0.375-0.16-0.375-0.362v-3.494zm4.356 3.56-0.859-2.389c-0.018-0.047-0.036-0.125-0.036-0.184 0-0.172 0.139-0.333 0.357-0.333 0.181 0 0.302 0.119 0.357 0.285l0.617 1.902 0.623-1.902c0.054-0.166 0.187-0.285 0.375-0.285h0.042c0.188 0 0.321 0.119 0.375 0.285l0.629 1.902 0.623-1.908c0.048-0.155 0.163-0.279 0.357-0.279 0.2 0 0.345 0.155 0.345 0.333 0 0.053-0.018 0.125-0.03 0.16l-0.871 2.413c-0.079 0.22-0.23 0.321-0.405 0.321h-0.024c-0.181 0-0.333-0.101-0.399-0.309l-0.623-1.866-0.629 1.866c-0.067 0.208-0.218 0.309-0.393 0.309h-0.024c-0.181 0-0.333-0.101-0.405-0.321zm4.198-2.543c0-0.202 0.157-0.362 0.363-0.362s0.369 0.16 0.369 0.362v2.484c0 0.202-0.163 0.357-0.369 0.357-0.2 0-0.363-0.154-0.363-0.357zm-0.055-1.171c0-0.214 0.181-0.351 0.417-0.351s0.417 0.137 0.417 0.351v0.036c0 0.214-0.181 0.357-0.417 0.357s-0.417-0.143-0.417-0.357zm1.404-0.03c0-0.196 0.157-0.357 0.363-0.357s0.369 0.16 0.369 0.357v2.318l1.373-1.325c0.097-0.095 0.188-0.154 0.315-0.154 0.194 0 0.321 0.154 0.321 0.327 0 0.119-0.061 0.208-0.163 0.303l-0.847 0.767 0.968 1.242c0.067 0.089 0.097 0.155 0.097 0.238 0 0.196-0.157 0.327-0.345 0.327-0.145 0-0.23-0.047-0.321-0.16l-0.913-1.195-0.484 0.452v0.547c0 0.202-0.163 0.357-0.369 0.357-0.2 0-0.363-0.154-0.363-0.357v-3.685zm-18.8250001 0.918c-0.184 0-0.334-0.147-0.334-0.328s0.15-0.329 0.334-0.329c0.185 0 0.335 0.148 0.335 0.329s-0.15 0.328-0.335 0.328zm0.617-0.505c-0.064-0.586-0.667-0.351-0.667-0.351-0.428 0.163-0.526 0.094-0.526 0.094l0.08-1.141c-0.045-0.533-0.758-0.348-0.758-0.348 0.386 0.175 0.307 0.38 0.307 0.38s-0.42 4.2-0.468 4.469-0.42 0.159-0.42 0.159v0.46h0.484c0.355 0 0.387-0.476 0.387-0.476l0.237-2.23c0.374-0.062 0.667-0.147 0.667-0.147 0.794-0.265 0.677-0.868 0.677-0.868zm-0.43 0.177c0 0.101-0.084 0.183-0.187 0.183-0.102 0-0.186-0.083-0.186-0.183s0.084-0.184 0.186-0.184c0.103 0 0.187 0.082 0.187 0.184zm-3.396-1.245c2e-3 -3e-3 4e-3 -6e-3 6e-3 -8e-3 0.055-0.138 0.183-0.238 0.336-0.258-0.151 4e-3 -0.297 0.084-0.372 0.226l-1.141 1.997405-0.194 0.676595zm-4.61500001 4.728c-0.207-0.107-0.288-0.362-0.178-0.564l2.82200001-5.263c0.06-0.113 0.168-0.186 0.287-0.211 7e-3 -2e-3 0.013-3e-3 0.019-5e-3 0.016-2e-3 0.035-5e-3 0.053-5e-3 7e-3 0 0.015-2e-3 0.021-2e-3 5e-3 0 0.011 1e-3 0.015 2e-3 0.013 0 0.025 2e-3 0.038 4e-3 0.017 2e-3 0.034 5e-3 0.052 0.01 7e-3 1e-3 0.014 4e-3 0.021 7e-3 0.021 6e-3 0.041 0.014 0.061 0.024 2e-3 1e-3 5e-3 1e-3 5e-3 3e-3 4e-3 1e-3 6e-3 3e-3 7e-3 4e-3 0.023 0.011 0.041 0.024 0.059 0.039 4e-3 3e-3 8e-3 5e-3 0.011 8e-3l0.023 0.023c-7e-3 -0.01-0.013-0.022-0.021-0.031-3e-3 -2e-3 -6e-3 -6e-3 -7e-3 -9e-3 -0.016-0.018-0.032-0.034-0.052-0.05-3e-3 -2e-3 -7e-3 -6e-3 -0.011-9e-3 -0.019-0.013-0.038-0.027-0.059-0.038-2e-3 -1e-3 -5e-3 -4e-3 -7e-3 -6e-3 -3e-3 -1e-3 -6e-3 -1e-3 -9e-3 -2e-3 -0.019-9e-3 -0.038-0.018-0.06-0.024-8e-3 -3e-3 -0.015-5e-3 -0.024-8e-3 -0.016-4e-3 -0.034-6e-3 -0.051-9e-3 -0.013-2e-3 -0.026-3e-3 -0.039-3e-3 -6e-3 0-0.01-2e-3 -0.016-2e-3s-0.013 2e-3 -0.022 2e-3c-0.018 1e-3 -0.036 3e-3 -0.054 5e-3 -7e-3 2e-3 -0.013 3e-3 -0.02 5e-3 -0.121 0.025-0.231 0.099-0.293 0.215l-2.87900001 5.371c-0.112 0.207-0.031 0.467 0.181 0.576 0.146 0.076 0.316 0.059 0.445-0.026-0.103 0.03-0.219 0.023-0.321-0.029zm3.02500001-0.424c-0.23 0-0.42-0.186-0.42-0.412v-3.127l-0.07 0.13v3.036c0 0.231 0.193 0.421 0.428 0.421 0.116 0 0.221-0.046 0.299-0.121-0.069 0.046-0.15 0.073-0.238 0.073zm1.986-0.222c-0.231 0-0.42-0.186-0.42-0.412v-1.832l-0.067 0.131v1.765c0 0.236 0.196 0.431 0.437 0.431 0.189 0 0.351-0.122 0.411-0.289-0.072 0.123-0.207 0.207-0.361 0.207zm-1.761-1.448c0.194-0.689667 0.194-0.689667 0 0zm2.982-3.756s-1.343 0.223-2.788 0.46v2.619405c-0.194 0.676595-0.194 0.676595 1.171-1.957405 2e-3 -3e-3 4e-3 -6e-3 6e-3 -8e-3 0.062-0.153 0.213-0.262 0.389-0.262 0.231 0 0.42 0.186 0.42 0.412v3.527c0 0.227-0.189 0.412-0.42 0.412s-0.42-0.186-0.42-0.412v-1.832l-1.115 2.118c-0.016 0.029-0.036 0.056-0.058 0.079-0.06 0.157-0.213 0.27-0.393 0.27-0.23 0-0.42-0.186-0.42-0.412v-3.127l-2.031 3.787c-0.10800001 0.202-0.36800001 0.282-0.57400001 0.175-0.207-0.107-0.288-0.362-0.178-0.564l2.48800001-4.641c-1.191 0.195-2.22400001 0.363-2.35800001 0.38-0.333 0.042-0.408 0.327-0.408 0.327s-0.011 4.489 0 4.712c0.01 0.222 0.248 0.264 0.248 0.264s5.61300001 0.042 5.90300001 0c0.291-0.042 0.344-0.369 0.344-0.369l0.57-5.674c-0.021-0.37-0.376-0.286-0.376-0.286z" fill="#0043cf" _ngcontent-qah-c1=""/>
</svg>