<svg width="129" height="30" viewBox="0 0 129 30" fill="none" xmlns="http://www.w3.org/2000/svg">
<path d="M47.2087 20.1254V20.0743C47.2087 17.717 45.4823 15.769 43.0311 15.769C40.5289 15.769 38.9305 17.6956 38.9305 20.0231V20.0743C38.9305 22.406 40.6569 24.354 43.0824 24.354C45.6101 24.354 47.2087 22.4274 47.2087 20.1254ZM35.8101 20.1254V20.0743C35.8101 16.2506 38.9049 13.0833 43.0823 13.0833C47.2598 13.0833 50.329 16.1994 50.329 20.0231V20.0743C50.329 23.8723 47.2343 27.0395 43.0311 27.0395C38.8793 27.0395 35.8101 23.9236 35.8101 20.1254ZM62.9638 20.0786V20.0274C62.9638 17.4441 61.1862 15.7476 59.0719 15.7476C56.9576 15.7476 55.099 17.4697 55.099 20.0274V20.0786C55.099 22.6362 56.9576 24.3583 59.0718 24.3583C61.2118 24.3583 62.9638 22.7129 62.9638 20.0786ZM52.0554 9.63909C52.0554 8.77803 52.7247 8.11721 53.6027 8.11721C54.4809 8.11721 55.1757 8.77375 55.1757 9.63909V15.5941C56.1817 14.2002 57.6013 13.0876 59.8178 13.0876C63.015 13.0876 66.1352 15.5685 66.1352 20.0274V20.0786C66.1352 24.5118 63.0405 27.0182 59.8178 27.0182C57.5501 27.0182 56.1306 25.9057 55.1757 24.661V25.3473C55.1757 26.1828 54.4809 26.8691 53.6027 26.8691C52.7502 26.8691 52.0554 26.187 52.0554 25.3472V9.63909ZM68.0961 14.7587C68.0961 13.8975 68.7653 13.2155 69.6435 13.2155C70.5217 13.2155 71.2165 13.8975 71.2165 14.7587V25.3473C71.2165 26.2083 70.5216 26.8691 69.6435 26.8691C68.7909 26.8691 68.0961 26.2126 68.0961 25.3472V14.7587ZM67.8616 9.76694C67.8616 8.8547 68.6332 8.27073 69.6392 8.27073C70.6452 8.27073 71.4168 8.8547 71.4168 9.76694V9.92037C71.4168 10.8326 70.6452 11.4423 69.6392 11.4423C68.6332 11.4423 67.8616 10.8326 67.8616 9.92037V9.76694ZM74.2046 10.4234C74.2046 9.56233 74.8995 8.87601 75.8031 8.87601C76.6813 8.87601 77.3761 9.56233 77.3761 10.4234V17.9215L85.9356 9.46006C86.298 9.08062 86.6816 8.8761 87.2485 8.8761C88.1267 8.8761 88.7192 9.56232 88.7192 10.3211C88.7192 10.8028 88.5146 11.1566 88.1522 11.4849L82.5297 16.8048L88.6169 24.2262C88.877 24.5544 89.056 24.8613 89.056 25.343C89.056 26.2041 88.3612 26.8649 87.4574 26.8649C86.8393 26.8649 86.4515 26.5621 86.1148 26.1316L80.3131 18.8594L77.3718 21.6472V25.3217C77.3718 26.1828 76.6769 26.8648 75.7989 26.8648C74.8952 26.8648 74.2003 26.1828 74.2003 25.3217V10.4277L74.2046 10.4234ZM92.7731 25.5988L89.1114 15.4151C89.0347 15.2147 88.9579 14.8822 88.9579 14.6307C88.9579 13.8975 89.5504 13.2113 90.4798 13.2113C91.2513 13.2113 91.7671 13.7186 92.0015 14.4261L94.6316 22.5339L97.2873 14.4261C97.5175 13.7185 98.0844 13.2113 98.8859 13.2113H99.0649C99.8662 13.2113 100.433 13.7186 100.663 14.4261L103.345 22.5339L106 14.4005C106.205 13.7399 106.695 13.2112 107.522 13.2112C108.375 13.2112 108.993 13.872 108.993 14.6307C108.993 14.8566 108.916 15.1636 108.865 15.3128L105.152 25.5989C104.815 26.5366 104.172 26.9672 103.426 26.9672H103.323C102.552 26.9672 101.904 26.5366 101.622 25.65L98.9668 17.6957L96.2855 25.65C95.9999 26.5366 95.3562 26.9672 94.6103 26.9672H94.5079C93.7364 26.9672 93.0885 26.5366 92.7815 25.5989L92.7731 25.5988ZM110.668 14.7587C110.668 13.8975 111.337 13.2155 112.215 13.2155C113.094 13.2155 113.788 13.8975 113.788 14.7587V25.3473C113.788 26.2083 113.094 26.8691 112.215 26.8691C111.363 26.8691 110.668 26.2126 110.668 25.3472V14.7587ZM110.434 9.76694C110.434 8.8547 111.205 8.27073 112.211 8.27073C113.217 8.27073 113.989 8.8547 113.989 9.76694V9.92037C113.989 10.8326 113.217 11.4423 112.211 11.4423C111.205 11.4423 110.434 10.8326 110.434 9.92037L110.434 9.76694ZM116.419 9.63909C116.419 8.80361 117.088 8.11721 117.966 8.11721C118.844 8.11721 119.539 8.79924 119.539 9.63909V19.5202L125.392 13.872C125.805 13.467 126.193 13.2155 126.734 13.2155C127.561 13.2155 128.103 13.872 128.103 14.6094C128.103 15.1167 127.843 15.4961 127.408 15.901L123.797 19.1705L127.924 24.4649C128.209 24.8443 128.337 25.1255 128.337 25.4794C128.337 26.3149 127.668 26.8734 126.867 26.8734C126.248 26.8734 125.886 26.6729 125.498 26.1913L121.606 21.0973L119.543 23.0241V25.3557C119.543 26.2169 118.848 26.8776 117.97 26.8776C117.118 26.8776 116.423 26.2211 116.423 25.3557V9.64756L116.419 9.63909ZM36.1725 13.5522C35.3881 13.5522 34.7487 12.9255 34.7487 12.154C34.7487 11.3824 35.3881 10.7516 36.1725 10.7516C36.961 10.7516 37.6004 11.3824 37.6004 12.154C37.6004 12.9255 36.961 13.5522 36.1724 13.5522H36.1725ZM38.8026 11.3995C38.5298 8.90151 35.9593 9.90325 35.9593 9.90325C34.1349 10.5981 33.7171 10.3039 33.7171 10.3039L34.0581 5.44014C33.8663 3.1681 30.8269 3.95677 30.8269 3.95677C32.4724 4.70273 32.1357 5.57655 32.1357 5.57655C32.1357 5.57655 30.3452 23.4801 30.1406 24.6267C29.936 25.7734 28.3504 25.3046 28.3504 25.3046V27.2654H30.4134C31.9268 27.2654 32.0632 25.2364 32.0632 25.2364L33.0734 15.7304C34.6677 15.4661 35.9166 15.1038 35.9166 15.1038C39.3012 13.9742 38.8026 11.4038 38.8026 11.4038V11.3995ZM36.9696 12.154C36.9696 12.5846 36.6115 12.9341 36.1725 12.9341C35.7376 12.9341 35.3796 12.5802 35.3796 12.154C35.3796 11.7277 35.7376 11.3697 36.1724 11.3697C36.6115 11.3697 36.9696 11.7192 36.9696 12.154ZM17.5016 16.3018L22.4934 6.84701C22.502 6.83417 22.5104 6.82142 22.519 6.81286C22.7535 6.22462 23.2991 5.79828 23.9513 5.71304C23.3076 5.73016 22.6853 6.07118 22.3655 6.67646L17.5016 15.901V16.3059V16.3018ZM2.82075 27.0013C1.93838 26.5451 1.59309 25.458 2.06204 24.597L14.0914 2.16225C14.3473 1.68055 14.8076 1.36931 15.3149 1.26277C15.3447 1.2543 15.3703 1.25002 15.3958 1.24146C15.4641 1.2329 15.545 1.22015 15.6218 1.22015C15.6516 1.22015 15.6857 1.21159 15.7113 1.21159C15.7328 1.21204 15.7543 1.21491 15.7752 1.22015C15.8307 1.22015 15.8818 1.22871 15.9372 1.23718C16.0097 1.24574 16.0822 1.25857 16.1588 1.27979C16.1887 1.28407 16.2186 1.29691 16.2484 1.30966C16.3379 1.33525 16.4231 1.36939 16.5084 1.41201C16.517 1.4162 16.5298 1.4162 16.5298 1.42476C16.5412 1.4274 16.5515 1.43332 16.5596 1.44179C16.6577 1.48868 16.7343 1.54414 16.811 1.60806C16.8281 1.62081 16.8452 1.62946 16.858 1.64212L16.9561 1.74019C16.9262 1.69758 16.9006 1.6464 16.8665 1.60806C16.8531 1.59841 16.8427 1.5851 16.8367 1.56973C16.7685 1.49305 16.7003 1.42476 16.615 1.35665C16.6022 1.348 16.5852 1.33097 16.5681 1.31822C16.4871 1.26277 16.4062 1.20312 16.3166 1.15622C16.308 1.15195 16.2952 1.1392 16.2868 1.13064C16.2739 1.12636 16.2612 1.12636 16.2484 1.12208C16.1674 1.08374 16.0864 1.0454 15.9926 1.01982C15.9585 1.00698 15.9286 0.99842 15.8903 0.98567C15.8221 0.968731 15.7454 0.960172 15.6729 0.947334C15.6179 0.938851 15.5623 0.934589 15.5067 0.934584C15.4811 0.934584 15.4641 0.926025 15.4386 0.926025C15.413 0.926025 15.3831 0.934584 15.3448 0.934584C15.2678 0.939572 15.1911 0.946678 15.1146 0.955892C15.0848 0.964362 15.0592 0.968642 15.0293 0.977201C14.5136 1.08374 14.0446 1.39917 13.7804 1.89372L1.50785 24.7887C1.03043 25.6712 1.37572 26.7795 2.2794 27.2441C2.90171 27.568 3.62645 27.4956 4.17627 27.1332C3.73727 27.2612 3.24282 27.2313 2.80801 27.0097L2.82075 27.0013ZM15.7156 25.1938C14.7351 25.1938 13.9252 24.4009 13.9252 23.4375V10.108L13.6268 10.6622V23.6038C13.6268 24.5886 14.4496 25.3985 15.4513 25.3985C15.9458 25.3985 16.3933 25.2024 16.7258 24.8827C16.4317 25.0788 16.0864 25.1938 15.7113 25.1938H15.7156ZM24.1814 24.2475C23.1967 24.2475 22.391 23.4546 22.391 22.4912V14.6819L22.1054 15.2403V22.7641C22.1054 23.77 22.9409 24.6013 23.9682 24.6013C24.7738 24.6013 25.4644 24.0812 25.7201 23.3694C25.4133 23.8936 24.8378 24.2517 24.1813 24.2517L24.1814 24.2475ZM29.3862 2.06418C29.3862 2.06418 23.6613 3.01476 17.5016 4.02507V16.3018L22.4934 6.84701C22.502 6.83417 22.5104 6.82142 22.519 6.81286C22.7833 6.16069 23.427 5.69601 24.1772 5.69601C25.1618 5.69601 25.9675 6.48887 25.9675 7.45229V22.487C25.9675 23.4546 25.1618 24.2432 24.1772 24.2432C23.1925 24.2432 22.3868 23.4503 22.3868 22.487V14.6776L17.6339 23.7061C17.5662 23.8285 17.4831 23.9416 17.3866 24.0428C17.1309 24.7121 16.4786 25.1938 15.7114 25.1938C14.7309 25.1938 13.921 24.4009 13.921 23.4375V10.108L5.26325 26.251C4.80286 27.112 3.69457 27.453 2.81639 26.9969C1.93402 26.5408 1.58872 25.4538 2.05767 24.5928L12.6634 4.80936C7.58646 5.64065 3.18308 6.35674 2.61186 6.42923C1.19242 6.60825 0.87271 7.82308 0.87271 7.82308C0.87271 7.82308 0.825815 26.9585 0.87271 27.9091C0.915326 28.8554 1.92983 29.0345 1.92983 29.0345C1.92983 29.0345 25.8566 29.2135 27.0928 29.0345C28.3333 28.8554 28.5592 27.4615 28.5592 27.4615L30.9889 3.27473C30.8994 1.69758 29.3862 2.05553 29.3862 2.05553V2.06418Z" fill="#0072CF"/>
</svg>
