<svg width="69" height="22" viewBox="0 0 69 22" fill="none" xmlns="http://www.w3.org/2000/svg">
<path d="M68.7374 6.88162C68.1181 5.11093 66.4303 3.83941 64.448 3.83941H64.4065C63.1178 3.83941 61.9565 4.37576 61.1297 5.23678C60.3016 4.37576 59.1402 3.83941 57.853 3.83941H57.8115C56.6787 3.83941 55.6432 4.25417 54.848 4.94073V4.59173C54.8208 4.24416 54.5347 3.97102 54.1814 3.97102H51.1407C50.7688 3.97102 50.4685 4.27136 50.4685 4.64464V21.1572C50.4685 21.5305 50.7688 21.8309 51.1407 21.8309H54.1814C54.5204 21.8309 54.7993 21.5777 54.8437 21.2502L54.8423 9.39603C54.8419 9.35639 54.8438 9.31676 54.8479 9.27732C54.8966 8.74811 55.2842 8.31332 55.8964 8.25896H56.457C56.713 8.28182 56.929 8.37195 57.0992 8.50781C57.3638 8.71807 57.5111 9.04132 57.5111 9.39603L57.5225 21.1915C57.5225 21.5648 57.8243 21.8666 58.1947 21.8666H61.2355C61.5945 21.8666 61.8863 21.5805 61.9035 21.2244L61.9021 9.3803C61.9006 8.99125 62.0809 8.63941 62.3969 8.43058C62.5528 8.33043 62.7402 8.26325 62.9561 8.24323H63.5168C64.1747 8.30043 64.5724 8.7996 64.5709 9.3803L64.5824 21.1601C64.5824 21.5334 64.8842 21.8337 65.2546 21.8337H68.2954C68.6658 21.8337 68.9676 21.5334 68.9676 21.1601V8.49066C68.9676 7.62676 68.8704 7.2592 68.7373 6.88162M48.152 4.01403H46.4128V1.1878C46.4127 0.848818 46.1381 0.574219 45.7991 0.574219C45.7591 0.574219 45.7205 0.579895 45.6833 0.587071C43.7553 1.11628 44.1415 3.78663 40.6216 4.01403H40.2797C40.2282 4.01403 40.1796 4.02117 40.1324 4.03118H40.1296L40.1324 4.0326C39.832 4.09986 39.6061 4.36587 39.6061 4.68628V7.72703C39.6061 8.09747 39.9078 8.39924 40.2797 8.39924H42.1148L42.1119 21.2932C42.1119 21.6608 42.4094 21.9583 42.777 21.9583H45.7834C46.1496 21.9583 46.4471 21.6608 46.4471 21.2932L46.4485 8.39924H48.152C48.5224 8.39924 48.8242 8.09747 48.8242 7.72703V4.68628C48.8242 4.31584 48.5224 4.01407 48.152 4.01407" fill="#00BAF2"/>
<path d="M37.2116 4.01416H34.1709C33.8005 4.01416 33.5001 4.31596 33.5001 4.68637V10.9739C33.4929 11.3629 33.1783 11.6747 32.7878 11.6747H31.5149C31.1201 11.6747 30.8011 11.3572 30.8011 10.9624L30.7897 4.68641C30.7897 4.31596 30.4879 4.0142 30.1175 4.0142H27.0767C26.7049 4.0142 26.4045 4.31596 26.4045 4.68641V11.5775C26.4045 14.1949 28.271 16.0614 30.8898 16.0614C30.8898 16.0614 32.855 16.0614 32.9151 16.0728C33.2698 16.1129 33.5458 16.4104 33.5458 16.7765C33.5458 17.1384 33.2755 17.4344 32.9251 17.4788C32.908 17.4816 32.8922 17.4859 32.8736 17.4888L28.4269 17.5045C28.055 17.5045 27.7547 17.8063 27.7547 18.1767V21.2161C27.7547 21.588 28.055 21.8883 28.4269 21.8883H33.3985C36.0188 21.8883 37.8839 20.0232 37.8839 17.4044V4.68641C37.8839 4.31596 37.5835 4.0142 37.2116 4.0142M7.77912 9.58582V11.4624C7.77912 11.8556 7.46017 12.1761 7.06685 12.1761L5.1374 12.1775V8.41728H7.06685C7.46017 8.41728 7.77912 8.73478 7.77912 9.12955V9.58582ZM8.04658 4.01343H1.40008C1.03535 4.01343 0.740723 4.30952 0.740723 4.67278V7.65207C0.740723 7.65778 0.742142 7.6635 0.742142 7.66922C0.742142 7.68353 0.740723 7.69784 0.740723 7.71069V21.1954C0.740723 21.5615 1.01532 21.8605 1.35576 21.869H4.45368C4.82412 21.869 5.12589 21.5687 5.12589 21.1968L5.13736 16.5756H8.04654C10.4808 16.5756 12.1772 14.8864 12.1772 12.4421V8.1527C12.1772 5.70834 10.4808 4.01347 8.04654 4.01347L8.04658 4.01343ZM20.3957 16.7246V17.1994C20.3957 17.2381 20.39 17.2753 20.3843 17.311C20.3772 17.3446 20.3676 17.3775 20.3557 17.4097C20.2613 17.6757 19.9953 17.8688 19.6791 17.8688H18.4134C18.0186 17.8688 17.6968 17.5685 17.6968 17.1994V16.6259C17.6968 16.6188 17.6954 16.6116 17.6954 16.6045L17.6968 15.0784V14.6006L17.6982 14.5964C17.6997 14.2288 18.0186 13.9313 18.4134 13.9313H19.6791C20.0753 13.9313 20.3957 14.2302 20.3957 14.6007L20.3957 16.7246ZM19.9123 4.0309H15.693C15.3197 4.0309 15.018 4.3141 15.018 4.66163V5.84448C15.018 5.85162 15.0194 5.86022 15.0194 5.86735C15.0194 5.87595 15.0179 5.8845 15.0179 5.8931V7.51361C15.0179 7.88122 15.3383 8.18156 15.7331 8.18156H19.7507C20.0682 8.23163 20.32 8.46334 20.3557 8.82519V9.21708C20.32 9.56178 20.0711 9.81347 19.7679 9.84209H17.7784C15.1324 9.84209 13.2473 11.5999 13.2473 14.0686V17.6042C13.2473 20.0586 14.8678 21.8049 17.4952 21.8049H23.0089C23.9986 21.8049 24.801 21.0555 24.801 20.133V8.5949C24.801 5.79729 23.3593 4.0309 19.9123 4.0309H19.9123Z" fill="#1F336B"/>
</svg>
