<svg width="67" height="34" viewBox="0 0 67 34" fill="none" xmlns="http://www.w3.org/2000/svg">
<g clip-path="url(#clip0_95_2416)">
<path d="M65.52 3.44897H62.597C62.2777 3.44897 62.0188 3.70838 62.0188 4.02836V6.994C62.0188 7.31399 62.2777 7.57339 62.597 7.57339H65.52C65.8394 7.57339 66.0982 7.31399 66.0982 6.994V4.02836C66.0982 3.70838 65.8394 3.44897 65.52 3.44897Z" fill="#BCCF00"/>
<path d="M61.6212 0.648193H59.6375C59.4204 0.648193 59.2444 0.824545 59.2444 1.04209V3.05506C59.2444 3.2726 59.4204 3.44895 59.6375 3.44895H61.6212C61.8383 3.44895 62.0143 3.2726 62.0143 3.05506V1.04209C62.0143 0.824545 61.8383 0.648193 61.6212 0.648193Z" fill="#BCCF00"/>
<path d="M7.54182 8.89258H3.2864C1.01243 8.89258 0 9.91166 0 12.188V26.8147C0 27.6941 0.281104 27.9757 1.1587 27.9757H1.44666C2.32425 27.9757 2.60764 27.6941 2.60764 26.8147V21.1239H7.54182C11.9206 21.1239 13.9592 19.1819 13.9592 15.0094C13.9592 10.8368 11.9161 8.89258 7.54182 8.89258ZM11.3539 15.0071C11.3493 17.3933 10.7414 18.6849 7.54182 18.6849H2.60764V12.5338C2.60764 11.6819 2.92303 11.3636 3.77319 11.3636H7.54182C9.95063 11.3636 11.3493 11.9613 11.3493 15.0094L11.3539 15.0071ZM19.4259 13.0903C18.3735 13.0787 17.3227 13.1762 16.2903 13.3811C15.5819 13.5368 15.2848 13.7315 15.2848 14.5399V14.7689C15.267 15.0072 15.3177 15.2456 15.431 15.4559C15.4929 15.5478 15.5779 15.6216 15.6774 15.6699C15.777 15.7182 15.8875 15.7392 15.9978 15.7307C16.1469 15.7276 16.295 15.7061 16.4389 15.6666C17.464 15.4572 18.5077 15.3528 19.5539 15.3552C22.0975 15.3552 23.1351 16.0628 23.1351 17.7941V19.3376H19.9355C15.8218 19.3376 13.8907 20.7322 13.8907 23.7231C13.8907 26.6269 15.8744 28.2254 19.4739 28.2254C23.7544 28.2254 25.6628 26.7666 25.6628 23.4941V17.7941C25.649 14.6292 23.615 13.0903 19.4259 13.0903ZM23.1214 21.4032V23.4071C23.1214 25.0422 22.518 25.988 19.4259 25.988C17.3827 25.988 16.3909 25.2483 16.3909 23.7231C16.3909 22.0536 17.3873 21.4032 19.9424 21.4032H23.1214ZM39.8048 14.6865L36.4978 27.9322C35.5311 31.8254 33.8742 33.4834 30.7843 33.6849C30.7021 33.6849 30.6266 33.6963 30.5558 33.6963C29.8885 33.6963 29.6782 33.3276 29.5548 32.7345L29.4999 32.4757C29.4561 32.3474 29.4391 32.2115 29.4501 32.0763C29.4611 31.9411 29.4999 31.8097 29.5639 31.6902C29.7171 31.4864 29.989 31.4269 30.4095 31.3902C32.4778 31.1773 33.1794 30.22 33.8696 28.0467C33.5001 28.1635 33.1144 28.2207 32.7269 28.2162C30.4552 28.2162 29.845 26.6292 29.3331 24.7101L26.6112 14.6933C26.5198 14.3521 26.4604 14.0063 26.6363 13.7773C26.8123 13.5483 27.1597 13.5139 27.5048 13.5139H27.7333C28.5926 13.5139 28.9217 13.7681 29.1457 14.5994L31.8448 24.5315C32.1944 25.7704 32.5464 25.9788 33.4217 25.9788C34.137 25.9788 34.5644 25.7498 34.8546 24.5361L37.252 14.6017C37.4417 13.7773 37.7777 13.5117 38.637 13.5117H38.8952C39.2403 13.5117 39.5808 13.5437 39.7637 13.7704C39.9465 13.9971 39.8871 14.3452 39.8094 14.6865H39.8048ZM59.2307 10.8162V20.8582C59.2307 22.475 58.8673 23.8353 58.1657 24.946C56.8082 27.0826 54.18 28.2208 50.4433 28.2208H50.4159C46.6793 28.2208 44.0511 27.0757 42.6936 24.946C41.9919 23.8422 41.6286 22.475 41.6286 20.8582V10.8162C41.6286 9.19258 42.289 8.89945 44.0671 8.89945H44.627C46.4073 8.89258 47.0792 9.19258 47.0792 10.8162V15.4697C47.0792 15.4971 47.0792 15.5246 47.0792 15.5544V20.8582C47.0533 21.4063 47.1858 21.9502 47.4609 22.4246C47.9477 23.1712 48.9053 23.5124 50.4319 23.5147C51.9586 23.517 52.9276 23.1712 53.4029 22.4246C53.6778 21.9501 53.8103 21.4062 53.7846 20.8582V15.5544C53.7846 15.5246 53.7846 15.4971 53.7846 15.4697V10.8162C53.7846 9.19258 54.4451 8.89945 56.2231 8.89945H56.783C58.5748 8.89258 59.2353 9.19258 59.2353 10.8162H59.2307Z" fill="url(#paint0_linear_95_2416)"/>
<g style="mix-blend-mode:multiply">
<path d="M61.2371 7.57104H57.2994C56.8702 7.57104 56.5223 7.91965 56.5223 8.34967V12.3436C56.5223 12.7736 56.8702 13.1222 57.2994 13.1222H61.2371C61.6663 13.1222 62.0142 12.7736 62.0142 12.3436V8.34967C62.0142 7.91965 61.6663 7.57104 61.2371 7.57104Z" fill="#BCCF00"/>
</g>
</g>
<defs>
<linearGradient id="paint0_linear_95_2416" x1="29.6188" y1="14.13" x2="29.6188" y2="39.3597" gradientUnits="userSpaceOnUse">
<stop stop-color="#BCCF00"/>
<stop offset="1" stop-color="#438F29"/>
</linearGradient>
<clipPath id="clip0_95_2416">
<rect width="66.096" height="33.048" fill="white" transform="translate(0 0.648193)"/>
</clipPath>
</defs>
</svg>
