<svg width="55" height="56" viewBox="0 0 55 56" fill="none" xmlns="http://www.w3.org/2000/svg">
<g filter="url(#filter0_d_95_2429)">
<path d="M3.84725 25.9399C3.84571 30.1293 4.93741 34.2187 7.01251 37.8235L3.64813 50.1404L16.2195 46.8352C19.6832 48.7293 23.583 49.7273 27.5516 49.7289H27.5618C40.6314 49.7289 51.2706 39.0644 51.2762 25.9591C51.2783 19.6075 48.8138 13.6353 44.3368 9.14253C39.8591 4.64982 33.9051 2.17436 27.5618 2.17155C14.4901 2.17155 3.85245 12.8343 3.84725 25.9399Z" fill="black"/>
<path d="M3.84725 25.9399C3.84571 30.1293 4.93741 34.2187 7.01251 37.8235L3.64813 50.1404L16.2195 46.8352C19.6832 48.7293 23.583 49.7273 27.5516 49.7289H27.5618C40.6314 49.7289 51.2706 39.0644 51.2762 25.9591C51.2783 19.6075 48.8138 13.6353 44.3368 9.14253C39.8591 4.64982 33.9051 2.17436 27.5618 2.17155C14.4901 2.17155 3.85245 12.8343 3.84725 25.9399Z" fill="black" fill-opacity="0.2"/>
</g>
<path d="M4.69825 25.6925C4.69706 29.7217 5.74981 33.656 7.75181 37.1238L4.50671 48.9727L16.6322 45.7933C19.9729 47.614 23.7341 48.5748 27.5621 48.5762H27.5723C40.178 48.5762 50.4394 38.3182 50.4446 25.7103C50.4471 19.6007 48.07 13.856 43.7512 9.534C39.4331 5.21204 33.6902 2.83063 27.5715 2.82791C14.9643 2.82791 4.70336 13.0851 4.69825 25.6926" fill="url(#paint0_linear_95_2429)"/>
<path d="M3.88156 25.6843C3.88003 29.8588 4.97079 33.9339 7.04401 37.5259L3.68262 49.7993L16.243 46.5059C19.7036 48.3931 23.5999 49.3878 27.5651 49.3892H27.5754C40.6334 49.3892 51.2633 38.7625 51.2688 25.7035C51.271 19.3742 48.8087 13.4232 44.3356 8.94614C39.8619 4.46927 33.9131 2.00267 27.5754 1.99977C14.5151 1.99977 3.88676 12.6248 3.88148 25.6843H3.88156ZM11.3614 36.9075L10.8925 36.1628C8.9211 33.0282 7.88036 29.4057 7.88206 25.6859C7.88624 14.8312 16.7201 6.00044 27.5829 6.00044C32.8432 6.00257 37.7871 8.05296 41.5057 11.774C45.2238 15.4948 47.2698 20.4413 47.2683 25.7019C47.2637 36.5569 38.4295 45.389 27.5754 45.389H27.5678C24.0334 45.3871 20.5674 44.4382 17.5444 42.6443L16.825 42.2179L9.3714 44.1721L11.3614 36.9075Z" fill="url(#paint1_linear_95_2429)"/>
<path fill-rule="evenodd" clip-rule="evenodd" d="M21.6536 15.7833C21.2101 14.7975 20.7433 14.7777 20.3213 14.7604C19.9763 14.7457 19.5812 14.7466 19.1868 14.7466C18.7921 14.7466 18.1506 14.8948 17.6082 15.4873C17.0655 16.0797 15.5359 17.5117 15.5359 20.4245C15.5359 23.3375 17.6576 26.1519 17.9533 26.5473C18.2493 26.9421 22.049 33.1102 28.0663 35.4833C33.0673 37.4554 34.085 37.0631 35.1705 36.9644C36.2559 36.8658 38.6731 35.5326 39.1664 34.1502C39.6598 32.768 39.6598 31.5832 39.5118 31.3355C39.3638 31.0888 38.9691 30.9408 38.377 30.6447C37.7849 30.3486 34.8744 28.9162 34.3316 28.7189C33.7889 28.5216 33.3942 28.4229 32.9995 29.0156C32.6048 29.6077 31.471 30.9408 31.1254 31.3356C30.7801 31.7312 30.4347 31.7806 29.8426 31.4845C29.2505 31.1875 27.3438 30.563 25.0818 28.5463C23.3219 26.9772 22.1338 25.0394 21.7883 24.4467C21.4429 23.8545 21.7514 23.5338 22.0483 23.2387C22.3141 22.9735 22.6405 22.5477 22.9364 22.202C23.2318 21.8563 23.3306 21.6095 23.5279 21.2148C23.7252 20.8195 23.6266 20.4737 23.4786 20.1777C23.3306 19.8816 22.18 16.9538 21.6536 15.7833Z" fill="white"/>
<defs>
<filter id="filter0_d_95_2429" x="0.0896215" y="0.392375" width="54.7451" height="55.0858" filterUnits="userSpaceOnUse" color-interpolation-filters="sRGB">
<feFlood flood-opacity="0" result="BackgroundImageFix"/>
<feColorMatrix in="SourceAlpha" type="matrix" values="0 0 0 0 0 0 0 0 0 0 0 0 0 0 0 0 0 0 127 0" result="hardAlpha"/>
<feOffset dy="1.77926"/>
<feGaussianBlur stdDeviation="1.77926"/>
<feColorMatrix type="matrix" values="0 0 0 0 0 0 0 0 0 0 0 0 0 0 0 0 0 0 0.15 0"/>
<feBlend mode="normal" in2="BackgroundImageFix" result="effect1_dropShadow_95_2429"/>
<feBlend mode="normal" in="SourceGraphic" in2="effect1_dropShadow_95_2429" result="shape"/>
</filter>
<linearGradient id="paint0_linear_95_2429" x1="27.4755" y1="48.9727" x2="27.4755" y2="2.82786" gradientUnits="userSpaceOnUse">
<stop stop-color="#20B038"/>
<stop offset="1" stop-color="#60D66A"/>
</linearGradient>
<linearGradient id="paint1_linear_95_2429" x1="27.4758" y1="49.7994" x2="27.4758" y2="1.9998" gradientUnits="userSpaceOnUse">
<stop stop-color="#F9F9F9"/>
<stop offset="1" stop-color="white"/>
</linearGradient>
</defs>
</svg>
