<svg width="25" height="25" viewBox="0 0 25 25" fill="none" xmlns="http://www.w3.org/2000/svg">
<path fill-rule="evenodd" clip-rule="evenodd" d="M3.31885 4.02344C3.31885 3.7473 3.54271 3.52344 3.81885 3.52344H20.8188C21.095 3.52344 21.3188 3.7473 21.3188 4.02344V10.0312C21.3188 10.3073 21.095 10.5312 20.8188 10.5312C20.5427 10.5312 20.3188 10.3073 20.3188 10.0312V4.52344H4.31885V20.5234H15.8169C16.093 20.5234 16.3169 20.7473 16.3169 21.0234C16.3169 21.2996 16.093 21.5234 15.8169 21.5234H3.81885C3.54271 21.5234 3.31885 21.2996 3.31885 21.0234V4.02344ZM12.4685 10.4946C12.2098 9.80847 11.5087 9.54866 10.988 9.49463H9.92584C9.56567 9.49463 9.32365 9.12533 9.46739 8.79508C9.5468 8.61263 9.72685 8.49463 9.92584 8.49463H14.7204C15.0783 8.49463 15.3203 8.8597 15.1809 9.18936C15.1027 9.37439 14.9213 9.49463 14.7204 9.49463H13.0862C13.3372 9.79889 13.4676 10.1701 13.5457 10.4946H14.7204C15.0783 10.4946 15.3203 10.8597 15.1809 11.1894C15.1027 11.3744 14.9213 11.4946 14.7204 11.4946H13.6312C13.4986 12.8783 12.3179 13.4092 11.5407 13.5131L13.5531 15.6224C13.6116 15.6837 13.6532 15.7549 13.678 15.8304L13.6923 15.8453L13.6842 15.8507C13.7387 16.0408 13.6884 16.2539 13.5356 16.4C13.316 16.61 12.9679 16.6021 12.758 16.3826L10.5272 14.0443L10.0211 13.5218L10.0231 13.5159L9.81518 13.298C9.60527 13.0784 9.61309 12.7303 9.83264 12.5204C9.99036 12.3696 10.2144 12.3312 10.406 12.4029C11.8192 12.5673 12.3264 12.0449 12.4923 11.4946H9.92584C9.56567 11.4946 9.32365 11.1253 9.46739 10.7951C9.5468 10.6126 9.72685 10.4946 9.92584 10.4946H12.4685ZM19.954 14.0505C19.1256 14.0505 18.454 14.7221 18.454 15.5505V15.6342C18.454 15.9103 18.2301 16.1342 17.954 16.1342C17.6778 16.1342 17.454 15.9103 17.454 15.6342V15.5505C17.454 14.1698 18.5733 13.0505 19.954 13.0505H20.1443C21.4262 13.0505 22.4654 14.0897 22.4654 15.3716C22.4654 16.1028 22.1209 16.7911 21.5357 17.2294L20.9012 17.7047C20.523 17.9879 20.3004 18.4328 20.3004 18.9053V19.0082C20.3004 19.2844 20.0765 19.5082 19.8004 19.5082C19.5243 19.5082 19.3004 19.2844 19.3004 19.0082V18.9053C19.3004 18.1178 19.6714 17.3763 20.3017 16.9043L20.9362 16.429C21.2693 16.1796 21.4654 15.7878 21.4654 15.3716C21.4654 14.642 20.8739 14.0505 20.1443 14.0505H19.954ZM19.7706 22.3608C20.1848 22.3608 20.5206 22.0251 20.5206 21.6108C20.5206 21.1966 20.1848 20.8608 19.7706 20.8608C19.3564 20.8608 19.0206 21.1966 19.0206 21.6108C19.0206 22.0251 19.3564 22.3608 19.7706 22.3608Z" fill="#101010"/>
</svg>
