<svg width="24" height="24" viewBox="0 0 24 24" fill="none" xmlns="http://www.w3.org/2000/svg">
<path fill-rule="evenodd" clip-rule="evenodd" d="M10.1828 3.72141C12.0105 3.31987 13.9196 3.53268 15.614 4.32683C17.2432 5.09043 18.5864 6.35049 19.4525 7.92343L16.749 7.44672C16.477 7.39877 16.2177 7.58036 16.1697 7.8523C16.1218 8.12425 16.3034 8.38358 16.5753 8.43153L20.5145 9.12612C20.7865 9.17408 21.0458 8.99249 21.0938 8.72054L21.7884 4.78131C21.8363 4.50937 21.6547 4.25004 21.3828 4.20208C21.1108 4.15413 20.8515 4.33572 20.8036 4.60766L20.3099 7.40744C19.3413 5.66512 17.8477 4.26934 16.0384 3.42135C14.1446 2.53377 12.0109 2.29593 9.9682 2.7447C7.92549 3.19348 6.08796 4.3038 4.74064 5.90343C3.39332 7.50306 2.61152 9.50259 2.51652 11.5919C2.50397 11.8677 2.71743 12.1015 2.99329 12.1141C3.26914 12.1266 3.50294 11.9131 3.51548 11.6373C3.51763 11.5902 3.52016 11.5431 3.52308 11.4961C3.52984 11.4698 3.5343 11.4425 3.53623 11.4146C3.5381 11.3875 3.53752 11.3606 3.53468 11.3344C3.67773 9.57523 4.36527 7.90138 5.50549 6.54764C6.71099 5.11639 8.35509 4.12295 10.1828 3.72141ZM2.77148 14.1881C2.80564 14.3324 2.8432 14.476 2.88416 14.6188C2.92512 14.7616 2.96938 14.9033 3.01689 15.0438C3.10536 15.3054 3.39747 15.4302 3.65403 15.3281C3.9106 15.226 4.03431 14.9356 3.94746 14.6735C3.91124 14.5642 3.87721 14.454 3.84541 14.3431C3.81361 14.2322 3.78409 14.1208 3.75688 14.0089C3.69161 13.7406 3.4328 13.5599 3.16111 13.6093C2.88942 13.6587 2.70788 13.9194 2.77148 14.1881ZM20.6615 15.9378C20.7759 15.6865 20.6483 15.3956 20.3914 15.2945C20.1344 15.1934 19.8455 15.3205 19.7295 15.5711C19.6811 15.6756 19.6305 15.7792 19.5778 15.8818C19.5252 15.9844 19.4704 16.0859 19.4137 16.1861C19.2777 16.4264 19.3428 16.7353 19.5748 16.8852C19.8067 17.0351 20.1174 16.9692 20.2549 16.7297C20.3287 16.6011 20.3996 16.4707 20.4675 16.3385C20.5353 16.2063 20.6 16.0727 20.6615 15.9378ZM4.34216 17.6C4.42957 17.7198 4.51985 17.8377 4.61297 17.9534C4.70608 18.0692 4.8018 18.1827 4.90003 18.2938C5.08298 18.5006 5.40064 18.5025 5.59757 18.3089C5.79451 18.1153 5.796 17.7997 5.61434 17.5917C5.53859 17.505 5.46454 17.4167 5.39224 17.3268C5.31994 17.2369 5.24955 17.1456 5.1811 17.053C5.01693 16.8309 4.70833 16.7647 4.47701 16.9155C4.2457 17.0663 4.17938 17.377 4.34216 17.6ZM18.4595 18.9808C18.6624 18.7935 18.6575 18.4759 18.4598 18.2831C18.2621 18.0903 17.9465 18.0955 17.7424 18.2815C17.6573 18.3591 17.5706 18.435 17.4822 18.5092C17.3939 18.5834 17.3041 18.6557 17.213 18.7261C16.9945 18.8949 16.9348 19.2049 17.0905 19.4329C17.2462 19.661 17.5582 19.7207 17.7778 19.5532C17.8957 19.4633 18.0115 19.3705 18.1253 19.275C18.2391 19.1794 18.3505 19.0813 18.4595 18.9808ZM7.11248 20.1366C7.23947 20.2131 7.36837 20.2867 7.49909 20.3574C7.6298 20.428 7.76201 20.4955 7.89561 20.5598C8.14443 20.6796 8.43798 20.5582 8.5445 20.3034C8.65101 20.0487 8.53006 19.7571 8.28199 19.6358C8.17854 19.5852 8.07604 19.5325 7.97456 19.4776C7.87307 19.4228 7.7728 19.3659 7.67381 19.3071C7.43642 19.166 7.12626 19.2246 6.97148 19.4533C6.8167 19.6819 6.87597 19.994 7.11248 20.1366ZM15.2502 20.9325C15.5098 20.8385 15.6285 20.5438 15.5209 20.2894C15.4134 20.0351 15.1204 19.9176 14.8602 20.01C14.7517 20.0485 14.6423 20.0848 14.5321 20.119C14.4219 20.1531 14.3112 20.185 14.1999 20.2146C13.933 20.2855 13.7578 20.5481 13.813 20.8187C13.8681 21.0893 14.1326 21.2653 14.3999 21.196C14.5434 21.1588 14.6862 21.1182 14.8281 21.0742C14.9701 21.0302 15.1108 20.9829 15.2502 20.9325ZM10.6494 21.4011C10.7961 21.4224 10.9435 21.4403 11.0913 21.4548C11.2392 21.4693 11.3872 21.4802 11.5353 21.4877C11.8111 21.5017 12.0347 21.276 12.0341 20.9999C12.0336 20.7238 11.8091 20.5019 11.5334 20.4862C11.4184 20.4797 11.3035 20.4708 11.1887 20.4596C11.0739 20.4483 10.9594 20.4348 10.8453 20.4189C10.5718 20.3809 10.3086 20.555 10.2545 20.8259C10.2005 21.0967 10.3761 21.3614 10.6494 21.4011ZM11.9446 8.50001V12H15.4455C15.7217 12 15.9455 12.2239 15.9455 12.5C15.9455 12.7762 15.7217 13 15.4455 13H10.9446V8.50001C10.9446 8.22387 11.1684 8.00001 11.4446 8.00001C11.7207 8.00001 11.9446 8.22387 11.9446 8.50001Z" fill="#F19E0C"/>
</svg>
