<svg width="25" height="25" viewBox="0 0 25 25" fill="none" xmlns="http://www.w3.org/2000/svg">
<path fill-rule="evenodd" clip-rule="evenodd" d="M10.5538 4.24097C12.3814 3.83943 14.2906 4.05224 15.985 4.84639C17.6142 5.61 18.9574 6.87005 19.8235 8.44299L17.1199 7.96628C16.848 7.91833 16.5887 8.09992 16.5407 8.37186C16.4928 8.64381 16.6743 8.90314 16.9463 8.95109L20.8855 9.64569C21.1575 9.69364 21.4168 9.51205 21.4647 9.24011L22.1593 5.30087C22.2073 5.02893 22.0257 4.7696 21.7538 4.72165C21.4818 4.67369 21.2225 4.85528 21.1745 5.12723L20.6809 7.927C19.7123 6.18468 18.2187 4.7889 16.4094 3.94091C14.5156 3.05333 12.3819 2.81549 10.3392 3.26427C8.29646 3.71304 6.45893 4.82336 5.11161 6.42299C3.76429 8.02262 2.9825 10.0221 2.88749 12.1114C2.88601 12.1438 2.88766 12.1757 2.89217 12.2067C2.89074 12.2501 2.88961 12.2935 2.88877 12.337L2.93019 12.3378C3.00486 12.5049 3.16891 12.6247 3.36426 12.6336C3.56892 12.6429 3.75043 12.5278 3.83561 12.3552L3.88859 12.3562C3.89399 12.0748 3.91339 11.7933 3.94685 11.5128L3.94043 11.512C4.14001 9.87852 4.81037 8.33294 5.87646 7.0672C7.08196 5.63595 8.72606 4.64251 10.5538 4.24097ZM21.7406 14.1807C21.7956 13.871 21.8353 13.5582 21.8594 13.2434L20.8623 13.1672C20.8408 13.4488 20.8053 13.7287 20.7561 14.0059L21.7406 14.1807ZM3.04014 14.2183C3.09639 14.5278 3.16809 14.8349 3.25513 15.1384C3.34217 15.4419 3.44412 15.7403 3.56045 16.0326L4.48956 15.6628C4.38548 15.4012 4.29426 15.1343 4.21638 14.8627C4.1385 14.5911 4.07435 14.3164 4.02402 14.0395L3.04014 14.2183ZM20.8384 16.8581C20.9826 16.5772 21.1125 16.2898 21.2276 15.9971L20.297 15.631C20.194 15.8929 20.0778 16.1501 19.9488 16.4014C19.8198 16.6527 19.6786 16.897 19.5258 17.1333L20.3657 17.6762C20.5364 17.412 20.6942 17.139 20.8384 16.8581ZM4.42915 17.7082C4.60096 17.9717 4.78607 18.227 4.98394 18.473C5.18181 18.719 5.39145 18.9546 5.61196 19.179L6.32513 18.478C6.12783 18.2772 5.94025 18.0665 5.76321 17.8463C5.58617 17.6262 5.42054 17.3977 5.26682 17.162L4.42915 17.7082ZM18.4963 19.7946C18.7381 19.5915 18.9692 19.3769 19.1888 19.1517L18.4728 18.4536C18.2763 18.6551 18.0696 18.8471 17.8532 19.0288C17.6369 19.2104 17.412 19.3809 17.1796 19.5396L17.7434 20.3654C18.0032 20.1881 18.2545 19.9976 18.4963 19.7946ZM7.06219 20.3869C7.3227 20.5632 7.59229 20.7268 7.87006 20.8769C8.14782 21.0271 8.43238 21.163 8.7226 21.2843L9.10833 20.3617C8.84866 20.2531 8.59406 20.1315 8.34553 19.9972C8.097 19.8629 7.85579 19.7165 7.6227 19.5587L7.06219 20.3869ZM15.1991 21.5937C15.5007 21.5003 15.7969 21.392 16.0866 21.2695L15.6972 20.3485C15.4379 20.4581 15.1729 20.5549 14.9031 20.6386C14.6332 20.7222 14.3599 20.7921 14.0841 20.8483L14.2838 21.8282C14.592 21.7654 14.8975 21.6872 15.1991 21.5937ZM10.5277 21.8357C10.8361 21.8973 11.1481 21.9436 11.4623 21.9744C11.7765 22.0051 12.0915 22.0201 12.4061 22.0195L12.4041 21.0195C12.1226 21.02 11.8408 21.0066 11.5596 20.9791C11.2785 20.9516 10.9994 20.9102 10.7234 20.8551L10.5277 21.8357ZM12.3155 9.01958V12.5196H15.8165C16.0926 12.5196 16.3165 12.7434 16.3165 13.0196C16.3165 13.2957 16.0926 13.5196 15.8165 13.5196H11.3155V9.01958C11.3155 8.74343 11.5394 8.51958 11.8155 8.51958C12.0917 8.51958 12.3155 8.74343 12.3155 9.01958Z" fill="#F19E0C"/>
</svg>
