<svg width="25" height="25" viewBox="0 0 25 25" fill="none" xmlns="http://www.w3.org/2000/svg">
<path fill-rule="evenodd" clip-rule="evenodd" d="M19.8156 1.52051C19.5394 1.5205 19.3156 1.74436 19.3156 2.0205L19.3155 8.8269L16.28 5.79147C16.0848 5.5962 15.7682 5.5962 15.5729 5.79147C15.3777 5.98673 15.3777 6.30331 15.5729 6.49857L19.462 10.3877C19.6573 10.5829 19.9738 10.5829 20.1691 10.3877L24.0582 6.49857C24.2535 6.30331 24.2535 5.98673 24.0582 5.79147C23.8629 5.5962 23.5464 5.5962 23.3511 5.79147L20.3155 8.8271L20.3156 2.02051C20.3156 1.74437 20.0917 1.52051 19.8156 1.52051ZM4.81555 5.51758C4.53941 5.51758 4.31555 5.74144 4.31555 6.01758V21.0176C4.31555 21.2937 4.53941 21.5176 4.81555 21.5176H19.8156C20.0917 21.5176 20.3156 21.2937 20.3156 21.0176V14.018C20.3156 13.7418 20.0917 13.518 19.8156 13.518C19.5394 13.518 19.3156 13.7418 19.3156 14.018V20.5176H5.31555V6.51758H12.821C13.0971 6.51758 13.321 6.29372 13.321 6.01758C13.321 5.74144 13.0971 5.51758 12.821 5.51758H4.81555ZM9.92267 9.51953C9.72368 9.51953 9.54363 9.63753 9.46421 9.81998C9.32047 10.1502 9.5625 10.5195 9.92267 10.5195H10.9848C11.5055 10.5736 12.2066 10.8334 12.4653 11.5195H9.92267C9.72368 11.5195 9.54363 11.6375 9.46421 11.82C9.32047 12.1502 9.5625 12.5195 9.92267 12.5195H12.4891C12.3232 13.0698 11.8161 13.5922 10.4028 13.4278C10.2113 13.3561 9.98719 13.3945 9.82947 13.5453C9.60991 13.7552 9.60209 14.1033 9.812 14.3229L10.0199 14.5408L10.0179 14.5467L10.524 15.0692L12.7548 17.4075C12.9647 17.627 13.3129 17.6349 13.5324 17.4249C13.6853 17.2788 13.7355 17.0657 13.6811 16.8756L13.6891 16.8702L13.6749 16.8553C13.6501 16.7798 13.6084 16.7086 13.5499 16.6473L11.5376 14.538C12.3148 14.4341 13.4954 13.9032 13.628 12.5195H14.7172C14.9181 12.5195 15.0995 12.3993 15.1778 12.2143C15.3172 11.8846 15.0752 11.5195 14.7172 11.5195H13.5425C13.4645 11.195 13.334 10.8238 13.083 10.5195H14.7172C14.9181 10.5195 15.0995 10.3993 15.1778 10.2143C15.3172 9.8846 15.0752 9.51953 14.7172 9.51953H9.92267Z" fill="#101010"/>
</svg>
