<svg width="25" height="25" viewBox="0 0 25 25" fill="none" xmlns="http://www.w3.org/2000/svg">
<path fill-rule="evenodd" clip-rule="evenodd" d="M15.5729 5.79139C15.3777 5.98666 15.3777 6.30324 15.5729 6.4985C15.7682 6.69376 16.0848 6.69376 16.28 6.4985L19.3154 3.46309V10.0279C19.3154 10.3041 19.5393 10.5279 19.8154 10.5279C20.0916 10.5279 20.3154 10.3041 20.3154 10.0279V3.46284L23.3511 6.4985C23.5464 6.69376 23.8629 6.69376 24.0582 6.4985C24.2535 6.30324 24.2535 5.98666 24.0582 5.79139L20.1691 1.90231C19.9738 1.70704 19.6573 1.70704 19.462 1.90231L15.5729 5.79139ZM4.81555 5.51751C4.53941 5.51751 4.31555 5.74136 4.31555 6.01751V21.0175C4.31555 21.2936 4.53941 21.5175 4.81555 21.5175H19.8156C20.0917 21.5175 20.3156 21.2936 20.3156 21.0175V14.0179C20.3156 13.7418 20.0917 13.5179 19.8156 13.5179C19.5394 13.5179 19.3156 13.7418 19.3156 14.0179V20.5175H5.31555V6.51751H12.821C13.0971 6.51751 13.321 6.29365 13.321 6.01751C13.321 5.74136 13.0971 5.51751 12.821 5.51751H4.81555ZM9.92267 9.51946C9.72368 9.51946 9.54363 9.63746 9.46421 9.81991C9.32047 10.1502 9.5625 10.5195 9.92267 10.5195H10.9848C11.5055 10.5735 12.2066 10.8333 12.4653 11.5195H9.92267C9.72368 11.5195 9.54363 11.6375 9.46421 11.8199C9.32047 12.1502 9.5625 12.5195 9.92267 12.5195H12.4891C12.3232 13.0697 11.8161 13.5921 10.4028 13.4277C10.2113 13.356 9.98719 13.3944 9.82947 13.5452C9.60991 13.7551 9.60209 14.1033 9.812 14.3228L10.0199 14.5407L10.0179 14.5466L10.524 15.0692L12.7548 17.4074C12.9647 17.627 13.3129 17.6348 13.5324 17.4249C13.6853 17.2787 13.7355 17.0656 13.6811 16.8755L13.6891 16.8701L13.6749 16.8552C13.6501 16.7798 13.6084 16.7085 13.5499 16.6473L11.5376 14.538C12.3148 14.4341 13.4954 13.9031 13.628 12.5195H14.7172C14.9181 12.5195 15.0995 12.3992 15.1778 12.2142C15.3172 11.8845 15.0752 11.5195 14.7172 11.5195H13.5425C13.4645 11.1949 13.334 10.8237 13.083 10.5195H14.7172C14.9181 10.5195 15.0995 10.3992 15.1778 10.2142C15.3172 9.88453 15.0752 9.51946 14.7172 9.51946H9.92267Z" fill="#101010"/>
</svg>
