<svg width="25" height="25" viewBox="0 0 25 25" fill="none" xmlns="http://www.w3.org/2000/svg">
<path fill-rule="evenodd" clip-rule="evenodd" d="M6.10547 3.80811C4.44861 3.80811 3.10547 5.15125 3.10547 6.80811V18.8081C3.10547 20.465 4.44861 21.8081 6.10547 21.8081H16.1055V19.8081H6.10547C5.55318 19.8081 5.10547 19.3604 5.10547 18.8081V6.80811C5.10547 6.25582 5.55318 5.80811 6.10547 5.80811H18.1055C18.6578 5.80811 19.1055 6.25582 19.1055 6.80811V10.8236H21.1055V6.80811C21.1055 5.15125 19.7623 3.80811 18.1055 3.80811H6.10547ZM18.744 15.8539C18.744 15.292 19.2013 14.8391 19.744 14.8391H19.9343C20.3878 14.8391 20.7554 15.2067 20.7554 15.6602C20.7554 15.9189 20.6335 16.1624 20.4265 16.3174L19.792 16.7927C19.0357 17.3591 18.5904 18.2489 18.5904 19.1938V20.2968H20.5904V19.1938C20.5904 18.8788 20.7389 18.5823 20.991 18.3934L21.6255 17.9182C22.3367 17.3855 22.7554 16.5488 22.7554 15.6602C22.7554 14.1022 21.4924 12.8391 19.9343 12.8391H19.744C18.0776 12.8391 16.744 14.2067 16.744 15.8539H18.744ZM20.6768 22.2978C20.6768 22.9053 20.1843 23.3978 19.5768 23.3978C18.9693 23.3978 18.4768 22.9053 18.4768 22.2978C18.4768 21.6902 18.9693 21.1978 19.5768 21.1978C20.1843 21.1978 20.6768 21.6902 20.6768 22.2978ZM14.4875 10.0806H13.2569C13.3664 10.2766 13.4375 10.4878 13.4886 10.6917H15.0533L14.4876 11.9641H13.551C13.2787 13.2473 11.9547 13.7239 11.2164 13.7998L14.0867 16.8081H12.1628L9.48706 13.9187V12.6542C10.9803 12.7854 11.5532 12.4189 11.7725 11.9641H9.15771L9.7358 10.6917H11.7874C11.6025 10.3183 11.2385 10.1493 10.8729 10.0806H9.15759L9.73567 8.80811H15.0532L14.4875 10.0806Z" fill="#101010"/>
</svg>
