<svg width="25" height="25" viewBox="0 0 25 25" fill="none" xmlns="http://www.w3.org/2000/svg">
<path fill-rule="evenodd" clip-rule="evenodd" d="M6.10547 3.80811C4.44861 3.80811 3.10547 5.15125 3.10547 6.80811V9.80811H5.10547V6.80811C5.10547 6.25582 5.55318 5.80811 6.10547 5.80811H9.10547V3.80811H6.10547ZM18.1055 3.80811H15.1055V5.80811H18.1055C18.6578 5.80811 19.1055 6.25582 19.1055 6.80811V9.80811H21.1055V6.80811C21.1055 5.15125 19.7623 3.80811 18.1055 3.80811ZM5.10547 18.8081V15.8081H3.10547V18.8081C3.10547 20.465 4.44861 21.8081 6.10547 21.8081H9.10547V19.8081H6.10547C5.55318 19.8081 5.10547 19.3604 5.10547 18.8081ZM18.1055 21.8081C19.7623 21.8081 21.1055 20.465 21.1055 18.8081V15.8081H19.1055V18.8081C19.1055 19.3604 18.6578 19.8081 18.1055 19.8081H15.1055V21.8081H18.1055ZM6.85547 8.30811C6.85547 7.89389 7.19126 7.55811 7.60547 7.55811H10.6055C11.0197 7.55811 11.3555 7.89389 11.3555 8.30811V11.3081C11.3555 11.7223 11.0197 12.0581 10.6055 12.0581H7.60547C7.19126 12.0581 6.85547 11.7223 6.85547 11.3081V8.30811ZM12.8555 8.30811C12.8555 7.89389 13.1913 7.55811 13.6055 7.55811H16.6055C17.0197 7.55811 17.3555 7.89389 17.3555 8.30811V11.3081C17.3555 11.7223 17.0197 12.0581 16.6055 12.0581H13.6055C13.1913 12.0581 12.8555 11.7223 12.8555 11.3081V8.30811ZM7.60547 13.5581C7.19126 13.5581 6.85547 13.8939 6.85547 14.3081V17.3081C6.85547 17.7223 7.19126 18.0581 7.60547 18.0581H10.6055C11.0197 18.0581 11.3555 17.7223 11.3555 17.3081V14.3081C11.3555 13.8939 11.0197 13.5581 10.6055 13.5581H7.60547ZM8.35547 9.05811V10.5581H9.85547V9.05811H8.35547ZM12.8555 14.3081C12.8555 13.8939 13.1913 13.5581 13.6055 13.5581H16.1055C16.5197 13.5581 16.8555 13.8939 16.8555 14.3081V16.8081C16.8555 17.2223 16.5197 17.5581 16.1055 17.5581H13.6055C13.1913 17.5581 12.8555 17.2223 12.8555 16.8081V14.3081ZM14.3555 9.05811V10.5581H15.8555V9.05811H14.3555ZM14.3555 15.0581V16.0581H15.3555V15.0581H14.3555ZM8.35547 16.5581V15.0581H9.85547V16.5581H8.35547Z" fill="#101010"/>
</svg>
