<svg width="25" height="25" viewBox="0 0 25 25" fill="none" xmlns="http://www.w3.org/2000/svg">
<path fill-rule="evenodd" clip-rule="evenodd" d="M20.106 7.38918L22.6369 4.85825L24.0511 6.27246L19.8085 10.5151C19.4179 10.9056 18.7848 10.9056 18.3943 10.5151L14.1516 6.27246L15.5658 4.85825L18.106 7.39838V1.82324H20.106V7.38918ZM6.10132 8.80811C6.10132 8.25582 6.54903 7.80811 7.10132 7.80811H12.1231V5.80811H7.10132C5.44446 5.80811 4.10132 7.15125 4.10132 8.80811V18.8081C4.10132 20.465 5.44446 21.8081 7.10132 21.8081H17.1013C18.7582 21.8081 20.1013 20.465 20.1013 18.8081V13.8081H18.1013V18.8081C18.1013 19.3604 17.6536 19.8081 17.1013 19.8081H7.10132C6.54903 19.8081 6.10132 19.3604 6.10132 18.8081V8.80811ZM15.585 9.80811H10.2675L9.68945 11.0806H11.4049C11.8065 11.1561 12.2062 11.3526 12.3686 11.8081H10.2675L9.68945 13.0806H12.2388C11.9784 13.4789 11.3823 13.774 10.019 13.6541V14.9187L12.6948 17.8081H14.6186L11.7483 14.7998C12.4638 14.7262 13.7295 14.2763 14.0548 13.0806H15.0194L15.585 11.8081H14.0479C13.9954 11.5696 13.9193 11.3142 13.7889 11.0806H15.0194L15.585 9.80811Z" fill="#101010"/>
</svg>
