<svg width="25" height="25" viewBox="0 0 25 25" fill="none" xmlns="http://www.w3.org/2000/svg">
<path fill-rule="evenodd" clip-rule="evenodd" d="M12.1438 4.80811C11.0392 4.80811 10.1438 5.70354 10.1438 6.80811C10.1438 7.91267 11.0392 8.80811 12.1438 8.80811C13.2484 8.80811 14.1438 7.91267 14.1438 6.80811C14.1438 5.70354 13.2484 4.80811 12.1438 4.80811ZM8.1438 6.80811C8.1438 4.59897 9.93466 2.80811 12.1438 2.80811C14.3529 2.80811 16.1438 4.59897 16.1438 6.80811C16.1438 9.01724 14.3529 10.8081 12.1438 10.8081C9.93466 10.8081 8.1438 9.01724 8.1438 6.80811ZM4.88441 15.671L2.76627 16.7041L1.88953 14.9065L6.3835 12.7146C6.87989 12.4725 7.47856 12.6787 7.72066 13.1751L9.91252 17.669L8.11493 18.5458L6.92978 16.1159C6.43224 16.893 6.1438 17.8169 6.1438 18.8081C6.1438 19.9127 7.03923 20.8081 8.1438 20.8081H16.1438C17.2484 20.8081 18.1438 19.9127 18.1438 18.8081C18.1438 16.0467 15.9052 13.8081 13.1438 13.8081H11.1438C10.8524 13.8081 10.5669 13.833 10.2892 13.8809L9.38666 12.0305C9.94814 11.8853 10.537 11.8081 11.1438 11.8081H13.1438C17.0098 11.8081 20.1438 14.9421 20.1438 18.8081C20.1438 21.0172 18.3529 22.8081 16.1438 22.8081H8.1438C5.93466 22.8081 4.1438 21.0172 4.1438 18.8081C4.1438 17.6802 4.41055 16.6146 4.88441 15.671Z" fill="#101010"/>
</svg>
