<svg width="24" height="24" viewBox="0 0 24 24" fill="none" xmlns="http://www.w3.org/2000/svg">
<path fill-rule="evenodd" clip-rule="evenodd" d="M18.0005 4.16706L15.4604 6.70719L14.0461 5.29298L18.2888 1.05034C18.6793 0.659815 19.3125 0.659815 19.703 1.05034L23.9456 5.29298L22.5314 6.70719L20.0005 4.17626V9.99604H18.0005V4.16706ZM5.99585 8.00001C5.99585 7.44773 6.44356 7.00001 6.99585 7.00001H12.0094V5.00001H6.99585C5.339 5.00001 3.99585 6.34316 3.99585 8.00001V18C3.99585 19.6569 5.339 21 6.99585 21H16.9958C18.6527 21 19.9958 19.6569 19.9958 18V13H17.9958V18C17.9958 18.5523 17.5481 19 16.9958 19H6.99585C6.44356 19 5.99585 18.5523 5.99585 18V8.00001ZM15.4796 9.00001H10.1621L9.584 10.2725H11.2993C11.7009 10.348 12.1006 10.5445 12.263 11H10.1621L9.58399 12.2725H12.1332C11.8729 12.6708 11.2767 12.9659 9.91345 12.8461V14.1106L12.5892 17H14.513L11.6427 13.9917C12.3583 13.9181 13.6239 13.4682 13.9492 12.2725H14.9139L15.4796 11H13.9423C13.8898 10.7615 13.8138 10.5061 13.6833 10.2725H14.9139L15.4796 9.00001Z" fill="#101010"/>
</svg>
