<svg width="25" height="25" viewBox="0 0 25 25" fill="none" xmlns="http://www.w3.org/2000/svg">
<path fill-rule="evenodd" clip-rule="evenodd" d="M6.10547 5.80762C6.10547 5.25533 6.55318 4.80762 7.10547 4.80762H14.1075V2.80762H7.10547C5.44861 2.80762 4.10547 4.15076 4.10547 5.80762V6.80762H2.14673V8.80762H4.10547V11.8076H2.14673V13.8076H4.10547V16.8076H2.14673V18.8076H4.10547V19.8076C4.10547 21.4645 5.44861 22.8076 7.10547 22.8076H17.1055C18.7623 22.8076 20.1055 21.4645 20.1055 19.8076V14.8076H18.1055V19.8076C18.1055 20.3599 17.6578 20.8076 17.1055 20.8076H7.10547C6.55318 20.8076 6.10547 20.3599 6.10547 19.8076V5.80762ZM18.1055 12.808V6.22223L15.57 8.75772L14.1558 7.34351L18.3984 3.10087C18.7889 2.71034 19.4221 2.71034 19.8126 3.10087L24.0553 7.34351L22.641 8.75772L20.1055 6.22215V12.808H18.1055ZM14.1467 11.7954C14.1467 12.9 13.2513 13.7954 12.1467 13.7954C11.0422 13.7954 10.1467 12.9 10.1467 11.7954C10.1467 10.6908 11.0422 9.79541 12.1467 9.79541C13.2513 9.79541 14.1467 10.6908 14.1467 11.7954ZM11.3055 14.8237C9.50547 14.8237 8.10547 16.2237 8.10547 18.0237C8.10547 18.4237 8.50547 18.8237 8.90547 18.8237H15.3055C15.7055 18.8237 16.1055 18.4237 16.1055 18.0237C16.1055 16.2237 14.7055 14.8237 12.9055 14.8237H11.3055Z" fill="#101010"/>
</svg>
