<svg width="24" height="24" viewBox="0 0 24 24" fill="none" xmlns="http://www.w3.org/2000/svg">
<path fill-rule="evenodd" clip-rule="evenodd" d="M5.95874 4.99963C5.95874 4.44735 6.40646 3.99963 6.95874 3.99963H13.9608V1.99963H6.95874C5.30189 1.99963 3.95874 3.34278 3.95874 4.99963V5.99963H2V7.99963H3.95874V10.9996H2V12.9996H3.95874V15.9996H2V17.9996H3.95874V18.9996C3.95874 20.6565 5.30189 21.9996 6.95874 21.9996H16.9587C18.6156 21.9996 19.9587 20.6565 19.9587 18.9996V13.9996H17.9587V18.9996C17.9587 19.5519 17.511 19.9996 16.9587 19.9996H6.95874C6.40646 19.9996 5.95874 19.5519 5.95874 18.9996V4.99963ZM17.9587 12.0001V5.41424L15.4232 7.94974L14.009 6.53552L18.2517 2.29288C18.6422 1.90236 19.2754 1.90236 19.6659 2.29288L23.9085 6.53552L22.4943 7.94974L19.9587 5.41416V12.0001H17.9587ZM14 10.9874C14 12.092 13.1046 12.9874 12 12.9874C10.8954 12.9874 10 12.092 10 10.9874C10 9.88286 10.8954 8.98743 12 8.98743C13.1046 8.98743 14 9.88286 14 10.9874ZM11.1587 14.0157C9.35874 14.0157 7.95874 15.4157 7.95874 17.2157C7.95874 17.6157 8.35874 18.0157 8.75874 18.0157H15.1587C15.5587 18.0157 15.9587 17.6157 15.9587 17.2157C15.9587 15.4157 14.5587 14.0157 12.7587 14.0157H11.1587Z" fill="#101010"/>
</svg>
