<svg width="25" height="25" viewBox="0 0 25 25" fill="none" xmlns="http://www.w3.org/2000/svg">
<path fill-rule="evenodd" clip-rule="evenodd" d="M7.10547 2.80762C5.44861 2.80762 4.10547 4.15076 4.10547 5.80762V6.80762H2.10547V8.80762H4.10547V11.8076H2.10547V13.8076H4.10547V16.8076H2.10547V18.8076H4.10547V19.8076C4.10547 21.4645 5.44861 22.8076 7.10547 22.8076H17.1055C18.7623 22.8076 20.1055 21.4645 20.1055 19.8076V5.80762C20.1055 4.15076 18.7623 2.80762 17.1055 2.80762H7.10547ZM6.10547 5.80762C6.10547 5.25533 6.55318 4.80762 7.10547 4.80762H17.1055C17.6578 4.80762 18.1055 5.25533 18.1055 5.80762V19.8076C18.1055 20.3599 17.6578 20.8076 17.1055 20.8076H7.10547C6.55318 20.8076 6.10547 20.3599 6.10547 19.8076V5.80762ZM13.2098 8.08056H14.4404L15.006 6.80811H9.68855L9.11047 8.08056H10.8258C11.1914 8.14932 11.5555 8.31835 11.7404 8.69189H9.68867L9.1106 9.96435H11.7253C11.5058 10.419 10.9329 10.7854 9.43994 10.6541V11.9187L12.1157 14.8081H14.0395L11.1692 11.7998C11.9075 11.7239 13.2313 11.2474 13.5038 9.96435H14.4405L15.0062 8.69189H13.4415C13.3904 8.48801 13.3193 8.27666 13.2098 8.08056ZM9.10547 18.8076H15.1055V16.8076H9.10547V18.8076Z" fill="#101010"/>
</svg>
