<svg width="24" height="24" viewBox="0 0 24 24" fill="none" xmlns="http://www.w3.org/2000/svg">
<path fill-rule="evenodd" clip-rule="evenodd" d="M7 1.99951C5.34315 1.99951 4 3.34266 4 4.99951V5.99951H2V7.99951H4V10.9995H2V12.9995H4V15.9995H2V17.9995H4V18.9995C4 20.6564 5.34315 21.9995 7 21.9995H17C18.6569 21.9995 20 20.6564 20 18.9995V4.99951C20 3.34266 18.6569 1.99951 17 1.99951H7ZM6 4.99951C6 4.44723 6.44772 3.99951 7 3.99951H17C17.5523 3.99951 18 4.44723 18 4.99951V18.9995C18 19.5518 17.5523 19.9995 17 19.9995H7C6.44772 19.9995 6 19.5518 6 18.9995V4.99951ZM13.1043 7.27246H14.3349L14.9006 6H9.58308L9.005 7.27246H10.7203C11.086 7.34121 11.45 7.51025 11.6349 7.88379H9.5832L9.00513 9.15625H11.6198C11.4003 9.6109 10.8274 9.97729 9.33447 9.84604V11.1106L12.0102 14H13.934L11.0638 10.9917C11.802 10.9158 13.1259 10.4393 13.3983 9.15625H14.335L14.9007 7.88379H13.336C13.285 7.6799 13.2138 7.46856 13.1043 7.27246ZM9 17.9995H15V15.9995H9V17.9995Z" fill="#101010"/>
</svg>
