<svg width="36" height="36" viewBox="0 0 36 36" fill="none" xmlns="http://www.w3.org/2000/svg">
<path d="M1.36992 18C1.36992 8.82966 8.82958 1.37 17.9999 1.37C27.1703 1.37 34.6299 8.82966 34.6299 18C34.6299 27.1703 27.1703 34.63 17.9999 34.63C8.82958 34.63 1.36992 27.1703 1.36992 18ZM2.76992 18C2.76992 26.3977 9.60227 33.23 17.9999 33.23C26.3976 33.23 33.2299 26.3977 33.2299 18C33.2299 9.60234 26.3976 2.77 17.9999 2.77C9.60226 2.77 2.76992 9.60234 2.76992 18Z" fill="black" stroke="white" stroke-width="0.4"/>
<path d="M17.9998 12.5136C19.6305 12.5136 20.959 11.1852 20.959 9.55437C20.959 7.92357 19.6306 6.59514 17.9998 6.59514C16.369 6.59514 15.0405 7.92357 15.0405 9.55437C15.0405 11.1852 16.369 12.5136 17.9998 12.5136ZM17.9998 7.6788C19.0365 7.6788 19.879 8.52114 19.879 9.55803C19.879 10.5948 19.0366 11.4373 17.9998 11.4373C16.963 11.4373 16.1205 10.5949 16.1205 9.55803C16.1205 8.52114 16.963 7.6788 17.9998 7.6788Z" fill="black"/>
<path d="M24.9405 12.3552C24.8576 12.3552 24.7749 12.3623 24.6921 12.3732L19.5009 13.104H16.4985L11.3037 12.3732C11.2208 12.3625 11.1381 12.3552 11.0552 12.3552C10.0868 12.3552 9.24445 13.1471 9.09679 14.1984C8.93484 15.354 9.66199 16.4161 10.7168 16.5636L15.242 17.2008V19.4904L12.3837 26.388C12.1677 26.9099 12.1677 27.486 12.3837 28.008C12.5997 28.5299 13.0065 28.9368 13.5285 29.1528C13.7877 29.2608 14.0577 29.3147 14.3348 29.3147C15.1952 29.3147 15.9656 28.8036 16.2933 28.008L17.9996 23.8932L19.7025 28.008C20.0302 28.7999 20.8006 29.3147 21.6609 29.3147C21.9381 29.3147 22.2117 29.2607 22.4673 29.1528C23.5437 28.7064 24.0585 27.4643 23.6121 26.388L20.7537 19.4868V17.1972L25.2789 16.56C25.8225 16.4844 26.3048 16.1604 26.6037 15.6672C26.8665 15.2387 26.9708 14.7131 26.8989 14.1948C26.7548 13.1507 25.9125 12.3551 24.9404 12.3551L24.9405 12.3552ZM25.1313 15.4944L19.6773 16.2612V19.7028L22.6184 26.802C22.838 27.3276 22.5825 27.9396 22.0569 28.1556C21.9273 28.2096 21.794 28.2348 21.6645 28.2348C21.2578 28.2348 20.8689 27.9936 20.7034 27.594L17.9997 21.0708L15.2961 27.594C15.1305 27.9936 14.7417 28.2348 14.3349 28.2348C14.2017 28.2348 14.0686 28.2096 13.9426 28.1556C13.417 27.936 13.1649 27.3275 13.381 26.802L16.3222 19.7028V16.2612L10.8682 15.4944C10.4038 15.4296 10.0905 14.9148 10.1698 14.3496C10.2417 13.824 10.6342 13.4352 11.059 13.4352C11.0913 13.4352 11.1238 13.4388 11.1561 13.4423L16.4229 14.1839H19.5765L24.8433 13.4423C24.8757 13.4387 24.9081 13.4352 24.9405 13.4352C25.3689 13.4352 25.7576 13.824 25.8297 14.3496C25.9127 14.9148 25.5958 15.4296 25.1314 15.4944H25.1313Z" fill="black"/>
</svg>
