<svg width="36" height="36" viewBox="0 0 36 36" fill="none" xmlns="http://www.w3.org/2000/svg">
<mask id="path-1-inside-1_402_2696" fill="white">
<path d="M21.2436 5.43542L7.07259 5.43542L7.11091 6.50777C7.18756 8.65271 7.4939 10.8357 8.29819 12.8273C8.98751 14.5509 9.9835 16.1596 11.4388 17.3852C12.3581 18.1512 13.3921 18.6875 14.3497 19.3384C15.269 19.9511 16.2647 20.6024 16.916 21.5217C17.4523 22.2877 17.95 23.0537 18.2949 23.9347C18.8696 25.39 19.0992 26.9222 19.1759 28.4925L9.21791 28.4925C9.52425 24.5476 10.7115 21.9047 13.0098 20.0283C12.3587 19.6453 11.7841 19.2623 11.2478 18.841C10.2138 19.7986 9.37118 20.8709 8.75828 22.0965C7.76235 24.0498 7.22631 26.3862 7.1113 29.4887L7.07272 30.561L21.2443 30.561V29.527C21.2443 27.3821 21.0146 25.1608 20.2103 23.1691C19.4443 21.2159 18.0654 19.5689 16.3801 18.3433C15.8438 17.9603 15.2695 17.6156 14.7332 17.2709C12.9329 16.1603 11.3626 14.858 10.4053 12.943C9.60095 11.2961 9.25626 9.41947 9.10298 7.61916L19.061 7.61916C18.9077 11.5258 17.7204 14.1303 15.2308 16.0834C15.8819 16.4664 16.4564 16.8494 17.0311 17.2707C18.1034 16.3514 18.9461 15.2791 19.559 14.0917C20.6313 12.1001 21.1293 9.64883 21.1293 6.58457V5.47389L21.244 5.47338L21.2436 5.43542Z"/>
</mask>
<path d="M21.2436 5.43542L7.07259 5.43542L7.11091 6.50777C7.18756 8.65271 7.4939 10.8357 8.29819 12.8273C8.98751 14.5509 9.9835 16.1596 11.4388 17.3852C12.3581 18.1512 13.3921 18.6875 14.3497 19.3384C15.269 19.9511 16.2647 20.6024 16.916 21.5217C17.4523 22.2877 17.95 23.0537 18.2949 23.9347C18.8696 25.39 19.0992 26.9222 19.1759 28.4925L9.21791 28.4925C9.52425 24.5476 10.7115 21.9047 13.0098 20.0283C12.3587 19.6453 11.7841 19.2623 11.2478 18.841C10.2138 19.7986 9.37118 20.8709 8.75828 22.0965C7.76235 24.0498 7.22631 26.3862 7.1113 29.4887L7.07272 30.561L21.2443 30.561V29.527C21.2443 27.3821 21.0146 25.1608 20.2103 23.1691C19.4443 21.2159 18.0654 19.5689 16.3801 18.3433C15.8438 17.9603 15.2695 17.6156 14.7332 17.2709C12.9329 16.1603 11.3626 14.858 10.4053 12.943C9.60095 11.2961 9.25626 9.41947 9.10298 7.61916L19.061 7.61916C18.9077 11.5258 17.7204 14.1303 15.2308 16.0834C15.8819 16.4664 16.4564 16.8494 17.0311 17.2707C18.1034 16.3514 18.9461 15.2791 19.559 14.0917C20.6313 12.1001 21.1293 9.64883 21.1293 6.58457V5.47389L21.244 5.47338L21.2436 5.43542Z" fill="black" stroke="white" stroke-width="0.8" mask="url(#path-1-inside-1_402_2696)"/>
<mask id="path-2-inside-2_402_2696" fill="white">
<path d="M20.0948 32.2464L18.8308 32.8591L19.9799 33.2421C15.805 34.9657 11.5539 34.8508 7.37868 32.8208L6.72763 34.1997C9.17893 35.387 11.6685 36 14.1581 36C16.3414 36 18.5244 35.5404 20.7076 34.621L20.2862 35.8083L21.5502 35.1956L22.3162 33.0124L20.0948 32.2464Z"/>
</mask>
<path d="M20.0948 32.2464L18.8308 32.8591L19.9799 33.2421C15.805 34.9657 11.5539 34.8508 7.37868 32.8208L6.72763 34.1997C9.17893 35.387 11.6685 36 14.1581 36C16.3414 36 18.5244 35.5404 20.7076 34.621L20.2862 35.8083L21.5502 35.1956L22.3162 33.0124L20.0948 32.2464Z" fill="black" stroke="white" stroke-width="0.8" mask="url(#path-2-inside-2_402_2696)"/>
<mask id="path-3-inside-3_402_2696" fill="white">
<path d="M7.60862 1.37556L8.02994 0.188277L6.76599 0.800968L6 2.98425L8.18328 3.75023L9.44723 3.13754L8.29822 2.75455C12.4731 1.03097 16.7241 1.14591 20.8994 3.17587L21.5504 1.79691C16.9543 -0.46271 12.2435 -0.577715 7.60884 1.37559L7.60862 1.37556Z"/>
</mask>
<path d="M7.60862 1.37556L8.02994 0.188277L6.76599 0.800968L6 2.98425L8.18328 3.75023L9.44723 3.13754L8.29822 2.75455C12.4731 1.03097 16.7241 1.14591 20.8994 3.17587L21.5504 1.79691C16.9543 -0.46271 12.2435 -0.577715 7.60884 1.37559L7.60862 1.37556Z" fill="black" stroke="white" stroke-width="0.8" mask="url(#path-3-inside-3_402_2696)"/>
</svg>
