<svg width="24" height="24" viewBox="0 0 24 24" fill="none" xmlns="http://www.w3.org/2000/svg">
<path fill-rule="evenodd" clip-rule="evenodd" d="M11.6489 1.18281C11.8753 1.09792 12.1247 1.09792 12.3511 1.18281L20.3511 4.18281C20.7414 4.32918 21 4.7023 21 5.11914V8C21 8.55228 20.5523 9 20 9H19V15H20C20.5523 15 21 15.4477 21 16V20C21 20.5523 20.5523 21 20 21H4C3.44772 21 3 20.5523 3 20V16C3 15.4477 3.44772 15 4 15H5V9H4C3.44772 9 3 8.55228 3 8V5.11914C3 4.7023 3.25857 4.32918 3.64888 4.18281L11.6489 1.18281ZM7 9V15H11V9H7ZM13 9V15H17V9H13ZM5 5.81214V7H19V5.81214L12 3.18714L5 5.81214ZM5 17V19H19V17H5Z" fill="#101010"/>
</svg>
