<svg width="25" height="25" viewBox="0 0 25 25" fill="none" xmlns="http://www.w3.org/2000/svg">
<path fill-rule="evenodd" clip-rule="evenodd" d="M11.7871 1.99092C12.0134 1.90602 12.2629 1.90602 12.4893 1.99092L20.4893 4.99092C20.8796 5.13728 21.1382 5.5104 21.1382 5.92725V8.80811C21.1382 9.36039 20.6905 9.80811 20.1382 9.80811H19.1382V15.8081H20.1382C20.6905 15.8081 21.1382 16.2558 21.1382 16.8081V20.8081C21.1382 21.3604 20.6905 21.8081 20.1382 21.8081H4.13818C3.5859 21.8081 3.13818 21.3604 3.13818 20.8081V16.8081C3.13818 16.2558 3.5859 15.8081 4.13818 15.8081H5.13818V9.80811H4.13818C3.5859 9.80811 3.13818 9.36039 3.13818 8.80811V5.92725C3.13818 5.5104 3.39676 5.13728 3.78706 4.99092L11.7871 1.99092ZM7.13818 9.80811V15.8081H11.1382V9.80811H7.13818ZM13.1382 9.80811V15.8081H17.1382V9.80811H13.1382ZM5.13818 6.62025V7.80811H19.1382V6.62025L12.1382 3.99525L5.13818 6.62025ZM5.13818 17.8081V19.8081H19.1382V17.8081H5.13818Z" fill="#101010"/>
</svg>
