<svg width="24" height="24" viewBox="0 0 24 24" fill="none" xmlns="http://www.w3.org/2000/svg">
<path fill-rule="evenodd" clip-rule="evenodd" d="M6 3C4.34315 3 3 4.34315 3 6V18C3 19.6569 4.34315 21 6 21H16V19H6C5.44772 19 5 18.5523 5 18V6C5 5.44772 5.44772 5 6 5H18C18.5523 5 19 5.44772 19 6V10.0155H21V6C21 4.34315 19.6569 3 18 3H6ZM18.6385 15.0458C18.6385 14.4839 19.0958 14.031 19.6385 14.031H19.8288C20.2823 14.031 20.6499 14.3986 20.6499 14.8521C20.6499 15.1107 20.5281 15.3543 20.3211 15.5093L19.6866 15.9845C18.9302 16.551 18.485 17.4408 18.485 18.3857V19.4887H20.485V18.3857C20.485 18.0707 20.6334 17.7742 20.8855 17.5853L21.52 17.1101C22.2313 16.5774 22.6499 15.7407 22.6499 14.8521C22.6499 13.2941 21.3869 12.031 19.8288 12.031H19.6385C17.9721 12.031 16.6385 13.3986 16.6385 15.0458H18.6385ZM20.5713 21.4896C20.5713 22.0972 20.0789 22.5896 19.4713 22.5896C18.8638 22.5896 18.3713 22.0972 18.3713 21.4896C18.3713 20.8821 18.8638 20.3896 19.4713 20.3896C20.0789 20.3896 20.5713 20.8821 20.5713 21.4896ZM14.3821 9.27247H13.1515C13.2609 9.46849 13.332 9.67974 13.3831 9.88354H14.9478L14.3822 11.156H13.4455C13.1732 12.4392 11.8492 12.9158 11.1109 12.9917L13.9812 16H12.0573L9.38159 13.1106V11.8461C10.8749 11.9773 11.4477 11.6108 11.6671 11.156H9.05225L9.63033 9.88354H11.6819C11.497 9.51018 11.133 9.3412 10.7675 9.27247H9.05212L9.6302 8H14.9477L14.3821 9.27247Z" fill="#101010"/>
</svg>
