<svg width="25" height="25" viewBox="0 0 25 25" fill="none" xmlns="http://www.w3.org/2000/svg">
<path fill-rule="evenodd" clip-rule="evenodd" d="M10.451 5.01766C12.1712 4.63974 13.968 4.84003 15.5627 5.58746C16.7591 6.14816 17.7915 6.99327 18.5747 8.04074L16.9966 7.76247L16.6493 9.73209L21.5733 10.6003L22.4416 5.67629L20.472 5.329L20.1995 6.87404C19.2178 5.55041 17.9187 4.48289 16.4115 3.7765C14.4181 2.84221 12.1721 2.59184 10.0219 3.06424C7.87163 3.53664 5.93739 4.7054 4.51916 6.38922C3.10093 8.07304 2.27799 10.1778 2.17798 12.377L4.17591 12.4679C4.18157 12.3435 4.19012 12.2195 4.20152 12.096L4.20872 12.0966C4.23227 11.8328 4.26896 11.5698 4.31879 11.3086L4.31407 11.3077C4.57243 9.97595 5.1667 8.725 6.04886 7.67763C7.18344 6.33058 8.73084 5.39557 10.451 5.01766ZM2.23745 13.9055C2.27379 14.2346 2.32653 14.5623 2.39564 14.8874C2.46475 15.2125 2.5499 15.5333 2.65059 15.8488L4.55588 15.2406C4.47533 14.9882 4.40721 14.7316 4.35192 14.4715C4.29663 14.2114 4.25444 13.9492 4.22537 13.6859L2.23745 13.9055ZM21.877 15.2392C21.9575 14.918 22.0221 14.5924 22.0705 14.2636L20.0918 13.9724C20.0531 14.2355 20.0014 14.496 19.937 14.7529L21.877 15.2392ZM20.733 17.9843C20.9051 17.6999 21.0625 17.4077 21.2049 17.1088L19.3993 16.2486C19.2854 16.4878 19.1595 16.7215 19.0218 16.949C18.8842 17.1765 18.7356 17.3966 18.5766 17.6085L20.1765 18.8086C20.3752 18.5437 20.561 18.2687 20.733 17.9843ZM3.43975 17.672C3.60081 17.9614 3.77644 18.243 3.96615 18.5159C4.15586 18.7888 4.3587 19.0516 4.57378 19.3033L6.09443 18.0043C5.92237 17.8028 5.7601 17.5926 5.60833 17.3743C5.45656 17.156 5.31606 16.9307 5.18721 16.6992L3.43975 17.672ZM18.058 20.8958C18.3268 20.7004 18.5852 20.492 18.8323 20.2716L17.5013 18.7789C17.3036 18.9552 17.0969 19.1219 16.8818 19.2782C16.6668 19.4346 16.4445 19.5799 16.2158 19.7136L17.2255 21.44C17.5113 21.2729 17.7892 21.0913 18.058 20.8958ZM6.00793 20.6782C6.26853 20.8825 6.5396 21.0741 6.82025 21.2521C7.1009 21.4302 7.38973 21.5938 7.68557 21.7425L8.58387 19.9556C8.34719 19.8366 8.11613 19.7057 7.89161 19.5633C7.66709 19.4209 7.45023 19.2676 7.24175 19.1042L6.00793 20.6782ZM14.4636 22.543C14.7872 22.467 15.1061 22.3751 15.4194 22.2677L14.7709 20.3757C14.5203 20.4616 14.2651 20.5352 14.0063 20.596C13.7475 20.6568 13.4862 20.7045 13.2236 20.7392L13.4853 22.722C13.8135 22.6787 14.1401 22.619 14.4636 22.543ZM9.54051 22.4541C9.85992 22.5414 10.1841 22.6129 10.5118 22.6683C10.8395 22.7236 11.1691 22.7625 11.4995 22.7849L11.635 20.7895C11.3707 20.7716 11.107 20.7405 10.8448 20.6962C10.5826 20.6519 10.3233 20.5947 10.0678 20.5249L9.54051 22.4541ZM13.1609 8.80805V11.8081H16.1609V13.8081H11.1609V8.80805H13.1609Z" fill="#F19E0C"/>
</svg>
