<svg width="24" height="25" viewBox="0 0 24 25" fill="none" xmlns="http://www.w3.org/2000/svg">
<path fill-rule="evenodd" clip-rule="evenodd" d="M10.2901 5.17903C12.0103 4.80111 13.8071 5.0014 15.4019 5.74884C16.5982 6.30954 17.6306 7.15465 18.4138 8.20212L16.8357 7.92385L16.4884 9.89347L21.4125 10.7617L22.2807 5.83767L20.3111 5.49037L20.0386 7.03542C19.0569 5.71178 17.7578 4.64427 16.2506 3.93787C14.2572 3.00358 12.0112 2.75322 9.86097 3.22562C7.71075 3.69802 5.7765 4.86677 4.35827 6.55059C2.94004 8.23441 2.1171 10.3392 2.01709 12.5384L4.01503 12.6293C4.02068 12.5049 4.02923 12.3809 4.04063 12.2574L4.04783 12.258C4.07138 11.9942 4.10807 11.7312 4.1579 11.47L4.15318 11.4691C4.41154 10.1373 5.00581 8.88638 5.88797 7.83901C7.02256 6.49196 8.56995 5.55695 10.2901 5.17903ZM2.07656 14.0668C2.1129 14.396 2.16564 14.7237 2.23475 15.0488C2.30386 15.3739 2.38901 15.6947 2.4897 16.0101L4.39499 15.402C4.31444 15.1496 4.24632 14.893 4.19103 14.6329C4.13574 14.3728 4.09355 14.1106 4.06448 13.8473L2.07656 14.0668ZM20.5721 18.1457C20.7442 17.8613 20.9016 17.5691 21.044 17.2702L19.2385 16.41C19.1245 16.6491 18.9986 16.8829 18.8609 17.1104C18.7233 17.3379 18.5747 17.558 18.4157 17.7699L20.0156 18.97C20.2143 18.7051 20.4001 18.43 20.5721 18.1457ZM3.27886 17.8334C3.43992 18.1227 3.61555 18.4044 3.80526 18.6773C3.99497 18.9502 4.19781 19.213 4.41289 19.4647L5.93354 18.1656C5.76148 17.9642 5.59921 17.754 5.44744 17.5357C5.29567 17.3174 5.15517 17.0921 5.02632 16.8606L3.27886 17.8334ZM17.8971 21.0572C18.1659 20.8618 18.4243 20.6534 18.6715 20.433L17.3404 18.9403C17.1427 19.1166 16.936 19.2833 16.7209 19.4396C16.5059 19.596 16.2836 19.7412 16.0549 19.875L17.0646 21.6014C17.3504 21.4342 17.6283 21.2527 17.8971 21.0572ZM5.84704 20.8396C6.10764 21.0439 6.37872 21.2355 6.65937 21.4135C6.94002 21.5916 7.22884 21.7552 7.52469 21.9039L8.42298 20.117C8.1863 19.998 7.95525 19.8671 7.73072 19.7247C7.5062 19.5822 7.28934 19.429 7.08086 19.2656L5.84704 20.8396ZM14.3027 22.7044C14.6263 22.6284 14.9452 22.5364 15.2585 22.4291L14.61 20.5371C14.3594 20.623 14.1043 20.6966 13.8454 20.7574C13.5866 20.8182 13.3253 20.8659 13.0627 20.9005L13.3244 22.8834C13.6526 22.84 13.9792 22.7804 14.3027 22.7044ZM9.37962 22.6155C9.69903 22.7028 10.0232 22.7743 10.3509 22.8297C10.6786 22.885 11.0083 22.9239 11.3386 22.9463L11.4741 20.9509C11.2098 20.933 10.9461 20.9019 10.6839 20.8576C10.4218 20.8133 10.1624 20.7561 9.90692 20.6862L9.37962 22.6155ZM13 8.96943V11.9694H16V13.9694H11V8.96943H13Z" fill="#F19E0C"/>
</svg>
