<svg width="25" height="25" viewBox="0 0 25 25" fill="none" xmlns="http://www.w3.org/2000/svg">
<path fill-rule="evenodd" clip-rule="evenodd" d="M18.106 4.97504L15.5658 7.51518L14.1516 6.10096L18.3943 1.85832C18.7848 1.4678 19.4179 1.4678 19.8085 1.85832L24.0511 6.10096L22.6369 7.51518L20.106 4.98424V10.804H18.106V4.97504ZM6.10132 8.80799C6.10132 8.25571 6.54903 7.80799 7.10132 7.80799H12.1149V5.80799H7.10132C5.44446 5.80799 4.10132 7.15114 4.10132 8.80799V18.808C4.10132 20.4648 5.44446 21.808 7.10132 21.808H17.1013C18.7582 21.808 20.1013 20.4648 20.1013 18.808V13.808H18.1013V18.808C18.1013 19.3603 17.6536 19.808 17.1013 19.808H7.10132C6.54903 19.808 6.10132 19.3603 6.10132 18.808V8.80799ZM15.585 9.80799H10.2675L9.68947 11.0805H11.4048C11.8064 11.156 12.206 11.3525 12.3685 11.808H10.2675L9.68946 13.0805H12.2387C11.9783 13.4788 11.3822 13.7739 10.0189 13.654V14.9186L12.6946 17.808H14.6185L11.7482 14.7997C12.4637 14.7261 13.7294 14.2762 14.0547 13.0805H15.0194L15.585 11.808H14.0478C13.9953 11.5694 13.9192 11.3141 13.7888 11.0805H15.0194L15.585 9.80799Z" fill="#101010"/>
</svg>
