<svg width="24" height="24" viewBox="0 0 24 24" fill="none" xmlns="http://www.w3.org/2000/svg">
<path fill-rule="evenodd" clip-rule="evenodd" d="M12.0001 4C10.8956 4 10.0001 4.89543 10.0001 6C10.0001 7.10457 10.8956 8 12.0001 8C13.1047 8 14.0001 7.10457 14.0001 6C14.0001 4.89543 13.1047 4 12.0001 4ZM8.00012 6C8.00012 3.79086 9.79098 2 12.0001 2C14.2093 2 16.0001 3.79086 16.0001 6C16.0001 8.20914 14.2093 10 12.0001 10C9.79098 10 8.00012 8.20914 8.00012 6ZM4.74074 14.8629L2.62259 15.896L1.74585 14.0984L6.23982 11.9065C6.73621 11.6644 7.33488 11.8706 7.57698 12.367L9.76884 16.8609L7.97125 17.7377L6.7861 15.3077C6.28857 16.0849 6.00012 17.0088 6.00012 18C6.00012 19.1046 6.89555 20 8.00012 20H16.0001C17.1047 20 18.0001 19.1046 18.0001 18C18.0001 15.2386 15.7615 13 13.0001 13H11.0001C10.7087 13 10.4232 13.0249 10.1455 13.0728L9.24298 11.2224C9.80447 11.0772 10.3933 11 11.0001 11H13.0001C16.8661 11 20.0001 14.134 20.0001 18C20.0001 20.2091 18.2093 22 16.0001 22H8.00012C5.79098 22 4.00012 20.2091 4.00012 18C4.00012 16.8721 4.26688 15.8065 4.74074 14.8629Z" fill="#101010"/>
</svg>
