<svg width="25" height="25" viewBox="0 0 25 25" fill="none" xmlns="http://www.w3.org/2000/svg">
<path fill-rule="evenodd" clip-rule="evenodd" d="M3.14099 6.80811C3.14099 5.15125 4.48414 3.80811 6.14099 3.80811H18.141C19.7978 3.80811 21.141 5.15125 21.141 6.80811V18.8081C21.141 20.465 19.7978 21.8081 18.141 21.8081H6.14099C4.48414 21.8081 3.14099 20.465 3.14099 18.8081V6.80811ZM6.14099 5.80811C5.58871 5.80811 5.14099 6.25582 5.14099 6.80811V18.8081C5.14099 19.3604 5.58871 19.8081 6.14099 19.8081H18.141C18.6933 19.8081 19.141 19.3604 19.141 18.8081V6.80811C19.141 6.25582 18.6933 5.80811 18.141 5.80811H6.14099Z" fill="#101010"/>
<path d="M10.301 17.8081L13.136 7.80811L15.766 12.7931L10.301 17.8081Z" fill="#028C3C"/>
<path d="M8.51599 17.8081L11.351 7.80811L13.981 12.7931L8.51599 17.8081Z" fill="#FE7A09"/>
</svg>
