<svg width="24" height="24" viewBox="0 0 24 24" fill="none" xmlns="http://www.w3.org/2000/svg">
<path fill-rule="evenodd" clip-rule="evenodd" d="M10.2366 3.9655C12.0105 3.57577 13.8635 3.78232 15.508 4.55311C16.9268 5.21805 18.122 6.27084 18.9599 7.58282L16.7923 7.20062L16.5319 8.67783L21.2097 9.50266L22.0345 4.82482L20.5573 4.56435L20.1796 6.70648C19.1918 5.18803 17.7964 3.96904 16.1446 3.19488C14.201 2.28395 12.0112 2.03985 9.9147 2.50044C7.81824 2.96102 5.93235 4.10056 4.54958 5.74228C3.1668 7.38401 2.36443 9.43616 2.26692 11.5804L3.76537 11.6485C3.7712 11.5205 3.77999 11.3929 3.79171 11.2657L3.79881 11.2664C3.8231 10.9943 3.86093 10.7231 3.91232 10.4537L3.9077 10.4528C4.17407 9.07919 4.78696 7.78888 5.69685 6.7086C6.86689 5.31945 8.46264 4.35522 10.2366 3.9655ZM2.32504 13.07C2.36047 13.3909 2.41189 13.7104 2.47927 14.0274C2.54666 14.3443 2.62967 14.6572 2.72785 14.9647L4.15682 14.5086C4.07375 14.2483 4.0035 13.9837 3.94648 13.7155C3.88946 13.4473 3.84596 13.1769 3.81598 12.9054L2.32504 13.07ZM20.3582 17.0469C20.526 16.7696 20.6795 16.4847 20.8183 16.1932L19.4641 15.5481C19.3467 15.7947 19.2168 16.0358 19.0748 16.2704C18.9329 16.505 18.7796 16.7319 18.6157 16.9505L19.8156 17.8506C20.0093 17.5923 20.1905 17.3241 20.3582 17.0469ZM3.49728 16.7424C3.65432 17.0245 3.82556 17.2991 4.01052 17.5652C4.19549 17.8313 4.39326 18.0875 4.60296 18.3329L5.74345 17.3586C5.56601 17.1509 5.39867 16.9341 5.24216 16.709C5.08564 16.4839 4.94075 16.2515 4.80787 16.0128L3.49728 16.7424ZM17.7501 19.8856C18.0122 19.695 18.2641 19.4919 18.5051 19.277L17.5068 18.1574C17.3029 18.3393 17.0897 18.5112 16.8679 18.6724C16.6462 18.8337 16.4169 18.9835 16.1811 19.1214L16.9384 20.4162C17.2171 20.2532 17.488 20.0762 17.7501 19.8856ZM6.00125 19.6735C6.25534 19.8726 6.51964 20.0594 6.79327 20.233C7.06691 20.4066 7.34851 20.5661 7.63696 20.7111L8.31068 19.3709C8.06661 19.2482 7.82833 19.1133 7.59679 18.9664C7.36525 18.8195 7.14162 18.6614 6.92662 18.4929L6.00125 19.6735ZM14.2455 21.4916C14.561 21.4175 14.872 21.3278 15.1774 21.2232L14.691 19.8042C14.4326 19.8928 14.1695 19.9686 13.9026 20.0313C13.6356 20.094 13.3662 20.1432 13.0954 20.179L13.2916 21.6661C13.6117 21.6239 13.9301 21.5657 14.2455 21.4916ZM9.44552 21.4049C9.75694 21.49 10.073 21.5598 10.3925 21.6137C10.712 21.6677 11.0334 21.7056 11.3555 21.7275L11.4572 20.2309C11.1846 20.2124 10.9127 20.1804 10.6423 20.1347C10.3719 20.089 10.1045 20.03 9.841 19.958L9.44552 21.4049ZM12.4799 8V11.4715H15.9446V13H10.9446V8H12.4799Z" fill="#F19E0C"/>
</svg>
