<svg width="24" height="25" viewBox="0 0 24 25" fill="none" xmlns="http://www.w3.org/2000/svg">
<path fill-rule="evenodd" clip-rule="evenodd" d="M10.2366 4.93486C12.0105 4.54513 13.8635 4.75168 15.508 5.52247C16.9268 6.18741 18.122 7.2402 18.9599 8.55218L16.7923 8.16998L16.5318 9.64719L21.2097 10.472L22.0345 5.79419L20.5573 5.53371L20.1796 7.67584C19.1918 6.15739 17.7964 4.9384 16.1446 4.16424C14.201 3.25331 12.0112 3.00921 9.91469 3.4698C7.81822 3.93038 5.93233 5.06992 4.54956 6.71164C3.16679 8.35337 2.36441 10.4055 2.26691 12.5498L3.76536 12.6179C3.77118 12.4899 3.77997 12.3623 3.79169 12.2351L3.79879 12.2357C3.82308 11.9636 3.86092 11.6924 3.9123 11.4231L3.90769 11.4222C4.17405 10.0486 4.78694 8.75824 5.69683 7.67796C6.86687 6.28881 8.46262 5.32458 10.2366 4.93486ZM2.32502 14.0393C2.36046 14.3602 2.41187 14.6798 2.47926 14.9967C2.54664 15.3137 2.62966 15.6265 2.72783 15.9341L4.1568 15.4779C4.07373 15.2177 4.00349 14.953 3.94647 14.6848C3.88945 14.4166 3.84594 14.1462 3.81596 13.8747L2.32502 14.0393ZM20.3582 18.0162C20.526 17.739 20.6795 17.454 20.8183 17.1626L19.4641 16.5175C19.3466 16.7641 19.2168 17.0052 19.0748 17.2398C18.9329 17.4744 18.7796 17.7013 18.6157 17.9198L19.8156 18.8199C20.0093 18.5617 20.1905 18.2935 20.3582 18.0162ZM3.49726 17.7118C3.6543 17.9939 3.82554 18.2685 4.01051 18.5346C4.19548 18.8006 4.39324 19.0568 4.60295 19.3023L5.74343 18.328C5.56599 18.1203 5.39865 17.9035 5.24214 17.6784C5.08563 17.4532 4.94073 17.2208 4.80786 16.9822L3.49726 17.7118ZM17.7501 20.855C18.0121 20.6644 18.2641 20.4612 18.505 20.2464L17.5067 19.1268C17.3029 19.3086 17.0897 19.4805 16.8679 19.6418C16.6461 19.803 16.4169 19.9528 16.1811 20.0907L16.9384 21.3855C17.217 21.2226 17.488 21.0455 17.7501 20.855ZM6.00124 20.6428C6.25533 20.842 6.51962 21.0288 6.79326 21.2024C7.06689 21.3759 7.34849 21.5355 7.63694 21.6805L8.31066 20.3403C8.06659 20.2176 7.82831 20.0826 7.59678 19.9357C7.36524 19.7888 7.1416 19.6308 6.9266 19.4623L6.00124 20.6428ZM14.2455 22.4609C14.561 22.3868 14.872 22.2972 15.1774 22.1925L14.691 20.7736C14.4326 20.8621 14.1695 20.938 13.9025 21.0007C13.6356 21.0634 13.3662 21.1126 13.0954 21.1483L13.2916 22.6355C13.6117 22.5932 13.9301 22.535 14.2455 22.4609ZM9.4455 22.3743C9.75693 22.4594 10.073 22.5291 10.3925 22.5831C10.712 22.6371 11.0334 22.675 11.3555 22.6968L11.4572 21.2003C11.1846 21.1818 10.9126 21.1497 10.6423 21.1041C10.3719 21.0584 10.1045 20.9994 9.84098 20.9273L9.4455 22.3743ZM12.4799 8.96936V12.4409H15.9446V13.9694H10.9446V8.96936H12.4799Z" fill="#F19E0C"/>
</svg>
