<svg width="24" height="24" viewBox="0 0 24 24" fill="none" xmlns="http://www.w3.org/2000/svg">
<path fill-rule="evenodd" clip-rule="evenodd" d="M15.5147 7.2438L18.4812 4.2773V11.9818H19.9812V4.28567L22.9393 7.2438L24 6.18314L19.7573 1.94049C19.4645 1.6476 18.9896 1.6476 18.6967 1.94049L14.454 6.18314L15.5147 7.2438ZM5.48438 4.7576C5.48438 4.06724 6.04402 3.5076 6.73438 3.5076H13.996V2.0076H6.73438C5.21559 2.0076 3.98438 3.23881 3.98438 4.7576V6.24954H1.98438V7.74954H3.98438V11.2495H1.98438V12.7495H3.98438V16.2495H1.98438V17.7495H3.98438V19.4005C3.98438 20.9192 5.21559 22.1505 6.73438 22.1505H17.2344C18.7532 22.1505 19.9844 20.9192 19.9844 19.4005V14.0038H18.4844V19.4005C18.4844 20.0908 17.9247 20.6505 17.2344 20.6505H6.73438C6.04402 20.6505 5.48438 20.0908 5.48438 19.4005V4.7576ZM13.9844 9.98734C13.9844 11.0919 13.0889 11.9873 11.9844 11.9873C10.8798 11.9873 9.98438 11.0919 9.98438 9.98734C9.98438 8.88277 10.8798 7.98733 11.9844 7.98733C13.0889 7.98733 13.9844 8.88277 13.9844 9.98734ZM11.1844 13.0157C9.41706 13.0157 7.98438 14.4483 7.98438 16.2157C7.98438 16.6575 8.34255 17.0157 8.78438 17.0157H15.1844C15.6262 17.0157 15.9844 16.6575 15.9844 16.2157C15.9844 14.4483 14.5517 13.0157 12.7844 13.0157H11.1844Z" fill="#101010"/>
</svg>
