<svg width="25" height="25" viewBox="0 0 25 25" fill="none" xmlns="http://www.w3.org/2000/svg">
<path fill-rule="evenodd" clip-rule="evenodd" d="M6.8555 2.82593C5.33672 2.82593 4.1055 4.05714 4.1055 5.57592V7.05762H2.10547V8.55762H4.1055V12.0576H2.10547V13.5576H4.1055V17.0576H2.10547V18.5576H4.1055V20.2188C4.1055 21.7376 5.33672 22.9688 6.8555 22.9688H17.3555C18.8743 22.9688 20.1055 21.7376 20.1055 20.2188V5.57593C20.1055 4.05714 18.8743 2.82593 17.3555 2.82593H6.8555ZM5.6055 5.57592C5.6055 4.88557 6.16514 4.32593 6.8555 4.32593H17.3555C18.0459 4.32593 18.6055 4.88557 18.6055 5.57593V20.2188C18.6055 20.9091 18.0459 21.4688 17.3555 21.4688H6.8555C6.16514 21.4688 5.6055 20.9091 5.6055 20.2188V5.57592ZM14.5336 7.92934H13.0076C13.1481 8.1733 13.2286 8.44191 13.2837 8.69238H15.1101L14.5336 9.81362H13.3307C13.0808 11.1645 11.7031 11.6632 10.9398 11.7417L13.8655 14.808H12.164L9.43658 11.8629V10.5739C11.0205 10.7132 11.5885 10.3029 11.7917 9.81362H9.10077L9.69001 8.69238H11.8316C11.6476 8.17623 11.1648 7.9863 10.7127 7.92934H9.10077L9.69001 6.80811H15.1101L14.5336 7.92934ZM9.10547 18.8115H15.1055V17.3115H9.10547V18.8115Z" fill="#101010"/>
</svg>
