<svg width="24" height="25" viewBox="0 0 24 25" fill="none" xmlns="http://www.w3.org/2000/svg">
<path fill-rule="evenodd" clip-rule="evenodd" d="M19.25 1.68457C18.8358 1.68457 18.5 2.02036 18.5 2.43457V9.12902L15.8912 6.52021C15.5983 6.22731 15.1235 6.22731 14.8306 6.52021C14.5377 6.8131 14.5377 7.28797 14.8306 7.58087L18.7196 11.47C19.0125 11.7628 19.4874 11.7628 19.7803 11.47L23.6694 7.58087C23.9623 7.28797 23.9623 6.8131 23.6694 6.52021C23.3765 6.22731 22.9016 6.22731 22.6087 6.52021L20 9.12891V2.43457C20 2.02036 19.6642 1.68457 19.25 1.68457ZM5.49997 9.43921C5.49997 8.19657 6.50733 7.18921 7.74997 7.18921H11.8598C12.274 7.18921 12.6098 6.85342 12.6098 6.43921C12.6098 6.025 12.274 5.68921 11.8598 5.68921H7.74997C5.6789 5.68921 3.99997 7.36814 3.99997 9.43921V17.9392C3.99997 20.0103 5.6789 21.6892 7.74997 21.6892H16.25C18.321 21.6892 20 20.0103 20 17.9392V14.4398C20 14.0255 19.6642 13.6898 19.25 13.6898C18.8358 13.6898 18.5 14.0255 18.5 14.4398V17.9392C18.5 19.1819 17.4926 20.1892 16.25 20.1892H7.74997C6.50733 20.1892 5.49997 19.1819 5.49997 17.9392V9.43921ZM9.17918 9.93467C9.27754 9.76491 9.45888 9.6604 9.65507 9.6604H14.2567C14.6782 9.6604 14.943 10.115 14.7351 10.4817C14.6375 10.6539 14.4547 10.7604 14.2567 10.7604H12.8916C13.0524 11.0424 13.1216 11.3702 13.1679 11.6604H14.2638C14.6837 11.6604 14.9487 12.1119 14.7441 12.4785C14.6469 12.6525 14.4632 12.7604 14.2638 12.7604H13.2134C12.9962 14.07 11.7161 14.5777 10.9493 14.6788L12.9617 16.7882C13.0201 16.8493 13.0617 16.9205 13.0865 16.9958L13.101 17.0109L13.0929 17.0164C13.1473 17.2065 13.0971 17.4197 12.9442 17.5658C12.7247 17.7757 12.3765 17.7679 12.1666 17.5484L9.9206 15.1941L9.42984 14.6874L9.43173 14.6817L9.22381 14.4638C9.0139 14.2442 9.02172 13.8961 9.24127 13.6861C9.39883 13.5355 9.62261 13.497 9.814 13.5684C11.0957 13.7175 11.5868 13.27 11.7701 12.7604H9.74774C9.32561 12.7604 9.06084 12.3045 9.27001 11.9379C9.36789 11.7663 9.55023 11.6604 9.74774 11.6604H11.8048C11.6446 11.1404 11.2503 10.8799 10.8483 10.7604H9.65507C9.23131 10.7604 8.96673 10.3013 9.17918 9.93467Z" fill="#101010"/>
</svg>
