<svg width="24" height="24" viewBox="0 0 24 24" fill="none" xmlns="http://www.w3.org/2000/svg">
<path fill-rule="evenodd" clip-rule="evenodd" d="M12 3.75C10.7574 3.75 9.75 4.75736 9.75 6C9.75 7.24264 10.7574 8.25 12 8.25C13.2426 8.25 14.25 7.24264 14.25 6C14.25 4.75736 13.2426 3.75 12 3.75ZM8.25 6C8.25 3.92893 9.92893 2.25 12 2.25C14.0711 2.25 15.75 3.92893 15.75 6C15.75 8.07107 14.0711 9.75 12 9.75C9.92893 9.75 8.25 8.07107 8.25 6Z" fill="#101010"/>
<path fill-rule="evenodd" clip-rule="evenodd" d="M1.70842 15.1115C1.54548 14.7307 1.72211 14.2899 2.10293 14.127L6.24015 12.3568C6.62097 12.1939 7.06177 12.3705 7.22471 12.7513L8.99485 16.8886C9.15779 17.2694 8.98116 17.7102 8.60034 17.8731C8.21952 18.0361 7.77872 17.8594 7.61578 17.4786L6.14066 14.0309L2.69298 15.506C2.31216 15.669 1.87135 15.4924 1.70842 15.1115Z" fill="#101010"/>
<path fill-rule="evenodd" clip-rule="evenodd" d="M9.00682 11.7684C9.00682 11.3542 9.34261 11.0184 9.75682 11.0184H13.1434C16.3405 11.0184 19.0991 13.2614 19.7514 16.3913L19.9774 17.4755C20.4627 19.8043 18.685 21.9906 16.3062 21.9906H7.72572C5.40181 21.9906 3.63806 19.8975 4.03204 17.6073C4.18412 16.7232 4.45756 15.8644 4.8446 15.0551L5.65372 13.3633C5.83244 12.9897 6.28024 12.8316 6.65392 13.0103C7.02759 13.189 7.18564 13.6368 7.00692 14.0105L6.1978 15.7023C5.87034 16.387 5.639 17.1136 5.51033 17.8616C5.27403 19.2352 6.33189 20.4906 7.72572 20.4906H16.3062C17.7335 20.4906 18.8001 19.1788 18.5089 17.7815L18.2829 16.6973C17.7756 14.263 15.63 12.5184 13.1434 12.5184H9.75682C9.34261 12.5184 9.00682 12.1826 9.00682 11.7684Z" fill="#101010"/>
</svg>
