<svg width="24" height="25" viewBox="0 0 24 25" fill="none" xmlns="http://www.w3.org/2000/svg">
<path fill-rule="evenodd" clip-rule="evenodd" d="M14.8305 5.78356C14.5376 6.07646 14.5376 6.55133 14.8305 6.84422C15.1234 7.13712 15.5983 7.13712 15.8912 6.84422L18.4999 4.23547V10.9401C18.4999 11.3543 18.8357 11.6901 19.2499 11.6901C19.6642 11.6901 19.9999 11.3543 19.9999 10.9401V4.23546L22.6087 6.84422C22.9016 7.13712 23.3765 7.13712 23.6694 6.84422C23.9623 6.55133 23.9623 6.07646 23.6694 5.78356L19.7803 1.89447C19.4874 1.60158 19.0125 1.60158 18.7196 1.89447L14.8305 5.78356ZM5.49994 9.43938C5.49994 8.19674 6.5073 7.18938 7.74994 7.18938H11.7157C12.13 7.18938 12.4657 6.85359 12.4657 6.43938C12.4657 6.02517 12.13 5.68938 11.7157 5.68938H7.74994C5.67887 5.68938 3.99994 7.36831 3.99994 9.43938V17.9394C3.99994 20.0104 5.67887 21.6894 7.74994 21.6894H16.2499C18.321 21.6894 19.9999 20.0105 19.9999 17.9394V14.4122C19.9999 13.998 19.6642 13.6622 19.2499 13.6622C18.8357 13.6622 18.4999 13.998 18.4999 14.4122V17.9394C18.4999 19.182 17.4926 20.1894 16.2499 20.1894H7.74994C6.5073 20.1894 5.49994 19.182 5.49994 17.9394V9.43938ZM9.25059 9.9346C9.34895 9.76484 9.53029 9.66033 9.72648 9.66033H14.3281C14.7496 9.66033 15.0144 10.1149 14.8065 10.4816C14.7089 10.6539 14.5261 10.7603 14.3281 10.7603H12.963C13.1238 11.0424 13.193 11.3701 13.2393 11.6603H14.3352C14.7551 11.6603 15.0201 12.1118 14.8154 12.4784C14.7183 12.6525 14.5345 12.7603 14.3352 12.7603H13.2848C13.0676 14.0699 11.7875 14.5776 11.0207 14.6788L13.0331 16.7881C13.0916 16.8493 13.1332 16.9204 13.158 16.9958L13.1724 17.0108L13.1643 17.0163C13.2187 17.2064 13.1685 17.4196 13.0156 17.5657C12.7961 17.7757 12.4479 17.7678 12.238 17.5483L9.99402 15.1962L9.50122 14.6873L9.50312 14.6816L9.29522 14.4637C9.08531 14.2441 9.09313 13.896 9.31268 13.6861C9.47025 13.5354 9.69403 13.4969 9.88543 13.5683C11.1671 13.7174 11.6581 13.2699 11.8415 12.7603H9.81912C9.39699 12.7603 9.13222 12.3044 9.3414 11.9378C9.43927 11.7662 9.62161 11.6603 9.81912 11.6603H11.8762C11.716 11.1404 11.3217 10.8798 10.9197 10.7603H9.72648C9.30272 10.7603 9.03814 10.3013 9.25059 9.9346Z" fill="#101010"/>
</svg>
