<svg width="24" height="24" viewBox="0 0 24 24" fill="none" xmlns="http://www.w3.org/2000/svg">
<path fill-rule="evenodd" clip-rule="evenodd" d="M4.00003 5.76782C4.00003 3.69675 5.67896 2.01782 7.75003 2.01782H16.25C18.3211 2.01782 20 3.69675 20 5.76782V18.4107C20 20.4817 18.3211 22.1607 16.25 22.1607H7.75003C5.67896 22.1607 4.00003 20.4817 4.00003 18.4107V17.75H2.74997C2.33576 17.75 1.99997 17.4142 1.99997 17C1.99997 16.5858 2.33576 16.25 2.74997 16.25H4.00003V12.75H2.74997C2.33576 12.75 1.99997 12.4142 1.99997 12C1.99997 11.5858 2.33576 11.25 2.74997 11.25H4.00003V7.75H2.74997C2.33576 7.75 1.99997 7.41421 1.99997 7C1.99997 6.58579 2.33576 6.25 2.74997 6.25H4.00003V5.76782ZM7.75003 3.51782C6.50739 3.51782 5.50003 4.52518 5.50003 5.76782V18.4107C5.50003 19.6533 6.50739 20.6607 7.75003 20.6607H16.25C17.4927 20.6607 18.5 19.6533 18.5 18.4107V5.76782C18.5 4.52518 17.4927 3.51782 16.25 3.51782H7.75003ZM12.8918 7.07192H14.2568C14.4549 7.07192 14.6376 6.96546 14.7353 6.79319C14.9432 6.42654 14.6783 5.97192 14.2568 5.97192H9.65522C9.45903 5.97192 9.27769 6.07643 9.17933 6.24619C8.96689 6.61286 9.23146 7.07192 9.65522 7.07192H10.8484C11.2505 7.1914 11.6448 7.45195 11.805 7.97192H9.74789C9.55038 7.97192 9.36804 8.07783 9.27017 8.24939C9.06099 8.61605 9.32576 9.07192 9.74789 9.07192H11.7702C11.5869 9.58153 11.0958 10.029 9.81416 9.87993C9.62276 9.80853 9.39898 9.84704 9.24143 9.99767C9.02187 10.2076 9.01405 10.5557 9.22396 10.7753L9.43188 10.9932L9.42999 10.9989L9.92075 11.5057L12.1667 13.8599C12.3767 14.0794 12.7248 14.0873 12.9444 13.8773C13.0972 13.7312 13.1475 13.518 13.093 13.3279L13.1011 13.3224L13.0867 13.3073C13.0619 13.232 13.0203 13.1609 12.9618 13.0997L10.9494 10.9904C11.7162 10.8892 12.9963 10.3815 13.2135 9.07192H14.264C14.4633 9.07192 14.6471 8.96407 14.7442 8.79001C14.9489 8.4234 14.6838 7.97192 14.264 7.97192H13.1681C13.1218 7.68168 13.0525 7.35397 12.8918 7.07192ZM9.74998 16.5034C9.33577 16.5034 8.99998 16.8392 8.99998 17.2534C8.99998 17.6676 9.33577 18.0034 9.74998 18.0034H14.25C14.6642 18.0034 15 17.6676 15 17.2534C15 16.8392 14.6642 16.5034 14.25 16.5034H9.74998Z" fill="#101010"/>
</svg>
