<svg width="25" height="25" viewBox="0 0 25 25" fill="none" xmlns="http://www.w3.org/2000/svg">
<path fill-rule="evenodd" clip-rule="evenodd" d="M11.8492 3.2224C12.0147 3.16219 12.1962 3.16219 12.3618 3.2224L20.6118 6.2224C20.9082 6.33018 21.1055 6.61187 21.1055 6.92725V9.80811C21.1055 10.2223 20.7697 10.5581 20.3555 10.5581H19.128V17.8081H20.3555C20.7697 17.8081 21.1055 18.1439 21.1055 18.5581V22.0581C21.1055 22.4723 20.7697 22.8081 20.3555 22.8081H3.85547C3.44126 22.8081 3.10547 22.4723 3.10547 22.0581V18.5581C3.10547 18.1439 3.44126 17.8081 3.85547 17.8081H5.10477V10.5581H3.85547C3.44126 10.5581 3.10547 10.2223 3.10547 9.80811V6.92725C3.10547 6.61187 3.30277 6.33018 3.59916 6.2224L11.8492 3.2224ZM6.60477 10.5581V17.8081H11.3765V10.5581H6.60477ZM12.8765 10.5581V17.8081H17.628V10.5581H12.8765ZM4.60547 7.45257V9.05811H19.6055V7.45257L12.1055 4.72529L4.60547 7.45257ZM4.60547 19.3081V21.3081H19.6055V19.3081H4.60547Z" fill="#101010"/>
</svg>
