<svg width="25" height="25" viewBox="0 0 25 25" fill="none" xmlns="http://www.w3.org/2000/svg">
<path fill-rule="evenodd" clip-rule="evenodd" d="M3.10547 6.55811C3.10547 5.03932 4.33669 3.80811 5.85547 3.80811H18.3555C19.8743 3.80811 21.1055 5.03932 21.1055 6.5581V10.0675C21.1055 10.4817 20.7697 10.8175 20.3555 10.8175C19.9413 10.8175 19.6055 10.4817 19.6055 10.0675V6.5581C19.6055 5.86775 19.0458 5.30811 18.3555 5.30811H5.85547C5.16511 5.30811 4.60547 5.86775 4.60547 6.55811V19.0581C4.60547 19.7485 5.16511 20.3081 5.85547 20.3081H15.364C15.7782 20.3081 16.114 20.6439 16.114 21.0581C16.114 21.4723 15.7782 21.8081 15.364 21.8081H5.85547C4.33668 21.8081 3.10547 20.5769 3.10547 19.0581V6.55811ZM12.9972 9.8793H14.3622C14.5602 9.8793 14.743 9.77283 14.8407 9.60056C15.0485 9.23391 14.7837 8.7793 14.3622 8.7793H9.7606C9.56441 8.7793 9.38307 8.88381 9.28471 9.05356C9.07226 9.42023 9.33683 9.8793 9.7606 9.8793H10.9538C11.3559 9.99877 11.7501 10.2593 11.9104 10.7793H9.85327C9.65576 10.7793 9.47342 10.8852 9.37554 11.0568C9.16637 11.4234 9.43114 11.8793 9.85327 11.8793H11.8756C11.6923 12.3889 11.2012 12.8364 9.91953 12.6873C9.72814 12.6159 9.50436 12.6544 9.3468 12.805C9.12725 13.015 9.11943 13.3631 9.32934 13.5827L9.53726 13.8006L9.53537 13.8063L10.0261 14.313L12.2721 16.6672C12.482 16.8868 12.8302 16.8946 13.0497 16.6847C13.2026 16.5386 13.2528 16.3254 13.1984 16.1353L13.2065 16.1298L13.1921 16.1147C13.1673 16.0394 13.1257 15.9682 13.0672 15.9071L11.0548 13.7977C11.8216 13.6966 13.1017 13.1889 13.3189 11.8793H14.3694C14.5687 11.8793 14.7524 11.7714 14.8496 11.5974C15.0543 11.2308 14.7892 10.7793 14.3694 10.7793H13.2735C13.2272 10.4891 13.1579 10.1613 12.9972 9.8793ZM19.744 14.5891C19.0536 14.5891 18.494 15.1488 18.494 15.8391V15.8745C18.494 16.2887 18.1582 16.6245 17.744 16.6245C17.3298 16.6245 16.994 16.2887 16.994 15.8745V15.8391C16.994 14.3203 18.2252 13.0891 19.744 13.0891H19.9343C21.3543 13.0891 22.5054 14.2402 22.5054 15.6602C22.5054 16.4701 22.1238 17.2326 21.4756 17.7181L20.8411 18.1933C20.5259 18.4294 20.3404 18.8001 20.3404 19.1938V19.2968C20.3404 19.711 20.0046 20.0468 19.5904 20.0468C19.1762 20.0468 18.8404 19.711 18.8404 19.2968V19.1938C18.8404 18.3276 19.2485 17.512 19.9419 16.9928L20.5764 16.5175C20.8464 16.3153 21.0054 15.9976 21.0054 15.6602C21.0054 15.0687 20.5258 14.5891 19.9343 14.5891H19.744ZM19.6298 22.9978C20.1269 22.9978 20.5298 22.5948 20.5298 22.0978C20.5298 21.6007 20.1269 21.1978 19.6298 21.1978C19.1327 21.1978 18.7298 21.6007 18.7298 22.0978C18.7298 22.5948 19.1327 22.9978 19.6298 22.9978Z" fill="#101010"/>
</svg>
