<svg width="25" height="25" viewBox="0 0 25 25" fill="none" xmlns="http://www.w3.org/2000/svg">
<circle cx="12.1584" cy="12.8081" r="10" fill="#FD5154"/>
<path fill-rule="evenodd" clip-rule="evenodd" d="M8.42693 10.1573C8.13311 9.8653 8.1316 9.39042 8.42356 9.0966C8.71552 8.80278 9.1904 8.80127 9.48422 9.09323L12.1586 11.7507L14.8327 9.09348C15.1265 8.80151 15.6014 8.80302 15.8934 9.09685C16.1853 9.39067 16.1838 9.86554 15.89 10.1575L13.2226 12.808L15.8901 15.4585C16.1839 15.7505 16.1854 16.2253 15.8934 16.5192C15.6015 16.813 15.1266 16.8145 14.8328 16.5225L12.1586 13.8653L9.48415 16.5228C9.19033 16.8147 8.71545 16.8132 8.42349 16.5194C8.13153 16.2256 8.13304 15.7507 8.42686 15.4588L11.0945 12.808L8.42693 10.1573Z" fill="white"/>
</svg>
