<svg width="24" height="25" viewBox="0 0 24 25" fill="none" xmlns="http://www.w3.org/2000/svg">
<path fill-rule="evenodd" clip-rule="evenodd" d="M10.2366 4.93486C12.0105 4.54513 13.8635 4.75168 15.508 5.52247C16.9267 6.18739 18.1219 7.24015 18.9598 8.5521L16.7924 8.16992C16.3844 8.098 15.9955 8.37037 15.9235 8.77829C15.8516 9.18621 16.124 9.57521 16.5319 9.64714L20.4711 10.3417C20.8791 10.4137 21.268 10.1413 21.34 9.73336L22.0346 5.79413C22.1065 5.38621 21.8341 4.99721 21.4262 4.92529C21.0183 4.85336 20.6293 5.12573 20.5574 5.53366L20.1796 7.6759C19.1918 6.15742 17.7964 4.93841 16.1446 4.16424C14.201 3.25331 12.0112 3.00921 9.91468 3.4698C7.81822 3.93038 5.93233 5.06992 4.54956 6.71164C3.16678 8.35337 2.36441 10.4055 2.2669 12.5498C2.24809 12.9636 2.56827 13.3142 2.98206 13.3331C3.39584 13.3519 3.74654 13.0317 3.76535 12.6179C3.76742 12.5724 3.76987 12.5269 3.77269 12.4815C3.77941 12.4556 3.78384 12.4287 3.78574 12.4012C3.78758 12.3745 3.78698 12.3481 3.78412 12.3223C3.92325 10.6155 4.5905 8.99147 5.69683 7.67796C6.86687 6.28881 8.46262 5.32458 10.2366 4.93486ZM2.58566 15.4449C2.60428 15.5158 2.62371 15.5866 2.64395 15.6571C2.66419 15.7277 2.68521 15.798 2.70702 15.868C2.83016 16.2635 3.26929 16.4507 3.65414 16.2975C4.03899 16.1443 4.22326 15.7088 4.10566 15.3117C4.09895 15.289 4.09234 15.2663 4.08583 15.2436C4.07931 15.2209 4.07289 15.1982 4.06658 15.1754C3.95581 14.7763 3.56875 14.5046 3.16122 14.5787C2.75368 14.6528 2.48049 15.0442 2.58566 15.4449ZM20.7883 17.2251C20.9691 16.8525 20.7769 16.4155 20.3915 16.2639C20.006 16.1123 19.5736 16.3037 19.3877 16.6739C19.377 16.695 19.3663 16.716 19.3555 16.7371C19.3448 16.7581 19.3339 16.7791 19.3229 16.8C19.1306 17.1668 19.227 17.6298 19.5749 17.8546C19.9227 18.0794 20.3898 17.9809 20.5872 17.6168C20.6222 17.5523 20.6565 17.4874 20.69 17.4221C20.7235 17.3568 20.7563 17.2911 20.7883 17.2251ZM4.28225 18.9064C4.32691 18.9646 4.37224 19.0223 4.41825 19.0795C4.46426 19.1367 4.5109 19.1934 4.55814 19.2495C4.82494 19.5663 5.30227 19.5687 5.59768 19.2783C5.89308 18.9879 5.89417 18.5151 5.63182 18.1945C5.61686 18.1763 5.60197 18.1579 5.58716 18.1395C5.57235 18.1211 5.55762 18.1026 5.54298 18.0841C5.28618 17.7591 4.82409 17.6587 4.47712 17.8849C4.13014 18.1111 4.03002 18.5779 4.28225 18.9064ZM18.4532 20.2924C18.7643 20.0189 18.7565 19.5416 18.4599 19.2525C18.1633 18.9633 17.6906 18.9722 17.3757 19.2413C17.3577 19.2567 17.3397 19.272 17.3216 19.2872C17.3035 19.3024 17.2853 19.3175 17.2671 19.3325C16.9476 19.5961 16.8571 20.0603 17.0906 20.4023C17.3242 20.7444 17.7929 20.8346 18.116 20.5755C18.1733 20.5296 18.23 20.4831 18.2862 20.4359C18.3424 20.3886 18.3981 20.3408 18.4532 20.2924ZM7.18786 21.4399C7.25157 21.4762 7.31573 21.5118 7.38032 21.5467C7.44491 21.5816 7.50986 21.6158 7.57515 21.6492C7.9439 21.8379 8.38483 21.655 8.5446 21.2728C8.70437 20.8907 8.52211 20.4544 8.15603 20.2606C8.13515 20.2495 8.11432 20.2384 8.09353 20.2271C8.07274 20.2159 8.052 20.2046 8.03131 20.1931C7.66862 19.9931 7.20375 20.0796 6.97158 20.4227C6.73941 20.7657 6.828 21.2347 7.18786 21.4399ZM15.1118 22.2149C15.5045 22.0833 15.6823 21.6403 15.521 21.2588C15.3597 20.8773 14.9204 20.7023 14.5258 20.8283C14.5033 20.8355 14.4808 20.8426 14.4582 20.8496C14.4356 20.8566 14.4131 20.8635 14.3904 20.8703C13.9937 20.9895 13.7304 21.3822 13.8131 21.7881C13.8958 22.194 14.2929 22.4588 14.6912 22.3452C14.7618 22.325 14.8321 22.3041 14.9022 22.2824C14.9724 22.2606 15.0422 22.2381 15.1118 22.2149ZM10.8483 22.6491C10.9211 22.6579 10.994 22.6659 11.0671 22.673C11.1402 22.6802 11.2133 22.6865 11.2864 22.692C11.6995 22.723 12.0351 22.3835 12.0342 21.9693C12.0334 21.5551 11.6963 21.2235 11.2837 21.1867L11.2445 21.1832L11.2131 21.1801C11.1896 21.1778 11.1661 21.1754 11.1426 21.1729C10.7307 21.1291 10.3357 21.3891 10.2546 21.7953C10.1736 22.2015 10.437 22.5995 10.8483 22.6491ZM12.5224 9.73054V12.4698H15.1942C15.6083 12.4698 15.944 12.8055 15.944 13.2196C15.944 13.6337 15.6083 13.9694 15.1942 13.9694H12C11.4477 13.9694 11 13.5216 11 12.9694V9.73054C11 9.31015 11.3408 8.96935 11.7612 8.96935C12.1816 8.96935 12.5224 9.31015 12.5224 9.73054Z" fill="#F19E0C"/>
</svg>
