<svg width="25" height="25" viewBox="0 0 25 25" fill="none" xmlns="http://www.w3.org/2000/svg">
<path fill-rule="evenodd" clip-rule="evenodd" d="M10.3974 4.77372C12.1714 4.38399 14.0243 4.59054 15.6689 5.36133C17.0876 6.02626 18.2828 7.07902 19.1207 8.39097L16.9533 8.00879C16.5453 7.93686 16.1563 8.20924 16.0844 8.61716C16.0125 9.02508 16.2849 9.41408 16.6928 9.486L20.632 10.1806C21.0399 10.2525 21.4289 9.98015 21.5009 9.57223L22.1955 5.633C22.2674 5.22507 21.995 4.83608 21.5871 4.76415C21.1792 4.69223 20.7902 4.9646 20.7182 5.37252L20.3405 7.51477C19.3527 5.99629 17.9573 4.77728 16.3055 4.00311C14.3619 3.09218 12.172 2.84807 10.0756 3.30866C7.9791 3.76925 6.09322 4.90879 4.71044 6.55051C3.32767 8.19224 2.5253 10.2444 2.42779 12.3886C2.42596 12.4288 2.42734 12.4685 2.43168 12.5072C2.43052 12.5451 2.42957 12.583 2.42884 12.6209L2.45359 12.6213C2.53731 12.9265 2.80979 13.1568 3.14295 13.1719C3.48987 13.1877 3.79245 12.9652 3.89226 12.649L3.92856 12.6497C3.93381 12.3766 3.95263 12.1034 3.98511 11.8311L3.9787 11.8303C4.17249 10.2451 4.8231 8.74519 5.85772 7.51683C7.02776 6.12767 8.62351 5.16345 10.3974 4.77372ZM21.7768 14.5132C21.8333 14.1953 21.874 13.8742 21.8987 13.5511L20.4031 13.4368C20.3822 13.7102 20.3477 13.9819 20.2999 14.2509L21.7768 14.5132ZM2.58419 14.5517C2.64193 14.8693 2.71551 15.1845 2.80484 15.496C2.89417 15.8075 2.9988 16.1138 3.11819 16.4137L4.51186 15.859C4.41084 15.6052 4.3223 15.3461 4.24671 15.0825C4.17113 14.8189 4.10887 14.5522 4.06002 14.2835L2.58419 14.5517ZM20.8509 17.261C20.9989 16.9727 21.1321 16.6777 21.2503 16.3773L19.8544 15.8282C19.7544 16.0824 19.6417 16.332 19.5164 16.5759C19.3912 16.8199 19.2541 17.0569 19.1059 17.2864L20.3656 18.1006C20.5409 17.8294 20.7029 17.5492 20.8509 17.261ZM4.00975 18.1334C4.18609 18.4039 4.37607 18.6659 4.57914 18.9184C4.78222 19.1709 4.99738 19.4127 5.22369 19.6429L6.29344 18.5914C6.10194 18.3966 5.91989 18.192 5.74805 17.9784C5.57621 17.7647 5.41546 17.543 5.26626 17.3141L4.00975 18.1334ZM18.4471 20.2747C18.6952 20.0663 18.9324 19.8461 19.1578 19.6149L18.0838 18.5677C17.8931 18.7633 17.6924 18.9497 17.4825 19.126C17.2725 19.3024 17.0542 19.4678 16.8286 19.6218L17.6744 20.8606C17.941 20.6786 18.1989 20.4831 18.4471 20.2747ZM6.71209 20.8826C6.97945 21.0636 7.25613 21.2315 7.54121 21.3856C7.82629 21.5397 8.11833 21.6791 8.41619 21.8037L8.99478 20.4198C8.74275 20.3144 8.49564 20.1964 8.25442 20.066C8.01319 19.9356 7.77908 19.7935 7.55285 19.6404L6.71209 20.8826ZM15.0631 22.1213C15.3727 22.0253 15.6766 21.9142 15.974 21.7885L15.3898 20.4069C15.1382 20.5133 14.881 20.6073 14.6191 20.6885C14.3572 20.7696 14.0919 20.8375 13.8242 20.8921L14.1237 22.3619C14.4401 22.2974 14.7536 22.2172 15.0631 22.1213ZM10.2687 22.3696C10.5853 22.4328 10.9055 22.4804 11.228 22.5119C11.5505 22.5434 11.8738 22.5588 12.1966 22.5582L12.1936 21.0582C11.9204 21.0587 11.6469 21.0457 11.374 21.019C11.1011 20.9923 10.8302 20.9521 10.5623 20.8986L10.2687 22.3696ZM12.6833 9.56941V12.3087H15.3551C15.7692 12.3087 16.1049 12.6444 16.1049 13.0585C16.1049 13.4725 15.7692 13.8082 15.3551 13.8082H12.1609C11.6086 13.8082 11.1609 13.3605 11.1609 12.8082V9.56941C11.1609 9.14902 11.5017 8.80822 11.9221 8.80822C12.3425 8.80822 12.6833 9.14902 12.6833 9.56941Z" fill="#F19E0C"/>
</svg>
