<svg width="24" height="24" viewBox="0 0 24 24" fill="none" xmlns="http://www.w3.org/2000/svg">
<path fill-rule="evenodd" clip-rule="evenodd" d="M5.75003 3C4.23125 3 3.00003 4.23122 3.00003 5.75V7.2602C3.00003 7.67441 3.33582 8.0102 3.75003 8.0102C4.16424 8.0102 4.50003 7.67441 4.50003 7.2602V5.75C4.50003 5.05964 5.05967 4.5 5.75003 4.5H7.25796C7.67217 4.5 8.00796 4.16421 8.00796 3.75C8.00796 3.33579 7.67217 3 7.25796 3H5.75003ZM16.7541 3C16.3399 3 16.0041 3.33579 16.0041 3.75C16.0041 4.16421 16.3399 4.5 16.7541 4.5H18.25C18.9404 4.5 19.5 5.05964 19.5 5.75V7.25274C19.5 7.66695 19.8358 8.00274 20.25 8.00274C20.6642 8.00274 21 7.66695 21 7.25274V5.75C21 4.23122 19.7688 3 18.25 3H16.7541ZM4.50003 16.7539C4.50003 16.3397 4.16424 16.0039 3.75003 16.0039C3.33582 16.0039 3.00003 16.3397 3.00003 16.7539V18.25C3.00003 19.7688 4.23125 21 5.75003 21H7.25394C7.66815 21 8.00394 20.6642 8.00394 20.25C8.00394 19.8358 7.66815 19.5 7.25394 19.5H5.75003C5.05967 19.5 4.50003 18.9404 4.50003 18.25V16.7539ZM21 16.7578C21 16.3436 20.6642 16.0078 20.25 16.0078C19.8358 16.0078 19.5 16.3436 19.5 16.7578V18.25C19.5 18.9404 18.9404 19.5 18.25 19.5H16.75C16.3358 19.5 16 19.8358 16 20.25C16 20.6642 16.3358 21 16.75 21H18.25C19.7688 21 21 19.7688 21 18.25V16.7578ZM6.8963 7.75342C6.8963 7.3392 7.23209 7.00342 7.6463 7.00342H10.6463C11.0605 7.00342 11.3963 7.3392 11.3963 7.75342V10.7534C11.3963 11.1676 11.0605 11.5034 10.6463 11.5034H7.6463C7.23209 11.5034 6.8963 11.1676 6.8963 10.7534V7.75342ZM8.3963 8.50342V10.0034H9.8963V8.50342H8.3963ZM12.8963 7.75342C12.8963 7.3392 13.2321 7.00342 13.6463 7.00342H16.6463C17.0605 7.00342 17.3963 7.3392 17.3963 7.75342V10.7534C17.3963 11.1676 17.0605 11.5034 16.6463 11.5034H13.6463C13.2321 11.5034 12.8963 11.1676 12.8963 10.7534V7.75342ZM14.3963 8.50342V10.0034H15.8963V8.50342H14.3963ZM7.6463 13.0034C7.23209 13.0034 6.8963 13.3392 6.8963 13.7534V16.7534C6.8963 17.1676 7.23209 17.5034 7.6463 17.5034H10.6463C11.0605 17.5034 11.3963 17.1676 11.3963 16.7534V13.7534C11.3963 13.3392 11.0605 13.0034 10.6463 13.0034H7.6463ZM8.3963 16.0034V14.5034H9.8963V16.0034H8.3963ZM12.8963 13.7534C12.8963 13.3392 13.2321 13.0034 13.6463 13.0034H16.1463C16.5605 13.0034 16.8963 13.3392 16.8963 13.7534V16.2534C16.8963 16.6676 16.5605 17.0034 16.1463 17.0034H13.6463C13.2321 17.0034 12.8963 16.6676 12.8963 16.2534V13.7534ZM14.3963 14.5034V15.5034H15.3963V14.5034H14.3963Z" fill="#101010"/>
</svg>
