<svg width="25" height="25" viewBox="0 0 25 25" fill="none" xmlns="http://www.w3.org/2000/svg">
<path fill-rule="evenodd" clip-rule="evenodd" d="M19.3555 1.8042C18.9413 1.8042 18.6055 2.13999 18.6055 2.5542V9.24864L15.9967 6.63984C15.7038 6.34694 15.2289 6.34694 14.936 6.63984C14.6431 6.93273 14.6431 7.4076 14.936 7.7005L18.8251 11.5896C19.118 11.8825 19.5929 11.8825 19.8858 11.5896L23.7749 7.7005C24.0678 7.4076 24.0678 6.93273 23.7749 6.63984C23.482 6.34694 23.0071 6.34694 22.7142 6.63984L20.1055 9.24854V2.5542C20.1055 2.13999 19.7697 1.8042 19.3555 1.8042ZM5.60544 8.55884C5.60544 7.86848 6.16508 7.30884 6.85544 7.30884H11.9653C12.3795 7.30884 12.7153 6.97305 12.7153 6.55884C12.7153 6.14462 12.3795 5.80884 11.9653 5.80884H6.85544C5.33666 5.80884 4.10544 7.04006 4.10544 8.55884V19.0588C4.10544 20.5776 5.33666 21.8088 6.85544 21.8088H17.3554C18.8742 21.8088 20.1054 20.5776 20.1054 19.0588V14.5594C20.1054 14.1452 19.7697 13.8094 19.3554 13.8094C18.9412 13.8094 18.6054 14.1452 18.6054 14.5594V19.0588C18.6054 19.7492 18.0458 20.3088 17.3554 20.3088H6.85544C6.16508 20.3088 5.60544 19.7492 5.60544 19.0588V8.55884ZM9.28465 10.0543C9.38301 9.88454 9.56435 9.78003 9.76054 9.78003H14.3621C14.7836 9.78003 15.0485 10.2346 14.8406 10.6013C14.7429 10.7736 14.5602 10.88 14.3621 10.88H12.9971C13.1579 11.1621 13.2271 11.4898 13.2734 11.78H14.3693C14.7892 11.78 15.0542 12.2315 14.8495 12.5981C14.7524 12.7722 14.5686 12.88 14.3693 12.88H13.3189C13.1017 14.1896 11.8215 14.6973 11.0548 14.7985L13.0672 16.9078C13.1256 16.969 13.1672 17.0401 13.192 17.1154L13.2064 17.1305L13.1983 17.136C13.2528 17.3261 13.2026 17.5393 13.0497 17.6854C12.8301 17.8954 12.482 17.8875 12.2721 17.668L10.0261 15.3138L9.53531 14.807L9.5372 14.8013L9.32928 14.5834C9.11937 14.3638 9.12718 14.0157 9.34674 13.8058C9.5043 13.6551 9.72808 13.6166 9.91947 13.688C11.2012 13.8371 11.6922 13.3896 11.8756 12.88H9.85321C9.43108 12.88 9.16631 12.4242 9.37548 12.0575C9.47335 11.8859 9.6557 11.78 9.85321 11.78H11.9103C11.7501 11.2601 11.3558 10.9995 10.9538 10.88H9.76054C9.33677 10.88 9.0722 10.421 9.28465 10.0543Z" fill="#101010"/>
</svg>
