<svg width="25" height="25" viewBox="0 0 25 25" fill="none" xmlns="http://www.w3.org/2000/svg">
<path fill-rule="evenodd" clip-rule="evenodd" d="M14.936 5.90319C14.6431 6.19608 14.6431 6.67096 14.936 6.96385C15.2289 7.25674 15.7038 7.25674 15.9967 6.96385L18.6054 4.3551V11.0597C18.6054 11.4739 18.9412 11.8097 19.3554 11.8097C19.7696 11.8097 20.1054 11.4739 20.1054 11.0597V4.35508L22.7142 6.96385C23.0071 7.25674 23.4819 7.25674 23.7748 6.96385C24.0677 6.67096 24.0677 6.19608 23.7748 5.90319L19.8857 2.0141C19.5929 1.72121 19.118 1.72121 18.8251 2.0141L14.936 5.90319ZM5.60541 8.55901C5.60541 7.86865 6.16505 7.30901 6.85541 7.30901H11.8212C12.2354 7.30901 12.5712 6.97322 12.5712 6.55901C12.5712 6.1448 12.2354 5.80901 11.8212 5.80901H6.85541C5.33662 5.80901 4.10541 7.04023 4.10541 8.55901V19.059C4.10541 20.5778 5.33662 21.809 6.85541 21.809H17.3554C18.8742 21.809 20.1054 20.5778 20.1054 19.059V14.5318C20.1054 14.1176 19.7696 13.7818 19.3554 13.7818C18.9412 13.7818 18.6054 14.1176 18.6054 14.5318V19.059C18.6054 19.7494 18.0458 20.309 17.3554 20.309H6.85541C6.16505 20.309 5.60541 19.7494 5.60541 19.059V8.55901ZM9.35606 10.0542C9.45442 9.88447 9.63576 9.77996 9.83195 9.77996H14.4336C14.855 9.77996 15.1199 10.2346 14.912 10.6012C14.8143 10.7735 14.6316 10.88 14.4336 10.88H13.0685C13.2292 11.162 13.2985 11.4897 13.3448 11.78H14.4407C14.8605 11.78 15.1256 12.2314 14.9209 12.598C14.8238 12.7721 14.64 12.88 14.4407 12.88H13.3902C13.173 14.1895 11.8929 14.6972 11.1262 14.7984L13.1386 16.9078C13.197 16.9689 13.2386 17.0401 13.2634 17.1154L13.2778 17.1305L13.2697 17.1359C13.3242 17.326 13.274 17.5392 13.1211 17.6854C12.9015 17.8953 12.5534 17.8875 12.3435 17.6679L10.0995 15.3158L9.60669 14.807L9.60858 14.8012L9.40069 14.5833C9.19078 14.3638 9.1986 14.0156 9.41815 13.8057C9.57571 13.6551 9.7995 13.6166 9.9909 13.688C11.2725 13.8371 11.7636 13.3896 11.9469 12.88H9.92459C9.50246 12.88 9.23769 12.4241 9.44686 12.0574C9.54473 11.8859 9.72708 11.78 9.92459 11.78H11.9817C11.8215 11.26 11.4272 10.9994 11.0251 10.88H9.83195C9.40819 10.88 9.14361 10.4209 9.35606 10.0542Z" fill="#101010"/>
</svg>
