<svg width="24" height="24" viewBox="0 0 24 24" fill="none" xmlns="http://www.w3.org/2000/svg">
<path fill-rule="evenodd" clip-rule="evenodd" d="M14.8305 5.09502C14.5376 5.38792 14.5376 5.86279 14.8305 6.15568C15.1234 6.44858 15.5983 6.44858 15.8912 6.15568L18.4999 3.54694V10.2516C18.4999 10.6658 18.8357 11.0016 19.2499 11.0016C19.6642 11.0016 19.9999 10.6658 19.9999 10.2516V3.54692L22.6087 6.15568C22.9016 6.44858 23.3765 6.44858 23.6694 6.15568C23.9623 5.86279 23.9623 5.38792 23.6694 5.09502L19.7803 1.20594C19.4874 0.913044 19.0125 0.913044 18.7196 1.20594L14.8305 5.09502ZM5.49994 7.75084C5.49994 7.06049 6.05958 6.50084 6.74994 6.50084H11.7157C12.13 6.50084 12.4657 6.16506 12.4657 5.75084C12.4657 5.33663 12.13 5.00084 11.7157 5.00084H6.74994C5.23116 5.00084 3.99994 6.23206 3.99994 7.75084V18.2508C3.99994 19.7696 5.23116 21.0008 6.74994 21.0008H17.2499C18.7687 21.0008 19.9999 19.7696 19.9999 18.2508V13.7237C19.9999 13.3095 19.6642 12.9737 19.2499 12.9737C18.8357 12.9737 18.4999 13.3095 18.4999 13.7237V18.2508C18.4999 18.9412 17.9403 19.5008 17.2499 19.5008H6.74994C6.05958 19.5008 5.49994 18.9412 5.49994 18.2508V7.75084ZM9.25059 9.24606C9.34895 9.0763 9.53029 8.97179 9.72648 8.97179H14.3281C14.7496 8.97179 15.0144 9.4264 14.8065 9.79305C14.7089 9.96533 14.5261 10.0718 14.3281 10.0718H12.963C13.1238 10.3538 13.193 10.6816 13.2393 10.9718H14.3352C14.7551 10.9718 15.0201 11.4233 14.8154 11.7899C14.7183 11.9639 14.5345 12.0718 14.3352 12.0718H13.2848C13.0676 13.3813 11.7875 13.889 11.0207 13.9902L13.0331 16.0996C13.0916 16.1607 13.1332 16.2319 13.158 16.3073L13.1724 16.3223L13.1643 16.3277C13.2187 16.5179 13.1685 16.731 13.0156 16.8772C12.7961 17.0871 12.4479 17.0793 12.238 16.8597L9.99402 14.5076L9.50122 13.9988L9.50312 13.9931L9.29522 13.7752C9.08531 13.5556 9.09313 13.2074 9.31268 12.9975C9.47025 12.8469 9.69403 12.8084 9.88543 12.8798C11.1671 13.0289 11.6581 12.5814 11.8415 12.0718H9.81912C9.39699 12.0718 9.13222 11.6159 9.3414 11.2493C9.43927 11.0777 9.62161 10.9718 9.81912 10.9718H11.8762C11.716 10.4518 11.3217 10.1913 10.9197 10.0718H9.72648C9.30272 10.0718 9.03814 9.61272 9.25059 9.24606Z" fill="#101010"/>
</svg>
