<svg width="25" height="25" viewBox="0 0 25 25" fill="none" xmlns="http://www.w3.org/2000/svg">
<path fill-rule="evenodd" clip-rule="evenodd" d="M5.60547 5.56567C5.60547 4.87532 6.16511 4.31567 6.85547 4.31567H13.3759C13.7901 4.31567 14.1259 3.97989 14.1259 3.56567C14.1259 3.15146 13.7901 2.81567 13.3759 2.81567H6.85547C5.33669 2.81567 4.10547 4.04689 4.10547 5.56567V7.05811H2.85492C2.44071 7.05811 2.10492 7.39389 2.10492 7.80811C2.10492 8.22232 2.44071 8.55811 2.85492 8.55811H4.10547V12.0581H2.85492C2.44071 12.0581 2.10492 12.3939 2.10492 12.8081C2.10492 13.2223 2.44071 13.5581 2.85492 13.5581H4.10547V17.0581H2.85492C2.44071 17.0581 2.10492 17.3939 2.10492 17.8081C2.10492 18.2223 2.44071 18.5581 2.85492 18.5581H4.10547V20.2085C4.10547 21.7273 5.33669 22.9585 6.85547 22.9585H17.3555C18.8743 22.9585 20.1055 21.7273 20.1055 20.2085V15.5544C20.1055 15.1402 19.7697 14.8044 19.3555 14.8044C18.9413 14.8044 18.6055 15.1402 18.6055 15.5544V20.2085C18.6055 20.8989 18.0458 21.4585 17.3555 21.4585H6.85547C6.16511 21.4585 5.60547 20.8989 5.60547 20.2085V5.56567ZM18.6023 12.0398V5.37959L15.9967 7.98516C15.7038 8.27806 15.2289 8.27806 14.9361 7.98516C14.6432 7.69227 14.6432 7.2174 14.9361 6.9245L18.8251 3.03542C19.118 2.74252 19.5929 2.74252 19.8858 3.03542L23.7749 6.9245C24.0678 7.2174 24.0678 7.69227 23.7749 7.98516C23.482 8.27806 23.0071 8.27806 22.7142 7.98516L20.1023 5.37323V12.0398C20.1023 12.454 19.7665 12.7898 19.3523 12.7898C18.9381 12.7898 18.6023 12.454 18.6023 12.0398ZM14.1055 10.7954C14.1055 11.9 13.21 12.7954 12.1055 12.7954C11.0009 12.7954 10.1055 11.9 10.1055 10.7954C10.1055 9.69084 11.0009 8.79541 12.1055 8.79541C13.21 8.79541 14.1055 9.69084 14.1055 10.7954ZM11.3055 13.8237C9.53816 13.8237 8.10547 15.2564 8.10547 17.0237C8.10547 17.4656 8.46364 17.8237 8.90547 17.8237H15.3055C15.7473 17.8237 16.1055 17.4656 16.1055 17.0237C16.1055 15.2564 14.6728 13.8237 12.9055 13.8237H11.3055Z" fill="#101010"/>
</svg>
