<svg width="25" height="25" viewBox="0 0 25 25" fill="none" xmlns="http://www.w3.org/2000/svg">
<path fill-rule="evenodd" clip-rule="evenodd" d="M3.14099 6.55811C3.14099 5.03932 4.37221 3.80811 5.89099 3.80811H18.391C19.9098 3.80811 21.141 5.03932 21.141 6.55811V19.0581C21.141 20.5769 19.9098 21.8081 18.391 21.8081H5.89099C4.37221 21.8081 3.14099 20.5769 3.14099 19.0581V6.55811ZM5.89099 5.30811C5.20064 5.30811 4.64099 5.86775 4.64099 6.55811V19.0581C4.64099 19.7485 5.20064 20.3081 5.89099 20.3081H18.391C19.0813 20.3081 19.641 19.7485 19.641 19.0581V6.55811C19.641 5.86775 19.0813 5.30811 18.391 5.30811H5.89099Z" fill="#101010"/>
<path d="M10.301 17.8081L13.136 7.80811L15.766 12.7931L10.301 17.8081Z" fill="#028C3C"/>
<path d="M8.51598 17.8081L11.351 7.80811L13.981 12.7931L8.51598 17.8081Z" fill="#FE7A09"/>
</svg>
