<svg width="24" height="24" viewBox="0 0 24 24" fill="none" xmlns="http://www.w3.org/2000/svg">
<path fill-rule="evenodd" clip-rule="evenodd" d="M11.7437 2.4143C11.9093 2.35409 12.0907 2.35409 12.2563 2.4143L20.5063 5.4143C20.8027 5.52207 21 5.80376 21 6.11914V9C21 9.41421 20.6642 9.75 20.25 9.75H19.0226V17H20.25C20.6642 17 21 17.3358 21 17.75V21.25C21 21.6642 20.6642 22 20.25 22H3.75C3.33579 22 3 21.6642 3 21.25V17.75C3 17.3358 3.33579 17 3.75 17H4.9993V9.75H3.75C3.33579 9.75 3 9.41421 3 9V6.11914C3 5.80376 3.1973 5.52207 3.49369 5.4143L11.7437 2.4143ZM6.4993 9.75V17H11.271V9.75H6.4993ZM12.771 9.75V17H17.5226V9.75H12.771ZM4.5 6.64446V8.25H19.5V6.64446L12 3.91719L4.5 6.64446ZM4.5 18.5V20.5H19.5V18.5H4.5Z" fill="#101010"/>
</svg>
