<svg width="25" height="25" viewBox="0 0 25 25" fill="none" xmlns="http://www.w3.org/2000/svg">
<path fill-rule="evenodd" clip-rule="evenodd" d="M5.85547 3.80811C4.33669 3.80811 3.10547 5.03932 3.10547 6.55811V19.0581C3.10547 20.5769 4.33669 21.8081 5.85547 21.8081H16.1093V20.3081H5.85547C5.16511 20.3081 4.60547 19.7485 4.60547 19.0581V6.55811C4.60547 5.86775 5.16511 5.30811 5.85547 5.30811H18.3555C19.0458 5.30811 19.6055 5.86775 19.6055 6.55811V10.8147H21.1055V6.55811C21.1055 5.03932 19.8743 3.80811 18.3555 3.80811H5.85547ZM18.494 15.8539C18.494 15.1564 19.0608 14.5891 19.744 14.5891H19.9343C20.5258 14.5891 21.0054 15.0687 21.0054 15.6602C21.0054 15.9976 20.8464 16.3153 20.5764 16.5175L19.9419 16.9928C19.2485 17.512 18.8404 18.3276 18.8404 19.1938V20.0468H20.3404V19.1938C20.3404 18.8001 20.5259 18.4294 20.8411 18.1933L21.4756 17.7181C22.1238 17.2326 22.5054 16.4701 22.5054 15.6602C22.5054 14.2402 21.3543 13.0891 19.9343 13.0891H19.744C18.218 13.0891 16.994 14.3424 16.994 15.8539H18.494ZM20.5298 22.0978C20.5298 22.5948 20.1269 22.9978 19.6298 22.9978C19.1327 22.9978 18.7298 22.5948 18.7298 22.0978C18.7298 21.6007 19.1327 21.1978 19.6298 21.1978C20.1269 21.1978 20.5298 21.6007 20.5298 22.0978ZM14.4876 9.90811H12.7896C12.9691 10.1491 13.0814 10.4272 13.1561 10.6917H15.0533L14.4876 11.7917H13.2574C13.0734 13.206 11.6693 13.7248 10.8988 13.804L13.7285 16.8082H12.1628L9.48709 13.9188V12.6543C11.1656 12.8018 11.6812 12.3204 11.839 11.7917H9.15768L9.73576 10.6917H11.7948C11.5995 10.2499 11.1907 10.0109 10.7949 9.90811H9.15762L9.7357 8.80811H15.0532L14.4876 9.90811Z" fill="#101010"/>
</svg>
