<svg width="25" height="25" viewBox="0 0 25 25" fill="none" xmlns="http://www.w3.org/2000/svg">
<path fill-rule="evenodd" clip-rule="evenodd" d="M10.3974 4.77372C12.1714 4.38399 14.0243 4.59054 15.6689 5.36133C17.0877 6.02627 18.2829 7.07906 19.1207 8.39104L16.9532 8.00885L16.6927 9.48606L21.3706 10.3109L22.1954 5.63305L20.7182 5.37258L20.3405 7.51471C19.3527 5.99626 17.9573 4.77727 16.3055 4.00311C14.3619 3.09218 12.172 2.84807 10.0756 3.30866C7.97911 3.76925 6.09322 4.90879 4.71045 6.55051C3.32767 8.19224 2.5253 10.2444 2.4278 12.3886L3.92625 12.4568C3.93207 12.3288 3.94086 12.2011 3.95258 12.074L3.95968 12.0746C3.98397 11.8025 4.0218 11.5313 4.07319 11.262L4.06858 11.2611C4.33494 9.88742 4.94783 8.59711 5.85772 7.51683C7.02776 6.12767 8.62351 5.16345 10.3974 4.77372ZM2.48591 13.8782C2.52135 14.1991 2.57276 14.5186 2.64015 14.8356C2.70753 15.1526 2.79055 15.4654 2.88872 15.7729L4.31769 15.3168C4.23462 15.0566 4.16437 14.7919 4.10736 14.5237C4.05034 14.2555 4.00683 13.9851 3.97685 13.7136L2.48591 13.8782ZM21.6345 15.1786C21.713 14.8654 21.776 14.548 21.8232 14.2274L20.3391 14.009C20.2992 14.2803 20.2459 14.5489 20.1795 14.8139L21.6345 15.1786ZM20.5191 17.8551C20.6868 17.5778 20.8403 17.2929 20.9792 17.0014L19.625 16.3563C19.5075 16.6029 19.3776 16.844 19.2357 17.0786C19.0938 17.3132 18.9405 17.5402 18.7766 17.7587L19.9765 18.6588C20.1702 18.4005 20.3514 18.1323 20.5191 17.8551ZM3.65815 17.5506C3.81519 17.8327 3.98643 18.1073 4.1714 18.3734C4.35636 18.6395 4.55413 18.8957 4.76383 19.1411L5.90432 18.1668C5.72688 17.9591 5.55954 17.7424 5.40303 17.5172C5.24652 17.2921 5.10162 17.0597 4.96875 16.821L3.65815 17.5506ZM17.9109 20.6938C18.173 20.5033 18.425 20.3001 18.6659 20.0852L17.6676 18.9657C17.4637 19.1475 17.2506 19.3194 17.0288 19.4806C16.807 19.6419 16.5778 19.7917 16.342 19.9296L17.0992 21.2244C17.3779 21.0614 17.6489 20.8844 17.9109 20.6938ZM6.16212 20.4817C6.41622 20.6809 6.68051 20.8676 6.95415 21.0412C7.22778 21.2148 7.50938 21.3743 7.79783 21.5193L8.47155 20.1791C8.22748 20.0564 7.9892 19.9215 7.75766 19.7746C7.52612 19.6277 7.30249 19.4697 7.08749 19.3011L6.16212 20.4817ZM14.4064 22.2998C14.7219 22.2257 15.0329 22.1361 15.3383 22.0314L14.8519 20.6124C14.5935 20.701 14.3304 20.7768 14.0634 20.8395C13.7965 20.9022 13.5271 20.9515 13.2563 20.9872L13.4525 22.4743C13.7726 22.4321 14.091 22.3739 14.4064 22.2998ZM9.60639 22.2131C9.91782 22.2983 10.2338 22.368 10.5534 22.422C10.8729 22.4759 11.1943 22.5138 11.5164 22.5357L11.618 21.0392C11.3455 21.0206 11.0735 20.9886 10.8032 20.9429C10.5328 20.8973 10.2654 20.8382 10.0019 20.7662L9.60639 22.2131ZM12.6408 8.80822V12.2798H16.1055V13.8082H11.1055V8.80822H12.6408Z" fill="#F19E0C"/>
</svg>
