<svg width="25" height="25" viewBox="0 0 25 25" fill="none" xmlns="http://www.w3.org/2000/svg">
<path fill-rule="evenodd" clip-rule="evenodd" d="M5.8555 3.80811C4.33672 3.80811 3.1055 5.03932 3.1055 6.55811V8.81831H4.6055V6.55811C4.6055 5.86775 5.16514 5.30811 5.8555 5.30811H8.11343V3.80811H5.8555ZM18.3555 3.80811H16.1095V5.30811H18.3555C19.0459 5.30811 19.6055 5.86775 19.6055 6.55811V8.81084H21.1055V6.55811C21.1055 5.03932 19.8743 3.80811 18.3555 3.80811ZM4.6055 19.0581V16.812H3.1055V19.0581C3.1055 20.5769 4.33672 21.8081 5.8555 21.8081H8.10941V20.3081H5.8555C5.16514 20.3081 4.6055 19.7485 4.6055 19.0581ZM21.1055 19.0581V16.8159H19.6055V19.0581C19.6055 19.7485 19.0459 20.3081 18.3555 20.3081H16.1055V21.8081H18.3555C19.8743 21.8081 21.1055 20.5769 21.1055 19.0581ZM7.00177 8.56152C7.00177 8.14731 7.33756 7.81152 7.75177 7.81152H10.7518C11.166 7.81152 11.5018 8.14731 11.5018 8.56152V11.5615C11.5018 11.9757 11.166 12.3115 10.7518 12.3115H7.75177C7.33756 12.3115 7.00177 11.9757 7.00177 11.5615V8.56152ZM8.50177 9.31152V10.8115H10.0018V9.31152H8.50177ZM13.0018 8.56152C13.0018 8.14731 13.3376 7.81152 13.7518 7.81152H16.7518C17.166 7.81152 17.5018 8.14731 17.5018 8.56152V11.5615C17.5018 11.9757 17.166 12.3115 16.7518 12.3115H13.7518C13.3376 12.3115 13.0018 11.9757 13.0018 11.5615V8.56152ZM14.5018 9.31152V10.8115H16.0018V9.31152H14.5018ZM7.75177 13.8115C7.33756 13.8115 7.00177 14.1473 7.00177 14.5615V17.5615C7.00177 17.9757 7.33756 18.3115 7.75177 18.3115H10.7518C11.166 18.3115 11.5018 17.9757 11.5018 17.5615V14.5615C11.5018 14.1473 11.166 13.8115 10.7518 13.8115H7.75177ZM8.50177 16.8115V15.3115H10.0018V16.8115H8.50177ZM13.0018 14.5615C13.0018 14.1473 13.3376 13.8115 13.7518 13.8115H16.2518C16.666 13.8115 17.0018 14.1473 17.0018 14.5615V17.0615C17.0018 17.4757 16.666 17.8115 16.2518 17.8115H13.7518C13.3376 17.8115 13.0018 17.4757 13.0018 17.0615V14.5615ZM14.5018 15.3115V16.3115H15.5018V15.3115H14.5018Z" fill="#101010"/>
</svg>
