<svg width="25" height="25" viewBox="0 0 25 25" fill="none" xmlns="http://www.w3.org/2000/svg">
<path fill-rule="evenodd" clip-rule="evenodd" d="M20.1055 9.24873L22.7142 6.64002L23.7749 7.70068L19.8858 11.5898C19.5929 11.8827 19.118 11.8827 18.8251 11.5898L14.936 7.70068L15.9967 6.64002L18.6055 9.24883V1.8042H20.1055V9.24873ZM5.60544 8.55884C5.60544 7.86848 6.16508 7.30884 6.85544 7.30884H13.1192V5.80884H6.85544C5.33666 5.80884 4.10544 7.04006 4.10544 8.55884V19.0588C4.10544 20.5776 5.33666 21.8088 6.85544 21.8088H17.3554C18.8742 21.8088 20.1054 20.5776 20.1054 19.0588V13.8088H18.6054V19.0588C18.6054 19.7492 18.0458 20.3088 17.3554 20.3088H6.85544C6.16508 20.3088 5.60544 19.7492 5.60544 19.0588V8.55884ZM15.585 9.95947H10.2676L9.68948 11.0595H11.2695C11.7134 11.1151 12.1878 11.3013 12.3685 11.8081H10.2676L9.68948 12.9081H12.3295C12.1302 13.3882 11.573 13.7908 10.019 13.6541V14.9187L12.6947 17.8081H14.3639L11.4937 14.7998C12.2426 14.7228 13.5942 14.2335 13.8394 12.9081H15.0194L15.585 11.8081H13.7932C13.7391 11.5624 13.6601 11.2988 13.5223 11.0595H15.0194L15.585 9.95947Z" fill="#101010"/>
</svg>
