<svg width="25" height="25" viewBox="0 0 25 25" fill="none" xmlns="http://www.w3.org/2000/svg">
<path fill-rule="evenodd" clip-rule="evenodd" d="M12.1055 4.55811C10.8628 4.55811 9.85546 5.56546 9.85546 6.80811C9.85546 8.05075 10.8628 9.05811 12.1055 9.05811C13.3481 9.05811 14.3555 8.05075 14.3555 6.80811C14.3555 5.56546 13.3481 4.55811 12.1055 4.55811ZM8.35546 6.80811C8.35546 4.73704 10.0344 3.05811 12.1055 3.05811C14.1765 3.05811 15.8555 4.73704 15.8555 6.80811C15.8555 8.87917 14.1765 10.5581 12.1055 10.5581C10.0344 10.5581 8.35546 8.87917 8.35546 6.80811ZM5.05711 15.299L2.64568 16.3307L2.05563 14.9517L6.65254 12.9848C7.03336 12.8219 7.47417 12.9985 7.6371 13.3793L9.60393 17.9763L8.22486 18.5663L6.83757 15.3239C6.30898 15.9929 5.93788 16.7975 5.78493 17.6866L5.61622 18.6674C5.3797 20.0423 6.43853 21.2988 7.83364 21.2988H16.4117C17.839 21.2988 18.9056 19.987 18.6144 18.5898L18.3884 17.5055C17.8811 15.0712 15.7355 13.3267 13.2488 13.3267H10.9589C10.5789 13.3267 10.207 13.3674 9.84795 13.4449L9.26285 12.0423C9.80651 11.9013 10.3752 11.8267 10.9589 11.8267H13.2488C16.446 11.8267 19.2046 14.0696 19.8569 17.1995L20.0828 18.2837C20.5682 20.6125 18.7905 22.7988 16.4117 22.7988H7.83364C5.50846 22.7988 3.74373 20.7046 4.13793 18.4131L4.30664 17.4323C4.43851 16.6657 4.69651 15.948 5.05711 15.299Z" fill="#101010"/>
</svg>
