<svg width="25" height="25" viewBox="0 0 25 25" fill="none" xmlns="http://www.w3.org/2000/svg">
<path fill-rule="evenodd" clip-rule="evenodd" d="M18.6054 4.35511L15.9967 6.96385L14.936 5.90319L18.8251 2.0141C19.118 1.72121 19.5929 1.72121 19.8858 2.0141L23.7748 5.90319L22.7142 6.96385L20.1054 4.35508V11.8097H18.6054V4.35511ZM5.60541 8.55895C5.60541 7.8686 6.16505 7.30895 6.85541 7.30895H13.1192V5.80895H6.85541C5.33662 5.80895 4.10541 7.04017 4.10541 8.55895V19.059C4.10541 20.5777 5.33662 21.809 6.85541 21.809H17.3554C18.8742 21.809 20.1054 20.5777 20.1054 19.059V13.809H18.6054V19.059C18.6054 19.7493 18.0458 20.309 17.3554 20.309H6.85541C6.16505 20.309 5.60541 19.7493 5.60541 19.059V8.55895ZM15.585 9.95959H10.2675L9.68945 11.0596H11.2695C11.7134 11.1153 12.1878 11.3014 12.3685 11.8082H10.2675L9.68945 12.9082H12.3295C12.1302 13.3883 11.573 13.7909 10.0189 13.6543V14.9188L12.6946 17.8082H14.3639L11.4936 14.7999C12.2426 14.7229 13.5942 14.2336 13.8394 12.9082H15.0194L15.585 11.8082H13.7932C13.7391 11.5625 13.66 11.2989 13.5222 11.0596H15.0194L15.585 9.95959Z" fill="#101010"/>
</svg>
