<svg width="24" height="24" viewBox="0 0 24 24" fill="none" xmlns="http://www.w3.org/2000/svg">
<path fill-rule="evenodd" clip-rule="evenodd" d="M18.4999 3.547L15.8912 6.15575L14.8305 5.09509L18.7196 1.206C19.0125 0.913105 19.4874 0.913105 19.7803 1.206L23.6694 5.09509L22.6087 6.15575L19.9999 3.54697V11.0016H18.4999V3.547ZM5.49994 7.75085C5.49994 7.06049 6.05958 6.50085 6.74994 6.50085H13.0137V5.00085H6.74994C5.23116 5.00085 3.99994 6.23206 3.99994 7.75085V18.2508C3.99994 19.7696 5.23116 21.0008 6.74994 21.0008H17.2499C18.7687 21.0008 19.9999 19.7696 19.9999 18.2508V13.0008H18.4999V18.2508C18.4999 18.9412 17.9403 19.5008 17.2499 19.5008H6.74994C6.05958 19.5008 5.49994 18.9412 5.49994 18.2508V7.75085ZM15.4795 9.15148H10.1621L9.58398 10.2515H11.164C11.6079 10.3071 12.0823 10.4933 12.263 11.0001H10.1621L9.58398 12.1001H12.224C12.0247 12.5802 11.4675 12.9828 9.91345 12.8462V14.1107L12.5892 17.0001H14.2585L11.3882 13.9918C12.1371 13.9148 13.4887 13.4255 13.7339 12.1001H14.9139L15.4795 11.0001H13.6877C13.6336 10.7544 13.5546 10.4908 13.4168 10.2515H14.9139L15.4795 9.15148Z" fill="#101010"/>
</svg>
