<svg width="25" height="25" viewBox="0 0 25 25" fill="none" xmlns="http://www.w3.org/2000/svg">
<path fill-rule="evenodd" clip-rule="evenodd" d="M15.6358 8.05178L18.6023 5.08528V12.7897H20.1023V5.09365L23.0604 8.05178L24.1211 6.99112L19.8784 2.74848C19.5855 2.45559 19.1107 2.45559 18.8178 2.74848L14.5751 6.99112L15.6358 8.05178ZM5.60547 5.56558C5.60547 4.87522 6.16511 4.31558 6.85547 4.31558H14.1171V2.81558H6.85547C5.33669 2.81558 4.10547 4.0468 4.10547 5.56558V7.05753H2.10547V8.55753H4.10547V12.0575H2.10547V13.5575H4.10547V17.0575H2.10547V18.5575H4.10547V20.2084C4.10547 21.7272 5.33669 22.9584 6.85547 22.9584H17.3555C18.8743 22.9584 20.1055 21.7272 20.1055 20.2084V14.8118H18.6055V20.2084C18.6055 20.8988 18.0458 21.4584 17.3555 21.4584H6.85547C6.16511 21.4584 5.60547 20.8988 5.60547 20.2084V5.56558ZM14.1055 10.7953C14.1055 11.8999 13.21 12.7953 12.1055 12.7953C11.0009 12.7953 10.1055 11.8999 10.1055 10.7953C10.1055 9.69075 11.0009 8.79532 12.1055 8.79532C13.21 8.79532 14.1055 9.69075 14.1055 10.7953ZM11.3055 13.8236C9.53816 13.8236 8.10547 15.2563 8.10547 17.0236C8.10547 17.4655 8.46364 17.8236 8.90547 17.8236H15.3055C15.7473 17.8236 16.1055 17.4655 16.1055 17.0236C16.1055 15.2563 14.6728 13.8236 12.9055 13.8236H11.3055Z" fill="#101010"/>
</svg>
