<svg width="24" height="24" viewBox="0 0 24 24" fill="none" xmlns="http://www.w3.org/2000/svg">
<path fill-rule="evenodd" clip-rule="evenodd" d="M6.75003 2.01782C5.23125 2.01782 4.00003 3.24903 4.00003 4.76782V6.24951H2V7.74951H4.00003V11.2495H2V12.7495H4.00003V16.2495H2V17.7495H4.00003V19.4107C4.00003 20.9295 5.23125 22.1607 6.75003 22.1607H17.25C18.7688 22.1607 20 20.9295 20 19.4107V4.76782C20 3.24904 18.7688 2.01782 17.25 2.01782H6.75003ZM5.50003 4.76782C5.50003 4.07746 6.05967 3.51782 6.75003 3.51782H17.25C17.9404 3.51782 18.5 4.07747 18.5 4.76782V19.4107C18.5 20.101 17.9404 20.6607 17.25 20.6607H6.75003C6.05967 20.6607 5.50003 20.101 5.50003 19.4107V4.76782ZM14.4281 7.12123H12.9022C13.0426 7.36519 13.1232 7.6338 13.1783 7.88428H15.0047L14.4281 9.00551H13.2253C12.9753 10.3564 11.5977 10.8551 10.8343 10.9336L13.76 13.9999H12.0585L9.33112 11.0548V9.76582C10.9151 9.90507 11.483 9.49479 11.6862 9.00551H8.9953L9.58454 7.88428H11.7261C11.5421 7.36813 11.0594 7.17819 10.6072 7.12123H8.9953L9.58454 6H15.0047L14.4281 7.12123ZM9 18.0034H15V16.5034H9V18.0034Z" fill="#101010"/>
</svg>
