<svg width="24" height="25" viewBox="0 0 24 25" fill="none" xmlns="http://www.w3.org/2000/svg">
<path fill-rule="evenodd" clip-rule="evenodd" d="M10.2366 4.3748C12.0105 3.98507 13.8635 4.19162 15.508 4.96241C16.9267 5.62734 18.1219 6.6801 18.9598 7.99204L16.7924 7.60987C16.3844 7.53794 15.9955 7.81031 15.9235 8.21824C15.8516 8.62616 16.124 9.01515 16.5319 9.08708L20.4711 9.78167C20.8791 9.8536 21.268 9.58122 21.34 9.1733L22.0346 5.23407C22.1065 4.82615 21.8341 4.43715 21.4262 4.36523C21.0183 4.2933 20.6293 4.56568 20.5574 4.9736L20.1796 7.11584C19.1918 5.59736 17.7964 4.37835 16.1446 3.60419C14.201 2.69325 12.0112 2.44915 9.91468 2.90974C7.81822 3.37033 5.93233 4.50986 4.54956 6.15159C3.16678 7.79331 2.36441 9.84546 2.2669 11.9897C2.24809 12.4035 2.56827 12.7542 2.98206 12.773C3.39584 12.7918 3.74654 12.4716 3.76535 12.0579C3.76742 12.0123 3.76987 11.9668 3.77269 11.9214C3.77941 11.8955 3.78384 11.8687 3.78574 11.8411C3.78758 11.8144 3.78698 11.788 3.78412 11.7622C3.92325 10.0554 4.5905 8.43141 5.69683 7.1179C6.86687 5.72875 8.46262 4.76453 10.2366 4.3748ZM2.58566 14.8848C2.60428 14.9557 2.62371 15.0265 2.64395 15.0971C2.66419 15.1676 2.68521 15.238 2.70702 15.308C2.83016 15.7035 3.26929 15.8906 3.65414 15.7374C4.03899 15.5843 4.22326 15.1488 4.10566 14.7516C4.09895 14.729 4.09234 14.7063 4.08583 14.6836C4.07931 14.6608 4.07289 14.6381 4.06658 14.6153C3.95581 14.2162 3.56875 13.9446 3.16122 14.0187C2.75368 14.0927 2.48049 14.4842 2.58566 14.8848ZM20.7883 16.6651C20.9691 16.2924 20.7769 15.8555 20.3915 15.7038C20.006 15.5522 19.5736 15.7437 19.3876 16.1138C19.377 16.1349 19.3663 16.156 19.3555 16.177C19.3448 16.198 19.3339 16.219 19.3229 16.2399C19.1306 16.6068 19.227 17.0697 19.5749 17.2945C19.9227 17.5194 20.3898 17.4209 20.5872 17.0567C20.6222 16.9922 20.6565 16.9274 20.69 16.862C20.7235 16.7967 20.7563 16.7311 20.7883 16.6651ZM4.28225 18.3464C4.32691 18.4045 4.37224 18.4622 4.41825 18.5195C4.46426 18.5767 4.5109 18.6333 4.55814 18.6894C4.82494 19.0063 5.30227 19.0086 5.59768 18.7182C5.89308 18.4279 5.89417 17.955 5.63182 17.6345C5.61686 17.6162 5.60197 17.5978 5.58716 17.5794C5.57235 17.561 5.55762 17.5425 5.54298 17.524C5.28618 17.199 4.82409 17.0986 4.47712 17.3249C4.13014 17.5511 4.03002 18.0178 4.28225 18.3464ZM18.4532 19.7323C18.7643 19.4589 18.7565 18.9816 18.4599 18.6924C18.1633 18.4032 17.6906 18.4122 17.3757 18.6813C17.3577 18.6966 17.3397 18.7119 17.3216 18.7271C17.3035 18.7423 17.2853 18.7574 17.2671 18.7724C16.9476 19.0361 16.8571 19.5002 17.0906 19.8423C17.3242 20.1844 17.7929 20.2746 18.116 20.0154C18.1733 19.9696 18.23 19.923 18.2862 19.8758C18.3424 19.8286 18.3981 19.7808 18.4532 19.7323ZM7.18786 20.8798C7.25157 20.9161 7.31573 20.9517 7.38032 20.9867C7.44491 21.0216 7.50986 21.0557 7.57515 21.0891C7.9439 21.2778 8.38483 21.0949 8.5446 20.7128C8.70437 20.3306 8.52211 19.8943 8.15603 19.7005C8.13515 19.6894 8.11432 19.6783 8.09353 19.6671C8.07274 19.6558 8.052 19.6445 8.03131 19.6331C7.66862 19.433 7.20375 19.5196 6.97158 19.8626C6.73941 20.2056 6.828 20.6747 7.18786 20.8798ZM15.1118 21.6548C15.5045 21.5233 15.6823 21.0803 15.521 20.6988C15.3597 20.3173 14.9204 20.1423 14.5258 20.2683C14.5033 20.2755 14.4808 20.2826 14.4582 20.2895C14.4356 20.2965 14.4131 20.3034 14.3904 20.3102C13.9937 20.4294 13.7304 20.8222 13.8131 21.2281C13.8958 21.6339 14.2929 21.8988 14.6912 21.7851C14.7618 21.765 14.8321 21.7441 14.9022 21.7223C14.9724 21.7006 15.0422 21.6781 15.1118 21.6548ZM10.8483 22.0891C10.9211 22.0979 10.994 22.1058 11.0671 22.113C11.1402 22.1201 11.2133 22.1264 11.2864 22.1319C11.6995 22.1629 12.0351 21.8235 12.0342 21.4092C12.0334 20.995 11.6963 20.6635 11.2837 20.6267L11.2445 20.6231L11.2131 20.6201C11.1896 20.6178 11.1661 20.6154 11.1426 20.6129C10.7307 20.569 10.3357 20.829 10.2546 21.2352C10.1736 21.6414 10.437 22.0395 10.8483 22.0891ZM12.5224 9.17049V11.9098H15.1942C15.6083 11.9098 15.944 12.2455 15.944 12.6595C15.944 13.0736 15.6083 13.4093 15.1942 13.4093H12C11.4477 13.4093 11 12.9616 11 12.4093V9.17049C11 8.75009 11.3408 8.4093 11.7612 8.4093C12.1816 8.4093 12.5224 8.75009 12.5224 9.17049Z" fill="#F19E0C"/>
</svg>
