<svg width="24" height="24" viewBox="0 0 24 24" fill="none" xmlns="http://www.w3.org/2000/svg">
<path fill-rule="evenodd" clip-rule="evenodd" d="M10.2365 3.9655C12.0105 3.57577 13.8634 3.78232 15.508 4.55311C16.9267 5.21803 18.1219 6.27079 18.9598 7.58274L16.7924 7.20056C16.3844 7.12864 15.9954 7.40101 15.9235 7.80893C15.8516 8.21685 16.124 8.60585 16.5319 8.67778L20.4711 9.37237C20.879 9.4443 21.268 9.17192 21.34 8.764L22.0346 4.82477C22.1065 4.41685 21.8341 4.02785 21.4262 3.95593C21.0183 3.884 20.6293 4.15637 20.5573 4.5643L20.1796 6.70654C19.1918 5.18806 17.7964 3.96905 16.1446 3.19488C14.201 2.28395 12.0111 2.03985 9.91468 2.50044C7.81821 2.96102 5.93232 4.10056 4.54955 5.74228C3.16677 7.38401 2.3644 9.43616 2.26689 11.5804C2.24808 11.9942 2.56826 12.3449 2.98205 12.3637C3.39584 12.3825 3.74653 12.0623 3.76535 11.6485C3.76742 11.603 3.76986 11.5575 3.77268 11.5121C3.7794 11.4862 3.78383 11.4594 3.78573 11.4318C3.78757 11.4051 3.78697 11.3787 3.78411 11.3529C3.92325 9.64611 4.59049 8.02211 5.69682 6.7086C6.86686 5.31945 8.46261 4.35522 10.2365 3.9655ZM2.58565 14.4755C2.60427 14.5464 2.6237 14.6172 2.64394 14.6878C2.66418 14.7583 2.6852 14.8287 2.70701 14.8987C2.83016 15.2942 3.26928 15.4813 3.65413 15.3281C4.03898 15.175 4.22325 14.7395 4.10565 14.3423C4.09894 14.3197 4.09233 14.297 4.08582 14.2743C4.0793 14.2515 4.07289 14.2288 4.06657 14.206C3.95581 13.8069 3.56875 13.5353 3.16121 13.6094C2.75367 13.6834 2.48048 14.0749 2.58565 14.4755ZM20.7883 16.2558C20.9691 15.8831 20.7769 15.4462 20.3915 15.2945C20.006 15.1429 19.5736 15.3344 19.3876 15.7045C19.377 15.7256 19.3663 15.7467 19.3555 15.7677C19.3447 15.7887 19.3339 15.8097 19.3229 15.8306C19.1306 16.1975 19.227 16.6604 19.5749 16.8852C19.9227 17.1101 20.3898 17.0115 20.5872 16.6474C20.6222 16.5829 20.6564 16.518 20.69 16.4527C20.7235 16.3874 20.7563 16.3218 20.7883 16.2558ZM4.28224 17.9371C4.3269 17.9952 4.37224 18.0529 4.41825 18.1102C4.46426 18.1674 4.51089 18.224 4.55813 18.2801C4.82493 18.597 5.30227 18.5993 5.59767 18.3089C5.89307 18.0186 5.89416 17.5457 5.63181 17.2252C5.61685 17.2069 5.60196 17.1885 5.58715 17.1701C5.57234 17.1517 5.55762 17.1332 5.54297 17.1147C5.28617 16.7897 4.82408 16.6893 4.47711 16.9156C4.13014 17.1418 4.03001 17.6085 4.28224 17.9371ZM18.4532 19.323C18.7643 19.0496 18.7565 18.5723 18.4599 18.2831C18.1633 17.9939 17.6906 18.0029 17.3757 18.272C17.3577 18.2873 17.3397 18.3026 17.3216 18.3178C17.3035 18.333 17.2853 18.3481 17.2671 18.3631C16.9476 18.6268 16.8571 19.0909 17.0906 19.433C17.3242 19.7751 17.7929 19.8653 18.116 19.6061C18.1732 19.5603 18.23 19.5137 18.2862 19.4665C18.3424 19.4193 18.3981 19.3715 18.4532 19.323ZM7.18785 20.4705C7.25157 20.5068 7.31572 20.5424 7.38031 20.5774C7.4449 20.6123 7.50985 20.6464 7.57514 20.6798C7.94389 20.8685 8.38482 20.6856 8.54459 20.3035C8.70437 19.9213 8.5221 19.485 8.15602 19.2912C8.13514 19.2801 8.11431 19.269 8.09352 19.2578C8.07273 19.2465 8.05199 19.2352 8.03131 19.2238C7.66861 19.0237 7.20374 19.1103 6.97157 19.4533C6.7394 19.7963 6.82799 20.2654 7.18785 20.4705ZM15.1117 21.2455C15.5045 21.114 15.6823 20.671 15.521 20.2895C15.3597 19.908 14.9204 19.733 14.5258 19.859C14.5033 19.8662 14.4808 19.8732 14.4582 19.8802C14.4356 19.8872 14.413 19.8941 14.3904 19.9009C13.9937 20.0201 13.7304 20.4129 13.8131 20.8188C13.8958 21.2246 14.2929 21.4895 14.6912 21.3758C14.7618 21.3557 14.8321 21.3348 14.9022 21.313C14.9724 21.2913 15.0422 21.2688 15.1117 21.2455ZM10.8483 21.6798C10.9211 21.6886 10.994 21.6965 11.0671 21.7037C11.1402 21.7108 11.2133 21.7171 11.2864 21.7226C11.6995 21.7536 12.035 21.4142 12.0342 20.9999C12.0334 20.5857 11.6963 20.2542 11.2837 20.2174C11.2601 20.2153 11.2366 20.2131 11.2131 20.2108C11.1896 20.2085 11.1661 20.2061 11.1426 20.2036C10.7307 20.1597 10.3357 20.4197 10.2546 20.8259C10.1736 21.2321 10.437 21.6302 10.8483 21.6798ZM12.5224 8.76118V11.5005H15.1942C15.6083 11.5005 15.944 11.8362 15.944 12.2502C15.944 12.6643 15.6083 13 15.1942 13H12C11.4477 13 11 12.5523 11 12V8.76118C11 8.34079 11.3408 7.99999 11.7612 7.99999C12.1816 7.99999 12.5224 8.34079 12.5224 8.76118Z" fill="#F19E0C"/>
</svg>
