<svg width="25" height="25" viewBox="0 0 25 25" fill="none" xmlns="http://www.w3.org/2000/svg">
<path fill-rule="evenodd" clip-rule="evenodd" d="M12.1055 3.99829C10.8628 3.99829 9.85547 5.00565 9.85547 6.24829C9.85547 7.49093 10.8628 8.49829 12.1055 8.49829C13.3481 8.49829 14.3555 7.49093 14.3555 6.24829C14.3555 5.00565 13.3481 3.99829 12.1055 3.99829ZM8.35547 6.24829C8.35547 4.17722 10.0344 2.49829 12.1055 2.49829C14.1765 2.49829 15.8555 4.17722 15.8555 6.24829C15.8555 8.31936 14.1765 9.99829 12.1055 9.99829C10.0344 9.99829 8.35547 8.31936 8.35547 6.24829ZM1.81388 15.3597C1.65094 14.9789 1.82757 14.5381 2.20839 14.3751L6.34561 12.605C6.72643 12.4421 7.16723 12.6187 7.33017 12.9995L9.10031 17.1367C9.26325 17.5175 9.08662 17.9583 8.7058 18.1213C8.32498 18.2842 7.88418 18.1076 7.72124 17.7268L6.65061 15.2245L6.30328 15.9507C5.97582 16.6354 5.74448 17.362 5.61581 18.11C5.37951 19.4836 6.43737 20.739 7.8312 20.739H16.4117C17.839 20.739 18.9056 19.4272 18.6144 18.03L18.3884 16.9457C17.8811 14.5114 15.7355 12.7668 13.2489 12.7668H9.86231C9.44809 12.7668 9.11231 12.4311 9.11231 12.0168C9.11231 11.6026 9.44809 11.2668 9.86231 11.2668H13.2489C16.446 11.2668 19.2046 13.5098 19.8569 16.6397L20.0828 17.7239C20.5682 20.0527 18.7905 22.239 16.4117 22.239H7.8312C5.5073 22.239 3.74354 20.1459 4.13752 17.8557C4.28961 16.9716 4.56304 16.1128 4.95009 15.3035L5.23264 14.7127L2.79844 15.7542C2.41762 15.9172 1.97681 15.7405 1.81388 15.3597Z" fill="#101010"/>
</svg>
