<svg width="25" height="25" viewBox="0 0 25 25" fill="none" xmlns="http://www.w3.org/2000/svg">
<path fill-rule="evenodd" clip-rule="evenodd" d="M14.936 5.34338C14.6431 5.63627 14.6431 6.11114 14.936 6.40404C15.2289 6.69693 15.7038 6.69693 15.9967 6.40404L18.6054 3.79529V10.4999C18.6054 10.9141 18.9412 11.2499 19.3554 11.2499C19.7696 11.2499 20.1054 10.9141 20.1054 10.4999V3.79527L22.7142 6.40404C23.0071 6.69693 23.4819 6.69693 23.7748 6.40404C24.0677 6.11114 24.0677 5.63627 23.7748 5.34338L19.8857 1.45429C19.5929 1.1614 19.118 1.1614 18.8251 1.45429L14.936 5.34338ZM4.85541 5.24919C4.44119 5.24919 4.10541 5.58498 4.10541 5.99919V20.4992C4.10541 20.9134 4.44119 21.2492 4.85541 21.2492H19.3554C19.7696 21.2492 20.1054 20.9134 20.1054 20.4992V13.972C20.1054 13.5578 19.7696 13.222 19.3554 13.222C18.9412 13.222 18.6054 13.5578 18.6054 13.972V19.7492H5.60541V6.74919H11.8212C12.2354 6.74919 12.5712 6.41341 12.5712 5.99919C12.5712 5.58498 12.2354 5.24919 11.8212 5.24919H4.85541ZM9.35606 9.49441C9.45442 9.32465 9.63576 9.22014 9.83195 9.22014H14.4336C14.855 9.22014 15.1199 9.67476 14.912 10.0414C14.8143 10.2137 14.6316 10.3201 14.4336 10.3201H13.0685C13.2292 10.6022 13.2985 10.9299 13.3448 11.2201H14.4407C14.8605 11.2201 15.1256 11.6716 14.9209 12.0382C14.8238 12.2123 14.64 12.3201 14.4407 12.3201H13.3902C13.173 13.6297 11.8929 14.1374 11.1262 14.2386L13.1386 16.3479C13.197 16.4091 13.2386 16.4802 13.2634 16.5556L13.2778 16.5706L13.2697 16.5761C13.3242 16.7662 13.274 16.9794 13.1211 17.1256C12.9015 17.3355 12.5534 17.3277 12.3435 17.1081L10.0995 14.756L9.60669 14.2472L9.60858 14.2414L9.40069 14.0235C9.19078 13.804 9.1986 13.4558 9.41815 13.2459C9.57571 13.0953 9.7995 13.0567 9.9909 13.1281C11.2725 13.2772 11.7636 12.8297 11.9469 12.3201H9.92459C9.50246 12.3201 9.23769 11.8643 9.44686 11.4976C9.54473 11.326 9.72708 11.2201 9.92459 11.2201H11.9817C11.8215 10.7002 11.4272 10.4396 11.0251 10.3201H9.83195C9.40819 10.3201 9.14361 9.86108 9.35606 9.49441Z" fill="#101010"/>
</svg>
