<svg width="25" height="25" viewBox="0 0 25 25" fill="none" xmlns="http://www.w3.org/2000/svg">
<path fill-rule="evenodd" clip-rule="evenodd" d="M4.85547 2.25586C4.44125 2.25586 4.10547 2.59165 4.10547 3.00586V6.49829H2.85492C2.44071 6.49829 2.10492 6.83408 2.10492 7.24829C2.10492 7.6625 2.44071 7.99829 2.85492 7.99829H4.10547V11.4983H2.85492C2.44071 11.4983 2.10492 11.8341 2.10492 12.2483C2.10492 12.6625 2.44071 12.9983 2.85492 12.9983H4.10547V16.4983H2.85492C2.44071 16.4983 2.10492 16.8341 2.10492 17.2483C2.10492 17.6625 2.44071 17.9983 2.85492 17.9983H4.10547V21.6487C4.10547 22.0629 4.44125 22.3987 4.85547 22.3987H19.3555C19.7697 22.3987 20.1055 22.0629 20.1055 21.6487V14.9946C20.1055 14.5804 19.7697 14.2446 19.3555 14.2446C18.9413 14.2446 18.6055 14.5804 18.6055 14.9946V20.8987H5.60547V3.75586H13.3759C13.7901 3.75586 14.1259 3.42007 14.1259 3.00586C14.1259 2.59165 13.7901 2.25586 13.3759 2.25586H4.85547ZM18.6023 11.48V4.81977L15.9967 7.42535C15.7038 7.71824 15.2289 7.71824 14.9361 7.42535C14.6432 7.13246 14.6432 6.65758 14.9361 6.36469L18.8251 2.4756C19.118 2.18271 19.5929 2.18271 19.8858 2.4756L23.7749 6.36469C24.0678 6.65758 24.0678 7.13246 23.7749 7.42535C23.482 7.71824 23.0071 7.71824 22.7142 7.42535L20.1023 4.81341V11.48C20.1023 11.8942 19.7665 12.23 19.3523 12.23C18.9381 12.23 18.6023 11.8942 18.6023 11.48ZM14.1055 10.2356C14.1055 11.3402 13.21 12.2356 12.1055 12.2356C11.0009 12.2356 10.1055 11.3402 10.1055 10.2356C10.1055 9.13103 11.0009 8.2356 12.1055 8.2356C13.21 8.2356 14.1055 9.13103 14.1055 10.2356ZM11.3055 13.2639C9.53816 13.2639 8.10547 14.6966 8.10547 16.4639C8.10547 16.9057 8.46364 17.2639 8.90547 17.2639H15.3055C15.7473 17.2639 16.1055 16.9057 16.1055 16.4639C16.1055 14.6966 14.6728 13.2639 12.9055 13.2639H11.3055Z" fill="#101010"/>
</svg>
