<svg width="25" height="25" viewBox="0 0 25 25" fill="none" xmlns="http://www.w3.org/2000/svg">
<path fill-rule="evenodd" clip-rule="evenodd" d="M4.1055 3.01611C4.1055 2.6019 4.44129 2.26611 4.8555 2.26611H19.3555C19.7697 2.26611 20.1055 2.6019 20.1055 3.01611V21.659C20.1055 22.0732 19.7697 22.409 19.3555 22.409H4.8555C4.44129 22.409 4.1055 22.0732 4.1055 21.659V17.9983H2.85544C2.44122 17.9983 2.10544 17.6625 2.10544 17.2483C2.10544 16.8341 2.44122 16.4983 2.85544 16.4983H4.1055V12.9983H2.85544C2.44122 12.9983 2.10544 12.6625 2.10544 12.2483C2.10544 11.8341 2.44122 11.4983 2.85544 11.4983H4.1055V7.99829H2.85544C2.44122 7.99829 2.10544 7.6625 2.10544 7.24829C2.10544 6.83408 2.44122 6.49829 2.85544 6.49829H4.1055V3.01611ZM5.6055 3.76611V20.909H18.6055V3.76611H5.6055ZM12.9973 7.32021H14.3623C14.5603 7.32021 14.7431 7.21375 14.8407 7.04148C15.0486 6.67483 14.7838 6.22021 14.3623 6.22021H9.76069C9.5645 6.22021 9.38316 6.32472 9.2848 6.49448C9.07235 6.86115 9.33693 7.32021 9.76069 7.32021H10.9539C11.3559 7.43969 11.7502 7.70025 11.9105 8.22021H9.85336C9.65585 8.22021 9.47351 8.32612 9.37564 8.49768C9.16646 8.86434 9.43123 9.32021 9.85336 9.32021H11.8757C11.6924 9.82983 11.2013 10.2773 9.91963 10.1282C9.72823 10.0568 9.50445 10.0953 9.34689 10.246C9.12734 10.4559 9.11952 10.804 9.32943 11.0236L9.53735 11.2415L9.53546 11.2472L10.0262 11.754L12.2722 14.1082C12.4821 14.3277 12.8303 14.3355 13.0498 14.1256C13.2027 13.9795 13.2529 13.7663 13.1985 13.5762L13.2066 13.5707L13.1922 13.5556C13.1673 13.4803 13.1258 13.4092 13.0673 13.348L11.0549 11.2387C11.8217 11.1375 13.1018 10.6298 13.319 9.32021H14.3694C14.5688 9.32021 14.7525 9.21236 14.8497 9.0383C15.0543 8.67169 14.7893 8.22021 14.3694 8.22021H13.2736C13.2273 7.92998 13.158 7.60226 12.9973 7.32021ZM9.85545 16.7517C9.44124 16.7517 9.10545 17.0875 9.10545 17.5017C9.10545 17.9159 9.44124 18.2517 9.85545 18.2517H14.3555C14.7697 18.2517 15.1055 17.9159 15.1055 17.5017C15.1055 17.0875 14.7697 16.7517 14.3555 16.7517H9.85545Z" fill="#101010"/>
</svg>
