<svg width="123" height="25" viewBox="0 0 123 25" fill="none" xmlns="http://www.w3.org/2000/svg">
<path fill-rule="evenodd" clip-rule="evenodd" d="M48.2796 18.9784C43.7703 22.3063 37.2328 24.076 31.6029 24.076C23.7132 24.076 16.6081 21.1594 11.2312 16.3045C10.8095 15.9229 11.1856 15.4023 11.693 15.6975C17.4936 19.0731 24.6679 21.1062 32.0764 21.1062C37.0745 21.1062 42.5689 20.0686 47.6243 17.9242C48.3868 17.6013 49.0262 18.4267 48.2796 18.9784Z" fill="#F79C34"/>
<path fill-rule="evenodd" clip-rule="evenodd" d="M50.1564 16.8353C49.5792 16.097 46.3439 16.4855 44.8902 16.6597C44.4498 16.7129 44.3814 16.3279 44.7782 16.0493C47.3595 14.236 51.5895 14.7593 52.081 15.367C52.576 15.9788 51.9503 20.2199 49.5322 22.2433C49.1596 22.5544 48.8056 22.3885 48.9709 21.9778C49.5156 20.6181 50.7337 17.575 50.1564 16.8353Z" fill="#F79C34"/>
<path fill-rule="evenodd" clip-rule="evenodd" d="M44.9925 3.24112V1.47971C44.9938 1.21149 45.1957 1.03313 45.439 1.03382L53.335 1.03313C53.5873 1.03313 53.7905 1.21633 53.7905 1.47763V2.98811C53.7878 3.24181 53.5742 3.57225 53.196 4.09694L49.1056 9.93698C50.6237 9.90173 52.2296 10.1292 53.6094 10.9041C53.9205 11.079 54.0041 11.3382 54.0283 11.5919V13.4716C54.0283 13.7308 53.7449 14.0301 53.4463 13.8746C51.0164 12.6012 47.7915 12.4623 45.1038 13.8898C44.8293 14.0363 44.5424 13.7405 44.5424 13.4812V11.6942C44.5424 11.4087 44.548 10.9193 44.8362 10.4838L49.5743 3.68562L45.4487 3.68493C45.1964 3.68493 44.9938 3.5052 44.9925 3.24112ZM16.1904 14.2444H13.7882C13.5594 14.2299 13.3769 14.0585 13.3582 13.8386L13.3603 1.50943C13.3603 1.26333 13.5677 1.06632 13.8241 1.06632L16.0612 1.06562C16.2948 1.07738 16.4829 1.25435 16.4974 1.47971V3.08904H16.543C17.1258 1.53225 18.2242 0.805698 19.7043 0.805698C21.2065 0.805698 22.1487 1.53225 22.8213 3.08904C23.4041 1.53225 24.7272 0.805698 26.1395 0.805698C27.1488 0.805698 28.2473 1.22116 28.9199 2.1551C29.6824 3.19342 29.5262 4.69768 29.5262 6.02081L29.5234 13.8013C29.5234 14.0467 29.3167 14.2444 29.0602 14.2444H26.6614C26.4195 14.2292 26.2301 14.0384 26.2301 13.802L26.2294 7.26583C26.2294 6.74736 26.2743 5.45049 26.1616 4.9576C25.9826 4.12667 25.4448 3.89301 24.75 3.89301C24.1666 3.89301 23.561 4.28221 23.3142 4.90437C23.0674 5.52792 23.0902 6.56486 23.0902 7.26583V13.8013C23.0902 14.0467 22.8828 14.2444 22.6271 14.2444H20.2276C19.9863 14.2292 19.7962 14.0384 19.7962 13.802L19.7935 7.26583C19.7935 5.89085 20.0181 3.86812 18.3141 3.86812C16.5872 3.86812 16.655 5.839 16.655 7.26583L16.6536 13.8013C16.6536 14.0467 16.4462 14.2444 16.1904 14.2444ZM60.6094 3.32269C58.8384 3.32269 58.7264 5.73461 58.7264 7.23956C58.7264 8.7445 58.7042 11.9618 60.588 11.9618C62.449 11.9618 62.5388 9.36736 62.5388 7.78499C62.5388 6.74736 62.4932 5.50165 62.1794 4.51587C61.9105 3.65935 61.3719 3.32269 60.6094 3.32269ZM60.588 0.805698C64.153 0.805698 66.081 3.86812 66.081 7.75941C66.081 11.52 63.9512 14.5044 60.588 14.5044C57.0894 14.5044 55.1835 11.4426 55.1835 7.62945C55.1835 3.78932 57.1115 0.805698 60.588 0.805698ZM70.7051 14.2444H68.3111C68.0713 14.2292 67.8805 14.0384 67.8805 13.802L67.8763 1.46865C67.897 1.24259 68.0961 1.06632 68.3381 1.06632L70.5661 1.06562C70.7763 1.07668 70.9491 1.21909 70.9934 1.41058V3.29642H71.0383C71.7116 1.60967 72.6525 0.805698 74.3116 0.805698C75.3879 0.805698 76.4421 1.1949 77.1147 2.25879C77.7424 3.24458 77.7424 4.90437 77.7424 6.09823V13.8566C77.7162 14.0751 77.5198 14.2444 77.282 14.2444H74.8743C74.6517 14.2306 74.4726 14.0668 74.4464 13.8566V7.16282C74.4464 5.81342 74.604 3.84116 72.9442 3.84116C72.3614 3.84116 71.8229 4.23036 71.554 4.82695C71.2173 5.57976 71.1724 6.33189 71.1724 7.16282V13.8013C71.1682 14.0467 70.9609 14.2444 70.7051 14.2444ZM41.1191 14.214C40.9608 14.3564 40.732 14.3661 40.5523 14.27C39.7545 13.6071 39.6114 13.3008 39.1752 12.669C37.8569 14.0122 36.923 14.4152 35.2148 14.4152C33.1928 14.4152 31.6194 13.1667 31.6194 10.6711C31.6194 8.721 32.6764 7.3951 34.1813 6.74528C35.4844 6.17289 37.3046 6.0692 38.6982 5.91297V5.60119C38.6982 5.02811 38.7432 4.35341 38.4058 3.85914C38.1134 3.41671 37.5521 3.2349 37.0578 3.2349C36.1411 3.2349 35.3275 3.70429 35.127 4.67694C35.0848 4.89331 34.9272 5.1083 34.7102 5.11936L32.3812 4.86704C32.1849 4.82211 31.9664 4.66449 32.0224 4.36447C32.5513 1.57925 35.0385 0.710991 37.2991 0.687487H37.4774C38.6346 0.702004 40.1126 1.01931 41.0127 1.88273C42.1817 2.97497 42.0683 4.43084 42.0683 6.01735V9.75932C42.0683 10.8854 42.5363 11.379 42.9753 11.9853C43.1294 12.2044 43.1633 12.4637 42.9677 12.624C42.4768 13.0354 41.6051 13.7923 41.1261 14.2195L41.1191 14.214ZM38.6982 8.35738C38.6982 9.29339 38.7204 10.0732 38.2489 10.9055C37.8666 11.5809 37.2597 11.997 36.5856 11.997C35.6648 11.997 35.1256 11.2954 35.1256 10.255C35.1256 8.20875 36.9603 7.83683 38.6982 7.83683V8.35738ZM9.63007 14.214C9.47108 14.3564 9.24157 14.3661 9.06252 14.27C8.26408 13.6071 8.12098 13.3008 7.68547 12.669C6.36648 14.0122 5.43324 14.4152 3.72505 14.4152C1.70302 14.4152 0.129639 13.1667 0.129639 10.6711C0.129639 8.721 1.18524 7.3951 2.69157 6.74528C3.99466 6.17289 5.81483 6.0692 7.20778 5.91297V5.60119C7.20778 5.02811 7.25341 4.35341 6.91606 3.85914C6.62364 3.41671 6.06162 3.2349 5.56804 3.2349C4.65138 3.2349 3.83635 3.70429 3.63726 4.67694C3.59578 4.89331 3.43747 5.1083 3.21972 5.11936L0.891443 4.86704C0.694425 4.82211 0.475976 4.66449 0.532662 4.36447C1.06012 1.57925 3.54808 0.710991 5.8093 0.687487H5.98765C7.14488 0.702004 8.62286 1.01931 9.52292 1.88273C10.6912 2.97497 10.5785 4.43084 10.5785 6.01735V9.75932C10.5785 10.8854 11.0465 11.379 11.4855 11.9853C11.6383 12.2044 11.6735 12.4637 11.4779 12.624C10.9871 13.0354 10.1147 13.7923 9.6356 14.2195L9.63007 14.214ZM7.20778 8.35738C7.20778 9.29339 7.2306 10.0732 6.75844 10.9055C6.37685 11.5809 5.7699 11.997 5.09519 11.997C4.17439 11.997 3.63518 11.2954 3.63518 10.255C3.63518 8.20875 5.47057 7.83683 7.20778 7.83683V8.35738ZM110.58 18.6673V17.7617C110.58 17.5039 110.706 17.3262 110.975 17.3421C111.477 17.4133 112.187 17.4845 112.691 17.3808C113.349 17.2439 113.821 16.7773 114.1 16.1379C114.494 15.2378 114.754 14.512 114.919 14.0357L109.921 1.65599C109.837 1.44583 109.812 1.05595 110.232 1.05595H111.979C112.312 1.05595 112.447 1.26748 112.522 1.47487L116.145 11.5304L119.604 1.47487C119.674 1.26886 119.816 1.05595 120.146 1.05595H121.794C122.211 1.05595 122.187 1.44514 122.104 1.65599L117.147 14.4221C116.505 16.1213 115.651 18.8277 113.726 19.2978C112.761 19.5501 111.544 19.4588 110.829 19.1595C110.649 19.069 110.58 18.827 110.58 18.6673ZM108.249 13.4902C108.249 13.7204 108.06 13.9091 107.829 13.9091H106.597C106.331 13.9091 106.149 13.717 106.115 13.4902L105.991 12.6517C105.425 13.1308 104.73 13.5518 103.977 13.8449C102.528 14.4076 100.858 14.5009 99.4421 13.6312C98.4183 13.0029 97.875 11.7744 97.875 10.5073C97.875 9.52705 98.177 8.55509 98.8469 7.84928C99.7407 6.88492 101.036 6.41139 102.601 6.41139C103.546 6.41139 104.898 6.52269 105.882 6.84414V5.15669C105.882 3.44091 105.159 2.69846 103.255 2.69846C101.799 2.69846 100.685 2.91829 99.1352 3.40012C98.887 3.40841 98.7418 3.21969 98.7418 2.98949V2.02721C98.7418 1.79632 98.9389 1.57303 99.1525 1.50529C100.259 1.02276 101.827 0.722051 103.494 0.666748C105.667 0.666748 108.249 1.15687 108.249 4.49858V13.4902ZM105.882 11.0265V8.48043C105.055 8.25438 103.687 8.16036 103.157 8.16036C102.321 8.16036 101.405 8.35807 100.926 8.87308C100.569 9.25053 100.407 9.7925 100.407 10.3165C100.407 10.994 100.642 11.6735 101.189 12.0095C101.825 12.4415 102.811 12.389 103.738 12.1256C104.63 11.8726 105.466 11.4253 105.882 11.0265ZM90.0855 2.73648C92.8188 2.73648 93.5634 4.88571 93.5634 7.34671C93.5786 9.00581 93.2737 10.4852 92.4144 11.332C91.7715 11.9659 91.0533 12.1387 89.9721 12.1387C89.0098 12.1387 87.7441 11.6369 86.7984 10.938V3.90131C87.7828 3.14503 89.0388 2.73648 90.0855 2.73648ZM86.3794 19.1091H84.7293C84.4984 19.1091 84.3097 18.9203 84.3097 18.6901V1.49699C84.3097 1.26679 84.4984 1.07807 84.7293 1.07807H85.9923C86.2578 1.07807 86.4396 1.27025 86.4735 1.49699L86.6062 2.39774C87.789 1.34767 89.3119 0.674352 90.7629 0.674352C94.827 0.674352 96.1633 4.02297 96.1633 7.50501C96.1633 11.2304 94.1192 14.2237 90.662 14.2237C89.2061 14.2237 87.845 13.6866 86.7984 12.7533V18.6901C86.7984 18.9203 86.6096 19.1091 86.3794 19.1091Z" fill="#333E47"/>
</svg>
