<svg width="63" height="30" viewBox="0 0 63 30" fill="none" xmlns="http://www.w3.org/2000/svg">
<g clip-path="url(#clip0_95_2466)">
<path d="M28.1528 17.3751C28.3765 17.1702 28.5631 17.0009 28.7475 16.8279C31.3257 14.4061 33.9012 11.981 36.4741 9.55252C36.8496 9.14131 37.342 8.85508 37.8851 8.73241C38.1033 8.68938 38.328 8.69033 38.5459 8.7352C38.7637 8.78008 38.9705 8.86798 39.154 8.99376C40.6125 10.0046 40.6313 11.6349 39.513 12.6526C37.629 14.365 35.7785 16.1139 33.9066 17.8398C33.7253 18.0071 33.7252 18.0933 33.8904 18.2757C36.0637 20.6756 38.2304 23.0817 40.3904 25.4941C40.7683 25.8496 41.0024 26.3315 41.0484 26.8483C41.0943 27.3651 40.9489 27.8808 40.6397 28.2973C40.3665 28.7011 39.9784 29.0137 39.5258 29.1946C39.0731 29.3756 38.5766 29.4166 38.1004 29.3124C37.7039 29.2252 37.3451 29.015 37.0751 28.7118C34.8021 26.3092 32.5325 23.9048 30.2662 21.4987C30.0849 21.3058 29.9861 21.3163 29.8058 21.4814C29.3004 21.9409 28.7805 22.3857 28.2589 22.8268C28.2152 22.8661 28.1817 22.9155 28.1615 22.9708C28.1412 23.026 28.1349 23.0853 28.1429 23.1436C28.1429 24.4414 28.1492 25.7409 28.1429 27.0397C28.1681 27.4836 28.0563 27.9245 27.8226 28.3027C27.5889 28.6809 27.2446 28.9781 26.8364 29.154C26.4756 29.3282 26.0758 29.406 25.676 29.3798C25.2762 29.3535 24.89 29.2241 24.555 29.0042C24.22 28.7843 23.9477 28.4814 23.7646 28.1249C23.5815 27.7685 23.4938 27.3706 23.5101 26.9702C23.5357 21.8437 23.5195 16.7171 23.5195 11.5905V3.2342C23.4969 2.86141 23.5688 2.48895 23.7286 2.15139C23.8884 1.81384 24.1309 1.52214 24.4335 1.30337C24.7867 1.03377 25.2106 0.872531 25.6536 0.839221C26.0967 0.805912 26.5399 0.901966 26.9294 1.11572C27.3148 1.29992 27.6364 1.59495 27.8531 1.96304C28.0699 2.33113 28.1719 2.75553 28.146 3.18193V17.3751H28.1528Z" fill="#FBB11B"/>
<path d="M20.0666 24.7597C19.7785 24.4676 19.3919 24.2932 18.9823 24.2705C18.424 24.2548 17.8744 24.4108 17.4077 24.7174C16.5901 25.1691 15.7077 25.4918 14.7916 25.6739C13.973 25.8478 13.1392 25.9406 12.3025 25.9509C10.1772 25.9509 8.56748 25.376 7.47317 24.2261C6.53641 23.1527 5.98466 21.7974 5.90538 20.3748H18.7685C19.3027 20.4084 19.8332 20.2665 20.2793 19.9708C20.4564 19.8338 20.5974 19.6556 20.6901 19.4518C20.7828 19.2479 20.8244 19.0246 20.8113 18.801C20.8323 17.3208 20.6091 15.8473 20.1508 14.4397C19.752 13.219 19.1015 12.0958 18.2412 11.1425C17.4005 10.2327 16.3687 9.52051 15.2201 9.05697C13.953 8.56208 12.6017 8.31834 11.2416 8.33931C9.3554 8.30566 7.49531 8.7836 5.85887 9.72236C4.30058 10.6291 3.02082 11.9459 2.1589 13.5297C1.23203 15.2695 0.769104 17.219 0.814791 19.1899C0.762956 21.1921 1.23992 23.1727 2.19758 24.9317C3.11137 26.5404 4.48078 27.8426 6.13323 28.6742C8.02566 29.597 10.1126 30.0499 12.2173 29.9945C13.4287 29.9815 14.6347 29.8313 15.8122 29.5465C17.0235 29.2812 18.1814 28.8137 19.2373 28.1635C19.6963 27.905 20.0724 27.5212 20.3217 27.057C20.527 26.6729 20.609 26.2348 20.5563 25.8025C20.5085 25.4116 20.3369 25.0462 20.0666 24.7597ZM8.40861 12.7812C9.31725 12.207 10.3769 11.9181 11.4512 11.9516C12.4007 11.9175 13.3395 12.1613 14.1524 12.6531C14.8976 13.1457 15.4765 13.8521 15.8132 14.6796C16.1544 15.5187 16.3425 16.4122 16.3688 17.3176H5.91897C6.00447 16.5634 6.19807 15.8255 6.49382 15.1265C6.88675 14.1729 7.55297 13.3569 8.40861 12.7812Z" fill="#FBB11B"/>
<path d="M52.4561 7.80298H51.6063C51.5345 7.80289 51.4634 7.8177 51.3975 7.84647C51.3317 7.87525 51.2725 7.91737 51.2237 7.97016C51.175 8.02296 51.1377 8.08529 51.1142 8.15323C51.0907 8.22117 51.0816 8.29323 51.0874 8.36487L51.5117 13.7612C51.5263 13.8886 51.5873 14.0063 51.6831 14.0917C51.7788 14.1771 51.9026 14.2244 52.0309 14.2244C52.1592 14.2244 52.283 14.1771 52.3788 14.0917C52.4745 14.0063 52.5355 13.8886 52.5501 13.7612L52.9745 8.36487C52.9798 8.29331 52.9704 8.22142 52.9468 8.15365C52.9232 8.08589 52.8859 8.02372 52.8372 7.971C52.7885 7.91829 52.7295 7.87617 52.6639 7.84726C52.5982 7.81835 52.5273 7.80328 52.4555 7.80298H52.4561Z" fill="#FBB11B"/>
<path d="M49.6791 8.61271C49.6597 8.54316 49.6262 8.47836 49.5806 8.42241C49.535 8.36646 49.4783 8.32056 49.4141 8.28761C49.3499 8.25466 49.2795 8.23537 49.2075 8.23096C49.1354 8.22655 49.0633 8.23711 48.9955 8.26198L48.197 8.55312C48.1297 8.57797 48.0682 8.61641 48.0164 8.66606C47.9646 8.7157 47.9236 8.77549 47.8959 8.84169C47.8682 8.90788 47.8544 8.97908 47.8554 9.05083C47.8564 9.12259 47.8722 9.19336 47.9017 9.25876L50.1447 14.1804C50.2021 14.295 50.2996 14.3846 50.4187 14.4319C50.5378 14.4793 50.6701 14.4813 50.7905 14.4375C50.911 14.3937 51.0111 14.3072 51.0719 14.1943C51.1327 14.0815 51.15 13.9502 51.1204 13.8255L49.6791 8.61271Z" fill="#FBB11B"/>
<path d="M46.6672 9.9742C46.6256 9.91563 46.5722 9.86633 46.5105 9.82942C46.4488 9.7925 46.3802 9.76878 46.3089 9.75974C46.2376 9.7507 46.1652 9.75655 46.0963 9.77691C46.0273 9.79727 45.9634 9.8317 45.9084 9.87803L45.2572 10.4237C45.2023 10.47 45.1576 10.5272 45.1257 10.5916C45.0939 10.656 45.0756 10.7262 45.0721 10.798C45.0687 10.8697 45.08 10.9415 45.1055 11.0086C45.1309 11.0758 45.17 11.137 45.2201 11.1884L49.0131 15.0485C49.1065 15.1356 49.2284 15.1854 49.356 15.1887C49.4836 15.192 49.608 15.1485 49.7057 15.0664C49.8034 14.9843 49.8677 14.8693 49.8864 14.743C49.9052 14.6168 49.8771 14.488 49.8075 14.381L46.6672 9.9742Z" fill="#FBB11B"/>
<path d="M48.7602 15.3501L44.302 12.2845C44.2427 12.244 44.1758 12.2161 44.1053 12.2026C44.0348 12.1892 43.9623 12.1904 43.8922 12.2062C43.8222 12.222 43.7562 12.252 43.6983 12.2944C43.6404 12.3369 43.5919 12.3908 43.5557 12.4528L43.1314 13.1887C43.0955 13.251 43.0729 13.32 43.0648 13.3914C43.0568 13.4628 43.0636 13.5351 43.0848 13.6038C43.106 13.6725 43.1411 13.7361 43.188 13.7906C43.2348 13.845 43.2924 13.8893 43.3571 13.9205L48.2408 16.2512C48.3586 16.3028 48.4913 16.3091 48.6135 16.2689C48.7357 16.2287 48.8388 16.1449 48.903 16.0335C48.9673 15.922 48.9882 15.7908 48.9617 15.6649C48.9353 15.539 48.8634 15.4273 48.7597 15.3511L48.7602 15.3501Z" fill="#FBB11B"/>
<path d="M48.1066 16.6199L42.8681 15.2645C42.7988 15.2467 42.7265 15.2433 42.6558 15.2545C42.5851 15.2658 42.5175 15.2915 42.4571 15.3299C42.3968 15.3684 42.3449 15.4189 42.3049 15.4782C42.2648 15.5375 42.2374 15.6044 42.2242 15.6748L42.0774 16.5111C42.0648 16.5819 42.067 16.6544 42.0838 16.7243C42.1007 16.7941 42.1318 16.8597 42.1753 16.9169C42.2187 16.9742 42.2735 17.0217 42.3363 17.0567C42.3991 17.0917 42.4684 17.1132 42.5399 17.1201L47.9257 17.6391C48.0558 17.6502 48.1854 17.6122 48.2889 17.5326C48.3924 17.4529 48.4623 17.3374 48.4849 17.2088C48.5075 17.0802 48.4812 16.9478 48.411 16.8376C48.3409 16.7274 48.2321 16.6475 48.106 16.6136L48.1066 16.6199Z" fill="#FBB11B"/>
<path d="M55.9193 8.5537L55.1218 8.26256C55.0543 8.23837 54.9825 8.22833 54.911 8.23308C54.8394 8.23783 54.7696 8.25726 54.7059 8.29016C54.6421 8.32306 54.5859 8.36872 54.5405 8.42431C54.4952 8.4799 54.4618 8.54423 54.4424 8.61328L52.9949 13.8303C52.9652 13.955 52.9825 14.0862 53.0433 14.1991C53.1041 14.3119 53.2043 14.3985 53.3247 14.4423C53.4451 14.4861 53.5775 14.4841 53.6965 14.4367C53.8156 14.3893 53.9131 14.2998 53.9705 14.1852L56.2145 9.26352C56.2452 9.19808 56.2619 9.12696 56.2635 9.05471C56.2652 8.98245 56.2517 8.91065 56.224 8.8439C56.1963 8.77715 56.155 8.7169 56.1027 8.66702C56.0504 8.61714 55.9883 8.57872 55.9203 8.55422L55.9193 8.5537Z" fill="#FBB11B"/>
<path d="M58.862 10.4232L58.2119 9.87754C58.1569 9.83121 58.093 9.79678 58.0241 9.77642C57.9551 9.75606 57.8827 9.75022 57.8114 9.75925C57.7401 9.76829 57.6715 9.79202 57.6098 9.82893C57.5481 9.86584 57.4948 9.91514 57.4531 9.97371L54.3118 14.3832C54.2412 14.4902 54.2124 14.6195 54.2309 14.7464C54.2494 14.8732 54.3139 14.9889 54.4121 15.0713C54.5104 15.1537 54.6355 15.1972 54.7636 15.1934C54.8918 15.1895 55.014 15.1387 55.1072 15.0506L58.9002 11.1905C58.9506 11.139 58.9899 11.0776 59.0154 11.0102C59.041 10.9428 59.0524 10.8708 59.0488 10.7988C59.0452 10.7268 59.0267 10.6563 58.9946 10.5917C58.9625 10.5272 58.9173 10.47 58.862 10.4238V10.4232Z" fill="#FBB11B"/>
<path d="M55.879 16.2503L60.7617 13.9197C60.8265 13.8886 60.8843 13.8444 60.9313 13.79C60.9783 13.7356 61.0136 13.6721 61.0349 13.6034C61.0563 13.5347 61.0632 13.4623 61.0553 13.3908C61.0474 13.3193 61.0248 13.2502 60.989 13.1879L60.5636 12.4519C60.5277 12.3898 60.4794 12.3357 60.4216 12.2932C60.3638 12.2506 60.2978 12.2205 60.2278 12.2047C60.1578 12.1889 60.0853 12.1877 60.0148 12.2013C59.9444 12.2149 59.8775 12.2429 59.8184 12.2836L55.3591 15.3492C55.2548 15.4252 55.1823 15.5372 55.1556 15.6634C55.1289 15.7897 55.1499 15.9214 55.2144 16.0331C55.279 16.1449 55.3826 16.2288 55.5053 16.2687C55.628 16.3086 55.7611 16.3017 55.879 16.2493V16.2503Z" fill="#FBB11B"/>
<path d="M62.042 16.5138L61.8946 15.6775C61.8815 15.6071 61.854 15.5402 61.814 15.4809C61.7739 15.4215 61.7221 15.3711 61.6617 15.3326C61.6013 15.2941 61.5337 15.2685 61.463 15.2572C61.3923 15.246 61.3201 15.2494 61.2508 15.2672L56.0133 16.6225C55.8872 16.6565 55.7784 16.7364 55.7083 16.8466C55.6382 16.9567 55.6119 17.0892 55.6345 17.2178C55.6571 17.3464 55.727 17.4619 55.8305 17.5415C55.934 17.6212 56.0635 17.6592 56.1936 17.6481L61.5763 17.129C61.6484 17.122 61.7183 17.1002 61.7814 17.0648C61.8446 17.0293 61.8998 16.9812 61.9434 16.9233C61.9869 16.8655 62.018 16.7992 62.0346 16.7287C62.0513 16.6582 62.0531 16.585 62.0399 16.5138H62.042Z" fill="#FBB11B"/>
<path d="M61.9652 20.1312C61.9523 19.6367 61.7465 19.167 61.3919 18.8223C61.0372 18.4777 60.5618 18.2855 60.0673 18.2869C59.5728 18.2882 59.0984 18.483 58.7457 18.8296C58.3929 19.1763 58.1897 19.6471 58.1795 20.1416C58.1802 20.2101 58.1844 20.2785 58.1921 20.3465C58.133 21.9579 57.4515 23.4837 56.2908 24.6028C55.1301 25.7219 53.5807 26.3473 51.9685 26.3473C50.3563 26.3473 48.8069 25.7219 47.6462 24.6028C46.4856 23.4837 45.804 21.9579 45.7449 20.3465C45.7532 20.2785 45.7574 20.2101 45.7575 20.1416C45.7473 19.6471 45.5441 19.1763 45.1914 18.8296C44.8386 18.483 44.3642 18.2882 43.8697 18.2869C43.3752 18.2855 42.8998 18.4777 42.5452 18.8223C42.1905 19.167 41.9847 19.6367 41.9718 20.1312V20.1395C42.0344 22.7493 43.1149 25.2312 44.9825 27.0549C46.8501 28.8785 49.3566 29.8994 51.9667 29.8994C54.5767 29.8994 57.0833 28.8785 58.9509 27.0549C60.8185 25.2312 61.899 22.7493 61.9616 20.1395V20.1254L61.9652 20.1312Z" fill="#FBB11B"/>
</g>
<defs>
<clipPath id="clip0_95_2466">
<rect width="61.236" height="29.16" fill="white" transform="translate(0.814819 0.833252)"/>
</clipPath>
</defs>
</svg>
