<svg width="103" height="30" viewBox="0 0 103 30" fill="none" xmlns="http://www.w3.org/2000/svg">
<g clip-path="url(#clip0_95_2450)">
<path d="M92.5552 26.1718C92.5155 26.1948 92.47 26.2054 92.4238 26.2023C92.3782 26.1992 92.3342 26.1825 92.2982 26.1544C91.5867 25.7134 88.008 23.369 85.5872 20.4269C84.1106 18.6106 89.7562 15.9063 89.7562 16.2632C89.7621 18.1928 90.3084 23.2674 92.6264 25.7366C92.6719 25.7915 92.6962 25.8612 92.6932 25.9323C92.691 26.0035 92.6617 26.0711 92.611 26.1225L92.5552 26.1602" fill="#FFAD00"/>
<path d="M91.0699 14.3772L96.2052 12.0822C96.8535 11.8329 97.4402 11.4486 97.924 10.9558C98.4072 10.463 98.7772 9.87332 99.007 9.22713L99.648 7.45719C99.6561 7.43357 99.6598 7.40857 99.6576 7.38363C99.6561 7.35868 99.6495 7.3343 99.6385 7.3119C99.6275 7.28949 99.6113 7.2695 99.5922 7.2531C99.5732 7.2367 99.5511 7.22422 99.5269 7.21637C99.4821 7.19907 99.4322 7.19907 99.3881 7.21637L89.5823 11.3016L89.6175 11.1479C89.6425 11.0068 89.699 10.8728 89.7827 10.7555C89.8664 10.6382 89.9751 10.5404 90.1014 10.4689C91.7608 9.46501 97.7104 6.47648 97.7104 6.47648C98.6436 6.04752 99.4726 5.42859 100.144 4.66074C100.815 3.8929 101.312 2.99368 101.603 2.02269L102.051 0.511012C102.066 0.450682 102.057 0.387073 102.026 0.333157C101.994 0.279241 101.943 0.239079 101.883 0.220862C101.831 0.203398 101.775 0.203398 101.724 0.220862C101.724 0.220862 92.7711 3.63882 89.8921 5.01413C87.0131 6.38944 84.0666 8.15645 83.0446 13.3588C82.6312 15.4653 83.3904 17.2497 84.8163 19.2721C84.8104 17.2846 89.9274 14.9198 91.0699 14.3772Z" fill="#FFAD00"/>
<path d="M78.4446 5.47269C77.6325 4.86338 76.9416 4.81115 76.8204 4.86338C76.7675 4.67479 77.7536 4.21635 77.8748 4.09739C78.2727 3.72309 78.4974 3.22694 78.9637 2.90778C79.9145 2.24623 81.09 2.44934 82.0761 2.97741C82.5784 3.24725 83.9602 4.13801 83.9808 4.18153C84.7334 4.73575 85.4331 5.35634 86.0712 6.03558C86.1123 6.08289 86.135 6.14308 86.135 6.20532C86.135 6.26756 86.1123 6.32776 86.0712 6.37506C85.8377 6.59557 85.6108 6.75226 85.3274 6.98728C83.4492 8.53667 82.3184 12.6626 82.3008 13.1733C82.3008 13.1936 82.3008 13.2052 82.3008 13.2052C82.3008 13.2052 81.1994 7.37898 78.4446 5.47269Z" fill="#FFAD00"/>
<path d="M6.96542 14.7311H4.39362V23.8505H2.19681V14.7311H0V12.97H2.19681V10.6894C2.19128 10.0886 2.26573 9.48963 2.41826 8.90782C2.55246 8.39037 2.80039 7.90807 3.14462 7.4948C3.49207 7.08707 3.93199 6.76508 4.42905 6.55473C5.03183 6.3084 5.68099 6.19071 6.33354 6.20945C6.79938 6.20108 7.26423 6.25476 7.71537 6.36903L7.4556 8.2289C7.28431 8.18538 7.11306 8.14477 6.94179 8.11576C6.74686 8.08215 6.54915 8.06663 6.35126 8.06932C5.99921 8.05401 5.64916 8.12903 5.33553 8.28693C5.08945 8.425 4.88553 8.6254 4.74499 8.86721C4.59567 9.12681 4.49561 9.41098 4.44972 9.70578C4.40173 10.0295 4.37805 10.3563 4.37885 10.6835V12.97H6.95066L6.96542 14.7311Z" fill="#656565"/>
<path d="M15.4278 16.797C15.4278 15.9865 15.1788 15.3858 14.6808 14.9951C14.1062 14.5852 13.4055 14.3823 12.6965 14.4206C12.0871 14.4165 11.4836 14.5381 10.925 14.7775C10.4083 14.9921 9.93681 15.2991 9.53422 15.6828L8.35311 14.3046C8.93192 13.7801 9.61154 13.3747 10.3521 13.1121C11.1637 12.8168 12.023 12.6683 12.8885 12.674C13.5924 12.6603 14.2929 12.7734 14.9554 13.0076C15.4966 13.2032 15.9874 13.5133 16.3933 13.9157C16.7684 14.3036 17.0553 14.7655 17.2348 15.2708C17.4297 15.8092 17.5296 16.3764 17.5301 16.9479V21.6918C17.5301 22.0574 17.5301 22.4461 17.5655 22.8524C17.578 23.1891 17.6205 23.524 17.6925 23.8534H15.7083C15.5853 23.3419 15.5229 22.818 15.5223 22.2924H15.4514C15.0612 22.8605 14.5349 23.3258 13.919 23.6474C13.2419 23.9818 12.4915 24.1472 11.7339 24.129C11.273 24.1255 10.814 24.068 10.3669 23.9579C9.90443 23.8467 9.46557 23.6561 9.07062 23.3949C8.67236 23.125 8.34049 22.7712 8.09921 22.3591C7.82754 21.8749 7.69391 21.3276 7.71241 20.7749C7.6732 20.0587 7.91646 19.3552 8.39152 18.8106C8.88045 18.3051 9.48907 17.9263 10.1631 17.708C10.9643 17.4413 11.7967 17.2755 12.6404 17.2148C13.5588 17.1393 14.4859 17.0987 15.4219 17.0987L15.4278 16.797ZM14.8904 18.6597C14.3441 18.6597 13.7802 18.683 13.1955 18.7293C12.6578 18.7658 12.1254 18.8572 11.607 19.0021C11.1709 19.1195 10.7673 19.3317 10.4259 19.623C10.2707 19.762 10.1483 19.9327 10.0677 20.1232C9.9871 20.3138 9.9501 20.5195 9.95942 20.7255C9.94848 21.0063 10.017 21.2845 10.1572 21.5293C10.2882 21.7431 10.4682 21.9239 10.6828 22.0574C10.903 22.1984 11.1485 22.2969 11.4062 22.3475C11.6762 22.4025 11.9513 22.4297 12.2271 22.4288C13.2546 22.4288 14.042 22.126 14.5892 21.5206C15.1515 20.891 15.4483 20.0743 15.4189 19.2371V18.6568L14.8904 18.6597Z" fill="#656565"/>
<path d="M24.2299 13.2603C24.8785 12.8441 25.6405 12.6316 26.4149 12.6509C27.1229 12.6417 27.8207 12.8169 28.4375 13.1587C29.0846 13.5487 29.582 14.1385 29.8518 14.8357C30.2012 14.1566 30.7452 13.5928 31.4168 13.2138C32.0858 12.8393 32.8436 12.6451 33.6136 12.6509C34.249 12.6344 34.8802 12.7563 35.462 13.0078C35.956 13.2299 36.3944 13.5558 36.7464 13.9624C37.0943 14.3771 37.3507 14.8582 37.4993 15.3754C37.6657 15.9342 37.7483 16.5138 37.7444 17.096V23.8507H35.5476V17.8097C35.5484 17.3854 35.5089 16.9618 35.4295 16.5447C35.3607 16.1724 35.2257 15.8149 35.0309 15.4886C34.8486 15.1861 34.5917 14.9336 34.2839 14.7545C33.9228 14.5591 33.5146 14.4638 33.1028 14.4789C32.6538 14.4654 32.2097 14.5728 31.8183 14.7893C31.4635 14.9859 31.1602 15.2611 30.9325 15.5931C30.7009 15.9317 30.5347 16.3094 30.4424 16.7072C30.3396 17.1203 30.288 17.5441 30.2888 17.9694V23.8507H28.0979V17.3717C28.1014 16.9817 28.0618 16.5926 27.9799 16.211C27.916 15.8803 27.7811 15.5667 27.5842 15.2913C27.3969 15.0442 27.1518 14.8451 26.8696 14.711C26.5256 14.5558 26.1495 14.4813 25.7712 14.4934C25.3804 14.4893 24.9941 14.5754 24.6434 14.7447C24.2925 14.914 23.9871 15.1619 23.7516 15.4683C23.2112 16.1211 22.9425 16.9887 22.9425 18.0796V23.8826H20.7339V15.3058C20.7339 15.0156 20.7339 14.6384 20.7103 14.18C20.6867 13.7216 20.6719 13.3095 20.6424 12.9614H22.7093C22.7427 13.238 22.7663 13.5484 22.7801 13.8927C22.7801 14.238 22.8037 14.5253 22.8037 14.7632H22.8746C23.1752 14.148 23.6447 13.6275 24.2299 13.2603Z" fill="#656565"/>
<path d="M43.1979 29.3636H41.0012V12.9701H43.1537V14.6704H43.2216C43.6082 14.0637 44.1511 13.5683 44.7954 13.2341C45.5385 12.8473 46.37 12.6536 47.2107 12.6713C47.9835 12.6622 48.7498 12.8113 49.4606 13.1094C50.1231 13.3907 50.7184 13.8048 51.2086 14.3251C51.7042 14.8554 52.0886 15.4766 52.3395 16.1531C52.6081 16.8701 52.7421 17.629 52.7352 18.393C52.7411 19.1607 52.6071 19.9232 52.3395 20.6446C52.0916 21.3224 51.7114 21.9463 51.2205 22.4812C50.7317 23.0054 50.1361 23.4226 49.4724 23.7056C48.7436 24.0137 47.9567 24.1669 47.1635 24.1554C46.3877 24.1593 45.6216 23.9865 44.9253 23.6505C44.2501 23.3347 43.6768 22.8417 43.2688 22.2259H43.1979V29.3636ZM50.4911 18.3843C50.4925 17.8849 50.4138 17.3885 50.2579 16.9133C50.1096 16.4522 49.8719 16.0236 49.5581 15.6511C49.2412 15.2818 48.8462 14.9848 48.4007 14.7806C47.8983 14.5573 47.3515 14.4473 46.8003 14.4586C46.2714 14.4522 45.7478 14.5622 45.2678 14.7806C44.817 14.9873 44.4149 15.2837 44.0868 15.6511C43.7556 16.0214 43.4982 16.4495 43.3279 16.9133C42.9697 17.8774 42.9697 18.9348 43.3279 19.8989C43.4969 20.3606 43.7545 20.7861 44.0868 21.1523C44.4166 21.5178 44.8184 21.8139 45.2678 22.0228C45.748 22.2402 46.2716 22.3493 46.8003 22.3419C47.3525 22.3533 47.8999 22.2401 48.4007 22.0112C48.8437 21.803 49.2378 21.5065 49.5581 21.1407C49.8714 20.7668 50.109 20.3374 50.2579 19.8757C50.4165 19.394 50.4952 18.8905 50.4911 18.3843Z" fill="#656565"/>
<path d="M62.2517 16.797C62.2517 15.9865 62.0017 15.3859 61.5017 14.9951C60.9271 14.5825 60.2252 14.3775 59.5146 14.4148C58.9052 14.411 58.3017 14.5325 57.7429 14.7718C57.2268 14.9856 56.7562 15.2927 56.3552 15.677L55.1741 14.2988C55.7522 13.7734 56.432 13.3678 57.1731 13.1063C57.9846 12.8105 58.844 12.662 59.7095 12.6681C60.4134 12.6542 61.114 12.7672 61.7764 13.0018C62.3175 13.1975 62.8084 13.5074 63.2143 13.91C63.5968 14.2932 63.89 14.7535 64.0735 15.2592C64.2634 15.7985 64.3583 16.3656 64.3541 16.9362V21.6918C64.3541 22.0574 64.3541 22.4462 64.3895 22.8524C64.4035 23.1889 64.4459 23.5238 64.5164 23.8534H62.5323C62.4068 23.3422 62.3434 22.8182 62.3433 22.2924H62.2724C61.8825 22.8598 61.3575 23.325 60.7429 23.6474C60.0657 23.9814 59.3154 24.1468 58.5579 24.1291C58.0969 24.1257 57.6379 24.0683 57.1908 23.9579C56.7272 23.8473 56.2874 23.6567 55.8916 23.395C55.493 23.1243 55.1611 22.7693 54.9202 22.3562C54.6471 21.8725 54.5134 21.3248 54.5334 20.772C54.4926 20.0555 54.736 19.3515 55.2125 18.8077C55.7012 18.3019 56.3099 17.9231 56.9841 17.7051C57.7853 17.4384 58.6177 17.2727 59.4614 17.2119C60.3827 17.1364 61.3098 17.0958 62.2458 17.0958L62.2517 16.797ZM61.7114 18.6597C61.1681 18.6597 60.6011 18.6829 60.0165 18.7294C59.4788 18.766 58.9465 18.8574 58.428 19.0021C57.9922 19.1202 57.5887 19.3323 57.2469 19.623C57.0921 19.7623 56.9701 19.9331 56.8896 20.1236C56.809 20.3141 56.7717 20.5195 56.7804 20.7256C56.7722 21.0071 56.8437 21.2854 56.9871 21.5293C57.1181 21.7431 57.298 21.9239 57.5127 22.0574C57.7337 22.1987 57.9802 22.2972 58.239 22.3475C58.508 22.4026 58.7821 22.4298 59.0569 22.4287C60.0844 22.4287 60.8718 22.1261 61.4191 21.5206C61.9835 20.892 62.2814 20.0749 62.2517 19.2371V18.6568L61.7114 18.6597Z" fill="#656565"/>
<path d="M71.7653 21.5062H71.8126L74.8746 12.97H77.2103L71.8332 26.4329C71.6634 26.8566 71.4611 27.2668 71.2279 27.6603C71.0223 28.0059 70.761 28.3165 70.4543 28.5801C70.1482 28.8361 69.7955 29.0329 69.4149 29.1603C68.9585 29.3061 68.4805 29.3758 68.0006 29.3664C67.7674 29.3664 67.5282 29.3664 67.289 29.3315C67.0402 29.3076 66.7935 29.2659 66.5508 29.2068L66.7605 27.2976C67.1147 27.4185 67.4868 27.4812 67.8618 27.4833C68.0979 27.5019 68.3352 27.4694 68.557 27.3882C68.779 27.307 68.9801 27.179 69.1462 27.0132C69.4779 26.6099 69.7383 26.1548 69.9169 25.6669L70.6196 23.8535L65.8746 12.97H68.3283L71.7653 21.5062Z" fill="#656565"/>
</g>
<defs>
<clipPath id="clip0_95_2450">
<rect width="102.06" height="29.16" fill="white" transform="translate(0 0.203613)"/>
</clipPath>
</defs>
</svg>
