<svg xmlns="http://www.w3.org/2000/svg" viewBox="0 0 681 177">
    <defs>
        <style>.dp{fill:#20014b;}</style>
    </defs>
    <path class="dp" d="M187,141H310.2a6,6,0,0,1,5.68,6.15A5.78,5.78,0,0,1,310.2,153H187Z"/>
    <path class="dp" d="M440.2,141a6.39,6.39,0,0,1,6.15,6.15A6.13,6.13,0,0,1,440.2,153H386V141Z"/>
    <path class="dp" d="M527,141H673.94a6,6,0,0,1,5.68,6.15,5.78,5.78,0,0,1-5.68,5.85H527Z"/>
    <path class="dp" d="M199,165H310.55a6.05,6.05,0,0,1,5.69,6.15,5.79,5.79,0,0,1-5.69,5.85H199Z"/>
    <path class="dp" d="M440.2,165a6.39,6.39,0,0,1,6.15,6.15A6.13,6.13,0,0,1,440.2,177H386V165Z"/>
    <path class="dp" d="M539,165H674.28a6.06,6.06,0,0,1,5.7,6.15,5.8,5.8,0,0,1-5.7,5.85H539Z"/>
    <path class="dp" d="M309.89,0a5.79,5.79,0,0,1,5.69,5.85A6.06,6.06,0,0,1,309.89,12H175V0Z"/>
    <path class="dp" d="M486.06,0a5.79,5.79,0,0,1,5.69,5.85A6.06,6.06,0,0,1,486.06,12H339V0Z"/>
    <path class="dp" d="M569.49,0a5.86,5.86,0,0,1,5.85,5.85A6.13,6.13,0,0,1,569.49,12H515V0Z"/>
    <path class="dp" d="M675.54,0a5.86,5.86,0,0,1,5.85,5.85A6.13,6.13,0,0,1,675.54,12H621V0Z"/>
    <path class="dp" d="M309.89,24a5.79,5.79,0,0,1,5.69,5.85A6.06,6.06,0,0,1,309.89,36H175V24Z"/>
    <path class="dp" d="M486.06,24a5.79,5.79,0,0,1,5.69,5.85A6.06,6.06,0,0,1,486.06,36H339V24Z"/>
    <path class="dp" d="M569.49,24a5.86,5.86,0,0,1,5.85,5.85A6.13,6.13,0,0,1,569.49,36H515V24Z"/>
    <path class="dp" d="M675.54,24a5.86,5.86,0,0,1,5.85,5.85A6.13,6.13,0,0,1,675.54,36H621V24Z"/>
    <path class="dp" d="M229.19,47a6.38,6.38,0,0,1,6.15,6.15A6.13,6.13,0,0,1,229.19,59H175V47Z"/>
    <path class="dp" d="M228.77,118a6.37,6.37,0,0,1,6.14,6.15,6.12,6.12,0,0,1-6.14,5.85H175V118Z"/>
    <path class="dp" d="M440.2,47a6.39,6.39,0,0,1,6.15,6.15A6.13,6.13,0,0,1,440.2,59H386V47Z"/>
    <path class="dp" d="M569.19,47a6.38,6.38,0,0,1,6.15,6.15A6.13,6.13,0,0,1,569.19,59H515V47Z"/>
    <path class="dp" d="M675.24,47a6.37,6.37,0,0,1,6.14,6.15A6.12,6.12,0,0,1,675.24,59H621V47Z"/>
    <path class="dp" d="M286.45,71a5.78,5.78,0,0,1,5.69,5.85A6,6,0,0,1,286.45,83H175V71Z"/>
    <path class="dp" d="M440.2,71a6.39,6.39,0,0,1,6.15,6.15A6.13,6.13,0,0,1,440.2,83H386V71Z"/>
    <path class="dp" d="M569.49,71a5.86,5.86,0,0,1,5.85,5.85A6.13,6.13,0,0,1,569.49,83H515V71Z"/>
    <path class="dp" d="M675.54,71a5.86,5.86,0,0,1,5.85,5.85A6.13,6.13,0,0,1,675.54,83H621V71Z"/>
    <path class="dp" d="M134,153H11V141H134a6.3,6.3,0,0,1,6,6.15,6,6,0,0,1-6,5.85"/>
    <path class="dp" d="M122,177H11V165H122.28a6.06,6.06,0,0,1,5.69,6.15,5.79,5.79,0,0,1-5.69,5.85"/>
    <path class="dp" d="M134.5,0a5.79,5.79,0,0,1,5.69,5.85A6.06,6.06,0,0,1,134.5,12H23V0Z"/>
    <path class="dp" d="M134.15,24a5.8,5.8,0,0,1,5.7,5.85,6.06,6.06,0,0,1-5.7,6.15H11V24Z"/>
    <path class="dp" d="M53.77,47a6.37,6.37,0,0,1,6.14,6.15A6.12,6.12,0,0,1,53.77,59H0V47Z"/>
    <path class="dp" d="M147.19,118a6.38,6.38,0,0,1,6.15,6.15,6.13,6.13,0,0,1-6.15,5.85H93V118Z"/>
    <path class="dp" d="M122.29,71A5.79,5.79,0,0,1,128,76.85,6.06,6.06,0,0,1,122.29,83H11V71Z"/>
    <path class="dp" d="M135,106H23V94H134.55a6.06,6.06,0,0,1,5.7,6.15,5.8,5.8,0,0,1-5.7,5.85"/>
    <path class="dp" d="M286,106H175V94H286.45a6,6,0,0,1,5.69,6.15,5.78,5.78,0,0,1-5.69,5.85"/>
    <path class="dp" d="M440.2,94a6.39,6.39,0,0,1,6.15,6.15A6.13,6.13,0,0,1,440.2,106H386V94Z"/>
    <path class="dp" d="M569,106H515V94h54.49a6.13,6.13,0,0,1,5.85,6.15,5.86,5.86,0,0,1-5.85,5.85"/>
    <path class="dp" d="M676,106H621V94h54.54a6.13,6.13,0,0,1,5.85,6.15,5.86,5.86,0,0,1-5.85,5.85"/>
    <path class="dp" d="M440.2,118a6.39,6.39,0,0,1,6.15,6.15A6.13,6.13,0,0,1,440.2,130H386V118Z"/>
    <path class="dp" d="M569.19,118a6.38,6.38,0,0,1,6.15,6.15,6.13,6.13,0,0,1-6.15,5.85H515V118Z"/>
    <path class="dp" d="M675.24,118a6.37,6.37,0,0,1,6.14,6.15,6.12,6.12,0,0,1-6.14,5.85H621V118Z"/>
</svg>