<svg width="80" height="21" viewBox="0 0 80 21" fill="none" xmlns="http://www.w3.org/2000/svg">
<g clip-path="url(#clip0_305_2549)">
<path d="M21.9677 16.564H36.4405C36.6239 16.5737 36.7963 16.6547 36.9209 16.7896C37.0456 16.9245 37.1126 17.1028 37.1077 17.2864C37.1099 17.4659 37.041 17.639 36.9159 17.7678C36.7909 17.8965 36.62 17.9706 36.4405 17.9737H21.9677V16.564Z" fill="#20014B"/>
<path d="M51.7122 16.564C51.9016 16.571 52.0813 16.6493 52.2153 16.7833C52.3493 16.9173 52.4277 17.0971 52.4347 17.2864C52.4262 17.4721 52.3463 17.6472 52.2116 17.7753C52.077 17.9034 51.898 17.9745 51.7122 17.9737H45.3451V16.564H51.7122Z" fill="#20014B"/>
<path d="M61.9089 16.564H79.1706C79.354 16.5737 79.5264 16.6547 79.6511 16.7896C79.7757 16.9245 79.8427 17.1028 79.8379 17.2864C79.8401 17.4659 79.7711 17.639 79.6461 17.7678C79.521 17.8965 79.3501 17.9706 79.1706 17.9737H61.9089V16.564Z" fill="#20014B"/>
<path d="M23.3773 19.3833H36.4816C36.6647 19.3942 36.8365 19.4755 36.9611 19.6101C37.0857 19.7448 37.1534 19.9224 37.15 20.1058C37.1519 20.2854 37.0827 20.4584 36.9574 20.5872C36.8322 20.7159 36.6612 20.7899 36.4816 20.793H23.3773V19.3833Z" fill="#20014B"/>
<path d="M51.7122 19.3833C51.9016 19.3903 52.0813 19.4687 52.2153 19.6027C52.3493 19.7367 52.4277 19.9164 52.4347 20.1058C52.4262 20.2914 52.3463 20.4666 52.2116 20.5946C52.077 20.7227 51.898 20.7938 51.7122 20.793H45.3451V19.3833H51.7122Z" fill="#20014B"/>
<path d="M63.3187 19.3833H79.2107C79.3939 19.3942 79.5658 19.4754 79.6906 19.61C79.8153 19.7446 79.8833 19.9222 79.8802 20.1058C79.8818 20.2855 79.8123 20.4585 79.6869 20.5872C79.5615 20.7159 79.3903 20.7899 79.2107 20.793H63.3187V19.3833Z" fill="#20014B"/>
<path d="M36.4041 0C36.5837 0.00309204 36.7547 0.0770846 36.88 0.205832C37.0052 0.33458 37.0744 0.507631 37.0725 0.687225C37.0756 0.870554 37.0078 1.048 36.8833 1.18258C36.7588 1.31717 36.5871 1.39852 36.4041 1.40969H20.558V0H36.4041Z" fill="#20014B"/>
<path d="M57.0995 0C57.2791 0.00309204 57.4501 0.0770846 57.5754 0.205832C57.7006 0.33458 57.7698 0.507631 57.7679 0.687225C57.771 0.870554 57.7032 1.048 57.5787 1.18258C57.4542 1.31717 57.2825 1.39852 57.0995 1.40969H39.8237V0H57.0995Z" fill="#20014B"/>
<path d="M66.9004 0C67.0826 0.000310602 67.2572 0.0728142 67.386 0.201627C67.5149 0.330439 67.5874 0.505057 67.5877 0.687225C67.5885 0.873053 67.5174 1.052 67.3893 1.18664C67.2612 1.32128 67.0861 1.40121 66.9004 1.40969H60.4993V0H66.9004Z" fill="#20014B"/>
<path d="M79.3586 0C79.5408 0.000310602 79.7154 0.0728142 79.8442 0.201627C79.973 0.330439 80.0455 0.505057 80.0458 0.687225C80.0466 0.873053 79.9755 1.052 79.8475 1.18664C79.7194 1.32128 79.5442 1.40121 79.3586 1.40969H72.9515V0H79.3586Z" fill="#20014B"/>
<path d="M36.4041 2.81934C36.5837 2.82243 36.7547 2.89642 36.88 3.02517C37.0052 3.15392 37.0744 3.32697 37.0725 3.50656C37.0756 3.68989 37.0078 3.86733 36.8833 4.00192C36.7588 4.13651 36.5871 4.21786 36.4041 4.22903H20.558V2.81934H36.4041Z" fill="#20014B"/>
<path d="M57.0995 2.81934C57.2791 2.82243 57.4501 2.89642 57.5754 3.02517C57.7006 3.15392 57.7698 3.32697 57.7679 3.50656C57.771 3.68989 57.7032 3.86733 57.5787 4.00192C57.4542 4.13651 57.2825 4.21786 57.0995 4.22903H39.8237V2.81934H57.0995Z" fill="#20014B"/>
<path d="M66.9004 2.81934C67.0826 2.81965 67.2572 2.89215 67.386 3.02096C67.5149 3.14977 67.5874 3.32439 67.5877 3.50656C67.5885 3.69239 67.5174 3.87133 67.3893 4.00598C67.2612 4.14062 67.0861 4.22054 66.9004 4.22903H60.4993V2.81934H66.9004Z" fill="#20014B"/>
<path d="M79.3586 2.81934C79.5408 2.81965 79.7154 2.89215 79.8442 3.02096C79.973 3.14977 80.0455 3.32439 80.0458 3.50656C80.0466 3.69239 79.9755 3.87133 79.8475 4.00598C79.7194 4.14062 79.5442 4.22054 79.3586 4.22903H72.9515V2.81934H79.3586Z" fill="#20014B"/>
<path d="M26.9239 5.52148C27.1134 5.5282 27.2933 5.60647 27.4273 5.74053C27.5614 5.87459 27.6397 6.05448 27.6464 6.24395C27.6379 6.42959 27.558 6.60476 27.4233 6.73283C27.2887 6.86091 27.1097 6.93198 26.9239 6.93118H20.558V5.52148H26.9239Z" fill="#20014B"/>
<path d="M26.8746 13.8621C27.0639 13.8688 27.2437 13.9471 27.3776 14.0812C27.5114 14.2153 27.5894 14.3952 27.5959 14.5845C27.5877 14.7701 27.508 14.9452 27.3736 15.0733C27.2391 15.2014 27.0603 15.2725 26.8746 15.2718H20.558V13.8621H26.8746Z" fill="#20014B"/>
<path d="M51.7122 5.52148C51.9016 5.52847 52.0813 5.60683 52.2153 5.74084C52.3493 5.87484 52.4277 6.05457 52.4347 6.24395C52.4262 6.42959 52.3463 6.60476 52.2116 6.73283C52.077 6.86091 51.898 6.93198 51.7122 6.93118H45.3451V5.52148H51.7122Z" fill="#20014B"/>
<path d="M66.8652 5.52148C67.0547 5.5282 67.2346 5.60647 67.3686 5.74053C67.5027 5.87459 67.581 6.05448 67.5877 6.24395C67.5792 6.42959 67.4993 6.60476 67.3646 6.73283C67.23 6.86091 67.051 6.93198 66.8652 6.93118H60.4993V5.52148H66.8652Z" fill="#20014B"/>
<path d="M79.3233 5.52148C79.5127 5.52822 79.6925 5.60653 79.8263 5.74062C79.9602 5.87471 80.0382 6.05459 80.0446 6.24395C80.0364 6.42948 79.9568 6.60465 79.8223 6.73275C79.6879 6.86086 79.5091 6.93196 79.3233 6.93118H72.9515V5.52148H79.3233Z" fill="#20014B"/>
<path d="M33.6505 8.34082C33.8302 8.3436 34.0014 8.4175 34.1267 8.54632C34.252 8.67513 34.3211 8.84836 34.3189 9.02804C34.3238 9.21186 34.2566 9.3903 34.1317 9.52527C34.0068 9.66025 33.8341 9.74108 33.6505 9.75051H20.558V8.34082H33.6505Z" fill="#20014B"/>
<path d="M51.7122 8.34082C51.9016 8.34781 52.0813 8.42617 52.2153 8.56017C52.3493 8.69418 52.4277 8.87391 52.4347 9.06329C52.4262 9.24892 52.3463 9.42409 52.2116 9.55217C52.077 9.68024 51.898 9.75131 51.7122 9.75051H45.3451V8.34082H51.7122Z" fill="#20014B"/>
<path d="M66.9004 8.34082C67.0826 8.34113 67.2572 8.41363 67.386 8.54245C67.5149 8.67126 67.5874 8.84588 67.5877 9.02804C67.5885 9.21387 67.5174 9.39282 67.3893 9.52746C67.2612 9.6621 67.0861 9.74203 66.9004 9.75051H60.4993V8.34082H66.9004Z" fill="#20014B"/>
<path d="M79.3586 8.34082C79.5408 8.34113 79.7154 8.41363 79.8442 8.54245C79.973 8.67126 80.0455 8.84588 80.0458 9.02804C80.0466 9.21387 79.9755 9.39282 79.8475 9.52746C79.7194 9.6621 79.5442 9.74203 79.3586 9.75051H72.9515V8.34082H79.3586Z" fill="#20014B"/>
<path d="M15.7416 17.9737H1.29224V16.564H15.7416C15.9287 16.5728 16.1055 16.6523 16.2363 16.7864C16.3671 16.9205 16.4422 17.0992 16.4464 17.2864C16.4418 17.4703 16.3655 17.6451 16.2338 17.7735C16.1022 17.9019 15.9255 17.9737 15.7416 17.9737Z" fill="#20014B"/>
<path d="M14.3319 20.793H1.29224V19.3833H14.3648C14.5478 19.3945 14.7194 19.4758 14.844 19.6104C14.9685 19.745 15.0363 19.9224 15.0332 20.1058C15.0351 20.2854 14.9659 20.4584 14.8406 20.5872C14.7154 20.7159 14.5444 20.7899 14.3648 20.793" fill="#20014B"/>
<path d="M15.8003 0C15.9799 0.00309204 16.1509 0.0770846 16.2762 0.205832C16.4014 0.33458 16.4706 0.507631 16.4687 0.687225C16.4718 0.870554 16.404 1.048 16.2795 1.18258C16.155 1.31717 15.9833 1.39852 15.8003 1.40969H2.7019V0H15.8003Z" fill="#20014B"/>
<path d="M15.7592 2.81934C15.9389 2.82243 16.1101 2.89638 16.2355 3.0251C16.3609 3.15381 16.4304 3.32686 16.4288 3.50656C16.4318 3.69008 16.3639 3.86769 16.2391 4.00231C16.1144 4.13692 15.9424 4.21815 15.7592 4.22903H1.29224V2.81934H15.7592Z" fill="#20014B"/>
<path d="M6.31659 5.52148C6.50595 5.52822 6.6857 5.60653 6.81957 5.74062C6.95344 5.87471 7.03146 6.05459 7.03789 6.24395C7.02969 6.42948 6.95003 6.60465 6.81557 6.73275C6.68112 6.86086 6.5023 6.93196 6.31659 6.93118H0V5.52148H6.31659Z" fill="#20014B"/>
<path d="M17.291 13.8621C17.4805 13.8688 17.6603 13.947 17.7944 14.0811C17.9285 14.2152 18.0067 14.3951 18.0134 14.5845C18.005 14.7702 17.925 14.9453 17.7904 15.0734C17.6558 15.2015 17.4768 15.2726 17.291 15.2718H10.925V13.8621H17.291Z" fill="#20014B"/>
<path d="M14.366 8.34082C14.5459 8.3433 14.7176 8.41702 14.8433 8.54583C14.9691 8.67465 15.0386 8.84805 15.0367 9.02804C15.0398 9.21176 14.9717 9.38953 14.8466 9.52418C14.7216 9.65883 14.5494 9.73993 14.366 9.75051H1.29224V8.34082H14.366Z" fill="#20014B"/>
<path d="M15.859 12.4524H2.7019V11.0427H15.8062C15.9894 11.0536 16.1613 11.1348 16.2861 11.2694C16.4109 11.4041 16.4788 11.5817 16.4758 11.7652C16.4773 11.9449 16.4079 12.1179 16.2824 12.2467C16.157 12.3754 15.9858 12.4493 15.8062 12.4524" fill="#20014B"/>
<path d="M33.5976 12.4524H20.558V11.0427H33.6505C33.8341 11.0522 34.0068 11.133 34.1317 11.268C34.2566 11.4029 34.3238 11.5814 34.3189 11.7652C34.3211 11.9449 34.252 12.1181 34.1267 12.2469C34.0014 12.3757 33.8302 12.4496 33.6505 12.4524" fill="#20014B"/>
<path d="M51.7122 11.0427C51.9016 11.0497 52.0813 11.1281 52.2153 11.2621C52.3493 11.3961 52.4277 11.5758 52.4347 11.7652C52.4262 11.9508 52.3463 12.126 52.2116 12.2541C52.077 12.3821 51.898 12.4532 51.7122 12.4524H45.3451V11.0427H51.7122Z" fill="#20014B"/>
<path d="M66.8429 12.4524H60.4993V11.0427H66.9004C67.0861 11.0512 67.2612 11.1311 67.3893 11.2658C67.5174 11.4004 67.5885 11.5794 67.5877 11.7652C67.5874 11.9474 67.5149 12.122 67.386 12.2508C67.2572 12.3796 67.0826 12.4521 66.9004 12.4524" fill="#20014B"/>
<path d="M79.4126 12.4524H72.9515V11.0427H79.3586C79.5442 11.0512 79.7194 11.1311 79.8475 11.2658C79.9755 11.4004 80.0466 11.5794 80.0458 11.7652C80.0455 11.9474 79.973 12.122 79.8442 12.2508C79.7154 12.3796 79.5408 12.4521 79.3586 12.4524" fill="#20014B"/>
<path d="M51.7122 13.8621C51.9016 13.869 52.0813 13.9474 52.2153 14.0814C52.3493 14.2154 52.4277 14.3951 52.4347 14.5845C52.4262 14.7702 52.3463 14.9453 52.2116 15.0734C52.077 15.2015 51.898 15.2726 51.7122 15.2718H45.3451V13.8621H51.7122Z" fill="#20014B"/>
<path d="M66.8652 13.8621C67.0547 13.8688 67.2346 13.947 67.3686 14.0811C67.5027 14.2152 67.581 14.3951 67.5877 14.5845C67.5792 14.7702 67.4993 14.9453 67.3646 15.0734C67.23 15.2015 67.051 15.2726 66.8652 15.2718H60.4993V13.8621H66.8652Z" fill="#20014B"/>
<path d="M79.3233 13.8621C79.5127 13.8688 79.6925 13.9471 79.8263 14.0812C79.9602 14.2153 80.0382 14.3952 80.0446 14.5845C80.0364 14.7701 79.9568 14.9452 79.8223 15.0733C79.6879 15.2014 79.5091 15.2725 79.3233 15.2718H72.9515V13.8621H79.3233Z" fill="#20014B"/>
</g>
<defs>
<clipPath id="clip0_305_2549">
<rect width="80" height="20.793" fill="white"/>
</clipPath>
</defs>
</svg>
