<svg width="24" height="25" viewBox="0 0 24 25" fill="none" xmlns="http://www.w3.org/2000/svg">
<path fill-rule="evenodd" clip-rule="evenodd" d="M7 3.68848C4.79086 3.68848 3 5.47934 3 7.68848V17.6885C3 19.8976 4.79086 21.6885 7 21.6885H16V19.6885H7C5.89543 19.6885 5 18.793 5 17.6885V7.68848C5 6.58391 5.89543 5.68848 7 5.68848H17C18.1046 5.68848 19 6.58391 19 7.68848V10.704H21V7.68848C21 5.47934 19.2091 3.68848 17 3.68848H7ZM18.6385 15.7343C18.6385 15.1724 19.0958 14.7195 19.6385 14.7195H19.8288C20.2823 14.7195 20.6499 15.0871 20.6499 15.5406C20.6499 15.7992 20.5281 16.0427 20.3211 16.1978L19.6866 16.673C18.9302 17.2395 18.485 18.1292 18.485 19.0742V20.1772H20.485V19.0742C20.485 18.7592 20.6334 18.4626 20.8855 18.2738L21.52 17.7986C22.2313 17.2659 22.6499 16.4292 22.6499 15.5406C22.6499 13.9825 21.3869 12.7195 19.8288 12.7195H19.6385C17.9721 12.7195 16.6385 14.0871 16.6385 15.7343H18.6385ZM20.5713 22.1781C20.5713 22.7856 20.0789 23.2781 19.4713 23.2781C18.8638 23.2781 18.3713 22.7856 18.3713 22.1781C18.3713 21.5706 18.8638 21.0781 19.4713 21.0781C20.0789 21.0781 20.5713 21.5706 20.5713 22.1781ZM14.3821 9.96094H13.1515C13.2609 10.157 13.332 10.3682 13.3831 10.572H14.9478L14.3822 11.8445H13.4455C13.1732 13.1277 11.8492 13.6043 11.1109 13.6802L13.9812 16.6885H12.0573L9.38159 13.7991V12.5345C10.8749 12.6658 11.4477 12.2993 11.6671 11.8445H9.05225L9.63033 10.572H11.6819C11.497 10.1987 11.133 10.0297 10.7675 9.96094H9.05212L9.6302 8.68848H14.9477L14.3821 9.96094Z" fill="#101010"/>
</svg>
