<svg width="25" height="25" viewBox="0 0 25 25" fill="none" xmlns="http://www.w3.org/2000/svg">
<path fill-rule="evenodd" clip-rule="evenodd" d="M11.1851 5.0594C12.9053 4.68149 14.7021 4.88178 16.2969 5.62921C17.4932 6.18991 18.5257 7.03502 19.3089 8.08249L17.7307 7.80422L17.3834 9.77384L22.3075 10.6421L23.1757 5.71804L21.2061 5.37074L20.9337 6.91579C19.9519 5.59215 18.6528 4.52464 17.1457 3.81825C15.1522 2.88396 12.9062 2.63359 10.756 3.10599C8.60576 3.57839 6.67152 4.74714 5.25329 6.43096C3.83506 8.11478 3.01212 10.2196 2.91211 12.4188L4.91004 12.5096C4.9157 12.3853 4.92425 12.2613 4.93565 12.1377L4.94285 12.1384C4.9664 11.8745 5.00309 11.6115 5.05292 11.3504L5.0482 11.3495C5.30656 10.0177 5.90083 8.76675 6.78299 7.71938C7.91758 6.37233 9.46497 5.43732 11.1851 5.0594ZM2.97158 13.9472C3.00792 14.2763 3.06066 14.6041 3.12977 14.9291C3.19888 15.2542 3.28403 15.5751 3.38472 15.8905L5.29001 15.2823C5.20946 15.03 5.14134 14.7733 5.08605 14.5132C5.03076 14.2532 4.98857 13.991 4.9595 13.7277L2.97158 13.9472ZM21.4672 18.0261C21.6392 17.7417 21.7966 17.4495 21.9391 17.1505L20.1335 16.2904C20.0195 16.5295 19.8936 16.7633 19.756 16.9908C19.6183 17.2183 19.4697 17.4383 19.3107 17.6502L20.9106 18.8504C21.1093 18.5855 21.2951 18.3104 21.4672 18.0261ZM4.17388 17.7138C4.33494 18.0031 4.51057 18.2848 4.70028 18.5577C4.88999 18.8306 5.09283 19.0933 5.30791 19.3451L6.82856 18.046C6.6565 17.8446 6.49423 17.6344 6.34246 17.4161C6.19069 17.1978 6.05019 16.9724 5.92134 16.741L4.17388 17.7138ZM18.7921 20.9376C19.0609 20.7421 19.3193 20.5338 19.5665 20.3134L18.2354 18.8206C18.0377 18.9969 17.831 19.1636 17.6159 19.32C17.4009 19.4764 17.1786 19.6216 16.9499 19.7554L17.9596 21.4818C18.2454 21.3146 18.5233 21.133 18.7921 20.9376ZM6.74206 20.72C7.00266 20.9243 7.27374 21.1159 7.55439 21.2939C7.83504 21.4719 8.12386 21.6355 8.41971 21.7843L9.318 19.9973C9.08132 19.8784 8.85027 19.7475 8.62574 19.605C8.40122 19.4626 8.18436 19.3093 7.97588 19.1459L6.74206 20.72ZM15.1977 22.5847C15.5213 22.5087 15.8403 22.4168 16.1535 22.3094L15.505 20.4175C15.2544 20.5034 14.9993 20.5769 14.7404 20.6377C14.4816 20.6985 14.2204 20.7463 13.9577 20.7809L14.2194 22.7637C14.5477 22.7204 14.8742 22.6607 15.1977 22.5847ZM10.2746 22.4958C10.594 22.5831 10.9182 22.6547 11.2459 22.71C11.5736 22.7654 11.9033 22.8043 12.2336 22.8267L12.3691 20.8313C12.1049 20.8133 11.8411 20.7822 11.579 20.738C11.3168 20.6937 11.0575 20.6365 10.8019 20.5666L10.2746 22.4958ZM13.895 8.8498V11.8498H16.895V13.8498H11.895V8.8498H13.895Z" fill="#F19E0C"/>
</svg>
