<svg width="24" height="24" viewBox="0 0 24 24" fill="none" xmlns="http://www.w3.org/2000/svg">
<path fill-rule="evenodd" clip-rule="evenodd" d="M10.2901 4.20967C12.0103 3.83175 13.8071 4.03204 15.4019 4.77948C16.5982 5.34018 17.6306 6.18529 18.4138 7.23276L16.8357 6.95449L16.4884 8.92411L21.4125 9.79235L22.2807 4.86831L20.3111 4.52101L20.0386 6.06606C19.0569 4.74242 17.7578 3.67491 16.2506 2.96851C14.2572 2.03422 12.0112 1.78386 9.86097 2.25626C7.71075 2.72866 5.7765 3.89741 4.35827 5.58123C2.94004 7.26505 2.1171 9.36982 2.01709 11.5691L4.01503 11.6599C4.02068 11.5355 4.02923 11.4115 4.04063 11.288L4.04783 11.2887C4.07138 11.0248 4.10807 10.7618 4.1579 10.5006L4.15318 10.4997C4.41154 9.16796 5.00581 7.91702 5.88797 6.86965C7.02256 5.52259 8.56995 4.58759 10.2901 4.20967ZM2.07656 13.0975C2.1129 13.4266 2.16564 13.7543 2.23475 14.0794C2.30386 14.4045 2.38901 14.7253 2.4897 15.0408L4.39499 14.4326C4.31444 14.1803 4.24632 13.9236 4.19103 13.6635C4.13574 13.4034 4.09355 13.1413 4.06448 12.878L2.07656 13.0975ZM20.5721 17.1763C20.7442 16.892 20.9016 16.5997 21.044 16.3008L19.2385 15.4406C19.1245 15.6798 18.9986 15.9136 18.8609 16.141C18.7233 16.3685 18.5747 16.5886 18.4157 16.8005L20.0156 18.0006C20.2143 17.7358 20.4001 17.4607 20.5721 17.1763ZM3.27886 16.8641C3.43992 17.1534 3.61555 17.4351 3.80526 17.7079C3.99497 17.9808 4.19781 18.2436 4.41289 18.4954L5.93354 17.1963C5.76148 16.9949 5.59921 16.7847 5.44744 16.5663C5.29567 16.348 5.15517 16.1227 5.02632 15.8912L3.27886 16.8641ZM17.8971 20.0878C18.1659 19.8924 18.4243 19.684 18.6715 19.4636L17.3404 17.9709C17.1427 18.1472 16.936 18.3139 16.7209 18.4703C16.5059 18.6266 16.2836 18.7719 16.0549 18.9056L17.0646 20.632C17.3504 20.4649 17.6283 20.2833 17.8971 20.0878ZM5.84704 19.8703C6.10764 20.0745 6.37872 20.2661 6.65937 20.4442C6.94002 20.6222 7.22884 20.7858 7.52469 20.9345L8.42298 19.1476C8.1863 19.0286 7.95525 18.8977 7.73072 18.7553C7.5062 18.6129 7.28934 18.4596 7.08086 18.2962L5.84704 19.8703ZM14.3027 21.735C14.6263 21.659 14.9452 21.5671 15.2585 21.4597L14.61 19.5678C14.3594 19.6536 14.1043 19.7272 13.8454 19.788C13.5866 19.8488 13.3253 19.8965 13.0627 19.9312L13.3244 21.914C13.6526 21.8707 13.9792 21.811 14.3027 21.735ZM9.37962 21.6461C9.69903 21.7334 10.0232 21.805 10.3509 21.8603C10.6786 21.9157 11.0083 21.9545 11.3386 21.977L11.4741 19.9816C11.2098 19.9636 10.9461 19.9325 10.6839 19.8882C10.4218 19.844 10.1624 19.7867 9.90692 19.7169L9.37962 21.6461ZM13 8.00007V11.0001H16V13.0001H11V8.00007H13Z" fill="#F19E0C"/>
</svg>
