<svg width="25" height="25" viewBox="0 0 25 25" fill="none" xmlns="http://www.w3.org/2000/svg">
<path fill-rule="evenodd" clip-rule="evenodd" d="M10.3455 4.89803C12.0657 4.52011 13.8625 4.7204 15.4573 5.46783C16.6536 6.02854 17.6861 6.87364 18.4693 7.92111L16.8911 7.64285L16.5438 9.61246L21.4679 10.4807L22.3361 5.55666L20.3665 5.20937L20.0941 6.75441C19.1123 5.43078 17.8132 4.36327 16.3061 3.65687C14.3126 2.72258 12.0666 2.47222 9.91639 2.94461C7.76617 3.41701 5.83192 4.58577 4.41369 6.26959C2.99546 7.95341 2.17252 10.0582 2.07251 12.2574L4.07045 12.3483C4.0761 12.2239 4.08465 12.0999 4.09605 11.9764L4.10325 11.977C4.1268 11.7132 4.16349 11.4502 4.21332 11.189L4.2086 11.1881C4.46696 9.85632 5.06123 8.60537 5.94339 7.55801C7.07798 6.21095 8.62537 5.27595 10.3455 4.89803ZM2.13198 13.7858C2.16832 14.115 2.22106 14.4427 2.29017 14.7678C2.35928 15.0929 2.44443 15.4137 2.54512 15.7291L4.45041 15.121C4.36986 14.8686 4.30174 14.6119 4.24645 14.3519C4.19116 14.0918 4.14897 13.8296 4.1199 13.5663L2.13198 13.7858ZM21.7715 15.1195C21.852 14.7983 21.9167 14.4728 21.9651 14.1439L19.9864 13.8528C19.9477 14.1159 19.8959 14.3763 19.8315 14.6333L21.7715 15.1195ZM20.6276 17.8647C20.7996 17.5803 20.957 17.2881 21.0995 16.9891L19.2939 16.129C19.1799 16.3681 19.054 16.6019 18.9164 16.8294C18.7787 17.0569 18.6301 17.277 18.4711 17.4889L20.071 18.689C20.2697 18.4241 20.4555 18.149 20.6276 17.8647ZM3.33428 17.5524C3.49534 17.8417 3.67097 18.1234 3.86068 18.3963C4.05039 18.6692 4.25323 18.9319 4.46831 19.1837L5.98896 17.8846C5.8169 17.6832 5.65463 17.473 5.50286 17.2547C5.35109 17.0364 5.21059 16.811 5.08174 16.5796L3.33428 17.5524ZM17.9525 20.7762C18.2213 20.5807 18.4797 20.3724 18.7269 20.152L17.3958 18.6593C17.1981 18.8356 16.9914 19.0023 16.7763 19.1586C16.5613 19.315 16.339 19.4602 16.1103 19.594L17.12 21.3204C17.4058 21.1532 17.6837 20.9717 17.9525 20.7762ZM5.90246 20.5586C6.16306 20.7629 6.43414 20.9545 6.71479 21.1325C6.99544 21.3106 7.28426 21.4742 7.58011 21.6229L8.4784 19.836C8.24172 19.717 8.01067 19.5861 7.78614 19.4437C7.56162 19.3012 7.34476 19.148 7.13628 18.9846L5.90246 20.5586ZM14.3581 22.4234C14.6817 22.3474 15.0007 22.2554 15.3139 22.1481L14.6654 20.2561C14.4148 20.342 14.1597 20.4156 13.9008 20.4763C13.642 20.5371 13.3808 20.5849 13.1181 20.6195L13.3798 22.6024C13.7081 22.559 14.0346 22.4994 14.3581 22.4234ZM9.43504 22.3345C9.75445 22.4218 10.0786 22.4933 10.4063 22.5487C10.734 22.604 11.0637 22.6429 11.394 22.6653L11.5295 20.6699C11.2653 20.652 11.0015 20.6209 10.7394 20.5766C10.4772 20.5323 10.2179 20.4751 9.96234 20.4052L9.43504 22.3345ZM13.0554 8.68842V11.6884H16.0554V13.6884H11.0554V8.68842H13.0554Z" fill="#F19E0C"/>
</svg>
