<svg width="24" height="24" viewBox="0 0 24 24" fill="none" xmlns="http://www.w3.org/2000/svg">
<path fill-rule="evenodd" clip-rule="evenodd" d="M7 3C4.79086 3 3 4.79086 3 7V9H5V7C5 5.89543 5.89543 5 7 5H9V3H7ZM17 3H15V5H17C18.1046 5 19 5.89543 19 7V9H21V7C21 4.79086 19.2091 3 17 3ZM5 17V15H3V17C3 19.2091 4.79086 21 7 21H9V19H7C5.89543 19 5 18.1046 5 17ZM17 21C19.2091 21 21 19.2091 21 17V15H19V17C19 18.1046 18.1046 19 17 19H15V21H17ZM6.75 7.5C6.75 7.08579 7.08579 6.75 7.5 6.75H10.5C10.9142 6.75 11.25 7.08579 11.25 7.5V10.5C11.25 10.9142 10.9142 11.25 10.5 11.25H7.5C7.08579 11.25 6.75 10.9142 6.75 10.5V7.5ZM12.75 7.5C12.75 7.08579 13.0858 6.75 13.5 6.75H16.5C16.9142 6.75 17.25 7.08579 17.25 7.5V10.5C17.25 10.9142 16.9142 11.25 16.5 11.25H13.5C13.0858 11.25 12.75 10.9142 12.75 10.5V7.5ZM7.5 12.75C7.08579 12.75 6.75 13.0858 6.75 13.5V16.5C6.75 16.9142 7.08579 17.25 7.5 17.25H10.5C10.9142 17.25 11.25 16.9142 11.25 16.5V13.5C11.25 13.0858 10.9142 12.75 10.5 12.75H7.5ZM8.25 8.25V9.75H9.75V8.25H8.25ZM12.75 13.5C12.75 13.0858 13.0858 12.75 13.5 12.75H16C16.4142 12.75 16.75 13.0858 16.75 13.5V16C16.75 16.4142 16.4142 16.75 16 16.75H13.5C13.0858 16.75 12.75 16.4142 12.75 16V13.5ZM14.25 8.25V9.75H15.75V8.25H14.25ZM14.25 14.25V15.25H15.25V14.25H14.25ZM8.25 15.75V14.25H9.75V15.75H8.25Z" fill="#101010"/>
</svg>
