<svg width="24" height="25" viewBox="0 0 24 25" fill="none" xmlns="http://www.w3.org/2000/svg">
<path fill-rule="evenodd" clip-rule="evenodd" d="M7 3.68848C4.79086 3.68848 3 5.47934 3 7.68848V9.68848H5V7.68848C5 6.58391 5.89543 5.68848 7 5.68848H9V3.68848H7ZM17 3.68848H15V5.68848H17C18.1046 5.68848 19 6.58391 19 7.68848V9.68848H21V7.68848C21 5.47934 19.2091 3.68848 17 3.68848ZM5 17.6885V15.6885H3V17.6885C3 19.8976 4.79086 21.6885 7 21.6885H9V19.6885H7C5.89543 19.6885 5 18.793 5 17.6885ZM17 21.6885C19.2091 21.6885 21 19.8976 21 17.6885V15.6885H19V17.6885C19 18.793 18.1046 19.6885 17 19.6885H15V21.6885H17ZM6.75 8.18848C6.75 7.77426 7.08579 7.43848 7.5 7.43848H10.5C10.9142 7.43848 11.25 7.77426 11.25 8.18848V11.1885C11.25 11.6027 10.9142 11.9385 10.5 11.9385H7.5C7.08579 11.9385 6.75 11.6027 6.75 11.1885V8.18848ZM12.75 8.18848C12.75 7.77426 13.0858 7.43848 13.5 7.43848H16.5C16.9142 7.43848 17.25 7.77426 17.25 8.18848V11.1885C17.25 11.6027 16.9142 11.9385 16.5 11.9385H13.5C13.0858 11.9385 12.75 11.6027 12.75 11.1885V8.18848ZM7.5 13.4385C7.08579 13.4385 6.75 13.7743 6.75 14.1885V17.1885C6.75 17.6027 7.08579 17.9385 7.5 17.9385H10.5C10.9142 17.9385 11.25 17.6027 11.25 17.1885V14.1885C11.25 13.7743 10.9142 13.4385 10.5 13.4385H7.5ZM8.25 8.93848V10.4385H9.75V8.93848H8.25ZM12.75 14.1885C12.75 13.7743 13.0858 13.4385 13.5 13.4385H16C16.4142 13.4385 16.75 13.7743 16.75 14.1885V16.6885C16.75 17.1027 16.4142 17.4385 16 17.4385H13.5C13.0858 17.4385 12.75 17.1027 12.75 16.6885V14.1885ZM14.25 8.93848V10.4385H15.75V8.93848H14.25ZM14.25 14.9385V15.9385H15.25V14.9385H14.25ZM8.25 16.4385V14.9385H9.75V16.4385H8.25Z" fill="#101010"/>
</svg>
