<svg width="24" height="24" viewBox="0 0 24 24" fill="none" xmlns="http://www.w3.org/2000/svg">
<path fill-rule="evenodd" clip-rule="evenodd" d="M20.0005 6.58114L22.5314 4.0502L23.9456 5.46442L19.703 9.70706C19.3125 10.0976 18.6793 10.0976 18.2888 9.70706L14.0461 5.46442L15.4604 4.0502L18.0005 6.59034V1.0152H20.0005V6.58114ZM5.99585 9.00006C5.99585 7.89549 6.89128 7.00006 7.99585 7.00006H12.0177V5.00006H7.99585C5.78671 5.00006 3.99585 6.79092 3.99585 9.00006V17.0001C3.99585 19.2092 5.78671 21.0001 7.99585 21.0001H15.9958C18.205 21.0001 19.9958 19.2092 19.9958 17.0001V13.0001H17.9958V17.0001C17.9958 18.1046 17.1004 19.0001 15.9958 19.0001H7.99585C6.89128 19.0001 5.99585 18.1046 5.99585 17.0001V9.00006ZM15.4795 9.00006H10.1621L9.58398 10.2725H11.2994C11.701 10.348 12.1007 10.5445 12.2632 11.0001H10.1621L9.58398 12.2725H12.1333C11.873 12.6709 11.2769 12.966 9.91357 12.8461V14.1106L12.5893 17H14.5131L11.6429 13.9918C12.3584 13.9182 13.624 13.4683 13.9493 12.2725H14.9139L15.4795 11.0001H13.9424C13.8899 10.7615 13.8139 10.5062 13.6834 10.2725H14.9139L15.4795 9.00006Z" fill="#101010"/>
</svg>
