<svg width="24" height="24" viewBox="0 0 24 24" fill="none" xmlns="http://www.w3.org/2000/svg">
<path fill-rule="evenodd" clip-rule="evenodd" d="M18.0005 4.16694L15.4604 6.70707L14.0461 5.29286L18.2888 1.05022C18.6793 0.659693 19.3125 0.659693 19.703 1.05022L23.9456 5.29286L22.5314 6.70707L20.0005 4.17614V9.99592H18.0005V4.16694ZM5.99585 8.99989C5.99585 7.89532 6.89128 6.99989 7.99585 6.99989H12.0094V4.99989H7.99585C5.78671 4.99989 3.99585 6.79075 3.99585 8.99989V16.9999C3.99585 19.209 5.78671 20.9999 7.99585 20.9999H15.9958C18.205 20.9999 19.9958 19.209 19.9958 16.9999V12.9999H17.9958V16.9999C17.9958 18.1045 17.1004 18.9999 15.9958 18.9999H7.99585C6.89128 18.9999 5.99585 18.1045 5.99585 16.9999V8.99989ZM15.4795 8.99989H10.1621L9.58398 10.2723H11.2994C11.701 10.3479 12.1007 10.5443 12.2632 10.9999H10.1621L9.58398 12.2723H12.1333C11.873 12.6707 11.2769 12.9658 9.91357 12.8459V14.1105L12.5893 16.9999H14.5131L11.6429 13.9916C12.3584 13.918 13.624 13.4681 13.9493 12.2723H14.9139L15.4795 10.9999H13.9424C13.8899 10.7613 13.8139 10.506 13.6834 10.2723H14.9139L15.4795 8.99989Z" fill="#101010"/>
</svg>
