<svg width="24" height="25" viewBox="0 0 24 25" fill="none" xmlns="http://www.w3.org/2000/svg">
<path fill-rule="evenodd" clip-rule="evenodd" d="M18.0005 4.85542L15.4604 7.39555L14.0461 5.98133L18.2888 1.73869C18.6793 1.34817 19.3125 1.34817 19.703 1.73869L23.9456 5.98133L22.5314 7.39555L20.0005 4.86461V10.6844H18.0005V4.85542ZM5.99585 9.68837C5.99585 8.5838 6.89128 7.68837 7.99585 7.68837H12.0094V5.68837H7.99585C5.78671 5.68837 3.99585 7.47923 3.99585 9.68837V17.6884C3.99585 19.8975 5.78671 21.6884 7.99585 21.6884H15.9958C18.205 21.6884 19.9958 19.8975 19.9958 17.6884V13.6884H17.9958V17.6884C17.9958 18.7929 17.1004 19.6884 15.9958 19.6884H7.99585C6.89128 19.6884 5.99585 18.7929 5.99585 17.6884V9.68837ZM15.4795 9.68837H10.1621L9.58398 10.9608H11.2994C11.701 11.0363 12.1007 11.2328 12.2632 11.6884H10.1621L9.58398 12.9608H12.1333C11.873 13.3592 11.2769 13.6543 9.91357 13.5344V14.799L12.5893 17.6883H14.5131L11.6429 14.6801C12.3584 14.6065 13.624 14.1566 13.9493 12.9608H14.9139L15.4795 11.6884H13.9424C13.8899 11.4498 13.8139 11.1945 13.6834 10.9608H14.9139L15.4795 9.68837Z" fill="#101010"/>
</svg>
