<svg width="24" height="25" viewBox="0 0 24 25" fill="none" xmlns="http://www.w3.org/2000/svg">
<path fill-rule="evenodd" clip-rule="evenodd" d="M8 2.68799C5.79086 2.68799 4 4.47885 4 6.68799L2 6.68799V8.68799H4V11.688H2V13.688H4V16.688H2V18.688H4C4 20.8971 5.79086 22.688 8 22.688H16C18.2091 22.688 20 20.8971 20 18.688V6.68799C20 4.47885 18.2091 2.68799 16 2.68799H8ZM6 6.68799C6 5.58342 6.89543 4.68799 8 4.68799H16C17.1046 4.68799 18 5.58342 18 6.68799V18.688C18 19.7926 17.1046 20.688 16 20.688H8C6.89543 20.688 6 19.7926 6 18.688V6.68799ZM13.1043 7.96094H14.3349L14.9006 6.68848H9.58308L9.005 7.96094H10.7203C11.086 8.02969 11.45 8.19873 11.6349 8.57227H9.5832L9.00513 9.84472H11.6198C11.4003 10.2994 10.8274 10.6658 9.33447 10.5345V11.7991L12.0102 14.6885H13.934L11.0638 11.6802C11.802 11.6043 13.1259 11.1277 13.3983 9.84472H14.335L14.9007 8.57227H13.336C13.285 8.36838 13.2138 8.15704 13.1043 7.96094ZM9 18.688H15V16.688H9V18.688Z" fill="#101010"/>
</svg>
