<svg width="25" height="25" viewBox="0 0 25 25" fill="none" xmlns="http://www.w3.org/2000/svg">
<path fill-rule="evenodd" clip-rule="evenodd" d="M11.7543 1.99092C11.9807 1.90602 12.2302 1.90602 12.4566 1.99092L20.4566 4.99092C20.8469 5.13728 21.1055 5.5104 21.1055 5.92725V8.80811C21.1055 9.36039 20.6578 9.80811 20.1055 9.80811H19.1055V15.8081H20.1055C20.6578 15.8081 21.1055 16.2558 21.1055 16.8081V20.8081C21.1055 21.3604 20.6578 21.8081 20.1055 21.8081H4.10547C3.55318 21.8081 3.10547 21.3604 3.10547 20.8081V16.8081C3.10547 16.2558 3.55318 15.8081 4.10547 15.8081H5.10547V9.80811H4.10547C3.55318 9.80811 3.10547 9.36039 3.10547 8.80811V5.92725C3.10547 5.5104 3.36404 5.13728 3.75435 4.99092L11.7543 1.99092ZM7.10547 9.80811V15.8081H11.1055V9.80811H7.10547ZM13.1055 9.80811V15.8081H17.1055V9.80811H13.1055ZM5.10547 6.62025V7.80811H19.1055V6.62025L12.1055 3.99525L5.10547 6.62025ZM5.10547 17.8081V19.8081H19.1055V17.8081H5.10547Z" fill="#101010"/>
</svg>
