<svg width="25" height="25" viewBox="0 0 25 25" fill="none" xmlns="http://www.w3.org/2000/svg">
<circle cx="12.1584" cy="12.8081" r="10" fill="#FD5154"/>
<path fill-rule="evenodd" clip-rule="evenodd" d="M8.25075 10.3346C7.85898 9.94531 7.85697 9.31215 8.24625 8.92039C8.63553 8.52862 9.2687 8.52661 9.66046 8.91589L12.1588 11.3984L14.6566 8.91638C15.0483 8.5271 15.6815 8.52911 16.0708 8.92088C16.4601 9.31264 16.458 9.9458 16.0663 10.3351L13.5775 12.8081L16.0663 15.2812C16.4581 15.6705 16.4601 16.3036 16.0708 16.6954C15.6815 17.0871 15.0484 17.0892 14.6566 16.6999L12.1588 14.2178L9.66042 16.7004C9.26866 17.0896 8.6355 17.0876 8.24622 16.6959C7.85693 16.3041 7.85895 15.6709 8.25071 15.2817L10.74 12.8081L8.25075 10.3346Z" fill="white"/>
</svg>
