<svg width="24" height="25" viewBox="0 0 24 25" fill="none" xmlns="http://www.w3.org/2000/svg">
<path fill-rule="evenodd" clip-rule="evenodd" d="M10.2902 5.17854C12.0104 4.80063 13.8072 5.00092 15.4019 5.74835C16.5983 6.30905 17.6307 7.15416 18.4139 8.20163L16.8358 7.92337C16.2919 7.82746 15.7732 8.19063 15.6773 8.73453C15.5814 9.27842 15.9446 9.79708 16.4885 9.89298L20.4277 10.5876C20.9716 10.6835 21.4903 10.3203 21.5862 9.77642L22.2808 5.83719C22.3767 5.29329 22.0135 4.77463 21.4696 4.67873C20.9257 4.58283 20.4071 4.946 20.3111 5.48989L20.0387 7.03493C19.057 5.71129 17.7579 4.64378 16.2507 3.93739C14.2573 3.0031 12.0113 2.75273 9.86105 3.22513C7.71082 3.69753 5.77658 4.86628 4.35835 6.5501C2.94012 8.23392 2.11717 10.3387 2.01716 12.5379C1.99208 13.0896 2.41899 13.5572 2.97071 13.5823C3.52242 13.6074 3.99001 13.1805 4.0151 12.6288C4.0171 12.5848 4.01946 12.5409 4.02218 12.497C4.02886 12.4716 4.03325 12.4452 4.03512 12.4181C4.03694 12.3918 4.03631 12.3658 4.03343 12.3404C4.16865 10.686 4.8156 9.1118 5.88805 7.83852C7.02263 6.49147 8.57002 5.55646 10.2902 5.17854ZM3.15629 14.5793C2.61562 14.6775 2.25213 15.1975 2.40362 15.7257C2.55511 16.2539 3.13891 16.5022 3.64948 16.299L3.84365 16.2217C4.25211 16.0591 4.44731 15.5969 4.32612 15.1744C4.20493 14.7518 3.79444 14.4633 3.3619 14.5419L3.15629 14.5793ZM20.9124 17.5359C21.1633 17.047 20.9075 16.4665 20.3961 16.2654L20.2016 16.1889C19.7925 16.0279 19.3339 16.2314 19.1331 16.6225C18.9324 17.0136 19.0343 17.5049 19.4035 17.7435L19.579 17.857C20.0406 18.1552 20.6614 18.0248 20.9124 17.5359ZM4.47292 17.8873C4.0126 18.1874 3.87904 18.8076 4.22342 19.2358C4.5678 19.6641 5.2022 19.6667 5.5941 19.2815L5.74314 19.135C6.05666 18.8268 6.05747 18.3251 5.78196 17.9825C5.50646 17.6399 5.01624 17.533 4.64798 17.7731L4.47292 17.8873ZM18.447 20.6269C18.8678 20.2736 18.8569 19.6392 18.4635 19.2556L18.3138 19.1097C17.9991 18.8028 17.4975 18.8126 17.1608 19.0954C16.8241 19.3781 16.7277 19.8704 16.9756 20.2335L17.0934 20.4061C17.4032 20.86 18.0261 20.9803 18.447 20.6269ZM6.96877 20.4264C6.66075 20.8815 6.778 21.505 7.26144 21.7663C7.74488 22.0276 8.33069 21.7841 8.54266 21.2771L8.62327 21.0843C8.79284 20.6787 8.59913 20.2159 8.21238 20.0068C7.82562 19.7978 7.33231 19.8893 7.0859 20.2534L6.96877 20.4264ZM14.9762 22.5208C15.5011 22.3582 15.7369 21.7692 15.5229 21.2631L15.4416 21.0706C15.2704 20.6657 14.8041 20.4803 14.3842 20.6105C13.9643 20.7406 13.6846 21.1571 13.7723 21.5879L13.8141 21.7927C13.9238 22.3311 14.4513 22.6835 14.9762 22.5208ZM10.2537 21.7998C10.1461 22.3387 10.4958 22.868 11.0427 22.9215C11.5897 22.975 12.0353 22.5235 12.0342 21.9739L12.0338 21.765C12.0329 21.3253 11.675 20.9738 11.2374 20.931C10.7999 20.8882 10.3806 21.1637 10.2946 21.5949L10.2537 21.7998ZM13 9.96875V11.9688H15C15.5523 11.9688 16 12.4165 16 12.9688C16 13.521 15.5523 13.9688 15 13.9688H12C11.4477 13.9688 11 13.521 11 12.9688V9.96875C11 9.41647 11.4477 8.96875 12 8.96875C12.5523 8.96875 13 9.41647 13 9.96875Z" fill="#F19E0C"/>
</svg>
