<svg width="24" height="24" viewBox="0 0 24 24" fill="none" xmlns="http://www.w3.org/2000/svg">
<path fill-rule="evenodd" clip-rule="evenodd" d="M10.2709 4.21977C11.9911 3.84185 13.7879 4.04215 15.3826 4.78958C16.579 5.35028 17.6114 6.19539 18.3946 7.24286L16.8165 6.9646C16.2726 6.86869 15.7539 7.23186 15.658 7.77576C15.5621 8.31965 15.9253 8.83831 16.4692 8.93421L20.4084 9.62881C20.9523 9.72471 21.471 9.36154 21.5669 8.81765L22.2615 4.87842C22.3574 4.33452 21.9942 3.81586 21.4503 3.71996C20.9064 3.62406 20.3878 3.98722 20.2919 4.53112L20.0194 6.07616C19.0377 4.75252 17.7386 3.68501 16.2314 2.97862C14.238 2.04433 11.992 1.79396 9.84176 2.26636C7.69153 2.73876 5.75729 3.90751 4.33906 5.59133C2.92083 7.27515 2.09789 9.37992 1.99788 11.5792C1.97279 12.1309 2.3997 12.5985 2.95142 12.6235C3.50313 12.6486 3.97072 12.2217 3.99581 11.67C4.07582 9.91062 4.73418 8.22681 5.86876 6.87975C7.00334 5.5327 8.55074 4.59769 10.2709 4.21977ZM12.9807 11.0102V9.01017C12.9807 8.45788 12.533 8.01017 11.9807 8.01017C11.4285 8.01017 10.9807 8.45788 10.9807 9.01017V12.0102C10.9807 12.5625 11.4285 13.0102 11.9807 13.0102H14.9807C15.533 13.0102 15.9807 12.5625 15.9807 12.0102C15.9807 11.4579 15.533 11.0102 14.9807 11.0102H12.9807ZM3.36786 15.5265C3.92014 15.5265 4.36786 15.0788 4.36786 14.5265C4.36786 13.9743 3.92014 13.5265 3.36786 13.5265C2.81557 13.5265 2.36786 13.9743 2.36786 14.5265C2.36786 15.0788 2.81557 15.5265 3.36786 15.5265ZM5.98074 17.6555C5.98074 18.2077 5.53303 18.6555 4.98074 18.6555C4.42846 18.6555 3.98074 18.2077 3.98074 17.6555C3.98074 17.1032 4.42846 16.6555 4.98074 16.6555C5.53303 16.6555 5.98074 17.1032 5.98074 17.6555ZM7.72888 20.9235C8.28117 20.9235 8.72888 20.4758 8.72888 19.9235C8.72888 19.3712 8.28117 18.9235 7.72888 18.9235C7.1766 18.9235 6.72888 19.3712 6.72888 19.9235C6.72888 20.4758 7.1766 20.9235 7.72888 20.9235ZM12.1368 20.9666C12.1368 21.5189 11.6891 21.9666 11.1368 21.9666C10.5845 21.9666 10.1368 21.5189 10.1368 20.9666C10.1368 20.4143 10.5845 19.9666 11.1368 19.9666C11.6891 19.9666 12.1368 20.4143 12.1368 20.9666ZM14.6651 21.6035C15.2174 21.6035 15.6651 21.1558 15.6651 20.6035C15.6651 20.0512 15.2174 19.6035 14.6651 19.6035C14.1128 19.6035 13.6651 20.0512 13.6651 20.6035C13.6651 21.1558 14.1128 21.6035 14.6651 21.6035ZM18.783 18.9029C18.783 19.4551 18.3353 19.9029 17.783 19.9029C17.2307 19.9029 16.783 19.4551 16.783 18.9029C16.783 18.3506 17.2307 17.9029 17.783 17.9029C18.3353 17.9029 18.783 18.3506 18.783 18.9029ZM20.0128 17.102C20.5651 17.102 21.0128 16.6543 21.0128 16.102C21.0128 15.5498 20.5651 15.102 20.0128 15.102C19.4605 15.102 19.0128 15.5498 19.0128 16.102C19.0128 16.6543 19.4605 17.102 20.0128 17.102Z" fill="#F19E0C"/>
</svg>
