<svg width="25" height="25" viewBox="0 0 25 25" fill="none" xmlns="http://www.w3.org/2000/svg">
<path fill-rule="evenodd" clip-rule="evenodd" d="M6.10547 3.80811C4.44861 3.80811 3.10547 5.15125 3.10547 6.80811V8.80811C3.10547 9.36039 3.55318 9.80811 4.10547 9.80811C4.65775 9.80811 5.10547 9.36039 5.10547 8.80811V6.80811C5.10547 6.25582 5.55318 5.80811 6.10547 5.80811H8.10547C8.65775 5.80811 9.10547 5.36039 9.10547 4.80811C9.10547 4.25582 8.65775 3.80811 8.10547 3.80811H6.10547ZM16.1055 3.80811C15.5532 3.80811 15.1055 4.25582 15.1055 4.80811C15.1055 5.36039 15.5532 5.80811 16.1055 5.80811H18.1055C18.6578 5.80811 19.1055 6.25582 19.1055 6.80811V8.80811C19.1055 9.36039 19.5532 9.80811 20.1055 9.80811C20.6578 9.80811 21.1055 9.36039 21.1055 8.80811V6.80811C21.1055 5.15125 19.7623 3.80811 18.1055 3.80811H16.1055ZM5.10547 16.8081C5.10547 16.2558 4.65775 15.8081 4.10547 15.8081C3.55318 15.8081 3.10547 16.2558 3.10547 16.8081V18.8081C3.10547 20.465 4.44861 21.8081 6.10547 21.8081H8.10547C8.65775 21.8081 9.10547 21.3604 9.10547 20.8081C9.10547 20.2558 8.65775 19.8081 8.10547 19.8081H6.10547C5.55318 19.8081 5.10547 19.3604 5.10547 18.8081V16.8081ZM21.1055 16.8081C21.1055 16.2558 20.6578 15.8081 20.1055 15.8081C19.5532 15.8081 19.1055 16.2558 19.1055 16.8081V18.8081C19.1055 19.3604 18.6578 19.8081 18.1055 19.8081H16.1055C15.5532 19.8081 15.1055 20.2558 15.1055 20.8081C15.1055 21.3604 15.5532 21.8081 16.1055 21.8081H18.1055C19.7623 21.8081 21.1055 20.465 21.1055 18.8081V16.8081ZM7.09924 8.56152C7.09924 8.14731 7.43503 7.81152 7.84924 7.81152H10.8492C11.2635 7.81152 11.5992 8.14731 11.5992 8.56152V11.5615C11.5992 11.9757 11.2635 12.3115 10.8492 12.3115H7.84924C7.43503 12.3115 7.09924 11.9757 7.09924 11.5615V8.56152ZM8.59924 9.31152V10.8115H10.0992V9.31152H8.59924ZM13.0992 8.56152C13.0992 8.14731 13.435 7.81152 13.8492 7.81152H16.8492C17.2635 7.81152 17.5992 8.14731 17.5992 8.56152V11.5615C17.5992 11.9757 17.2635 12.3115 16.8492 12.3115H13.8492C13.435 12.3115 13.0992 11.9757 13.0992 11.5615V8.56152ZM14.5992 9.31152V10.8115H16.0992V9.31152H14.5992ZM7.84924 13.8115C7.43503 13.8115 7.09924 14.1473 7.09924 14.5615V17.5615C7.09924 17.9757 7.43503 18.3115 7.84924 18.3115H10.8492C11.2635 18.3115 11.5992 17.9757 11.5992 17.5615V14.5615C11.5992 14.1473 11.2635 13.8115 10.8492 13.8115H7.84924ZM8.59924 16.8115V15.3115H10.0992V16.8115H8.59924ZM13.0992 14.5615C13.0992 14.1473 13.435 13.8115 13.8492 13.8115H16.3492C16.7635 13.8115 17.0992 14.1473 17.0992 14.5615V17.0615C17.0992 17.4757 16.7635 17.8115 16.3492 17.8115H13.8492C13.435 17.8115 13.0992 17.4757 13.0992 17.0615V14.5615ZM14.5992 15.3115V16.3115H15.5992V15.3115H14.5992Z" fill="#101010"/>
</svg>
