<svg width="24" height="24" viewBox="0 0 24 24" fill="none" xmlns="http://www.w3.org/2000/svg">
<path fill-rule="evenodd" clip-rule="evenodd" d="M6 3C4.34315 3 3 4.34315 3 6V8C3 8.55228 3.44772 9 4 9C4.55228 9 5 8.55228 5 8V6C5 5.44772 5.44772 5 6 5H8C8.55228 5 9 4.55228 9 4C9 3.44772 8.55228 3 8 3H6ZM16 3C15.4477 3 15 3.44772 15 4C15 4.55228 15.4477 5 16 5H18C18.5523 5 19 5.44772 19 6V8C19 8.55228 19.4477 9 20 9C20.5523 9 21 8.55228 21 8V6C21 4.34315 19.6569 3 18 3H16ZM5 16C5 15.4477 4.55228 15 4 15C3.44772 15 3 15.4477 3 16V18C3 19.6569 4.34315 21 6 21H8C8.55228 21 9 20.5523 9 20C9 19.4477 8.55228 19 8 19H6C5.44772 19 5 18.5523 5 18V16ZM21 16C21 15.4477 20.5523 15 20 15C19.4477 15 19 15.4477 19 16V18C19 18.5523 18.5523 19 18 19H16C15.4477 19 15 19.4477 15 20C15 20.5523 15.4477 21 16 21H18C19.6569 21 21 19.6569 21 18V16ZM6.99377 7.75342C6.99377 7.3392 7.32956 7.00342 7.74377 7.00342H10.7438C11.158 7.00342 11.4938 7.3392 11.4938 7.75342V10.7534C11.4938 11.1676 11.158 11.5034 10.7438 11.5034H7.74377C7.32956 11.5034 6.99377 11.1676 6.99377 10.7534V7.75342ZM8.49377 8.50342V10.0034H9.99377V8.50342H8.49377ZM12.9938 7.75342C12.9938 7.3392 13.3296 7.00342 13.7438 7.00342H16.7438C17.158 7.00342 17.4938 7.3392 17.4938 7.75342V10.7534C17.4938 11.1676 17.158 11.5034 16.7438 11.5034H13.7438C13.3296 11.5034 12.9938 11.1676 12.9938 10.7534V7.75342ZM14.4938 8.50342V10.0034H15.9938V8.50342H14.4938ZM7.74377 13.0034C7.32956 13.0034 6.99377 13.3392 6.99377 13.7534V16.7534C6.99377 17.1676 7.32956 17.5034 7.74377 17.5034H10.7438C11.158 17.5034 11.4938 17.1676 11.4938 16.7534V13.7534C11.4938 13.3392 11.158 13.0034 10.7438 13.0034H7.74377ZM8.49377 16.0034V14.5034H9.99377V16.0034H8.49377ZM12.9938 13.7534C12.9938 13.3392 13.3296 13.0034 13.7438 13.0034H16.2438C16.658 13.0034 16.9938 13.3392 16.9938 13.7534V16.2534C16.9938 16.6676 16.658 17.0034 16.2438 17.0034H13.7438C13.3296 17.0034 12.9938 16.6676 12.9938 16.2534V13.7534ZM14.4938 14.5034V15.5034H15.4938V14.5034H14.4938Z" fill="#101010"/>
</svg>
