<svg width="25" height="25" viewBox="0 0 25 25" fill="none" xmlns="http://www.w3.org/2000/svg">
<path fill-rule="evenodd" clip-rule="evenodd" d="M4.10547 5.80762C4.10547 4.15076 5.44861 2.80762 7.10547 2.80762H17.1055C18.7623 2.80762 20.1055 4.15076 20.1055 5.80762V19.8076C20.1055 21.4645 18.7623 22.8076 17.1055 22.8076H7.10547C5.44861 22.8076 4.10547 21.4645 4.10547 19.8076V18.8076H3.10547C2.55318 18.8076 2.10547 18.3599 2.10547 17.8076C2.10547 17.2553 2.55318 16.8076 3.10547 16.8076H4.10547V13.8076H3.10547C2.55318 13.8076 2.10547 13.3599 2.10547 12.8076C2.10547 12.2553 2.55318 11.8076 3.10547 11.8076H4.10547V8.80762H3.10547C2.55318 8.80762 2.10547 8.3599 2.10547 7.80762C2.10547 7.25533 2.55318 6.80762 3.10547 6.80762H4.10547V5.80762ZM7.10547 20.8076C6.55318 20.8076 6.10547 20.3599 6.10547 19.8076V17.8076V12.8076V7.80762V5.80762C6.10547 5.25533 6.55318 4.80762 7.10547 4.80762H17.1055C17.6578 4.80762 18.1055 5.25533 18.1055 5.80762V19.8076C18.1055 20.3599 17.6578 20.8076 17.1055 20.8076H7.10547ZM13.103 8.12939H14.3351C14.5779 8.12939 14.7995 7.9912 14.9064 7.77317C15.1136 7.35045 14.8059 6.85693 14.3351 6.85693H9.88571C9.64488 6.85693 9.4247 6.99291 9.31685 7.20823C9.10495 7.63129 9.41255 8.12939 9.88571 8.12939H10.719C11.1206 8.2049 11.5203 8.40139 11.6827 8.85693H9.97871C9.73647 8.85693 9.51525 8.9945 9.4081 9.21175C9.19958 9.63457 9.50727 10.1294 9.97871 10.1294H11.5879C11.3732 10.546 10.8838 10.8605 9.77121 10.728L9.76913 10.7339C9.58368 10.735 9.3983 10.8044 9.25399 10.943C8.95527 11.23 8.94573 11.7047 9.23268 12.0035L12.1529 15.0434C12.4398 15.3421 12.9146 15.3517 13.2133 15.0647C13.512 14.7778 13.5216 14.303 13.2346 14.0043L11.1533 11.8376C11.8804 11.7368 13.0569 11.276 13.3689 10.1294H14.3421C14.5863 10.1294 14.8089 9.98961 14.9151 9.76968C15.1189 9.34723 14.8111 8.85693 14.3421 8.85693H13.362C13.3095 8.61838 13.2334 8.36306 13.103 8.12939ZM10.1055 16.7998C9.55318 16.7998 9.10547 17.2475 9.10547 17.7998C9.10547 18.3521 9.55318 18.7998 10.1055 18.7998H14.1055C14.6578 18.7998 15.1055 18.3521 15.1055 17.7998C15.1055 17.2475 14.6578 16.7998 14.1055 16.7998H10.1055Z" fill="#101010"/>
</svg>
