<svg width="24" height="25" viewBox="0 0 24 25" fill="none" xmlns="http://www.w3.org/2000/svg">
<path fill-rule="evenodd" clip-rule="evenodd" d="M11.7437 3.10277C11.9093 3.04257 12.0907 3.04257 12.2563 3.10277L20.5063 6.10277C20.8027 6.21055 21 6.49224 21 6.80762V9.68848C21 10.1027 20.6642 10.4385 20.25 10.4385H19.0226V17.6885H20.25C20.6642 17.6885 21 18.0243 21 18.4385V21.9385C21 22.3527 20.6642 22.6885 20.25 22.6885H3.75C3.33579 22.6885 3 22.3527 3 21.9385V18.4385C3 18.0243 3.33579 17.6885 3.75 17.6885H4.9993V10.4385H3.75C3.33579 10.4385 3 10.1027 3 9.68848V6.80762C3 6.49224 3.1973 6.21055 3.49369 6.10277L11.7437 3.10277ZM6.4993 10.4385V17.6885H11.271V10.4385H6.4993ZM12.771 10.4385V17.6885H17.5226V10.4385H12.771ZM4.5 7.33294V8.93848H19.5V7.33294L12 4.60566L4.5 7.33294ZM4.5 19.1885V21.1885H19.5V19.1885H4.5Z" fill="#101010"/>
</svg>
