<svg width="24" height="25" viewBox="0 0 24 25" fill="none" xmlns="http://www.w3.org/2000/svg">
<path fill-rule="evenodd" clip-rule="evenodd" d="M6.75 3.68848C4.67893 3.68848 3 5.36741 3 7.43848V17.9385C3 20.0095 4.67893 21.6885 6.75 21.6885H16.0038V20.1885H6.75C5.50736 20.1885 4.5 19.1811 4.5 17.9385V7.43848C4.5 6.19584 5.50736 5.18848 6.75 5.18848H17.25C18.4926 5.18848 19.5 6.19584 19.5 7.43848V10.6951H21V7.43848C21 5.36741 19.3211 3.68848 17.25 3.68848H6.75ZM18.3885 15.7343C18.3885 15.0367 18.9553 14.4695 19.6385 14.4695H19.8288C20.4204 14.4695 20.8999 14.949 20.8999 15.5406C20.8999 15.878 20.7409 16.1956 20.4709 16.3979L19.8364 16.8731C19.1431 17.3924 18.7349 18.208 18.7349 19.0742V19.9272H20.2349V19.0742C20.2349 18.6805 20.4205 18.3097 20.7356 18.0737L21.3701 17.5985C22.0183 17.113 22.3999 16.3505 22.3999 15.5406C22.3999 14.1206 21.2488 12.9695 19.8288 12.9695H19.6385C18.1126 12.9695 16.8885 14.2227 16.8885 15.7343H18.3885ZM20.4243 21.9781C20.4243 22.4752 20.0214 22.8781 19.5243 22.8781C19.0273 22.8781 18.6243 22.4752 18.6243 21.9781C18.6243 21.4811 19.0273 21.0781 19.5243 21.0781C20.0214 21.0781 20.4243 21.4811 20.4243 21.9781ZM14.3821 9.78848H12.6841C12.8637 10.0295 12.9759 10.3075 13.0506 10.572H14.9478L14.3821 11.672H13.1519C12.9679 13.0863 11.5639 13.6052 10.7933 13.6844L13.623 16.6886H12.0574L9.38162 13.7992V12.5346C11.0601 12.6822 11.5757 12.2007 11.7335 11.672H9.05222L9.6303 10.572H11.6893C11.494 10.1302 11.0852 9.89123 10.6894 9.78848H9.05215L9.63024 8.68848H14.9478L14.3821 9.78848Z" fill="#101010"/>
</svg>
