<svg width="24" height="24" viewBox="0 0 24 24" fill="none" xmlns="http://www.w3.org/2000/svg">
<path fill-rule="evenodd" clip-rule="evenodd" d="M6.75002 3.00006C4.67895 3.00006 3.00002 4.67899 3.00002 6.75006V17.2501C3.00002 19.3211 4.67895 21.0001 6.75002 21.0001H16.0038V19.5001H6.75002C5.50737 19.5001 4.50002 18.4927 4.50002 17.2501V6.75006C4.50002 5.50742 5.50737 4.50006 6.75002 4.50006H17.25C18.4927 4.50006 19.5 5.50742 19.5 6.75006V10.0067H21V6.75006C21 4.67899 19.3211 3.00006 17.25 3.00006H6.75002ZM18.3885 15.0459C18.3885 14.3483 18.9554 13.7811 19.6385 13.7811H19.8288C20.4204 13.7811 20.8999 14.2606 20.8999 14.8522C20.8999 15.1896 20.741 15.5072 20.4709 15.7095L19.8364 16.1847C19.1431 16.704 18.735 17.5196 18.735 18.3858V19.2388H20.235V18.3858C20.235 17.9921 20.4205 17.6213 20.7356 17.3853L21.3701 16.9101C22.0183 16.4246 22.3999 15.662 22.3999 14.8522C22.3999 13.4322 21.2488 12.2811 19.8288 12.2811H19.6385C18.1126 12.2811 16.8885 13.5343 16.8885 15.0459H18.3885ZM20.4243 21.2897C20.4243 21.7868 20.0214 22.1897 19.5243 22.1897C19.0273 22.1897 18.6243 21.7868 18.6243 21.2897C18.6243 20.7927 19.0273 20.3897 19.5243 20.3897C20.0214 20.3897 20.4243 20.7927 20.4243 21.2897ZM14.3821 9.10006H12.6841C12.8637 9.34108 12.9759 9.61911 13.0506 9.88361H14.9478L14.3822 10.9836H13.1519C12.9679 12.3979 11.5639 12.9168 10.7934 12.996L13.623 16.0002H12.0574L9.38164 13.1108V11.8462C11.0602 11.9938 11.5757 11.5123 11.7335 10.9836H9.05223L9.63031 9.88361H11.6893C11.494 9.44183 11.0852 9.20281 10.6894 9.10006H9.05217L9.63025 8.00006H14.9478L14.3821 9.10006Z" fill="#101010"/>
</svg>
