<svg width="25" height="25" viewBox="0 0 25 25" fill="none" xmlns="http://www.w3.org/2000/svg">
<path fill-rule="evenodd" clip-rule="evenodd" d="M10.292 4.65409C12.0659 4.26437 13.9189 4.47092 15.5635 5.2417C16.9822 5.90664 18.1774 6.95943 19.0153 8.27141L16.8477 7.88922L16.5873 9.36643L21.2651 10.1913L22.0899 5.51342L20.6127 5.25295L20.235 7.39508C19.2472 5.87663 17.8518 4.65764 16.2 3.88348C14.2564 2.97255 12.0666 2.72845 9.97011 3.18903C7.87364 3.64962 5.98775 4.78916 4.60498 6.43088C3.22221 8.07261 2.41983 10.1248 2.32233 12.269L3.82078 12.3371C3.8266 12.2091 3.83539 12.0815 3.84711 11.9543L3.85421 11.955C3.8785 11.6829 3.91634 11.4117 3.96772 11.1423L3.96311 11.1414C4.22947 9.76779 4.84236 8.47748 5.75225 7.3972C6.92229 6.00805 8.51804 5.04382 10.292 4.65409ZM2.38044 13.7586C2.41588 14.0795 2.46729 14.399 2.53468 14.716C2.60206 15.0329 2.68508 15.3458 2.78325 15.6533L4.21222 15.1972C4.12915 14.9369 4.05891 14.6723 4.00189 14.4041C3.94487 14.1358 3.90136 13.8655 3.87138 13.594L2.38044 13.7586ZM21.529 15.0589C21.6075 14.7458 21.6705 14.4283 21.7177 14.1077L20.2337 13.8894C20.1938 14.1607 20.1404 14.4293 20.074 14.6943L21.529 15.0589ZM20.4136 17.7355C20.5814 17.4582 20.7349 17.1733 20.8737 16.8818L19.5195 16.2367C19.4021 16.4833 19.2722 16.7244 19.1302 16.959C18.9883 17.1936 18.835 17.4205 18.6711 17.6391L19.871 18.5392C20.0648 18.2809 20.2459 18.0127 20.4136 17.7355ZM3.55268 17.431C3.70972 17.7131 3.88096 17.9877 4.06593 18.2538C4.2509 18.5199 4.44866 18.7761 4.65837 19.0215L5.79885 18.0472C5.62141 17.8395 5.45407 17.6227 5.29756 17.3976C5.14105 17.1725 4.99615 16.9401 4.86328 16.7014L3.55268 17.431ZM17.8055 20.5742C18.0676 20.3836 18.3195 20.1805 18.5605 19.9656L17.5622 18.846C17.3583 19.0279 17.1451 19.1998 16.9233 19.361C16.7016 19.5223 16.4723 19.6721 16.2365 19.81L16.9938 21.1048C17.2725 20.9418 17.5434 20.7648 17.8055 20.5742ZM6.05666 20.3621C6.31075 20.5612 6.57504 20.748 6.84868 20.9216C7.12231 21.0952 7.40391 21.2547 7.69236 21.3997L8.36608 20.0595C8.12201 19.9368 7.88373 19.8018 7.65219 19.655C7.42066 19.5081 7.19702 19.35 6.98202 19.1815L6.05666 20.3621ZM14.301 22.1802C14.6164 22.1061 14.9274 22.0164 15.2328 21.9118L14.7465 20.4928C14.488 20.5814 14.2249 20.6572 13.958 20.7199C13.691 20.7826 13.4216 20.8318 13.1508 20.8676L13.347 22.3547C13.6671 22.3125 13.9855 22.2543 14.301 22.1802ZM9.50092 22.0935C9.81235 22.1786 10.1284 22.2484 10.4479 22.3023C10.7674 22.3563 11.0888 22.3942 11.4109 22.4161L11.5126 20.9195C11.24 20.901 10.9681 20.869 10.6977 20.8233C10.4273 20.7776 10.1599 20.7186 9.8964 20.6466L9.50092 22.0935ZM12.5353 8.68859V12.1601H16V13.6886H11V8.68859H12.5353Z" fill="#F19E0C"/>
</svg>
