<svg width="24" height="25" viewBox="0 0 24 25" fill="none" xmlns="http://www.w3.org/2000/svg">
<path fill-rule="evenodd" clip-rule="evenodd" d="M6.75003 3.68848C4.67896 3.68848 3.00003 5.36741 3.00003 7.43848V8.69868H4.50003V7.43848C4.50003 6.19584 5.50739 5.18848 6.75003 5.18848H8.00796V3.68848H6.75003ZM17.25 3.68848H16.0041V5.18848H17.25C18.4927 5.18848 19.5 6.19584 19.5 7.43848V8.69121H21V7.43848C21 5.36741 19.3211 3.68848 17.25 3.68848ZM4.50003 17.9385V16.6924H3.00003V17.9385C3.00003 20.0095 4.67896 21.6885 6.75003 21.6885H8.00394V20.1885H6.75003C5.50739 20.1885 4.50003 19.1811 4.50003 17.9385ZM21 17.9385V16.6963H19.5V17.9385C19.5 19.1811 18.4927 20.1885 17.25 20.1885H16V21.6885H17.25C19.3211 21.6885 21 20.0095 21 17.9385ZM6.8963 8.44189C6.8963 8.02768 7.23209 7.69189 7.6463 7.69189H10.6463C11.0605 7.69189 11.3963 8.02768 11.3963 8.44189V11.4419C11.3963 11.8561 11.0605 12.1919 10.6463 12.1919H7.6463C7.23209 12.1919 6.8963 11.8561 6.8963 11.4419V8.44189ZM8.3963 9.19189V10.6919H9.8963V9.19189H8.3963ZM12.8963 8.44189C12.8963 8.02768 13.2321 7.69189 13.6463 7.69189H16.6463C17.0605 7.69189 17.3963 8.02768 17.3963 8.44189V11.4419C17.3963 11.8561 17.0605 12.1919 16.6463 12.1919H13.6463C13.2321 12.1919 12.8963 11.8561 12.8963 11.4419V8.44189ZM14.3963 9.19189V10.6919H15.8963V9.19189H14.3963ZM7.6463 13.6919C7.23209 13.6919 6.8963 14.0277 6.8963 14.4419V17.4419C6.8963 17.8561 7.23209 18.1919 7.6463 18.1919H10.6463C11.0605 18.1919 11.3963 17.8561 11.3963 17.4419V14.4419C11.3963 14.0277 11.0605 13.6919 10.6463 13.6919H7.6463ZM8.3963 16.6919V15.1919H9.8963V16.6919H8.3963ZM12.8963 14.4419C12.8963 14.0277 13.2321 13.6919 13.6463 13.6919H16.1463C16.5605 13.6919 16.8963 14.0277 16.8963 14.4419V16.9419C16.8963 17.3561 16.5605 17.6919 16.1463 17.6919H13.6463C13.2321 17.6919 12.8963 17.3561 12.8963 16.9419V14.4419ZM14.3963 15.1919V16.1919H15.3963V15.1919H14.3963Z" fill="#101010"/>
</svg>
