<svg width="24" height="25" viewBox="0 0 24 25" fill="none" xmlns="http://www.w3.org/2000/svg">
<path fill-rule="evenodd" clip-rule="evenodd" d="M12 4.43848C10.7574 4.43848 9.74999 5.44584 9.74999 6.68848C9.74999 7.93112 10.7574 8.93848 12 8.93848C13.2426 8.93848 14.25 7.93112 14.25 6.68848C14.25 5.44584 13.2426 4.43848 12 4.43848ZM8.24999 6.68848C8.24999 4.61741 9.92892 2.93848 12 2.93848C14.0711 2.93848 15.75 4.61741 15.75 6.68848C15.75 8.75954 14.0711 10.4385 12 10.4385C9.92892 10.4385 8.24999 8.75954 8.24999 6.68848ZM4.95164 15.1794L2.54021 16.2111L1.95016 14.832L6.54707 12.8652C6.9279 12.7023 7.3687 12.8789 7.53164 13.2597L9.49847 17.8566L8.11939 18.4467L6.7321 15.2043C6.20351 15.8733 5.83241 16.6779 5.67946 17.567L5.51075 18.5477C5.27423 19.9227 6.33306 21.1792 7.72818 21.1792H16.3062C17.7335 21.1792 18.8001 19.8674 18.5089 18.4701L18.2829 17.3859C17.7756 14.9516 15.63 13.207 13.1434 13.207H10.8535C10.4729 13.207 10.1006 13.2478 9.74114 13.3256L9.1532 11.9238C9.69813 11.7821 10.2682 11.707 10.8535 11.707H13.1434C16.3405 11.707 19.0991 13.95 19.7514 17.0799L19.9774 18.1641C20.4627 20.4929 18.685 22.6792 16.3062 22.6792H7.72818C5.40299 22.6792 3.63826 20.585 4.03246 18.2934L4.20117 17.3127C4.33304 16.5461 4.59104 15.8284 4.95164 15.1794Z" fill="#101010"/>
</svg>
