<svg width="24" height="25" viewBox="0 0 24 25" fill="none" xmlns="http://www.w3.org/2000/svg">
<path fill-rule="evenodd" clip-rule="evenodd" d="M18.4999 4.23548L15.8912 6.84422L14.8305 5.78356L18.7196 1.89447C19.0125 1.60158 19.4874 1.60158 19.7803 1.89447L23.6694 5.78356L22.6087 6.84422L19.9999 4.23545V11.69H18.4999V4.23548ZM5.49994 9.43932C5.49994 8.19668 6.5073 7.18932 7.74994 7.18932H13.0137V5.68932H7.74994C5.67887 5.68932 3.99994 7.36826 3.99994 9.43932V17.9393C3.99994 20.0104 5.67887 21.6893 7.74994 21.6893H16.2499C18.321 21.6893 19.9999 20.0104 19.9999 17.9393V13.6893H18.4999V17.9393C18.4999 19.182 17.4926 20.1893 16.2499 20.1893H7.74994C6.5073 20.1893 5.49994 19.182 5.49994 17.9393V9.43932ZM15.4795 9.83996H10.1621L9.58398 10.94H11.164C11.6079 10.9956 12.0823 11.1818 12.263 11.6886H10.1621L9.58398 12.7886H12.224C12.0247 13.2687 11.4675 13.6713 9.91345 13.5346V14.7992L12.5892 17.6886H14.2585L11.3882 14.6803C12.1371 14.6033 13.4887 14.114 13.7339 12.7886H14.9139L15.4795 11.6886H13.6877C13.6336 11.4428 13.5546 11.1793 13.4168 10.94H14.9139L15.4795 9.83996Z" fill="#101010"/>
</svg>
