<svg width="25" height="25" viewBox="0 0 25 25" fill="none" xmlns="http://www.w3.org/2000/svg">
<path fill-rule="evenodd" clip-rule="evenodd" d="M15.5303 7.93215L18.4968 4.96566V12.6701H19.9968V4.97402L22.955 7.93215L24.0156 6.87149L19.773 2.62885C19.4801 2.33596 19.0052 2.33596 18.7123 2.62885L14.4697 6.87149L15.5303 7.93215ZM5.5 6.44595C5.5 5.20331 6.50736 4.19595 7.75 4.19595H14.0117V2.69595H7.75C5.67893 2.69595 4 4.37488 4 6.44595V6.9379H2V8.4379H4V11.9379H2V13.4379H4V16.9379H2V18.4379H4V19.0888C4 21.1599 5.67893 22.8388 7.75 22.8388H16.25C18.3211 22.8388 20 21.1599 20 19.0888V14.6922H18.5V19.0888C18.5 20.3314 17.4926 21.3388 16.25 21.3388H7.75C6.50736 21.3388 5.5 20.3315 5.5 19.0888V6.44595ZM14 10.6757C14 11.7803 13.1046 12.6757 12 12.6757C10.8954 12.6757 10 11.7803 10 10.6757C10 9.57112 10.8954 8.67569 12 8.67569C13.1046 8.67569 14 9.57112 14 10.6757ZM11.2 13.704C9.43269 13.704 8 15.1367 8 16.904C8 17.3458 8.35817 17.704 8.8 17.704H15.2C15.6418 17.704 16 17.3458 16 16.904C16 15.1367 14.5673 13.704 12.8 13.704H11.2Z" fill="#101010"/>
</svg>
