<svg width="25" height="25" viewBox="0 0 25 25" fill="none" xmlns="http://www.w3.org/2000/svg">
<path fill-rule="evenodd" clip-rule="evenodd" d="M3.03552 7.43848C3.03552 5.36741 4.71445 3.68848 6.78552 3.68848H17.2855C19.3566 3.68848 21.0355 5.36741 21.0355 7.43848V17.9385C21.0355 20.0095 19.3566 21.6885 17.2855 21.6885H6.78552C4.71445 21.6885 3.03552 20.0095 3.03552 17.9385V7.43848ZM6.78552 5.18848C5.54288 5.18848 4.53552 6.19584 4.53552 7.43848V17.9385C4.53552 19.1811 5.54288 20.1885 6.78552 20.1885H17.2855C18.5282 20.1885 19.5355 19.1811 19.5355 17.9385V7.43848C19.5355 6.19584 18.5282 5.18848 17.2855 5.18848H6.78552Z" fill="#101010"/>
<path d="M10.1955 17.6885L13.0305 7.68848L15.6605 12.6735L10.1955 17.6885Z" fill="#028C3C"/>
<path d="M8.41051 17.6885L11.2455 7.68848L13.8755 12.6735L8.41051 17.6885Z" fill="#FE7A09"/>
</svg>
