<svg width="24" height="24" viewBox="0 0 24 24" fill="none" xmlns="http://www.w3.org/2000/svg">
<path fill-rule="evenodd" clip-rule="evenodd" d="M7.75003 2.01782C5.67896 2.01782 4.00003 3.69675 4.00003 5.76782V6.24951H2V7.74951H4.00003V11.2495H2V12.7495H4.00003V16.2495H2V17.7495H4.00003V18.4107C4.00003 20.4817 5.67896 22.1607 7.75003 22.1607H16.25C18.3211 22.1607 20 20.4817 20 18.4107V5.76782C20 3.69675 18.3211 2.01782 16.25 2.01782H7.75003ZM5.50003 5.76782C5.50003 4.52518 6.50739 3.51782 7.75003 3.51782H16.25C17.4927 3.51782 18.5 4.52518 18.5 5.76782V18.4107C18.5 19.6533 17.4927 20.6607 16.25 20.6607H7.75003C6.50739 20.6607 5.50003 19.6533 5.50003 18.4107V5.76782ZM14.4281 7.12123H12.9022C13.0426 7.36519 13.1232 7.6338 13.1783 7.88428H15.0047L14.4281 9.00551H13.2253C12.9753 10.3564 11.5977 10.8551 10.8343 10.9336L13.76 13.9999H12.0585L9.33112 11.0548V9.76582C10.9151 9.90507 11.483 9.49479 11.6862 9.00551H8.9953L9.58454 7.88428H11.7261C11.5421 7.36813 11.0594 7.17819 10.6072 7.12123H8.9953L9.58454 6H15.0047L14.4281 7.12123ZM9 18.0034H15V16.5034H9V18.0034Z" fill="#101010"/>
</svg>
