<svg width="24" height="25" viewBox="0 0 24 25" fill="none" xmlns="http://www.w3.org/2000/svg">
<path fill-rule="evenodd" clip-rule="evenodd" d="M7.75003 2.7063C5.67896 2.7063 4.00003 4.38523 4.00003 6.45629V6.93799H2V8.43799H4.00003V11.938H2V13.438H4.00003V16.938H2V18.438H4.00003V19.0992C4.00003 21.1702 5.67896 22.8492 7.75003 22.8492H16.25C18.3211 22.8492 20 21.1702 20 19.0992V6.4563C20 4.38523 18.3211 2.7063 16.25 2.7063H7.75003ZM5.50003 6.45629C5.50003 5.21366 6.50739 4.2063 7.75003 4.2063H16.25C17.4927 4.2063 18.5 5.21366 18.5 6.4563V19.0992C18.5 20.3418 17.4927 21.3492 16.25 21.3492H7.75003C6.50739 21.3492 5.50003 20.3418 5.50003 19.0992V6.45629ZM14.4281 7.80971H12.9022C13.0426 8.05367 13.1232 8.32228 13.1783 8.57275H15.0047L14.4281 9.69399H13.2253C12.9753 11.0448 11.5977 11.5436 10.8343 11.6221L13.76 14.6884H12.0585L9.33112 11.7433V10.4543C10.9151 10.5935 11.483 10.1833 11.6862 9.69399H8.9953L9.58454 8.57275H11.7261C11.5421 8.0566 11.0594 7.86667 10.6072 7.80971H8.9953L9.58454 6.68848H15.0047L14.4281 7.80971ZM9 18.6919H15V17.1919H9V18.6919Z" fill="#101010"/>
</svg>
