<svg width="24" height="25" viewBox="0 0 24 25" fill="none" xmlns="http://www.w3.org/2000/svg">
<path fill-rule="evenodd" clip-rule="evenodd" d="M11.6489 1.87129C11.8753 1.78639 12.1247 1.78639 12.3511 1.87129L20.3511 4.87129C20.7414 5.01765 21 5.39077 21 5.80762V8.68848C21 9.24076 20.5523 9.68848 20 9.68848H19V15.6885H20C20.5523 15.6885 21 16.1362 21 16.6885V20.6885C21 21.2408 20.5523 21.6885 20 21.6885H4C3.44772 21.6885 3 21.2408 3 20.6885V16.6885C3 16.1362 3.44772 15.6885 4 15.6885H5V9.68848H4C3.44772 9.68848 3 9.24076 3 8.68848V5.80762C3 5.39077 3.25857 5.01765 3.64888 4.87129L11.6489 1.87129ZM7 9.68848V15.6885H11V9.68848H7ZM13 9.68848V15.6885H17V9.68848H13ZM5 6.50062V7.68848H19V6.50062L12 3.87562L5 6.50062ZM5 17.6885V19.6885H19V17.6885H5Z" fill="#101010"/>
</svg>
