<svg width="24" height="24" viewBox="0 0 24 24" fill="none" xmlns="http://www.w3.org/2000/svg">
<path fill-rule="evenodd" clip-rule="evenodd" d="M3 7C3 4.79086 4.79086 3 7 3H17C19.2091 3 21 4.79086 21 7V8.99855C21 9.55083 20.5523 9.99855 20 9.99855C19.4477 9.99855 19 9.55083 19 8.99855V7C19 5.89543 18.1046 5 17 5H7C5.89543 5 5 5.89543 5 7V17C5 18.1046 5.89543 19 7 19H14.9991C15.5514 19 15.9991 19.4477 15.9991 20C15.9991 20.5523 15.5514 21 14.9991 21H7C4.79086 21 3 19.2091 3 17V7ZM19.6385 14.031C19.0863 14.031 18.6385 14.4787 18.6385 15.031V15.0654C18.6385 15.6177 18.1908 16.0654 17.6385 16.0654C17.0863 16.0654 16.6385 15.6177 16.6385 15.0654V15.031C16.6385 13.3742 17.9817 12.031 19.6385 12.031H19.8288C21.3869 12.031 22.6499 13.2941 22.6499 14.8521C22.6499 15.7407 22.2313 16.5774 21.52 17.1101L20.8855 17.5853C20.6334 17.7742 20.485 18.0707 20.485 18.3857V18.4887C20.485 19.041 20.0373 19.4887 19.485 19.4887C18.9327 19.4887 18.485 19.041 18.485 18.4887V18.3857C18.485 17.4408 18.9302 16.551 19.6866 15.9845L20.3211 15.5093C20.5281 15.3543 20.6499 15.1107 20.6499 14.8521C20.6499 14.3986 20.2823 14.031 19.8288 14.031H19.6385ZM19.4713 22.5896C20.0789 22.5896 20.5713 22.0972 20.5713 21.4896C20.5713 20.8821 20.0789 20.3896 19.4713 20.3896C18.8638 20.3896 18.3713 20.8821 18.3713 21.4896C18.3713 22.0972 18.8638 22.5896 19.4713 22.5896ZM12.9975 9.06396H14.2296C14.4724 9.06396 14.6941 8.92577 14.8009 8.70774C15.0081 8.28502 14.7004 7.7915 14.2296 7.7915H9.78024C9.53941 7.7915 9.31923 7.92748 9.21138 8.1428C8.99948 8.56586 9.30708 9.06396 9.78024 9.06396H10.6135C11.0151 9.13947 11.4148 9.33596 11.5773 9.7915H9.87324C9.631 9.7915 9.40978 9.92907 9.30263 10.1463C9.09411 10.5691 9.4018 11.064 9.87324 11.064H11.4824C11.2678 11.4805 10.7783 11.7951 9.66574 11.6626L9.66367 11.6685C9.47821 11.6695 9.29283 11.739 9.14852 11.8776C8.8498 12.1645 8.84026 12.6393 9.12721 12.938L12.0474 15.978C12.3343 16.2767 12.8091 16.2862 13.1078 15.9993C13.4066 15.7123 13.4161 15.2376 13.1291 14.9388L11.0479 12.7722C11.7749 12.6714 12.9515 12.2106 13.2634 11.064H14.2366C14.4808 11.064 14.7035 10.9242 14.8096 10.7042C15.0135 10.2818 14.7057 9.7915 14.2366 9.7915H13.2565C13.204 9.55295 13.128 9.29763 12.9975 9.06396Z" fill="#101010"/>
</svg>
