<svg width="24" height="25" viewBox="0 0 24 25" fill="none" xmlns="http://www.w3.org/2000/svg">
<path fill-rule="evenodd" clip-rule="evenodd" d="M3 7.68848C3 5.47934 4.79086 3.68848 7 3.68848H17C19.2091 3.68848 21 5.47934 21 7.68848V9.68702C21 10.2393 20.5523 10.687 20 10.687C19.4477 10.687 19 10.2393 19 9.68702V7.68848C19 6.58391 18.1046 5.68848 17 5.68848H7C5.89543 5.68848 5 6.58391 5 7.68848V17.6885C5 18.793 5.89543 19.6885 7 19.6885H14.9991C15.5514 19.6885 15.9991 20.1362 15.9991 20.6885C15.9991 21.2408 15.5514 21.6885 14.9991 21.6885H7C4.79086 21.6885 3 19.8976 3 17.6885V7.68848ZM19.6385 14.7195C19.0863 14.7195 18.6385 15.1672 18.6385 15.7195V15.7539C18.6385 16.3062 18.1908 16.7539 17.6385 16.7539C17.0863 16.7539 16.6385 16.3062 16.6385 15.7539V15.7195C16.6385 14.0626 17.9817 12.7195 19.6385 12.7195H19.8288C21.3869 12.7195 22.6499 13.9825 22.6499 15.5406C22.6499 16.4292 22.2313 17.2659 21.52 17.7986L20.8855 18.2738C20.6334 18.4626 20.485 18.7592 20.485 19.0742V19.1772C20.485 19.7295 20.0373 20.1772 19.485 20.1772C18.9327 20.1772 18.485 19.7295 18.485 19.1772V19.0742C18.485 18.1292 18.9302 17.2395 19.6866 16.673L20.3211 16.1978C20.5281 16.0427 20.6499 15.7992 20.6499 15.5406C20.6499 15.0871 20.2823 14.7195 19.8288 14.7195H19.6385ZM19.4713 23.2781C20.0789 23.2781 20.5713 22.7856 20.5713 22.1781C20.5713 21.5706 20.0789 21.0781 19.4713 21.0781C18.8638 21.0781 18.3713 21.5706 18.3713 22.1781C18.3713 22.7856 18.8638 23.2781 19.4713 23.2781ZM12.9975 9.75244H14.2296C14.4724 9.75244 14.6941 9.61424 14.8009 9.39621C15.0081 8.9735 14.7004 8.47998 14.2296 8.47998H9.78024C9.53941 8.47998 9.31923 8.61596 9.21138 8.83128C8.99948 9.25434 9.30708 9.75244 9.78024 9.75244H10.6135C11.0151 9.82795 11.4148 10.0244 11.5773 10.48H9.87324C9.631 10.48 9.40978 10.6175 9.30263 10.8348C9.09411 11.2576 9.4018 11.7524 9.87324 11.7524H11.4824C11.2678 12.169 10.7783 12.4836 9.66574 12.3511L9.66367 12.3569C9.47821 12.358 9.29283 12.4274 9.14852 12.5661C8.8498 12.853 8.84026 13.3278 9.12721 13.6265L12.0474 16.6664C12.3343 16.9652 12.8091 16.9747 13.1078 16.6878C13.4066 16.4008 13.4161 15.926 13.1291 15.6273L11.0479 13.4607C11.7749 13.3599 12.9515 12.899 13.2634 11.7524H14.2366C14.4808 11.7524 14.7035 11.6127 14.8096 11.3927C15.0135 10.9703 14.7057 10.48 14.2366 10.48H13.2565C13.204 10.2414 13.128 9.98611 12.9975 9.75244Z" fill="#101010"/>
</svg>
