<svg width="24" height="24" viewBox="0 0 24 24" fill="none" xmlns="http://www.w3.org/2000/svg">
<circle cx="12" cy="12" r="10" fill="#FD5154"/>
<path fill-rule="evenodd" clip-rule="evenodd" d="M8.0923 9.52637C7.70054 9.13708 7.69852 8.50392 8.08781 8.11216C8.47709 7.7204 9.11025 7.71839 9.50201 8.10767L12.0003 10.5901L14.4981 8.10816C14.8899 7.71887 15.523 7.72089 15.9123 8.11265C16.3016 8.50441 16.2996 9.13757 15.9078 9.52685L13.419 11.9999L15.9079 14.4729C16.2996 14.8622 16.3016 15.4954 15.9124 15.8871C15.5231 16.2789 14.8899 16.2809 14.4982 15.8916L12.0003 13.4096L9.50198 15.8921C9.11021 16.2814 8.47705 16.2794 8.08777 15.8876C7.69849 15.4959 7.7005 14.8627 8.09226 14.4734L10.5816 11.9999L8.0923 9.52637Z" fill="white"/>
</svg>
