<svg width="25" height="25" viewBox="0 0 25 25" fill="none" xmlns="http://www.w3.org/2000/svg">
<circle cx="12.053" cy="12.6885" r="10" fill="#FD5154"/>
<path fill-rule="evenodd" clip-rule="evenodd" d="M8.14528 10.215C7.75351 9.82568 7.7515 9.19252 8.14078 8.80076C8.53007 8.409 9.16323 8.40698 9.55499 8.79627L12.0533 11.2787L14.5511 8.79675C14.9429 8.40747 15.576 8.40948 15.9653 8.80125C16.3546 9.19301 16.3526 9.82617 15.9608 10.2155L13.472 12.6885L15.9608 15.1615C16.3526 15.5508 16.3546 16.184 15.9653 16.5757C15.5761 16.9675 14.9429 16.9695 14.5511 16.5802L12.0533 14.0982L9.55495 16.5807C9.16319 16.97 8.53003 16.968 8.14075 16.5762C7.75147 16.1845 7.75348 15.5513 8.14524 15.162L10.6346 12.6885L8.14528 10.215Z" fill="white"/>
</svg>
