<svg width="25" height="25" viewBox="0 0 25 25" fill="none" xmlns="http://www.w3.org/2000/svg">
<path fill-rule="evenodd" clip-rule="evenodd" d="M11.1852 5.0594C12.9054 4.68149 14.7022 4.88178 16.297 5.62921C17.4933 6.18991 18.5257 7.03502 19.3089 8.08249L17.7308 7.80423C17.1869 7.70832 16.6682 8.07149 16.5723 8.61539C16.4764 9.15928 16.8396 9.67794 17.3835 9.77384L21.3227 10.4684C21.8666 10.5643 22.3853 10.2012 22.4812 9.65728L23.1758 5.71805C23.2717 5.17415 22.9085 4.65549 22.3646 4.55959C21.8207 4.46369 21.3021 4.82685 21.2062 5.37075L20.9337 6.91579C19.952 5.59215 18.6529 4.52464 17.1457 3.81825C15.1523 2.88396 12.9063 2.63359 10.7561 3.10599C8.60584 3.57839 6.6716 4.74714 5.25337 6.43096C3.83514 8.11478 3.01219 10.2196 2.91218 12.4188C2.8871 12.9705 3.31401 13.4381 3.86572 13.4632C4.41744 13.4883 4.88503 13.0614 4.91012 12.5096C4.91213 12.4654 4.91451 12.4213 4.91724 12.3772C4.92388 12.3518 4.92825 12.3255 4.93011 12.2985C4.93191 12.2724 4.9313 12.2465 4.92846 12.2212C5.06369 10.5668 5.71064 8.99264 6.78307 7.71938C7.91765 6.37233 9.46504 5.43732 11.1852 5.0594ZM4.05128 14.4597C3.5106 14.558 3.14711 15.0779 3.2986 15.6061C3.45009 16.1344 4.03389 16.3826 4.54447 16.1794L4.73864 16.1021C5.1471 15.9396 5.3423 15.4774 5.22111 15.0548C5.09991 14.6322 4.68942 14.3437 4.25689 14.4223L4.05128 14.4597ZM21.8074 17.4163C22.0583 16.9275 21.8025 16.347 21.2911 16.1458L21.0966 16.0693C20.6875 15.9084 20.2289 16.1119 20.0281 16.503C19.8273 16.8941 19.9293 17.3853 20.2985 17.6239L20.474 17.7374C20.9355 18.0357 21.5564 17.9052 21.8074 17.4163ZM5.36791 17.7677C4.90758 18.0679 4.77402 18.688 5.1184 19.1163C5.46279 19.5445 6.09718 19.5471 6.48909 19.1619L6.63812 19.0154C6.95165 18.7072 6.95245 18.2055 6.67695 17.8629C6.40144 17.5203 5.91122 17.4135 5.54296 17.6536L5.36791 17.7677ZM19.3419 20.5074C19.7628 20.154 19.7519 19.5197 19.3585 19.136L19.2088 18.9901C18.8941 18.6832 18.3924 18.6931 18.0558 18.9758C17.7191 19.2585 17.6227 19.7509 17.8706 20.114L17.9884 20.2865C18.2982 20.7404 18.9211 20.8608 19.3419 20.5074ZM7.86375 20.3069C7.55573 20.762 7.67298 21.3854 8.15642 21.6467C8.63986 21.908 9.22568 21.6645 9.43764 21.1575L9.51825 20.9647C9.68783 20.5591 9.49411 20.0963 9.10736 19.8873C8.72061 19.6782 8.2273 19.7697 7.98089 20.1338L7.86375 20.3069ZM15.8712 22.4013C16.3961 22.2386 16.6319 21.6497 16.4179 21.1435L16.3365 20.951C16.1653 20.5461 15.6991 20.3608 15.2792 20.4909C14.8593 20.621 14.5795 21.0375 14.6673 21.4683L14.709 21.6731C14.8188 22.2115 15.3463 22.5639 15.8712 22.4013ZM11.1486 21.6802C11.0411 22.2191 11.3908 22.7484 11.9377 22.8019C12.4847 22.8554 12.9303 22.4039 12.9292 21.8544L12.9288 21.6454C12.9279 21.2058 12.5699 20.8542 12.1324 20.8114C11.6949 20.7686 11.2756 21.0442 11.1895 21.4753L11.1486 21.6802ZM13.8951 9.8498V11.8498H15.8951C16.4473 11.8498 16.8951 12.2975 16.8951 12.8498C16.8951 13.4021 16.4473 13.8498 15.8951 13.8498H12.8951C12.3428 13.8498 11.8951 13.4021 11.8951 12.8498V9.8498C11.8951 9.29751 12.3428 8.8498 12.8951 8.8498C13.4473 8.8498 13.8951 9.29751 13.8951 9.8498Z" fill="#F19E0C"/>
</svg>
