<svg width="25" height="25" viewBox="0 0 25 25" fill="none" xmlns="http://www.w3.org/2000/svg">
<path fill-rule="evenodd" clip-rule="evenodd" d="M10.3456 4.89803C12.0658 4.52011 13.8626 4.7204 15.4574 5.46783C16.6537 6.02854 17.6861 6.87365 18.4693 7.92112L16.8912 7.64285C16.3473 7.54695 15.8286 7.91012 15.7327 8.45401C15.6368 8.9979 16 9.51656 16.5439 9.61247L20.4831 10.3071C21.027 10.403 21.5457 10.0398 21.6416 9.4959L22.3362 5.55667C22.4321 5.01277 22.0689 4.49412 21.525 4.39821C20.9811 4.30231 20.4625 4.66548 20.3666 5.20937L20.0941 6.75441C19.1124 5.43077 17.8133 4.36326 16.3061 3.65687C14.3127 2.72258 12.0667 2.47222 9.91647 2.94461C7.76624 3.41701 5.832 4.58577 4.41377 6.26959C2.99554 7.95341 2.17259 10.0582 2.07258 12.2574C2.07045 12.3044 2.07159 12.3508 2.07582 12.3964C2.07484 12.4297 2.07404 12.463 2.0734 12.4963L2.09028 12.4967C2.17715 12.9383 2.55641 13.2804 3.02613 13.3018C3.51402 13.324 3.93613 12.9927 4.0446 12.5342L4.07303 12.5348C4.07812 12.2699 4.09637 12.005 4.12786 11.741L4.12146 11.7402C4.30947 10.2032 4.94033 8.749 5.94347 7.55801C7.07805 6.21095 8.62544 5.27595 10.3456 4.89803ZM21.9175 14.4371C21.9754 14.1111 22.0172 13.7818 22.0425 13.4504L20.0483 13.298C20.028 13.5632 19.9946 13.8266 19.9483 14.0874L21.9175 14.4371ZM2.23274 14.4767C2.29195 14.8025 2.36741 15.1257 2.45904 15.4452C2.55066 15.7647 2.65798 16.0788 2.78043 16.3864L4.63865 15.6468C4.54069 15.4007 4.45484 15.1494 4.38154 14.8938C4.30824 14.6383 4.24787 14.3797 4.2005 14.119L2.23274 14.4767ZM20.9678 17.2554C21.1196 16.9597 21.2562 16.6572 21.3775 16.3491L19.5163 15.617C19.4193 15.8635 19.31 16.1055 19.1885 16.342C19.0671 16.5786 18.9342 16.8084 18.7904 17.0309L20.4701 18.1165C20.6499 17.8384 20.816 17.5511 20.9678 17.2554ZM3.69485 18.1502C3.8757 18.4276 4.07055 18.6963 4.27884 18.9553C4.48712 19.2143 4.7078 19.4623 4.93991 19.6984L6.36624 18.2964C6.18055 18.1075 6.00401 17.9092 5.83738 17.702C5.67075 17.4948 5.51487 17.2798 5.37019 17.0579L3.69485 18.1502ZM18.5024 20.3464C18.7569 20.1327 19.0001 19.9068 19.2313 19.6697L17.7993 18.2735C17.6144 18.4631 17.4198 18.6438 17.2162 18.8148C17.0126 18.9858 16.801 19.1462 16.5822 19.2956L17.7098 20.9474C17.9833 20.7607 18.2479 20.5602 18.5024 20.3464ZM6.46647 20.9699C6.74069 21.1556 7.02447 21.3278 7.31686 21.4858C7.60924 21.6438 7.90877 21.7869 8.21427 21.9146L8.98573 20.0694C8.74133 19.9672 8.50171 19.8527 8.2678 19.7263C8.03388 19.5999 7.80686 19.4621 7.58749 19.3137L6.46647 20.9699ZM15.0316 22.2403C15.3491 22.1419 15.6609 22.028 15.9659 21.899L15.187 20.0569C14.943 20.1601 14.6936 20.2512 14.4396 20.3299C14.1856 20.4086 13.9284 20.4745 13.6688 20.5274L14.0681 22.4871C14.3926 22.421 14.7142 22.3387 15.0316 22.2403ZM10.1143 22.4951C10.439 22.5599 10.7674 22.6086 11.0982 22.641C11.4289 22.6733 11.7605 22.6891 12.0916 22.6884L12.0876 20.6884C11.8227 20.689 11.5575 20.6764 11.2928 20.6505C11.0282 20.6246 10.7655 20.5856 10.5058 20.5337L10.1143 22.4951ZM13.0555 9.68842V11.6884H15.0555C15.6077 11.6884 16.0555 12.1361 16.0555 12.6884C16.0555 13.2407 15.6077 13.6884 15.0555 13.6884H12.0555C11.5032 13.6884 11.0555 13.2407 11.0555 12.6884V9.68842C11.0555 9.13613 11.5032 8.68842 12.0555 8.68842C12.6077 8.68842 13.0555 9.13613 13.0555 9.68842Z" fill="#F19E0C"/>
</svg>
