<svg width="24" height="25" viewBox="0 0 24 25" fill="none" xmlns="http://www.w3.org/2000/svg">
<path fill-rule="evenodd" clip-rule="evenodd" d="M7 3.68848C4.79086 3.68848 3 5.47934 3 7.68848V8.68848C3 9.24076 3.44772 9.68848 4 9.68848C4.55228 9.68848 5 9.24076 5 8.68848V7.68848C5 6.58391 5.89543 5.68848 7 5.68848H8C8.55228 5.68848 9 5.24076 9 4.68848C9 4.13619 8.55228 3.68848 8 3.68848H7ZM16 3.68848C15.4477 3.68848 15 4.13619 15 4.68848C15 5.24076 15.4477 5.68848 16 5.68848H17C18.1046 5.68848 19 6.58391 19 7.68848V8.68848C19 9.24076 19.4477 9.68848 20 9.68848C20.5523 9.68848 21 9.24076 21 8.68848V7.68848C21 5.47934 19.2091 3.68848 17 3.68848H16ZM5 16.6885C5 16.1362 4.55228 15.6885 4 15.6885C3.44772 15.6885 3 16.1362 3 16.6885V17.6885C3 19.8976 4.79086 21.6885 7 21.6885H8C8.55228 21.6885 9 21.2408 9 20.6885C9 20.1362 8.55228 19.6885 8 19.6885H7C5.89543 19.6885 5 18.793 5 17.6885V16.6885ZM21 16.6885C21 16.1362 20.5523 15.6885 20 15.6885C19.4477 15.6885 19 16.1362 19 16.6885V17.6885C19 18.793 18.1046 19.6885 17 19.6885H16C15.4477 19.6885 15 20.1362 15 20.6885C15 21.2408 15.4477 21.6885 16 21.6885H17C19.2091 21.6885 21 19.8976 21 17.6885V16.6885ZM6.99377 8.44189C6.99377 8.02768 7.32956 7.69189 7.74377 7.69189H10.7438C11.158 7.69189 11.4938 8.02768 11.4938 8.44189V11.4419C11.4938 11.8561 11.158 12.1919 10.7438 12.1919H7.74377C7.32956 12.1919 6.99377 11.8561 6.99377 11.4419V8.44189ZM8.49377 9.19189V10.6919H9.99377V9.19189H8.49377ZM12.9938 8.44189C12.9938 8.02768 13.3296 7.69189 13.7438 7.69189H16.7438C17.158 7.69189 17.4938 8.02768 17.4938 8.44189V11.4419C17.4938 11.8561 17.158 12.1919 16.7438 12.1919H13.7438C13.3296 12.1919 12.9938 11.8561 12.9938 11.4419V8.44189ZM14.4938 9.19189V10.6919H15.9938V9.19189H14.4938ZM7.74377 13.6919C7.32956 13.6919 6.99377 14.0277 6.99377 14.4419V17.4419C6.99377 17.8561 7.32956 18.1919 7.74377 18.1919H10.7438C11.158 18.1919 11.4938 17.8561 11.4938 17.4419V14.4419C11.4938 14.0277 11.158 13.6919 10.7438 13.6919H7.74377ZM8.49377 16.6919V15.1919H9.99377V16.6919H8.49377ZM12.9938 14.4419C12.9938 14.0277 13.3296 13.6919 13.7438 13.6919H16.2438C16.658 13.6919 16.9938 14.0277 16.9938 14.4419V16.9419C16.9938 17.3561 16.658 17.6919 16.2438 17.6919H13.7438C13.3296 17.6919 12.9938 17.3561 12.9938 16.9419V14.4419ZM14.4938 15.1919V16.1919H15.4938V15.1919H14.4938Z" fill="#101010"/>
</svg>
