<svg width="24" height="24" viewBox="0 0 24 24" fill="none" xmlns="http://www.w3.org/2000/svg">
<path fill-rule="evenodd" clip-rule="evenodd" d="M18.9958 0.547363C18.4436 0.547363 17.9958 0.995079 17.9958 1.54736V6.58539L15.8139 4.40349C15.4234 4.01296 14.7903 4.01296 14.3997 4.40349C14.0092 4.79401 14.0092 5.42718 14.3997 5.8177L18.2888 9.70679C18.6793 10.0973 19.3125 10.0973 19.703 9.70679L23.5921 5.8177C23.9826 5.42718 23.9826 4.79401 23.5921 4.40349C23.2016 4.01296 22.5684 4.01296 22.1779 4.40349L19.9958 6.58555V1.54736C19.9958 0.995079 19.5481 0.547363 18.9958 0.547363ZM7.99585 7C6.89128 7 5.99585 7.89543 5.99585 9V17C5.99585 18.1046 6.89128 19 7.99585 19H15.9958C17.1004 19 17.9958 18.1046 17.9958 17V14C17.9958 13.4477 18.4436 13 18.9958 13C19.5481 13 19.9958 13.4477 19.9958 14V17C19.9958 19.2091 18.205 21 15.9958 21H7.99585C5.78671 21 3.99585 19.2091 3.99585 17V9C3.99585 6.79086 5.78671 5 7.99585 5H11.0034C11.5557 5 12.0034 5.44772 12.0034 6C12.0034 6.55228 11.5557 7 11.0034 7H7.99585ZM12.9932 10.2722H14.2254C14.4682 10.2722 14.6898 10.134 14.7967 9.91599C15.0038 9.49327 14.6961 8.99976 14.2254 8.99976H9.77597C9.53514 8.99976 9.31496 9.13573 9.20711 9.35106C8.99521 9.77411 9.30281 10.2722 9.77597 10.2722H10.6093C11.0108 10.3477 11.4105 10.5442 11.573 10.9998H9.86897C9.62673 10.9998 9.40551 11.1373 9.29836 11.3546C9.08984 11.7774 9.39753 12.2722 9.86897 12.2722H11.4781C11.2635 12.6888 10.774 13.0034 9.66147 12.8708L9.65939 12.8767C9.47394 12.8778 9.28855 12.9472 9.14425 13.0858C8.84553 13.3728 8.83599 13.8476 9.12294 14.1463L12.0431 17.1862C12.3301 17.4849 12.8048 17.4945 13.1036 17.2075C13.4023 16.9206 13.4118 16.4458 13.1249 16.1471L11.0436 13.9805C11.7706 13.8796 12.9472 13.4188 13.2591 12.2722H14.2323C14.4765 12.2722 14.6992 12.1324 14.8053 11.9125C15.0092 11.4901 14.7014 10.9998 14.2323 10.9998H13.2522C13.1997 10.7612 13.1237 10.5059 12.9932 10.2722Z" fill="#101010"/>
</svg>
