<svg width="24" height="24" viewBox="0 0 24 24" fill="none" xmlns="http://www.w3.org/2000/svg">
<path fill-rule="evenodd" clip-rule="evenodd" d="M14.3997 4.91819C14.0092 5.30871 14.0092 5.94188 14.3997 6.3324C14.7903 6.72292 15.4234 6.72292 15.8139 6.3324L17.9958 4.1505V8.99583C17.9958 9.54812 18.4436 9.99583 18.9958 9.99583C19.5481 9.99583 19.9958 9.54812 19.9958 8.99583V4.15034L22.1779 6.3324C22.5684 6.72292 23.2016 6.72292 23.5921 6.3324C23.9826 5.94188 23.9826 5.30871 23.5921 4.91819L19.703 1.0291C19.3125 0.638575 18.6793 0.638575 18.2888 1.0291L14.3997 4.91819ZM7.99585 7.00005C6.89128 7.00005 5.99585 7.89548 5.99585 9.00005V17C5.99585 18.1046 6.89128 19 7.99585 19H15.9958C17.1004 19 17.9958 18.1046 17.9958 17V14C17.9958 13.4478 18.4436 13 18.9958 13C19.5481 13 19.9958 13.4478 19.9958 14V17C19.9958 19.2092 18.205 21 15.9958 21H7.99585C5.78671 21 3.99585 19.2092 3.99585 17V9.00005C3.99585 6.79091 5.78671 5.00005 7.99585 5.00005H11.0034C11.5557 5.00005 12.0034 5.44776 12.0034 6.00005C12.0034 6.55233 11.5557 7.00005 11.0034 7.00005H7.99585ZM12.9932 10.2723H14.2254C14.4682 10.2723 14.6898 10.1341 14.7967 9.91604C15.0038 9.49332 14.6961 8.99981 14.2254 8.99981H9.77597C9.53514 8.99981 9.31496 9.13578 9.20711 9.35111C8.99521 9.77416 9.30281 10.2723 9.77597 10.2723H10.6093C11.0108 10.3478 11.4105 10.5443 11.573 10.9998H9.86897C9.62673 10.9998 9.40551 11.1374 9.29836 11.3546C9.08984 11.7774 9.39753 12.2723 9.86897 12.2723H11.4781C11.2635 12.6888 10.774 13.0034 9.66147 12.8709L9.65939 12.8768C9.47394 12.8778 9.28855 12.9473 9.14425 13.0859C8.84553 13.3728 8.83599 13.8476 9.12294 14.1463L12.0431 17.1863C12.3301 17.485 12.8048 17.4945 13.1036 17.2076C13.4023 16.9206 13.4118 16.4459 13.1249 16.1471L11.0436 13.9805C11.7706 13.8797 12.9472 13.4189 13.2591 12.2723H14.2323C14.4765 12.2723 14.6992 12.1325 14.8053 11.9125C15.0092 11.4901 14.7014 10.9998 14.2323 10.9998H13.2522C13.1997 10.7613 13.1237 10.5059 12.9932 10.2723Z" fill="#101010"/>
</svg>
