<svg width="24" height="24" viewBox="0 0 24 24" fill="none" xmlns="http://www.w3.org/2000/svg">
<path fill-rule="evenodd" clip-rule="evenodd" d="M3.00342 6.50391C3.00342 4.57091 4.57042 3.00391 6.50342 3.00391H17.5034C19.4364 3.00391 21.0034 4.57091 21.0034 6.50391V9.51162C21.0034 9.78776 20.7796 10.0116 20.5034 10.0116C20.2273 10.0116 20.0034 9.78776 20.0034 9.51162V6.50391C20.0034 5.12319 18.8841 4.00391 17.5034 4.00391H6.50342C5.12271 4.00391 4.00342 5.12319 4.00342 6.50391V17.5039C4.00342 18.8846 5.12271 20.0039 6.50342 20.0039H15.5014C15.7776 20.0039 16.0014 20.2278 16.0014 20.5039C16.0014 20.78 15.7776 21.0039 15.5014 21.0039H6.50342C4.57042 21.0039 3.00342 19.4369 3.00342 17.5039V6.50391ZM12.1531 9.9751C11.8943 9.28894 11.1933 9.02913 10.6725 8.9751H9.61041C9.25024 8.9751 9.00822 8.60579 9.15196 8.27555C9.23137 8.09309 9.41142 7.9751 9.61041 7.9751H14.405C14.7629 7.9751 15.0049 8.34017 14.8655 8.66983C14.7873 8.85486 14.6059 8.9751 14.405 8.9751H12.7707C13.0218 9.27936 13.1522 9.65056 13.2303 9.9751H14.405C14.7629 9.9751 15.0049 10.3402 14.8655 10.6698C14.7873 10.8549 14.6059 10.9751 14.405 10.9751H13.3157C13.1831 12.3587 12.0025 12.8897 11.2253 12.9936L13.2376 15.1029C13.2962 15.1641 13.3378 15.2354 13.3626 15.3109L13.3768 15.3257L13.3688 15.3311C13.4232 15.5212 13.373 15.7344 13.2202 15.8805C13.0006 16.0904 12.6524 16.0826 12.4425 15.863L10.2118 13.5248L9.70569 13.0023L9.70763 12.9964L9.49975 12.7785C9.28984 12.5589 9.29766 12.2108 9.51721 12.0008C9.67493 11.8501 9.89901 11.8116 10.0905 11.8833C11.5038 12.0478 12.011 11.5254 12.1768 10.9751H9.61041C9.25024 10.9751 9.00822 10.6058 9.15196 10.2756C9.23137 10.0931 9.41142 9.9751 9.61041 9.9751H12.1531ZM19.6385 13.531C18.8101 13.531 18.1385 14.2026 18.1385 15.031V15.1147C18.1385 15.3908 17.9147 15.6147 17.6385 15.6147C17.3624 15.6147 17.1385 15.3908 17.1385 15.1147V15.031C17.1385 13.6503 18.2578 12.531 19.6385 12.531H19.8288C21.1107 12.531 22.1499 13.5702 22.1499 14.8521C22.1499 15.5832 21.8055 16.2716 21.2203 16.7099L20.5858 17.1851C20.2076 17.4684 19.985 17.9132 19.985 18.3857V18.4887C19.985 18.7648 19.7611 18.9887 19.485 18.9887C19.2088 18.9887 18.985 18.7648 18.985 18.4887V18.3857C18.985 17.5983 19.356 16.8568 19.9863 16.3847L20.6208 15.9095C20.9539 15.66 21.1499 15.2682 21.1499 14.8521C21.1499 14.1225 20.5585 13.531 19.8288 13.531H19.6385ZM19.4552 21.8413C19.8694 21.8413 20.2052 21.5055 20.2052 21.0913C20.2052 20.6771 19.8694 20.3413 19.4552 20.3413C19.041 20.3413 18.7052 20.6771 18.7052 21.0913C18.7052 21.5055 19.041 21.8413 19.4552 21.8413Z" fill="#101010"/>
</svg>
