<svg width="24" height="24" viewBox="0 0 24 24" fill="none" xmlns="http://www.w3.org/2000/svg">
<path fill-rule="evenodd" clip-rule="evenodd" d="M10.1828 3.72193C12.0105 3.32039 13.9196 3.5332 15.614 4.32735C17.2432 5.09095 18.5864 6.35101 19.4525 7.92395L16.749 7.44724C16.477 7.39929 16.2177 7.58087 16.1697 7.85282C16.1218 8.12477 16.3034 8.3841 16.5753 8.43205L20.5145 9.12664C20.7865 9.17459 21.0458 8.99301 21.0938 8.72106L21.7884 4.78183C21.8363 4.50988 21.6547 4.25056 21.3828 4.2026C21.1108 4.15465 20.8515 4.33624 20.8036 4.60818L20.3099 7.40796C19.3413 5.66564 17.8477 4.26986 16.0384 3.42186C14.1446 2.53429 12.0109 2.29644 9.9682 2.74522C7.92549 3.194 6.08796 4.30432 4.74064 5.90395C3.39332 7.50358 2.61152 9.5031 2.51652 11.5924C2.50397 11.8682 2.71743 12.102 2.99329 12.1146C3.26914 12.1271 3.50294 11.9137 3.51548 11.6378C3.51763 11.5907 3.52016 11.5436 3.52308 11.4967C3.52984 11.4703 3.5343 11.443 3.53623 11.4151C3.5381 11.388 3.53752 11.3612 3.53468 11.3349C3.67773 9.57575 4.36527 7.9019 5.50549 6.54816C6.71099 5.11691 8.35509 4.12347 10.1828 3.72193ZM2.77148 14.1886C2.80564 14.3329 2.8432 14.4765 2.88416 14.6193C2.92512 14.7621 2.96938 14.9038 3.01689 15.0443C3.10536 15.3059 3.39747 15.4307 3.65403 15.3286C3.9106 15.2265 4.03431 14.9361 3.94746 14.674C3.91124 14.5647 3.87721 14.4545 3.84541 14.3437C3.81361 14.2328 3.78409 14.1213 3.75688 14.0094C3.69161 13.7411 3.4328 13.5604 3.16111 13.6098C2.88942 13.6592 2.70788 13.9199 2.77148 14.1886ZM20.6615 15.9383C20.7759 15.687 20.6483 15.3961 20.3914 15.295C20.1344 15.1939 19.8455 15.321 19.7295 15.5716C19.6811 15.6761 19.6305 15.7797 19.5778 15.8823C19.5252 15.985 19.4704 16.0864 19.4137 16.1866C19.2777 16.427 19.3428 16.7358 19.5748 16.8857C19.8067 17.0356 20.1174 16.9697 20.2549 16.7302C20.3287 16.6016 20.3996 16.4712 20.4675 16.339C20.5353 16.2068 20.6 16.0732 20.6615 15.9383ZM4.34216 17.6006C4.42957 17.7203 4.51985 17.8382 4.61297 17.954C4.70608 18.0697 4.8018 18.1832 4.90003 18.2943C5.08298 18.5011 5.40064 18.503 5.59757 18.3094C5.79451 18.1158 5.796 17.8002 5.61434 17.5922C5.53859 17.5055 5.46454 17.4172 5.39224 17.3273C5.31994 17.2374 5.24955 17.1461 5.1811 17.0535C5.01693 16.8315 4.70833 16.7652 4.47701 16.916C4.2457 17.0668 4.17938 17.3775 4.34216 17.6006ZM18.4595 18.9813C18.6624 18.794 18.6575 18.4764 18.4598 18.2836C18.2621 18.0908 17.9465 18.096 17.7424 18.282C17.6573 18.3596 17.5706 18.4355 17.4822 18.5097C17.3939 18.5839 17.3041 18.6562 17.213 18.7266C16.9945 18.8955 16.9348 19.2054 17.0905 19.4335C17.2462 19.6615 17.5582 19.7212 17.7778 19.5538C17.8957 19.4638 18.0115 19.3711 18.1253 19.2755C18.2391 19.18 18.3505 19.0819 18.4595 18.9813ZM7.11248 20.1371C7.23947 20.2136 7.36837 20.2872 7.49909 20.3579C7.6298 20.4285 7.76201 20.496 7.89561 20.5603C8.14443 20.6801 8.43798 20.5587 8.5445 20.304C8.65101 20.0492 8.53006 19.7576 8.28199 19.6363C8.17854 19.5857 8.07604 19.533 7.97456 19.4782C7.87307 19.4233 7.7728 19.3664 7.67381 19.3076C7.43642 19.1666 7.12626 19.2251 6.97148 19.4538C6.8167 19.6825 6.87597 19.9945 7.11248 20.1371ZM15.2502 20.933C15.5098 20.839 15.6285 20.5443 15.5209 20.2899C15.4134 20.0356 15.1204 19.9181 14.8602 20.0105C14.7517 20.049 14.6423 20.0854 14.5321 20.1195C14.4219 20.1537 14.3112 20.1855 14.1999 20.2151C13.933 20.2861 13.7578 20.5486 13.813 20.8192C13.8681 21.0898 14.1326 21.2658 14.3999 21.1965C14.5434 21.1593 14.6862 21.1187 14.8281 21.0747C14.9701 21.0307 15.1108 20.9835 15.2502 20.933ZM10.6494 21.4016C10.7961 21.4229 10.9435 21.4409 11.0913 21.4553C11.2392 21.4698 11.3872 21.4808 11.5353 21.4883C11.8111 21.5022 12.0347 21.2766 12.0341 21.0004C12.0336 20.7243 11.8091 20.5024 11.5334 20.4867C11.4184 20.4802 11.3035 20.4713 11.1887 20.4601C11.0739 20.4488 10.9594 20.4353 10.8453 20.4194C10.5718 20.3814 10.3086 20.5556 10.2545 20.8264C10.2005 21.0972 10.3761 21.3619 10.6494 21.4016ZM11.9446 8.50053V12.0005H15.4455C15.7217 12.0005 15.9455 12.2244 15.9455 12.5005C15.9455 12.7767 15.7217 13.0005 15.4455 13.0005H10.9446V8.50053C10.9446 8.22439 11.1684 8.00053 11.4446 8.00053C11.7207 8.00053 11.9446 8.22439 11.9446 8.50053Z" fill="#F19E0C"/>
</svg>
