<svg width="25" height="25" viewBox="0 0 25 25" fill="none" xmlns="http://www.w3.org/2000/svg">
<path fill-rule="evenodd" clip-rule="evenodd" d="M10.2879 3.84253C12.1156 3.441 14.0247 3.6538 15.7191 4.44795C17.3483 5.21156 18.6915 6.47161 19.5576 8.04456L16.8541 7.56785C16.5821 7.5199 16.3228 7.70148 16.2748 7.97343C16.2269 8.24537 16.4085 8.5047 16.6804 8.55266L20.6196 9.24725C20.8916 9.2952 21.1509 9.11362 21.1989 8.84167L21.8935 4.90244C21.9414 4.63049 21.7598 4.37116 21.4879 4.32321C21.2159 4.27526 20.9566 4.45684 20.9087 4.72879L20.415 7.52856C19.4464 5.78624 17.9528 4.39046 16.1435 3.54247C14.2497 2.65489 12.116 2.41705 10.0733 2.86583C8.03059 3.31461 6.19306 4.42492 4.84574 6.02455C3.49842 7.62418 2.71663 9.62371 2.62162 11.713C2.60908 11.9888 2.82253 12.2226 3.09839 12.2352C3.37425 12.2477 3.60804 12.0343 3.62059 11.7584C3.62273 11.7113 3.62526 11.6643 3.62818 11.6173C3.63494 11.5909 3.6394 11.5637 3.64133 11.5357C3.6432 11.5086 3.64263 11.4818 3.63978 11.4555C3.78283 9.69636 4.47037 8.02251 5.61059 6.66876C6.81609 5.23751 8.46019 4.24407 10.2879 3.84253ZM2.87659 14.3092C2.91074 14.4535 2.9483 14.5971 2.98926 14.7399C3.03022 14.8828 3.07448 15.0244 3.12199 15.1649C3.21047 15.4265 3.50257 15.5513 3.75914 15.4492C4.0157 15.3471 4.13942 15.0567 4.05256 14.7946C4.01634 14.6853 3.98231 14.5752 3.95051 14.4643C3.91871 14.3534 3.8892 14.2419 3.86198 14.13C3.79671 13.8617 3.53791 13.6811 3.26621 13.7304C2.99452 13.7798 2.81298 14.0405 2.87659 14.3092ZM20.7666 16.0589C20.881 15.8076 20.7534 15.5167 20.4965 15.4156C20.2395 15.3145 19.9506 15.4416 19.8346 15.6922C19.7862 15.7967 19.7356 15.9003 19.683 16.0029C19.6303 16.1056 19.5755 16.207 19.5188 16.3072C19.3828 16.5476 19.4479 16.8564 19.6799 17.0063C19.9118 17.1562 20.2225 17.0903 20.36 16.8508C20.4338 16.7223 20.5047 16.5918 20.5726 16.4596C20.6404 16.3275 20.7051 16.1938 20.7666 16.0589ZM4.44726 17.7212C4.53467 17.8409 4.62496 17.9588 4.71807 18.0746C4.81118 18.1903 4.9069 18.3038 5.00514 18.4149C5.18808 18.6217 5.50574 18.6236 5.70267 18.43C5.89961 18.2364 5.90111 17.9208 5.71944 17.7128C5.64369 17.6261 5.56964 17.5378 5.49734 17.4479C5.42505 17.358 5.35465 17.2667 5.2862 17.1741C5.12204 16.9521 4.81343 16.8858 4.58212 17.0366C4.3508 17.1875 4.28448 17.4981 4.44726 17.7212ZM18.5646 19.1019C18.7675 18.9146 18.7626 18.597 18.5649 18.4042C18.3672 18.2114 18.0516 18.2166 17.8475 18.4026C17.7624 18.4802 17.6757 18.5561 17.5873 18.6303C17.499 18.7045 17.4092 18.7768 17.3181 18.8472C17.0996 19.0161 17.0399 19.326 17.1956 19.5541C17.3513 19.7821 17.6633 19.8418 17.8829 19.6744C18.0008 19.5844 18.1166 19.4917 18.2304 19.3961C18.3442 19.3006 18.4556 19.2025 18.5646 19.1019ZM7.21758 20.2577C7.34458 20.3342 7.47348 20.4079 7.60419 20.4785C7.7349 20.5491 7.86711 20.6166 8.00072 20.681C8.24953 20.8007 8.54308 20.6793 8.6496 20.4246C8.75611 20.1698 8.63516 19.8782 8.38709 19.7569C8.28365 19.7063 8.18115 19.6536 8.07966 19.5988C7.97817 19.5439 7.8779 19.4871 7.77891 19.4282C7.54152 19.2872 7.23136 19.3457 7.07658 19.5744C6.9218 19.8031 6.98107 20.1152 7.21758 20.2577ZM15.3553 21.0536C15.6149 20.9596 15.7336 20.6649 15.626 20.4105C15.5185 20.1562 15.2255 20.0387 14.9653 20.1311C14.8568 20.1696 14.7474 20.206 14.6372 20.2401C14.527 20.2743 14.4163 20.3061 14.305 20.3357C14.0381 20.4067 13.863 20.6692 13.9181 20.9398C13.9732 21.2104 14.2377 21.3864 14.505 21.3171C14.6485 21.2799 14.7913 21.2393 14.9332 21.1953C15.0752 21.1513 15.2159 21.1041 15.3553 21.0536ZM10.7545 21.5222C10.9012 21.5436 11.0486 21.5615 11.1964 21.5759C11.3443 21.5904 11.4923 21.6014 11.6404 21.6089C11.9162 21.6228 12.1398 21.3972 12.1392 21.121C12.1387 20.8449 11.9142 20.623 11.6385 20.6073C11.5235 20.6008 11.4086 20.5919 11.2938 20.5807C11.179 20.5694 11.0645 20.5559 10.9504 20.54C10.6769 20.502 10.4137 20.6762 10.3596 20.947C10.3056 21.2178 10.4812 21.4825 10.7545 21.5222ZM12.0497 8.62114V12.1211H15.5506C15.8268 12.1211 16.0506 12.345 16.0506 12.6211C16.0506 12.8973 15.8268 13.1211 15.5506 13.1211H11.0497V8.62114C11.0497 8.345 11.2735 8.12114 11.5497 8.12114C11.8258 8.12114 12.0497 8.345 12.0497 8.62114Z" fill="#F19E0C"/>
</svg>
