<svg width="24" height="24" viewBox="0 0 24 24" fill="none" xmlns="http://www.w3.org/2000/svg">
<path fill-rule="evenodd" clip-rule="evenodd" d="M6.50028 3.0033C4.56732 3.0033 3.00034 4.57023 3.00028 6.50319L3.00024 7.51343C3.00024 7.78957 3.22409 8.01344 3.50023 8.01344C3.77637 8.01345 4.00024 7.7896 4.00024 7.51346L4.00028 6.50322C4.00032 5.12254 5.11959 4.0033 6.50028 4.0033H7.49497C7.77112 4.0033 7.99497 3.77944 7.99497 3.5033C7.99497 3.22715 7.77112 3.0033 7.49497 3.0033H6.50028ZM16.501 3.0033C16.2248 3.0033 16.001 3.22715 16.001 3.5033C16.001 3.77944 16.2248 4.0033 16.501 4.0033H17.5004C18.8811 4.0033 20.0004 5.12258 20.0004 6.5033V7.50235C20.0004 7.77849 20.2242 8.00235 20.5004 8.00235C20.7765 8.00235 21.0004 7.77849 21.0004 7.50235V6.5033C21.0004 4.5703 19.4334 3.0033 17.5004 3.0033H16.501ZM21.0004 16.5028C21.0004 16.2267 20.7765 16.0028 20.5004 16.0028C20.2242 16.0028 20.0004 16.2267 20.0004 16.5028V17.5033C20.0004 18.884 18.8811 20.0033 17.5004 20.0033H16.4995C16.2233 20.0033 15.9995 20.2272 15.9995 20.5033C15.9995 20.7794 16.2233 21.0033 16.4995 21.0033H17.5004C19.4334 21.0033 21.0004 19.4363 21.0004 17.5033V16.5028ZM4.00037 16.5084C4.00037 16.2322 3.77651 16.0084 3.50037 16.0084C3.22423 16.0084 3.00037 16.2322 3.00037 16.5084V17.5033C3.00037 19.4363 4.56737 21.0033 6.50037 21.0033H7.50359C7.77973 21.0033 8.00359 20.7794 8.00359 20.5033C8.00359 20.2272 7.77973 20.0033 7.50359 20.0033H6.50037C5.11966 20.0033 4.00037 18.884 4.00037 17.5033V16.5084ZM7.00684 7.50549C7.00684 7.22935 7.23069 7.00549 7.50684 7.00549H10.5068C10.783 7.00549 11.0068 7.22935 11.0068 7.50549V10.5055C11.0068 10.7816 10.783 11.0055 10.5068 11.0055H7.50684C7.23069 11.0055 7.00684 10.7816 7.00684 10.5055V7.50549ZM8.00684 8.00549V10.0055H10.0068V8.00549H8.00684ZM13.01 7.50549C13.01 7.22935 13.2339 7.00549 13.51 7.00549H16.51C16.7862 7.00549 17.01 7.22935 17.01 7.50549V10.5055C17.01 10.7816 16.7862 11.0055 16.51 11.0055H13.51C13.2339 11.0055 13.01 10.7816 13.01 10.5055V7.50549ZM14.01 8.00549V10.0055H16.01V8.00549H14.01ZM7.50989 12.9999C7.23375 12.9999 7.00989 13.2237 7.00989 13.4999V16.4999C7.00989 16.776 7.23375 16.9999 7.50989 16.9999H10.5099C10.786 16.9999 11.0099 16.776 11.0099 16.4999V13.4999C11.0099 13.2237 10.786 12.9999 10.5099 12.9999H7.50989ZM8.00989 15.9999V13.9999H10.0099V15.9999H8.00989ZM13 13.4999C13 13.2237 13.2239 12.9999 13.5 12.9999H16C16.2761 12.9999 16.5 13.2237 16.5 13.4999V15.9999C16.5 16.276 16.2761 16.4999 16 16.4999H13.5C13.2239 16.4999 13 16.276 13 15.9999V13.4999ZM14 13.9999V15.4999H15.5V13.9999H14Z" fill="#101010"/>
</svg>
