<svg width="25" height="25" viewBox="0 0 25 25" fill="none" xmlns="http://www.w3.org/2000/svg">
<path fill-rule="evenodd" clip-rule="evenodd" d="M19.7101 1.96045C19.4339 1.96045 19.2101 2.1843 19.2101 2.46044L19.21 9.26685L16.1746 6.23141C15.9793 6.03615 15.6627 6.03615 15.4674 6.23141C15.2722 6.42667 15.2722 6.74325 15.4674 6.93851L19.3565 10.8276C19.5518 11.0229 19.8684 11.0229 20.0636 10.8276L23.9527 6.93851C24.148 6.74325 24.148 6.42667 23.9527 6.23141C23.7575 6.03615 23.4409 6.03615 23.2456 6.23141L20.21 9.26704L20.2101 2.46046C20.2101 2.18431 19.9862 1.96045 19.7101 1.96045ZM5.21008 9.45752C5.21008 8.07681 6.32937 6.95752 7.71008 6.95752H12.7155C12.9916 6.95752 13.2155 6.73366 13.2155 6.45752C13.2155 6.18138 12.9916 5.95752 12.7155 5.95752H7.71008C5.77709 5.95752 4.21008 7.52452 4.21008 9.45752V18.4575C4.21008 20.3905 5.77709 21.9575 7.71008 21.9575H16.7101C18.6431 21.9575 20.2101 20.3905 20.2101 18.4575V14.4579C20.2101 14.1818 19.9862 13.9579 19.7101 13.9579C19.4339 13.9579 19.2101 14.1818 19.2101 14.4579V18.4575C19.2101 19.8382 18.0908 20.9575 16.7101 20.9575H7.71008C6.32937 20.9575 5.21008 19.8382 5.21008 18.4575V9.45752ZM9.8172 9.95947C9.61821 9.95947 9.43816 10.0775 9.35874 10.2599C9.215 10.5902 9.45703 10.9595 9.8172 10.9595H10.8793C11.4001 11.0135 12.1011 11.2733 12.3598 11.9595H9.8172C9.61821 11.9595 9.43816 12.0775 9.35874 12.2599C9.215 12.5902 9.45703 12.9595 9.8172 12.9595H12.3836C12.2178 13.5098 11.7106 14.0321 10.2973 13.8677C10.1058 13.796 9.88172 13.8344 9.724 13.9852C9.50444 14.1951 9.49662 14.5433 9.70653 14.7628L9.91442 14.9807L9.91248 14.9866L10.4186 15.5092L12.6493 17.8474C12.8592 18.067 13.2074 18.0748 13.4269 17.8649C13.5798 17.7187 13.63 17.5056 13.5756 17.3155L13.5836 17.3101L13.5694 17.2952C13.5446 17.2198 13.503 17.1485 13.4444 17.0873L11.4321 14.978C12.2093 14.8741 13.3899 14.3431 13.5225 12.9595H14.6118C14.8127 12.9595 14.9941 12.8392 15.0723 12.6542C15.2117 12.3245 14.9697 11.9595 14.6118 11.9595H13.437C13.359 11.6349 13.2286 11.2637 12.9775 10.9595H14.6118C14.8127 10.9595 14.9941 10.8392 15.0723 10.6542C15.2117 10.3245 14.9697 9.95947 14.6118 9.95947H9.8172Z" fill="#101010"/>
</svg>
