<svg width="24" height="24" viewBox="0 0 24 24" fill="none" xmlns="http://www.w3.org/2000/svg">
<path fill-rule="evenodd" clip-rule="evenodd" d="M15.2574 5.27198C15.0622 5.46725 15.0622 5.78383 15.2574 5.97909C15.4527 6.17435 15.7693 6.17435 15.9645 5.97909L18.9999 2.94368V9.50851C18.9999 9.78466 19.2238 10.0085 19.4999 10.0085C19.7761 10.0085 19.9999 9.78466 19.9999 9.50851V2.94343L23.0356 5.97909C23.2309 6.17435 23.5474 6.17435 23.7427 5.97909C23.938 5.78383 23.938 5.46725 23.7427 5.27198L19.8536 1.3829C19.6584 1.18763 19.3418 1.18763 19.1465 1.3829L15.2574 5.27198ZM5.00006 8.4981C5.00006 7.11738 6.11935 5.9981 7.50006 5.9981H12.5055C12.7816 5.9981 13.0055 5.77424 13.0055 5.4981C13.0055 5.22195 12.7816 4.9981 12.5055 4.9981H7.50006C5.56707 4.9981 4.00006 6.5651 4.00006 8.4981V17.4981C4.00006 19.4311 5.56706 20.9981 7.50006 20.9981H16.5001C18.4331 20.9981 20.0001 19.4311 20.0001 17.4981V13.4985C20.0001 13.2224 19.7762 12.9985 19.5001 12.9985C19.2239 12.9985 19.0001 13.2224 19.0001 13.4985V17.4981C19.0001 18.8788 17.8808 19.9981 16.5001 19.9981H7.50006C6.11935 19.9981 5.00006 18.8788 5.00006 17.4981V8.4981ZM9.60718 9.00005C9.40819 9.00005 9.22814 9.11805 9.14872 9.3005C9.00498 9.63075 9.24701 10 9.60718 10H10.6693C11.19 10.0541 11.8911 10.3139 12.1498 11H9.60718C9.40819 11 9.22814 11.118 9.14872 11.3005C9.00498 11.6307 9.24701 12 9.60718 12H12.1736C12.0077 12.5503 11.5006 13.0727 10.0873 12.9083C9.89578 12.8366 9.6717 12.875 9.51398 13.0258C9.29442 13.2357 9.2866 13.5839 9.49651 13.8034L9.7044 14.0213L9.70245 14.0272L10.2085 14.5498L12.4393 16.888C12.6492 17.1076 12.9974 17.1154 13.2169 16.9055C13.3698 16.7593 13.42 16.5462 13.3656 16.3561L13.3736 16.3507L13.3594 16.3358C13.3346 16.2604 13.2929 16.1891 13.2344 16.1278L11.2221 14.0186C11.9993 13.9147 13.1799 13.3837 13.3125 12H14.4018C14.6026 12 14.784 11.8798 14.8623 11.6948C15.0017 11.3651 14.7597 11 14.4018 11H13.227C13.149 10.6755 13.0186 10.3043 12.7675 10H14.4018C14.6026 10 14.784 9.87981 14.8623 9.69478C15.0017 9.36512 14.7597 9.00005 14.4018 9.00005H9.60718Z" fill="#101010"/>
</svg>
