<svg width="24" height="24" viewBox="0 0 24 24" fill="none" xmlns="http://www.w3.org/2000/svg">
<path fill-rule="evenodd" clip-rule="evenodd" d="M11.9999 3.96802C10.6192 3.96802 9.49988 5.08731 9.49988 6.46802C9.49988 7.84873 10.6192 8.96802 11.9999 8.96802C13.3806 8.96802 14.4999 7.84873 14.4999 6.46802C14.4999 5.08731 13.3806 3.96802 11.9999 3.96802ZM8.49988 6.46802C8.49988 4.53502 10.0669 2.96802 11.9999 2.96802C13.9329 2.96802 15.4999 4.53502 15.4999 6.46802C15.4999 8.40101 13.9329 9.96802 11.9999 9.96802C10.0669 9.96802 8.49988 8.40101 8.49988 6.46802ZM1.94229 15.2676C1.83367 15.0137 1.95142 14.7198 2.2053 14.6112L6.34252 12.841C6.5964 12.7324 6.89027 12.8502 6.99889 13.104L8.76904 17.2413C8.87767 17.4951 8.75991 17.789 8.50603 17.8976C8.25215 18.0063 7.95828 17.8885 7.84966 17.6346L6.5618 14.6246L5.97636 15.8487C5.63897 16.5541 5.40061 17.3028 5.26804 18.0734C5.00545 19.5999 6.18097 20.9949 7.72981 20.9949H16.3103C17.8962 20.9949 19.0813 19.5373 18.7577 17.9848L18.5318 16.9006C18.0003 14.3503 15.7525 12.5227 13.1475 12.5227H9.51102C9.23488 12.5227 9.01102 12.2988 9.01102 12.0227C9.01102 11.7466 9.23488 11.5227 9.51102 11.5227H13.1475C16.2262 11.5227 18.8826 13.6826 19.5107 16.6966L19.7367 17.7808C20.1897 19.9543 18.5305 21.9949 16.3103 21.9949H7.72981C5.56092 21.9949 3.91481 20.0414 4.28251 17.9039C4.43069 17.0425 4.69711 16.2057 5.07423 15.4172L5.64299 14.228L2.59867 15.5306C2.34479 15.6392 2.05092 15.5214 1.94229 15.2676Z" fill="#101010"/>
</svg>
