<svg width="25" height="25" viewBox="0 0 25 25" fill="none" xmlns="http://www.w3.org/2000/svg">
<path fill-rule="evenodd" clip-rule="evenodd" d="M5.21326 6.45556C5.21326 5.07485 6.33254 3.95557 7.71326 3.95557H13.7083C13.9844 3.95557 14.2083 3.73171 14.2083 3.45557C14.2083 3.17942 13.9844 2.95557 13.7083 2.95557H7.71326C5.78026 2.95557 4.21326 4.52257 4.21326 6.45556V7.45947H2.71326C2.43711 7.45947 2.21326 7.68333 2.21326 7.95947C2.21326 8.23562 2.43711 8.45947 2.71326 8.45947H4.21326V12.4595H2.71326C2.43711 12.4595 2.21326 12.6833 2.21326 12.9595C2.21326 13.2356 2.43711 13.4595 2.71326 13.4595H4.21326V17.4595H2.71326C2.43711 17.4595 2.21326 17.6833 2.21326 17.9595C2.21326 18.2356 2.43711 18.4595 2.71326 18.4595H4.21326V19.4634C4.21326 21.3964 5.78026 22.9634 7.71326 22.9634H16.7066C18.6396 22.9634 20.2066 21.3964 20.2066 19.4634V15.4882C20.2066 15.212 19.9828 14.9882 19.7066 14.9882C19.4305 14.9882 19.2066 15.212 19.2066 15.4882V19.4634C19.2066 20.8441 18.0873 21.9634 16.7066 21.9634H7.71326C6.33255 21.9634 5.21326 20.8441 5.21326 19.4634V17.9595V12.9595V7.95947V6.45556ZM16.1713 7.69828L19.217 4.65249V11.5049C19.217 11.781 19.4409 12.0049 19.717 12.0049C19.9932 12.0049 20.217 11.781 20.217 11.5049V4.673L23.2423 7.69828C23.4376 7.89354 23.7542 7.89354 23.9494 7.69828C24.1447 7.50302 24.1447 7.18644 23.9494 6.99117L20.0603 3.10209C19.8651 2.90682 19.5485 2.90682 19.3532 3.10209L15.4641 6.99117C15.2689 7.18644 15.2689 7.50302 15.4641 7.69828C15.6594 7.89354 15.976 7.89354 16.1713 7.69828ZM12.21 11.9727C12.7622 11.9727 13.21 11.5249 13.21 10.9727C13.21 10.4204 12.7622 9.97266 12.21 9.97266C11.6577 9.97266 11.21 10.4204 11.21 10.9727C11.21 11.5249 11.6577 11.9727 12.21 11.9727ZM12.21 12.9727C13.3145 12.9727 14.21 12.0772 14.21 10.9727C14.21 9.86809 13.3145 8.97266 12.21 8.97266C11.1054 8.97266 10.21 9.86809 10.21 10.9727C10.21 12.0772 11.1054 12.9727 12.21 12.9727ZM9.21893 17.001C9.31998 15.8797 10.2624 15.001 11.41 15.001H13.01C14.1576 15.001 15.0999 15.8797 15.201 17.001H9.21893ZM8.20996 17.201C8.20996 15.4337 9.64265 14.001 11.41 14.001H13.01C14.7773 14.001 16.21 15.4337 16.21 17.201C16.21 17.6428 15.8518 18.001 15.41 18.001H9.00996C8.56813 18.001 8.20996 17.6428 8.20996 17.201Z" fill="#101010"/>
</svg>
