<svg width="25" height="25" viewBox="0 0 25 25" fill="none" xmlns="http://www.w3.org/2000/svg">
<path fill-rule="evenodd" clip-rule="evenodd" d="M18.2456 4.95947H6.24561C5.14104 4.95947 4.24561 5.8549 4.24561 6.95947V18.9595C4.24561 20.064 5.14104 20.9595 6.24561 20.9595H18.2456C19.3502 20.9595 20.2456 20.064 20.2456 18.9595V6.95947C20.2456 5.8549 19.3502 4.95947 18.2456 4.95947ZM6.24561 3.95947C4.58875 3.95947 3.24561 5.30262 3.24561 6.95947V18.9595C3.24561 20.6163 4.58875 21.9595 6.24561 21.9595H18.2456C19.9025 21.9595 21.2456 20.6163 21.2456 18.9595V6.95947C21.2456 5.30262 19.9025 3.95947 18.2456 3.95947H6.24561Z" fill="#101010"/>
<path d="M10.4056 17.9595L13.2406 7.95947L15.8706 12.9445L10.4056 17.9595Z" fill="#028C3C"/>
<path d="M8.62061 17.9595L11.4556 7.95947L14.0856 12.9445L8.62061 17.9595Z" fill="#FE7A09"/>
</svg>
