<svg width="25" height="25" viewBox="0 0 25 25" fill="none" xmlns="http://www.w3.org/2000/svg">
<path fill-rule="evenodd" clip-rule="evenodd" d="M4.21423 6.46436C4.21423 4.53136 5.78124 2.96436 7.71423 2.96436H16.7142C18.6472 2.96436 20.2142 4.53136 20.2142 6.46436V19.4644C20.2142 21.3974 18.6472 22.9644 16.7142 22.9644H7.71423C5.78124 22.9644 4.21423 21.3974 4.21423 19.4644V18.459H2.69897C2.42283 18.459 2.19897 18.2351 2.19897 17.959C2.19897 17.6828 2.42283 17.459 2.69897 17.459H4.21423V13.459H2.69897C2.42283 13.459 2.19897 13.2351 2.19897 12.959C2.19897 12.6828 2.42283 12.459 2.69897 12.459H4.21423V8.45898H2.69897C2.42283 8.45898 2.19897 8.23513 2.19897 7.95898C2.19897 7.68284 2.42283 7.45898 2.69897 7.45898H4.21423V6.46436ZM5.21423 19.4644V17.9635L5.21425 17.959L5.21423 17.9544V12.9635L5.21425 12.959L5.21423 12.9544V7.96353L5.21425 7.95898L5.21423 7.95444V6.46436C5.21423 5.08364 6.33352 3.96436 7.71423 3.96436H16.7142C18.0949 3.96436 19.2142 5.08364 19.2142 6.46436V19.4644C19.2142 20.8451 18.0949 21.9644 16.7142 21.9644H7.71423C6.33352 21.9644 5.21423 20.8451 5.21423 19.4644ZM10.8792 7.95947C11.4 8.01351 12.101 8.27331 12.3597 8.95947H9.81708C9.61809 8.95947 9.43804 9.07747 9.35862 9.25993C9.21488 9.59017 9.45691 9.95947 9.81708 9.95947H12.3835C12.2176 10.5098 11.7105 11.0321 10.2972 10.8677C10.1057 10.796 9.8816 10.8344 9.72388 10.9852C9.50432 11.1951 9.4965 11.5433 9.70641 11.7628L9.9143 11.9807L9.91235 11.9866L10.4184 12.5092L12.6492 14.8474C12.8591 15.067 13.2073 15.0748 13.4268 14.8649C13.5797 14.7187 13.6299 14.5056 13.5755 14.3155L13.5835 14.3101L13.5693 14.2952C13.5445 14.2198 13.5028 14.1485 13.4443 14.0873L11.432 11.978C12.2092 11.8741 13.3898 11.3431 13.5224 9.95947H14.6117C14.8125 9.95947 14.9939 9.83923 15.0722 9.6542C15.2116 9.32454 14.9696 8.95947 14.6117 8.95947H13.4369C13.3589 8.63494 13.2285 8.26374 12.9774 7.95947H14.6117C14.8125 7.95947 14.9939 7.83923 15.0722 7.6542C15.2116 7.32454 14.9696 6.95947 14.6117 6.95947H9.81708C9.61809 6.95947 9.43804 7.07747 9.35862 7.25993C9.21488 7.59017 9.45691 7.95947 9.81708 7.95947H10.8792ZM9.71411 17.9785C9.43797 17.9785 9.21411 18.2024 9.21411 18.4785C9.21411 18.7547 9.43797 18.9785 9.71411 18.9785H14.7141C14.9903 18.9785 15.2141 18.7547 15.2141 18.4785C15.2141 18.2024 14.9903 17.9785 14.7141 17.9785H9.71411Z" fill="#101010"/>
</svg>
