<svg width="25" height="25" viewBox="0 0 25 25" fill="none" xmlns="http://www.w3.org/2000/svg">
<path fill-rule="evenodd" clip-rule="evenodd" d="M11.6816 1.87129C11.908 1.78639 12.1575 1.78639 12.3838 1.87129L20.3838 4.87129C20.7741 5.01765 21.0327 5.39077 21.0327 5.80762V8.68848C21.0327 9.24076 20.585 9.68848 20.0327 9.68848H19.0327V15.6885H20.0327C20.585 15.6885 21.0327 16.1362 21.0327 16.6885V20.6885C21.0327 21.2408 20.585 21.6885 20.0327 21.6885H4.03271C3.48043 21.6885 3.03271 21.2408 3.03271 20.6885V16.6885C3.03271 16.1362 3.48043 15.6885 4.03271 15.6885H5.03271V9.68848H4.03271C3.48043 9.68848 3.03271 9.24076 3.03271 8.68848V5.80762C3.03271 5.39077 3.29129 5.01765 3.68159 4.87129L11.6816 1.87129ZM7.03271 9.68848V15.6885H11.0327V9.68848H7.03271ZM13.0327 9.68848V15.6885H17.0327V9.68848H13.0327ZM5.03271 6.50062V7.68848H19.0327V6.50062L12.0327 3.87562L5.03271 6.50062ZM5.03271 17.6885V19.6885H19.0327V17.6885H5.03271Z" fill="#101010"/>
</svg>
