<svg width="24" height="25" viewBox="0 0 24 25" fill="none" xmlns="http://www.w3.org/2000/svg">
<path fill-rule="evenodd" clip-rule="evenodd" d="M20.0005 7.26955L22.5314 4.73862L23.9456 6.15283L19.703 10.3955C19.3125 10.786 18.6793 10.786 18.2888 10.3955L14.0461 6.15283L15.4604 4.73862L18.0005 7.27875V1.70361H20.0005V7.26955ZM5.99585 9.68848C5.99585 8.58391 6.89128 7.68848 7.99585 7.68848H12.0177V5.68848H7.99585C5.78671 5.68848 3.99585 7.47934 3.99585 9.68848V17.6885C3.99585 19.8976 5.78671 21.6885 7.99585 21.6885H15.9958C18.205 21.6885 19.9958 19.8976 19.9958 17.6885V13.6885H17.9958V17.6885C17.9958 18.793 17.1004 19.6885 15.9958 19.6885H7.99585C6.89128 19.6885 5.99585 18.793 5.99585 17.6885V9.68848ZM15.4795 9.68848H10.1621L9.58398 10.9609H11.2994C11.701 11.0364 12.1007 11.2329 12.2632 11.6885H10.1621L9.58398 12.9609H12.1333C11.873 13.3593 11.2769 13.6544 9.91357 13.5345V14.7991L12.5893 17.6885H14.5131L11.6429 14.6802C12.3584 14.6066 13.624 14.1567 13.9493 12.9609H14.9139L15.4795 11.6885H13.9424C13.8899 11.4499 13.8139 11.1946 13.6834 10.9609H14.9139L15.4795 9.68848Z" fill="#101010"/>
</svg>
