<svg width="25" height="25" viewBox="0 0 25 25" fill="none" xmlns="http://www.w3.org/2000/svg">
<path fill-rule="evenodd" clip-rule="evenodd" d="M12.0383 4.68848C10.9338 4.68848 10.0383 5.58391 10.0383 6.68848C10.0383 7.79305 10.9338 8.68848 12.0383 8.68848C13.1429 8.68848 14.0383 7.79305 14.0383 6.68848C14.0383 5.58391 13.1429 4.68848 12.0383 4.68848ZM8.03833 6.68848C8.03833 4.47934 9.82919 2.68848 12.0383 2.68848C14.2475 2.68848 16.0383 4.47934 16.0383 6.68848C16.0383 8.89762 14.2475 10.6885 12.0383 10.6885C9.82919 10.6885 8.03833 8.89762 8.03833 6.68848ZM4.77895 15.5514L2.6608 16.5845L1.78406 14.7869L6.27803 12.595C6.77442 12.3529 7.37309 12.559 7.61519 13.0554L9.80705 17.5494L8.00946 18.4261L6.82431 15.9962C6.32678 16.7734 6.03833 17.6972 6.03833 18.6885C6.03833 19.793 6.93376 20.6885 8.03833 20.6885H16.0383C17.1429 20.6885 18.0383 19.793 18.0383 18.6885C18.0383 15.9271 15.7998 13.6885 13.0383 13.6885H11.0383C10.747 13.6885 10.4614 13.7134 10.1837 13.7612L9.28119 11.9108C9.84267 11.7657 10.4315 11.6885 11.0383 11.6885H13.0383C16.9043 11.6885 20.0383 14.8225 20.0383 18.6885C20.0383 20.8976 18.2475 22.6885 16.0383 22.6885H8.03833C5.82919 22.6885 4.03833 20.8976 4.03833 18.6885C4.03833 17.5606 4.30508 16.495 4.77895 15.5514Z" fill="#101010"/>
</svg>
