<svg width="24" height="24" viewBox="0 0 24 24" fill="none" xmlns="http://www.w3.org/2000/svg">
<path fill-rule="evenodd" clip-rule="evenodd" d="M5.95874 5.99951C5.95874 4.89494 6.85417 3.99951 7.95874 3.99951H13.9608V1.99951H7.95874C5.7496 1.99951 3.95874 3.79037 3.95874 5.99951L2 5.99951V7.99951H3.95874V10.9995H2V12.9995H3.95874V15.9995H2V17.9995H3.95874C3.95874 20.2087 5.7496 21.9995 7.95874 21.9995H15.9587C18.1679 21.9995 19.9587 20.2087 19.9587 17.9995V13.9995H17.9587V17.9995C17.9587 19.1041 17.0633 19.9995 15.9587 19.9995H7.95874C6.85417 19.9995 5.95874 19.1041 5.95874 17.9995V5.99951ZM17.9587 11.9999V5.41436L15.4232 7.94986L14.009 6.53564L18.2517 2.293C18.6422 1.90248 19.2754 1.90248 19.6659 2.293L23.9085 6.53564L22.4943 7.94986L19.9587 5.41428V11.9999H17.9587ZM14 10.9873C14 12.0919 13.1046 12.9873 12 12.9873C10.8954 12.9873 10 12.0919 10 10.9873C10 9.88274 10.8954 8.9873 12 8.9873C13.1046 8.9873 14 9.88274 14 10.9873ZM11.2 14.0156C9.43269 14.0156 8 15.4483 8 17.2156C8 17.6575 8.35817 18.0156 8.8 18.0156H15.2C15.6418 18.0156 16 17.6575 16 17.2156C16 15.4483 14.5673 14.0156 12.8 14.0156H11.2Z" fill="#101010"/>
</svg>
