<svg width="25" height="25" viewBox="0 0 25 25" fill="none" xmlns="http://www.w3.org/2000/svg">
<path fill-rule="evenodd" clip-rule="evenodd" d="M6 6.68799C6 5.58342 6.89543 4.68799 8 4.68799H14.002V2.68799H8C5.79086 2.68799 4 4.47885 4 6.68799L2.04126 6.68799V8.68799H4V11.688H2.04126V13.688H4V16.688H2.04126V18.688H4C4 20.8971 5.79086 22.688 8 22.688H16C18.2091 22.688 20 20.8971 20 18.688V14.688H18V18.688C18 19.7926 17.1046 20.688 16 20.688H8C6.89543 20.688 6 19.7926 6 18.688V6.68799ZM18 12.6884V6.10284L15.4645 8.63833L14.0503 7.22412L18.2929 2.98148C18.6835 2.59096 19.3166 2.59096 19.7071 2.98148L23.9498 7.22412L22.5356 8.63833L20 6.10276V12.6884H18ZM14.0413 11.6758C14.0413 12.7804 13.1458 13.6758 12.0413 13.6758C10.9367 13.6758 10.0413 12.7804 10.0413 11.6758C10.0413 10.5712 10.9367 9.67578 12.0413 9.67578C13.1458 9.67578 14.0413 10.5712 14.0413 11.6758ZM11.2413 14.7041C9.47395 14.7041 8.04126 16.1368 8.04126 17.9041C8.04126 18.3459 8.39943 18.7041 8.84126 18.7041H15.2413C15.6831 18.7041 16.0413 18.3459 16.0413 17.9041C16.0413 16.1368 14.6086 14.7041 12.8413 14.7041H11.2413Z" fill="#101010"/>
</svg>
