<svg width="24" height="24" viewBox="0 0 24 24" fill="none" xmlns="http://www.w3.org/2000/svg">
<path fill-rule="evenodd" clip-rule="evenodd" d="M8 1.99951C5.79086 1.99951 4 3.79037 4 5.99951L2 5.99951V7.99951H4V10.9995H2V12.9995H4V15.9995H2V17.9995H4C4 20.2087 5.79086 21.9995 8 21.9995H16C18.2091 21.9995 20 20.2087 20 17.9995V5.99951C20 3.79037 18.2091 1.99951 16 1.99951H8ZM6 5.99951C6 4.89494 6.89543 3.99951 8 3.99951H16C17.1046 3.99951 18 4.89494 18 5.99951V17.9995C18 19.1041 17.1046 19.9995 16 19.9995H8C6.89543 19.9995 6 19.1041 6 17.9995V5.99951ZM13.1043 7.27246H14.3349L14.9006 6H9.58308L9.005 7.27246H10.7203C11.086 7.34121 11.45 7.51025 11.6349 7.88379H9.5832L9.00513 9.15625H11.6198C11.4003 9.6109 10.8274 9.97729 9.33447 9.84604V11.1106L12.0102 14H13.934L11.0638 10.9917C11.802 10.9158 13.1259 10.4393 13.3983 9.15625H14.335L14.9007 7.88379H13.336C13.285 7.6799 13.2138 7.46856 13.1043 7.27246ZM9 17.9995H15V15.9995H9V17.9995Z" fill="#101010"/>
</svg>
