<svg width="25" height="25" viewBox="0 0 25 25" fill="none" xmlns="http://www.w3.org/2000/svg">
<path fill-rule="evenodd" clip-rule="evenodd" d="M12.149 1.72675C12.2567 1.68874 12.3742 1.68874 12.4818 1.72675L20.9818 4.72675C21.1817 4.7973 21.3154 4.98625 21.3154 5.19824V8.0791C21.3154 8.35524 21.0916 8.5791 20.8154 8.5791H19.3111V17.5791H20.8263C21.1024 17.5791 21.3263 17.803 21.3263 18.0791V21.5791C21.3263 21.8552 21.1024 22.0791 20.8263 22.0791H3.82629C3.55015 22.0791 3.32629 21.8552 3.32629 21.5791V18.0791C3.32629 17.803 3.55015 17.5791 3.82629 17.5791H5.31372V8.5791H3.81543C3.53929 8.5791 3.31543 8.35524 3.31543 8.0791V5.19824C3.31543 4.98625 3.44911 4.7973 3.64902 4.72675L12.149 1.72675ZM6.31372 8.5791V17.5791H11.8365V8.5791H6.31372ZM12.8365 8.5791V17.5791H18.3111V8.5791H12.8365ZM4.31543 5.552V7.5791H20.3154V5.552L12.3154 2.72847L4.31543 5.552ZM4.32629 18.5791V21.0791H20.3263V18.5791H4.32629Z" fill="#101010"/>
</svg>
