<svg width="25" height="25" viewBox="0 0 25 25" fill="none" xmlns="http://www.w3.org/2000/svg">
<path fill-rule="evenodd" clip-rule="evenodd" d="M3.31885 5.58301C3.31885 4.2023 4.43814 3.08301 5.81885 3.08301H18.8188C20.1996 3.08301 21.3188 4.2023 21.3188 5.58301V9.59072C21.3188 9.86686 21.095 10.0907 20.8188 10.0907C20.5427 10.0907 20.3188 9.86686 20.3188 9.59072V5.58301C20.3188 4.75458 19.6473 4.08301 18.8188 4.08301H5.81885C4.99042 4.08301 4.31885 4.75458 4.31885 5.58301V18.583C4.31885 19.4114 4.99042 20.083 5.81885 20.083H15.8169C16.093 20.083 16.3169 20.3069 16.3169 20.583C16.3169 20.8591 16.093 21.083 15.8169 21.083H5.81885C4.43814 21.083 3.31885 19.9637 3.31885 18.583V5.58301ZM12.4685 10.0542C12.2098 9.36804 11.5087 9.10823 10.988 9.0542H9.92584C9.56567 9.0542 9.32365 8.6849 9.46739 8.35465C9.5468 8.1722 9.72685 8.0542 9.92584 8.0542H14.7204C15.0783 8.0542 15.3203 8.41927 15.1809 8.74893C15.1027 8.93396 14.9213 9.0542 14.7204 9.0542H13.0862C13.3372 9.35847 13.4676 9.72966 13.5457 10.0542H14.7204C15.0783 10.0542 15.3203 10.4193 15.1809 10.7489C15.1027 10.934 14.9213 11.0542 14.7204 11.0542H13.6312C13.4986 12.4378 12.3179 12.9688 11.5407 13.0727L13.5531 15.182C13.6116 15.2432 13.6532 15.3145 13.678 15.39L13.6923 15.4048L13.6842 15.4102C13.7387 15.6003 13.6884 15.8135 13.5356 15.9596C13.316 16.1695 12.9679 16.1617 12.758 15.9421L10.5272 13.6039L10.0211 13.0814L10.0231 13.0755L9.81518 12.8576C9.60527 12.638 9.61309 12.2899 9.83264 12.0799C9.99036 11.9292 10.2144 11.8907 10.406 11.9624C11.8192 12.1269 12.3264 11.6045 12.4923 11.0542H9.92584C9.56567 11.0542 9.32365 10.6849 9.46739 10.3547C9.5468 10.1722 9.72685 10.0542 9.92584 10.0542H12.4685ZM19.954 13.6101C19.1256 13.6101 18.454 14.2817 18.454 15.1101V15.1938C18.454 15.4699 18.2301 15.6938 17.954 15.6938C17.6778 15.6938 17.454 15.4699 17.454 15.1938V15.1101C17.454 13.7294 18.5733 12.6101 19.954 12.6101H20.1443C21.4262 12.6101 22.4654 13.6493 22.4654 14.9312C22.4654 15.6623 22.1209 16.3507 21.5357 16.789L20.9012 17.2642C20.523 17.5475 20.3004 17.9923 20.3004 18.4648V18.5678C20.3004 18.8439 20.0765 19.0678 19.8004 19.0678C19.5243 19.0678 19.3004 18.8439 19.3004 18.5678V18.4648C19.3004 17.6774 19.6714 16.9359 20.3017 16.4638L20.9362 15.9886C21.2693 15.7392 21.4654 15.3473 21.4654 14.9312C21.4654 14.2016 20.8739 13.6101 20.1443 13.6101H19.954ZM19.7706 21.9204C20.1848 21.9204 20.5206 21.5846 20.5206 21.1704C20.5206 20.7562 20.1848 20.4204 19.7706 20.4204C19.3564 20.4204 19.0206 20.7562 19.0206 21.1704C19.0206 21.5846 19.3564 21.9204 19.7706 21.9204Z" fill="#101010"/>
</svg>
