<svg width="25" height="25" viewBox="0 0 25 25" fill="none" xmlns="http://www.w3.org/2000/svg">
<circle cx="12.3684" cy="12.0791" r="10" fill="#FD5154"/>
<path fill-rule="evenodd" clip-rule="evenodd" d="M8.81314 9.25092C8.61726 9.05627 8.61625 8.73969 8.8109 8.54381C9.00554 8.34793 9.32212 8.34692 9.518 8.54157L12.3687 11.3742L15.219 8.54205C15.4148 8.34741 15.7314 8.34842 15.9261 8.5443C16.1207 8.74018 16.1197 9.05676 15.9238 9.2514L13.0781 12.0791L15.9239 14.9068C16.1197 15.1015 16.1207 15.4181 15.9261 15.6139C15.7315 15.8098 15.4149 15.8108 15.219 15.6162L12.3687 12.784L9.51796 15.6167C9.32207 15.8113 9.00549 15.8103 8.81085 15.6144C8.61621 15.4186 8.61722 15.102 8.8131 14.9073L11.6594 12.0791L8.81314 9.25092Z" fill="white"/>
</svg>
