<svg width="24" height="24" viewBox="0 0 24 24" fill="none" xmlns="http://www.w3.org/2000/svg">
<circle cx="12" cy="12" r="10" fill="#FD5154"/>
<path fill-rule="evenodd" clip-rule="evenodd" d="M8.44461 9.17169C8.24873 8.97705 8.24772 8.66047 8.44237 8.46459C8.63701 8.26871 8.95359 8.2677 9.14947 8.46234L12.0002 11.295L14.8504 8.46283C15.0463 8.26819 15.3629 8.2692 15.5575 8.46508C15.7522 8.66096 15.7512 8.97754 15.5553 9.17218L12.7096 11.9999L15.5553 14.8276C15.7512 15.0223 15.7522 15.3388 15.5576 15.5347C15.3629 15.7306 15.0463 15.7316 14.8505 15.537L12.0002 12.7047L9.14943 15.5375C8.95354 15.7321 8.63696 15.7311 8.44232 15.5352C8.24768 15.3393 8.24869 15.0227 8.44457 14.8281L11.2908 11.9999L8.44461 9.17169Z" fill="white"/>
</svg>
