<svg width="24" height="24" viewBox="0 0 24 24" fill="none" xmlns="http://www.w3.org/2000/svg">
<path fill-rule="evenodd" clip-rule="evenodd" d="M3.00031 5.50328C3.00035 4.1226 4.11963 3.00336 5.50031 3.00336H7.49497C7.77112 3.00336 7.99497 3.22721 7.99497 3.50336C7.99497 3.7795 7.77112 4.00336 7.49497 4.00336H5.50031C4.6719 4.00336 4.00033 4.6749 4.00031 5.50331L4.00024 7.51352C4.00024 7.78966 3.77637 8.01351 3.50023 8.0135C3.22409 8.0135 3.00024 7.78963 3.00024 7.51349L3.00031 5.50328ZM16.001 3.50336C16.001 3.22721 16.2248 3.00336 16.501 3.00336H18.5004C19.8811 3.00336 21.0004 4.12265 21.0004 5.50336V7.50241C21.0004 7.77855 20.7765 8.00241 20.5004 8.00241C20.2242 8.00241 20.0004 7.77855 20.0004 7.50241V5.50336C20.0004 4.67493 19.3288 4.00336 18.5004 4.00336H16.501C16.2248 4.00336 16.001 3.7795 16.001 3.50336ZM20.5004 16.0029C20.7765 16.0029 21.0004 16.2267 21.0004 16.5029V18.5034C21.0004 19.8841 19.8811 21.0034 18.5004 21.0034H16.4995C16.2233 21.0034 15.9995 20.7795 15.9995 20.5034C15.9995 20.2272 16.2233 20.0034 16.4995 20.0034H18.5004C19.3288 20.0034 20.0004 19.3318 20.0004 18.5034V16.5029C20.0004 16.2267 20.2242 16.0029 20.5004 16.0029ZM3.50037 16.0084C3.77651 16.0084 4.00037 16.2323 4.00037 16.5084V18.5034C4.00037 19.3318 4.67194 20.0034 5.50037 20.0034H7.50359C7.77973 20.0034 8.00359 20.2272 8.00359 20.5034C8.00359 20.7795 7.77973 21.0034 7.50359 21.0034H5.50037C4.11966 21.0034 3.00037 19.8841 3.00037 18.5034V16.5084C3.00037 16.2323 3.22423 16.0084 3.50037 16.0084ZM6.74878 7.25604C6.74878 6.9799 6.97264 6.75604 7.24878 6.75604H10.7488C11.0249 6.75604 11.2488 6.9799 11.2488 7.25604V10.756C11.2488 11.0322 11.0249 11.256 10.7488 11.256H7.24878C6.97264 11.256 6.74878 11.0322 6.74878 10.756V7.25604ZM7.74878 7.75604V10.256H10.2488V7.75604H7.74878ZM13.252 6.75604C12.9758 6.75604 12.752 6.9799 12.752 7.25604V10.756C12.752 11.0322 12.9758 11.256 13.252 11.256H16.752C17.0281 11.256 17.252 11.0322 17.252 10.756V7.25604C17.252 6.9799 17.0281 6.75604 16.752 6.75604H13.252ZM13.752 10.256V7.75604H16.252V10.256H13.752ZM6.75183 13.2504C6.75183 12.9743 6.97569 12.7504 7.25183 12.7504H10.7518C11.028 12.7504 11.2518 12.9743 11.2518 13.2504V16.7504C11.2518 17.0266 11.028 17.2504 10.7518 17.2504H7.25183C6.97569 17.2504 6.75183 17.0266 6.75183 16.7504V13.2504ZM7.75183 13.7504V16.2504H10.2518V13.7504H7.75183ZM13.2419 12.7504C12.9658 12.7504 12.7419 12.9743 12.7419 13.2504V16.0504C12.7419 16.3266 12.9658 16.5504 13.2419 16.5504H16.0419C16.3181 16.5504 16.5419 16.3266 16.5419 16.0504V13.2504C16.5419 12.9743 16.3181 12.7504 16.0419 12.7504H13.2419ZM13.7419 15.5504V13.7504H15.5419V15.5504H13.7419Z" fill="#101010"/>
</svg>
