<svg width="25" height="25" viewBox="0 0 25 25" fill="none" xmlns="http://www.w3.org/2000/svg">
<path fill-rule="evenodd" clip-rule="evenodd" d="M3.31574 5.5822C3.31578 4.20152 4.43506 3.08228 5.81574 3.08228H7.8104C8.08655 3.08228 8.3104 3.30613 8.3104 3.58228C8.3104 3.85842 8.08655 4.08228 7.8104 4.08228H5.81574C4.98733 4.08228 4.31576 4.75382 4.31574 5.58223L4.31567 7.59244C4.31567 7.86858 4.0918 8.09243 3.81566 8.09242C3.53952 8.09241 3.31567 7.86855 3.31567 7.59241L3.31574 5.5822ZM16.3164 3.58228C16.3164 3.30613 16.5403 3.08228 16.8164 3.08228H18.8158C20.1965 3.08228 21.3158 4.20156 21.3158 5.58228V7.58133C21.3158 7.85747 21.0919 8.08133 20.8158 8.08133C20.5397 8.08133 20.3158 7.85747 20.3158 7.58133V5.58228C20.3158 4.75385 19.6442 4.08228 18.8158 4.08228H16.8164C16.5403 4.08228 16.3164 3.85842 16.3164 3.58228ZM20.8158 16.0818C21.0919 16.0818 21.3158 16.3057 21.3158 16.5818V18.5823C21.3158 19.963 20.1965 21.0823 18.8158 21.0823H16.8149C16.5388 21.0823 16.3149 20.8584 16.3149 20.5823C16.3149 20.3061 16.5388 20.0823 16.8149 20.0823H18.8158C19.6442 20.0823 20.3158 19.4107 20.3158 18.5823V16.5818C20.3158 16.3057 20.5397 16.0818 20.8158 16.0818ZM3.8158 16.0873C4.09194 16.0873 4.3158 16.3112 4.3158 16.5873V18.5823C4.3158 19.4107 4.98737 20.0823 5.8158 20.0823H7.81902C8.09516 20.0823 8.31902 20.3061 8.31902 20.5823C8.31902 20.8584 8.09516 21.0823 7.81902 21.0823H5.8158C4.43509 21.0823 3.3158 19.963 3.3158 18.5823V16.5873C3.3158 16.3112 3.53966 16.0873 3.8158 16.0873ZM7.06421 7.33496C7.06421 7.05882 7.28807 6.83496 7.56421 6.83496H11.0642C11.3404 6.83496 11.5642 7.05882 11.5642 7.33496V10.835C11.5642 11.1111 11.3404 11.335 11.0642 11.335H7.56421C7.28807 11.335 7.06421 11.1111 7.06421 10.835V7.33496ZM8.06421 7.83496V10.335H10.5642V7.83496H8.06421ZM13.5674 6.83496C13.2912 6.83496 13.0674 7.05882 13.0674 7.33496V10.835C13.0674 11.1111 13.2912 11.335 13.5674 11.335H17.0674C17.3435 11.335 17.5674 11.1111 17.5674 10.835V7.33496C17.5674 7.05882 17.3435 6.83496 17.0674 6.83496H13.5674ZM14.0674 10.335V7.83496H16.5674V10.335H14.0674ZM7.06726 13.3293C7.06726 13.0532 7.29112 12.8293 7.56726 12.8293H11.0673C11.3434 12.8293 11.5673 13.0532 11.5673 13.3293V16.8293C11.5673 17.1055 11.3434 17.3293 11.0673 17.3293H7.56726C7.29112 17.3293 7.06726 17.1055 7.06726 16.8293V13.3293ZM8.06726 13.8293V16.3293H10.5673V13.8293H8.06726ZM13.5574 12.8293C13.2812 12.8293 13.0574 13.0532 13.0574 13.3293V16.1293C13.0574 16.4055 13.2812 16.6293 13.5574 16.6293H16.3574C16.6335 16.6293 16.8574 16.4055 16.8574 16.1293V13.3293C16.8574 13.0532 16.6335 12.8293 16.3574 12.8293H13.5574ZM14.0574 15.6293V13.8293H15.8574V15.6293H14.0574Z" fill="#101010"/>
</svg>
