<svg width="25" height="25" viewBox="0 0 25 25" fill="none" xmlns="http://www.w3.org/2000/svg">
<path fill-rule="evenodd" clip-rule="evenodd" d="M12.3153 4.04712C10.9346 4.04712 9.81531 5.16641 9.81531 6.54712C9.81531 7.92783 10.9346 9.04712 12.3153 9.04712C13.696 9.04712 14.8153 7.92783 14.8153 6.54712C14.8153 5.16641 13.696 4.04712 12.3153 4.04712ZM8.81531 6.54712C8.81531 4.61412 10.3823 3.04712 12.3153 3.04712C14.2483 3.04712 15.8153 4.61412 15.8153 6.54712C15.8153 8.48012 14.2483 10.0471 12.3153 10.0471C10.3823 10.0471 8.81531 8.48012 8.81531 6.54712ZM2.25772 15.3467C2.1491 15.0928 2.26685 14.7989 2.52073 14.6903L6.65795 12.9201C6.91183 12.8115 7.2057 12.9293 7.31432 13.1831L9.08447 17.3204C9.1931 17.5742 9.07534 17.8681 8.82146 17.9767C8.56758 18.0854 8.27371 17.9676 8.16509 17.7137L6.87723 14.7037L6.29179 15.9278C5.9544 16.6332 5.71604 17.3819 5.58347 18.1525C5.32088 19.679 6.4964 21.074 8.04524 21.074H16.6258C18.2116 21.074 19.3967 19.6164 19.0732 18.0639L18.8472 16.9797C18.3157 14.4294 16.068 12.6018 13.4629 12.6018H9.82645C9.55031 12.6018 9.32645 12.3779 9.32645 12.1018C9.32645 11.8257 9.55031 11.6018 9.82645 11.6018H13.4629C16.5416 11.6018 19.198 13.7617 19.8262 16.7757L20.0521 17.8599C20.5051 20.0334 18.8459 22.074 16.6258 22.074H8.04524C5.87635 22.074 4.23024 20.1205 4.59794 17.983C4.74612 17.1216 5.01254 16.2848 5.38966 15.4963L5.95842 14.3071L2.9141 15.6097C2.66022 15.7183 2.36635 15.6005 2.25772 15.3467Z" fill="#101010"/>
</svg>
