<svg width="24" height="24" viewBox="0 0 24 24" fill="none" xmlns="http://www.w3.org/2000/svg">
<path fill-rule="evenodd" clip-rule="evenodd" d="M11.9999 3.96796C10.6192 3.96796 9.49988 5.08724 9.49988 6.46796C9.49988 7.84867 10.6192 8.96796 11.9999 8.96796C13.3806 8.96796 14.4999 7.84867 14.4999 6.46796C14.4999 5.08724 13.3806 3.96796 11.9999 3.96796ZM8.49988 6.46796C8.49988 4.53496 10.0669 2.96796 11.9999 2.96796C13.9329 2.96796 15.4999 4.53496 15.4999 6.46796C15.4999 8.40095 13.9329 9.96796 11.9999 9.96796C10.0669 9.96796 8.49988 8.40095 8.49988 6.46796ZM1.94229 15.2675C1.83367 15.0136 1.95142 14.7197 2.2053 14.6111L6.34252 12.841C6.5964 12.7323 6.89027 12.8501 6.99889 13.104L8.76904 17.2412C8.87767 17.4951 8.75991 17.7889 8.50603 17.8976C8.25215 18.0062 7.95828 17.8884 7.84966 17.6346L6.5618 14.6245L5.97636 15.8486C5.63897 16.5541 5.40061 17.3027 5.26804 18.0734C5.00545 19.5998 6.18097 20.9948 7.72981 20.9948H16.3103C17.8962 20.9948 19.0813 19.5372 18.7577 17.9847L18.5318 16.9005C18.0003 14.3502 15.7525 12.5226 13.1475 12.5226H9.51102C9.23488 12.5226 9.01102 12.2988 9.01102 12.0226C9.01102 11.7465 9.23488 11.5226 9.51102 11.5226H13.1475C16.2262 11.5226 18.8826 13.6825 19.5107 16.6965L19.7367 17.7807C20.1897 19.9542 18.5305 21.9948 16.3103 21.9948H7.72981C5.56092 21.9948 3.91481 20.0413 4.28251 17.9039C4.43069 17.0425 4.69711 16.2057 5.07423 15.4172L5.64299 14.228L2.59867 15.5305C2.34479 15.6391 2.05092 15.5214 1.94229 15.2675Z" fill="#101010"/>
</svg>
