<svg width="24" height="24" viewBox="0 0 24 24" fill="none" xmlns="http://www.w3.org/2000/svg">
<path fill-rule="evenodd" clip-rule="evenodd" d="M15.2574 5.27195C15.0622 5.46722 15.0622 5.7838 15.2574 5.97906C15.4527 6.17432 15.7693 6.17432 15.9645 5.97906L18.9999 2.94365V9.50848C18.9999 9.78463 19.2238 10.0085 19.4999 10.0085C19.7761 10.0085 19.9999 9.78463 19.9999 9.50848V2.9434L23.0356 5.97906C23.2309 6.17432 23.5474 6.17432 23.7427 5.97906C23.938 5.7838 23.938 5.46722 23.7427 5.27195L19.8536 1.38287C19.6584 1.1876 19.3418 1.1876 19.1465 1.38287L15.2574 5.27195ZM5.00006 7.49806C5.00006 6.66964 5.67163 5.99807 6.50006 5.99807H12.5055C12.7816 5.99807 13.0055 5.77421 13.0055 5.49807C13.0055 5.22192 12.7816 4.99807 12.5055 4.99807H6.50006C5.11935 4.99807 4.00006 6.11735 4.00006 7.49806V18.4981C4.00006 19.8788 5.11935 20.9981 6.50006 20.9981H17.5001C18.8808 20.9981 20.0001 19.8788 20.0001 18.4981V13.4985C20.0001 13.2223 19.7762 12.9985 19.5001 12.9985C19.2239 12.9985 19.0001 13.2223 19.0001 13.4985V18.4981C19.0001 19.3265 18.3285 19.9981 17.5001 19.9981H6.50006C5.67163 19.9981 5.00006 19.3265 5.00006 18.4981V7.49806ZM9.60718 9.00002C9.40819 9.00002 9.22814 9.11802 9.14872 9.30047C9.00498 9.63072 9.24701 10 9.60718 10H10.6693C11.19 10.054 11.8911 10.3139 12.1498 11H9.60718C9.40819 11 9.22814 11.118 9.14872 11.3005C9.00498 11.6307 9.24701 12 9.60718 12H12.1736C12.0077 12.5503 11.5006 13.0727 10.0873 12.9082C9.89578 12.8365 9.6717 12.875 9.51398 13.0258C9.29442 13.2357 9.2866 13.5838 9.49651 13.8034L9.7044 14.0213L9.70245 14.0272L10.2085 14.5497L12.4393 16.888C12.6492 17.1075 12.9974 17.1153 13.2169 16.9054C13.3698 16.7593 13.42 16.5462 13.3656 16.356L13.3736 16.3507L13.3594 16.3358C13.3346 16.2603 13.2929 16.1891 13.2344 16.1278L11.2221 14.0185C11.9993 13.9146 13.1799 13.3836 13.3125 12H14.4018C14.6026 12 14.784 11.8798 14.8623 11.6947C15.0017 11.3651 14.7597 11 14.4018 11H13.227C13.149 10.6755 13.0186 10.3043 12.7675 10H14.4018C14.6026 10 14.784 9.87978 14.8623 9.69475C15.0017 9.36509 14.7597 9.00002 14.4018 9.00002H9.60718Z" fill="#101010"/>
</svg>
