<svg width="24" height="24" viewBox="0 0 24 24" fill="none" xmlns="http://www.w3.org/2000/svg">
<path fill-rule="evenodd" clip-rule="evenodd" d="M5.0033 4.496C5.0033 3.66757 5.67487 2.996 6.5033 2.996H13.4983C13.7745 2.996 13.9983 2.77214 13.9983 2.496C13.9983 2.21986 13.7745 1.996 13.4983 1.996H6.5033C5.12258 1.996 4.0033 3.11529 4.0033 4.496V6.49991H2.5033C2.22715 6.49991 2.0033 6.72377 2.0033 6.99991C2.0033 7.27605 2.22715 7.49991 2.5033 7.49991H4.0033V11.4999H2.5033C2.22715 11.4999 2.0033 11.7238 2.0033 11.9999C2.0033 12.2761 2.22715 12.4999 2.5033 12.4999H4.0033V16.4999H2.5033C2.22715 16.4999 2.0033 16.7238 2.0033 16.9999C2.0033 17.2761 2.22715 17.4999 2.5033 17.4999H4.0033V19.5039C4.0033 20.8846 5.12259 22.0039 6.5033 22.0039H17.4967C18.8774 22.0039 19.9967 20.8846 19.9967 19.5039V14.5286C19.9967 14.2525 19.7728 14.0286 19.4967 14.0286C19.2205 14.0286 18.9967 14.2525 18.9967 14.5286V19.5039C18.9967 20.3323 18.3251 21.0039 17.4967 21.0039H6.5033C5.67487 21.0039 5.0033 20.3323 5.0033 19.5039V16.9999V11.9999V6.99991V4.496ZM15.9613 6.73872L19.0071 3.69293V10.5453C19.0071 10.8215 19.2309 11.0453 19.5071 11.0453C19.7832 11.0453 20.0071 10.8215 20.0071 10.5453V3.71343L23.0324 6.73872C23.2276 6.93398 23.5442 6.93398 23.7395 6.73872C23.9347 6.54345 23.9347 6.22687 23.7395 6.03161L19.8504 2.14252C19.6551 1.94726 19.3385 1.94726 19.1433 2.14252L15.2542 6.03161C15.0589 6.22687 15.0589 6.54345 15.2542 6.73872C15.4495 6.93398 15.766 6.93398 15.9613 6.73872ZM12 11.0131C12.5523 11.0131 13 10.5654 13 10.0131C13 9.46081 12.5523 9.01309 12 9.01309C11.4477 9.01309 11 9.46081 11 10.0131C11 10.5654 11.4477 11.0131 12 11.0131ZM12 12.0131C13.1046 12.0131 14 11.1177 14 10.0131C14 8.90852 13.1046 8.01309 12 8.01309C10.8954 8.01309 10 8.90852 10 10.0131C10 11.1177 10.8954 12.0131 12 12.0131ZM9.00897 16.0414C9.11001 14.9201 10.0524 14.0414 11.2 14.0414H12.8C13.9476 14.0414 14.89 14.9201 14.991 16.0414H9.00897ZM8 16.2414C8 14.4741 9.43269 13.0414 11.2 13.0414H12.8C14.5673 13.0414 16 14.4741 16 16.2414C16 16.6832 15.6418 17.0414 15.2 17.0414H8.8C8.35817 17.0414 8 16.6832 8 16.2414Z" fill="#101010"/>
</svg>
