<svg width="25" height="25" viewBox="0 0 25 25" fill="none" xmlns="http://www.w3.org/2000/svg">
<path fill-rule="evenodd" clip-rule="evenodd" d="M5.31873 4.57519C5.31873 3.74677 5.9903 3.0752 6.81873 3.0752H13.8138C14.0899 3.0752 14.3138 2.85134 14.3138 2.5752C14.3138 2.29905 14.0899 2.0752 13.8138 2.0752H6.81873C5.43801 2.0752 4.31873 3.19448 4.31873 4.57519V6.5791H2.81873C2.54258 6.5791 2.31873 6.80296 2.31873 7.0791C2.31873 7.35524 2.54258 7.5791 2.81873 7.5791H4.31873V11.5791H2.81873C2.54258 11.5791 2.31873 11.803 2.31873 12.0791C2.31873 12.3552 2.54258 12.5791 2.81873 12.5791H4.31873V16.5791H2.81873C2.54258 16.5791 2.31873 16.803 2.31873 17.0791C2.31873 17.3552 2.54258 17.5791 2.81873 17.5791H4.31873V19.583C4.31873 20.9638 5.43802 22.083 6.81873 22.083H17.8121C19.1928 22.083 20.3121 20.9638 20.3121 19.583V14.6078C20.3121 14.3317 20.0882 14.1078 19.8121 14.1078C19.5359 14.1078 19.3121 14.3317 19.3121 14.6078V19.583C19.3121 20.4115 18.6405 21.083 17.8121 21.083H6.81873C5.9903 21.083 5.31873 20.4115 5.31873 19.583V17.0791V12.0791V7.0791V4.57519ZM16.2767 6.81791L19.3225 3.77212V10.6245C19.3225 10.9007 19.5464 11.1245 19.8225 11.1245C20.0987 11.1245 20.3225 10.9007 20.3225 10.6245V3.79263L23.3478 6.81791C23.5431 7.01317 23.8596 7.01317 24.0549 6.81791C24.2502 6.62265 24.2502 6.30606 24.0549 6.1108L20.1658 2.22171C19.9706 2.02645 19.654 2.02645 19.4587 2.22171L15.5696 6.1108C15.3744 6.30606 15.3744 6.62265 15.5696 6.81791C15.7649 7.01317 16.0815 7.01317 16.2767 6.81791ZM12.3154 11.0923C12.8677 11.0923 13.3154 10.6446 13.3154 10.0923C13.3154 9.54 12.8677 9.09229 12.3154 9.09229C11.7631 9.09229 11.3154 9.54 11.3154 10.0923C11.3154 10.6446 11.7631 11.0923 12.3154 11.0923ZM12.3154 12.0923C13.42 12.0923 14.3154 11.1969 14.3154 10.0923C14.3154 8.98772 13.42 8.09229 12.3154 8.09229C11.2109 8.09229 10.3154 8.98772 10.3154 10.0923C10.3154 11.1969 11.2109 12.0923 12.3154 12.0923ZM9.3244 16.1206C9.42544 14.9993 10.3678 14.1206 11.5154 14.1206H13.1154C14.263 14.1206 15.2054 14.9993 15.3065 16.1206H9.3244ZM8.31543 16.3206C8.31543 14.5533 9.74812 13.1206 11.5154 13.1206H13.1154C14.8827 13.1206 16.3154 14.5533 16.3154 16.3206C16.3154 16.7624 15.9573 17.1206 15.5154 17.1206H9.11543C8.6736 17.1206 8.31543 16.7624 8.31543 16.3206Z" fill="#101010"/>
</svg>
