<svg width="25" height="25" viewBox="0 0 25 25" fill="none" xmlns="http://www.w3.org/2000/svg">
<path fill-rule="evenodd" clip-rule="evenodd" d="M19.3511 4.0791H5.35107C4.79879 4.0791 4.35107 4.52682 4.35107 5.0791V19.0791C4.35107 19.6314 4.79879 20.0791 5.35107 20.0791H19.3511C19.9034 20.0791 20.3511 19.6314 20.3511 19.0791V5.0791C20.3511 4.52682 19.9034 4.0791 19.3511 4.0791ZM5.35107 3.0791C4.2465 3.0791 3.35107 3.97453 3.35107 5.0791V19.0791C3.35107 20.1837 4.2465 21.0791 5.35107 21.0791H19.3511C20.4556 21.0791 21.3511 20.1837 21.3511 19.0791V5.0791C21.3511 3.97453 20.4556 3.0791 19.3511 3.0791H5.35107Z" fill="#101010"/>
<path d="M10.5111 17.0791L13.3461 7.0791L15.9761 12.0641L10.5111 17.0791Z" fill="#028C3C"/>
<path d="M8.72607 17.0791L11.5611 7.0791L14.1911 12.0641L8.72607 17.0791Z" fill="#FE7A09"/>
</svg>
