<svg width="25" height="25" viewBox="0 0 25 25" fill="none" xmlns="http://www.w3.org/2000/svg">
<path fill-rule="evenodd" clip-rule="evenodd" d="M4.3197 4.58398C4.3197 3.20327 5.43899 2.08398 6.8197 2.08398H17.8197C19.2004 2.08398 20.3197 3.20327 20.3197 4.58398V19.584C20.3197 20.9647 19.2004 22.084 17.8197 22.084H6.8197C5.43899 22.084 4.3197 20.9647 4.3197 19.584V17.5786H2.80444C2.5283 17.5786 2.30444 17.3548 2.30444 17.0786C2.30444 16.8025 2.5283 16.5786 2.80444 16.5786H4.3197V12.5786H2.80444C2.5283 12.5786 2.30444 12.3548 2.30444 12.0786C2.30444 11.8025 2.5283 11.5786 2.80444 11.5786H4.3197V7.57861H2.80444C2.5283 7.57861 2.30444 7.35476 2.30444 7.07861C2.30444 6.80247 2.5283 6.57861 2.80444 6.57861H4.3197V4.58398ZM5.3197 19.584V17.0832L5.31972 17.0786L5.3197 17.0741V12.0832L5.31972 12.0786L5.3197 12.0741V7.08316L5.31972 7.07861L5.3197 7.07406V4.58398C5.3197 3.75556 5.99128 3.08398 6.8197 3.08398H17.8197C18.6481 3.08398 19.3197 3.75556 19.3197 4.58398V19.584C19.3197 20.4124 18.6481 21.084 17.8197 21.084H6.8197C5.99127 21.084 5.3197 20.4124 5.3197 19.584ZM10.9847 7.0791C11.5054 7.13314 12.2065 7.39294 12.4652 8.0791H9.92255C9.72356 8.0791 9.54351 8.1971 9.46409 8.37956C9.32035 8.7098 9.56238 9.0791 9.92254 9.0791H12.489C12.3231 9.62938 11.8159 10.1518 10.4027 9.98733C10.2111 9.91563 9.98707 9.95406 9.82935 10.1048C9.60979 10.3148 9.60197 10.6629 9.81188 10.8825L10.0198 11.1004L10.0178 11.1063L10.5239 11.6288L12.7547 13.9671C12.9646 14.1866 13.3127 14.1944 13.5323 13.9845C13.6851 13.8384 13.7354 13.6252 13.681 13.4351L13.689 13.4297L13.6747 13.4149C13.6499 13.3394 13.6083 13.2681 13.5498 13.2069L11.5374 11.0976C12.3146 10.9937 13.4953 10.4627 13.6279 9.0791H14.7171C14.918 9.0791 15.0994 8.95886 15.1776 8.77383C15.317 8.44417 15.075 8.0791 14.7171 8.0791H13.5424C13.4644 7.75457 13.3339 7.38337 13.0829 7.0791H14.7171C14.918 7.0791 15.0994 6.95886 15.1776 6.77383C15.317 6.44417 15.075 6.0791 14.7171 6.0791H9.92255C9.72356 6.0791 9.54351 6.1971 9.46409 6.37956C9.32035 6.7098 9.56238 7.0791 9.92254 7.0791H10.9847ZM9.81958 17.0981C9.54344 17.0981 9.31958 17.322 9.31958 17.5981C9.31958 17.8743 9.54344 18.0981 9.81958 18.0981H14.8196C15.0957 18.0981 15.3196 17.8743 15.3196 17.5981C15.3196 17.322 15.0957 17.0981 14.8196 17.0981H9.81958Z" fill="#101010"/>
</svg>
