<svg width="24" height="24" viewBox="0 0 24 24" fill="none" xmlns="http://www.w3.org/2000/svg">
<path fill-rule="evenodd" clip-rule="evenodd" d="M3 3.75009C3 3.33588 3.33579 3.00009 3.75 3.00009H20.25C20.6642 3.00009 21 3.33588 21 3.75009V9.25948C21 9.6737 20.6642 10.0095 20.25 10.0095C19.8358 10.0095 19.5 9.6737 19.5 9.25948V4.50009H4.5V19.5001H15.2585C15.6728 19.5001 16.0085 19.8359 16.0085 20.2501C16.0085 20.6643 15.6728 21.0001 15.2585 21.0001H3.75C3.33579 21.0001 3 20.6643 3 20.2501V3.75009ZM12.8917 9.07128H14.2567C14.4548 9.07128 14.6375 8.96482 14.7352 8.79255C14.9431 8.4259 14.6782 7.97128 14.2567 7.97128H9.65513C9.45894 7.97128 9.2776 8.07579 9.17924 8.24555C8.96679 8.61222 9.23137 9.07128 9.65513 9.07128H10.8483C11.2504 9.19076 11.6447 9.45131 11.8049 9.97128H9.7478C9.55029 9.97128 9.36795 10.0772 9.27008 10.2487C9.0609 10.6154 9.32567 11.0713 9.7478 11.0713H11.7701C11.5868 11.5809 11.0957 12.0284 9.81407 11.8793C9.62267 11.8079 9.39889 11.8464 9.24133 11.997C9.02178 12.2069 9.01396 12.5551 9.22387 12.7747L9.43179 12.9926L9.4299 12.9983L9.92066 13.505L12.1667 15.8592C12.3766 16.0788 12.7247 16.0866 12.9443 15.8767C13.0971 15.7305 13.1474 15.5174 13.0929 15.3272L13.101 15.3218L13.0866 15.3067C13.0618 15.2314 13.0202 15.1602 12.9617 15.0991L10.9494 12.9897C11.7161 12.8886 12.9963 12.3809 13.2134 11.0713H14.2639C14.4632 11.0713 14.647 10.9634 14.7441 10.7894C14.9488 10.4228 14.6838 9.97128 14.2639 9.97128H13.168C13.1217 9.68104 13.0525 9.35333 12.8917 9.07128ZM19.6385 13.7811C18.9482 13.7811 18.3885 14.3407 18.3885 15.0311V15.0665C18.3885 15.4807 18.0527 15.8165 17.6385 15.8165C17.2243 15.8165 16.8885 15.4807 16.8885 15.0665V15.0311C16.8885 13.5123 18.1197 12.2811 19.6385 12.2811H19.8288C21.2488 12.2811 22.3999 13.4322 22.3999 14.8522C22.3999 15.6621 22.0183 16.4246 21.3701 16.9101L20.7356 17.3853C20.4205 17.6214 20.2349 17.9921 20.2349 18.3858V18.4888C20.2349 18.903 19.8992 19.2388 19.4849 19.2388C19.0707 19.2388 18.7349 18.903 18.7349 18.4888V18.3858C18.7349 17.5196 19.1431 16.704 19.8364 16.1847L20.4709 15.7095C20.7409 15.5072 20.8999 15.1896 20.8999 14.8522C20.8999 14.2606 20.4204 13.7811 19.8288 13.7811H19.6385ZM19.5243 22.1897C20.0214 22.1897 20.4243 21.7868 20.4243 21.2897C20.4243 20.7927 20.0214 20.3897 19.5243 20.3897C19.0273 20.3897 18.6243 20.7927 18.6243 21.2897C18.6243 21.7868 19.0273 22.1897 19.5243 22.1897Z" fill="#101010"/>
</svg>
