<svg width="25" height="25" viewBox="0 0 25 25" fill="none" xmlns="http://www.w3.org/2000/svg">
<path fill-rule="evenodd" clip-rule="evenodd" d="M3.10547 3.99829C3.10547 3.58408 3.44126 3.24829 3.85547 3.24829H20.3555C20.7697 3.24829 21.1055 3.58408 21.1055 3.99829V9.50768C21.1055 9.9219 20.7697 10.2577 20.3555 10.2577C19.9413 10.2577 19.6055 9.9219 19.6055 9.50768V4.74829H4.60547V19.7483H15.364C15.7782 19.7483 16.114 20.0841 16.114 20.4983C16.114 20.9125 15.7782 21.2483 15.364 21.2483H3.85547C3.44126 21.2483 3.10547 20.9125 3.10547 20.4983V3.99829ZM12.9972 9.31948H14.3622C14.5602 9.31948 14.743 9.21302 14.8407 9.04074C15.0485 8.6741 14.7837 8.21948 14.3622 8.21948H9.7606C9.56441 8.21948 9.38307 8.32399 9.28471 8.49375C9.07226 8.86042 9.33683 9.31948 9.7606 9.31948H10.9538C11.3559 9.43896 11.7501 9.69951 11.9104 10.2195H9.85327C9.65576 10.2195 9.47342 10.3254 9.37554 10.4969C9.16637 10.8636 9.43114 11.3195 9.85327 11.3195H11.8756C11.6923 11.8291 11.2012 12.2766 9.91953 12.1275C9.72814 12.0561 9.50436 12.0946 9.3468 12.2452C9.12725 12.4551 9.11943 12.8033 9.32934 13.0229L9.53726 13.2408L9.53537 13.2465L10.0261 13.7532L12.2721 16.1074C12.482 16.327 12.8302 16.3348 13.0497 16.1249C13.2026 15.9787 13.2528 15.7656 13.1984 15.5754L13.2065 15.57L13.1921 15.5549C13.1673 15.4796 13.1257 15.4084 13.0672 15.3473L11.0548 13.2379C11.8216 13.1368 13.1017 12.6291 13.3189 11.3195H14.3694C14.5687 11.3195 14.7524 11.2116 14.8496 11.0376C15.0543 10.671 14.7892 10.2195 14.3694 10.2195H13.2735C13.2272 9.92924 13.1579 9.60153 12.9972 9.31948ZM19.744 14.0293C19.0536 14.0293 18.494 14.5889 18.494 15.2793V15.3147C18.494 15.7289 18.1582 16.0647 17.744 16.0647C17.3298 16.0647 16.994 15.7289 16.994 15.3147V15.2793C16.994 13.7605 18.2252 12.5293 19.744 12.5293H19.9343C21.3543 12.5293 22.5054 13.6804 22.5054 15.1004C22.5054 15.9103 22.1238 16.6728 21.4756 17.1583L20.8411 17.6335C20.5259 17.8696 20.3404 18.2403 20.3404 18.634V18.737C20.3404 19.1512 20.0046 19.487 19.5904 19.487C19.1762 19.487 18.8404 19.1512 18.8404 18.737V18.634C18.8404 17.7678 19.2485 16.9522 19.9419 16.4329L20.5764 15.9577C20.8464 15.7554 21.0054 15.4378 21.0054 15.1004C21.0054 14.5088 20.5258 14.0293 19.9343 14.0293H19.744ZM19.6298 22.4379C20.1269 22.4379 20.5298 22.035 20.5298 21.5379C20.5298 21.0409 20.1269 20.6379 19.6298 20.6379C19.1327 20.6379 18.7298 21.0409 18.7298 21.5379C18.7298 22.035 19.1327 22.4379 19.6298 22.4379Z" fill="#101010"/>
</svg>
