<svg width="25" height="25" viewBox="0 0 25 25" fill="none" xmlns="http://www.w3.org/2000/svg">
<circle cx="12.1584" cy="12.2483" r="10" fill="#FD5154"/>
<path fill-rule="evenodd" clip-rule="evenodd" d="M8.42693 9.59744C8.13311 9.30548 8.1316 8.83061 8.42356 8.53679C8.71552 8.24296 9.1904 8.24146 9.48422 8.53342L12.1586 11.1908L14.8327 8.53366C15.1265 8.2417 15.6014 8.24321 15.8934 8.53703C16.1853 8.83085 16.1838 9.30573 15.89 9.59769L13.2226 12.2482L15.8901 14.8987C16.1839 15.1907 16.1854 15.6655 15.8934 15.9593C15.6015 16.2532 15.1266 16.2547 14.8328 15.9627L12.1586 13.3055L9.48415 15.963C9.19033 16.2549 8.71545 16.2534 8.42349 15.9596C8.13153 15.6658 8.13304 15.1909 8.42686 14.8989L11.0945 12.2482L8.42693 9.59744Z" fill="white"/>
</svg>
