<svg width="24" height="24" viewBox="0 0 24 24" fill="none" xmlns="http://www.w3.org/2000/svg">
<circle cx="12" cy="12" r="10" fill="#FD5154"/>
<path fill-rule="evenodd" clip-rule="evenodd" d="M8.26849 9.34915C7.97467 9.05719 7.97316 8.58232 8.26512 8.2885C8.55708 7.99467 9.03195 7.99317 9.32577 8.28513L12.0001 10.9426L14.6743 8.28537C14.9681 7.99341 15.443 7.99492 15.7349 8.28874C16.0269 8.58256 16.0254 9.05743 15.7316 9.3494L13.0642 11.9999L15.7316 14.6504C16.0255 14.9424 16.027 15.4172 15.735 15.7111C15.443 16.0049 14.9682 16.0064 14.6743 15.7144L12.0001 13.0572L9.3257 15.7147C9.03188 16.0066 8.55701 16.0051 8.26505 15.7113C7.97309 15.4175 7.9746 14.9426 8.26842 14.6506L10.9361 11.9999L8.26849 9.34915Z" fill="white"/>
</svg>
