<svg width="25" height="25" viewBox="0 0 25 25" fill="none" xmlns="http://www.w3.org/2000/svg">
<path fill-rule="evenodd" clip-rule="evenodd" d="M10.3974 4.21391C12.1714 3.82418 14.0243 4.03073 15.6689 4.80152C17.0876 5.46645 18.2828 6.51921 19.1207 7.83115L16.9533 7.44898C16.5453 7.37705 16.1563 7.64943 16.0844 8.05735C16.0125 8.46527 16.2849 8.85426 16.6928 8.92619L20.632 9.62078C21.0399 9.69271 21.4289 9.42033 21.5009 9.01241L22.1955 5.07318C22.2674 4.66526 21.995 4.27627 21.5871 4.20434C21.1792 4.13241 20.7902 4.40479 20.7182 4.81271L20.3405 6.95495C19.3527 5.43647 17.9573 4.21746 16.3055 3.4433C14.3619 2.53236 12.172 2.28826 10.0756 2.74885C7.9791 3.20944 6.09322 4.34897 4.71044 5.9907C3.32767 7.63242 2.5253 9.68457 2.42779 11.8288C2.42596 11.869 2.42734 11.9087 2.43168 11.9474C2.43052 11.9853 2.42957 12.0232 2.42884 12.0611L2.45359 12.0615C2.53731 12.3667 2.80979 12.597 3.14295 12.6121C3.48987 12.6279 3.79245 12.4054 3.89226 12.0892L3.92856 12.0899C3.93381 11.8167 3.95263 11.5435 3.98511 11.2713L3.9787 11.2705C4.17249 9.68529 4.8231 8.18538 5.85772 6.95701C7.02776 5.56786 8.62351 4.60364 10.3974 4.21391ZM21.7768 13.9533C21.8333 13.6355 21.874 13.3144 21.8987 12.9913L20.4031 12.877C20.3822 13.1504 20.3477 13.4221 20.2999 13.691L21.7768 13.9533ZM2.58419 13.9919C2.64193 14.3095 2.71551 14.6247 2.80484 14.9362C2.89417 15.2477 2.9988 15.5539 3.11819 15.8539L4.51186 15.2992C4.41084 15.0454 4.3223 14.7863 4.24671 14.5227C4.17113 14.2591 4.10887 13.9924 4.06002 13.7237L2.58419 13.9919ZM20.8509 16.7011C20.9989 16.4129 21.1321 16.1179 21.2503 15.8175L19.8544 15.2684C19.7544 15.5226 19.6417 15.7722 19.5164 16.0161C19.3912 16.26 19.2541 16.4971 19.1059 16.7265L20.3656 17.5408C20.5409 17.2696 20.7029 16.9894 20.8509 16.7011ZM4.00975 17.5736C4.18609 17.844 4.37607 18.1061 4.57914 18.3586C4.78222 18.6111 4.99738 18.8529 5.22369 19.0831L6.29344 18.0316C6.10194 17.8368 5.91989 17.6322 5.74805 17.4185C5.57621 17.2049 5.41546 16.9832 5.26626 16.7543L4.00975 17.5736ZM18.4471 19.7149C18.6952 19.5065 18.9324 19.2863 19.1578 19.0551L18.0838 18.0079C17.8931 18.2035 17.6924 18.3899 17.4825 18.5662C17.2725 18.7425 17.0542 18.908 16.8286 19.062L17.6744 20.3008C17.941 20.1188 18.1989 19.9233 18.4471 19.7149ZM6.71209 20.3228C6.97945 20.5038 7.25613 20.6717 7.54121 20.8258C7.82629 20.9798 8.11833 21.1193 8.41619 21.2439L8.99478 19.8599C8.74275 19.7546 8.49564 19.6365 8.25442 19.5062C8.01319 19.3758 7.77908 19.2337 7.55285 19.0806L6.71209 20.3228ZM15.0631 21.5614C15.3727 21.4655 15.6766 21.3544 15.974 21.2287L15.3898 19.8471C15.1382 19.9535 14.881 20.0475 14.6191 20.1287C14.3572 20.2098 14.0919 20.2777 13.8242 20.3323L14.1237 21.8021C14.4401 21.7376 14.7536 21.6574 15.0631 21.5614ZM10.2687 21.8098C10.5853 21.873 10.9055 21.9205 11.228 21.9521C11.5505 21.9836 11.8738 21.999 12.1966 21.9984L12.1936 20.4984C11.9204 20.4989 11.6469 20.4859 11.374 20.4592C11.1011 20.4325 10.8302 20.3923 10.5623 20.3388L10.2687 21.8098ZM12.6833 9.0096V11.7489H15.3551C15.7692 11.7489 16.1049 12.0846 16.1049 12.4987C16.1049 12.9127 15.7692 13.2484 15.3551 13.2484H12.1609C11.6086 13.2484 11.1609 12.8007 11.1609 12.2484V9.0096C11.1609 8.5892 11.5017 8.24841 11.9221 8.24841C12.3425 8.24841 12.6833 8.5892 12.6833 9.0096Z" fill="#F19E0C"/>
</svg>
