<svg width="25" height="25" viewBox="0 0 25 25" fill="none" xmlns="http://www.w3.org/2000/svg">
<path fill-rule="evenodd" clip-rule="evenodd" d="M3.8555 3.24829C3.44129 3.24829 3.1055 3.58408 3.1055 3.99829V7.50849C3.1055 7.9227 3.44129 8.25849 3.8555 8.25849C4.26971 8.25849 4.6055 7.9227 4.6055 7.50849V4.74829H7.36343C7.77764 4.74829 8.11343 4.4125 8.11343 3.99829C8.11343 3.58408 7.77764 3.24829 7.36343 3.24829H3.8555ZM16.8595 3.24829C16.4453 3.24829 16.1095 3.58408 16.1095 3.99829C16.1095 4.4125 16.4453 4.74829 16.8595 4.74829H19.6055V7.50103C19.6055 7.91524 19.9413 8.25103 20.3555 8.25103C20.7697 8.25103 21.1055 7.91524 21.1055 7.50103V3.99829C21.1055 3.58408 20.7697 3.24829 20.3555 3.24829H16.8595ZM4.6055 17.0022C4.6055 16.588 4.26971 16.2522 3.8555 16.2522C3.44129 16.2522 3.1055 16.588 3.1055 17.0022V20.4983C3.1055 20.9125 3.44129 21.2483 3.8555 21.2483H7.35941C7.77362 21.2483 8.10941 20.9125 8.10941 20.4983C8.10941 20.0841 7.77362 19.7483 7.35941 19.7483H4.6055V17.0022ZM21.1055 17.0061C21.1055 16.5919 20.7697 16.2561 20.3555 16.2561C19.9413 16.2561 19.6055 16.5919 19.6055 17.0061V19.7483H16.8555C16.4413 19.7483 16.1055 20.0841 16.1055 20.4983C16.1055 20.9125 16.4413 21.2483 16.8555 21.2483H20.3555C20.7697 21.2483 21.1055 20.9125 21.1055 20.4983V17.0061ZM7.00177 8.00171C7.00177 7.5875 7.33756 7.25171 7.75177 7.25171H10.7518C11.166 7.25171 11.5018 7.5875 11.5018 8.00171V11.0017C11.5018 11.4159 11.166 11.7517 10.7518 11.7517H7.75177C7.33756 11.7517 7.00177 11.4159 7.00177 11.0017V8.00171ZM8.50177 8.75171V10.2517H10.0018V8.75171H8.50177ZM13.0018 8.00171C13.0018 7.5875 13.3376 7.25171 13.7518 7.25171H16.7518C17.166 7.25171 17.5018 7.5875 17.5018 8.00171V11.0017C17.5018 11.4159 17.166 11.7517 16.7518 11.7517H13.7518C13.3376 11.7517 13.0018 11.4159 13.0018 11.0017V8.00171ZM14.5018 8.75171V10.2517H16.0018V8.75171H14.5018ZM7.75177 13.2517C7.33756 13.2517 7.00177 13.5875 7.00177 14.0017V17.0017C7.00177 17.4159 7.33756 17.7517 7.75177 17.7517H10.7518C11.166 17.7517 11.5018 17.4159 11.5018 17.0017V14.0017C11.5018 13.5875 11.166 13.2517 10.7518 13.2517H7.75177ZM8.50177 16.2517V14.7517H10.0018V16.2517H8.50177ZM13.0018 14.0017C13.0018 13.5875 13.3376 13.2517 13.7518 13.2517H16.2518C16.666 13.2517 17.0018 13.5875 17.0018 14.0017V16.5017C17.0018 16.9159 16.666 17.2517 16.2518 17.2517H13.7518C13.3376 17.2517 13.0018 16.9159 13.0018 16.5017V14.0017ZM14.5018 14.7517V15.7517H15.5018V14.7517H14.5018Z" fill="#101010"/>
</svg>
