<svg width="25" height="25" viewBox="0 0 25 25" fill="none" xmlns="http://www.w3.org/2000/svg">
<path fill-rule="evenodd" clip-rule="evenodd" d="M19.3555 1.24438C18.9413 1.24438 18.6055 1.58017 18.6055 1.99438V8.68883L15.9967 6.08002C15.7038 5.78713 15.2289 5.78713 14.936 6.08002C14.6431 6.37291 14.6431 6.84779 14.936 7.14068L18.8251 11.0298C19.118 11.3227 19.5929 11.3227 19.8858 11.0298L23.7749 7.14068C24.0678 6.84779 24.0678 6.37291 23.7749 6.08002C23.482 5.78713 23.0071 5.78713 22.7142 6.08002L20.1055 8.68873V1.99438C20.1055 1.58017 19.7697 1.24438 19.3555 1.24438ZM4.85544 5.24902C4.44122 5.24902 4.10544 5.58481 4.10544 5.99902V20.499C4.10544 20.9132 4.44122 21.249 4.85544 21.249H19.3554C19.7697 21.249 20.1054 20.9132 20.1054 20.499V13.9996C20.1054 13.5854 19.7697 13.2496 19.3554 13.2496C18.9412 13.2496 18.6054 13.5854 18.6054 13.9996V19.749H5.60544V6.74902H11.9653C12.3795 6.74902 12.7153 6.41324 12.7153 5.99902C12.7153 5.58481 12.3795 5.24902 11.9653 5.24902H4.85544ZM9.28465 9.49448C9.38301 9.32472 9.56435 9.22021 9.76054 9.22021H14.3621C14.7836 9.22021 15.0485 9.67483 14.8406 10.0415C14.7429 10.2138 14.5602 10.3202 14.3621 10.3202H12.9971C13.1579 10.6023 13.2271 10.93 13.2734 11.2202H14.3693C14.7892 11.2202 15.0542 11.6717 14.8495 12.0383C14.7524 12.2124 14.5686 12.3202 14.3693 12.3202H13.3189C13.1017 13.6298 11.8215 14.1375 11.0548 14.2387L13.0672 16.348C13.1256 16.4092 13.1672 16.4803 13.192 16.5556L13.2064 16.5707L13.1983 16.5762C13.2528 16.7663 13.2026 16.9795 13.0497 17.1256C12.8301 17.3355 12.482 17.3277 12.2721 17.1082L10.0261 14.754L9.53531 14.2472L9.5372 14.2415L9.32928 14.0236C9.11937 13.804 9.12718 13.4559 9.34674 13.246C9.5043 13.0953 9.72808 13.0568 9.91947 13.1282C11.2012 13.2773 11.6922 12.8298 11.8756 12.3202H9.85321C9.43108 12.3202 9.16631 11.8643 9.37548 11.4977C9.47335 11.3261 9.6557 11.2202 9.85321 11.2202H11.9103C11.7501 10.7002 11.3558 10.4397 10.9538 10.3202H9.76054C9.33677 10.3202 9.0722 9.86115 9.28465 9.49448Z" fill="#101010"/>
</svg>
