<svg width="24" height="24" viewBox="0 0 24 24" fill="none" xmlns="http://www.w3.org/2000/svg">
<path fill-rule="evenodd" clip-rule="evenodd" d="M12 3.74991C10.7574 3.74991 9.75001 4.75727 9.75001 5.99991C9.75001 7.24255 10.7574 8.24991 12 8.24991C13.2427 8.24991 14.25 7.24255 14.25 5.99991C14.25 4.75727 13.2427 3.74991 12 3.74991ZM8.25001 5.99991C8.25001 3.92884 9.92895 2.24991 12 2.24991C14.0711 2.24991 15.75 3.92884 15.75 5.99991C15.75 8.07098 14.0711 9.74991 12 9.74991C9.92895 9.74991 8.25001 8.07098 8.25001 5.99991ZM1.70842 15.1113C1.54548 14.7305 1.72211 14.2897 2.10293 14.1268L6.24015 12.3566C6.62097 12.1937 7.06178 12.3703 7.22471 12.7511L8.99486 16.8883C9.1578 17.2692 8.98117 17.71 8.60035 17.8729C8.21953 18.0358 7.77873 17.8592 7.61579 17.4784L6.54516 14.9761L6.19783 15.7023C5.87037 16.387 5.63903 17.1136 5.51036 17.8616C5.27406 19.2352 6.33192 20.4906 7.72575 20.4906H16.3063C17.7335 20.4906 18.8001 19.1788 18.5089 17.7816L18.283 16.6973C17.7756 14.263 15.6301 12.5185 13.1434 12.5185H9.75685C9.34264 12.5185 9.00685 12.1827 9.00685 11.7685C9.00685 11.3542 9.34264 11.0185 9.75685 11.0185H13.1434C16.3405 11.0185 19.0991 13.2614 19.7514 16.3913L19.9774 17.4755C20.4627 19.8043 18.685 21.9906 16.3063 21.9906H7.72575C5.40184 21.9906 3.63809 19.8976 4.03207 17.6073C4.18415 16.7232 4.45759 15.8644 4.84463 15.0551L5.12719 14.4643L2.69298 15.5058C2.31216 15.6688 1.87136 15.4921 1.70842 15.1113Z" fill="#101010"/>
</svg>
