<svg width="25" height="25" viewBox="0 0 25 25" fill="none" xmlns="http://www.w3.org/2000/svg">
<path fill-rule="evenodd" clip-rule="evenodd" d="M10.5538 3.80054C12.3814 3.399 14.2906 3.61181 15.985 4.40596C17.6142 5.16957 18.9574 6.42962 19.8235 8.00256L17.1199 7.52586C16.848 7.4779 16.5887 7.65949 16.5407 7.93144C16.4928 8.20338 16.6743 8.46271 16.9463 8.51066L20.8855 9.20526C21.1575 9.25321 21.4168 9.07162 21.4647 8.79968L22.1593 4.86045C22.2073 4.5885 22.0257 4.32917 21.7538 4.28122C21.4818 4.23327 21.2225 4.41485 21.1745 4.6868L20.6809 7.48657C19.7123 5.74425 18.2187 4.34847 16.4094 3.50048C14.5156 2.6129 12.3819 2.37506 10.3392 2.82384C8.29646 3.27261 6.45893 4.38293 5.11161 5.98256C3.76429 7.58219 2.9825 9.58172 2.88749 11.671C2.88601 11.7034 2.88766 11.7353 2.89217 11.7662C2.89074 11.8097 2.88961 11.8531 2.88877 11.8965L2.93019 11.8973C3.00486 12.0645 3.16891 12.1843 3.36426 12.1932C3.56892 12.2025 3.75043 12.0874 3.83561 11.9147L3.88859 11.9157C3.89399 11.6343 3.91339 11.3529 3.94685 11.0723L3.94043 11.0716C4.14001 9.43809 4.81037 7.89251 5.87646 6.62677C7.08196 5.19552 8.72606 4.20208 10.5538 3.80054ZM21.7406 13.7403C21.7956 13.4306 21.8353 13.1177 21.8594 12.8029L20.8623 12.7267C20.8408 13.0084 20.8053 13.2883 20.7561 13.5654L21.7406 13.7403ZM3.04014 13.7779C3.09639 14.0873 3.16809 14.3944 3.25513 14.6979C3.34217 15.0014 3.44412 15.2999 3.56045 15.5921L4.48956 15.2223C4.38548 14.9608 4.29426 14.6938 4.21638 14.4223C4.1385 14.1507 4.07435 13.8759 4.02402 13.599L3.04014 13.7779ZM20.8384 16.4176C20.9826 16.1368 21.1125 15.8494 21.2276 15.5566L20.297 15.1906C20.194 15.4525 20.0778 15.7096 19.9488 15.9609C19.8198 16.2123 19.6786 16.4565 19.5258 16.6929L20.3657 17.2357C20.5364 16.9715 20.6942 16.6985 20.8384 16.4176ZM4.42915 17.2677C4.60096 17.5312 4.78607 17.7865 4.98394 18.0326C5.18181 18.2786 5.39145 18.5142 5.61196 18.7385L6.32513 18.0375C6.12783 17.8368 5.94025 17.626 5.76321 17.4059C5.58617 17.1857 5.42054 16.9573 5.26682 16.7215L4.42915 17.2677ZM18.4963 19.3541C18.7381 19.1511 18.9692 18.9365 19.1888 18.7113L18.4728 18.0131C18.2763 18.2147 18.0696 18.4067 17.8532 18.5883C17.6369 18.77 17.412 18.9404 17.1796 19.0991L17.7434 19.925C18.0032 19.7477 18.2545 19.5572 18.4963 19.3541ZM7.06219 19.9465C7.3227 20.1228 7.59229 20.2864 7.87006 20.4365C8.14782 20.5866 8.43238 20.7225 8.7226 20.8439L9.10833 19.9213C8.84866 19.8127 8.59406 19.6911 8.34553 19.5568C8.097 19.4224 7.85579 19.2761 7.6227 19.1183L7.06219 19.9465ZM15.1991 21.1533C15.5007 21.0598 15.7969 20.9516 16.0866 20.8291L15.6972 19.908C15.4379 20.0176 15.1729 20.1145 14.9031 20.1981C14.6332 20.2817 14.3599 20.3517 14.0841 20.4079L14.2838 21.3878C14.592 21.325 14.8975 21.2468 15.1991 21.1533ZM10.5277 21.3953C10.8361 21.4569 11.1481 21.5032 11.4623 21.5339C11.7765 21.5647 12.0915 21.5797 12.4061 21.579L12.4041 20.579C12.1226 20.5796 11.8408 20.5662 11.5596 20.5387C11.2785 20.5112 10.9994 20.4697 10.7234 20.4147L10.5277 21.3953ZM12.3155 8.57915V12.0791H15.8165C16.0926 12.0791 16.3165 12.303 16.3165 12.5791C16.3165 12.8553 16.0926 13.0791 15.8165 13.0791H11.3155V8.57915C11.3155 8.303 11.5394 8.07915 11.8155 8.07915C12.0917 8.07915 12.3155 8.303 12.3155 8.57915Z" fill="#F19E0C"/>
</svg>
