<svg width="25" height="25" viewBox="0 0 25 25" fill="none" xmlns="http://www.w3.org/2000/svg">
<path fill-rule="evenodd" clip-rule="evenodd" d="M10.3929 3.96167C12.2206 3.56014 14.1297 3.77295 15.8241 4.56709C17.4533 5.3307 18.7965 6.59075 19.6626 8.1637L16.959 7.68699C16.6871 7.63904 16.4278 7.82062 16.3798 8.09257C16.3319 8.36452 16.5134 8.62384 16.7854 8.6718L20.7246 9.36639C20.9966 9.41434 21.2559 9.23276 21.3039 8.96081L21.9984 5.02158C22.0464 4.74963 21.8648 4.4903 21.5929 4.44235C21.3209 4.3944 21.0616 4.57598 21.0136 4.84793L20.52 7.6477C19.5514 5.90539 18.0578 4.5096 16.2485 3.66161C14.3547 2.77404 12.221 2.53619 10.1783 2.98497C8.13557 3.43375 6.29804 4.54406 4.95072 6.14369C3.60341 7.74332 2.82161 9.74285 2.7266 11.8321C2.71406 12.108 2.92751 12.3418 3.20337 12.3543C3.47923 12.3669 3.71302 12.1534 3.72557 11.8775C3.72771 11.8304 3.73024 11.7834 3.73316 11.7364C3.73992 11.7101 3.74438 11.6828 3.74631 11.6548C3.74818 11.6277 3.74761 11.6009 3.74476 11.5746C3.88781 9.8155 4.57535 8.14165 5.71557 6.7879C6.92107 5.35666 8.56518 4.36321 10.3929 3.96167ZM2.98157 14.4283C3.01572 14.5726 3.05328 14.7162 3.09424 14.8591C3.1352 15.0019 3.17946 15.1436 3.22697 15.284C3.31545 15.5456 3.60755 15.6705 3.86412 15.5684C4.12068 15.4662 4.2444 15.1759 4.15754 14.9137C4.12132 14.8044 4.08729 14.6943 4.05549 14.5834C4.02369 14.4725 3.99418 14.3611 3.96696 14.2492C3.90169 13.9809 3.64289 13.8002 3.37119 13.8496C3.0995 13.899 2.91796 14.1596 2.98157 14.4283ZM20.8715 16.178C20.986 15.9267 20.8584 15.6358 20.6014 15.5347C20.3445 15.4337 20.0556 15.5608 19.9395 15.8114C19.8912 15.9159 19.8406 16.0195 19.7879 16.1221C19.7352 16.2247 19.6805 16.3262 19.6238 16.4264C19.4878 16.6667 19.5529 16.9756 19.7848 17.1255C20.0168 17.2753 20.3275 17.2095 20.465 16.97C20.5388 16.8414 20.6097 16.711 20.6776 16.5788C20.7454 16.4466 20.8101 16.313 20.8715 16.178ZM4.55224 17.8403C4.63965 17.9601 4.72994 18.0779 4.82305 18.1937C4.91617 18.3095 5.01188 18.423 5.11012 18.534C5.29306 18.7409 5.61072 18.7427 5.80766 18.5492C6.00459 18.3556 6.00609 18.04 5.82443 17.832C5.74867 17.7453 5.67462 17.6569 5.60232 17.567C5.53003 17.4771 5.45963 17.3858 5.39118 17.2932C5.22702 17.0712 4.91841 17.0049 4.6871 17.1558C4.45578 17.3066 4.38946 17.6173 4.55224 17.8403ZM18.6696 19.221C18.8725 19.0337 18.8676 18.7161 18.6699 18.5233C18.4722 18.3306 18.1566 18.3358 17.9525 18.5218C17.8674 18.5994 17.7807 18.6753 17.6923 18.7495C17.604 18.8236 17.5142 18.896 17.4231 18.9664C17.2046 19.1352 17.1449 19.4451 17.3006 19.6732C17.4563 19.9013 17.7683 19.961 17.9878 19.7935C18.1057 19.7036 18.2216 19.6108 18.3354 19.5153C18.4492 19.4197 18.5606 19.3216 18.6696 19.221ZM7.32256 20.3768C7.44956 20.4534 7.57846 20.527 7.70917 20.5976C7.83988 20.6683 7.9721 20.7358 8.1057 20.8001C8.35451 20.9199 8.64806 20.7985 8.75458 20.5437C8.86109 20.2889 8.74014 19.9974 8.49207 19.8761C8.38863 19.8255 8.28613 19.7728 8.18464 19.7179C8.08315 19.6631 7.98288 19.6062 7.88389 19.5474C7.6465 19.4063 7.33634 19.4648 7.18156 19.6935C7.02678 19.9222 7.08605 20.2343 7.32256 20.3768ZM15.4603 21.1727C15.7199 21.0787 15.8385 20.784 15.731 20.5297C15.6235 20.2753 15.3305 20.1578 15.0703 20.2502C14.9618 20.2888 14.8524 20.3251 14.7422 20.3593C14.632 20.3934 14.5212 20.4253 14.41 20.4549C14.1431 20.5258 13.9679 20.7884 14.0231 21.059C14.0782 21.3296 14.3427 21.5055 14.61 21.4362C14.7535 21.399 14.8963 21.3584 15.0382 21.3144C15.1801 21.2705 15.3209 21.2232 15.4603 21.1727ZM10.8594 21.6414C11.0062 21.6627 11.1535 21.6806 11.3014 21.6951C11.4493 21.7095 11.5973 21.7205 11.7454 21.728C12.0212 21.742 12.2448 21.5163 12.2442 21.2402C12.2436 20.964 12.0192 20.7421 11.7435 20.7265C11.6285 20.7199 11.5136 20.711 11.3988 20.6998C11.2839 20.6886 11.1695 20.675 11.0554 20.6592C10.7819 20.6211 10.5187 20.7953 10.4646 21.0661C10.4106 21.3369 10.5862 21.6016 10.8594 21.6414ZM12.1546 8.74028V12.2403H15.6556C15.9318 12.2403 16.1556 12.4641 16.1556 12.7403C16.1556 13.0164 15.9318 13.2403 15.6556 13.2403H11.1546V8.74028C11.1546 8.46414 11.3785 8.24028 11.6546 8.24028C11.9308 8.24028 12.1546 8.46414 12.1546 8.74028Z" fill="#F19E0C"/>
</svg>
