<svg width="25" height="25" viewBox="0 0 25 25" fill="none" xmlns="http://www.w3.org/2000/svg">
<path fill-rule="evenodd" clip-rule="evenodd" d="M19.8156 1.08008C19.5394 1.08007 19.3156 1.30393 19.3156 1.58007L19.3155 8.38648L16.28 5.35104C16.0848 5.15577 15.7682 5.15577 15.5729 5.35104C15.3777 5.5463 15.3777 5.86288 15.5729 6.05814L19.462 9.94723C19.6573 10.1425 19.9738 10.1425 20.1691 9.94723L24.0582 6.05814C24.2535 5.86288 24.2535 5.5463 24.0582 5.35104C23.8629 5.15577 23.5464 5.15577 23.3511 5.35104L20.3155 8.38667L20.3156 1.58008C20.3156 1.30394 20.0917 1.08008 19.8156 1.08008ZM5.31555 7.57715C5.31555 6.74872 5.98712 6.07715 6.81555 6.07715H12.821C13.0971 6.07715 13.321 5.85329 13.321 5.57715C13.321 5.30101 13.0971 5.07715 12.821 5.07715H6.81555C5.43484 5.07715 4.31555 6.19644 4.31555 7.57715V18.5771C4.31555 19.9579 5.43484 21.0771 6.81555 21.0771H17.8156C19.1963 21.0771 20.3156 19.9579 20.3156 18.5771V13.5775C20.3156 13.3014 20.0917 13.0775 19.8156 13.0775C19.5394 13.0775 19.3156 13.3014 19.3156 13.5775V18.5771C19.3156 19.4056 18.644 20.0771 17.8156 20.0771H6.81555C5.98712 20.0771 5.31555 19.4056 5.31555 18.5771V7.57715ZM9.92267 9.0791C9.72368 9.0791 9.54363 9.1971 9.46421 9.37955C9.32047 9.7098 9.5625 10.0791 9.92267 10.0791H10.9848C11.5055 10.1331 12.2066 10.3929 12.4653 11.0791H9.92267C9.72368 11.0791 9.54363 11.1971 9.46421 11.3796C9.32047 11.7098 9.5625 12.0791 9.92267 12.0791H12.4891C12.3232 12.6294 11.8161 13.1518 10.4028 12.9873C10.2113 12.9156 9.98719 12.9541 9.82947 13.1048C9.60991 13.3148 9.60209 13.6629 9.812 13.8825L10.0199 14.1004L10.0179 14.1063L10.524 14.6288L12.7548 16.9671C12.9647 17.1866 13.3129 17.1944 13.5324 16.9845C13.6853 16.8384 13.7355 16.6252 13.6811 16.4351L13.6891 16.4297L13.6749 16.4149C13.6501 16.3394 13.6084 16.2681 13.5499 16.2069L11.5376 14.0976C12.3148 13.9937 13.4954 13.4627 13.628 12.0791H14.7172C14.9181 12.0791 15.0995 11.9589 15.1778 11.7738C15.3172 11.4442 15.0752 11.0791 14.7172 11.0791H13.5425C13.4645 10.7546 13.334 10.3834 13.083 10.0791H14.7172C14.9181 10.0791 15.0995 9.95886 15.1778 9.77383C15.3172 9.44417 15.0752 9.0791 14.7172 9.0791H9.92267Z" fill="#101010"/>
</svg>
