<svg width="25" height="25" viewBox="0 0 25 25" fill="none" xmlns="http://www.w3.org/2000/svg">
<path fill-rule="evenodd" clip-rule="evenodd" d="M15.5729 5.35096C15.3777 5.54623 15.3777 5.86281 15.5729 6.05807C15.7682 6.25333 16.0848 6.25333 16.28 6.05807L19.3154 3.02266V9.58749C19.3154 9.86364 19.5393 10.0875 19.8154 10.0875C20.0916 10.0875 20.3154 9.86364 20.3154 9.58749V3.02241L23.3511 6.05807C23.5464 6.25333 23.8629 6.25333 24.0582 6.05807C24.2535 5.86281 24.2535 5.54623 24.0582 5.35096L20.1691 1.46188C19.9738 1.26661 19.6573 1.26661 19.462 1.46188L15.5729 5.35096ZM5.31555 7.57708C5.31555 6.74865 5.98712 6.07708 6.81555 6.07708H12.821C13.0971 6.07708 13.321 5.85322 13.321 5.57708C13.321 5.30093 13.0971 5.07708 12.821 5.07708H6.81555C5.43484 5.07708 4.31555 6.19636 4.31555 7.57708V18.5771C4.31555 19.9578 5.43484 21.0771 6.81555 21.0771H17.8156C19.1963 21.0771 20.3156 19.9578 20.3156 18.5771V13.5775C20.3156 13.3013 20.0917 13.0775 19.8156 13.0775C19.5394 13.0775 19.3156 13.3013 19.3156 13.5775V18.5771C19.3156 19.4055 18.644 20.0771 17.8156 20.0771H6.81555C5.98712 20.0771 5.31555 19.4055 5.31555 18.5771V7.57708ZM9.92267 9.07903C9.72368 9.07903 9.54363 9.19703 9.46421 9.37948C9.32047 9.70973 9.5625 10.079 9.92267 10.079H10.9848C11.5055 10.1331 12.2066 10.3929 12.4653 11.079H9.92267C9.72368 11.079 9.54363 11.197 9.46421 11.3795C9.32047 11.7097 9.5625 12.079 9.92267 12.079H12.4891C12.3232 12.6293 11.8161 13.1517 10.4028 12.9873C10.2113 12.9156 9.98719 12.954 9.82947 13.1048C9.60991 13.3147 9.60209 13.6628 9.812 13.8824L10.0199 14.1003L10.0179 14.1062L10.524 14.6287L12.7548 16.967C12.9647 17.1865 13.3129 17.1944 13.5324 16.9844C13.6853 16.8383 13.7355 16.6252 13.6811 16.4351L13.6891 16.4297L13.6749 16.4148C13.6501 16.3393 13.6084 16.2681 13.5499 16.2068L11.5376 14.0975C12.3148 13.9936 13.4954 13.4627 13.628 12.079H14.7172C14.9181 12.079 15.0995 11.9588 15.1778 11.7738C15.3172 11.4441 15.0752 11.079 14.7172 11.079H13.5425C13.4645 10.7545 13.334 10.3833 13.083 10.079H14.7172C14.9181 10.079 15.0995 9.95879 15.1778 9.77376C15.3172 9.4441 15.0752 9.07903 14.7172 9.07903H9.92267Z" fill="#101010"/>
</svg>
