<svg width="24" height="24" viewBox="0 0 24 24" fill="none" xmlns="http://www.w3.org/2000/svg">
<path fill-rule="evenodd" clip-rule="evenodd" d="M10.2655 4.2198C11.9857 3.84189 13.7825 4.04218 15.3773 4.78961C16.5736 5.35031 17.6061 6.19542 18.3893 7.24289L16.8111 6.96463C16.2672 6.86872 15.7486 7.23189 15.6527 7.77579C15.5568 8.31968 15.9199 8.83834 16.4638 8.93424L20.4031 9.62884C20.947 9.72474 21.4656 9.36157 21.5615 8.81768L22.2561 4.87845C22.352 4.33455 21.9888 3.81589 21.4449 3.71999C20.9011 3.62409 20.3824 3.98725 20.2865 4.53115L20.0141 6.07619C19.0323 4.75255 17.7332 3.68504 16.2261 2.97865C14.2326 2.04436 11.9866 1.79399 9.83639 2.26639C7.68616 2.73879 5.75192 3.90754 4.33369 5.59136C2.91546 7.27518 2.09251 9.37995 1.99251 11.5792C1.96742 12.1309 2.39433 12.5985 2.94605 12.6236C3.49776 12.6487 3.96535 12.2218 3.99044 11.67C4.07045 9.91065 4.7288 8.22684 5.86339 6.87978C6.99797 5.53273 8.54537 4.59772 10.2655 4.2198ZM12.9754 11.0102V9.0102C12.9754 8.45791 12.5277 8.0102 11.9754 8.0102C11.4231 8.0102 10.9754 8.45791 10.9754 9.0102V12.0102C10.9754 12.5625 11.4231 13.0102 11.9754 13.0102H14.9754C15.5277 13.0102 15.9754 12.5625 15.9754 12.0102C15.9754 11.4579 15.5277 11.0102 14.9754 11.0102H12.9754ZM3.36249 15.5266C3.91477 15.5266 4.36249 15.0789 4.36249 14.5266C4.36249 13.9743 3.91477 13.5266 3.36249 13.5266C2.8102 13.5266 2.36249 13.9743 2.36249 14.5266C2.36249 15.0789 2.8102 15.5266 3.36249 15.5266ZM5.97537 17.6555C5.97537 18.2078 5.52766 18.6555 4.97537 18.6555C4.42309 18.6555 3.97537 18.2078 3.97537 17.6555C3.97537 17.1032 4.42309 16.6555 4.97537 16.6555C5.52766 16.6555 5.97537 17.1032 5.97537 17.6555ZM7.72351 20.9235C8.2758 20.9235 8.72351 20.4758 8.72351 19.9235C8.72351 19.3713 8.2758 18.9235 7.72351 18.9235C7.17123 18.9235 6.72351 19.3713 6.72351 19.9235C6.72351 20.4758 7.17123 20.9235 7.72351 20.9235ZM12.1314 20.9666C12.1314 21.5189 11.6837 21.9666 11.1314 21.9666C10.5792 21.9666 10.1314 21.5189 10.1314 20.9666C10.1314 20.4143 10.5792 19.9666 11.1314 19.9666C11.6837 19.9666 12.1314 20.4143 12.1314 20.9666ZM14.6597 21.6035C15.212 21.6035 15.6597 21.1558 15.6597 20.6035C15.6597 20.0512 15.212 19.6035 14.6597 19.6035C14.1074 19.6035 13.6597 20.0512 13.6597 20.6035C13.6597 21.1558 14.1074 21.6035 14.6597 21.6035ZM18.7776 18.9029C18.7776 19.4552 18.3299 19.9029 17.7776 19.9029C17.2253 19.9029 16.7776 19.4552 16.7776 18.9029C16.7776 18.3506 17.2253 17.9029 17.7776 17.9029C18.3299 17.9029 18.7776 18.3506 18.7776 18.9029ZM20.0074 17.1021C20.5597 17.1021 21.0074 16.6544 21.0074 16.1021C21.0074 15.5498 20.5597 15.1021 20.0074 15.1021C19.4551 15.1021 19.0074 15.5498 19.0074 16.1021C19.0074 16.6544 19.4551 17.1021 20.0074 17.1021Z" fill="#F19E0C"/>
</svg>
