<svg width="24" height="25" viewBox="0 0 24 25" fill="none" xmlns="http://www.w3.org/2000/svg">
<path fill-rule="evenodd" clip-rule="evenodd" d="M18.9958 1.23584C18.4436 1.23584 17.9958 1.68356 17.9958 2.23584V7.27387L15.8139 5.09197C15.4234 4.70144 14.7903 4.70144 14.3997 5.09197C14.0092 5.48249 14.0092 6.11565 14.3997 6.50618L18.2888 10.3953C18.6793 10.7858 19.3125 10.7858 19.703 10.3953L23.5921 6.50618C23.9826 6.11565 23.9826 5.48249 23.5921 5.09197C23.2016 4.70144 22.5684 4.70144 22.1779 5.09197L19.9958 7.27402V2.23584C19.9958 1.68356 19.5481 1.23584 18.9958 1.23584ZM7.99585 7.68848C6.89128 7.68848 5.99585 8.58391 5.99585 9.68848V17.6885C5.99585 18.793 6.89128 19.6885 7.99585 19.6885H15.9958C17.1004 19.6885 17.9958 18.793 17.9958 17.6885V14.6885C17.9958 14.1362 18.4436 13.6885 18.9958 13.6885C19.5481 13.6885 19.9958 14.1362 19.9958 14.6885V17.6885C19.9958 19.8976 18.205 21.6885 15.9958 21.6885H7.99585C5.78671 21.6885 3.99585 19.8976 3.99585 17.6885V9.68848C3.99585 7.47934 5.78671 5.68848 7.99585 5.68848H11.0034C11.5557 5.68848 12.0034 6.13619 12.0034 6.68848C12.0034 7.24076 11.5557 7.68848 11.0034 7.68848H7.99585ZM12.9932 10.9607H14.2254C14.4682 10.9607 14.6898 10.8225 14.7967 10.6045C15.0038 10.1818 14.6961 9.68823 14.2254 9.68823H9.77597C9.53514 9.68823 9.31496 9.82421 9.20711 10.0395C8.99521 10.4626 9.30281 10.9607 9.77597 10.9607H10.6093C11.0108 11.0362 11.4105 11.2327 11.573 11.6882H9.86897C9.62673 11.6882 9.40551 11.8258 9.29836 12.0431C9.08984 12.4659 9.39753 12.9607 9.86897 12.9607H11.4781C11.2635 13.3772 10.774 13.6918 9.66147 13.5593L9.65939 13.5652C9.47394 13.5663 9.28855 13.6357 9.14425 13.7743C8.84553 14.0613 8.83599 14.536 9.12294 14.8348L12.0431 17.8747C12.3301 18.1734 12.8048 18.183 13.1036 17.896C13.4023 17.6091 13.4118 17.1343 13.1249 16.8356L11.0436 14.6689C11.7706 14.5681 12.9472 14.1073 13.2591 12.9607H14.2323C14.4765 12.9607 14.6992 12.8209 14.8053 12.601C15.0092 12.1785 14.7014 11.6882 14.2323 11.6882H13.2522C13.1997 11.4497 13.1237 11.1944 12.9932 10.9607Z" fill="#101010"/>
</svg>
