<svg width="24" height="24" viewBox="0 0 24 24" fill="none" xmlns="http://www.w3.org/2000/svg">
<path fill-rule="evenodd" clip-rule="evenodd" d="M10.0001 6C10.0001 4.89543 10.8955 4 12.0001 4C13.1047 4 14.0001 4.89543 14.0001 6C14.0001 7.10457 13.1047 8 12.0001 8C10.8955 8 10.0001 7.10457 10.0001 6ZM12.0001 2C9.79096 2 8.0001 3.79086 8.0001 6C8.0001 8.20914 9.79096 10 12.0001 10C14.2092 10 16.0001 8.20914 16.0001 6C16.0001 3.79086 14.2092 2 12.0001 2ZM1.83749 14.0397C1.3411 14.2818 1.13496 14.8804 1.37707 15.3768C1.61917 15.8732 2.21784 16.0794 2.71423 15.8372L4.75009 14.8443C4.27037 15.7925 4.0001 16.8647 4.0001 18C4.0001 20.2091 5.79096 22 8.0001 22H16.0001C18.2092 22 20.0001 20.2091 20.0001 18C20.0001 14.134 16.8661 11 13.0001 11H11.0001C10.9625 11 10.925 11.0003 10.8876 11.0009L10.4361 11.0003C9.88452 11.0274 9.45938 11.4966 9.48656 12.0483C9.51373 12.5999 9.98294 13.025 10.5346 12.9978L10.9487 12.9984L10.9492 13.0003L11.0001 13H13.0001C15.7615 13 18.0001 15.2386 18.0001 18C18.0001 19.1046 17.1047 20 16.0001 20H8.0001C6.89553 20 6.0001 19.1046 6.0001 18C6.0001 16.9637 6.31535 16.0011 6.85517 15.2027L8.06289 17.6789C8.305 18.1753 8.90367 18.3815 9.40006 18.1394C9.89645 17.8973 10.1026 17.2986 9.86048 16.8022L7.66863 12.3082C7.42652 11.8118 6.82785 11.6057 6.33146 11.8478L1.83749 14.0397Z" fill="#101010"/>
</svg>
