<svg width="24" height="25" viewBox="0 0 24 25" fill="none" xmlns="http://www.w3.org/2000/svg">
<path fill-rule="evenodd" clip-rule="evenodd" d="M14.3997 5.60679C14.0092 5.99731 14.0092 6.63047 14.3997 7.021C14.7903 7.41152 15.4234 7.41152 15.8139 7.021L17.9958 4.8391V9.68443C17.9958 10.2367 18.4436 10.6844 18.9958 10.6844C19.5481 10.6844 19.9958 10.2367 19.9958 9.68443V4.83894L22.1779 7.021C22.5684 7.41152 23.2016 7.41152 23.5921 7.021C23.9826 6.63047 23.9826 5.99731 23.5921 5.60679L19.703 1.7177C19.3125 1.32717 18.6793 1.32717 18.2888 1.7177L14.3997 5.60679ZM7.99585 7.68865C6.89128 7.68865 5.99585 8.58408 5.99585 9.68865V17.6886C5.99585 18.7932 6.89128 19.6886 7.99585 19.6886H15.9958C17.1004 19.6886 17.9958 18.7932 17.9958 17.6886V14.6886C17.9958 14.1364 18.4436 13.6886 18.9958 13.6886C19.5481 13.6886 19.9958 14.1364 19.9958 14.6886V17.6886C19.9958 19.8978 18.205 21.6886 15.9958 21.6886H7.99585C5.78671 21.6886 3.99585 19.8978 3.99585 17.6886V9.68865C3.99585 7.47951 5.78671 5.68865 7.99585 5.68865H11.0034C11.5557 5.68865 12.0034 6.13636 12.0034 6.68865C12.0034 7.24093 11.5557 7.68865 11.0034 7.68865H7.99585ZM12.9932 10.9609H14.2254C14.4682 10.9609 14.6898 10.8227 14.7967 10.6046C15.0038 10.1819 14.6961 9.6884 14.2254 9.6884H9.77597C9.53514 9.6884 9.31496 9.82438 9.20711 10.0397C8.99521 10.4628 9.30281 10.9609 9.77597 10.9609H10.6093C11.0108 11.0364 11.4105 11.2329 11.573 11.6884H9.86897C9.62673 11.6884 9.40551 11.826 9.29836 12.0432C9.08984 12.466 9.39753 12.9609 9.86897 12.9609H11.4781C11.2635 13.3774 10.774 13.692 9.66147 13.5595L9.65939 13.5654C9.47394 13.5664 9.28855 13.6359 9.14425 13.7745C8.84553 14.0614 8.83599 14.5362 9.12294 14.8349L12.0431 17.8749C12.3301 18.1736 12.8048 18.1831 13.1036 17.8962C13.4023 17.6092 13.4118 17.1345 13.1249 16.8357L11.0436 14.6691C11.7706 14.5683 12.9472 14.1075 13.2591 12.9609H14.2323C14.4765 12.9609 14.6992 12.8211 14.8053 12.6011C15.0092 12.1787 14.7014 11.6884 14.2323 11.6884H13.2522C13.1997 11.4499 13.1237 11.1945 12.9932 10.9609Z" fill="#101010"/>
</svg>
