<svg width="25" height="25" viewBox="0 0 25 25" fill="none" xmlns="http://www.w3.org/2000/svg">
<path fill-rule="evenodd" clip-rule="evenodd" d="M10.0383 6.68848C10.0383 5.58391 10.9337 4.68848 12.0383 4.68848C13.1429 4.68848 14.0383 5.58391 14.0383 6.68848C14.0383 7.79305 13.1429 8.68848 12.0383 8.68848C10.9337 8.68848 10.0383 7.79305 10.0383 6.68848ZM12.0383 2.68848C9.82917 2.68848 8.03831 4.47934 8.03831 6.68848C8.03831 8.89762 9.82917 10.6885 12.0383 10.6885C14.2474 10.6885 16.0383 8.89762 16.0383 6.68848C16.0383 4.47934 14.2474 2.68848 12.0383 2.68848ZM1.8757 14.7281C1.37931 14.9702 1.17317 15.5689 1.41528 16.0653C1.65738 16.5617 2.25605 16.7678 2.75244 16.5257L4.78829 15.5328C4.30858 16.481 4.03831 17.5532 4.03831 18.6885C4.03831 20.8976 5.82917 22.6885 8.03831 22.6885H16.0383C18.2474 22.6885 20.0383 20.8976 20.0383 18.6885C20.0383 14.8225 16.9043 11.6885 13.0383 11.6885H11.0383C11.0007 11.6885 10.9632 11.6888 10.9258 11.6894L10.4743 11.6887C9.92273 11.7159 9.49759 12.1851 9.52477 12.7367C9.55194 13.2883 10.0211 13.7135 10.5728 13.6863L10.987 13.6869L10.9874 13.6887L11.0383 13.6885H13.0383C15.7997 13.6885 18.0383 15.9271 18.0383 18.6885C18.0383 19.793 17.1429 20.6885 16.0383 20.6885H8.03831C6.93374 20.6885 6.03831 19.793 6.03831 18.6885C6.03831 17.6522 6.35356 16.6896 6.89338 15.8912L8.1011 18.3674C8.34321 18.8638 8.94188 19.0699 9.43827 18.8278C9.93466 18.5857 10.1408 17.9871 9.89869 17.4907L7.70683 12.9967C7.46473 12.5003 6.86606 12.2942 6.36967 12.5363L1.8757 14.7281Z" fill="#101010"/>
</svg>
