<svg width="24" height="25" viewBox="0 0 24 25" fill="none" xmlns="http://www.w3.org/2000/svg">
<path fill-rule="evenodd" clip-rule="evenodd" d="M14.4038 8.28394C14.0132 7.89341 14.0132 7.26025 14.4038 6.86972L18.2928 2.98064C18.6834 2.59011 19.3165 2.59011 19.7071 2.98064L23.5961 6.86972C23.9867 7.26025 23.9867 7.89341 23.5961 8.28394C23.2056 8.67446 22.5725 8.67446 22.1819 8.28394L20.0006 6.10261V11.6842C20.0006 12.2365 19.5529 12.6842 19.0006 12.6842C18.4483 12.6842 18.0006 12.2365 18.0006 11.6842V6.1013L15.818 8.28394C15.4275 8.67446 14.7943 8.67446 14.4038 8.28394ZM6 6.68792C6 5.58335 6.89543 4.68792 8 4.68792H12.9595C13.5118 4.68792 13.9595 4.2402 13.9595 3.68792C13.9595 3.13563 13.5118 2.68792 12.9595 2.68792H8C5.79086 2.68792 4 4.47878 4 6.68792L3 6.68792C2.44772 6.68792 2 7.13563 2 7.68792C2 8.2402 2.44772 8.68792 3 8.68792H4V11.6879H3C2.44772 11.6879 2 12.1356 2 12.6879C2 13.2402 2.44772 13.6879 3 13.6879H4V16.6879H3C2.44772 16.6879 2 17.1356 2 17.6879C2 18.2402 2.44772 18.6879 3 18.6879H4C4 20.8971 5.79086 22.6879 8 22.6879H16C18.2091 22.6879 20 20.8971 20 18.6879V15.6912C20 15.1389 19.5523 14.6912 19 14.6912C18.4477 14.6912 18 15.1389 18 15.6912V18.6879C18 19.7925 17.1046 20.6879 16 20.6879H8C6.89543 20.6879 6 19.7925 6 18.6879V17.6879V12.6879V7.68792V6.68792ZM14 11.6757C14 12.7803 13.1046 13.6757 12 13.6757C10.8954 13.6757 10 12.7803 10 11.6757C10 10.5711 10.8954 9.67571 12 9.67571C13.1046 9.67571 14 10.5711 14 11.6757ZM11.2 14.704C9.43269 14.704 8 16.1367 8 17.904C8 18.3459 8.35817 18.704 8.8 18.704H15.2C15.6418 18.704 16 18.3459 16 17.904C16 16.1367 14.5673 14.704 12.8 14.704H11.2Z" fill="#101010"/>
</svg>
