<svg width="24" height="24" viewBox="0 0 24 24" fill="none" xmlns="http://www.w3.org/2000/svg">
<path fill-rule="evenodd" clip-rule="evenodd" d="M14.4038 7.59546C14.0132 7.20494 14.0132 6.57177 14.4038 6.18125L18.2928 2.29216C18.6834 1.90164 19.3165 1.90164 19.7071 2.29216L23.5961 6.18125C23.9867 6.57177 23.9867 7.20494 23.5961 7.59546C23.2056 7.98599 22.5725 7.98599 22.1819 7.59546L20.0006 5.41414V10.9957C20.0006 11.548 19.5529 11.9957 19.0006 11.9957C18.4483 11.9957 18.0006 11.548 18.0006 10.9957V5.41283L15.818 7.59546C15.4275 7.98599 14.7943 7.98599 14.4038 7.59546ZM6 5.99944C6 4.89487 6.89543 3.99944 8 3.99944H12.9595C13.5118 3.99944 13.9595 3.55172 13.9595 2.99944C13.9595 2.44715 13.5118 1.99944 12.9595 1.99944H8C5.79086 1.99944 4 3.7903 4 5.99944L3 5.99944C2.44772 5.99944 2 6.44715 2 6.99944C2 7.55172 2.44772 7.99944 3 7.99944H4V10.9994H3C2.44772 10.9994 2 11.4472 2 11.9994C2 12.5517 2.44772 12.9994 3 12.9994H4V15.9994H3C2.44772 15.9994 2 16.4472 2 16.9994C2 17.5517 2.44772 17.9994 3 17.9994H4C4 20.2086 5.79086 21.9994 8 21.9994H16C18.2091 21.9994 20 20.2086 20 17.9994V15.0028C20 14.4505 19.5523 14.0028 19 14.0028C18.4477 14.0028 18 14.4505 18 15.0028V17.9994C18 19.104 17.1046 19.9994 16 19.9994H8C6.89543 19.9994 6 19.104 6 17.9994V16.9994V11.9994V6.99944V5.99944ZM14 10.9872C14 12.0918 13.1046 12.9872 12 12.9872C10.8954 12.9872 10 12.0918 10 10.9872C10 9.88266 10.8954 8.98723 12 8.98723C13.1046 8.98723 14 9.88266 14 10.9872ZM11.2 14.0156C9.43269 14.0156 8 15.4482 8 17.2156C8 17.6574 8.35817 18.0156 8.8 18.0156H15.2C15.6418 18.0156 16 17.6574 16 17.2156C16 15.4482 14.5673 14.0156 12.8 14.0156H11.2Z" fill="#101010"/>
</svg>
