<svg width="25" height="25" viewBox="0 0 25 25" fill="none" xmlns="http://www.w3.org/2000/svg">
<path fill-rule="evenodd" clip-rule="evenodd" d="M3.03552 7.68848C3.03552 5.47934 4.82638 3.68848 7.03552 3.68848H17.0355C19.2447 3.68848 21.0355 5.47934 21.0355 7.68848V17.6885C21.0355 19.8976 19.2447 21.6885 17.0355 21.6885H7.03552C4.82638 21.6885 3.03552 19.8976 3.03552 17.6885V7.68848ZM7.03552 5.68848C5.93095 5.68848 5.03552 6.58391 5.03552 7.68848V17.6885C5.03552 18.793 5.93095 19.6885 7.03552 19.6885H17.0355C18.1401 19.6885 19.0355 18.793 19.0355 17.6885V7.68848C19.0355 6.58391 18.1401 5.68848 17.0355 5.68848H7.03552Z" fill="#101010"/>
<path d="M10.1956 17.6885L13.0306 7.68848L15.6606 12.6735L10.1956 17.6885Z" fill="#028C3C"/>
<path d="M8.41052 17.6885L11.2455 7.68848L13.8755 12.6735L8.41052 17.6885Z" fill="#FE7A09"/>
</svg>
