<svg width="24" height="25" viewBox="0 0 24 25" fill="none" xmlns="http://www.w3.org/2000/svg">
<path fill-rule="evenodd" clip-rule="evenodd" d="M4 6.68799C4 4.47885 5.79086 2.68799 8 2.68799H16C18.2091 2.68799 20 4.47885 20 6.68799V18.688C20 20.8971 18.2091 22.688 16 22.688H8C5.79086 22.688 4 20.8971 4 18.688H3C2.44772 18.688 2 18.2403 2 17.688C2 17.1357 2.44772 16.688 3 16.688H4V13.688H3C2.44772 13.688 2 13.2403 2 12.688C2 12.1357 2.44772 11.688 3 11.688H4V8.68799H3C2.44772 8.68799 2 8.24027 2 7.68799C2 7.1357 2.44772 6.68799 3 6.68799L4 6.68799ZM6 18.688V17.688V12.688V7.68799V6.68799C6 5.58342 6.89543 4.68799 8 4.68799H16C17.1046 4.68799 18 5.58342 18 6.68799V18.688C18 19.7926 17.1046 20.688 16 20.688H8C6.89543 20.688 6 19.7926 6 18.688ZM12.9975 8.00976H14.2296C14.4724 8.00976 14.6941 7.87157 14.8009 7.65354C15.0081 7.23082 14.7004 6.7373 14.2296 6.7373H9.78024C9.53941 6.7373 9.31923 6.87328 9.21138 7.0886C8.99948 7.51166 9.30708 8.00976 9.78024 8.00976H10.6135C11.0151 8.08527 11.4148 8.28176 11.5773 8.7373H9.87324C9.631 8.7373 9.40978 8.87487 9.30263 9.09213C9.09411 9.51494 9.4018 10.0098 9.87324 10.0098H11.4824C11.2678 10.4263 10.7783 10.7409 9.66574 10.6084L9.66367 10.6143C9.47821 10.6153 9.29283 10.6848 9.14852 10.8234C8.8498 11.1103 8.84026 11.5851 9.12721 11.8838L12.0474 14.9238C12.3343 15.2225 12.8091 15.232 13.1078 14.9451C13.4066 14.6581 13.4161 14.1834 13.1291 13.8846L11.0479 11.718C11.7749 11.6172 12.9515 11.1564 13.2634 10.0098H14.2366C14.4808 10.0098 14.7035 9.86999 14.8096 9.65005C15.0135 9.2276 14.7057 8.7373 14.2366 8.7373H13.2565C13.204 8.49875 13.128 8.24344 12.9975 8.00976ZM10 16.6802C9.44772 16.6802 9 17.1279 9 17.6802C9 18.2325 9.44772 18.6802 10 18.6802H14C14.5523 18.6802 15 18.2325 15 17.6802C15 17.1279 14.5523 16.6802 14 16.6802H10Z" fill="#101010"/>
</svg>
