<svg width="25" height="25" viewBox="0 0 25 25" fill="none" xmlns="http://www.w3.org/2000/svg">
<path fill-rule="evenodd" clip-rule="evenodd" d="M11.7543 1.4311C11.9807 1.34621 12.2302 1.34621 12.4566 1.4311L20.4566 4.4311C20.8469 4.57747 21.1055 4.95059 21.1055 5.36743V8.24829C21.1055 8.80058 20.6578 9.24829 20.1055 9.24829H19.1055V15.2483H20.1055C20.6578 15.2483 21.1055 15.696 21.1055 16.2483V20.2483C21.1055 20.8006 20.6578 21.2483 20.1055 21.2483H4.10547C3.55318 21.2483 3.10547 20.8006 3.10547 20.2483V16.2483C3.10547 15.696 3.55318 15.2483 4.10547 15.2483H5.10547V9.24829H4.10547C3.55318 9.24829 3.10547 8.80058 3.10547 8.24829V5.36743C3.10547 4.95059 3.36404 4.57747 3.75435 4.4311L11.7543 1.4311ZM7.10547 9.24829V15.2483H11.1055V9.24829H7.10547ZM13.1055 9.24829V15.2483H17.1055V9.24829H13.1055ZM5.10547 6.06043V7.24829H19.1055V6.06043L12.1055 3.43543L5.10547 6.06043ZM5.10547 17.2483V19.2483H19.1055V17.2483H5.10547Z" fill="#101010"/>
</svg>
