<svg width="25" height="25" viewBox="0 0 25 25" fill="none" xmlns="http://www.w3.org/2000/svg">
<path fill-rule="evenodd" clip-rule="evenodd" d="M3.10547 4.24829C3.10547 3.69601 3.55318 3.24829 4.10547 3.24829H20.1055C20.6578 3.24829 21.1055 3.69601 21.1055 4.24829V9.24684C21.1055 9.79912 20.6578 10.2468 20.1055 10.2468C19.5532 10.2468 19.1055 9.79912 19.1055 9.24684V5.24829H5.10547V19.2483H15.1046C15.6569 19.2483 16.1046 19.696 16.1046 20.2483C16.1046 20.8006 15.6569 21.2483 15.1046 21.2483H4.10547C3.55318 21.2483 3.10547 20.8006 3.10547 20.2483V4.24829ZM19.744 14.2793C19.1917 14.2793 18.744 14.727 18.744 15.2793V15.3137C18.744 15.866 18.2963 16.3137 17.744 16.3137C17.1917 16.3137 16.744 15.866 16.744 15.3137V15.2793C16.744 13.6224 18.0872 12.2793 19.744 12.2793H19.9343C21.4924 12.2793 22.7554 13.5423 22.7554 15.1004C22.7554 15.989 22.3367 16.8257 21.6255 17.3584L20.991 17.8336C20.7389 18.0225 20.5904 18.319 20.5904 18.634V18.737C20.5904 19.2893 20.1427 19.737 19.5904 19.737C19.0382 19.737 18.5904 19.2893 18.5904 18.737V18.634C18.5904 17.6891 19.0357 16.7993 19.792 16.2328L20.4265 15.7576C20.6335 15.6026 20.7554 15.359 20.7554 15.1004C20.7554 14.6469 20.3878 14.2793 19.9343 14.2793H19.744ZM19.5768 22.8379C20.1843 22.8379 20.6768 22.3455 20.6768 21.7379C20.6768 21.1304 20.1843 20.6379 19.5768 20.6379C18.9693 20.6379 18.4768 21.1304 18.4768 21.7379C18.4768 22.3455 18.9693 22.8379 19.5768 22.8379ZM13.103 9.31225H14.3351C14.5779 9.31225 14.7995 9.17406 14.9064 8.95603C15.1136 8.53331 14.8059 8.03979 14.3351 8.03979H9.88571C9.64488 8.03979 9.4247 8.17577 9.31685 8.3911C9.10495 8.81415 9.41255 9.31225 9.88571 9.31225H10.719C11.1206 9.38776 11.5203 9.58425 11.6827 10.0398H9.97871C9.73647 10.0398 9.51525 10.1774 9.4081 10.3946C9.19958 10.8174 9.50727 11.3123 9.97871 11.3123H11.5879C11.3732 11.7288 10.8838 12.0434 9.77121 11.9109L9.76913 11.9168C9.58368 11.9178 9.3983 11.9873 9.25399 12.1259C8.95527 12.4128 8.94573 12.8876 9.23268 13.1863L12.1529 16.2263C12.4398 16.525 12.9146 16.5345 13.2133 16.2476C13.512 15.9606 13.5216 15.4858 13.2346 15.1871L11.1533 13.0205C11.8804 12.9197 13.0569 12.4589 13.3689 11.3123H14.3421C14.5863 11.3123 14.8089 11.1725 14.9151 10.9525C15.1189 10.5301 14.8111 10.0398 14.3421 10.0398H13.362C13.3095 9.80124 13.2334 9.54593 13.103 9.31225Z" fill="#101010"/>
</svg>
