<svg width="24" height="24" viewBox="0 0 24 24" fill="none" xmlns="http://www.w3.org/2000/svg">
<path fill-rule="evenodd" clip-rule="evenodd" d="M3 4.00006C3 3.44778 3.44772 3.00006 4 3.00006H20C20.5523 3.00006 21 3.44778 21 4.00006V8.99861C21 9.55089 20.5523 9.99861 20 9.99861C19.4477 9.99861 19 9.55089 19 8.99861V5.00006H5V19.0001H14.9991C15.5514 19.0001 15.9991 19.4478 15.9991 20.0001C15.9991 20.5523 15.5514 21.0001 14.9991 21.0001H4C3.44772 21.0001 3 20.5523 3 20.0001V4.00006ZM19.6385 14.0311C19.0863 14.0311 18.6385 14.4788 18.6385 15.0311V15.0655C18.6385 15.6177 18.1908 16.0655 17.6385 16.0655C17.0863 16.0655 16.6385 15.6177 16.6385 15.0655V15.0311C16.6385 13.3742 17.9817 12.0311 19.6385 12.0311H19.8288C21.3869 12.0311 22.6499 13.2941 22.6499 14.8522C22.6499 15.7408 22.2313 16.5775 21.52 17.1102L20.8855 17.5854C20.6334 17.7742 20.485 18.0708 20.485 18.3858V18.4888C20.485 19.041 20.0373 19.4888 19.485 19.4888C18.9327 19.4888 18.485 19.041 18.485 18.4888V18.3858C18.485 17.4408 18.9302 16.5511 19.6866 15.9846L20.3211 15.5094C20.5281 15.3543 20.6499 15.1108 20.6499 14.8522C20.6499 14.3987 20.2823 14.0311 19.8288 14.0311H19.6385ZM19.4713 22.5897C20.0789 22.5897 20.5713 22.0972 20.5713 21.4897C20.5713 20.8822 20.0789 20.3897 19.4713 20.3897C18.8638 20.3897 18.3713 20.8822 18.3713 21.4897C18.3713 22.0972 18.8638 22.5897 19.4713 22.5897ZM12.9975 9.06402H14.2296C14.4724 9.06402 14.6941 8.92583 14.8009 8.7078C15.0081 8.28508 14.7004 7.79156 14.2296 7.79156H9.78024C9.53941 7.79156 9.31923 7.92754 9.21138 8.14287C8.99948 8.56592 9.30708 9.06402 9.78024 9.06402H10.6135C11.0151 9.13953 11.4148 9.33602 11.5773 9.79156H9.87324C9.631 9.79156 9.40978 9.92913 9.30263 10.1464C9.09411 10.5692 9.4018 11.064 9.87324 11.064H11.4824C11.2678 11.4806 10.7783 11.7952 9.66574 11.6627L9.66367 11.6685C9.47821 11.6696 9.29283 11.739 9.14852 11.8776C8.8498 12.1646 8.84026 12.6394 9.12721 12.9381L12.0474 15.978C12.3343 16.2768 12.8091 16.2863 13.1078 15.9993C13.4066 15.7124 13.4161 15.2376 13.1291 14.9389L11.0479 12.7723C11.7749 12.6715 12.9515 12.2106 13.2634 11.064H14.2366C14.4808 11.064 14.7035 10.9242 14.8096 10.7043C15.0135 10.2819 14.7057 9.79156 14.2366 9.79156H13.2565C13.204 9.55301 13.128 9.2977 12.9975 9.06402Z" fill="#101010"/>
</svg>
