<svg width="25" height="25" viewBox="0 0 25 25" fill="none" xmlns="http://www.w3.org/2000/svg">
<path fill-rule="evenodd" clip-rule="evenodd" d="M10.4511 4.45784C12.1713 4.07992 13.9681 4.28021 15.5628 5.02765C16.7592 5.58835 17.7916 6.43346 18.5748 7.48093L16.9967 7.20266C16.4528 7.10676 15.9341 7.46993 15.8382 8.01382C15.7423 8.55772 16.1055 9.07638 16.6494 9.17228L20.5886 9.86687C21.1325 9.96278 21.6512 9.59961 21.7471 9.05571L22.4417 5.11648C22.5376 4.57259 22.1744 4.05393 21.6305 3.95803C21.0866 3.86212 20.5679 4.22529 20.472 4.76919L20.1996 6.31422C19.2179 4.99059 17.9188 3.92308 16.4116 3.21668C14.4182 2.28239 12.1722 2.03203 10.0219 2.50443C7.87171 2.97683 5.93747 4.14558 4.51924 5.8294C3.10101 7.51322 2.27806 9.61799 2.17805 11.8172C2.17592 11.8642 2.17706 11.9107 2.18129 11.9562C2.18031 11.9895 2.17951 12.0228 2.17887 12.0561L2.19575 12.0565C2.28262 12.4982 2.66188 12.8403 3.13159 12.8616C3.61949 12.8838 4.04159 12.5525 4.15007 12.094L4.1785 12.0946C4.18359 11.8297 4.20184 11.5648 4.23333 11.3008L4.22693 11.3C4.41494 9.76305 5.0458 8.30881 6.04894 7.11782C7.18352 5.77076 8.73091 4.83576 10.4511 4.45784ZM22.0229 13.997C22.0808 13.6709 22.1226 13.3416 22.148 13.0102L20.1538 12.8578C20.1335 13.123 20.1001 13.3864 20.0538 13.6472L22.0229 13.997ZM2.3382 14.0365C2.39742 14.3623 2.47288 14.6855 2.56451 15.005C2.65613 15.3245 2.76345 15.6386 2.8859 15.9462L4.74412 15.2066C4.64616 14.9605 4.56031 14.7092 4.48701 14.4537C4.41371 14.1981 4.35334 13.9395 4.30597 13.6788L2.3382 14.0365ZM21.0733 16.8152C21.225 16.5195 21.3617 16.217 21.4829 15.9089L19.6217 15.1768C19.5248 15.4233 19.4154 15.6653 19.294 15.9018C19.1726 16.1384 19.0397 16.3683 18.8959 16.5907L20.5756 17.6764C20.7553 17.3983 20.9215 17.1109 21.0733 16.8152ZM3.80032 17.71C3.98117 17.9874 4.17602 18.2561 4.38431 18.5151C4.59259 18.7741 4.81326 19.0221 5.04538 19.2582L6.47171 17.8563C6.28602 17.6673 6.10948 17.469 5.94285 17.2618C5.77622 17.0546 5.62034 16.8396 5.47566 16.6177L3.80032 17.71ZM18.6078 19.9062C18.8624 19.6925 19.1056 19.4666 19.3368 19.2295L17.9048 17.8333C17.7199 18.023 17.5253 18.2037 17.3217 18.3747C17.1181 18.5456 16.9064 18.706 16.6877 18.8554L17.8153 20.5072C18.0888 20.3205 18.3533 20.12 18.6078 19.9062ZM6.57194 20.5298C6.84616 20.7154 7.12994 20.8876 7.42233 21.0456C7.71471 21.2036 8.01424 21.3467 8.31974 21.4744L9.0912 19.6292C8.8468 19.527 8.60718 19.4126 8.37326 19.2861C8.13935 19.1597 7.91233 19.0219 7.69296 18.8735L6.57194 20.5298ZM15.1371 21.8001C15.4546 21.7017 15.7663 21.5878 16.0713 21.4588L15.2925 19.6167C15.0485 19.7199 14.7991 19.8111 14.5451 19.8898C14.2911 19.9685 14.0339 20.0343 13.7743 20.0872L14.1736 22.0469C14.4981 21.9808 14.8196 21.8985 15.1371 21.8001ZM10.2198 22.0549C10.5445 22.1197 10.8729 22.1684 11.2036 22.2008C11.5344 22.2331 11.866 22.2489 12.1971 22.2483L12.1931 20.2483C11.9282 20.2488 11.6629 20.2362 11.3983 20.2103C11.1337 20.1844 10.871 20.1454 10.6112 20.0935L10.2198 22.0549ZM13.1609 9.24823V11.2482H15.1609C15.7132 11.2482 16.1609 11.6959 16.1609 12.2482C16.1609 12.8005 15.7132 13.2482 15.1609 13.2482H12.1609C11.6086 13.2482 11.1609 12.8005 11.1609 12.2482V9.24823C11.1609 8.69595 11.6086 8.24823 12.1609 8.24823C12.7132 8.24823 13.1609 8.69595 13.1609 9.24823Z" fill="#F19E0C"/>
</svg>
