<svg width="25" height="25" viewBox="0 0 25 25" fill="none" xmlns="http://www.w3.org/2000/svg">
<path fill-rule="evenodd" clip-rule="evenodd" d="M4.10547 3.24829C3.55318 3.24829 3.10547 3.69601 3.10547 4.24829V8.24829C3.10547 8.80058 3.55318 9.24829 4.10547 9.24829C4.65775 9.24829 5.10547 8.80058 5.10547 8.24829V5.24829H8.10547C8.65775 5.24829 9.10547 4.80058 9.10547 4.24829C9.10547 3.69601 8.65775 3.24829 8.10547 3.24829H4.10547ZM16.1055 3.24829C15.5532 3.24829 15.1055 3.69601 15.1055 4.24829C15.1055 4.80058 15.5532 5.24829 16.1055 5.24829H19.1055V8.24829C19.1055 8.80058 19.5532 9.24829 20.1055 9.24829C20.6578 9.24829 21.1055 8.80058 21.1055 8.24829V4.24829C21.1055 3.69601 20.6578 3.24829 20.1055 3.24829H16.1055ZM5.10547 16.2483C5.10547 15.696 4.65775 15.2483 4.10547 15.2483C3.55318 15.2483 3.10547 15.696 3.10547 16.2483V20.2483C3.10547 20.8006 3.55318 21.2483 4.10547 21.2483H8.10547C8.65775 21.2483 9.10547 20.8006 9.10547 20.2483C9.10547 19.696 8.65775 19.2483 8.10547 19.2483H5.10547V16.2483ZM21.1055 16.2483C21.1055 15.696 20.6578 15.2483 20.1055 15.2483C19.5532 15.2483 19.1055 15.696 19.1055 16.2483V19.2483H16.1055C15.5532 19.2483 15.1055 19.696 15.1055 20.2483C15.1055 20.8006 15.5532 21.2483 16.1055 21.2483H20.1055C20.6578 21.2483 21.1055 20.8006 21.1055 20.2483V16.2483ZM7.09924 8.00171C7.09924 7.5875 7.43503 7.25171 7.84924 7.25171H10.8492C11.2635 7.25171 11.5992 7.5875 11.5992 8.00171V11.0017C11.5992 11.4159 11.2635 11.7517 10.8492 11.7517H7.84924C7.43503 11.7517 7.09924 11.4159 7.09924 11.0017V8.00171ZM8.59924 8.75171V10.2517H10.0992V8.75171H8.59924ZM13.0992 8.00171C13.0992 7.5875 13.435 7.25171 13.8492 7.25171H16.8492C17.2635 7.25171 17.5992 7.5875 17.5992 8.00171V11.0017C17.5992 11.4159 17.2635 11.7517 16.8492 11.7517H13.8492C13.435 11.7517 13.0992 11.4159 13.0992 11.0017V8.00171ZM14.5992 8.75171V10.2517H16.0992V8.75171H14.5992ZM7.84924 13.2517C7.43503 13.2517 7.09924 13.5875 7.09924 14.0017V17.0017C7.09924 17.4159 7.43503 17.7517 7.84924 17.7517H10.8492C11.2635 17.7517 11.5992 17.4159 11.5992 17.0017V14.0017C11.5992 13.5875 11.2635 13.2517 10.8492 13.2517H7.84924ZM8.59924 16.2517V14.7517H10.0992V16.2517H8.59924ZM13.0992 14.0017C13.0992 13.5875 13.435 13.2517 13.8492 13.2517H16.3492C16.7635 13.2517 17.0992 13.5875 17.0992 14.0017V16.5017C17.0992 16.9159 16.7635 17.2517 16.3492 17.2517H13.8492C13.435 17.2517 13.0992 16.9159 13.0992 16.5017V14.0017ZM14.5992 14.7517V15.7517H15.5992V14.7517H14.5992Z" fill="#101010"/>
</svg>
