<svg width="25" height="25" viewBox="0 0 25 25" fill="none" xmlns="http://www.w3.org/2000/svg">
<path fill-rule="evenodd" clip-rule="evenodd" d="M19.1013 0.795654C18.549 0.795654 18.1013 1.24337 18.1013 1.79565V6.83368L15.9194 4.65178C15.5289 4.26126 14.8957 4.26126 14.5052 4.65178C14.1147 5.0423 14.1147 5.67547 14.5052 6.06599L18.3943 9.95508C18.7848 10.3456 19.418 10.3456 19.8085 9.95508L23.6976 6.06599C24.0881 5.67547 24.0881 5.0423 23.6976 4.65178C23.3071 4.26126 22.6739 4.26126 22.2834 4.65178L20.1013 6.83384V1.79565C20.1013 1.24337 19.6536 0.795654 19.1013 0.795654ZM4.10132 6.24829C4.10132 5.69601 4.54903 5.24829 5.10132 5.24829H11.1089C11.6612 5.24829 12.1089 5.69601 12.1089 6.24829C12.1089 6.80058 11.6612 7.24829 11.1089 7.24829H6.10132V19.2483H18.1013V14.2483C18.1013 13.696 18.549 13.2483 19.1013 13.2483C19.6536 13.2483 20.1013 13.696 20.1013 14.2483V20.2483C20.1013 20.8006 19.6536 21.2483 19.1013 21.2483H5.10132C4.54903 21.2483 4.10132 20.8006 4.10132 20.2483V6.24829ZM13.0987 10.5205H14.3308C14.5736 10.5205 14.7953 10.3823 14.9021 10.1643C15.1093 9.74157 14.8016 9.24805 14.3308 9.24805H9.88144C9.64061 9.24805 9.42043 9.38402 9.31258 9.59935C9.10068 10.0224 9.40828 10.5205 9.88144 10.5205H10.7147C11.1163 10.596 11.516 10.7925 11.6785 11.248H9.97444C9.7322 11.248 9.51097 11.3856 9.40383 11.6029C9.19531 12.0257 9.503 12.5205 9.97444 12.5205H11.5836C11.369 12.9371 10.8795 13.2516 9.76694 13.1191L9.76486 13.125C9.57941 13.1261 9.39402 13.1955 9.24972 13.3341C8.951 13.6211 8.94146 14.0958 9.22841 14.3946L12.1486 17.4345C12.4355 17.7332 12.9103 17.7428 13.209 17.4558C13.5077 17.1689 13.5173 16.6941 13.2303 16.3954L11.1491 14.2287C11.8761 14.1279 13.0527 13.6671 13.3646 12.5205H14.3378C14.582 12.5205 14.8047 12.3807 14.9108 12.1608C15.1147 11.7383 14.8069 11.248 14.3378 11.248H13.3577C13.3052 11.0095 13.2292 10.7542 13.0987 10.5205Z" fill="#101010"/>
</svg>
