<svg width="24" height="24" viewBox="0 0 24 24" fill="none" xmlns="http://www.w3.org/2000/svg">
<path fill-rule="evenodd" clip-rule="evenodd" d="M18.9958 0.547394C18.4436 0.547394 17.9958 0.995109 17.9958 1.54739V6.58542L15.8139 4.40352C15.4234 4.013 14.7903 4.013 14.3997 4.40352C14.0092 4.79404 14.0092 5.42721 14.3997 5.81773L18.2888 9.70682C18.6793 10.0973 19.3125 10.0973 19.703 9.70682L23.5921 5.81773C23.9826 5.42721 23.9826 4.79404 23.5921 4.40352C23.2016 4.013 22.5684 4.013 22.1779 4.40352L19.9958 6.58558V1.54739C19.9958 0.995109 19.5481 0.547394 18.9958 0.547394ZM3.99585 6.00003C3.99585 5.44775 4.44356 5.00003 4.99585 5.00003H11.0034C11.5557 5.00003 12.0034 5.44775 12.0034 6.00003C12.0034 6.55232 11.5557 7.00003 11.0034 7.00003H5.99585V19H17.9958V14C17.9958 13.4477 18.4436 13 18.9958 13C19.5481 13 19.9958 13.4477 19.9958 14V20C19.9958 20.5523 19.5481 21 18.9958 21H4.99585C4.44356 21 3.99585 20.5523 3.99585 20V6.00003ZM12.9932 10.2722H14.2254C14.4682 10.2722 14.6898 10.134 14.7967 9.91602C15.0038 9.49331 14.6961 8.99979 14.2254 8.99979H9.77597C9.53514 8.99979 9.31496 9.13576 9.20711 9.35109C8.99521 9.77414 9.30281 10.2722 9.77597 10.2722H10.6093C11.0108 10.3478 11.4105 10.5442 11.573 10.9998H9.86897C9.62673 10.9998 9.40551 11.1373 9.29836 11.3546C9.08984 11.7774 9.39753 12.2722 9.86897 12.2722H11.4781C11.2635 12.6888 10.774 13.0034 9.66147 12.8709L9.65939 12.8768C9.47394 12.8778 9.28855 12.9472 9.14425 13.0859C8.84553 13.3728 8.83599 13.8476 9.12294 14.1463L12.0431 17.1863C12.3301 17.485 12.8048 17.4945 13.1036 17.2076C13.4023 16.9206 13.4118 16.4458 13.1249 16.1471L11.0436 13.9805C11.7706 13.8797 12.9472 13.4189 13.2591 12.2722H14.2323C14.4765 12.2722 14.6992 12.1325 14.8053 11.9125C15.0092 11.4901 14.7014 10.9998 14.2323 10.9998H13.2522C13.1997 10.7612 13.1237 10.5059 12.9932 10.2722Z" fill="#101010"/>
</svg>
