<svg width="25" height="25" viewBox="0 0 25 25" fill="none" xmlns="http://www.w3.org/2000/svg">
<path fill-rule="evenodd" clip-rule="evenodd" d="M10.1438 6.24829C10.1438 5.14372 11.0392 4.24829 12.1438 4.24829C13.2483 4.24829 14.1438 5.14372 14.1438 6.24829C14.1438 7.35286 13.2483 8.24829 12.1438 8.24829C11.0392 8.24829 10.1438 7.35286 10.1438 6.24829ZM12.1438 2.24829C9.93464 2.24829 8.14377 4.03915 8.14377 6.24829C8.14377 8.45743 9.93464 10.2483 12.1438 10.2483C14.3529 10.2483 16.1438 8.45743 16.1438 6.24829C16.1438 4.03915 14.3529 2.24829 12.1438 2.24829ZM1.98117 14.2879C1.48478 14.5301 1.27864 15.1287 1.52074 15.6251C1.76285 16.1215 2.36152 16.3276 2.85791 16.0855L4.89376 15.0926C4.41405 16.0408 4.14377 17.113 4.14377 18.2483C4.14377 20.4574 5.93464 22.2483 8.14377 22.2483H16.1438C18.3529 22.2483 20.1438 20.4574 20.1438 18.2483C20.1438 14.3823 17.0098 11.2483 13.1438 11.2483H11.1438C11.1062 11.2483 11.0687 11.2486 11.0313 11.2492L10.5798 11.2485C10.0282 11.2757 9.60306 11.7449 9.63023 12.2965C9.65741 12.8482 10.1266 13.2733 10.6782 13.2461L11.0924 13.2467L11.0929 13.2485L11.1438 13.2483H13.1438C15.9052 13.2483 18.1438 15.4869 18.1438 18.2483C18.1438 19.3529 17.2483 20.2483 16.1438 20.2483H8.14377C7.0392 20.2483 6.14377 19.3529 6.14377 18.2483C6.14377 17.212 6.45902 16.2494 6.99885 15.451L8.20657 17.9272C8.44868 18.4236 9.04735 18.6298 9.54374 18.3876C10.0401 18.1455 10.2463 17.5469 10.0042 17.0505L7.8123 12.5565C7.5702 12.0601 6.97153 11.854 6.47514 12.0961L1.98117 14.2879Z" fill="#101010"/>
</svg>
