<svg width="25" height="25" viewBox="0 0 25 25" fill="none" xmlns="http://www.w3.org/2000/svg">
<path fill-rule="evenodd" clip-rule="evenodd" d="M14.5052 5.1666C14.1147 5.55712 14.1147 6.19029 14.5052 6.58081C14.8957 6.97134 15.5289 6.97134 15.9194 6.58081L18.1013 4.39891V9.24425C18.1013 9.79653 18.549 10.2442 19.1013 10.2442C19.6536 10.2442 20.1013 9.79653 20.1013 9.24425V4.39875L22.2834 6.58081C22.6739 6.97134 23.3071 6.97134 23.6976 6.58081C24.0881 6.19029 24.0881 5.55712 23.6976 5.1666L19.8085 1.27751C19.418 0.886988 18.7848 0.886988 18.3943 1.27751L14.5052 5.1666ZM4.10132 6.24846C4.10132 5.69618 4.54903 5.24846 5.10132 5.24846H11.1089C11.6612 5.24846 12.1089 5.69618 12.1089 6.24846C12.1089 6.80075 11.6612 7.24846 11.1089 7.24846H6.10132V19.2485H18.1013V14.2485C18.1013 13.6962 18.549 13.2485 19.1013 13.2485C19.6536 13.2485 20.1013 13.6962 20.1013 14.2485V20.2485C20.1013 20.8007 19.6536 21.2485 19.1013 21.2485H5.10132C4.54903 21.2485 4.10132 20.8007 4.10132 20.2485V6.24846ZM13.0987 10.5207H14.3308C14.5736 10.5207 14.7953 10.3825 14.9021 10.1645C15.1093 9.74174 14.8016 9.24822 14.3308 9.24822H9.88144C9.64061 9.24822 9.42043 9.38419 9.31258 9.59952C9.10068 10.0226 9.40828 10.5207 9.88144 10.5207H10.7147C11.1163 10.5962 11.516 10.7927 11.6785 11.2482H9.97444C9.7322 11.2482 9.51097 11.3858 9.40383 11.603C9.19531 12.0259 9.503 12.5207 9.97444 12.5207H11.5836C11.369 12.9372 10.8795 13.2518 9.76694 13.1193L9.76486 13.1252C9.57941 13.1262 9.39402 13.1957 9.24972 13.3343C8.951 13.6212 8.94146 14.096 9.22841 14.3947L12.1486 17.4347C12.4355 17.7334 12.9103 17.7429 13.209 17.456C13.5077 17.169 13.5173 16.6943 13.2303 16.3955L11.1491 14.2289C11.8761 14.1281 13.0527 13.6673 13.3646 12.5207H14.3378C14.582 12.5207 14.8047 12.3809 14.9108 12.161C15.1147 11.7385 14.8069 11.2482 14.3378 11.2482H13.3577C13.3052 11.0097 13.2292 10.7543 13.0987 10.5207Z" fill="#101010"/>
</svg>
