<svg width="25" height="25" viewBox="0 0 25 25" fill="none" xmlns="http://www.w3.org/2000/svg">
<path fill-rule="evenodd" clip-rule="evenodd" d="M14.5092 7.84375C14.1187 7.45323 14.1187 6.82006 14.5092 6.42954L18.3983 2.54045C18.7888 2.14993 19.422 2.14993 19.8125 2.54045L23.7016 6.42954C24.0921 6.82006 24.0921 7.45323 23.7016 7.84375C23.3111 8.23428 22.6779 8.23428 22.2874 7.84375L20.1061 5.66243V11.244C20.1061 11.7963 19.6584 12.244 19.1061 12.244C18.5538 12.244 18.1061 11.7963 18.1061 11.244V5.66112L15.9234 7.84375C15.5329 8.23428 14.8998 8.23428 14.5092 7.84375ZM5.10547 2.24773C4.55318 2.24773 4.10547 2.69545 4.10547 3.24773V6.24773H3.10547C2.55318 6.24773 2.10547 6.69545 2.10547 7.24773C2.10547 7.80001 2.55318 8.24773 3.10547 8.24773H4.10547V11.2477H3.10547C2.55318 11.2477 2.10547 11.6954 2.10547 12.2477C2.10547 12.8 2.55318 13.2477 3.10547 13.2477H4.10547V16.2477H3.10547C2.55318 16.2477 2.10547 16.6954 2.10547 17.2477C2.10547 17.8 2.55318 18.2477 3.10547 18.2477H4.10547V21.2477C4.10547 21.8 4.55318 22.2477 5.10547 22.2477H19.1055C19.6578 22.2477 20.1055 21.8 20.1055 21.2477V15.251C20.1055 14.6988 19.6578 14.251 19.1055 14.251C18.5532 14.251 18.1055 14.6988 18.1055 15.251V20.2477H6.10547V17.2477V12.2477V7.24773V4.24773H13.065C13.6173 4.24773 14.065 3.80001 14.065 3.24773C14.065 2.69545 13.6173 2.24773 13.065 2.24773H5.10547ZM14.1055 11.2355C14.1055 12.3401 13.21 13.2355 12.1055 13.2355C11.0009 13.2355 10.1055 12.3401 10.1055 11.2355C10.1055 10.131 11.0009 9.23552 12.1055 9.23552C13.21 9.23552 14.1055 10.131 14.1055 11.2355ZM11.3055 14.2638C9.53816 14.2638 8.10547 15.6965 8.10547 17.4638C8.10547 17.9057 8.46364 18.2638 8.90547 18.2638H15.3055C15.7473 18.2638 16.1055 17.9057 16.1055 17.4638C16.1055 15.6965 14.6728 14.2638 12.9055 14.2638H11.3055Z" fill="#101010"/>
</svg>
