<svg width="24" height="24" viewBox="0 0 24 24" fill="none" xmlns="http://www.w3.org/2000/svg">
<path fill-rule="evenodd" clip-rule="evenodd" d="M4 2.99951C4 2.44723 4.44772 1.99951 5 1.99951H19C19.5523 1.99951 20 2.44723 20 2.99951V20.9995C20 21.5518 19.5523 21.9995 19 21.9995H5C4.44772 21.9995 4 21.5518 4 20.9995V17.9995H3C2.44772 17.9995 2 17.5518 2 16.9995C2 16.4472 2.44772 15.9995 3 15.9995H4V12.9995H3C2.44772 12.9995 2 12.5518 2 11.9995C2 11.4472 2.44772 10.9995 3 10.9995H4V7.99951H3C2.44772 7.99951 2 7.5518 2 6.99951C2 6.44723 2.44772 5.99951 3 5.99951H4V2.99951ZM6 19.9995V16.9995V11.9995V6.99951V3.99951H18V19.9995H6ZM12.9975 7.32129H14.2296C14.4724 7.32129 14.6941 7.18309 14.8009 6.96506C15.0081 6.54235 14.7004 6.04883 14.2296 6.04883H9.78024C9.53941 6.04883 9.31923 6.1848 9.21138 6.40013C8.99948 6.82318 9.30708 7.32129 9.78024 7.32129H10.6135C11.0151 7.3968 11.4148 7.59329 11.5773 8.04883H9.87324C9.631 8.04883 9.40978 8.18639 9.30263 8.40365C9.09411 8.82647 9.4018 9.32129 9.87324 9.32129H11.4824C11.2678 9.73785 10.7783 10.0524 9.66574 9.91992L9.66367 9.92579C9.47821 9.92686 9.29283 9.99629 9.14852 10.1349C8.8498 10.4219 8.84026 10.8966 9.12721 11.1954L12.0474 14.2353C12.3343 14.534 12.8091 14.5436 13.1078 14.2566C13.4066 13.9697 13.4161 13.4949 13.1291 13.1962L11.0479 11.0295C11.7749 10.9287 12.9515 10.4679 13.2634 9.32129H14.2366C14.4808 9.32129 14.7035 9.18151 14.8096 8.96157C15.0135 8.53912 14.7057 8.04883 14.2366 8.04883H13.2565C13.204 7.81028 13.128 7.55496 12.9975 7.32129ZM10 15.9917C9.44772 15.9917 9 16.4394 9 16.9917C9 17.544 9.44772 17.9917 10 17.9917H14C14.5523 17.9917 15 17.544 15 16.9917C15 16.4394 14.5523 15.9917 14 15.9917H10Z" fill="#101010"/>
</svg>
