<svg width="24" height="24" viewBox="0 0 24 24" fill="none" xmlns="http://www.w3.org/2000/svg">
<path fill-rule="evenodd" clip-rule="evenodd" d="M5.50342 3.00397C4.12271 3.00397 3.00342 4.12326 3.00342 5.50397V18.504C3.00342 19.8847 4.1227 21.004 5.50342 21.004H16.002V20.004H5.50342C4.67499 20.004 4.00342 19.3324 4.00342 18.504V5.50397C4.00342 4.67554 4.67499 4.00397 5.50342 4.00397H18.5034C19.3318 4.00397 20.0034 4.67554 20.0034 5.50397V10.0027H21.0034V5.50397C21.0034 4.12326 19.8841 3.00397 18.5034 3.00397H5.50342ZM14.2365 9.00104H12.5898C12.8299 9.33295 12.948 9.71547 13.0103 10.044H14.6593L14.2365 11.044H12.9678C12.663 12.2801 11.4613 12.8484 10.7467 12.9219L13.4692 16.0073H12.2623L9.5343 12.9219V11.9141C11.0208 12.0447 11.5884 11.5751 11.805 11.044H9.34753L9.78279 10.044H11.9267C11.8252 9.33527 11.2596 9.07439 10.7434 9.00104H9.34753L9.78279 8.00104H14.6593L14.2365 9.00104ZM19.6385 13.5311C18.8149 13.5311 18.1385 14.2126 18.1385 15.0459H17.1385C17.1385 13.67 18.2531 12.5311 19.6385 12.5311H19.8288C21.1107 12.5311 22.1499 13.5703 22.1499 14.8522C22.1499 15.5833 21.8055 16.2717 21.2203 16.71L20.5858 17.1852C20.2076 17.4684 19.985 17.9133 19.985 18.3858V18.9888H18.985V18.3858C18.985 17.5983 19.356 16.8569 19.9863 16.3848L20.6208 15.9096C20.9539 15.6601 21.1499 15.2683 21.1499 14.8522C21.1499 14.1225 20.5585 13.5311 19.8288 13.5311H19.6385ZM19.4552 21.8414C19.8694 21.8414 20.2052 21.5056 20.2052 21.0914C20.2052 20.6772 19.8694 20.3414 19.4552 20.3414C19.041 20.3414 18.7052 20.6772 18.7052 21.0914C18.7052 21.5056 19.041 21.8414 19.4552 21.8414Z" fill="#101010"/>
</svg>
