<svg width="25" height="25" viewBox="0 0 25 25" fill="none" xmlns="http://www.w3.org/2000/svg">
<path fill-rule="evenodd" clip-rule="evenodd" d="M5.81885 3.08301C4.43814 3.08301 3.31885 4.2023 3.31885 5.58301V18.583C3.31885 19.9637 4.43813 21.083 5.81885 21.083H16.3175V20.083H5.81885C4.99042 20.083 4.31885 19.4114 4.31885 18.583V5.58301C4.31885 4.75458 4.99042 4.08301 5.81885 4.08301H18.8188C19.6473 4.08301 20.3188 4.75458 20.3188 5.58301V10.0818H21.3188V5.58301C21.3188 4.2023 20.1996 3.08301 18.8188 3.08301H5.81885ZM14.5519 9.08008H12.9052C13.1453 9.41199 13.2634 9.79451 13.3257 10.123H14.9748L14.5519 11.123H13.2832C12.9785 12.3592 11.7767 12.9274 11.0621 13.0009L13.7846 16.0864H12.5778L9.84973 13.0009V11.9931C11.3362 12.1238 11.9039 11.6542 12.1204 11.123H9.66296L10.0982 10.123H12.2421C12.1406 9.41431 11.575 9.15343 11.0588 9.08008H9.66296L10.0982 8.08008H14.9748L14.5519 9.08008ZM19.954 13.6101C19.1303 13.6101 18.454 14.2917 18.454 15.1249H17.454C17.454 13.749 18.5685 12.6101 19.954 12.6101H20.1443C21.4262 12.6101 22.4654 13.6493 22.4654 14.9312C22.4654 15.6623 22.1209 16.3507 21.5357 16.789L20.9012 17.2642C20.523 17.5475 20.3004 17.9923 20.3004 18.4648V19.0678H19.3004V18.4648C19.3004 17.6774 19.6714 16.9359 20.3017 16.4638L20.9362 15.9886C21.2693 15.7392 21.4654 15.3473 21.4654 14.9312C21.4654 14.2016 20.8739 13.6101 20.1443 13.6101H19.954ZM19.7706 21.9204C20.1848 21.9204 20.5206 21.5846 20.5206 21.1704C20.5206 20.7562 20.1848 20.4204 19.7706 20.4204C19.3564 20.4204 19.0206 20.7562 19.0206 21.1704C19.0206 21.5846 19.3564 21.9204 19.7706 21.9204Z" fill="#101010"/>
</svg>
