<svg width="24" height="24" viewBox="0 0 24 24" fill="none" xmlns="http://www.w3.org/2000/svg">
<path fill-rule="evenodd" clip-rule="evenodd" d="M10.183 3.72138C12.0107 3.31984 13.9198 3.53265 15.6142 4.3268C17.2435 5.09043 18.5866 6.35056 19.4527 7.92357L16.7489 7.44681L16.5753 8.43162L21.0069 9.21304L21.7883 4.7814L20.8035 4.60775L20.3099 7.40711C19.3413 5.66493 17.8478 4.26926 16.0386 3.42132C14.1448 2.53374 12.0111 2.29589 9.96841 2.74467C7.9257 3.19345 6.08817 4.30377 4.74085 5.9034C3.39353 7.50303 2.61173 9.50256 2.51672 11.5918L3.51569 11.6373C3.52168 11.5056 3.53071 11.3743 3.54276 11.2435L3.54976 11.2442C3.57478 10.9638 3.61376 10.6844 3.66671 10.4069L3.6622 10.406C3.93656 8.99048 4.56808 7.66081 5.5057 6.54761C6.71119 5.11636 8.3553 4.12292 10.183 3.72138ZM2.57348 13.0426C2.60801 13.3552 2.65811 13.6666 2.72376 13.9754C2.78942 14.2842 2.87031 14.589 2.96597 14.8887L3.91861 14.5846C3.83302 14.3165 3.76065 14.0438 3.7019 13.7675C3.64316 13.4911 3.59833 13.2126 3.56744 12.9328L2.57348 13.0426ZM20.1443 16.9175C20.3077 16.6473 20.4573 16.3697 20.5926 16.0857L19.6898 15.6556C19.5687 15.9097 19.4349 16.1581 19.2887 16.3998C19.1425 16.6415 18.9845 16.8754 18.8156 17.1005L19.6156 17.7006C19.8044 17.4489 19.9808 17.1876 20.1443 16.9175ZM3.71567 16.6208C3.86868 16.8957 4.03553 17.1633 4.21575 17.4225C4.39598 17.6818 4.58867 17.9314 4.793 18.1705L5.55332 17.521C5.37051 17.307 5.1981 17.0837 5.03684 16.8517C4.87559 16.6197 4.7263 16.3803 4.5894 16.1344L3.71567 16.6208ZM17.603 19.6834C17.8584 19.4977 18.1038 19.2998 18.3386 19.0904L17.6731 18.3441C17.463 18.5314 17.2434 18.7085 17.0149 18.8746C16.7864 19.0408 16.5502 19.1951 16.3073 19.3372L16.8121 20.2004C17.0837 20.0416 17.3476 19.8691 17.603 19.6834ZM6.15544 19.4767C6.40301 19.6708 6.66053 19.8528 6.92715 20.0219C7.19377 20.191 7.46815 20.3465 7.7492 20.4878L8.19835 19.5943C7.94688 19.4679 7.70138 19.3288 7.46283 19.1775C7.22427 19.0262 6.99386 18.8633 6.77235 18.6897L6.15544 19.4767ZM14.1883 21.2482C14.4957 21.176 14.7987 21.0887 15.0963 20.9867L14.7721 20.0407C14.5058 20.132 14.2347 20.2101 13.9597 20.2747C13.6847 20.3393 13.4071 20.39 13.1281 20.4269L13.2589 21.4183C13.5708 21.3771 13.881 21.3204 14.1883 21.2482ZM9.51139 21.1638C9.81483 21.2467 10.1228 21.3147 10.4341 21.3673C10.7454 21.4198 11.0586 21.4568 11.3724 21.4781L11.4402 20.4804C11.1594 20.4613 10.8792 20.4283 10.6006 20.3812C10.3221 20.3342 10.0465 20.2734 9.77504 20.1991L9.51139 21.1638ZM11.9425 7.99999V12H15.9446V13H10.9446V7.99999H11.9425Z" fill="#F19E0C"/>
</svg>
