<svg width="25" height="25" viewBox="0 0 25 25" fill="none" xmlns="http://www.w3.org/2000/svg">
<path fill-rule="evenodd" clip-rule="evenodd" d="M10.5537 3.80054C12.3814 3.399 14.2905 3.61181 15.9849 4.40596C17.6142 5.16959 18.9574 6.42972 19.8235 8.00273L17.1197 7.52597L16.946 8.51078L21.3776 9.2922L22.1591 4.86056L21.1742 4.68692L20.6806 7.48627C19.7121 5.74409 18.2185 4.34842 16.4093 3.50048C14.5156 2.6129 12.3819 2.37506 10.3391 2.82384C8.29642 3.27261 6.45889 4.38293 5.11157 5.98256C3.76426 7.58219 2.98246 9.58172 2.88745 11.671L3.88642 11.7164C3.89241 11.5847 3.90144 11.4535 3.91349 11.3227L3.92048 11.3233C3.94551 11.043 3.98449 10.7635 4.03743 10.486L4.03292 10.4852C4.30729 9.06964 4.9388 7.73998 5.87642 6.62677C7.08192 5.19552 8.72603 4.20208 10.5537 3.80054ZM2.94421 13.1217C2.97874 13.4344 3.02883 13.7457 3.09449 14.0546C3.16015 14.3634 3.24104 14.6682 3.33669 14.9679L4.28934 14.6638C4.20375 14.3957 4.13138 14.1229 4.07263 13.8466C4.01388 13.5703 3.96906 13.2917 3.93817 13.012L2.94421 13.1217ZM21.6018 14.3887C21.6783 14.0836 21.7397 13.7743 21.7856 13.4619L20.7963 13.3164C20.7552 13.5959 20.7002 13.8726 20.6318 14.1456L21.6018 14.3887ZM20.515 16.9966C20.6785 16.7265 20.828 16.4489 20.9633 16.1649L20.0605 15.7348C19.9395 15.9889 19.8057 16.2373 19.6594 16.479C19.5132 16.7207 19.3553 16.9545 19.1864 17.1797L19.9863 17.7797C20.1751 17.5281 20.3516 17.2668 20.515 16.9966ZM4.08639 16.7C4.2394 16.9748 4.40625 17.2424 4.58648 17.5017C4.7667 17.7609 4.9594 18.0105 5.16373 18.2497L5.92405 17.6002C5.74124 17.3862 5.56882 17.1628 5.40757 16.9309C5.24631 16.6989 5.09703 16.4595 4.96012 16.2136L4.08639 16.7ZM17.9737 19.7626C18.2291 19.5769 18.4746 19.3789 18.7094 19.1696L18.0438 18.4232C17.8338 18.6105 17.6141 18.7876 17.3856 18.9538C17.1572 19.1199 16.921 19.2743 16.678 19.4163L17.1828 20.2796C17.4544 20.1208 17.7184 19.9483 17.9737 19.7626ZM6.52616 19.5559C6.77374 19.7499 7.03126 19.9319 7.29788 20.1011C7.56449 20.2702 7.83888 20.4256 8.11993 20.5669L8.56908 19.6735C8.31761 19.547 8.07211 19.408 7.83355 19.2566C7.595 19.1053 7.36459 18.9425 7.14307 18.7688L6.52616 19.5559ZM14.5591 21.3274C14.8664 21.2552 15.1694 21.1678 15.467 21.0658L15.1428 20.1199C14.8765 20.2111 14.6054 20.2893 14.3304 20.3539C14.0554 20.4185 13.7778 20.4692 13.4988 20.506L13.6296 21.4974C13.9415 21.4563 14.2517 21.3996 14.5591 21.3274ZM9.88212 21.2429C10.1856 21.3259 10.4935 21.3938 10.8048 21.4464C11.1161 21.499 11.4293 21.5359 11.7432 21.5572L11.8109 20.5595C11.5301 20.5405 11.2499 20.5074 10.9713 20.4604C10.6928 20.4133 10.4173 20.3525 10.1458 20.2783L9.88212 21.2429ZM12.3132 8.07915V12.0791H16.3153V13.0791H11.3153V8.07915H12.3132Z" fill="#F19E0C"/>
</svg>
