<svg width="25" height="25" viewBox="0 0 25 25" fill="none" xmlns="http://www.w3.org/2000/svg">
<path fill-rule="evenodd" clip-rule="evenodd" d="M10.3928 3.96167C12.2205 3.56014 14.1296 3.77295 15.824 4.56709C17.4533 5.33072 18.7965 6.59085 19.6626 8.16386L16.9588 7.68711L16.7851 8.67192L21.2168 9.45333L21.9982 5.0217L21.0134 4.84805L20.5198 7.64741C19.5512 5.90523 18.0576 4.50956 16.2484 3.66161C14.3547 2.77404 12.221 2.53619 10.1782 2.98497C8.13554 3.43375 6.298 4.54406 4.95069 6.14369C3.60337 7.74332 2.82157 9.74285 2.72656 11.8321L3.72553 11.8775C3.73152 11.7459 3.74055 11.6146 3.7526 11.4838L3.7596 11.4845C3.78462 11.2041 3.8236 10.9247 3.87654 10.6472L3.87204 10.6463C4.1464 9.23077 4.77792 7.90111 5.71554 6.7879C6.92103 5.35666 8.56514 4.36321 10.3928 3.96167ZM2.78332 13.2829C2.81785 13.5955 2.86795 13.9069 2.9336 14.2157C2.99926 14.5245 3.08015 14.8293 3.1758 15.129L4.12845 14.8249C4.04286 14.5568 3.97049 14.2841 3.91174 14.0077C3.853 13.7314 3.80817 13.4529 3.77728 13.1731L2.78332 13.2829ZM20.3541 17.1578C20.5176 16.8876 20.6671 16.61 20.8024 16.326L19.8996 15.8959C19.7786 16.15 19.6448 16.3984 19.4985 16.6401C19.3523 16.8818 19.1944 17.1156 19.0255 17.3408L19.8254 17.9409C20.0142 17.6892 20.1907 17.4279 20.3541 17.1578ZM3.92551 16.8611C4.07852 17.136 4.24537 17.4036 4.42559 17.6628C4.60582 17.9221 4.79851 18.1717 5.00284 18.4108L5.76316 17.7613C5.58035 17.5473 5.40793 17.324 5.24668 17.092C5.08542 16.86 4.93614 16.6206 4.79924 16.3747L3.92551 16.8611ZM17.8128 19.9237C18.0682 19.738 18.3137 19.5401 18.5485 19.3307L17.8829 18.5843C17.6729 18.7717 17.4532 18.9488 17.2248 19.1149C16.9963 19.2811 16.7601 19.4354 16.5171 19.5775L17.022 20.4407C17.2935 20.2819 17.5575 20.1094 17.8128 19.9237ZM6.36527 19.717C6.61285 19.9111 6.87037 20.0931 7.13699 20.2622C7.40361 20.4313 7.67799 20.5868 7.95904 20.728L8.40819 19.8346C8.15672 19.7082 7.91122 19.5691 7.67267 19.4178C7.43411 19.2664 7.2037 19.1036 6.98219 18.93L6.36527 19.717ZM14.3982 21.4885C14.7056 21.4163 15.0086 21.329 15.3061 21.227L14.9819 20.281C14.7157 20.3723 14.4445 20.4504 14.1695 20.515C13.8945 20.5796 13.6169 20.6303 13.3379 20.6671L13.4687 21.6586C13.7806 21.6174 14.0908 21.5607 14.3982 21.4885ZM9.72123 21.4041C10.0247 21.487 10.3326 21.555 10.6439 21.6075C10.9553 21.6601 11.2684 21.6971 11.5823 21.7184L11.65 20.7207C11.3692 20.7016 11.089 20.6686 10.8105 20.6215C10.5319 20.5745 10.2564 20.5137 9.98488 20.4394L9.72123 21.4041ZM12.1523 8.24028V12.2403H16.1544V13.2403H11.1544V8.24028H12.1523Z" fill="#F19E0C"/>
</svg>
