<svg width="25" height="25" viewBox="0 0 25 25" fill="none" xmlns="http://www.w3.org/2000/svg">
<path fill-rule="evenodd" clip-rule="evenodd" d="M5.81575 3.08228C4.43507 3.08228 3.3158 4.20152 3.31575 5.5822L3.31567 8.09241L4.31567 8.09244L4.31575 5.58223C4.31578 4.75382 4.98734 4.08228 5.81575 4.08228H8.31042V3.08228H5.81575ZM18.8158 3.08228H16.3164V4.08228H18.8158C19.6442 4.08228 20.3158 4.75385 20.3158 5.58228V8.08133H21.3158V5.58228C21.3158 4.20156 20.1965 3.08228 18.8158 3.08228ZM21.3158 18.5823V16.0818H20.3158V18.5823C20.3158 19.4107 19.6442 20.0823 18.8158 20.0823H16.3149V21.0823H18.8158C20.1965 21.0823 21.3158 19.963 21.3158 18.5823ZM4.31582 18.5823V16.0873H3.31582V18.5823C3.31582 19.963 4.4351 21.0823 5.81582 21.0823H8.31903V20.0823H5.81582C4.98739 20.0823 4.31582 19.4107 4.31582 18.5823ZM7.06421 7.33496C7.06421 7.05882 7.28807 6.83496 7.56421 6.83496H11.0642C11.3404 6.83496 11.5642 7.05882 11.5642 7.33496V10.835C11.5642 11.1111 11.3404 11.335 11.0642 11.335H7.56421C7.28807 11.335 7.06421 11.1111 7.06421 10.835V7.33496ZM8.06421 7.83496V10.335H10.5642V7.83496H8.06421ZM13.0674 7.33496C13.0674 7.05882 13.2912 6.83496 13.5674 6.83496H17.0674C17.3435 6.83496 17.5674 7.05882 17.5674 7.33496V10.835C17.5674 11.1111 17.3435 11.335 17.0674 11.335H13.5674C13.2912 11.335 13.0674 11.1111 13.0674 10.835V7.33496ZM14.0674 7.83496V10.335H16.5674V7.83496H14.0674ZM7.56726 12.8293C7.29112 12.8293 7.06726 13.0532 7.06726 13.3293V16.8293C7.06726 17.1055 7.29112 17.3293 7.56726 17.3293H11.0673C11.3434 17.3293 11.5673 17.1055 11.5673 16.8293V13.3293C11.5673 13.0532 11.3434 12.8293 11.0673 12.8293H7.56726ZM8.06726 16.3293V13.8293H10.5673V16.3293H8.06726ZM13.0574 13.3293C13.0574 13.0532 13.2812 12.8293 13.5574 12.8293H16.3574C16.6335 12.8293 16.8574 13.0532 16.8574 13.3293V16.1293C16.8574 16.4055 16.6335 16.6293 16.3574 16.6293H13.5574C13.2812 16.6293 13.0574 16.4055 13.0574 16.1293V13.3293ZM14.0574 13.8293V15.6293H15.8574V13.8293H14.0574Z" fill="#101010"/>
</svg>
