<svg width="25" height="25" viewBox="0 0 25 25" fill="none" xmlns="http://www.w3.org/2000/svg">
<path fill-rule="evenodd" clip-rule="evenodd" d="M19.3154 3.02287L16.28 6.05831L15.5729 5.35121L19.462 1.46212C19.6572 1.26686 19.9738 1.26686 20.1691 1.46212L24.0582 5.35121L23.3511 6.05831L20.3154 3.02269V10.0877H19.3154V3.02287ZM5.31555 7.57728C5.31555 6.74885 5.98712 6.07728 6.81555 6.07728H13.3643V5.07728H6.81555C5.43484 5.07728 4.31555 6.19657 4.31555 7.57728V18.5773C4.31555 19.958 5.43484 21.0773 6.81555 21.0773H17.8156C19.1963 21.0773 20.3156 19.958 20.3156 18.5773V13.0773H19.3156V18.5773C19.3156 19.4057 18.644 20.0773 17.8156 20.0773H6.81555C5.98712 20.0773 5.31555 19.4057 5.31555 18.5773V7.57728ZM14.9713 9.07924H10.0948L9.65955 10.0792H11.0554C11.5716 10.1526 12.1372 10.4135 12.2387 11.1222H10.0948L9.65955 12.1222H12.117C11.9004 12.6533 11.3328 13.1229 9.84631 12.9923V14.0001L12.5743 17.0855H13.7812L11.0587 14.0001C11.7733 13.9266 12.975 13.3583 13.2798 12.1222H14.5485L14.9713 11.1222H13.3223C13.26 10.7937 13.1419 10.4112 12.9018 10.0792H14.5485L14.9713 9.07924Z" fill="#101010"/>
</svg>
