<svg width="25" height="25" viewBox="0 0 25 25" fill="none" xmlns="http://www.w3.org/2000/svg">
<path fill-rule="evenodd" clip-rule="evenodd" d="M12.3153 4.04712C10.9346 4.04712 9.81531 5.16641 9.81531 6.54712C9.81531 7.92783 10.9346 9.04712 12.3153 9.04712C13.696 9.04712 14.8153 7.92783 14.8153 6.54712C14.8153 5.16641 13.696 4.04712 12.3153 4.04712ZM8.81531 6.54712C8.81531 4.61412 10.3823 3.04712 12.3153 3.04712C14.2483 3.04712 15.8153 4.61412 15.8153 6.54712C15.8153 8.48012 14.2483 10.0471 12.3153 10.0471C10.3823 10.0471 8.81531 8.48012 8.81531 6.54712ZM2.06104 14.887L6.65795 12.9201C6.91183 12.8115 7.20569 12.9293 7.31432 13.1831L9.28115 17.7801L8.36177 18.1734L6.87722 14.7037L6.29178 15.9278C5.95439 16.6332 5.71603 17.3819 5.58346 18.1525C5.32088 19.679 6.49639 21.074 8.04523 21.074H16.6257C18.2116 21.074 19.3967 19.6164 19.0732 18.0639L18.8472 16.9797C18.3157 14.4294 16.068 12.6018 13.4629 12.6018H9.33352V11.6018H13.4629C16.5416 11.6018 19.198 13.7617 19.8262 16.7757L20.0521 17.8599C20.5051 20.0334 18.8459 22.074 16.6257 22.074H8.04523C5.87634 22.074 4.23024 20.1205 4.59794 17.983C4.74612 17.1216 5.01254 16.2848 5.38965 15.4963L5.95841 14.3071L2.4544 15.8063L2.06104 14.887Z" fill="#101010"/>
</svg>
