<svg width="25" height="25" viewBox="0 0 25 25" fill="none" xmlns="http://www.w3.org/2000/svg">
<path fill-rule="evenodd" clip-rule="evenodd" d="M19.8225 3.24348L19.8156 3.25042H19.8294L19.8225 3.24348ZM15.9334 7.13257L19.3226 3.74336V11.1245H20.3226V3.7436L23.7116 7.13257L24.4187 6.42546L20.1761 2.18282C19.9808 1.98756 19.6642 1.98756 19.469 2.18282L15.2263 6.42546L15.9334 7.13257ZM5.31873 4.57512C5.31873 3.74669 5.9903 3.07512 6.81873 3.07512H14.3138V2.07512H6.81873C5.43801 2.07512 4.31873 3.19441 4.31873 4.57512V6.60442H2.31543V7.60442H4.31873V11.6044H2.31543V12.6044H4.31873V16.6044H2.31543V17.6044H4.31873V19.583C4.31873 20.9637 5.43802 22.083 6.81873 22.083H17.8121C19.1928 22.083 20.3121 20.9637 20.3121 19.583V14.0853H19.3121V19.583C19.3121 20.4114 18.6405 21.083 17.8121 21.083H6.81873C5.9903 21.083 5.31873 20.4114 5.31873 19.583V4.57512ZM12.3154 11.0922C12.8677 11.0922 13.3154 10.6445 13.3154 10.0922C13.3154 9.53993 12.8677 9.09221 12.3154 9.09221C11.7631 9.09221 11.3154 9.53993 11.3154 10.0922C11.3154 10.6445 11.7631 11.0922 12.3154 11.0922ZM12.3154 12.0922C13.42 12.0922 14.3154 11.1968 14.3154 10.0922C14.3154 8.98764 13.42 8.09221 12.3154 8.09221C11.2109 8.09221 10.3154 8.98764 10.3154 10.0922C10.3154 11.1968 11.2109 12.0922 12.3154 12.0922ZM9.3244 16.1205C9.42544 14.9992 10.3678 14.1205 11.5154 14.1205H13.1154C14.263 14.1205 15.2054 14.9992 15.3065 16.1205H9.3244ZM8.31543 16.3205C8.31543 14.5532 9.74812 13.1205 11.5154 13.1205H13.1154C14.8827 13.1205 16.3154 14.5532 16.3154 16.3205C16.3154 16.7624 15.9573 17.1205 15.5154 17.1205H9.11543C8.6736 17.1205 8.31543 16.7624 8.31543 16.3205Z" fill="#101010"/>
</svg>
