<svg width="25" height="25" viewBox="0 0 25 25" fill="none" xmlns="http://www.w3.org/2000/svg">
<path fill-rule="evenodd" clip-rule="evenodd" d="M19.351 4.0791H5.35095C4.79867 4.0791 4.35095 4.52682 4.35095 5.0791V19.0791C4.35095 19.6314 4.79867 20.0791 5.35095 20.0791H19.351C19.9032 20.0791 20.351 19.6314 20.351 19.0791V5.0791C20.351 4.52682 19.9032 4.0791 19.351 4.0791ZM5.35095 3.0791C4.24638 3.0791 3.35095 3.97453 3.35095 5.0791V19.0791C3.35095 20.1837 4.24638 21.0791 5.35095 21.0791H19.351C20.4555 21.0791 21.351 20.1837 21.351 19.0791V5.0791C21.351 3.97453 20.4555 3.0791 19.351 3.0791H5.35095Z" fill="#101010"/>
<path d="M10.511 17.0791L13.346 7.0791L15.976 12.0641L10.511 17.0791Z" fill="#028C3C"/>
<path d="M8.72595 17.0791L11.561 7.0791L14.191 12.0641L8.72595 17.0791Z" fill="#FE7A09"/>
</svg>
