<svg width="24" height="24" viewBox="0 0 24 24" fill="none" xmlns="http://www.w3.org/2000/svg">
<path fill-rule="evenodd" clip-rule="evenodd" d="M6.50415 2.00482C5.12344 2.00482 4.00415 3.12411 4.00415 4.50482V6.49945H2V7.49945H4.00415V11.4995H2V12.4995H4.00415V16.4995H2V17.4995H4.00415V19.5048C4.00415 20.8855 5.12344 22.0048 6.50415 22.0048H17.5041C18.8849 22.0048 20.0042 20.8855 20.0042 19.5048V4.50482C20.0042 3.12411 18.8849 2.00482 17.5042 2.00482H6.50415ZM5.00415 4.50482C5.00415 3.67639 5.67572 3.00482 6.50415 3.00482H17.5042C18.3326 3.00482 19.0042 3.67639 19.0042 4.50482V19.5048C19.0042 20.3333 18.3326 21.0048 17.5041 21.0048H6.50415C5.67572 21.0048 5.00415 20.3333 5.00415 19.5048V4.50482ZM14.2329 6.99994H12.5862C12.8263 7.33186 12.9445 7.71437 13.0067 8.04291H14.6558L14.2329 9.04291H12.9642C12.6595 10.279 11.4577 10.8473 10.7432 10.9208L13.4656 14.0062H12.2588L9.53076 10.9208V9.91296C11.0173 10.0436 11.5849 9.57403 11.8014 9.04291H9.34399L9.77925 8.04291H11.9231C11.8216 7.33417 11.256 7.07329 10.7399 6.99994H9.34399L9.77925 5.99994H14.6558L14.2329 6.99994ZM9 18.019H15V17.019H9V18.019Z" fill="#101010"/>
</svg>
