<svg width="24" height="24" viewBox="0 0 24 24" fill="none" xmlns="http://www.w3.org/2000/svg">
<path fill-rule="evenodd" clip-rule="evenodd" d="M5.50032 3.0033C4.11964 3.0033 3.00037 4.12254 3.00032 5.50322L3.00024 8.01343L4.00024 8.01346L4.00032 5.50325C4.00035 4.67484 4.67191 4.0033 5.50032 4.0033H7.99499V3.0033H5.50032ZM18.5004 3.0033H16.001V4.0033H18.5004C19.3288 4.0033 20.0004 4.67487 20.0004 5.5033V8.00235H21.0004V5.5033C21.0004 4.12258 19.8811 3.0033 18.5004 3.0033ZM21.0004 18.5033V16.0028H20.0004V18.5033C20.0004 19.3317 19.3288 20.0033 18.5004 20.0033H15.9995V21.0033H18.5004C19.8811 21.0033 21.0004 19.884 21.0004 18.5033ZM4.00039 18.5033V16.0084H3.00039V18.5033C3.00039 19.884 4.11967 21.0033 5.50039 21.0033H8.0036V20.0033H5.50039C4.67196 20.0033 4.00039 19.3317 4.00039 18.5033ZM6.74878 7.25598C6.74878 6.97984 6.97264 6.75598 7.24878 6.75598H10.7488C11.0249 6.75598 11.2488 6.97984 11.2488 7.25598V10.756C11.2488 11.0321 11.0249 11.256 10.7488 11.256H7.24878C6.97264 11.256 6.74878 11.0321 6.74878 10.756V7.25598ZM7.74878 7.75598V10.256H10.2488V7.75598H7.74878ZM12.752 7.25598C12.752 6.97984 12.9758 6.75598 13.252 6.75598H16.752C17.0281 6.75598 17.252 6.97984 17.252 7.25598V10.756C17.252 11.0321 17.0281 11.256 16.752 11.256H13.252C12.9758 11.256 12.752 11.0321 12.752 10.756V7.25598ZM13.752 7.75598V10.256H16.252V7.75598H13.752ZM7.25183 12.7504C6.97569 12.7504 6.75183 12.9742 6.75183 13.2504V16.7504C6.75183 17.0265 6.97569 17.2504 7.25183 17.2504H10.7518C11.028 17.2504 11.2518 17.0265 11.2518 16.7504V13.2504C11.2518 12.9742 11.028 12.7504 10.7518 12.7504H7.25183ZM7.75183 16.2504V13.7504H10.2518V16.2504H7.75183ZM12.7419 13.2504C12.7419 12.9742 12.9658 12.7504 13.2419 12.7504H16.0419C16.3181 12.7504 16.5419 12.9742 16.5419 13.2504V16.0504C16.5419 16.3265 16.3181 16.5504 16.0419 16.5504H13.2419C12.9658 16.5504 12.7419 16.3265 12.7419 16.0504V13.2504ZM13.7419 13.7504V15.5504H15.5419V13.7504H13.7419Z" fill="#101010"/>
</svg>
