<svg width="25" height="25" viewBox="0 0 25 25" fill="none" xmlns="http://www.w3.org/2000/svg">
<path fill-rule="evenodd" clip-rule="evenodd" d="M20.3157 8.3718L23.3511 5.33635L24.0582 6.04346L20.1691 9.93254C19.9739 10.1278 19.6573 10.1278 19.462 9.93254L15.5729 6.04346L16.2801 5.33635L19.3157 8.37197V1.0918H20.3157V8.3718ZM5.31555 7.57715C5.31555 6.74872 5.98712 6.07715 6.81555 6.07715H13.3643V5.07715H6.81555C5.43484 5.07715 4.31555 6.19644 4.31555 7.57715V18.5771C4.31555 19.9579 5.43484 21.0771 6.81555 21.0771H17.8156C19.1963 21.0771 20.3156 19.9579 20.3156 18.5771V13.0771H19.3156V18.5771C19.3156 19.4056 18.644 20.0771 17.8156 20.0771H6.81555C5.98712 20.0771 5.31555 19.4056 5.31555 18.5771V7.57715ZM14.9713 9.0791H10.0948L9.65955 10.0791H11.0554C11.5716 10.1525 12.1372 10.4133 12.2387 11.1221H10.0948L9.65955 12.1221H12.117C11.9004 12.6532 11.3328 13.1228 9.84631 12.9921V13.9999L12.5743 17.0854H13.7812L11.0587 13.9999C11.7733 13.9265 12.975 13.3582 13.2798 12.1221H14.5485L14.9713 11.1221H13.3223C13.26 10.7935 13.1419 10.411 12.9018 10.0791H14.5485L14.9713 9.0791Z" fill="#101010"/>
</svg>
