<svg width="24" height="24" viewBox="0 0 24 24" fill="none" xmlns="http://www.w3.org/2000/svg">
<path fill-rule="evenodd" clip-rule="evenodd" d="M20.0002 8.29276L23.0356 5.25731L23.7427 5.96442L19.8536 9.8535C19.6584 10.0488 19.3418 10.0488 19.1465 9.8535L15.2575 5.96442L15.9646 5.25731L19.0002 8.29293V1.01276H20.0002V8.29276ZM5.00006 7.49811C5.00006 6.66968 5.67163 5.99811 6.50006 5.99811H13.0488V4.99811H6.50006C5.11935 4.99811 4.00006 6.1174 4.00006 7.49811V18.4981C4.00006 19.8788 5.11935 20.9981 6.50006 20.9981H17.5001C18.8808 20.9981 20.0001 19.8788 20.0001 18.4981V12.9981H19.0001V18.4981C19.0001 19.3265 18.3285 19.9981 17.5001 19.9981H6.50006C5.67163 19.9981 5.00006 19.3265 5.00006 18.4981V7.49811ZM14.6559 9.00006H9.77931L9.34406 10.0001H10.7399C11.2561 10.0734 11.8217 10.3343 11.9232 11.043H9.77931L9.34406 12.043H11.8015C11.585 12.5742 11.0173 13.0438 9.53082 12.9131V13.9209L12.2589 17.0063H13.4657L10.7432 13.9209C11.4578 13.8474 12.6595 13.2791 12.9643 12.043H14.233L14.6559 11.043H13.0068C12.9445 10.7145 12.8264 10.332 12.5863 10.0001H14.233L14.6559 9.00006Z" fill="#101010"/>
</svg>
