<svg width="25" height="24" viewBox="0 0 25 24" fill="none" xmlns="http://www.w3.org/2000/svg">
<path fill-rule="evenodd" clip-rule="evenodd" d="M19.4071 3.20711L19.4002 3.21404H19.414L19.4071 3.20711ZM15.518 7.09619L18.9072 3.70699V11.0881H19.9072V3.70723L23.2962 7.09619L24.0033 6.38909L19.7607 2.14645C19.5654 1.95118 19.2488 1.95118 19.0536 2.14645L14.8109 6.38909L15.518 7.09619ZM4.90332 4.53874C4.90332 3.71032 5.57489 3.03875 6.40332 3.03875H13.8984V2.03875H6.40332C5.02261 2.03875 3.90332 3.15803 3.90332 4.53874V6.56804H1.90002V7.56804H3.90332V11.568H1.90002V12.568H3.90332V16.568H1.90002V17.568H3.90332V19.5466C3.90332 20.9273 5.02261 22.0466 6.40332 22.0466H17.3967C18.7774 22.0466 19.8967 20.9273 19.8967 19.5466V14.0489H18.8967V19.5466C18.8967 20.375 18.2251 21.0466 17.3967 21.0466H6.40332C5.57489 21.0466 4.90332 20.375 4.90332 19.5466V4.53874ZM11.9 11.0558C12.4523 11.0558 12.9 10.6081 12.9 10.0558C12.9 9.50355 12.4523 9.05584 11.9 9.05584C11.3477 9.05584 10.9 9.50355 10.9 10.0558C10.9 10.6081 11.3477 11.0558 11.9 11.0558ZM11.9 12.0558C13.0046 12.0558 13.9 11.1604 13.9 10.0558C13.9 8.95127 13.0046 8.05584 11.9 8.05584C10.7955 8.05584 9.90002 8.95127 9.90002 10.0558C9.90002 11.1604 10.7955 12.0558 11.9 12.0558ZM8.90899 16.0842C9.01004 14.9629 9.95242 14.0842 11.1 14.0842H12.7C13.8476 14.0842 14.79 14.9629 14.8911 16.0842H8.90899ZM7.90002 16.2842C7.90002 14.5168 9.33271 13.0842 11.1 13.0842H12.7C14.4673 13.0842 15.9 14.5168 15.9 16.2842C15.9 16.726 15.5419 17.0842 15.1 17.0842H8.70002C8.2582 17.0842 7.90002 16.726 7.90002 16.2842Z" fill="#101010"/>
</svg>
