<svg width="25" height="25" viewBox="0 0 25 25" fill="none" xmlns="http://www.w3.org/2000/svg">
<path fill-rule="evenodd" clip-rule="evenodd" d="M6.81958 2.08398C5.43887 2.08398 4.31958 3.20327 4.31958 4.58398V6.57861H2.31543V7.57861H4.31958V11.5786H2.31543V12.5786H4.31958V16.5786H2.31543V17.5786H4.31958V19.584C4.31958 20.9647 5.43887 22.084 6.81958 22.084H17.8196C19.2003 22.084 20.3196 20.9647 20.3196 19.584V4.58398C20.3196 3.20327 19.2003 2.08398 17.8196 2.08398H6.81958ZM5.31958 4.58398C5.31958 3.75556 5.99115 3.08398 6.81958 3.08398H17.8196C18.648 3.08398 19.3196 3.75556 19.3196 4.58398V19.584C19.3196 20.4124 18.648 21.084 17.8196 21.084H6.81958C5.99115 21.084 5.31958 20.4124 5.31958 19.584V4.58398ZM14.5484 7.0791H12.9017C13.1418 7.41102 13.2599 7.79353 13.3221 8.12207H14.9712L14.5484 9.12207H13.2797C12.9749 10.3582 11.7732 10.9265 11.0586 10.9999L13.7811 14.0854H12.5742L9.84619 10.9999V9.99213C11.3327 10.1228 11.9003 9.65319 12.1169 9.12207H9.65942L10.0947 8.12207H12.2385C12.137 7.41333 11.5714 7.15246 11.0553 7.0791H9.65942L10.0947 6.0791H14.9712L14.5484 7.0791ZM9.31543 18.0981H15.3154V17.0981H9.31543V18.0981Z" fill="#101010"/>
</svg>
