<svg width="32" height="32" viewBox="0 0 32 32" fill="none" xmlns="http://www.w3.org/2000/svg">
<rect width="32" height="32" rx="4" fill="#4680E5"/>
<path fill-rule="evenodd" clip-rule="evenodd" d="M8.00423 8.50485C8.00423 7.12414 9.12352 6.00485 10.5042 6.00485H21.5042C22.8849 6.00485 24.0042 7.12414 24.0042 8.50485V23.5048C24.0042 24.8856 22.8849 26.0048 21.5042 26.0048H10.5042C9.12352 26.0048 8.00423 24.8856 8.00423 23.5048V21.4995H6.48898C6.21283 21.4995 5.98898 21.2756 5.98898 20.9995C5.98898 20.7233 6.21283 20.4995 6.48898 20.4995H8.00423V16.4995H6.48898C6.21283 16.4995 5.98898 16.2756 5.98898 15.9995C5.98898 15.7233 6.21283 15.4995 6.48898 15.4995H8.00423V11.4995H6.48898C6.21283 11.4995 5.98898 11.2756 5.98898 10.9995C5.98898 10.7233 6.21283 10.4995 6.48898 10.4995H8.00423V8.50485ZM9.00423 23.5048V21.004L9.00425 20.9995L9.00423 20.9949V16.004L9.00425 15.9995L9.00423 15.9949V11.004L9.00425 10.9995L9.00423 10.9949V8.50485C9.00423 7.67642 9.67581 7.00485 10.5042 7.00485H21.5042C22.3327 7.00485 23.0042 7.67642 23.0042 8.50485V23.5048C23.0042 24.3333 22.3327 25.0048 21.5042 25.0048H10.5042C9.67581 25.0048 9.00423 24.3333 9.00423 23.5048ZM14.6692 11C15.19 11.054 15.891 11.3138 16.1497 12H13.6071C13.4081 12 13.228 12.118 13.1486 12.3004C13.0049 12.6307 13.2469 13 13.6071 13H16.1735C16.0076 13.5502 15.5005 14.0726 14.0872 13.9082C13.8957 13.8365 13.6716 13.8749 13.5139 14.0257C13.2943 14.2356 13.2865 14.5838 13.4964 14.8033L13.7043 15.0212L13.7024 15.0271L14.2084 15.5497L16.4392 17.8879C16.6491 18.1075 16.9973 18.1153 17.2168 17.9054C17.3697 17.7592 17.4199 17.5461 17.3655 17.356L17.3735 17.3506L17.3593 17.3357C17.3345 17.2603 17.2928 17.189 17.2343 17.1278L15.222 15.0185C15.9992 14.9146 17.1798 14.3836 17.3124 13H18.4017C18.6026 13 18.7839 12.8797 18.8622 12.6947C19.0016 12.365 18.7596 12 18.4017 12H17.2269C17.1489 11.6754 17.0185 11.3042 16.7674 11H18.4017C18.6026 11 18.7839 10.8797 18.8622 10.6947C19.0016 10.365 18.7596 9.99997 18.4017 9.99997H13.6071C13.4081 9.99997 13.228 10.118 13.1486 10.3004C13.0049 10.6307 13.2469 11 13.6071 11H14.6692ZM13.5041 21.019C13.228 21.019 13.0041 21.2429 13.0041 21.519C13.0041 21.7952 13.228 22.019 13.5041 22.019H18.5041C18.7803 22.019 19.0041 21.7952 19.0041 21.519C19.0041 21.2429 18.7803 21.019 18.5041 21.019H13.5041Z" fill="white"/>
</svg>
