<svg width="25" height="25" viewBox="0 0 25 25" fill="none" xmlns="http://www.w3.org/2000/svg">
<path fill-rule="evenodd" clip-rule="evenodd" d="M4.31966 4.58395C4.31966 3.20324 5.43895 2.08395 6.81966 2.08395H17.8197C19.2004 2.08395 20.3197 3.20324 20.3197 4.58395V19.584C20.3197 20.9647 19.2004 22.084 17.8197 22.084H6.81966C5.43895 22.084 4.31966 20.9647 4.31966 19.584V17.5786H2.80441C2.52826 17.5786 2.30441 17.3547 2.30441 17.0786C2.30441 16.8024 2.52826 16.5786 2.80441 16.5786H4.31966V12.5786H2.80441C2.52826 12.5786 2.30441 12.3547 2.30441 12.0786C2.30441 11.8024 2.52826 11.5786 2.80441 11.5786H4.31966V7.57858H2.80441C2.52826 7.57858 2.30441 7.35472 2.30441 7.07858C2.30441 6.80244 2.52826 6.57858 2.80441 6.57858H4.31966V4.58395ZM5.31966 19.584V17.0831L5.31968 17.0786L5.31966 17.074V12.0831L5.31968 12.0786L5.31966 12.074V7.08313L5.31968 7.07858L5.31966 7.07403V4.58395C5.31966 3.75552 5.99124 3.08395 6.81966 3.08395H17.8197C18.6481 3.08395 19.3197 3.75552 19.3197 4.58395V19.584C19.3197 20.4124 18.6481 21.084 17.8197 21.084H6.81966C5.99124 21.084 5.31966 20.4124 5.31966 19.584ZM10.9846 7.07907C11.5054 7.1331 12.2064 7.39291 12.4652 8.07907H9.92251C9.72352 8.07907 9.54347 8.19707 9.46405 8.37952C9.32031 8.70977 9.56234 9.07907 9.92251 9.07907H12.4889C12.3231 9.62935 11.8159 10.1517 10.4026 9.98729C10.2111 9.91559 9.98703 9.95403 9.82931 10.1048C9.60975 10.3147 9.60193 10.6629 9.81184 10.8824L10.0197 11.1003L10.0178 11.1062L10.5239 11.6288L12.7546 13.967C12.9645 14.1866 13.3127 14.1944 13.5323 13.9845C13.6851 13.8383 13.7353 13.6252 13.6809 13.4351L13.6889 13.4297L13.6747 13.4148C13.6499 13.3394 13.6083 13.2681 13.5497 13.2069L11.5374 11.0976C12.3146 10.9937 13.4952 10.4627 13.6278 9.07907H14.7171C14.918 9.07907 15.0994 8.95883 15.1776 8.7738C15.317 8.44414 15.075 8.07907 14.7171 8.07907H13.5424C13.4643 7.75453 13.3339 7.38333 13.0828 7.07907H14.7171C14.918 7.07907 15.0994 6.95883 15.1776 6.7738C15.317 6.44414 15.075 6.07907 14.7171 6.07907H9.92251C9.72352 6.07907 9.54347 6.19707 9.46405 6.37952C9.32031 6.70977 9.56234 7.07907 9.92251 7.07907H10.9846ZM9.81954 17.0981C9.5434 17.0981 9.31954 17.322 9.31954 17.5981C9.31954 17.8743 9.5434 18.0981 9.81954 18.0981H14.8195C15.0957 18.0981 15.3195 17.8743 15.3195 17.5981C15.3195 17.322 15.0957 17.0981 14.8195 17.0981H9.81954Z" fill="#0000FF"/>
</svg>
