<svg width="24" height="24" viewBox="0 0 24 24" fill="none" xmlns="http://www.w3.org/2000/svg">
<path fill-rule="evenodd" clip-rule="evenodd" d="M4.50415 2.00485C4.22801 2.00485 4.00415 2.22871 4.00415 2.50485V6.49948H2V7.49948H4.00415V11.4995H2V12.4995H4.00415V16.4995H2V17.4995H4.00415V21.5049C4.00415 21.781 4.22801 22.0049 4.50415 22.0049H19.5042C19.7803 22.0049 20.0042 21.781 20.0042 21.5049V2.50485C20.0042 2.22871 19.7803 2.00485 19.5042 2.00485H4.50415ZM5.00415 21.0049V3.00485H19.0042V21.0049H5.00415ZM14.2329 6.99997H12.5862C12.8263 7.33189 12.9445 7.7144 13.0067 8.04294H14.6558L14.2329 9.04294H12.9642C12.6595 10.2791 11.4577 10.8473 10.7432 10.9208L13.4656 14.0063H12.2588L9.53076 10.9208V9.91299C11.0173 10.0437 11.5849 9.57406 11.8014 9.04294H9.34399L9.77925 8.04294H11.9231C11.8216 7.3342 11.256 7.07332 10.7399 6.99997H9.34399L9.77925 5.99997H14.6558L14.2329 6.99997ZM9 18.019H15V17.019H9V18.019Z" fill="#101010"/>
</svg>
