<svg width="25" height="25" viewBox="0 0 25 25" fill="none" xmlns="http://www.w3.org/2000/svg">
<path fill-rule="evenodd" clip-rule="evenodd" d="M3.85547 3.24829C3.44126 3.24829 3.10547 3.58408 3.10547 3.99829V20.4983C3.10547 20.9125 3.44126 21.2483 3.85547 21.2483H16.1093V19.7483H4.60547V4.74829H19.6055V10.2549H21.1055V3.99829C21.1055 3.58408 20.7697 3.24829 20.3555 3.24829H3.85547ZM18.494 15.2941C18.494 14.5965 19.0608 14.0293 19.744 14.0293H19.9343C20.5258 14.0293 21.0054 14.5088 21.0054 15.1004C21.0054 15.4378 20.8464 15.7554 20.5764 15.9577L19.9419 16.4329C19.2485 16.9522 18.8404 17.7678 18.8404 18.634V19.487H20.3404V18.634C20.3404 18.2403 20.5259 17.8696 20.8411 17.6335L21.4756 17.1583C22.1238 16.6728 22.5054 15.9103 22.5054 15.1004C22.5054 13.6804 21.3543 12.5293 19.9343 12.5293H19.744C18.218 12.5293 16.994 13.7825 16.994 15.2941H18.494ZM20.5298 21.5379C20.5298 22.035 20.1269 22.4379 19.6298 22.4379C19.1327 22.4379 18.7298 22.035 18.7298 21.5379C18.7298 21.0409 19.1327 20.6379 19.6298 20.6379C20.1269 20.6379 20.5298 21.0409 20.5298 21.5379ZM14.4876 9.34829H12.7896C12.9691 9.58931 13.0814 9.86734 13.1561 10.1318H15.0533L14.4876 11.2318H13.2574C13.0734 12.6461 11.6693 13.165 10.8988 13.2442L13.7285 16.2484H12.1628L9.48709 13.359V12.0944C11.1656 12.242 11.6812 11.7606 11.839 11.2318H9.15768L9.73576 10.1318H11.7948C11.5995 9.69006 11.1907 9.45104 10.7949 9.34829H9.15762L9.7357 8.24829H15.0532L14.4876 9.34829Z" fill="#101010"/>
</svg>
