<svg width="25" height="25" viewBox="0 0 25 25" fill="none" xmlns="http://www.w3.org/2000/svg">
<path fill-rule="evenodd" clip-rule="evenodd" d="M10.3974 4.21391C12.1714 3.82418 14.0243 4.03073 15.6689 4.80152C17.0877 5.46646 18.2829 6.51925 19.1207 7.83123L16.9532 7.44903L16.6927 8.92625L21.3706 9.75107L22.1954 5.07324L20.7182 4.81277L20.3405 6.9549C19.3527 5.43644 17.9573 4.21745 16.3055 3.4433C14.3619 2.53236 12.172 2.28826 10.0756 2.74885C7.97911 3.20944 6.09322 4.34897 4.71045 5.9907C3.32767 7.63242 2.5253 9.68457 2.4278 11.8288L3.92625 11.897C3.93207 11.7689 3.94086 11.6413 3.95258 11.5142L3.95968 11.5148C3.98397 11.2427 4.0218 10.9715 4.07319 10.7021L4.06858 10.7013C4.33494 9.3276 4.94783 8.0373 5.85772 6.95701C7.02776 5.56786 8.62351 4.60364 10.3974 4.21391ZM2.48591 13.3184C2.52135 13.6393 2.57276 13.9588 2.64015 14.2758C2.70753 14.5928 2.79055 14.9056 2.88872 15.2131L4.31769 14.757C4.23462 14.4968 4.16437 14.2321 4.10736 13.9639C4.05034 13.6957 4.00683 13.4253 3.97685 13.1538L2.48591 13.3184ZM21.6345 14.6188C21.713 14.3056 21.776 13.9882 21.8232 13.6676L20.3391 13.4492C20.2992 13.7205 20.2459 13.9891 20.1795 14.2541L21.6345 14.6188ZM20.5191 17.2953C20.6868 17.018 20.8403 16.7331 20.9792 16.4416L19.625 15.7965C19.5075 16.0431 19.3776 16.2842 19.2357 16.5188C19.0938 16.7534 18.9405 16.9804 18.7766 17.1989L19.9765 18.099C20.1702 17.8407 20.3514 17.5725 20.5191 17.2953ZM3.65815 16.9908C3.81519 17.2729 3.98643 17.5475 4.1714 17.8136C4.35636 18.0797 4.55413 18.3359 4.76383 18.5813L5.90432 17.607C5.72688 17.3993 5.55954 17.1825 5.40303 16.9574C5.24652 16.7323 5.10162 16.4999 4.96875 16.2612L3.65815 16.9908ZM17.9109 20.134C18.173 19.9434 18.425 19.7403 18.6659 19.5254L17.6676 18.4059C17.4637 18.5877 17.2506 18.7596 17.0288 18.9208C16.807 19.0821 16.5778 19.2319 16.342 19.3698L17.0992 20.6646C17.3779 20.5016 17.6489 20.3246 17.9109 20.134ZM6.16212 19.9219C6.41622 20.121 6.68051 20.3078 6.95415 20.4814C7.22778 20.655 7.50938 20.8145 7.79783 20.9595L8.47155 19.6193C8.22748 19.4966 7.9892 19.3617 7.75766 19.2148C7.52612 19.0679 7.30249 18.9098 7.08749 18.7413L6.16212 19.9219ZM14.4064 21.74C14.7219 21.6659 15.0329 21.5763 15.3383 21.4716L14.8519 20.0526C14.5935 20.1412 14.3304 20.217 14.0634 20.2797C13.7965 20.3424 13.5271 20.3917 13.2563 20.4274L13.4525 21.9145C13.7726 21.8723 14.091 21.8141 14.4064 21.74ZM9.60639 21.6533C9.91782 21.7384 10.2338 21.8082 10.5534 21.8622C10.8729 21.9161 11.1943 21.954 11.5164 21.9759L11.618 20.4793C11.3455 20.4608 11.0735 20.4288 10.8032 20.3831C10.5328 20.3374 10.2654 20.2784 10.0019 20.2064L9.60639 21.6533ZM12.6408 8.24841V11.7199H16.1055V13.2484H11.1055V8.24841H12.6408Z" fill="#F19E0C"/>
</svg>
