<svg width="25" height="25" viewBox="0 0 25 25" fill="none" xmlns="http://www.w3.org/2000/svg">
<path fill-rule="evenodd" clip-rule="evenodd" d="M20.1055 8.68892L22.7142 6.08021L23.7749 7.14087L19.8858 11.03C19.5929 11.3228 19.118 11.3228 18.8251 11.03L14.936 7.14087L15.9967 6.08021L18.6055 8.68901V1.24438H20.1055V8.68892ZM4.85544 5.24902C4.44122 5.24902 4.10544 5.58481 4.10544 5.99902V20.499C4.10544 20.9132 4.44122 21.249 4.85544 21.249H19.3554C19.7697 21.249 20.1054 20.9132 20.1054 20.499V13.249H18.6054V19.749H5.60544V6.74902H13.1192V5.24902H4.85544ZM15.585 9.39966H10.2676L9.68948 10.4997H11.2695C11.7134 10.5553 12.1878 10.7415 12.3685 11.2483H10.2676L9.68948 12.3483H12.3295C12.1302 12.8284 11.573 13.231 10.019 13.0943V14.3589L12.6947 17.2483H14.3639L11.4937 14.24C12.2426 14.163 13.5942 13.6737 13.8394 12.3483H15.0194L15.585 11.2483H13.7932C13.7391 11.0025 13.6601 10.739 13.5223 10.4997H15.0194L15.585 9.39966Z" fill="#101010"/>
</svg>
