<svg width="24" height="24" viewBox="0 0 24 24" fill="none" xmlns="http://www.w3.org/2000/svg">
<path fill-rule="evenodd" clip-rule="evenodd" d="M12 3.75C10.7574 3.75 9.75002 4.75736 9.75002 6C9.75002 7.24264 10.7574 8.25 12 8.25C13.2427 8.25 14.25 7.24264 14.25 6C14.25 4.75736 13.2427 3.75 12 3.75ZM8.25002 6C8.25002 3.92893 9.92896 2.25 12 2.25C14.0711 2.25 15.75 3.92893 15.75 6C15.75 8.07107 14.0711 9.75 12 9.75C9.92896 9.75 8.25002 8.07107 8.25002 6ZM4.95167 14.4909L2.54024 15.5226L1.9502 14.1436L6.54711 12.1767C6.92793 12.0138 7.36873 12.1904 7.53167 12.5712L9.4985 17.1681L8.11942 17.7582L6.73213 14.5158C6.20354 15.1848 5.83244 15.9894 5.67949 16.8785L5.51078 17.8593C5.27426 19.2342 6.3331 20.4907 7.72821 20.4907H16.3063C17.7335 20.4907 18.8001 19.1789 18.5089 17.7817L18.283 16.6974C17.7756 14.2631 15.6301 12.5186 13.1434 12.5186H10.8535C10.4725 12.5186 10.0997 12.5595 9.73978 12.6374L9.15399 11.2351C9.69869 11.0935 10.2685 11.0186 10.8535 11.0186H13.1434C16.3405 11.0186 19.0991 13.2615 19.7514 16.3914L19.9774 17.4756C20.4627 19.8044 18.6851 21.9907 16.3063 21.9907H7.72821C5.40302 21.9907 3.63829 19.8965 4.03249 17.605L4.20121 16.6242C4.33307 15.8576 4.59107 15.1399 4.95167 14.4909Z" fill="#101010"/>
</svg>
