<svg width="25" height="25" viewBox="0 0 25 25" fill="none" xmlns="http://www.w3.org/2000/svg">
<path fill-rule="evenodd" clip-rule="evenodd" d="M12.1055 3.99829C10.8628 3.99829 9.85546 5.00565 9.85546 6.24829C9.85546 7.49093 10.8628 8.49829 12.1055 8.49829C13.3481 8.49829 14.3555 7.49093 14.3555 6.24829C14.3555 5.00565 13.3481 3.99829 12.1055 3.99829ZM8.35546 6.24829C8.35546 4.17722 10.0344 2.49829 12.1055 2.49829C14.1765 2.49829 15.8555 4.17722 15.8555 6.24829C15.8555 8.31936 14.1765 9.99829 12.1055 9.99829C10.0344 9.99829 8.35546 8.31936 8.35546 6.24829ZM5.05711 14.7392L2.64568 15.7709L2.05563 14.3918L6.65254 12.425C7.03336 12.2621 7.47417 12.4387 7.6371 12.8195L9.60393 17.4164L8.22486 18.0065L6.83757 14.7641C6.30898 15.4331 5.93788 16.2377 5.78493 17.1268L5.61622 18.1076C5.3797 19.4825 6.43853 20.739 7.83364 20.739H16.4117C17.839 20.739 18.9056 19.4272 18.6144 18.03L18.3884 16.9457C17.8811 14.5114 15.7355 12.7668 13.2488 12.7668H10.9589C10.5779 12.7668 10.2052 12.8077 9.84522 12.8857L9.25942 11.4834C9.80412 11.3418 10.374 11.2668 10.9589 11.2668H13.2488C16.446 11.2668 19.2046 13.5098 19.8569 16.6397L20.0828 17.7239C20.5682 20.0527 18.7905 22.239 16.4117 22.239H7.83364C5.50846 22.239 3.74373 20.1448 4.13793 17.8533L4.30664 16.8725C4.43851 16.1059 4.69651 15.3882 5.05711 14.7392Z" fill="#101010"/>
</svg>
