<svg width="24" height="24" viewBox="0 0 24 24" fill="none" xmlns="http://www.w3.org/2000/svg">
<path fill-rule="evenodd" clip-rule="evenodd" d="M4.75003 2.01781C4.33582 2.01781 4.00003 2.35359 4.00003 2.76781V6.2495H2V7.7495H4.00003V11.2495H2V12.7495H4.00003V16.2495H2V17.7495H4.00003V21.4107C4.00003 21.8249 4.33582 22.1607 4.75003 22.1607H19.25C19.6642 22.1607 20 21.8249 20 21.4107V2.76781C20 2.35359 19.6642 2.01781 19.25 2.01781H4.75003ZM5.50003 20.6607V3.51781H18.5V20.6607H5.50003ZM14.4281 7.12122H12.9022C13.0426 7.36518 13.1232 7.63379 13.1783 7.88426H15.0047L14.4281 9.0055H13.2253C12.9753 10.3564 11.5977 10.8551 10.8343 10.9336L13.76 13.9999H12.0585L9.33112 11.0548V9.76581C10.9151 9.90505 11.483 9.49478 11.6862 9.0055H8.9953L9.58454 7.88426H11.7261C11.5421 7.36811 11.0594 7.17818 10.6072 7.12122H8.9953L9.58454 5.99998H15.0047L14.4281 7.12122ZM9 18.0034H15V16.5034H9V18.0034Z" fill="#101010"/>
</svg>
