<svg width="25" height="25" viewBox="0 0 25 25" fill="none" xmlns="http://www.w3.org/2000/svg">
<path fill-rule="evenodd" clip-rule="evenodd" d="M11.1316 4.81523C12.9055 4.4255 14.7585 4.63205 16.4031 5.40284C17.8219 6.06785 19.0173 7.12079 19.8551 8.43296L17.6873 8.05071L17.4269 9.52793L22.1047 10.3528L22.9295 5.67492L21.4523 5.41445L21.0746 7.55627C20.0868 6.03779 18.6914 4.81878 17.0396 4.04462C15.096 3.13368 12.9062 2.88958 10.8097 3.35017C8.71324 3.81076 6.82735 4.95029 5.44458 6.59202C4.06181 8.23374 3.25943 10.2859 3.16193 12.4301L4.66038 12.4983C4.66619 12.3704 4.67497 12.2429 4.68668 12.1158L4.6938 12.1165C4.71809 11.8444 4.75592 11.5732 4.80731 11.3038L4.80264 11.3029C5.06897 9.92914 5.68188 8.63871 6.59185 7.55833C7.76189 6.16918 9.35764 5.20496 11.1316 4.81523ZM3.22003 13.9201C3.25546 14.241 3.30688 14.5605 3.37426 14.8775C3.44165 15.1944 3.52467 15.5072 3.62284 15.8148L5.05181 15.3587C4.96874 15.0984 4.89849 14.8338 4.84147 14.5655C4.78445 14.2973 4.74095 14.027 4.71097 13.7554L3.22003 13.9201ZM21.2532 17.897C21.421 17.6197 21.5745 17.3348 21.7133 17.0433L20.3591 16.3982C20.2416 16.6448 20.1118 16.8859 19.9698 17.1205C19.8279 17.3551 19.6746 17.582 19.5107 17.8006L20.7106 18.7007C20.9043 18.4424 21.0855 18.1742 21.2532 17.897ZM4.39227 17.5925C4.54931 17.8746 4.72055 18.1492 4.90551 18.4153C5.09048 18.6814 5.28825 18.9375 5.49795 19.183L6.63844 18.2087C6.461 18.001 6.29366 17.7842 6.13715 17.5591C5.98063 17.3339 5.83574 17.1016 5.70286 16.8629L4.39227 17.5925ZM18.6451 20.7357C18.9072 20.5451 19.1591 20.342 19.4 20.1271L18.4018 19.0075C18.1979 19.1893 17.9847 19.3613 17.7629 19.5225C17.5412 19.6838 17.3119 19.8336 17.0761 19.9715L17.8334 21.2663C18.112 21.1033 18.383 20.9263 18.6451 20.7357ZM6.89624 20.5235C7.15033 20.7227 7.41463 20.9095 7.68826 21.0831C7.9619 21.2567 8.2435 21.4162 8.53195 21.5612L9.20567 20.221C8.9616 20.0983 8.72332 19.9633 8.49178 19.8165C8.26024 19.6696 8.03661 19.5115 7.82161 19.343L6.89624 20.5235ZM15.1405 22.3417C15.456 22.2676 15.767 22.1779 16.0724 22.0733L15.586 20.6543C15.3276 20.7429 15.0645 20.8187 14.7976 20.8814C14.5306 20.9441 14.2612 20.9933 13.9904 21.0291L14.1866 22.5162C14.5067 22.474 14.8251 22.4158 15.1405 22.3417ZM10.3405 22.255C10.6519 22.3401 10.968 22.4099 11.2875 22.4638C11.607 22.5178 11.9284 22.5557 12.2505 22.5776L12.3522 21.081C12.0796 21.0625 11.8077 21.0304 11.5373 20.9848C11.2669 20.9391 10.9995 20.8801 10.736 20.8081L10.3405 22.255ZM13.3749 8.85009V12.3216H16.8396V13.8501H11.8396V8.85009H13.3749Z" fill="#F19E0C"/>
</svg>
