<svg width="24" height="24" viewBox="0 0 24 24" fill="none" xmlns="http://www.w3.org/2000/svg">
<path fill-rule="evenodd" clip-rule="evenodd" d="M6.75003 3C4.67896 3 3.00003 4.67893 3.00003 6.75V8.0102H4.50003V6.75C4.50003 5.50736 5.50739 4.5 6.75003 4.5H8.00796V3H6.75003ZM17.25 3H16.0041V4.5H17.25C18.4927 4.5 19.5 5.50736 19.5 6.75V8.00274H21V6.75C21 4.67893 19.3211 3 17.25 3ZM4.50003 17.25V16.0039H3.00003V17.25C3.00003 19.3211 4.67896 21 6.75003 21H8.00394V19.5H6.75003C5.50739 19.5 4.50003 18.4926 4.50003 17.25ZM21 17.25V16.0078H19.5V17.25C19.5 18.4926 18.4927 19.5 17.25 19.5H16V21H17.25C19.3211 21 21 19.3211 21 17.25ZM6.8963 7.75342C6.8963 7.3392 7.23209 7.00342 7.6463 7.00342H10.6463C11.0605 7.00342 11.3963 7.3392 11.3963 7.75342V10.7534C11.3963 11.1676 11.0605 11.5034 10.6463 11.5034H7.6463C7.23209 11.5034 6.8963 11.1676 6.8963 10.7534V7.75342ZM8.3963 8.50342V10.0034H9.8963V8.50342H8.3963ZM12.8963 7.75342C12.8963 7.3392 13.2321 7.00342 13.6463 7.00342H16.6463C17.0605 7.00342 17.3963 7.3392 17.3963 7.75342V10.7534C17.3963 11.1676 17.0605 11.5034 16.6463 11.5034H13.6463C13.2321 11.5034 12.8963 11.1676 12.8963 10.7534V7.75342ZM14.3963 8.50342V10.0034H15.8963V8.50342H14.3963ZM7.6463 13.0034C7.23209 13.0034 6.8963 13.3392 6.8963 13.7534V16.7534C6.8963 17.1676 7.23209 17.5034 7.6463 17.5034H10.6463C11.0605 17.5034 11.3963 17.1676 11.3963 16.7534V13.7534C11.3963 13.3392 11.0605 13.0034 10.6463 13.0034H7.6463ZM8.3963 16.0034V14.5034H9.8963V16.0034H8.3963ZM12.8963 13.7534C12.8963 13.3392 13.2321 13.0034 13.6463 13.0034H16.1463C16.5605 13.0034 16.8963 13.3392 16.8963 13.7534V16.2534C16.8963 16.6676 16.5605 17.0034 16.1463 17.0034H13.6463C13.2321 17.0034 12.8963 16.6676 12.8963 16.2534V13.7534ZM14.3963 14.5034V15.5034H15.3963V14.5034H14.3963Z" fill="#101010"/>
</svg>
