<svg width="24" height="24" viewBox="0 0 24 24" fill="none" xmlns="http://www.w3.org/2000/svg">
<path fill-rule="evenodd" clip-rule="evenodd" d="M20 8.44063L22.6087 5.83192L23.6694 6.89258L19.7803 10.7817C19.4874 11.0746 19.0125 11.0746 18.7196 10.7817L14.8305 6.89258L15.8912 5.83192L18.5 8.44072V0.996094H20V8.44063ZM5.49994 8.75073C5.49994 7.50809 6.5073 6.50073 7.74994 6.50073H13.0137V5.00073H7.74994C5.67887 5.00073 3.99994 6.67966 3.99994 8.75073V17.2507C3.99994 19.3218 5.67887 21.0007 7.74994 21.0007H16.2499C18.321 21.0007 19.9999 19.3218 19.9999 17.2507V13.0007H18.4999V17.2507C18.4999 18.4934 17.4926 19.5007 16.2499 19.5007H7.74994C6.5073 19.5007 5.49994 18.4934 5.49994 17.2507V8.75073ZM15.4795 9.15137H10.1621L9.58398 10.2514H11.164C11.6079 10.307 12.0823 10.4932 12.263 11H10.1621L9.58398 12.1H12.224C12.0247 12.5801 11.4675 12.9827 9.91345 12.846V14.1106L12.5892 17H14.2585L11.3882 13.9917C12.1371 13.9147 13.4887 13.4254 13.7339 12.1H14.9139L15.4795 11H13.6877C13.6336 10.7542 13.5546 10.4907 13.4168 10.2514H14.9139L15.4795 9.15137Z" fill="#101010"/>
</svg>
