<svg width="24" height="25" viewBox="0 0 24 25" fill="none" xmlns="http://www.w3.org/2000/svg">
<path fill-rule="evenodd" clip-rule="evenodd" d="M20 9.1291L22.6087 6.52039L23.6694 7.58105L19.7803 11.4701C19.4874 11.763 19.0125 11.763 18.7197 11.4701L14.8306 7.58105L15.8912 6.52039L18.5 9.1292V1.68457H20V9.1291ZM5.49997 9.43921C5.49997 8.19657 6.50733 7.18921 7.74997 7.18921H13.0137V5.68921H7.74997C5.6789 5.68921 3.99997 7.36814 3.99997 9.43921V17.9392C3.99997 20.0103 5.6789 21.6892 7.74997 21.6892H16.25C18.321 21.6892 20 20.0103 20 17.9392V13.6892H18.5V17.9392C18.5 19.1819 17.4926 20.1892 16.25 20.1892H7.74997C6.50733 20.1892 5.49997 19.1819 5.49997 17.9392V9.43921ZM15.4796 9.83984H10.1621L9.58401 10.9398H11.1641C11.608 10.9955 12.0823 11.1817 12.2631 11.6885H10.1621L9.58401 12.7885H12.224C12.0247 13.2685 11.4676 13.6711 9.91348 13.5345V14.7991L12.5892 17.6884H14.2585L11.3882 14.6802C12.1371 14.6032 13.4888 14.1138 13.7339 12.7885H14.9139L15.4796 11.6885H13.6878C13.6337 11.4427 13.5546 11.1792 13.4168 10.9398H14.9139L15.4796 9.83984Z" fill="#101010"/>
</svg>
