<svg width="24" height="24" viewBox="0 0 24 24" fill="none" xmlns="http://www.w3.org/2000/svg">
<path fill-rule="evenodd" clip-rule="evenodd" d="M15.5103 7.2438L18.4768 4.2773V11.9818H19.9768V4.28567L22.935 7.2438L23.9956 6.18314L19.753 1.9405C19.4601 1.6476 18.9852 1.6476 18.6923 1.9405L14.4497 6.18314L15.5103 7.2438ZM5.48001 5.75759C5.48001 4.51496 6.48737 3.5076 7.73001 3.5076H13.9917V2.0076H7.73001C5.65894 2.0076 3.98001 3.68653 3.98001 5.75759V6.24954H1.98001V7.74954H3.98001V11.2495H1.98001V12.7495H3.98001V16.2495H1.98001V17.7495H3.98001V18.4005C3.98001 20.4715 5.65894 22.1505 7.73001 22.1505H16.23C18.3011 22.1505 19.98 20.4715 19.98 18.4005V14.0038H18.48V18.4005C18.48 19.6431 17.4727 20.6505 16.23 20.6505H7.73001C6.48737 20.6505 5.48001 19.6431 5.48001 18.4005V5.75759ZM13.98 9.98734C13.98 11.0919 13.0846 11.9873 11.98 11.9873C10.8754 11.9873 9.98001 11.0919 9.98001 9.98734C9.98001 8.88277 10.8754 7.98733 11.98 7.98733C13.0846 7.98733 13.98 8.88277 13.98 9.98734ZM11.18 13.0157C9.4127 13.0157 7.98001 14.4483 7.98001 16.2157C7.98001 16.6575 8.33818 17.0157 8.78001 17.0157H15.18C15.6218 17.0157 15.98 16.6575 15.98 16.2157C15.98 14.4483 14.5473 13.0157 12.78 13.0157H11.18Z" fill="#101010"/>
</svg>
